G04 EAGLE Gerber X2 export*
%TF.Part,Single*%
%TF.FileFunction,Copper,L1,Top,Mixed*%
%TF.FilePolarity,Positive*%
%TF.GenerationSoftware,Autodesk,EAGLE,9.1.3*%
%TF.CreationDate,2020-04-16T01:31:32Z*%
G75*
%MOMM*%
%FSLAX34Y34*%
%LPD*%
%AMOC8*
5,1,8,0,0,1.08239X$1,22.5*%
G01*
%ADD10R,2.625000X2.625000*%
%ADD11C,2.625000*%
%ADD12C,1.524000*%
%ADD13C,0.304800*%
%ADD14C,0.503200*%


D10*
X808700Y-214000D03*
D11*
X848700Y-214000D03*
X888700Y-214000D03*
X928700Y-214000D03*
X968700Y-214000D03*
X1008700Y-214000D03*
X1048700Y-214000D03*
X1088700Y-214000D03*
X1128700Y-214000D03*
X1168700Y-214000D03*
X1208700Y-214000D03*
X1248700Y-214000D03*
X828700Y-254000D03*
X868700Y-254000D03*
X908700Y-254000D03*
X948700Y-254000D03*
X988700Y-254000D03*
X1028700Y-254000D03*
X1068700Y-254000D03*
X1108700Y-254000D03*
X1148700Y-254000D03*
X1188700Y-254000D03*
X1228700Y-254000D03*
X808700Y-294000D03*
X848700Y-294000D03*
X888700Y-294000D03*
X928700Y-294000D03*
X968700Y-294000D03*
X1008700Y-294000D03*
X1048700Y-294000D03*
X1088700Y-294000D03*
X1128700Y-294000D03*
X1168700Y-294000D03*
X1208700Y-294000D03*
X1248700Y-294000D03*
D10*
X21300Y-214000D03*
D11*
X61300Y-214000D03*
X101300Y-214000D03*
X141300Y-214000D03*
X181300Y-214000D03*
X221300Y-214000D03*
X261300Y-214000D03*
X301300Y-214000D03*
X341300Y-214000D03*
X381300Y-214000D03*
X421300Y-214000D03*
X461300Y-214000D03*
X41300Y-254000D03*
X81300Y-254000D03*
X121300Y-254000D03*
X161300Y-254000D03*
X201300Y-254000D03*
X241300Y-254000D03*
X281300Y-254000D03*
X321300Y-254000D03*
X361300Y-254000D03*
X401300Y-254000D03*
X441300Y-254000D03*
X21300Y-294000D03*
X61300Y-294000D03*
X101300Y-294000D03*
X141300Y-294000D03*
X181300Y-294000D03*
X221300Y-294000D03*
X261300Y-294000D03*
X301300Y-294000D03*
X341300Y-294000D03*
X381300Y-294000D03*
X421300Y-294000D03*
X461300Y-294000D03*
D12*
X152400Y1313180D02*
X152400Y1328420D01*
X177800Y1328420D02*
X177800Y1313180D01*
X203200Y1313180D02*
X203200Y1328420D01*
X152400Y1264920D02*
X152400Y1249680D01*
X177800Y1249680D02*
X177800Y1264920D01*
X203200Y1264920D02*
X203200Y1249680D01*
X152400Y1201420D02*
X152400Y1186180D01*
X177800Y1186180D02*
X177800Y1201420D01*
X203200Y1201420D02*
X203200Y1186180D01*
X152400Y1137920D02*
X152400Y1122680D01*
X177800Y1122680D02*
X177800Y1137920D01*
X203200Y1137920D02*
X203200Y1122680D01*
X152400Y1074420D02*
X152400Y1059180D01*
X177800Y1059180D02*
X177800Y1074420D01*
X203200Y1074420D02*
X203200Y1059180D01*
X152400Y1010920D02*
X152400Y995680D01*
X177800Y995680D02*
X177800Y1010920D01*
X203200Y1010920D02*
X203200Y995680D01*
X152400Y947420D02*
X152400Y932180D01*
X177800Y932180D02*
X177800Y947420D01*
X203200Y947420D02*
X203200Y932180D01*
X152400Y883920D02*
X152400Y868680D01*
X177800Y868680D02*
X177800Y883920D01*
X203200Y883920D02*
X203200Y868680D01*
X152400Y820420D02*
X152400Y805180D01*
X177800Y805180D02*
X177800Y820420D01*
X203200Y820420D02*
X203200Y805180D01*
X152400Y756920D02*
X152400Y741680D01*
X177800Y741680D02*
X177800Y756920D01*
X203200Y756920D02*
X203200Y741680D01*
X152400Y693420D02*
X152400Y678180D01*
X177800Y678180D02*
X177800Y693420D01*
X203200Y693420D02*
X203200Y678180D01*
X152400Y629920D02*
X152400Y614680D01*
X177800Y614680D02*
X177800Y629920D01*
X203200Y629920D02*
X203200Y614680D01*
X152400Y566420D02*
X152400Y551180D01*
X177800Y551180D02*
X177800Y566420D01*
X203200Y566420D02*
X203200Y551180D01*
X152400Y502920D02*
X152400Y487680D01*
X177800Y487680D02*
X177800Y502920D01*
X203200Y502920D02*
X203200Y487680D01*
X152400Y439420D02*
X152400Y424180D01*
X177800Y424180D02*
X177800Y439420D01*
X203200Y439420D02*
X203200Y424180D01*
X152400Y375920D02*
X152400Y360680D01*
X177800Y360680D02*
X177800Y375920D01*
X203200Y375920D02*
X203200Y360680D01*
X152400Y312420D02*
X152400Y297180D01*
X177800Y297180D02*
X177800Y312420D01*
X203200Y312420D02*
X203200Y297180D01*
X152400Y248920D02*
X152400Y233680D01*
X177800Y233680D02*
X177800Y248920D01*
X203200Y248920D02*
X203200Y233680D01*
X152400Y185420D02*
X152400Y170180D01*
X177800Y170180D02*
X177800Y185420D01*
X203200Y185420D02*
X203200Y170180D01*
X152400Y121920D02*
X152400Y106680D01*
X177800Y106680D02*
X177800Y121920D01*
X203200Y121920D02*
X203200Y106680D01*
X152400Y58420D02*
X152400Y43180D01*
X177800Y43180D02*
X177800Y58420D01*
X203200Y58420D02*
X203200Y43180D01*
X152400Y-5080D02*
X152400Y-20320D01*
X177800Y-20320D02*
X177800Y-5080D01*
X203200Y-5080D02*
X203200Y-20320D01*
X584200Y1313180D02*
X584200Y1328420D01*
X609600Y1328420D02*
X609600Y1313180D01*
X635000Y1313180D02*
X635000Y1328420D01*
X584200Y1264920D02*
X584200Y1249680D01*
X609600Y1249680D02*
X609600Y1264920D01*
X635000Y1264920D02*
X635000Y1249680D01*
X584200Y1201420D02*
X584200Y1186180D01*
X609600Y1186180D02*
X609600Y1201420D01*
X635000Y1201420D02*
X635000Y1186180D01*
X584200Y1137920D02*
X584200Y1122680D01*
X609600Y1122680D02*
X609600Y1137920D01*
X635000Y1137920D02*
X635000Y1122680D01*
X584200Y1074420D02*
X584200Y1059180D01*
X609600Y1059180D02*
X609600Y1074420D01*
X635000Y1074420D02*
X635000Y1059180D01*
X584200Y1010920D02*
X584200Y995680D01*
X609600Y995680D02*
X609600Y1010920D01*
X635000Y1010920D02*
X635000Y995680D01*
X584200Y947420D02*
X584200Y932180D01*
X609600Y932180D02*
X609600Y947420D01*
X635000Y947420D02*
X635000Y932180D01*
X584200Y883920D02*
X584200Y868680D01*
X609600Y868680D02*
X609600Y883920D01*
X635000Y883920D02*
X635000Y868680D01*
X584200Y820420D02*
X584200Y805180D01*
X609600Y805180D02*
X609600Y820420D01*
X635000Y820420D02*
X635000Y805180D01*
X584200Y756920D02*
X584200Y741680D01*
X609600Y741680D02*
X609600Y756920D01*
X635000Y756920D02*
X635000Y741680D01*
X584200Y693420D02*
X584200Y678180D01*
X609600Y678180D02*
X609600Y693420D01*
X635000Y693420D02*
X635000Y678180D01*
X584200Y629920D02*
X584200Y614680D01*
X609600Y614680D02*
X609600Y629920D01*
X635000Y629920D02*
X635000Y614680D01*
X584200Y566420D02*
X584200Y551180D01*
X609600Y551180D02*
X609600Y566420D01*
X635000Y566420D02*
X635000Y551180D01*
X584200Y502920D02*
X584200Y487680D01*
X609600Y487680D02*
X609600Y502920D01*
X635000Y502920D02*
X635000Y487680D01*
X584200Y439420D02*
X584200Y424180D01*
X609600Y424180D02*
X609600Y439420D01*
X635000Y439420D02*
X635000Y424180D01*
X584200Y375920D02*
X584200Y360680D01*
X609600Y360680D02*
X609600Y375920D01*
X635000Y375920D02*
X635000Y360680D01*
X584200Y312420D02*
X584200Y297180D01*
X609600Y297180D02*
X609600Y312420D01*
X635000Y312420D02*
X635000Y297180D01*
X584200Y248920D02*
X584200Y233680D01*
X609600Y233680D02*
X609600Y248920D01*
X635000Y248920D02*
X635000Y233680D01*
X584200Y185420D02*
X584200Y170180D01*
X609600Y170180D02*
X609600Y185420D01*
X635000Y185420D02*
X635000Y170180D01*
X584200Y121920D02*
X584200Y106680D01*
X609600Y106680D02*
X609600Y121920D01*
X635000Y121920D02*
X635000Y106680D01*
X584200Y58420D02*
X584200Y43180D01*
X609600Y43180D02*
X609600Y58420D01*
X635000Y58420D02*
X635000Y43180D01*
X584200Y-5080D02*
X584200Y-20320D01*
X609600Y-20320D02*
X609600Y-5080D01*
X635000Y-5080D02*
X635000Y-20320D01*
X977900Y1313180D02*
X977900Y1328420D01*
X1003300Y1328420D02*
X1003300Y1313180D01*
X1028700Y1313180D02*
X1028700Y1328420D01*
X977900Y1264920D02*
X977900Y1249680D01*
X1003300Y1249680D02*
X1003300Y1264920D01*
X1028700Y1264920D02*
X1028700Y1249680D01*
X977900Y1201420D02*
X977900Y1186180D01*
X1003300Y1186180D02*
X1003300Y1201420D01*
X1028700Y1201420D02*
X1028700Y1186180D01*
X977900Y1137920D02*
X977900Y1122680D01*
X1003300Y1122680D02*
X1003300Y1137920D01*
X1028700Y1137920D02*
X1028700Y1122680D01*
X977900Y1074420D02*
X977900Y1059180D01*
X1003300Y1059180D02*
X1003300Y1074420D01*
X1028700Y1074420D02*
X1028700Y1059180D01*
X977900Y1010920D02*
X977900Y995680D01*
X1003300Y995680D02*
X1003300Y1010920D01*
X1028700Y1010920D02*
X1028700Y995680D01*
X977900Y947420D02*
X977900Y932180D01*
X1003300Y932180D02*
X1003300Y947420D01*
X1028700Y947420D02*
X1028700Y932180D01*
X977900Y883920D02*
X977900Y868680D01*
X1003300Y868680D02*
X1003300Y883920D01*
X1028700Y883920D02*
X1028700Y868680D01*
X977900Y820420D02*
X977900Y805180D01*
X1003300Y805180D02*
X1003300Y820420D01*
X1028700Y820420D02*
X1028700Y805180D01*
X977900Y756920D02*
X977900Y741680D01*
X1003300Y741680D02*
X1003300Y756920D01*
X1028700Y756920D02*
X1028700Y741680D01*
X977900Y693420D02*
X977900Y678180D01*
X1003300Y678180D02*
X1003300Y693420D01*
X1028700Y693420D02*
X1028700Y678180D01*
X977900Y629920D02*
X977900Y614680D01*
X1003300Y614680D02*
X1003300Y629920D01*
X1028700Y629920D02*
X1028700Y614680D01*
X977900Y566420D02*
X977900Y551180D01*
X1003300Y551180D02*
X1003300Y566420D01*
X1028700Y566420D02*
X1028700Y551180D01*
X977900Y502920D02*
X977900Y487680D01*
X1003300Y487680D02*
X1003300Y502920D01*
X1028700Y502920D02*
X1028700Y487680D01*
X977900Y439420D02*
X977900Y424180D01*
X1003300Y424180D02*
X1003300Y439420D01*
X1028700Y439420D02*
X1028700Y424180D01*
X977900Y375920D02*
X977900Y360680D01*
X1003300Y360680D02*
X1003300Y375920D01*
X1028700Y375920D02*
X1028700Y360680D01*
X977900Y312420D02*
X977900Y297180D01*
X1003300Y297180D02*
X1003300Y312420D01*
X1028700Y312420D02*
X1028700Y297180D01*
X977900Y248920D02*
X977900Y233680D01*
X1003300Y233680D02*
X1003300Y248920D01*
X1028700Y248920D02*
X1028700Y233680D01*
X977900Y185420D02*
X977900Y170180D01*
X1003300Y170180D02*
X1003300Y185420D01*
X1028700Y185420D02*
X1028700Y170180D01*
X977900Y121920D02*
X977900Y106680D01*
X1003300Y106680D02*
X1003300Y121920D01*
X1028700Y121920D02*
X1028700Y106680D01*
X977900Y58420D02*
X977900Y43180D01*
X1003300Y43180D02*
X1003300Y58420D01*
X1028700Y58420D02*
X1028700Y43180D01*
X977900Y-5080D02*
X977900Y-20320D01*
X1003300Y-20320D02*
X1003300Y-5080D01*
X1028700Y-5080D02*
X1028700Y-20320D01*
X528320Y-127000D02*
X513080Y-127000D01*
X513080Y-101600D02*
X528320Y-101600D01*
X528320Y-76200D02*
X513080Y-76200D01*
X576580Y-127000D02*
X591820Y-127000D01*
X591820Y-101600D02*
X576580Y-101600D01*
X576580Y-76200D02*
X591820Y-76200D01*
X640080Y-127000D02*
X655320Y-127000D01*
X655320Y-101600D02*
X640080Y-101600D01*
X640080Y-76200D02*
X655320Y-76200D01*
X703580Y-127000D02*
X718820Y-127000D01*
X718820Y-101600D02*
X703580Y-101600D01*
X703580Y-76200D02*
X718820Y-76200D01*
D10*
X1255400Y8600D03*
D11*
X1255400Y48600D03*
X1255400Y88600D03*
X1255400Y128600D03*
X1255400Y168600D03*
X1255400Y208600D03*
X1255400Y248600D03*
X1255400Y288600D03*
X1255400Y328600D03*
X1255400Y368600D03*
X1255400Y408600D03*
X1255400Y448600D03*
X1295400Y28600D03*
X1295400Y68600D03*
X1295400Y108600D03*
X1295400Y148600D03*
X1295400Y188600D03*
X1295400Y228600D03*
X1295400Y268600D03*
X1295400Y308600D03*
X1295400Y348600D03*
X1295400Y388600D03*
X1295400Y428600D03*
X1335400Y8600D03*
X1335400Y48600D03*
X1335400Y88600D03*
X1335400Y128600D03*
X1335400Y168600D03*
X1335400Y208600D03*
X1335400Y248600D03*
X1335400Y288600D03*
X1335400Y328600D03*
X1335400Y368600D03*
X1335400Y408600D03*
X1335400Y448600D03*
D10*
X1255400Y796000D03*
D11*
X1255400Y836000D03*
X1255400Y876000D03*
X1255400Y916000D03*
X1255400Y956000D03*
X1255400Y996000D03*
X1255400Y1036000D03*
X1255400Y1076000D03*
X1255400Y1116000D03*
X1255400Y1156000D03*
X1255400Y1196000D03*
X1255400Y1236000D03*
X1295400Y816000D03*
X1295400Y856000D03*
X1295400Y896000D03*
X1295400Y936000D03*
X1295400Y976000D03*
X1295400Y1016000D03*
X1295400Y1056000D03*
X1295400Y1096000D03*
X1295400Y1136000D03*
X1295400Y1176000D03*
X1295400Y1216000D03*
X1335400Y796000D03*
X1335400Y836000D03*
X1335400Y876000D03*
X1335400Y916000D03*
X1335400Y956000D03*
X1335400Y996000D03*
X1335400Y1036000D03*
X1335400Y1076000D03*
X1335400Y1116000D03*
X1335400Y1156000D03*
X1335400Y1196000D03*
X1335400Y1236000D03*
D10*
X14600Y1236000D03*
D11*
X14600Y1196000D03*
X14600Y1156000D03*
X14600Y1116000D03*
X14600Y1076000D03*
X14600Y1036000D03*
X14600Y996000D03*
X14600Y956000D03*
X14600Y916000D03*
X14600Y876000D03*
X14600Y836000D03*
X14600Y796000D03*
X-25400Y1216000D03*
X-25400Y1176000D03*
X-25400Y1136000D03*
X-25400Y1096000D03*
X-25400Y1056000D03*
X-25400Y1016000D03*
X-25400Y976000D03*
X-25400Y936000D03*
X-25400Y896000D03*
X-25400Y856000D03*
X-25400Y816000D03*
X-65400Y1236000D03*
X-65400Y1196000D03*
X-65400Y1156000D03*
X-65400Y1116000D03*
X-65400Y1076000D03*
X-65400Y1036000D03*
X-65400Y996000D03*
X-65400Y956000D03*
X-65400Y916000D03*
X-65400Y876000D03*
X-65400Y836000D03*
X-65400Y796000D03*
D10*
X14600Y448600D03*
D11*
X14600Y408600D03*
X14600Y368600D03*
X14600Y328600D03*
X14600Y288600D03*
X14600Y248600D03*
X14600Y208600D03*
X14600Y168600D03*
X14600Y128600D03*
X14600Y88600D03*
X14600Y48600D03*
X14600Y8600D03*
X-25400Y428600D03*
X-25400Y388600D03*
X-25400Y348600D03*
X-25400Y308600D03*
X-25400Y268600D03*
X-25400Y228600D03*
X-25400Y188600D03*
X-25400Y148600D03*
X-25400Y108600D03*
X-25400Y68600D03*
X-25400Y28600D03*
X-65400Y448600D03*
X-65400Y408600D03*
X-65400Y368600D03*
X-65400Y328600D03*
X-65400Y288600D03*
X-65400Y248600D03*
X-65400Y208600D03*
X-65400Y168600D03*
X-65400Y128600D03*
X-65400Y88600D03*
X-65400Y48600D03*
X-65400Y8600D03*
D13*
X917321Y907479D02*
X923227Y907479D01*
X974408Y856298D01*
X1017715Y856298D01*
X1080707Y627952D02*
X1080707Y596456D01*
X1163384Y513779D01*
X1163384Y488188D01*
X1157478Y226378D02*
X1151573Y220472D01*
X1112203Y220472D01*
X1108266Y216535D01*
X1108266Y161417D01*
X1125982Y143701D01*
X1092518Y21654D02*
X1086612Y15748D01*
X1086612Y13780D01*
X1078738Y5906D01*
X972439Y5906D01*
X964565Y-1969D01*
X964565Y-9843D01*
X909447Y-64961D01*
X905510Y-64961D01*
D14*
X917321Y907479D03*
X1017715Y856298D03*
X1080707Y627952D03*
X1163384Y488188D03*
X1157478Y226378D03*
X1125982Y143701D03*
X1092518Y21654D03*
X905510Y-64961D03*
D13*
X179134Y1257872D02*
X196850Y1275588D01*
X208661Y1275588D01*
X265748Y1218502D01*
X265748Y1051179D01*
X265748Y982282D02*
X265748Y799211D01*
X281496Y783463D01*
X281496Y698818D01*
X442913Y539369D02*
X466535Y515747D01*
X523621Y220472D02*
X643700Y220472D01*
X657479Y234252D01*
X669290Y234252D01*
X690944Y212598D01*
X734251Y212598D02*
X803148Y143701D01*
X990156Y-1969D02*
X990156Y-23622D01*
X927164Y-86614D01*
X179134Y1257872D02*
X177800Y1257300D01*
D14*
X265748Y1051179D03*
X265748Y982282D03*
X281496Y698818D03*
X442913Y539369D03*
X466535Y515747D03*
X523621Y220472D03*
X690944Y212598D03*
X734251Y212598D03*
X803148Y143701D03*
X990156Y-1969D03*
X927164Y-86614D03*
D13*
X179134Y1194880D02*
X196850Y1212596D01*
X208661Y1212596D01*
X253937Y1167321D01*
X253937Y1070864D01*
X271653Y978345D02*
X271653Y799211D01*
X287401Y783463D01*
X287401Y677164D01*
X285433Y675196D01*
X375984Y320866D02*
X381889Y320866D01*
X417322Y285433D01*
X484251Y285433D01*
X659448Y112205D02*
X783463Y112205D01*
X785432Y-68898D02*
X785432Y-114173D01*
X858266Y-187008D01*
X893699Y-187008D01*
X897636Y-190945D01*
X897636Y-204724D01*
X889762Y-212598D01*
X177800Y1193800D02*
X179134Y1194880D01*
X889762Y-212598D02*
X888700Y-214000D01*
D14*
X253937Y1070864D03*
X271653Y978345D03*
X285433Y675196D03*
X375984Y320866D03*
X484251Y285433D03*
X659448Y112205D03*
X783463Y112205D03*
X785432Y-68898D03*
D13*
X255905Y1053148D02*
X179134Y1129919D01*
X255905Y978345D02*
X255905Y803148D01*
X275590Y783463D01*
X275590Y669290D01*
X342519Y454724D02*
X456692Y454724D01*
X488188Y423228D01*
X535432Y423228D01*
X706692Y72835D02*
X773621Y72835D01*
X854329Y-7874D01*
X854329Y-15748D01*
X852361Y-116142D02*
X852361Y-120079D01*
X927164Y-194882D01*
X927164Y-212598D01*
X179134Y1129919D02*
X177800Y1130300D01*
X927164Y-212598D02*
X928700Y-214000D01*
D14*
X255905Y1053148D03*
X255905Y978345D03*
X275590Y669290D03*
X342519Y454724D03*
X535432Y423228D03*
X706692Y72835D03*
X854329Y-15748D03*
X852361Y-116142D03*
D13*
X198819Y1045274D02*
X179134Y1064959D01*
X198819Y1045274D02*
X375984Y1045274D01*
X385826Y1055116D01*
X474409Y1055116D01*
X586613Y1167321D01*
X816928Y1167321D01*
X866140Y903542D02*
X931101Y838581D01*
X931101Y779526D01*
X915353Y614172D02*
X915353Y527558D01*
X903542Y515747D01*
X897636Y515747D01*
X895668Y517716D01*
X966534Y324803D02*
X982282Y324803D01*
X992124Y314960D01*
X992124Y291338D01*
X1051179Y226378D02*
X1015746Y190945D01*
X1015746Y165354D01*
X999998Y149606D01*
X999998Y145669D01*
X1007872Y137795D01*
X1029526Y137795D01*
X1062990Y104331D01*
X1062990Y92520D01*
X1049211Y-169291D02*
X1011809Y-169291D01*
X968502Y-212598D01*
X179134Y1064959D02*
X177800Y1066800D01*
X968502Y-212598D02*
X968700Y-214000D01*
D14*
X816928Y1167321D03*
X866140Y903542D03*
X931101Y779526D03*
X915353Y614172D03*
X895668Y517716D03*
X966534Y324803D03*
X992124Y291338D03*
X1051179Y226378D03*
X1062990Y92520D03*
X1049211Y-169291D03*
D13*
X179134Y996061D02*
X179134Y1001967D01*
X179134Y996061D02*
X208661Y966534D01*
X425196Y937006D02*
X425196Y826770D01*
X450787Y801180D01*
X450787Y625983D01*
X364173Y539369D01*
X364173Y517716D01*
X330708Y484251D01*
X330708Y480314D01*
X342519Y468503D01*
X614172Y468503D01*
X616141Y470472D01*
X785432Y253937D02*
X785432Y238189D01*
X1051179Y153543D02*
X1098423Y106299D01*
X1086612Y-141732D02*
X1015746Y-212598D01*
X1009841Y-212598D01*
X179134Y1001967D02*
X177800Y1003300D01*
X1009841Y-212598D02*
X1008700Y-214000D01*
D14*
X208661Y966534D03*
X425196Y937006D03*
X616141Y470472D03*
X785432Y253937D03*
X785432Y238189D03*
X1051179Y153543D03*
X1098423Y106299D03*
X1086612Y-141732D03*
D13*
X320866Y675196D02*
X320866Y913384D01*
X320866Y675196D02*
X316929Y671259D01*
X387795Y334645D02*
X395669Y334645D01*
X399606Y330708D01*
X582676Y330708D01*
X588582Y324803D01*
X663385Y324803D01*
X700786Y287401D01*
X809054Y287401D01*
X814959Y281496D01*
X860235Y236220D02*
X860235Y194882D01*
X891731Y163386D01*
X901573Y72835D02*
X889762Y61024D01*
X889762Y-15748D01*
D14*
X320866Y913384D03*
X316929Y671259D03*
X387795Y334645D03*
X814959Y281496D03*
X860235Y236220D03*
X891731Y163386D03*
X901573Y72835D03*
X889762Y-15748D03*
D13*
X179134Y834644D02*
X179134Y875983D01*
X179134Y834644D02*
X190945Y822833D01*
X190945Y791337D01*
X228346Y753936D01*
X228346Y704723D01*
X230315Y702755D01*
X265748Y155512D02*
X265748Y139764D01*
X263779Y137795D01*
X263779Y27559D01*
X279527Y11811D01*
X393700Y-102362D02*
X393700Y-183071D01*
X627952Y-228346D02*
X714566Y-314960D01*
X1011809Y-314960D01*
X1031494Y-295275D01*
X1031494Y-287401D01*
X1047242Y-271653D01*
X1074801Y-271653D01*
X1088581Y-257874D01*
X1088581Y-214567D01*
X179134Y875983D02*
X177800Y876300D01*
X1088700Y-214000D02*
X1088581Y-214567D01*
D14*
X230315Y702755D03*
X265748Y155512D03*
X279527Y11811D03*
X393700Y-102362D03*
X393700Y-183071D03*
X627952Y-228346D03*
D13*
X11811Y669290D02*
X70866Y728345D01*
X11811Y669290D02*
X-72835Y669290D01*
X-78740Y675196D01*
X-78740Y677164D01*
X-82677Y490157D02*
X-82677Y486220D01*
X-92520Y476377D01*
X-92520Y-31496D01*
X-88583Y-35433D01*
X592519Y-200787D02*
X791337Y-200787D01*
X795274Y-196850D01*
X856298Y-196850D01*
X872046Y-212598D01*
X872046Y-220472D01*
X881888Y-230315D01*
X895668Y-230315D01*
X911416Y-214567D01*
X911416Y-204724D01*
X917321Y-198819D01*
X917321Y-190945D01*
X846455Y-120079D01*
X846455Y-114173D01*
X850392Y-110236D01*
X942912Y-110236D01*
X964565Y-131890D01*
X1080707Y-131890D01*
D14*
X70866Y728345D03*
X-78740Y677164D03*
X-82677Y490157D03*
X-88583Y-35433D03*
X592519Y-200787D03*
X1080707Y-131890D03*
D13*
X179134Y734251D02*
X179134Y748030D01*
X179134Y734251D02*
X236220Y677164D01*
X236220Y629920D01*
X257874Y326771D02*
X381889Y326771D01*
X417322Y291338D01*
X490157Y291338D01*
X496062Y285433D01*
X519684Y261811D02*
X608267Y261811D01*
X738188Y171260D02*
X765747Y143701D01*
X870077Y39370D02*
X870077Y-15748D01*
X1114171Y-271653D02*
X1131888Y-253937D01*
X1131888Y-246063D01*
X1163384Y-214567D01*
X1167321Y-214567D01*
X179134Y748030D02*
X177800Y749300D01*
X1167321Y-214567D02*
X1168700Y-214000D01*
D14*
X236220Y629920D03*
X257874Y326771D03*
X496062Y285433D03*
X519684Y261811D03*
X608267Y261811D03*
X738188Y171260D03*
X765747Y143701D03*
X870077Y39370D03*
X870077Y-15748D03*
X1114171Y-271653D03*
D13*
X179134Y643700D02*
X179134Y685038D01*
X179134Y643700D02*
X190945Y631889D01*
X190945Y610235D01*
X228346Y572834D01*
X255905Y572834D01*
X289370Y261811D02*
X307086Y261811D01*
X309055Y259842D01*
X338582Y259842D01*
X346456Y267716D01*
X610235Y267716D01*
X618109Y259842D01*
X618109Y257874D01*
X789369Y206693D02*
X838581Y157480D01*
X913384Y157480D01*
X915353Y159449D01*
X1061022Y-45276D02*
X1100392Y-45276D01*
X1112203Y-33465D01*
X1161415Y-33465D01*
X179134Y685038D02*
X177800Y685800D01*
D14*
X255905Y572834D03*
X289370Y261811D03*
X618109Y257874D03*
X789369Y206693D03*
X915353Y159449D03*
X1061022Y-45276D03*
X1161415Y-33465D03*
D13*
X106299Y507873D02*
X76772Y507873D01*
X53150Y484251D01*
X-11811Y484251D01*
X-55118Y484251D02*
X-68898Y484251D01*
X-82677Y470472D01*
X690944Y-320866D02*
X692912Y-320866D01*
X694881Y-322834D01*
X1202754Y-322834D01*
X1232281Y-293307D01*
X1232281Y-273622D01*
X1248029Y-257874D01*
X1248029Y-214567D01*
X1248700Y-214000D01*
D14*
X106299Y507873D03*
X-11811Y484251D03*
X-55118Y484251D03*
X-82677Y470472D03*
X690944Y-320866D03*
D13*
X177165Y559054D02*
X177165Y570865D01*
X157480Y590550D01*
X0Y590550D01*
X-19685Y570865D01*
X153543Y-129921D02*
X230315Y-129921D01*
X608267Y-161417D02*
X629920Y-161417D01*
X698818Y-161417D02*
X755904Y-161417D01*
X789369Y-194882D01*
X177800Y558800D02*
X177165Y559054D01*
D14*
X-19685Y570865D03*
X153543Y-129921D03*
X230315Y-129921D03*
X608267Y-161417D03*
X629920Y-161417D03*
X698818Y-161417D03*
X789369Y-194882D03*
D13*
X116142Y474409D02*
X-15748Y474409D01*
X-49213Y159449D02*
X-62992Y145669D01*
X-72835Y145669D01*
X-82677Y135827D01*
X-82677Y-165354D01*
X773621Y-232283D02*
X787400Y-232283D01*
X791337Y-236220D01*
X850392Y-236220D01*
X868109Y-253937D01*
X868700Y-254000D01*
D14*
X116142Y474409D03*
X-15748Y474409D03*
X-49213Y159449D03*
X-82677Y-165354D03*
X773621Y-232283D03*
D13*
X131890Y31496D02*
X131890Y181102D01*
X131890Y31496D02*
X165354Y-1969D01*
X578739Y-147638D02*
X608267Y-177165D01*
X645668Y-214567D02*
X748030Y-214567D01*
X805117Y-271653D01*
X891731Y-271653D01*
X907479Y-255905D01*
X908700Y-254000D01*
D14*
X131890Y181102D03*
X165354Y-1969D03*
X578739Y-147638D03*
X608267Y-177165D03*
X645668Y-214567D03*
D13*
X179134Y370078D02*
X196850Y387795D01*
X281496Y387795D01*
X309055Y383858D02*
X535432Y383858D01*
X677164Y13780D02*
X677164Y0D01*
X742125Y-64961D01*
X742125Y-94488D01*
X720471Y-116142D01*
X698818Y-116142D01*
X692912Y-122047D01*
X692912Y-131890D01*
X718503Y-157480D01*
X803148Y-157480D01*
X838581Y-192913D01*
X891731Y-192913D01*
X177800Y368300D02*
X179134Y370078D01*
D14*
X281496Y387795D03*
X309055Y383858D03*
X535432Y383858D03*
X677164Y13780D03*
X891731Y-192913D03*
D13*
X198819Y283464D02*
X179134Y303149D01*
X198819Y283464D02*
X291338Y283464D01*
X299212Y291338D01*
X322834Y291338D01*
X336614Y277559D01*
X354330Y187008D02*
X407480Y133858D01*
X462598Y133858D01*
X486220Y157480D01*
X505905Y157480D01*
X547243Y116142D01*
X586613Y76772D02*
X702755Y76772D01*
X704723Y78740D01*
X787400Y78740D01*
X862203Y3937D01*
X862203Y-15748D01*
X875983Y-43307D02*
X891731Y-43307D01*
X984250Y-204724D02*
X988187Y-208661D01*
X988187Y-253937D01*
X179134Y303149D02*
X177800Y304800D01*
X988187Y-253937D02*
X988700Y-254000D01*
D14*
X336614Y277559D03*
X354330Y187008D03*
X547243Y116142D03*
X586613Y76772D03*
X862203Y-15748D03*
X875983Y-43307D03*
X891731Y-43307D03*
X984250Y-204724D03*
D13*
X253937Y151575D02*
X234252Y171260D01*
X253937Y151575D02*
X253937Y51181D01*
X440944Y-131890D02*
X507873Y-198819D01*
X531495Y-222441D02*
X629920Y-222441D01*
X718503Y-311023D01*
X976376Y-311023D01*
X992124Y-295275D01*
X992124Y-287401D01*
X1023620Y-255905D01*
X1027557Y-255905D01*
X1028700Y-254000D01*
D14*
X234252Y171260D03*
X253937Y51181D03*
X440944Y-131890D03*
X507873Y-198819D03*
X531495Y-222441D03*
D13*
X177800Y177800D02*
X200787Y200787D01*
X246063Y200787D01*
X291338Y155512D01*
X291338Y120079D01*
X330708Y80709D01*
X330708Y68898D01*
X407480Y61024D02*
X425196Y43307D01*
X702755Y3937D02*
X744093Y-37402D01*
X844487Y-37402D01*
X877951Y-70866D01*
X935038Y-70866D01*
D14*
X330708Y68898D03*
X407480Y61024D03*
X425196Y43307D03*
X702755Y3937D03*
X935038Y-70866D03*
D13*
X177165Y116142D02*
X177165Y155512D01*
X165354Y167323D01*
X165354Y188976D01*
X181102Y204724D01*
X606298Y204724D01*
X622046Y188976D01*
X622046Y167323D01*
X667322Y122047D02*
X793306Y122047D01*
X795274Y124016D01*
X842518Y76772D02*
X897636Y76772D01*
X899605Y78740D01*
X990156Y78740D01*
X1003935Y92520D01*
X1055116Y92520D01*
X177800Y114300D02*
X177165Y116142D01*
D14*
X622046Y167323D03*
X667322Y122047D03*
X795274Y124016D03*
X842518Y76772D03*
X1055116Y92520D03*
D13*
X179134Y49213D02*
X179134Y9843D01*
X188976Y0D01*
X188976Y-66929D01*
X141732Y-114173D01*
X141732Y-118110D01*
X147638Y-124016D01*
X208661Y-124016D01*
X637794Y-222441D02*
X720471Y-305118D01*
X795274Y-305118D01*
X179134Y49213D02*
X177800Y50800D01*
D14*
X208661Y-124016D03*
X637794Y-222441D03*
X795274Y-305118D03*
D13*
X515747Y-190945D02*
X460629Y-135827D01*
X598424Y-216535D02*
X639763Y-216535D01*
X722440Y-299212D01*
X781495Y-299212D01*
D14*
X460629Y-135827D03*
X515747Y-190945D03*
X598424Y-216535D03*
X781495Y-299212D03*
D13*
X568897Y1216533D02*
X608267Y1255903D01*
X568897Y1216533D02*
X553149Y1216533D01*
X458661Y1122045D01*
X458661Y1061022D01*
X470472Y994093D02*
X470472Y986219D01*
X427165Y942912D01*
X423228Y942912D01*
X419291Y938975D01*
X419291Y826770D01*
X444881Y801180D01*
X444881Y708660D01*
X649605Y580708D02*
X649605Y523621D01*
X690944Y482283D01*
X690944Y381889D01*
X722440Y224409D02*
X722440Y179134D01*
X757873Y143701D01*
X757873Y41339D02*
X757873Y9843D01*
X789369Y-59055D02*
X789369Y-64961D01*
X795274Y-70866D01*
X795274Y-116142D01*
X608267Y1255903D02*
X609600Y1257300D01*
D14*
X458661Y1061022D03*
X470472Y994093D03*
X444881Y708660D03*
X649605Y580708D03*
X690944Y381889D03*
X722440Y224409D03*
X757873Y143701D03*
X757873Y41339D03*
X757873Y9843D03*
X789369Y-59055D03*
X795274Y-116142D03*
D13*
X625983Y1177163D02*
X610235Y1192911D01*
X647637Y1155510D02*
X929132Y1155510D01*
X994093Y1090549D01*
X1118108Y1090549D01*
X1194880Y1013778D01*
X1273620Y1013778D01*
X1293305Y994093D01*
X1312990Y994093D01*
X1334643Y972439D01*
X1342517Y972439D01*
X1352360Y962597D01*
X1352360Y828739D01*
X1336612Y812991D01*
X1328738Y812991D01*
X1318895Y803148D01*
X1318895Y773621D01*
X1334643Y738188D02*
X1372045Y700786D01*
X1372045Y21654D01*
X1320864Y-29528D01*
X1255903Y-29528D01*
X1192911Y-92520D01*
X1127951Y-92520D01*
X1057085Y-163386D01*
X996061Y-163386D01*
X944880Y-214567D01*
X944880Y-234252D01*
X925195Y-253937D01*
X925195Y-261811D01*
X909447Y-277559D01*
X866140Y-277559D01*
X850392Y-293307D01*
X610235Y1192911D02*
X609600Y1193800D01*
X850392Y-293307D02*
X848700Y-294000D01*
D14*
X625983Y1177163D03*
X647637Y1155510D03*
X1318895Y773621D03*
X1334643Y738188D03*
D13*
X608267Y1131888D02*
X590550Y1149604D01*
X580708Y1149604D01*
X557086Y1125982D01*
X557086Y1057085D01*
X549212Y1019683D02*
X537401Y1019683D01*
X549212Y1019683D02*
X559054Y1009841D01*
X559054Y1001967D01*
X549212Y992124D01*
X549212Y893699D01*
X507873Y852361D01*
X507873Y669290D01*
X452755Y614172D01*
X547243Y187008D02*
X547243Y131890D01*
X655511Y5906D02*
X663385Y5906D01*
X736219Y-66929D01*
X761810Y-92520D02*
X761810Y-108268D01*
X830707Y-177165D01*
X609600Y1130300D02*
X608267Y1131888D01*
D14*
X557086Y1057085D03*
X537401Y1019683D03*
X452755Y614172D03*
X547243Y187008D03*
X547243Y131890D03*
X655511Y5906D03*
X736219Y-66929D03*
X761810Y-92520D03*
X830707Y-177165D03*
D13*
X568897Y978345D02*
X568897Y990156D01*
X568897Y978345D02*
X598424Y948817D01*
X598424Y927164D01*
X604330Y921258D01*
X690944Y921258D01*
X720471Y950786D01*
X724408Y950786D01*
X777558Y897636D01*
X777558Y893699D01*
X814959Y856298D01*
X856298Y856298D01*
X864172Y848424D01*
X864172Y834644D01*
X887794Y811022D01*
X887794Y759841D01*
X919290Y728345D01*
X844487Y610235D02*
X844487Y499999D01*
X905510Y438976D01*
X946849Y336614D02*
X1017715Y336614D01*
X1090549Y226378D02*
X1090549Y163386D01*
X1153541Y100394D01*
X1153541Y-98425D02*
X1131888Y-98425D01*
X1092518Y-137795D01*
X1092518Y-145669D01*
X1025589Y-212598D01*
X1025589Y-232283D01*
X1005904Y-251968D01*
X1005904Y-259842D01*
X988187Y-277559D01*
X944880Y-277559D01*
X929132Y-293307D01*
X928700Y-294000D01*
D14*
X568897Y990156D03*
X919290Y728345D03*
X844487Y610235D03*
X905510Y438976D03*
X946849Y336614D03*
X1017715Y336614D03*
X1090549Y226378D03*
X1153541Y100394D03*
X1153541Y-98425D03*
D13*
X608267Y1003935D02*
X590550Y1021652D01*
X578739Y1021652D01*
X562991Y1005904D01*
X562991Y862203D01*
X541338Y840550D01*
X622046Y797243D02*
X732282Y687007D01*
X732282Y622046D01*
X777558Y576771D02*
X785432Y576771D01*
X824802Y537401D01*
X824802Y529527D01*
X832676Y521653D01*
X919290Y340551D02*
X919290Y206693D01*
X909447Y196850D01*
X909447Y163386D01*
X909447Y72835D02*
X895668Y59055D01*
X895668Y-23622D01*
X609600Y1003300D02*
X608267Y1003935D01*
D14*
X541338Y840550D03*
X622046Y797243D03*
X732282Y622046D03*
X777558Y576771D03*
X832676Y521653D03*
X919290Y340551D03*
X909447Y163386D03*
X909447Y72835D03*
X895668Y-23622D03*
D13*
X610235Y940943D02*
X627952Y958660D01*
X740156Y958660D01*
X807085Y891731D01*
X828739Y891731D01*
X860235Y978345D02*
X1165352Y978345D01*
X1196848Y946849D01*
X1220470Y946849D01*
X1165352Y657479D02*
X1267714Y555117D01*
X1232281Y-181102D02*
X1188974Y-181102D01*
X1161415Y-153543D01*
X1125982Y-153543D01*
X1064959Y-214567D01*
X1064959Y-234252D01*
X1045274Y-253937D01*
X1045274Y-261811D01*
X1013778Y-293307D01*
X1009841Y-293307D01*
X609600Y939800D02*
X610235Y940943D01*
X1009841Y-293307D02*
X1008700Y-294000D01*
D14*
X828739Y891731D03*
X860235Y978345D03*
X1220470Y946849D03*
X1165352Y657479D03*
X1267714Y555117D03*
X1232281Y-181102D03*
D13*
X608267Y860235D02*
X608267Y875983D01*
X608267Y860235D02*
X568897Y820865D01*
X568897Y598424D01*
X612204Y533464D02*
X620078Y533464D01*
X657479Y496062D01*
X657479Y381889D01*
X702755Y311023D02*
X755904Y311023D01*
X761810Y305118D01*
X909447Y57087D02*
X944880Y57087D01*
X982282Y19685D01*
X1068896Y19685D01*
X1072833Y23622D01*
X609600Y876300D02*
X608267Y875983D01*
D14*
X568897Y598424D03*
X612204Y533464D03*
X657479Y381889D03*
X702755Y311023D03*
X761810Y305118D03*
X909447Y57087D03*
X1072833Y23622D03*
D13*
X610235Y797243D02*
X610235Y811022D01*
X610235Y797243D02*
X667322Y740156D01*
X667322Y683070D01*
X685038Y665353D01*
X685038Y631889D01*
X775589Y541338D02*
X791337Y525590D01*
X791337Y494094D01*
X818896Y466535D01*
X844487Y466535D01*
X875983Y435039D01*
X889762Y421259D02*
X952754Y421259D01*
X966534Y407480D01*
X1151573Y407480D01*
X1155510Y208661D02*
X1179132Y185039D01*
X1159447Y-159449D02*
X1106297Y-212598D01*
X1106297Y-232283D01*
X1092518Y-246063D01*
X1092518Y-291338D01*
X1090549Y-293307D01*
X610235Y811022D02*
X609600Y812800D01*
X1088700Y-294000D02*
X1090549Y-293307D01*
D14*
X685038Y631889D03*
X775589Y541338D03*
X875983Y435039D03*
X889762Y421259D03*
X1151573Y407480D03*
X1155510Y208661D03*
X1179132Y185039D03*
X1159447Y-159449D03*
D13*
X673227Y683070D02*
X673227Y738188D01*
X673227Y683070D02*
X696849Y659448D01*
X696849Y501968D01*
X736219Y427165D02*
X809054Y354330D01*
X848424Y354330D01*
X1114171Y214567D02*
X1157478Y214567D01*
X1222439Y149606D01*
X1226376Y-187008D02*
X1212596Y-187008D01*
X1185037Y-214567D01*
X1185037Y-234252D01*
X1165352Y-253937D01*
X1165352Y-261811D01*
X1133856Y-293307D01*
X1129919Y-293307D01*
X1128700Y-294000D01*
D14*
X673227Y738188D03*
X696849Y501968D03*
X736219Y427165D03*
X848424Y354330D03*
X1114171Y214567D03*
X1222439Y149606D03*
X1226376Y-187008D03*
D13*
X629920Y665353D02*
X610235Y685038D01*
X629920Y665353D02*
X661416Y665353D01*
X775589Y549212D02*
X781495Y549212D01*
X824802Y505905D01*
X824802Y494094D01*
X885825Y433070D01*
X954723Y433070D01*
X972439Y450787D01*
X1037400Y450787D01*
X1074801Y413385D01*
X1082675Y413385D01*
X1092518Y387795D02*
X1190943Y289370D01*
X1190943Y208661D01*
X1192911Y206693D01*
X610235Y685038D02*
X609600Y685800D01*
D14*
X661416Y665353D03*
X775589Y549212D03*
X1082675Y413385D03*
X1092518Y387795D03*
X1192911Y206693D03*
D13*
X649605Y588582D02*
X643700Y588582D01*
X649605Y588582D02*
X690944Y547243D01*
X690944Y492125D01*
X742125Y440944D01*
X791337Y440944D02*
X805117Y440944D01*
X848424Y397637D01*
X956691Y283464D02*
X1017715Y283464D01*
X1025589Y275590D01*
X1096455Y275590D01*
X1139762Y232283D01*
X1151573Y202756D02*
X1204722Y149606D01*
X1214565Y-194882D02*
X1226376Y-206693D01*
X1226376Y-232283D01*
X1210628Y-248031D01*
X1210628Y-293307D01*
X1208700Y-294000D01*
D14*
X643700Y588582D03*
X742125Y440944D03*
X791337Y440944D03*
X848424Y397637D03*
X956691Y283464D03*
X1139762Y232283D03*
X1151573Y202756D03*
X1204722Y149606D03*
X1214565Y-194882D03*
D13*
X685038Y482283D02*
X610235Y557086D01*
X685038Y482283D02*
X685038Y403543D01*
X755904Y224409D02*
X826770Y153543D01*
X952754Y153543D01*
X1005904Y147638D02*
X1049211Y147638D01*
X1104329Y92520D01*
X1133856Y-104331D02*
X1204722Y-175197D01*
X1234250Y-175197D01*
X1265746Y-206693D01*
X1265746Y-277559D01*
X1249998Y-293307D01*
X610235Y557086D02*
X609600Y558800D01*
X1248700Y-294000D02*
X1249998Y-293307D01*
D14*
X685038Y403543D03*
X755904Y224409D03*
X952754Y153543D03*
X1005904Y147638D03*
X1104329Y92520D03*
X1133856Y-104331D03*
D13*
X608267Y425196D02*
X608267Y431102D01*
X608267Y425196D02*
X588582Y405511D01*
X407480Y405511D01*
X401574Y411417D01*
X383858Y411417D01*
X352362Y250000D02*
X318897Y216535D01*
X147638Y216535D01*
X145669Y218504D01*
X122047Y187008D02*
X122047Y-153543D01*
X106299Y-169291D01*
X608267Y431102D02*
X609600Y431800D01*
D14*
X383858Y411417D03*
X352362Y250000D03*
X145669Y218504D03*
X122047Y187008D03*
X106299Y-169291D03*
D13*
X608267Y370078D02*
X582676Y395669D01*
X106299Y395669D01*
X57087Y346456D01*
X7874Y346456D01*
X-1969Y336614D01*
X-1969Y242126D01*
X9843Y230315D01*
X47244Y230315D01*
X61024Y216535D01*
X61024Y-173228D01*
X100394Y-212598D01*
X609600Y368300D02*
X608267Y370078D01*
X100394Y-212598D02*
X101300Y-214000D01*
X586613Y332677D02*
X588582Y332677D01*
X586613Y332677D02*
X584645Y334645D01*
X401574Y334645D01*
X395669Y340551D01*
X385826Y340551D01*
X381889Y336614D01*
X381889Y332677D01*
X397637Y316929D01*
X399606Y316929D01*
X377952Y155512D02*
X377952Y9843D01*
X328740Y-39370D01*
X328740Y-45276D01*
X299212Y-74803D02*
X181102Y-192913D01*
X161417Y-192913D01*
X141732Y-212598D01*
X141300Y-214000D01*
D14*
X588582Y332677D03*
X399606Y316929D03*
X377952Y155512D03*
X328740Y-45276D03*
X299212Y-74803D03*
D13*
X645668Y165354D02*
X645668Y204724D01*
X645668Y165354D02*
X633857Y153543D01*
X608267Y153543D01*
X596456Y141732D01*
X596456Y102362D01*
X572834Y78740D01*
X470472Y78740D01*
X407480Y15748D01*
X381889Y-33465D02*
X437007Y-33465D01*
X381889Y-33465D02*
X324803Y-90551D01*
X314960Y-90551D01*
X250000Y-155512D01*
X250000Y-190945D01*
D14*
X645668Y204724D03*
X407480Y15748D03*
X437007Y-33465D03*
X250000Y-190945D03*
D13*
X608267Y161417D02*
X608267Y177165D01*
X608267Y161417D02*
X533464Y86614D01*
X419291Y86614D01*
X395669Y62992D01*
X395669Y3937D01*
X338582Y-53150D01*
X338582Y-55118D01*
X222441Y-171260D01*
X222441Y-212598D01*
X608267Y177165D02*
X609600Y177800D01*
X222441Y-212598D02*
X221300Y-214000D01*
X610235Y114173D02*
X631889Y92520D01*
X661416Y92520D01*
X661416Y-7874D02*
X645668Y-23622D01*
X645668Y-25591D01*
X606298Y-64961D01*
X562991Y-64961D01*
X537401Y-90551D01*
X454724Y-90551D01*
X399606Y-145669D01*
X399606Y-220472D01*
X383858Y-236220D01*
X314960Y-236220D01*
X299212Y-251968D01*
X299212Y-259842D01*
X287401Y-271653D01*
X275590Y-271653D01*
X261811Y-257874D01*
X261811Y-214567D01*
X609600Y114300D02*
X610235Y114173D01*
X261300Y-214000D02*
X261811Y-214567D01*
D14*
X661416Y92520D03*
X661416Y-7874D03*
D13*
X608267Y51181D02*
X588582Y70866D01*
X478346Y70866D01*
X324803Y-82677D01*
X324803Y-96457D02*
X303149Y-118110D01*
X303149Y-212598D01*
X608267Y51181D02*
X609600Y50800D01*
X303149Y-212598D02*
X301300Y-214000D01*
D14*
X324803Y-82677D03*
X324803Y-96457D03*
D13*
X557086Y-64961D02*
X608267Y-13780D01*
X557086Y-64961D02*
X395669Y-64961D01*
X342519Y-118110D01*
X342519Y-212598D01*
X608267Y-13780D02*
X609600Y-12700D01*
X342519Y-212598D02*
X341300Y-214000D01*
X958660Y1275588D02*
X1001967Y1318895D01*
X958660Y1275588D02*
X578739Y1275588D01*
X403543Y1100392D01*
X403543Y992124D02*
X403543Y980313D01*
X379921Y956691D01*
X379921Y885825D01*
X344488Y850392D01*
X344488Y602361D01*
X277559Y535432D01*
X259842Y535432D01*
X279527Y159449D02*
X279527Y125984D01*
X314960Y90551D01*
X314960Y-9843D01*
X383858Y-84646D02*
X383858Y-210630D01*
X381889Y-212598D01*
X1001967Y1318895D02*
X1003300Y1320800D01*
X381889Y-212598D02*
X381300Y-214000D01*
D14*
X403543Y1100392D03*
X403543Y992124D03*
X259842Y535432D03*
X279527Y159449D03*
X314960Y-9843D03*
X383858Y-84646D03*
D13*
X1041337Y1269683D02*
X1041337Y1332675D01*
X1025589Y1348423D01*
X70866Y1348423D01*
X-64961Y1212596D01*
X-80709Y1212596D01*
X-102362Y1190943D01*
X-102362Y-163386D01*
X3937Y-269685D01*
X3937Y-301181D01*
X33465Y-330708D01*
X462598Y-330708D01*
X488188Y-305118D01*
D14*
X1041337Y1269683D03*
X488188Y-305118D03*
D13*
X984250Y1175195D02*
X1001967Y1192911D01*
X984250Y1175195D02*
X972439Y1175195D01*
X923227Y1224407D01*
X584645Y1224407D01*
X543306Y1224407D02*
X370078Y1051179D01*
X320866Y1001967D02*
X320866Y950786D01*
X320866Y921258D02*
X326771Y915353D01*
X326771Y681101D01*
X478346Y232283D02*
X478346Y220472D01*
X488188Y151575D02*
X431102Y94488D01*
X415354Y94488D01*
X385826Y64961D01*
X385826Y9843D01*
X431102Y-127953D02*
X431102Y-183071D01*
X460629Y-212598D01*
X1001967Y1192911D02*
X1003300Y1193800D01*
X460629Y-212598D02*
X461300Y-214000D01*
D14*
X584645Y1224407D03*
X543306Y1224407D03*
X370078Y1051179D03*
X320866Y1001967D03*
X320866Y950786D03*
X320866Y921258D03*
X326771Y681101D03*
X478346Y232283D03*
X478346Y220472D03*
X488188Y151575D03*
X385826Y9843D03*
X431102Y-127953D03*
D13*
X1001967Y1131888D02*
X972439Y1161415D01*
X586613Y1161415D01*
X551180Y1125982D01*
X551180Y1043305D01*
X543306Y990156D02*
X543306Y978345D01*
X437007Y872046D01*
X437007Y836613D01*
X413385Y818896D02*
X413385Y602361D01*
X352362Y541338D01*
X352362Y517716D01*
X305118Y155512D02*
X305118Y147638D01*
X297244Y139764D01*
X49213Y141732D02*
X49213Y-196850D01*
X39370Y-206693D01*
X39370Y-253937D01*
X1003300Y1130300D02*
X1001967Y1131888D01*
X41300Y-254000D02*
X39370Y-253937D01*
D14*
X551180Y1043305D03*
X543306Y990156D03*
X437007Y836613D03*
X413385Y818896D03*
X352362Y517716D03*
X305118Y155512D03*
X297244Y139764D03*
X49213Y141732D03*
D13*
X848424Y958660D02*
X895668Y958660D01*
X848424Y958660D02*
X832676Y974408D01*
X759841Y974408D01*
X374015Y913384D02*
X374015Y905510D01*
X340551Y872046D01*
X340551Y606298D01*
X275590Y541338D01*
X273622Y155512D02*
X273622Y139764D01*
X269685Y135827D01*
X102362Y100394D02*
X102362Y-159449D01*
X96457Y-165354D01*
X96457Y-185039D01*
X118110Y-206693D01*
X118110Y-220472D01*
X82677Y-255905D01*
X81300Y-254000D01*
D14*
X895668Y958660D03*
X759841Y974408D03*
X374015Y913384D03*
X275590Y541338D03*
X273622Y155512D03*
X269685Y135827D03*
X102362Y100394D03*
D13*
X1001967Y1003935D02*
X901573Y1104329D01*
X706692Y1104329D01*
X484251Y999998D02*
X468503Y999998D01*
X387795Y919290D01*
X387795Y881888D01*
X377952Y872046D01*
X377952Y812991D01*
X387795Y803148D01*
X387795Y608267D01*
X309055Y529527D01*
X230315Y529527D01*
X259842Y169291D02*
X259842Y21654D01*
X246063Y7874D01*
X246063Y-59055D01*
X194882Y-110236D01*
X165354Y-198819D02*
X165354Y-206693D01*
X157480Y-214567D01*
X157480Y-222441D01*
X125984Y-253937D01*
X122047Y-253937D01*
X1001967Y1003935D02*
X1003300Y1003300D01*
X122047Y-253937D02*
X121300Y-254000D01*
D14*
X706692Y1104329D03*
X484251Y999998D03*
X230315Y529527D03*
X259842Y169291D03*
X194882Y-110236D03*
X165354Y-198819D03*
D13*
X1001967Y940943D02*
X978345Y964565D01*
X923227Y964565D02*
X848424Y964565D01*
X824802Y988187D01*
X722440Y988187D01*
X677164Y1033463D01*
X553149Y1007872D02*
X431102Y885825D01*
X431102Y828739D01*
X431102Y787400D02*
X431102Y612204D01*
X358267Y539369D01*
X330708Y163386D02*
X330708Y145669D01*
X336614Y139764D01*
X336614Y124016D02*
X336614Y59055D01*
X342519Y53150D01*
X342519Y9843D01*
X250000Y-82677D01*
X250000Y-118110D01*
X179134Y-188976D01*
X141732Y-188976D01*
X1003300Y939800D02*
X1001967Y940943D01*
D14*
X978345Y964565D03*
X923227Y964565D03*
X677164Y1033463D03*
X553149Y1007872D03*
X431102Y828739D03*
X431102Y787400D03*
X358267Y539369D03*
X330708Y163386D03*
X336614Y139764D03*
X336614Y124016D03*
X141732Y-188976D03*
D13*
X1001967Y877951D02*
X958660Y921258D01*
X791337Y921258D01*
X714566Y921258D02*
X696849Y921258D01*
X687007Y911416D01*
X584645Y911416D01*
X568897Y895668D01*
X405511Y862203D02*
X405511Y860235D01*
X407480Y858266D01*
X407480Y614172D01*
X314960Y521653D01*
X291338Y358267D02*
X222441Y358267D01*
X204724Y340551D01*
X122047Y340551D01*
X90551Y309055D01*
X96457Y153543D02*
X104331Y153543D01*
X108268Y149606D01*
X108268Y-159449D01*
X100394Y-167323D01*
X100394Y-183071D01*
X124016Y-206693D01*
X124016Y-220472D01*
X137795Y-234252D01*
X1003300Y876300D02*
X1001967Y877951D01*
D14*
X791337Y921258D03*
X714566Y921258D03*
X568897Y895668D03*
X405511Y862203D03*
X314960Y521653D03*
X291338Y358267D03*
X90551Y309055D03*
X96457Y153543D03*
X137795Y-234252D03*
D13*
X952754Y553149D02*
X952754Y627952D01*
X952754Y553149D02*
X907479Y507873D01*
X856298Y507873D01*
X812991Y244094D02*
X812991Y222441D01*
X797243Y206693D01*
X671259Y7874D02*
X667322Y7874D01*
X663385Y11811D01*
X625983Y11811D01*
X620078Y5906D01*
X525590Y5906D01*
X462598Y-57087D01*
X372047Y-57087D01*
X318897Y-110236D01*
X318897Y-198819D01*
D14*
X952754Y627952D03*
X856298Y507873D03*
X812991Y244094D03*
X797243Y206693D03*
X671259Y7874D03*
X318897Y-198819D03*
D13*
X838581Y631889D02*
X838581Y649605D01*
X781495Y706692D01*
X557086Y710629D02*
X557086Y728345D01*
X557086Y710629D02*
X389763Y543306D01*
X389763Y515747D01*
X348425Y474409D01*
X291338Y338582D02*
X246063Y338582D01*
X234252Y326771D01*
X216535Y326771D01*
X240157Y157480D02*
X240157Y-57087D01*
X293307Y-120079D02*
X293307Y-198819D01*
X281496Y-210630D01*
X281496Y-253937D01*
X281300Y-254000D01*
D14*
X838581Y631889D03*
X781495Y706692D03*
X557086Y728345D03*
X348425Y474409D03*
X291338Y338582D03*
X216535Y326771D03*
X240157Y157480D03*
X240157Y-57087D03*
X293307Y-120079D03*
D13*
X984250Y667322D02*
X1001967Y685038D01*
X984250Y667322D02*
X972439Y667322D01*
X864172Y775589D01*
X864172Y826770D01*
X824802Y1003935D02*
X803148Y1003935D01*
X708660Y1098423D01*
X704723Y1098423D01*
X659448Y1143699D01*
X-92520Y1120077D02*
X-92520Y1192911D01*
X-92520Y1120077D02*
X-98425Y1114171D01*
X-98425Y-62992D01*
X-88583Y-72835D01*
X1001967Y685038D02*
X1003300Y685800D01*
D14*
X864172Y826770D03*
X824802Y1003935D03*
X659448Y1143699D03*
X-92520Y1192911D03*
X-88583Y-72835D03*
D13*
X1001967Y606298D02*
X1001967Y622046D01*
X1001967Y606298D02*
X966534Y570865D01*
X966534Y547243D01*
X996061Y517716D01*
X1029526Y517716D01*
X1076770Y470472D01*
X1076770Y456692D01*
X1076770Y387795D02*
X1076770Y291338D01*
X1076770Y248031D02*
X1076770Y147638D01*
X1112203Y112205D01*
X1141730Y-104331D02*
X1169289Y-104331D01*
X1269683Y-204724D01*
X1269683Y-297244D01*
X1240155Y-326771D01*
X486220Y-326771D01*
X480314Y-320866D01*
X344488Y-320866D02*
X324803Y-301181D01*
X324803Y-287401D01*
X356299Y-255905D01*
X360236Y-255905D01*
X1001967Y622046D02*
X1003300Y622300D01*
X361300Y-254000D02*
X360236Y-255905D01*
D14*
X1076770Y456692D03*
X1076770Y387795D03*
X1076770Y291338D03*
X1076770Y248031D03*
X1112203Y112205D03*
X1141730Y-104331D03*
X480314Y-320866D03*
X344488Y-320866D03*
D13*
X1070864Y490157D02*
X1003935Y557086D01*
X1070864Y383858D02*
X1070864Y370078D01*
X1031494Y330708D01*
X964565Y330708D01*
X923227Y289370D01*
X923227Y202756D01*
X915353Y194882D01*
X868109Y127953D02*
X807085Y127953D01*
X783463Y104331D01*
X744093Y19685D02*
X744093Y-11811D01*
X742125Y-13780D01*
X667322Y-88583D02*
X667322Y-131890D01*
X616141Y-183071D01*
X537401Y-183071D01*
X442913Y-277559D01*
X413385Y-277559D01*
X397637Y-293307D01*
X397637Y-301181D01*
X387795Y-311023D01*
X374015Y-311023D01*
X364173Y-301181D01*
X364173Y-287401D01*
X395669Y-255905D01*
X399606Y-255905D01*
X1003935Y557086D02*
X1003300Y558800D01*
X401300Y-254000D02*
X399606Y-255905D01*
D14*
X1070864Y490157D03*
X1070864Y383858D03*
X915353Y194882D03*
X868109Y127953D03*
X783463Y104331D03*
X744093Y19685D03*
X742125Y-13780D03*
X667322Y-88583D03*
D13*
X1003935Y490157D02*
X1003935Y494094D01*
X1003935Y490157D02*
X1061022Y433070D01*
X1248029Y433070D01*
X1255903Y425196D01*
X1261809Y425196D01*
X1277557Y409448D01*
X1277557Y381889D01*
X1293305Y366141D01*
X1301179Y366141D01*
X1318895Y348425D01*
X1318895Y281496D01*
X1334643Y265748D01*
X1342517Y265748D01*
X1356297Y251968D01*
X1356297Y125984D01*
X1336612Y106299D01*
X1316927Y106299D01*
X1297242Y86614D01*
X1283462Y86614D01*
X1261809Y64961D01*
X1248029Y64961D01*
X1198817Y15748D01*
X1122045Y15748D01*
X1080707Y15748D02*
X946849Y15748D01*
X942912Y11811D01*
X901573Y11811D01*
X1003935Y494094D02*
X1003300Y495300D01*
D14*
X1122045Y15748D03*
X1080707Y15748D03*
X901573Y11811D03*
D13*
X984250Y413385D02*
X1001967Y431102D01*
X984250Y413385D02*
X966534Y413385D01*
X950786Y429133D01*
X856298Y429133D01*
X824802Y460629D01*
X814959Y348425D02*
X732282Y348425D01*
X698818Y314960D01*
X687007Y314960D01*
X667322Y228346D02*
X657479Y228346D01*
X643700Y214567D01*
X440944Y214567D01*
X354330Y151575D02*
X354330Y15748D01*
X322834Y-15748D01*
X322834Y-59055D01*
X198819Y-183071D01*
X198819Y-220472D01*
X183071Y-236220D01*
X155512Y-236220D01*
X137795Y-253937D01*
X137795Y-261811D01*
X122047Y-277559D01*
X94488Y-277559D01*
X78740Y-293307D01*
X78740Y-301181D01*
X68898Y-311023D01*
X37402Y-311023D01*
X21654Y-295275D01*
X1001967Y431102D02*
X1003300Y431800D01*
X21300Y-294000D02*
X21654Y-295275D01*
D14*
X824802Y460629D03*
X814959Y348425D03*
X687007Y314960D03*
X667322Y228346D03*
X440944Y214567D03*
X354330Y151575D03*
D13*
X982282Y348425D02*
X1001967Y368110D01*
X982282Y348425D02*
X974408Y348425D01*
X972439Y350393D01*
X897636Y350393D01*
X818896Y271653D01*
X625983Y271653D01*
X624015Y273622D01*
X547243Y417322D02*
X433070Y417322D01*
X401574Y448818D01*
X210630Y448818D01*
X208661Y450787D01*
X86614Y450787D01*
X55118Y419291D01*
X49213Y220472D02*
X49213Y194882D01*
X55118Y188976D01*
X55118Y-196850D01*
X43307Y-208661D01*
X43307Y-232283D01*
X61024Y-250000D01*
X61024Y-293307D01*
X1001967Y368110D02*
X1003300Y368300D01*
X61024Y-293307D02*
X61300Y-294000D01*
D14*
X624015Y273622D03*
X547243Y417322D03*
X55118Y419291D03*
X49213Y220472D03*
D13*
X1003935Y303149D02*
X1021652Y285433D01*
X1161415Y285433D01*
X1171258Y295275D01*
X1179132Y295275D01*
X1187006Y287401D01*
X1187006Y204724D01*
X1196848Y194882D01*
X1196848Y185039D01*
X1167321Y-70866D02*
X1110234Y-70866D01*
X1062990Y-118110D01*
X958660Y-118110D01*
X866140Y-220472D02*
X856298Y-230315D01*
X791337Y-230315D01*
X769684Y-208661D01*
X533464Y-208661D01*
X484251Y-257874D01*
X1003935Y303149D02*
X1003300Y304800D01*
D14*
X1196848Y185039D03*
X1167321Y-70866D03*
X958660Y-118110D03*
X866140Y-220472D03*
X484251Y-257874D03*
D13*
X1003935Y242126D02*
X1021652Y259842D01*
X1033463Y259842D01*
X1039368Y253937D01*
X1039368Y228346D01*
X1033463Y222441D01*
X1015746Y222441D01*
X990156Y196850D01*
X972439Y196850D01*
X958660Y183071D01*
X958660Y151575D01*
X954723Y147638D01*
X820865Y147638D01*
X783463Y185039D01*
X572834Y-35433D02*
X490157Y-35433D01*
X464566Y-61024D01*
X391732Y-61024D01*
X332677Y-120079D01*
X332677Y-198819D01*
X318897Y-212598D01*
X318897Y-220472D01*
X307086Y-232283D01*
X1003300Y241300D02*
X1003935Y242126D01*
D14*
X783463Y185039D03*
X572834Y-35433D03*
X307086Y-232283D03*
D13*
X962597Y137795D02*
X1001967Y177165D01*
X962597Y137795D02*
X706692Y137795D01*
X696849Y147638D01*
X610235Y147638D01*
X590550Y151575D02*
X529527Y90551D01*
X417322Y90551D01*
X391732Y64961D01*
X391732Y7874D01*
X354330Y-29528D01*
X354330Y-45276D02*
X244094Y-155512D01*
X244094Y-232283D01*
X257874Y-246063D01*
X257874Y-273622D01*
X238189Y-293307D01*
X238189Y-301181D01*
X228346Y-311023D01*
X198819Y-311023D01*
X183071Y-295275D01*
X1001967Y177165D02*
X1003300Y177800D01*
X183071Y-295275D02*
X181300Y-294000D01*
D14*
X610235Y147638D03*
X590550Y151575D03*
X354330Y-29528D03*
X354330Y-45276D03*
D13*
X970471Y82677D02*
X1001967Y114173D01*
X970471Y82677D02*
X582676Y82677D01*
X574802Y74803D01*
X474409Y74803D01*
X381889Y-17717D01*
X364173Y-11811D02*
X334645Y-41339D01*
X334645Y-53150D01*
X204724Y-183071D01*
X204724Y-234252D01*
X220472Y-250000D01*
X220472Y-293307D01*
X1001967Y114173D02*
X1003300Y114300D01*
X221300Y-294000D02*
X220472Y-293307D01*
D14*
X381889Y-17717D03*
X364173Y-11811D03*
D13*
X954723Y-7874D02*
X958660Y-7874D01*
X954723Y-7874D02*
X925195Y-37402D01*
X852361Y-37402D01*
X848424Y-33465D01*
D14*
X958660Y-7874D03*
X848424Y-33465D03*
D13*
X519684Y-102362D02*
X448818Y-102362D01*
X403543Y-147638D01*
X403543Y-228346D01*
X377952Y-253937D01*
X377952Y-261811D01*
X346456Y-293307D01*
X342519Y-293307D01*
X519684Y-102362D02*
X520700Y-101600D01*
X342519Y-293307D02*
X341300Y-294000D01*
X521653Y-163386D02*
X582676Y-102362D01*
X521653Y-163386D02*
X521653Y-192913D01*
X478346Y-236220D01*
X435039Y-236220D01*
X419291Y-251968D01*
X419291Y-259842D01*
X385826Y-293307D01*
X381889Y-293307D01*
X582676Y-102362D02*
X584200Y-101600D01*
X381889Y-293307D02*
X381300Y-294000D01*
X622046Y-190945D02*
X677164Y-135827D01*
X622046Y-190945D02*
X543306Y-190945D01*
X478346Y-255905D01*
X478346Y-301181D01*
X468503Y-311023D01*
X438976Y-311023D01*
X423228Y-295275D01*
X421300Y-294000D01*
D14*
X677164Y-135827D03*
D13*
X702755Y-102362D02*
X710629Y-102362D01*
X702755Y-102362D02*
X618109Y-187008D01*
X541338Y-187008D01*
X462598Y-265748D01*
X462598Y-293307D01*
X710629Y-102362D02*
X711200Y-101600D01*
X462598Y-293307D02*
X461300Y-294000D01*
X202756Y1318895D02*
X198819Y1318895D01*
X155512Y1275588D01*
X55118Y1275588D01*
X15748Y1236218D01*
X202756Y1318895D02*
X203200Y1320800D01*
X15748Y1236218D02*
X14600Y1236000D01*
X1214565Y1348423D02*
X1301179Y1261809D01*
X1344486Y1261809D01*
X1372045Y1234250D01*
X1372045Y755904D01*
X1348423Y732282D01*
X1196848Y255905D02*
X1196848Y210630D01*
X1238187Y169291D01*
X1238187Y161417D01*
X1248029Y151575D01*
X1269683Y151575D01*
D14*
X1214565Y1348423D03*
X1348423Y732282D03*
X1196848Y255905D03*
X1269683Y151575D03*
D13*
X202756Y1255903D02*
X159449Y1212596D01*
X31496Y1212596D01*
X15748Y1196848D01*
X202756Y1255903D02*
X203200Y1257300D01*
X15748Y1196848D02*
X14600Y1196000D01*
X153543Y1194880D02*
X175197Y1216533D01*
X210630Y1216533D01*
X259842Y1167321D01*
X259842Y1090549D01*
X307086Y994093D02*
X307086Y818896D01*
X305118Y816928D01*
X366141Y755904D02*
X381889Y740156D01*
X381889Y690944D01*
X720471Y246063D02*
X742125Y246063D01*
X828739Y159449D01*
X901573Y57087D02*
X940943Y17717D01*
X1023620Y-37402D02*
X1055116Y-37402D01*
X1181100Y88583D01*
X1253935Y88583D01*
X153543Y1194880D02*
X152400Y1193800D01*
X1253935Y88583D02*
X1255400Y88600D01*
D14*
X259842Y1090549D03*
X307086Y994093D03*
X305118Y816928D03*
X366141Y755904D03*
X381889Y690944D03*
X720471Y246063D03*
X828739Y159449D03*
X901573Y57087D03*
X940943Y17717D03*
X1023620Y-37402D03*
D13*
X167323Y1157478D02*
X202756Y1192911D01*
X167323Y1157478D02*
X15748Y1157478D01*
X202756Y1192911D02*
X203200Y1193800D01*
X15748Y1157478D02*
X14600Y1156000D01*
X578739Y1110234D02*
X675196Y1110234D01*
X736219Y1049211D01*
X775589Y533464D02*
X775589Y411417D01*
X791337Y395669D01*
X1127951Y200787D02*
X1139762Y200787D01*
X1200785Y139764D01*
X1244092Y139764D01*
X1253935Y129921D01*
X1255400Y128600D01*
D14*
X578739Y1110234D03*
X736219Y1049211D03*
X775589Y533464D03*
X791337Y395669D03*
X1127951Y200787D03*
D13*
X383858Y1007872D02*
X250000Y1007872D01*
X383858Y1007872D02*
X387795Y1011809D01*
X391732Y1011809D01*
X409448Y994093D01*
X409448Y980313D01*
X383858Y954723D01*
X383858Y883857D01*
X356299Y856298D01*
X356299Y706692D01*
X354330Y704723D01*
X604330Y533464D02*
X624015Y513779D01*
X791337Y486220D02*
X874014Y403543D01*
X958660Y403543D01*
X964565Y397637D01*
X1090549Y397637D01*
X1234250Y253937D01*
X1234250Y188976D01*
X1253935Y169291D01*
X1255400Y168600D01*
D14*
X250000Y1007872D03*
X354330Y704723D03*
X604330Y533464D03*
X624015Y513779D03*
X791337Y486220D03*
D13*
X547243Y1039368D02*
X188976Y1039368D01*
X547243Y1039368D02*
X557086Y1029526D01*
X665353Y1029526D01*
X667322Y1027557D01*
X773621Y1055116D02*
X816928Y1011809D01*
X816928Y773621D02*
X832676Y757873D01*
X832676Y718503D01*
X850392Y700786D01*
X850392Y625983D01*
X860235Y616141D01*
X860235Y574802D01*
X1086612Y582676D02*
X1157478Y511810D01*
X1157478Y486220D01*
X1161415Y482283D01*
X1214565Y482283D01*
X1226376Y470472D01*
X1285431Y470472D01*
X1309053Y446850D01*
D14*
X188976Y1039368D03*
X667322Y1027557D03*
X773621Y1055116D03*
X816928Y1011809D03*
X816928Y773621D03*
X860235Y574802D03*
X1086612Y582676D03*
X1309053Y446850D03*
D13*
X202756Y1003935D02*
X171260Y1035431D01*
X15748Y1035431D01*
X202756Y1003935D02*
X203200Y1003300D01*
X15748Y1035431D02*
X14600Y1036000D01*
X395669Y958660D02*
X421259Y958660D01*
X490157Y1027557D01*
X519684Y1027557D01*
X805117Y1179132D02*
X962597Y1179132D01*
X970471Y1171258D01*
X1246061Y1171258D01*
X1248029Y1173226D01*
X1273620Y1173226D01*
X1293305Y1153541D01*
X1314958Y1153541D01*
X1334643Y1133856D01*
X1216533Y311023D02*
X1216533Y287401D01*
X1253935Y250000D01*
X1255400Y248600D01*
D14*
X395669Y958660D03*
X519684Y1027557D03*
X805117Y1179132D03*
X1334643Y1133856D03*
X1216533Y311023D03*
D13*
X202756Y940943D02*
X159449Y984250D01*
X25591Y984250D01*
X15748Y994093D01*
X202756Y940943D02*
X203200Y939800D01*
X15748Y994093D02*
X14600Y996000D01*
X606298Y901573D02*
X712597Y901573D01*
X811022Y803148D01*
X844487Y803148D01*
X854329Y793306D01*
X1149604Y551180D02*
X1157478Y551180D01*
X1228344Y480314D01*
X1251966Y480314D01*
D14*
X606298Y901573D03*
X854329Y793306D03*
X1149604Y551180D03*
X1251966Y480314D03*
D13*
X202756Y877951D02*
X202756Y881888D01*
X167323Y917321D01*
X53150Y917321D01*
X15748Y954723D01*
X202756Y877951D02*
X203200Y876300D01*
X15748Y954723D02*
X14600Y956000D01*
X226378Y956691D02*
X226378Y834644D01*
X226378Y956691D02*
X257874Y988187D01*
X293307Y988187D01*
X801180Y968502D02*
X832676Y968502D01*
X858266Y942912D01*
X944880Y942912D01*
X992124Y895668D01*
X1019683Y895668D01*
X1165352Y592519D02*
X1222439Y535432D01*
D14*
X226378Y834644D03*
X293307Y988187D03*
X801180Y968502D03*
X1019683Y895668D03*
X1165352Y592519D03*
X1222439Y535432D03*
D13*
X202756Y812991D02*
X202756Y852361D01*
X188976Y866140D01*
X188976Y889762D01*
X165354Y913384D01*
X17717Y913384D01*
X15748Y915353D01*
X202756Y812991D02*
X203200Y812800D01*
X15748Y915353D02*
X14600Y916000D01*
X769684Y781495D02*
X826770Y724408D01*
X860235Y690944D02*
X860235Y653542D01*
X858266Y651574D01*
X858266Y629920D01*
X870077Y618109D01*
X870077Y582676D01*
X909447Y543306D01*
X1011809Y541338D02*
X1096455Y456692D01*
X1106297Y456692D01*
X1129919Y427165D02*
X1208659Y427165D01*
X1253935Y381889D01*
X1253935Y370078D01*
X1255400Y368600D01*
D14*
X769684Y781495D03*
X826770Y724408D03*
X860235Y690944D03*
X909447Y543306D03*
X1011809Y541338D03*
X1106297Y456692D03*
X1129919Y427165D03*
D13*
X202756Y749999D02*
X159449Y793306D01*
X145669Y793306D01*
X62992Y875983D01*
X15748Y875983D01*
X202756Y749999D02*
X203200Y749300D01*
X15748Y875983D02*
X14600Y876000D01*
X234252Y708660D02*
X253937Y728345D01*
X456692Y765747D02*
X456692Y881888D01*
X488188Y913384D01*
X777558Y913384D02*
X791337Y899605D01*
X793306Y899605D01*
X809054Y883857D01*
X872046Y883857D01*
X915353Y870077D02*
X915353Y860235D01*
X937006Y838581D01*
X937006Y822833D01*
X982282Y777558D01*
X1082675Y777558D01*
X1098423Y761810D01*
X1165352Y608267D02*
X1169289Y608267D01*
X1238187Y539369D01*
D14*
X234252Y708660D03*
X253937Y728345D03*
X456692Y765747D03*
X488188Y913384D03*
X777558Y913384D03*
X872046Y883857D03*
X915353Y870077D03*
X1098423Y761810D03*
X1165352Y608267D03*
X1238187Y539369D03*
D13*
X202756Y687007D02*
X202756Y690944D01*
X163386Y730314D01*
X114173Y730314D01*
X15748Y828739D01*
X15748Y834644D01*
X202756Y687007D02*
X203200Y685800D01*
X15748Y834644D02*
X14600Y836000D01*
X208661Y641731D02*
X234252Y616141D01*
X269685Y616141D01*
X332677Y679133D01*
X332677Y940943D01*
X370078Y978345D01*
X716534Y976376D02*
X726377Y966534D01*
X795274Y966534D01*
X824802Y937006D01*
X895668Y937006D01*
X1078738Y923227D02*
X1078738Y883857D01*
X1141730Y820865D01*
X1141730Y763778D01*
X1165352Y627952D02*
X1246061Y547243D01*
D14*
X208661Y641731D03*
X370078Y978345D03*
X716534Y976376D03*
X895668Y937006D03*
X1078738Y923227D03*
X1141730Y763778D03*
X1165352Y627952D03*
X1246061Y547243D03*
D13*
X202756Y624015D02*
X202756Y663385D01*
X188976Y677164D01*
X188976Y698818D01*
X161417Y726377D01*
X84646Y726377D01*
X15748Y795274D01*
X202756Y624015D02*
X203200Y622300D01*
X15748Y795274D02*
X14600Y796000D01*
X216535Y407480D02*
X379921Y407480D01*
X381889Y405511D01*
X399606Y405511D01*
X559054Y151575D02*
X559054Y127953D01*
X659448Y104331D02*
X726377Y104331D01*
X789369Y-43307D02*
X846455Y-100394D01*
X1062990Y-100394D01*
X1116140Y-47244D01*
X1216533Y-47244D01*
X1255903Y-7874D01*
X1269683Y-7874D01*
X1295273Y17717D01*
X1295273Y27559D01*
X1295400Y28600D01*
D14*
X216535Y407480D03*
X399606Y405511D03*
X559054Y151575D03*
X559054Y127953D03*
X659448Y104331D03*
X726377Y104331D03*
X789369Y-43307D03*
D13*
X202756Y559054D02*
X163386Y598424D01*
X5906Y598424D01*
X-61024Y665353D01*
X-74803Y665353D01*
X-86614Y677164D01*
X-86614Y1102360D01*
X-82677Y1106297D01*
X-82677Y1163384D01*
X-66929Y1179132D01*
X-59055Y1179132D01*
X-23622Y1214565D01*
X202756Y559054D02*
X203200Y558800D01*
X-23622Y1214565D02*
X-25400Y1216000D01*
X177165Y519684D02*
X153543Y496062D01*
X177165Y519684D02*
X283464Y519684D01*
X330708Y472440D01*
X330708Y442913D02*
X401574Y442913D01*
X433070Y411417D01*
X586613Y411417D01*
X720471Y234252D02*
X728345Y226378D01*
X728345Y210630D01*
X795274Y143701D01*
X980313Y29528D02*
X986219Y23622D01*
X1064959Y23622D01*
X1120077Y78740D01*
X1157478Y78740D01*
X1188974Y110236D01*
X1244092Y110236D01*
X1248029Y106299D01*
X1265746Y106299D01*
X1277557Y94488D01*
X153543Y496062D02*
X152400Y495300D01*
D14*
X330708Y472440D03*
X330708Y442913D03*
X586613Y411417D03*
X720471Y234252D03*
X795274Y143701D03*
X980313Y29528D03*
X1277557Y94488D03*
D13*
X202756Y494094D02*
X185039Y476377D01*
X145669Y476377D01*
X108268Y513779D01*
X76772Y513779D01*
X55118Y492125D01*
X49213Y492125D01*
X-90551Y631889D01*
X-90551Y1106297D01*
X-88583Y1108266D01*
X203200Y495300D02*
X202756Y494094D01*
D14*
X-88583Y1108266D03*
D13*
X232283Y157480D02*
X232283Y-1969D01*
X348425Y-127953D02*
X348425Y-143701D01*
X377952Y-173228D01*
X826770Y-21654D02*
X885825Y-21654D01*
X893699Y-29528D01*
X907479Y-29528D01*
X911416Y-25591D01*
X929132Y-25591D01*
X1027557Y-43307D02*
X1055116Y-43307D01*
X1163384Y64961D01*
X1242124Y64961D01*
X1248029Y70866D01*
X1261809Y70866D01*
X1295273Y104331D01*
X1295273Y108268D01*
X1295400Y108600D01*
D14*
X232283Y157480D03*
X232283Y-1969D03*
X348425Y-127953D03*
X377952Y-173228D03*
X826770Y-21654D03*
X929132Y-25591D03*
X1027557Y-43307D03*
D13*
X202756Y431102D02*
X185039Y413385D01*
X41339Y413385D01*
X29528Y425196D01*
X5906Y425196D01*
X-49213Y480314D01*
X-49213Y494094D01*
X-94488Y539369D01*
X-94488Y1110234D01*
X-88583Y1116140D01*
X203200Y431800D02*
X202756Y431102D01*
D14*
X-88583Y1116140D03*
D13*
X192913Y409448D02*
X202756Y409448D01*
X206693Y413385D01*
X267716Y413385D01*
X297244Y442913D01*
X336614Y570865D02*
X348425Y582676D01*
X348425Y777558D01*
X350393Y779526D01*
X791337Y704723D02*
X846455Y649605D01*
X846455Y624015D01*
X850392Y620078D01*
X850392Y505905D01*
X917321Y438976D01*
X940943Y415354D02*
X952754Y415354D01*
X966534Y401574D01*
X1173226Y401574D01*
X1196848Y377952D01*
X1246061Y273622D02*
X1253935Y265748D01*
X1273620Y265748D01*
X1293305Y246063D01*
X1301179Y246063D01*
X1312990Y234252D01*
X1312990Y165354D01*
X1297242Y149606D01*
X1295400Y148600D01*
D14*
X192913Y409448D03*
X297244Y442913D03*
X336614Y570865D03*
X350393Y779526D03*
X791337Y704723D03*
X917321Y438976D03*
X940943Y415354D03*
X1196848Y377952D03*
X1246061Y273622D03*
D13*
X271653Y370078D02*
X204724Y370078D01*
X271653Y370078D02*
X291338Y389763D01*
X259842Y677164D02*
X259842Y793306D01*
X220472Y832676D01*
X220472Y978345D01*
X33465Y1080707D02*
X19685Y1094486D01*
X-23622Y1094486D01*
X204724Y370078D02*
X203200Y368300D01*
X-23622Y1094486D02*
X-25400Y1096000D01*
D14*
X291338Y389763D03*
X259842Y677164D03*
X220472Y978345D03*
X33465Y1080707D03*
D13*
X157480Y261811D02*
X263779Y261811D01*
X265748Y263779D01*
X279527Y263779D01*
X287401Y255905D01*
X342519Y255905D01*
X374015Y220472D02*
X444881Y220472D01*
X472440Y192913D02*
X478346Y192913D01*
X547243Y124016D01*
X627952Y88583D02*
X657479Y88583D01*
X659448Y86614D01*
X962597Y86614D01*
X964565Y88583D01*
X1001967Y82677D02*
X1005904Y86614D01*
X1110234Y86614D01*
X1112203Y88583D01*
X1127951Y88583D02*
X1155510Y88583D01*
X1200785Y133858D01*
X1236218Y133858D01*
D14*
X157480Y261811D03*
X342519Y255905D03*
X374015Y220472D03*
X444881Y220472D03*
X472440Y192913D03*
X547243Y124016D03*
X627952Y88583D03*
X964565Y88583D03*
X1001967Y82677D03*
X1112203Y88583D03*
X1127951Y88583D03*
X1236218Y133858D03*
D13*
X133858Y354330D02*
X104331Y354330D01*
X-31496Y694881D02*
X-66929Y730314D01*
X-66929Y765747D01*
X-39370Y958660D02*
X-19685Y958660D01*
X-5906Y972439D01*
X-5906Y1005904D01*
X-3937Y1007872D01*
X-3937Y1023620D01*
X-23622Y1043305D01*
X-23622Y1055116D01*
X-25400Y1056000D01*
D14*
X133858Y354330D03*
X104331Y354330D03*
X-31496Y694881D03*
X-66929Y765747D03*
X-39370Y958660D03*
D13*
X116142Y173228D02*
X116142Y-151575D01*
X114173Y-153543D01*
X570865Y-196850D02*
X586613Y-196850D01*
X588582Y-194882D01*
X708660Y-194882D01*
X848424Y-94488D02*
X889762Y-94488D01*
X891731Y-96457D01*
X1061022Y-96457D01*
X1114171Y-43307D01*
X1196848Y-43307D01*
X1230313Y-9843D01*
X1253935Y190945D02*
X1261809Y190945D01*
X1295273Y224409D01*
X1295273Y228346D01*
X1295400Y228600D01*
D14*
X116142Y173228D03*
X114173Y-153543D03*
X570865Y-196850D03*
X708660Y-194882D03*
X848424Y-94488D03*
X1230313Y-9843D03*
X1253935Y190945D03*
D13*
X259842Y242126D02*
X204724Y242126D01*
X259842Y242126D02*
X267716Y250000D01*
X255905Y564960D02*
X220472Y564960D01*
X183071Y602361D01*
X112205Y602361D01*
X33465Y681101D01*
X21654Y692912D02*
X-3937Y718503D01*
X-3937Y742125D01*
X-21654Y759841D01*
X-31496Y759841D01*
X-47244Y775589D01*
X-47244Y984250D01*
X-25591Y1005904D01*
X-25591Y1015746D01*
X204724Y242126D02*
X203200Y241300D01*
X-25591Y1015746D02*
X-25400Y1016000D01*
D14*
X267716Y250000D03*
X255905Y564960D03*
X33465Y681101D03*
X21654Y692912D03*
D13*
X171260Y222441D02*
X279527Y222441D01*
X281496Y220472D01*
X314960Y220472D01*
X356299Y261811D01*
X375984Y281496D02*
X480314Y281496D01*
X482283Y279527D01*
X643700Y279527D01*
X645668Y277559D01*
X779526Y218504D02*
X811022Y250000D01*
X820865Y250000D01*
X952754Y240157D02*
X976376Y263779D01*
X1100392Y263779D01*
X1137793Y226378D01*
X1149604Y226378D01*
X1171258Y248031D01*
X1230313Y281496D02*
X1230313Y287401D01*
X1248029Y305118D01*
X1261809Y305118D01*
X1297242Y269685D01*
X1295400Y268600D01*
D14*
X171260Y222441D03*
X356299Y261811D03*
X375984Y281496D03*
X645668Y277559D03*
X779526Y218504D03*
X820865Y250000D03*
X952754Y240157D03*
X1171258Y248031D03*
X1230313Y281496D03*
D13*
X202756Y177165D02*
X202756Y159449D01*
X188976Y145669D01*
X188976Y102362D01*
X181102Y94488D01*
X147638Y94488D01*
X137795Y104331D01*
X137795Y183071D01*
X118110Y202756D01*
X96457Y202756D01*
X-47244Y1053148D02*
X-80709Y1053148D01*
X-47244Y1053148D02*
X-27559Y1033463D01*
X-19685Y1033463D01*
X-7874Y1021652D01*
X-7874Y1009841D01*
X-23622Y994093D01*
X-23622Y976376D01*
X203200Y177800D02*
X202756Y177165D01*
X-23622Y976376D02*
X-25400Y976000D01*
D14*
X96457Y202756D03*
X-80709Y1053148D03*
D13*
X153543Y133858D02*
X153543Y116142D01*
X153543Y133858D02*
X171260Y151575D01*
X466535Y452755D02*
X635826Y452755D01*
X734251Y224409D02*
X814959Y143701D01*
X1019683Y74803D02*
X1031494Y74803D01*
X1033463Y76772D01*
X153543Y116142D02*
X152400Y114300D01*
D14*
X171260Y151575D03*
X466535Y452755D03*
X635826Y452755D03*
X734251Y224409D03*
X814959Y143701D03*
X1019683Y74803D03*
X1033463Y76772D03*
D13*
X204724Y116142D02*
X204724Y155512D01*
X218504Y169291D01*
X218504Y194882D01*
X212598Y289370D02*
X265748Y289370D01*
X291338Y314960D01*
X253937Y671259D02*
X214567Y710629D01*
X214567Y761810D01*
X183071Y793306D01*
X173228Y793306D01*
X163386Y803148D01*
X163386Y824802D01*
X90551Y897636D01*
X204724Y116142D02*
X203200Y114300D01*
D14*
X218504Y194882D03*
X212598Y289370D03*
X291338Y314960D03*
X253937Y671259D03*
X90551Y897636D03*
D13*
X190945Y88583D02*
X153543Y51181D01*
X190945Y88583D02*
X210630Y88583D01*
X659448Y21654D02*
X677164Y21654D01*
X681101Y25591D01*
X688975Y25591D01*
X742125Y-27559D01*
X885825Y-27559D01*
X891731Y-33465D01*
X911416Y-33465D01*
X913384Y-31496D01*
X996061Y-57087D02*
X1021652Y-31496D01*
X1055116Y-31496D01*
X1190943Y104331D01*
X1301179Y291338D02*
X1312990Y303149D01*
X1312990Y332677D01*
X1297242Y348425D01*
X153543Y51181D02*
X152400Y50800D01*
X1295400Y348600D02*
X1297242Y348425D01*
D14*
X210630Y88583D03*
X659448Y21654D03*
X913384Y-31496D03*
X996061Y-57087D03*
X1190943Y104331D03*
X1301179Y291338D03*
D13*
X204724Y68898D02*
X204724Y51181D01*
X204724Y68898D02*
X226378Y90551D01*
X226378Y194882D01*
X133858Y362204D02*
X100394Y362204D01*
X94488Y356299D01*
X203200Y50800D02*
X204724Y51181D01*
D14*
X226378Y194882D03*
X133858Y362204D03*
X94488Y356299D03*
D13*
X797243Y-43307D02*
X844487Y-43307D01*
X893699Y-92520D01*
X1059053Y-92520D01*
X1112203Y-39370D01*
X1192911Y-39370D01*
X1228344Y-3937D01*
X1236218Y-3937D01*
X1358265Y303149D02*
X1358265Y328740D01*
X1334643Y352362D01*
X1328738Y352362D01*
X1297242Y383858D01*
X1297242Y387795D01*
X1295400Y388600D01*
D14*
X797243Y-43307D03*
X1236218Y-3937D03*
X1358265Y303149D03*
D13*
X588582Y1318895D02*
X584645Y1318895D01*
X588582Y1318895D02*
X625983Y1281494D01*
X929132Y1281494D01*
X1202754Y1102360D02*
X1251966Y1053148D01*
X1273620Y1053148D01*
X1293305Y1033463D01*
X1314958Y1033463D01*
X1334643Y1013778D01*
X1340549Y1013778D01*
X1356297Y998030D01*
X1356297Y801180D01*
X1354328Y799211D01*
X1234250Y608267D02*
X1234250Y596456D01*
X1273620Y557086D01*
X1273620Y501968D01*
X1309053Y466535D01*
X1340549Y466535D01*
X1352360Y454724D01*
X1352360Y401574D01*
X1342517Y391732D01*
X1328738Y391732D01*
X1297242Y423228D01*
X1297242Y427165D01*
X584645Y1318895D02*
X584200Y1320800D01*
X1295400Y428600D02*
X1297242Y427165D01*
D14*
X929132Y1281494D03*
X1202754Y1102360D03*
X1354328Y799211D03*
X1234250Y608267D03*
D13*
X521653Y1281494D02*
X291338Y1051179D01*
X277559Y1027557D02*
X261811Y1027557D01*
X214567Y980313D01*
X214567Y927164D01*
X208661Y921258D01*
X57087Y921258D01*
X45276Y933069D01*
X-7874Y917321D02*
X-7874Y848424D01*
X-23622Y832676D01*
X-23622Y816928D01*
X-25400Y816000D01*
D14*
X521653Y1281494D03*
X291338Y1051179D03*
X277559Y1027557D03*
X45276Y933069D03*
X-7874Y917321D03*
D13*
X389763Y1062990D02*
X582676Y1255903D01*
X389763Y1005904D02*
X314960Y931101D01*
X314960Y677164D01*
X281496Y643700D01*
X281496Y513779D02*
X275590Y513779D01*
X232283Y470472D01*
X273622Y194882D02*
X348425Y120079D01*
X663385Y27559D02*
X677164Y27559D01*
X679133Y29528D01*
X690944Y29528D01*
X742125Y-21654D01*
X759841Y-21654D01*
X781495Y-43307D02*
X842518Y-104331D01*
X1064959Y-104331D01*
X1112203Y-57087D01*
X1222439Y-57087D01*
X1255903Y-23622D01*
X1303147Y-23622D01*
X1334643Y7874D01*
X582676Y1255903D02*
X584200Y1257300D01*
X1335400Y8600D02*
X1334643Y7874D01*
D14*
X389763Y1062990D03*
X389763Y1005904D03*
X281496Y643700D03*
X281496Y513779D03*
X232283Y470472D03*
X273622Y194882D03*
X348425Y120079D03*
X663385Y27559D03*
X759841Y-21654D03*
X781495Y-43307D03*
D13*
X582676Y1187006D02*
X582676Y1192911D01*
X582676Y1187006D02*
X564960Y1169289D01*
X755904Y1137793D02*
X940943Y1137793D01*
X992124Y1086612D01*
X1116140Y1086612D01*
X1214565Y988187D01*
X1226376Y988187D01*
X1192911Y830707D02*
X1192911Y781495D01*
X1230313Y744093D01*
X1246061Y728345D02*
X1246061Y612204D01*
X1350391Y507873D01*
X1350391Y470472D01*
X584200Y1193800D02*
X582676Y1192911D01*
D14*
X564960Y1169289D03*
X755904Y1137793D03*
X1226376Y988187D03*
X1192911Y830707D03*
X1230313Y744093D03*
X1246061Y728345D03*
X1350391Y470472D03*
D13*
X582676Y1122045D02*
X582676Y1129919D01*
X582676Y1122045D02*
X561023Y1100392D01*
X561023Y1066927D01*
X594487Y1033463D01*
X669290Y1033463D01*
X722440Y980313D01*
X722440Y944880D02*
X722440Y897636D01*
X812991Y807085D01*
X848424Y807085D01*
X860235Y795274D01*
X860235Y761810D01*
X836613Y738188D01*
X836613Y720471D01*
X854329Y702755D01*
X854329Y627952D01*
X866140Y616141D01*
X866140Y557086D01*
X901573Y521653D01*
X1100392Y395669D02*
X1238187Y257874D01*
X1238187Y242126D01*
X1253935Y226378D01*
X1273620Y226378D01*
X584200Y1130300D02*
X582676Y1129919D01*
D14*
X722440Y980313D03*
X722440Y944880D03*
X901573Y521653D03*
X1100392Y395669D03*
X1273620Y226378D03*
D13*
X877951Y1086612D02*
X805117Y1086612D01*
X877951Y1086612D02*
X966534Y998030D01*
X966534Y990156D01*
X974408Y982282D01*
X1167321Y982282D01*
X1194880Y954723D01*
X1220470Y954723D01*
X1242124Y740156D02*
X1232281Y730314D01*
X1232281Y620078D01*
X1344486Y507873D01*
X1344486Y468503D01*
X1364171Y448818D01*
X1364171Y263779D01*
X1358265Y257874D01*
D14*
X805117Y1086612D03*
X1220470Y954723D03*
X1242124Y740156D03*
X1358265Y257874D03*
D13*
X633857Y1066927D02*
X602361Y1098423D01*
X566928Y1098423D01*
X1969Y1100392D02*
X-5906Y1100392D01*
X-19685Y1114171D01*
X-64961Y1114171D01*
X633857Y1066927D02*
X635000Y1066800D01*
X-64961Y1114171D02*
X-65400Y1116000D01*
D14*
X566928Y1098423D03*
X1969Y1100392D03*
D13*
X584645Y1001967D02*
X624015Y962597D01*
X742125Y962597D01*
X807085Y897636D01*
X866140Y897636D01*
X925195Y838581D01*
X925195Y783463D01*
X844487Y618109D02*
X838581Y612204D01*
X838581Y488188D01*
X1127951Y208661D02*
X1137793Y208661D01*
X1202754Y143701D01*
X1246061Y143701D01*
X1248029Y145669D01*
X1273620Y145669D01*
X1287399Y131890D01*
X1303147Y131890D01*
X1334643Y163386D01*
X1334643Y167323D01*
X584645Y1001967D02*
X584200Y1003300D01*
X1335400Y168600D02*
X1334643Y167323D01*
D14*
X925195Y783463D03*
X844487Y618109D03*
X838581Y488188D03*
X1127951Y208661D03*
D13*
X633857Y1003935D02*
X612204Y1025589D01*
X529527Y1025589D01*
X521653Y1033463D01*
X179134Y1033463D01*
X165354Y1047242D01*
X27559Y1047242D01*
X15748Y1059053D01*
X1969Y1059053D01*
X-13780Y1074801D01*
X-64961Y1074801D01*
X633857Y1003935D02*
X635000Y1003300D01*
X-64961Y1074801D02*
X-65400Y1076000D01*
X494094Y921258D02*
X511810Y938975D01*
X494094Y921258D02*
X494094Y773621D01*
X501968Y765747D01*
X596456Y759841D02*
X596456Y724408D01*
X616141Y704723D01*
X639763Y704723D01*
X677164Y667322D01*
X677164Y631889D01*
X767715Y541338D02*
X761810Y535432D01*
X761810Y492125D01*
X791337Y462598D02*
X848424Y405511D01*
X950786Y297244D02*
X950786Y281496D01*
X962597Y269685D01*
X1039368Y269685D01*
X1082675Y226378D02*
X1082675Y165354D01*
X1122045Y125984D01*
X1122045Y86614D01*
X1125982Y82677D01*
X1155510Y82677D01*
X1187006Y114173D01*
X1246061Y114173D01*
X1248029Y112205D01*
X1275588Y112205D01*
X1291336Y127953D01*
X1311021Y127953D01*
X1334643Y151575D01*
X1342517Y151575D01*
X1352360Y161417D01*
X1352360Y190945D01*
X1336612Y206693D01*
X1335400Y208600D01*
D14*
X511810Y938975D03*
X501968Y765747D03*
X596456Y759841D03*
X677164Y631889D03*
X767715Y541338D03*
X761810Y492125D03*
X791337Y462598D03*
X848424Y405511D03*
X950786Y297244D03*
X1039368Y269685D03*
X1082675Y226378D03*
D13*
X818896Y860235D02*
X797243Y881888D01*
X818896Y860235D02*
X895668Y860235D01*
X903542Y852361D01*
X1165352Y584645D02*
X1226376Y523621D01*
X1226376Y374015D02*
X1253935Y346456D01*
X1261809Y346456D01*
X1277557Y330708D01*
X1277557Y303149D01*
X1295273Y285433D01*
X1303147Y285433D01*
X1334643Y253937D01*
X1334643Y250000D01*
X1335400Y248600D01*
D14*
X797243Y881888D03*
X903542Y852361D03*
X1165352Y584645D03*
X1226376Y523621D03*
X1226376Y374015D03*
D13*
X822833Y759841D02*
X791337Y791337D01*
X897636Y759841D02*
X942912Y759841D01*
X972439Y730314D01*
X1074801Y730314D01*
X1098423Y753936D01*
X1151573Y614172D02*
X1171258Y614172D01*
X1265746Y519684D01*
D14*
X791337Y791337D03*
X822833Y759841D03*
X897636Y759841D03*
X1098423Y753936D03*
X1151573Y614172D03*
X1265746Y519684D03*
D13*
X584645Y749999D02*
X584645Y789369D01*
X598424Y803148D01*
X598424Y824802D01*
X606298Y832676D01*
X639763Y832676D01*
X767715Y704723D01*
X767715Y602361D01*
X824802Y545275D01*
X824802Y543306D01*
X830707Y537401D01*
X1165352Y551180D02*
X1190943Y551180D01*
X1261809Y480314D01*
X584645Y749999D02*
X584200Y749300D01*
D14*
X830707Y537401D03*
X1165352Y551180D03*
X1261809Y480314D03*
D13*
X633857Y748030D02*
X608267Y722440D01*
X608267Y720471D01*
X633857Y748030D02*
X635000Y749300D01*
D14*
X608267Y720471D03*
D13*
X582676Y685038D02*
X582676Y643700D01*
X572834Y633857D01*
X572834Y602361D01*
X574802Y600393D01*
X574802Y596456D01*
X570865Y592519D01*
X566928Y592519D01*
X562991Y596456D01*
X562991Y730314D01*
X523621Y769684D01*
X523621Y814959D01*
X572834Y864172D01*
X572834Y887794D01*
X592519Y907479D01*
X716534Y907479D01*
X797243Y915353D02*
X901573Y915353D01*
X964565Y852361D01*
X999998Y852361D01*
X1019683Y832676D01*
X1049211Y832676D01*
X1143699Y598424D02*
X1171258Y598424D01*
X1267714Y501968D01*
X584200Y685800D02*
X582676Y685038D01*
D14*
X716534Y907479D03*
X797243Y915353D03*
X1049211Y832676D03*
X1143699Y598424D03*
X1267714Y501968D03*
D13*
X777558Y710629D02*
X775589Y710629D01*
X777558Y710629D02*
X779526Y712597D01*
X830707Y712597D01*
X877951Y665353D02*
X907479Y665353D01*
X919290Y653542D01*
X940943Y653542D01*
X962597Y631889D01*
X962597Y545275D01*
X994093Y513779D01*
X1007872Y513779D01*
X1017715Y503936D01*
X1017715Y482283D01*
X1055116Y444881D01*
X1228344Y444881D01*
X1249998Y466535D01*
X1281494Y466535D01*
X1334643Y413385D01*
X1334643Y409448D01*
X1335400Y408600D01*
D14*
X775589Y710629D03*
X830707Y712597D03*
X877951Y665353D03*
D13*
X444881Y651574D02*
X444881Y700786D01*
X437007Y708660D01*
X437007Y803148D01*
X411417Y828739D01*
X411417Y864172D01*
X407480Y868109D01*
X387795Y868109D01*
X76772Y854329D02*
X37402Y814959D01*
X-25591Y791337D02*
X-33465Y791337D01*
X-37402Y787400D01*
D14*
X444881Y651574D03*
X387795Y868109D03*
X76772Y854329D03*
X37402Y814959D03*
X-25591Y791337D03*
X-37402Y787400D03*
D13*
X584645Y559054D02*
X624015Y598424D01*
X679133Y598424D01*
X692912Y612204D01*
X692912Y639763D01*
X690944Y641731D01*
X781495Y596456D02*
X830707Y547243D01*
X830707Y545275D01*
X1153541Y545275D02*
X1157478Y545275D01*
X1228344Y474409D01*
X1295273Y474409D01*
X1320864Y448818D01*
X1334643Y448818D01*
X584645Y559054D02*
X584200Y558800D01*
X1334643Y448818D02*
X1335400Y448600D01*
D14*
X690944Y641731D03*
X781495Y596456D03*
X830707Y545275D03*
X1153541Y545275D03*
D13*
X633857Y494094D02*
X633857Y480314D01*
X618109Y464566D01*
X31496Y464566D01*
X15748Y448818D01*
X633857Y494094D02*
X635000Y495300D01*
X15748Y448818D02*
X14600Y448600D01*
X566928Y474409D02*
X612204Y474409D01*
X614172Y476377D01*
X622046Y476377D01*
X702755Y509842D02*
X777558Y584645D01*
X793306Y600393D02*
X824802Y600393D01*
X1043305Y667322D02*
X1051179Y667322D01*
X1141730Y757873D01*
X1143699Y757873D01*
X1163384Y777558D01*
X1163384Y826770D01*
X1173226Y836613D01*
X1220470Y836613D01*
X1222439Y834644D01*
X1253935Y834644D01*
X1255400Y836000D01*
D14*
X566928Y474409D03*
X622046Y476377D03*
X702755Y509842D03*
X777558Y584645D03*
X793306Y600393D03*
X824802Y600393D03*
X1043305Y667322D03*
D13*
X633857Y431102D02*
X602361Y399606D01*
X49213Y399606D01*
X37402Y411417D01*
X17717Y411417D01*
X15748Y409448D01*
X633857Y431102D02*
X635000Y431800D01*
X15748Y409448D02*
X14600Y408600D01*
X614172Y399606D02*
X625983Y399606D01*
X645668Y419291D01*
X645668Y458661D01*
X698818Y492125D02*
X710629Y492125D01*
X785432Y566928D01*
X787400Y566928D01*
X801180Y584645D02*
X816928Y584645D01*
X822833Y590550D01*
X974408Y657479D02*
X1009841Y657479D01*
X1013778Y661416D01*
X1072833Y661416D01*
X1175195Y763778D01*
X1175195Y791337D01*
X1224407Y840550D02*
X1224407Y846455D01*
X1253935Y875983D01*
X1255400Y876000D01*
D14*
X614172Y399606D03*
X645668Y458661D03*
X698818Y492125D03*
X787400Y566928D03*
X801180Y584645D03*
X822833Y590550D03*
X974408Y657479D03*
X1175195Y791337D03*
X1224407Y840550D03*
D13*
X633857Y368110D02*
X633857Y362204D01*
X614172Y342519D01*
X405511Y342519D01*
X399606Y348425D01*
X309055Y348425D01*
X293307Y364173D01*
X222441Y364173D01*
X206693Y348425D01*
X90551Y348425D01*
X70866Y368110D02*
X15748Y368110D01*
X633857Y368110D02*
X635000Y368300D01*
X15748Y368110D02*
X14600Y368600D01*
D14*
X90551Y348425D03*
X70866Y368110D03*
D13*
X647637Y295275D02*
X687007Y295275D01*
X698818Y283464D01*
X805117Y283464D01*
X812991Y275590D01*
X816928Y275590D01*
X893699Y352362D01*
X893699Y374015D01*
X891731Y513779D02*
X889762Y513779D01*
X891731Y513779D02*
X893699Y511810D01*
X905510Y511810D01*
X946849Y553149D01*
X946849Y614172D01*
X1070864Y679133D02*
X1169289Y777558D01*
D14*
X647637Y295275D03*
X893699Y374015D03*
X889762Y513779D03*
X946849Y614172D03*
X1070864Y679133D03*
X1169289Y777558D03*
D13*
X574802Y352362D02*
X421259Y352362D01*
X413385Y360236D01*
X346456Y360236D01*
X340551Y354330D01*
X301181Y285433D02*
X293307Y277559D01*
X64961Y277559D01*
X15748Y326771D01*
X14600Y328600D01*
D14*
X574802Y352362D03*
X340551Y354330D03*
X301181Y285433D03*
D13*
X564960Y240157D02*
X582676Y240157D01*
X564960Y240157D02*
X551180Y226378D01*
X507873Y226378D01*
X472440Y261811D01*
X472440Y488188D02*
X472440Y618109D01*
X517716Y663385D01*
X517716Y702755D02*
X517716Y856298D01*
X555117Y893699D01*
X555117Y990156D01*
X594487Y1043305D02*
X757873Y1043305D01*
X803148Y998030D01*
X958660Y998030D01*
X1007872Y964565D02*
X1173226Y964565D01*
X1196848Y940943D01*
X1240155Y940943D01*
X1253935Y954723D01*
X584200Y241300D02*
X582676Y240157D01*
X1253935Y954723D02*
X1255400Y956000D01*
D14*
X472440Y261811D03*
X472440Y488188D03*
X517716Y663385D03*
X517716Y702755D03*
X555117Y990156D03*
X594487Y1043305D03*
X958660Y998030D03*
X1007872Y964565D03*
D13*
X633857Y250000D02*
X633857Y242126D01*
X633857Y250000D02*
X612204Y271653D01*
X31496Y271653D01*
X15748Y287401D01*
X633857Y242126D02*
X635000Y241300D01*
X15748Y287401D02*
X14600Y288600D01*
X555117Y511810D02*
X570865Y527558D01*
X702755Y582676D02*
X761810Y641731D01*
X797243Y718503D02*
X809054Y718503D01*
X816928Y726377D01*
X1181100Y982282D02*
X1242124Y982282D01*
X1253935Y994093D01*
X1255400Y996000D01*
D14*
X555117Y511810D03*
X570865Y527558D03*
X702755Y582676D03*
X761810Y641731D03*
X797243Y718503D03*
X816928Y726377D03*
X1181100Y982282D03*
D13*
X633857Y183071D02*
X633857Y179134D01*
X633857Y183071D02*
X608267Y208661D01*
X74803Y208661D01*
X35433Y248031D01*
X15748Y248031D01*
X633857Y179134D02*
X635000Y177800D01*
X15748Y248031D02*
X14600Y248600D01*
X606298Y133858D02*
X698818Y133858D01*
X704723Y127953D01*
X734251Y127953D01*
X807085Y200787D02*
X838581Y200787D01*
X842518Y204724D01*
X842518Y271653D01*
X830707Y505905D02*
X830707Y513779D01*
X812991Y531495D01*
X812991Y541338D01*
X1021652Y838581D02*
X1021652Y846455D01*
X1068896Y893699D01*
X1068896Y929132D01*
X1092518Y952754D01*
X1114171Y952754D01*
X1188974Y1027557D02*
X1246061Y1027557D01*
X1253935Y1035431D01*
X1255400Y1036000D01*
D14*
X606298Y133858D03*
X734251Y127953D03*
X807085Y200787D03*
X842518Y271653D03*
X830707Y505905D03*
X812991Y541338D03*
X1021652Y838581D03*
X1114171Y952754D03*
X1188974Y1027557D03*
D13*
X970471Y98425D02*
X665353Y98425D01*
X970471Y98425D02*
X974408Y94488D01*
X1175195Y210630D02*
X1175195Y244094D01*
X1177163Y246063D01*
X1177163Y271653D01*
X1167321Y281496D01*
X1167321Y285433D01*
X1171258Y289370D01*
X1177163Y289370D01*
X1177163Y460629D02*
X1192911Y476377D01*
X1340549Y777558D02*
X1360234Y797243D01*
X1360234Y1035431D01*
X1336612Y1059053D01*
X1316927Y1059053D01*
X1301179Y1074801D01*
X1255903Y1074801D01*
X1255400Y1076000D01*
D14*
X665353Y98425D03*
X974408Y94488D03*
X1175195Y210630D03*
X1177163Y289370D03*
X1177163Y460629D03*
X1192911Y476377D03*
X1340549Y777558D03*
D13*
X633857Y49213D02*
X616141Y31496D01*
X484251Y31496D01*
X633857Y49213D02*
X635000Y50800D01*
D14*
X484251Y31496D03*
D13*
X645668Y17717D02*
X677164Y49213D01*
X677164Y175197D02*
X677164Y190945D01*
X696849Y210630D01*
X696849Y230315D01*
X726377Y259842D01*
X822833Y259842D01*
X909447Y346456D01*
X970471Y346456D01*
X972439Y344488D01*
X1029526Y344488D01*
X1037400Y352362D01*
X1181100Y706692D02*
X1181100Y824802D01*
X1175195Y830707D01*
X1238187Y1074801D02*
X1238187Y1098423D01*
X1253935Y1114171D01*
X1255400Y1116000D01*
D14*
X645668Y17717D03*
X677164Y49213D03*
X677164Y175197D03*
X1037400Y352362D03*
X1181100Y706692D03*
X1175195Y830707D03*
X1238187Y1074801D03*
D13*
X1027557Y1320864D02*
X1027557Y1326769D01*
X1009841Y1344486D01*
X92520Y1344486D01*
X-1969Y1249998D01*
X-1969Y1106297D01*
X-72835Y759841D02*
X-72835Y702755D01*
X-51181Y681101D01*
X-51181Y647637D02*
X-55118Y647637D01*
X-76772Y625983D01*
X-76772Y486220D02*
X-88583Y474409D01*
X-88583Y200787D01*
X-76772Y188976D01*
X-55118Y190945D02*
X-31496Y167323D01*
X-3937Y118110D02*
X-3937Y108268D01*
X13780Y90551D01*
X1027557Y1320864D02*
X1028700Y1320800D01*
X13780Y90551D02*
X14600Y88600D01*
D14*
X-1969Y1106297D03*
X-72835Y759841D03*
X-51181Y681101D03*
X-51181Y647637D03*
X-76772Y625983D03*
X-76772Y486220D03*
X-76772Y188976D03*
X-55118Y190945D03*
X-31496Y167323D03*
X-3937Y118110D03*
D13*
X1029526Y1257872D02*
X1342517Y1257872D01*
X1368108Y1232281D01*
X1368108Y779526D01*
X1328738Y740156D01*
X1328738Y736219D01*
X1368108Y696849D01*
X1368108Y98425D01*
X1334643Y64961D01*
X1328738Y64961D01*
X1312990Y49213D01*
X1312990Y15748D01*
X1277557Y-19685D01*
X1251966Y-19685D01*
X1220470Y-51181D01*
X1206691Y-244094D02*
X1206691Y-259842D01*
X1188974Y-277559D01*
X1161415Y-277559D01*
X1145667Y-293307D01*
X1145667Y-301181D01*
X1127951Y-318897D01*
X696849Y-318897D01*
X677164Y-299212D01*
X486220Y-299212D01*
X458661Y-326771D01*
X190945Y-326771D01*
X157480Y-293307D01*
X157480Y-285433D01*
X143701Y-271653D01*
X43307Y-145669D02*
X43307Y-62992D01*
X-43307Y23622D01*
X-43307Y74803D01*
X-31496Y86614D01*
X-19685Y86614D01*
X13780Y53150D01*
X13780Y49213D01*
X1028700Y1257300D02*
X1029526Y1257872D01*
X14600Y48600D02*
X13780Y49213D01*
D14*
X1220470Y-51181D03*
X1206691Y-244094D03*
X143701Y-271653D03*
X43307Y-145669D03*
D13*
X978345Y1194880D02*
X1017715Y1234250D01*
X1253935Y1234250D01*
X978345Y1194880D02*
X977900Y1193800D01*
X1253935Y1234250D02*
X1255400Y1236000D01*
X877951Y1212596D02*
X557086Y1212596D01*
X478346Y1133856D01*
X-1969Y1055116D02*
X-1969Y1027557D01*
X0Y1025589D01*
X0Y1005904D01*
X-1969Y1003935D01*
X-1969Y935038D01*
X-23622Y913384D01*
X-31496Y913384D01*
X-43307Y901573D01*
X-43307Y779526D01*
X-29528Y765747D01*
X102362Y147638D02*
X102362Y108268D01*
X72835Y78740D01*
X72835Y21654D01*
D14*
X877951Y1212596D03*
X478346Y1133856D03*
X-1969Y1055116D03*
X-29528Y765747D03*
X102362Y147638D03*
X72835Y21654D03*
D13*
X1098423Y940943D02*
X1106297Y940943D01*
X1181100Y866140D01*
X1234250Y866140D01*
X1246061Y854329D02*
X1261809Y854329D01*
X1295273Y820865D01*
X1295273Y816928D01*
X1295400Y816000D01*
D14*
X1098423Y940943D03*
X1234250Y866140D03*
X1246061Y854329D03*
D13*
X1027557Y1131888D02*
X992124Y1167321D01*
X824802Y1167321D01*
X818896Y1173226D01*
X629920Y1173226D01*
X627952Y1171258D01*
X574802Y1171258D01*
X566928Y1163384D01*
X519684Y1163384D01*
X517716Y1165352D01*
X183071Y1165352D02*
X167323Y1149604D01*
X112205Y1149604D01*
X33465Y1070864D01*
X-45276Y1019683D02*
X-45276Y992124D01*
X-64961Y972439D01*
X-72835Y972439D01*
X-82677Y962597D01*
X-82677Y687007D01*
X-80709Y685038D01*
X-88583Y610235D02*
X-3937Y525590D01*
X-3937Y499999D01*
X-21654Y482283D01*
X-21654Y460629D01*
X-15748Y454724D01*
X1027557Y1131888D02*
X1028700Y1130300D01*
D14*
X517716Y1165352D03*
X183071Y1165352D03*
X33465Y1070864D03*
X-45276Y1019683D03*
X-80709Y685038D03*
X-88583Y610235D03*
X-15748Y454724D03*
D13*
X978345Y1064959D02*
X982282Y1064959D01*
X1025589Y1021652D01*
X1133856Y1021652D01*
X1183069Y972439D01*
X1275588Y972439D01*
X1295273Y952754D01*
X1303147Y952754D01*
X1312990Y942912D01*
X1312990Y872046D01*
X1297242Y856298D01*
X978345Y1064959D02*
X977900Y1066800D01*
X1295400Y856000D02*
X1297242Y856298D01*
X877951Y1110234D02*
X700786Y1110234D01*
X521653Y1045274D02*
X383858Y1045274D01*
X332677Y994093D02*
X332677Y954723D01*
X311023Y933069D01*
X311023Y718503D01*
X297244Y704723D01*
X220472Y509842D02*
X220472Y488188D01*
X200787Y468503D01*
X-9843Y468503D01*
D14*
X877951Y1110234D03*
X700786Y1110234D03*
X521653Y1045274D03*
X383858Y1045274D03*
X332677Y994093D03*
X297244Y704723D03*
X220472Y509842D03*
X-9843Y468503D03*
D13*
X1124014Y931101D02*
X1141730Y931101D01*
X1185037Y887794D01*
X1244092Y887794D01*
X1249998Y893699D01*
X1293305Y893699D01*
X1295273Y895668D01*
X1295400Y896000D01*
D14*
X1124014Y931101D03*
D13*
X1027557Y1003935D02*
X984250Y1047242D01*
X964565Y1047242D01*
X879920Y1131888D01*
X679133Y1131888D01*
X661416Y1149604D01*
X598424Y1149604D01*
X1027557Y1003935D02*
X1028700Y1003300D01*
D14*
X598424Y1149604D03*
D13*
X976376Y958660D02*
X976376Y940943D01*
X976376Y958660D02*
X972439Y962597D01*
X972439Y966534D01*
X976376Y970471D01*
X994093Y970471D01*
X1005904Y958660D01*
X1157478Y958660D01*
X1179132Y937006D01*
X1259840Y937006D01*
X1261809Y938975D01*
X1293305Y938975D01*
X1295273Y937006D01*
X977900Y939800D02*
X976376Y940943D01*
X1295273Y937006D02*
X1295400Y936000D01*
X828739Y877951D02*
X809054Y877951D01*
X791337Y895668D01*
X783463Y895668D01*
X627952Y895668D02*
X604330Y895668D01*
X596456Y887794D01*
X596456Y854329D01*
X529527Y787400D01*
X529527Y771652D01*
X375984Y732282D02*
X375984Y631889D01*
X366141Y622046D01*
X334645Y635826D02*
X234252Y535432D01*
X90551Y535432D01*
X53150Y498031D01*
X-15748Y330708D02*
X-15748Y316929D01*
X-23622Y309055D01*
X-25400Y308600D01*
D14*
X828739Y877951D03*
X783463Y895668D03*
X627952Y895668D03*
X529527Y771652D03*
X375984Y732282D03*
X366141Y622046D03*
X334645Y635826D03*
X53150Y498031D03*
X-15748Y330708D03*
D13*
X1157478Y931101D02*
X1173226Y931101D01*
X1175195Y933069D01*
X1263777Y933069D01*
D14*
X1157478Y931101D03*
X1263777Y933069D03*
D13*
X1027557Y895668D02*
X1027557Y877951D01*
X1027557Y895668D02*
X1001967Y921258D01*
X972439Y921258D01*
X929132Y964565D01*
X929132Y966534D01*
X923227Y972439D01*
X846455Y972439D01*
X824802Y994093D01*
X724408Y994093D01*
X458661Y982282D02*
X423228Y946849D01*
X421259Y946849D01*
X391732Y917321D01*
X391732Y879920D01*
X381889Y870077D01*
X381889Y814959D01*
X393700Y803148D01*
X393700Y767715D01*
X269685Y732282D02*
X269685Y702755D01*
X155512Y584645D02*
X131890Y584645D01*
X53150Y505905D01*
X35433Y405511D02*
X15748Y385826D01*
X7874Y385826D01*
X-7874Y370078D01*
X-7874Y285433D01*
X-23622Y269685D01*
X1027557Y877951D02*
X1028700Y876300D01*
X-23622Y269685D02*
X-25400Y268600D01*
D14*
X724408Y994093D03*
X458661Y982282D03*
X393700Y767715D03*
X269685Y732282D03*
X269685Y702755D03*
X155512Y584645D03*
X53150Y505905D03*
X35433Y405511D03*
D13*
X978345Y811022D02*
X982282Y811022D01*
X1011809Y781495D01*
X1027557Y781495D01*
X1100392Y854329D01*
X1157478Y923227D02*
X1173226Y923227D01*
X1177163Y927164D01*
X977900Y812800D02*
X978345Y811022D01*
D14*
X1100392Y854329D03*
X1157478Y923227D03*
X1177163Y927164D03*
D13*
X1027557Y812991D02*
X992124Y848424D01*
X958660Y848424D01*
X931101Y875983D01*
X913384Y875983D01*
X907479Y870077D01*
X842518Y797243D02*
X740156Y797243D01*
X714566Y771652D01*
X501968Y728345D02*
X501968Y671259D01*
X385826Y555117D01*
X385826Y531495D01*
X336614Y482283D01*
X291338Y350393D02*
X220472Y350393D01*
X206693Y336614D01*
X125984Y336614D01*
X76772Y287401D01*
X21654Y226378D02*
X33465Y214567D01*
X21654Y226378D02*
X-21654Y226378D01*
X-23622Y228346D01*
X1027557Y812991D02*
X1028700Y812800D01*
X-23622Y228346D02*
X-25400Y228600D01*
D14*
X907479Y870077D03*
X842518Y797243D03*
X714566Y771652D03*
X501968Y728345D03*
X336614Y482283D03*
X291338Y350393D03*
X76772Y287401D03*
X33465Y214567D03*
D13*
X940943Y826770D02*
X976376Y791337D01*
X940943Y826770D02*
X940943Y858266D01*
D14*
X976376Y791337D03*
X940943Y858266D03*
D13*
X1003935Y773621D02*
X1027557Y749999D01*
X1003935Y773621D02*
X927164Y773621D01*
X891731Y809054D01*
X891731Y814959D01*
X870077Y836613D01*
X854329Y850392D02*
X824802Y850392D01*
X822833Y852361D01*
X775589Y852361D01*
X401574Y856298D02*
X401574Y616141D01*
X309055Y523621D01*
X149606Y523621D01*
X127953Y501968D01*
X98425Y368110D02*
X43307Y312992D01*
X1027557Y749999D02*
X1028700Y749300D01*
D14*
X870077Y836613D03*
X854329Y850392D03*
X775589Y852361D03*
X401574Y856298D03*
X127953Y501968D03*
X98425Y368110D03*
X43307Y312992D03*
D13*
X978345Y687007D02*
X1017715Y726377D01*
X1078738Y726377D01*
X1135825Y783463D01*
X978345Y687007D02*
X977900Y685800D01*
D14*
X1135825Y783463D03*
D13*
X1027557Y685038D02*
X1005904Y663385D01*
X915353Y663385D01*
X842518Y736219D01*
X822833Y736219D02*
X777558Y781495D01*
X551180Y818896D02*
X535432Y818896D01*
X244094Y834644D02*
X232283Y846455D01*
X68898Y854329D02*
X9843Y854329D01*
X-1969Y842518D01*
X-1969Y751967D01*
X27559Y722440D01*
X27559Y690944D01*
X11811Y675196D01*
X-70866Y675196D01*
X-70866Y474409D02*
X-70866Y466535D01*
X-82677Y454724D01*
X-82677Y202756D01*
X-64961Y185039D01*
X-57087Y185039D01*
X-25591Y153543D01*
X-25591Y149606D01*
X1027557Y685038D02*
X1028700Y685800D01*
X-25591Y149606D02*
X-25400Y148600D01*
D14*
X842518Y736219D03*
X822833Y736219D03*
X777558Y781495D03*
X551180Y818896D03*
X535432Y818896D03*
X244094Y834644D03*
X232283Y846455D03*
X68898Y854329D03*
X-70866Y675196D03*
X-70866Y474409D03*
D13*
X978345Y624015D02*
X982282Y624015D01*
X1015746Y657479D01*
X1151573Y657479D01*
X1261809Y767715D01*
X1338580Y767715D01*
X1364171Y793306D01*
X1364171Y1070864D01*
X1336612Y1098423D01*
X1328738Y1098423D01*
X1297242Y1129919D01*
X1297242Y1135825D01*
X978345Y624015D02*
X977900Y622300D01*
X1295400Y1136000D02*
X1297242Y1135825D01*
X830707Y647637D02*
X830707Y590550D01*
X830707Y647637D02*
X631889Y846455D01*
X293307Y846455D02*
X293307Y708660D01*
X291338Y706692D01*
X291338Y673227D01*
X240157Y622046D01*
X236220Y622046D01*
X238189Y338582D02*
X220472Y338582D01*
X210630Y328740D01*
X143701Y328740D01*
X102362Y287401D01*
X84646Y287401D01*
X45276Y185039D02*
X45276Y179134D01*
X31496Y165354D01*
X31496Y161417D01*
X15748Y145669D01*
X7874Y145669D01*
X-23622Y114173D01*
X-23622Y110236D01*
X-25400Y108600D01*
D14*
X830707Y590550D03*
X631889Y846455D03*
X293307Y846455D03*
X236220Y622046D03*
X238189Y338582D03*
X84646Y287401D03*
X45276Y185039D03*
D13*
X978345Y559054D02*
X1021652Y602361D01*
X1041337Y602361D01*
X1090549Y651574D01*
X1135825Y651574D01*
X1187006Y915353D02*
X1198817Y927164D01*
X978345Y559054D02*
X977900Y558800D01*
D14*
X1135825Y651574D03*
X1187006Y915353D03*
X1198817Y927164D03*
D13*
X874014Y541338D02*
X874014Y533464D01*
X856298Y515747D01*
X736219Y368110D02*
X728345Y368110D01*
X681101Y320866D01*
X570865Y253937D02*
X549212Y232283D01*
X549212Y198819D02*
X468503Y198819D01*
X409448Y139764D01*
X309055Y88583D02*
X309055Y33465D01*
X281496Y5906D01*
X251968Y5906D01*
X37402Y9843D02*
X15748Y31496D01*
X7874Y31496D01*
X-23622Y62992D01*
X-23622Y66929D01*
X-25400Y68600D01*
D14*
X874014Y541338D03*
X856298Y515747D03*
X736219Y368110D03*
X681101Y320866D03*
X570865Y253937D03*
X549212Y232283D03*
X549212Y198819D03*
X409448Y139764D03*
X309055Y88583D03*
X251968Y5906D03*
X37402Y9843D03*
D13*
X1238187Y728345D02*
X1244092Y734251D01*
X1248029Y734251D01*
X1253935Y728345D01*
X1253935Y712597D01*
X1261809Y704723D01*
X1352360Y704723D01*
D14*
X1238187Y728345D03*
X1352360Y704723D03*
D13*
X952754Y387795D02*
X891731Y387795D01*
X803148Y299212D01*
X694881Y299212D01*
X655511Y338582D01*
X403543Y338582D01*
X397637Y344488D01*
X220472Y344488D01*
X208661Y332677D01*
X139764Y332677D01*
X116142Y309055D01*
X116142Y181102D02*
X66929Y131890D01*
X66929Y25591D01*
D14*
X952754Y387795D03*
X116142Y309055D03*
X116142Y181102D03*
X66929Y25591D03*
D13*
X1059053Y450787D02*
X1108266Y450787D01*
X1151573Y494094D01*
D14*
X1059053Y450787D03*
X1151573Y494094D03*
D13*
X990156Y511810D02*
X990156Y470472D01*
X990156Y511810D02*
X958660Y543306D01*
X958660Y629920D01*
X938975Y649605D01*
X864172Y649605D01*
X816928Y649605D02*
X791337Y649605D01*
X773621Y667322D01*
X669290Y667322D02*
X669290Y665353D01*
X661416Y657479D01*
X622046Y657479D01*
X29528Y584645D02*
X3937Y584645D01*
X-15748Y564960D01*
D14*
X990156Y470472D03*
X864172Y649605D03*
X816928Y649605D03*
X773621Y667322D03*
X669290Y667322D03*
X622046Y657479D03*
X29528Y584645D03*
X-15748Y564960D03*
D13*
X1064959Y618109D02*
X1064959Y509842D01*
X1070864Y667322D02*
X1169289Y765747D01*
X1224407Y779526D02*
X1299210Y779526D01*
X1314958Y795274D01*
X1314958Y805117D01*
X1334643Y824802D01*
X1334643Y834644D01*
X1335400Y836000D01*
D14*
X1064959Y509842D03*
X1064959Y618109D03*
X1070864Y667322D03*
X1169289Y765747D03*
X1224407Y779526D03*
D13*
X1009841Y387795D02*
X1027557Y370078D01*
X1009841Y387795D02*
X960628Y387795D01*
X954723Y381889D01*
X893699Y381889D01*
X881888Y385826D02*
X797243Y385826D01*
X793306Y381889D01*
X789369Y381889D01*
X738188Y433070D01*
X734251Y433070D01*
X696849Y395669D01*
X696849Y379921D01*
X692912Y375984D01*
X651574Y375984D01*
X639763Y387795D01*
X629920Y387795D01*
X622046Y379921D01*
X622046Y356299D01*
X612204Y346456D01*
X419291Y346456D01*
X417322Y348425D01*
X411417Y261811D02*
X372047Y261811D01*
X322834Y212598D01*
X98425Y212598D01*
X49213Y261811D01*
X1027557Y370078D02*
X1028700Y368300D01*
D14*
X893699Y381889D03*
X881888Y385826D03*
X417322Y348425D03*
X411417Y261811D03*
X49213Y261811D03*
D13*
X1131888Y372047D02*
X1208659Y372047D01*
X1232281Y395669D01*
D14*
X1131888Y372047D03*
X1232281Y395669D03*
D13*
X1043305Y350393D02*
X1029526Y336614D01*
X1043305Y350393D02*
X1043305Y377952D01*
X1027557Y393700D01*
X911416Y393700D01*
X905510Y399606D01*
X858266Y399606D01*
X850392Y391732D01*
X811022Y391732D01*
X781495Y421259D01*
X651574Y454724D02*
X651574Y460629D01*
X647637Y464566D01*
X624015Y464566D01*
X620078Y460629D01*
X59055Y460629D01*
X29528Y431102D01*
X-3937Y419291D02*
X-11811Y419291D01*
X-25591Y405511D01*
X-31496Y405511D01*
X-66929Y370078D01*
X-65400Y368600D01*
D14*
X1029526Y336614D03*
X781495Y421259D03*
X651574Y454724D03*
X29528Y431102D03*
X-3937Y419291D03*
D13*
X1135825Y494094D02*
X1151573Y509842D01*
D14*
X1135825Y494094D03*
X1151573Y509842D03*
D13*
X1028700Y241300D02*
X1009841Y222441D01*
X937006Y222441D01*
X929132Y230315D01*
X814959Y265748D02*
X624015Y265748D01*
X614172Y275590D01*
X346456Y275590D01*
X301181Y320866D01*
X210630Y320866D01*
X206693Y324803D01*
X145669Y324803D01*
X102362Y281496D01*
X66929Y281496D01*
X35433Y312992D01*
X35433Y314960D01*
D14*
X929132Y230315D03*
X814959Y265748D03*
X35433Y314960D03*
D13*
X978345Y179134D02*
X1017715Y218504D01*
X1035431Y218504D01*
X1070864Y253937D01*
X1102360Y253937D01*
X1127951Y253937D02*
X1159447Y253937D01*
X1171258Y265748D01*
X1259840Y714566D02*
X1259840Y748030D01*
X1309053Y797243D02*
X1309053Y805117D01*
X1318895Y814959D01*
X1318895Y938975D01*
X1334643Y954723D01*
X978345Y179134D02*
X977900Y177800D01*
X1334643Y954723D02*
X1335400Y956000D01*
D14*
X1102360Y253937D03*
X1127951Y253937D03*
X1171258Y265748D03*
X1259840Y714566D03*
X1259840Y748030D03*
X1309053Y797243D03*
D13*
X765747Y277559D02*
X653542Y277559D01*
X645668Y285433D01*
X503936Y285433D01*
X464566Y324803D01*
X405511Y354330D02*
X348425Y354330D01*
X311023Y265748D02*
X293307Y265748D01*
X291338Y267716D01*
X3937Y267716D01*
D14*
X765747Y277559D03*
X464566Y324803D03*
X405511Y354330D03*
X348425Y354330D03*
X311023Y265748D03*
X3937Y267716D03*
D13*
X1169289Y503936D02*
X1169289Y521653D01*
X1137793Y553149D01*
X1137793Y635826D01*
X1157478Y655511D01*
X1208659Y893699D02*
X1244092Y893699D01*
X1249998Y899605D01*
X1263777Y899605D01*
D14*
X1169289Y503936D03*
X1157478Y655511D03*
X1208659Y893699D03*
X1263777Y899605D03*
D13*
X1009841Y133858D02*
X1027557Y116142D01*
X1009841Y133858D02*
X704723Y133858D01*
X698818Y139764D01*
X602361Y139764D01*
X570865Y116142D02*
X537401Y82677D01*
X421259Y82677D01*
X401574Y62992D01*
X401574Y57087D01*
X1027557Y116142D02*
X1028700Y114300D01*
D14*
X602361Y139764D03*
X570865Y116142D03*
X401574Y57087D03*
D13*
X978345Y51181D02*
X1009841Y82677D01*
X1114171Y82677D01*
X1118108Y86614D01*
X1118108Y122047D01*
X1098423Y141732D01*
X1265746Y726377D02*
X1265746Y761810D01*
X978345Y51181D02*
X977900Y50800D01*
D14*
X1098423Y141732D03*
X1265746Y726377D03*
X1265746Y761810D03*
D13*
X1027557Y49213D02*
X1007872Y29528D01*
X988187Y29528D01*
X814959Y23622D02*
X783463Y23622D01*
X749999Y57087D01*
X665353Y57087D01*
X618109Y9843D01*
X523621Y9843D01*
X486220Y-27559D01*
X415354Y-27559D01*
X336614Y51181D02*
X324803Y62992D01*
X43307Y92520D02*
X43307Y171260D01*
X51181Y179134D01*
X51181Y187008D01*
X47244Y190945D01*
X-3937Y190945D01*
X-19685Y206693D01*
X-64961Y206693D01*
X1027557Y49213D02*
X1028700Y50800D01*
X-64961Y206693D02*
X-65400Y208600D01*
D14*
X988187Y29528D03*
X814959Y23622D03*
X415354Y-27559D03*
X336614Y51181D03*
X324803Y62992D03*
X43307Y92520D03*
D13*
X976376Y-13780D02*
X976376Y-29528D01*
X942912Y-62992D01*
X990156Y-110236D02*
X1064959Y-110236D01*
X1112203Y-62992D01*
X1167321Y-62992D01*
X1188974Y194882D02*
X1181100Y202756D01*
X1181100Y275590D01*
X1173226Y283464D01*
X1169289Y450787D02*
X1143699Y450787D01*
X1129919Y464566D01*
X1129919Y517716D02*
X1129919Y531495D01*
X1074801Y586613D01*
X1074801Y629920D01*
X1088581Y643700D01*
X1137793Y643700D01*
X1200785Y1037400D02*
X1200785Y1096455D01*
X1196848Y1100392D01*
X1196848Y1104329D01*
X1226376Y1133856D01*
X1273620Y1133856D01*
X1295273Y1112203D01*
X1303147Y1112203D01*
X1334643Y1080707D01*
X1334643Y1076770D01*
X977900Y-12700D02*
X976376Y-13780D01*
X1335400Y1076000D02*
X1334643Y1076770D01*
D14*
X942912Y-62992D03*
X990156Y-110236D03*
X1167321Y-62992D03*
X1188974Y194882D03*
X1173226Y283464D03*
X1169289Y450787D03*
X1129919Y464566D03*
X1129919Y517716D03*
X1137793Y643700D03*
X1200785Y1037400D03*
D13*
X811022Y17717D02*
X775589Y17717D01*
X755904Y-1969D01*
X598424Y-90551D02*
X570865Y-90551D01*
X539369Y-122047D01*
X539369Y-131890D01*
X503936Y-167323D01*
X96457Y-13780D02*
X96457Y31496D01*
X78740Y49213D01*
D14*
X811022Y17717D03*
X755904Y-1969D03*
X598424Y-90551D03*
X503936Y-167323D03*
X96457Y-13780D03*
X78740Y49213D03*
D13*
X429133Y-15748D02*
X509842Y64961D01*
X553149Y139764D02*
X553149Y192913D01*
X555117Y194882D01*
X529527Y478346D02*
X529527Y527558D01*
X604330Y602361D01*
X639763Y602361D01*
X665353Y627952D01*
X722440Y704723D02*
X722440Y742125D01*
X667322Y797243D01*
X801180Y927164D02*
X893699Y927164D01*
X903542Y937006D01*
X1311021Y1124014D02*
X1326769Y1124014D01*
X1334643Y1116140D01*
X1335400Y1116000D01*
D14*
X429133Y-15748D03*
X509842Y64961D03*
X553149Y139764D03*
X555117Y194882D03*
X529527Y478346D03*
X665353Y627952D03*
X722440Y704723D03*
X667322Y797243D03*
X801180Y927164D03*
X903542Y937006D03*
X1311021Y1124014D03*
D13*
X519684Y-74803D02*
X411417Y-74803D01*
X41339Y15748D02*
X41339Y45276D01*
X15748Y70866D01*
X1969Y70866D01*
X-17717Y90551D01*
X-31496Y90551D01*
X-64961Y124016D01*
X-64961Y127953D01*
X519684Y-74803D02*
X520700Y-76200D01*
X-64961Y127953D02*
X-65400Y128600D01*
D14*
X411417Y-74803D03*
X41339Y15748D03*
D13*
X372047Y68898D02*
X372047Y141732D01*
X314960Y198819D01*
X311023Y198819D01*
X283464Y226378D02*
X283464Y242126D01*
X267716Y257874D01*
X250000Y590550D02*
X336614Y677164D01*
X336614Y937006D01*
X395669Y996061D01*
X395669Y1122045D02*
X395669Y1147636D01*
X572834Y1324801D01*
X572834Y1332675D01*
X580708Y1340549D01*
X1007872Y1340549D01*
X1017715Y1330706D01*
X1017715Y1244092D01*
X1023620Y1238187D01*
X1234250Y1238187D01*
X1249998Y1253935D01*
X1340549Y1253935D01*
X1352360Y1242124D01*
X1352360Y1173226D01*
X1336612Y1157478D01*
X1335400Y1156000D01*
D14*
X372047Y68898D03*
X311023Y198819D03*
X283464Y226378D03*
X267716Y257874D03*
X250000Y590550D03*
X395669Y996061D03*
X395669Y1122045D03*
D13*
X383858Y-39370D02*
X468503Y-39370D01*
D14*
X468503Y-39370D03*
X383858Y-39370D03*
D13*
X749999Y-13780D02*
X749999Y21654D01*
X720471Y51181D01*
X706692Y51181D01*
X700786Y151575D02*
X700786Y196850D01*
X706692Y202756D01*
X706692Y224409D01*
X561023Y498031D02*
X602361Y539369D01*
X620078Y539369D01*
X805117Y830707D02*
X820865Y846455D01*
X824802Y1011809D02*
X872046Y1059053D01*
D14*
X749999Y-13780D03*
X706692Y51181D03*
X700786Y151575D03*
X706692Y224409D03*
X561023Y498031D03*
X620078Y539369D03*
X805117Y830707D03*
X820865Y846455D03*
X824802Y1011809D03*
X872046Y1059053D03*
D13*
X716534Y-125984D02*
X712597Y-125984D01*
X716534Y-125984D02*
X746062Y-96457D01*
X746062Y-47244D01*
X683070Y15748D01*
X683070Y19685D01*
X683070Y169291D02*
X683070Y185039D01*
X700786Y202756D01*
X700786Y226378D01*
X708660Y234252D01*
X708660Y332677D02*
X765747Y389763D01*
X803148Y490157D02*
X803148Y519684D01*
X797243Y525590D01*
X875983Y584645D02*
X935038Y643700D01*
X1017715Y787400D02*
X1027557Y787400D01*
X1072833Y832676D01*
X1072833Y925195D01*
X1094486Y946849D01*
X1277557Y1181100D02*
X1295273Y1198817D01*
X1301179Y1198817D01*
X1336612Y1234250D01*
X712597Y-125984D02*
X711200Y-127000D01*
X1336612Y1234250D02*
X1335400Y1236000D01*
D14*
X683070Y19685D03*
X683070Y169291D03*
X708660Y234252D03*
X708660Y332677D03*
X765747Y389763D03*
X803148Y490157D03*
X797243Y525590D03*
X875983Y584645D03*
X935038Y643700D03*
X1017715Y787400D03*
X1094486Y946849D03*
X1277557Y1181100D03*
D13*
X710629Y-47244D02*
X710629Y-74803D01*
X710629Y-47244D02*
X704723Y-41339D01*
X700786Y-41339D01*
X667322Y-74803D01*
X667322Y-80709D01*
X657479Y-90551D01*
X635826Y-90551D01*
X604330Y-122047D01*
X604330Y-129921D01*
X592519Y-141732D01*
X551180Y-141732D01*
X244094Y-116142D02*
X147638Y-116142D01*
X710629Y-74803D02*
X711200Y-76200D01*
D14*
X551180Y-141732D03*
X244094Y-116142D03*
X147638Y-116142D03*
D13*
X153543Y1320864D02*
X173228Y1340549D01*
X206693Y1340549D01*
X360236Y1187006D01*
X360236Y1127951D01*
X478346Y994093D02*
X478346Y940943D01*
X499999Y919290D02*
X499999Y840550D01*
X574802Y787400D02*
X574802Y763778D01*
X572834Y761810D01*
X572834Y720471D01*
X598424Y694881D01*
X598424Y673227D01*
X629920Y641731D01*
X659448Y641731D01*
X687007Y614172D01*
X767715Y533464D02*
X767715Y411417D01*
X791337Y387795D01*
X1102360Y159449D02*
X1153541Y108268D01*
X1173226Y9843D02*
X1253935Y9843D01*
X153543Y1320864D02*
X152400Y1320800D01*
X1253935Y9843D02*
X1255400Y8600D01*
D14*
X360236Y1127951D03*
X478346Y994093D03*
X478346Y940943D03*
X499999Y919290D03*
X499999Y840550D03*
X574802Y787400D03*
X687007Y614172D03*
X767715Y533464D03*
X791337Y387795D03*
X1102360Y159449D03*
X1153541Y108268D03*
X1173226Y9843D03*
M02*
