G04 EAGLE Gerber X2 export*
%TF.Part,Single*%
%TF.FileFunction,Copper,L2,Bot,Mixed*%
%TF.FilePolarity,Positive*%
%TF.GenerationSoftware,Autodesk,EAGLE,9.1.3*%
%TF.CreationDate,2020-04-16T01:31:32Z*%
G75*
%MOMM*%
%FSLAX34Y34*%
%LPD*%
%AMOC8*
5,1,8,0,0,1.08239X$1,22.5*%
G01*
%ADD10R,2.625000X2.625000*%
%ADD11C,2.625000*%
%ADD12C,1.524000*%
%ADD13C,0.304800*%
%ADD14C,0.503200*%


D10*
X808700Y-214000D03*
D11*
X848700Y-214000D03*
X888700Y-214000D03*
X928700Y-214000D03*
X968700Y-214000D03*
X1008700Y-214000D03*
X1048700Y-214000D03*
X1088700Y-214000D03*
X1128700Y-214000D03*
X1168700Y-214000D03*
X1208700Y-214000D03*
X1248700Y-214000D03*
X828700Y-254000D03*
X868700Y-254000D03*
X908700Y-254000D03*
X948700Y-254000D03*
X988700Y-254000D03*
X1028700Y-254000D03*
X1068700Y-254000D03*
X1108700Y-254000D03*
X1148700Y-254000D03*
X1188700Y-254000D03*
X1228700Y-254000D03*
X808700Y-294000D03*
X848700Y-294000D03*
X888700Y-294000D03*
X928700Y-294000D03*
X968700Y-294000D03*
X1008700Y-294000D03*
X1048700Y-294000D03*
X1088700Y-294000D03*
X1128700Y-294000D03*
X1168700Y-294000D03*
X1208700Y-294000D03*
X1248700Y-294000D03*
D10*
X21300Y-214000D03*
D11*
X61300Y-214000D03*
X101300Y-214000D03*
X141300Y-214000D03*
X181300Y-214000D03*
X221300Y-214000D03*
X261300Y-214000D03*
X301300Y-214000D03*
X341300Y-214000D03*
X381300Y-214000D03*
X421300Y-214000D03*
X461300Y-214000D03*
X41300Y-254000D03*
X81300Y-254000D03*
X121300Y-254000D03*
X161300Y-254000D03*
X201300Y-254000D03*
X241300Y-254000D03*
X281300Y-254000D03*
X321300Y-254000D03*
X361300Y-254000D03*
X401300Y-254000D03*
X441300Y-254000D03*
X21300Y-294000D03*
X61300Y-294000D03*
X101300Y-294000D03*
X141300Y-294000D03*
X181300Y-294000D03*
X221300Y-294000D03*
X261300Y-294000D03*
X301300Y-294000D03*
X341300Y-294000D03*
X381300Y-294000D03*
X421300Y-294000D03*
X461300Y-294000D03*
D12*
X152400Y1313180D02*
X152400Y1328420D01*
X177800Y1328420D02*
X177800Y1313180D01*
X203200Y1313180D02*
X203200Y1328420D01*
X152400Y1264920D02*
X152400Y1249680D01*
X177800Y1249680D02*
X177800Y1264920D01*
X203200Y1264920D02*
X203200Y1249680D01*
X152400Y1201420D02*
X152400Y1186180D01*
X177800Y1186180D02*
X177800Y1201420D01*
X203200Y1201420D02*
X203200Y1186180D01*
X152400Y1137920D02*
X152400Y1122680D01*
X177800Y1122680D02*
X177800Y1137920D01*
X203200Y1137920D02*
X203200Y1122680D01*
X152400Y1074420D02*
X152400Y1059180D01*
X177800Y1059180D02*
X177800Y1074420D01*
X203200Y1074420D02*
X203200Y1059180D01*
X152400Y1010920D02*
X152400Y995680D01*
X177800Y995680D02*
X177800Y1010920D01*
X203200Y1010920D02*
X203200Y995680D01*
X152400Y947420D02*
X152400Y932180D01*
X177800Y932180D02*
X177800Y947420D01*
X203200Y947420D02*
X203200Y932180D01*
X152400Y883920D02*
X152400Y868680D01*
X177800Y868680D02*
X177800Y883920D01*
X203200Y883920D02*
X203200Y868680D01*
X152400Y820420D02*
X152400Y805180D01*
X177800Y805180D02*
X177800Y820420D01*
X203200Y820420D02*
X203200Y805180D01*
X152400Y756920D02*
X152400Y741680D01*
X177800Y741680D02*
X177800Y756920D01*
X203200Y756920D02*
X203200Y741680D01*
X152400Y693420D02*
X152400Y678180D01*
X177800Y678180D02*
X177800Y693420D01*
X203200Y693420D02*
X203200Y678180D01*
X152400Y629920D02*
X152400Y614680D01*
X177800Y614680D02*
X177800Y629920D01*
X203200Y629920D02*
X203200Y614680D01*
X152400Y566420D02*
X152400Y551180D01*
X177800Y551180D02*
X177800Y566420D01*
X203200Y566420D02*
X203200Y551180D01*
X152400Y502920D02*
X152400Y487680D01*
X177800Y487680D02*
X177800Y502920D01*
X203200Y502920D02*
X203200Y487680D01*
X152400Y439420D02*
X152400Y424180D01*
X177800Y424180D02*
X177800Y439420D01*
X203200Y439420D02*
X203200Y424180D01*
X152400Y375920D02*
X152400Y360680D01*
X177800Y360680D02*
X177800Y375920D01*
X203200Y375920D02*
X203200Y360680D01*
X152400Y312420D02*
X152400Y297180D01*
X177800Y297180D02*
X177800Y312420D01*
X203200Y312420D02*
X203200Y297180D01*
X152400Y248920D02*
X152400Y233680D01*
X177800Y233680D02*
X177800Y248920D01*
X203200Y248920D02*
X203200Y233680D01*
X152400Y185420D02*
X152400Y170180D01*
X177800Y170180D02*
X177800Y185420D01*
X203200Y185420D02*
X203200Y170180D01*
X152400Y121920D02*
X152400Y106680D01*
X177800Y106680D02*
X177800Y121920D01*
X203200Y121920D02*
X203200Y106680D01*
X152400Y58420D02*
X152400Y43180D01*
X177800Y43180D02*
X177800Y58420D01*
X203200Y58420D02*
X203200Y43180D01*
X152400Y-5080D02*
X152400Y-20320D01*
X177800Y-20320D02*
X177800Y-5080D01*
X203200Y-5080D02*
X203200Y-20320D01*
X584200Y1313180D02*
X584200Y1328420D01*
X609600Y1328420D02*
X609600Y1313180D01*
X635000Y1313180D02*
X635000Y1328420D01*
X584200Y1264920D02*
X584200Y1249680D01*
X609600Y1249680D02*
X609600Y1264920D01*
X635000Y1264920D02*
X635000Y1249680D01*
X584200Y1201420D02*
X584200Y1186180D01*
X609600Y1186180D02*
X609600Y1201420D01*
X635000Y1201420D02*
X635000Y1186180D01*
X584200Y1137920D02*
X584200Y1122680D01*
X609600Y1122680D02*
X609600Y1137920D01*
X635000Y1137920D02*
X635000Y1122680D01*
X584200Y1074420D02*
X584200Y1059180D01*
X609600Y1059180D02*
X609600Y1074420D01*
X635000Y1074420D02*
X635000Y1059180D01*
X584200Y1010920D02*
X584200Y995680D01*
X609600Y995680D02*
X609600Y1010920D01*
X635000Y1010920D02*
X635000Y995680D01*
X584200Y947420D02*
X584200Y932180D01*
X609600Y932180D02*
X609600Y947420D01*
X635000Y947420D02*
X635000Y932180D01*
X584200Y883920D02*
X584200Y868680D01*
X609600Y868680D02*
X609600Y883920D01*
X635000Y883920D02*
X635000Y868680D01*
X584200Y820420D02*
X584200Y805180D01*
X609600Y805180D02*
X609600Y820420D01*
X635000Y820420D02*
X635000Y805180D01*
X584200Y756920D02*
X584200Y741680D01*
X609600Y741680D02*
X609600Y756920D01*
X635000Y756920D02*
X635000Y741680D01*
X584200Y693420D02*
X584200Y678180D01*
X609600Y678180D02*
X609600Y693420D01*
X635000Y693420D02*
X635000Y678180D01*
X584200Y629920D02*
X584200Y614680D01*
X609600Y614680D02*
X609600Y629920D01*
X635000Y629920D02*
X635000Y614680D01*
X584200Y566420D02*
X584200Y551180D01*
X609600Y551180D02*
X609600Y566420D01*
X635000Y566420D02*
X635000Y551180D01*
X584200Y502920D02*
X584200Y487680D01*
X609600Y487680D02*
X609600Y502920D01*
X635000Y502920D02*
X635000Y487680D01*
X584200Y439420D02*
X584200Y424180D01*
X609600Y424180D02*
X609600Y439420D01*
X635000Y439420D02*
X635000Y424180D01*
X584200Y375920D02*
X584200Y360680D01*
X609600Y360680D02*
X609600Y375920D01*
X635000Y375920D02*
X635000Y360680D01*
X584200Y312420D02*
X584200Y297180D01*
X609600Y297180D02*
X609600Y312420D01*
X635000Y312420D02*
X635000Y297180D01*
X584200Y248920D02*
X584200Y233680D01*
X609600Y233680D02*
X609600Y248920D01*
X635000Y248920D02*
X635000Y233680D01*
X584200Y185420D02*
X584200Y170180D01*
X609600Y170180D02*
X609600Y185420D01*
X635000Y185420D02*
X635000Y170180D01*
X584200Y121920D02*
X584200Y106680D01*
X609600Y106680D02*
X609600Y121920D01*
X635000Y121920D02*
X635000Y106680D01*
X584200Y58420D02*
X584200Y43180D01*
X609600Y43180D02*
X609600Y58420D01*
X635000Y58420D02*
X635000Y43180D01*
X584200Y-5080D02*
X584200Y-20320D01*
X609600Y-20320D02*
X609600Y-5080D01*
X635000Y-5080D02*
X635000Y-20320D01*
X977900Y1313180D02*
X977900Y1328420D01*
X1003300Y1328420D02*
X1003300Y1313180D01*
X1028700Y1313180D02*
X1028700Y1328420D01*
X977900Y1264920D02*
X977900Y1249680D01*
X1003300Y1249680D02*
X1003300Y1264920D01*
X1028700Y1264920D02*
X1028700Y1249680D01*
X977900Y1201420D02*
X977900Y1186180D01*
X1003300Y1186180D02*
X1003300Y1201420D01*
X1028700Y1201420D02*
X1028700Y1186180D01*
X977900Y1137920D02*
X977900Y1122680D01*
X1003300Y1122680D02*
X1003300Y1137920D01*
X1028700Y1137920D02*
X1028700Y1122680D01*
X977900Y1074420D02*
X977900Y1059180D01*
X1003300Y1059180D02*
X1003300Y1074420D01*
X1028700Y1074420D02*
X1028700Y1059180D01*
X977900Y1010920D02*
X977900Y995680D01*
X1003300Y995680D02*
X1003300Y1010920D01*
X1028700Y1010920D02*
X1028700Y995680D01*
X977900Y947420D02*
X977900Y932180D01*
X1003300Y932180D02*
X1003300Y947420D01*
X1028700Y947420D02*
X1028700Y932180D01*
X977900Y883920D02*
X977900Y868680D01*
X1003300Y868680D02*
X1003300Y883920D01*
X1028700Y883920D02*
X1028700Y868680D01*
X977900Y820420D02*
X977900Y805180D01*
X1003300Y805180D02*
X1003300Y820420D01*
X1028700Y820420D02*
X1028700Y805180D01*
X977900Y756920D02*
X977900Y741680D01*
X1003300Y741680D02*
X1003300Y756920D01*
X1028700Y756920D02*
X1028700Y741680D01*
X977900Y693420D02*
X977900Y678180D01*
X1003300Y678180D02*
X1003300Y693420D01*
X1028700Y693420D02*
X1028700Y678180D01*
X977900Y629920D02*
X977900Y614680D01*
X1003300Y614680D02*
X1003300Y629920D01*
X1028700Y629920D02*
X1028700Y614680D01*
X977900Y566420D02*
X977900Y551180D01*
X1003300Y551180D02*
X1003300Y566420D01*
X1028700Y566420D02*
X1028700Y551180D01*
X977900Y502920D02*
X977900Y487680D01*
X1003300Y487680D02*
X1003300Y502920D01*
X1028700Y502920D02*
X1028700Y487680D01*
X977900Y439420D02*
X977900Y424180D01*
X1003300Y424180D02*
X1003300Y439420D01*
X1028700Y439420D02*
X1028700Y424180D01*
X977900Y375920D02*
X977900Y360680D01*
X1003300Y360680D02*
X1003300Y375920D01*
X1028700Y375920D02*
X1028700Y360680D01*
X977900Y312420D02*
X977900Y297180D01*
X1003300Y297180D02*
X1003300Y312420D01*
X1028700Y312420D02*
X1028700Y297180D01*
X977900Y248920D02*
X977900Y233680D01*
X1003300Y233680D02*
X1003300Y248920D01*
X1028700Y248920D02*
X1028700Y233680D01*
X977900Y185420D02*
X977900Y170180D01*
X1003300Y170180D02*
X1003300Y185420D01*
X1028700Y185420D02*
X1028700Y170180D01*
X977900Y121920D02*
X977900Y106680D01*
X1003300Y106680D02*
X1003300Y121920D01*
X1028700Y121920D02*
X1028700Y106680D01*
X977900Y58420D02*
X977900Y43180D01*
X1003300Y43180D02*
X1003300Y58420D01*
X1028700Y58420D02*
X1028700Y43180D01*
X977900Y-5080D02*
X977900Y-20320D01*
X1003300Y-20320D02*
X1003300Y-5080D01*
X1028700Y-5080D02*
X1028700Y-20320D01*
X528320Y-127000D02*
X513080Y-127000D01*
X513080Y-101600D02*
X528320Y-101600D01*
X528320Y-76200D02*
X513080Y-76200D01*
X576580Y-127000D02*
X591820Y-127000D01*
X591820Y-101600D02*
X576580Y-101600D01*
X576580Y-76200D02*
X591820Y-76200D01*
X640080Y-127000D02*
X655320Y-127000D01*
X655320Y-101600D02*
X640080Y-101600D01*
X640080Y-76200D02*
X655320Y-76200D01*
X703580Y-127000D02*
X718820Y-127000D01*
X718820Y-101600D02*
X703580Y-101600D01*
X703580Y-76200D02*
X718820Y-76200D01*
D10*
X1255400Y8600D03*
D11*
X1255400Y48600D03*
X1255400Y88600D03*
X1255400Y128600D03*
X1255400Y168600D03*
X1255400Y208600D03*
X1255400Y248600D03*
X1255400Y288600D03*
X1255400Y328600D03*
X1255400Y368600D03*
X1255400Y408600D03*
X1255400Y448600D03*
X1295400Y28600D03*
X1295400Y68600D03*
X1295400Y108600D03*
X1295400Y148600D03*
X1295400Y188600D03*
X1295400Y228600D03*
X1295400Y268600D03*
X1295400Y308600D03*
X1295400Y348600D03*
X1295400Y388600D03*
X1295400Y428600D03*
X1335400Y8600D03*
X1335400Y48600D03*
X1335400Y88600D03*
X1335400Y128600D03*
X1335400Y168600D03*
X1335400Y208600D03*
X1335400Y248600D03*
X1335400Y288600D03*
X1335400Y328600D03*
X1335400Y368600D03*
X1335400Y408600D03*
X1335400Y448600D03*
D10*
X1255400Y796000D03*
D11*
X1255400Y836000D03*
X1255400Y876000D03*
X1255400Y916000D03*
X1255400Y956000D03*
X1255400Y996000D03*
X1255400Y1036000D03*
X1255400Y1076000D03*
X1255400Y1116000D03*
X1255400Y1156000D03*
X1255400Y1196000D03*
X1255400Y1236000D03*
X1295400Y816000D03*
X1295400Y856000D03*
X1295400Y896000D03*
X1295400Y936000D03*
X1295400Y976000D03*
X1295400Y1016000D03*
X1295400Y1056000D03*
X1295400Y1096000D03*
X1295400Y1136000D03*
X1295400Y1176000D03*
X1295400Y1216000D03*
X1335400Y796000D03*
X1335400Y836000D03*
X1335400Y876000D03*
X1335400Y916000D03*
X1335400Y956000D03*
X1335400Y996000D03*
X1335400Y1036000D03*
X1335400Y1076000D03*
X1335400Y1116000D03*
X1335400Y1156000D03*
X1335400Y1196000D03*
X1335400Y1236000D03*
D10*
X14600Y1236000D03*
D11*
X14600Y1196000D03*
X14600Y1156000D03*
X14600Y1116000D03*
X14600Y1076000D03*
X14600Y1036000D03*
X14600Y996000D03*
X14600Y956000D03*
X14600Y916000D03*
X14600Y876000D03*
X14600Y836000D03*
X14600Y796000D03*
X-25400Y1216000D03*
X-25400Y1176000D03*
X-25400Y1136000D03*
X-25400Y1096000D03*
X-25400Y1056000D03*
X-25400Y1016000D03*
X-25400Y976000D03*
X-25400Y936000D03*
X-25400Y896000D03*
X-25400Y856000D03*
X-25400Y816000D03*
X-65400Y1236000D03*
X-65400Y1196000D03*
X-65400Y1156000D03*
X-65400Y1116000D03*
X-65400Y1076000D03*
X-65400Y1036000D03*
X-65400Y996000D03*
X-65400Y956000D03*
X-65400Y916000D03*
X-65400Y876000D03*
X-65400Y836000D03*
X-65400Y796000D03*
D10*
X14600Y448600D03*
D11*
X14600Y408600D03*
X14600Y368600D03*
X14600Y328600D03*
X14600Y288600D03*
X14600Y248600D03*
X14600Y208600D03*
X14600Y168600D03*
X14600Y128600D03*
X14600Y88600D03*
X14600Y48600D03*
X14600Y8600D03*
X-25400Y428600D03*
X-25400Y388600D03*
X-25400Y348600D03*
X-25400Y308600D03*
X-25400Y268600D03*
X-25400Y228600D03*
X-25400Y188600D03*
X-25400Y148600D03*
X-25400Y108600D03*
X-25400Y68600D03*
X-25400Y28600D03*
X-65400Y448600D03*
X-65400Y408600D03*
X-65400Y368600D03*
X-65400Y328600D03*
X-65400Y288600D03*
X-65400Y248600D03*
X-65400Y208600D03*
X-65400Y168600D03*
X-65400Y128600D03*
X-65400Y88600D03*
X-65400Y48600D03*
X-65400Y8600D03*
D13*
X222441Y1275588D02*
X179134Y1318895D01*
X222441Y1275588D02*
X722440Y1275588D01*
X866140Y1131888D01*
X866140Y986219D01*
X889762Y962597D01*
X889762Y935038D01*
X917321Y907479D01*
X1017715Y856298D02*
X1080707Y793306D01*
X1080707Y627952D01*
X1163384Y488188D02*
X1163384Y271653D01*
X1157478Y265748D01*
X1157478Y226378D01*
X1125982Y143701D02*
X1092518Y110236D01*
X1092518Y21654D01*
X905510Y-64961D02*
X905510Y-94488D01*
X809054Y-190945D01*
X809054Y-212598D01*
X179134Y1318895D02*
X177800Y1320800D01*
X809054Y-212598D02*
X808700Y-214000D01*
D14*
X917321Y907479D03*
X1017715Y856298D03*
X1080707Y627952D03*
X1163384Y488188D03*
X1157478Y226378D03*
X1125982Y143701D03*
X1092518Y21654D03*
X905510Y-64961D03*
D13*
X265748Y982282D02*
X265748Y1051179D01*
X281496Y698818D02*
X297244Y698818D01*
X442913Y553149D01*
X442913Y539369D01*
X466535Y515747D02*
X519684Y462598D01*
X519684Y269685D01*
X525590Y263779D01*
X525590Y222441D01*
X523621Y220472D01*
X690944Y212598D02*
X734251Y212598D01*
X803148Y143701D02*
X811022Y135827D01*
X811022Y133858D01*
X897636Y47244D01*
X950786Y47244D01*
X974408Y70866D01*
X1007872Y70866D01*
X1015746Y62992D01*
X1015746Y23622D01*
X990156Y-1969D01*
X927164Y-86614D02*
X927164Y-135827D01*
X850392Y-212598D01*
X848700Y-214000D01*
D14*
X265748Y1051179D03*
X265748Y982282D03*
X281496Y698818D03*
X442913Y539369D03*
X466535Y515747D03*
X523621Y220472D03*
X690944Y212598D03*
X734251Y212598D03*
X803148Y143701D03*
X990156Y-1969D03*
X927164Y-86614D03*
D13*
X271653Y1053148D02*
X253937Y1070864D01*
X271653Y1053148D02*
X271653Y978345D01*
X285433Y675196D02*
X285433Y665353D01*
X375984Y574802D01*
X375984Y320866D01*
X484251Y285433D02*
X484251Y242126D01*
X568897Y157480D01*
X600393Y157480D01*
X602361Y155512D01*
X618109Y155512D01*
X659448Y114173D01*
X659448Y112205D01*
X783463Y112205D02*
X805117Y90551D01*
X805117Y-37402D01*
X807085Y-39370D01*
X807085Y-49213D01*
X787400Y-68898D01*
X785432Y-68898D01*
D14*
X253937Y1070864D03*
X271653Y978345D03*
X285433Y675196D03*
X375984Y320866D03*
X484251Y285433D03*
X659448Y112205D03*
X783463Y112205D03*
X785432Y-68898D03*
D13*
X255905Y978345D02*
X255905Y1053148D01*
X275590Y669290D02*
X342519Y602361D01*
X342519Y454724D01*
X535432Y423228D02*
X535432Y391732D01*
X564960Y362204D01*
X564960Y236220D01*
X604330Y196850D01*
X663385Y196850D01*
X706692Y153543D01*
X706692Y72835D01*
X854329Y-15748D02*
X854329Y-114173D01*
X852361Y-116142D01*
D14*
X255905Y1053148D03*
X255905Y978345D03*
X275590Y669290D03*
X342519Y454724D03*
X535432Y423228D03*
X706692Y72835D03*
X854329Y-15748D03*
X852361Y-116142D03*
D13*
X816928Y1029526D02*
X816928Y1167321D01*
X816928Y1029526D02*
X866140Y980313D01*
X866140Y903542D01*
X931101Y779526D02*
X931101Y675196D01*
X915353Y659448D01*
X915353Y614172D01*
X895668Y517716D02*
X895668Y468503D01*
X946849Y417322D01*
X946849Y344488D01*
X966534Y324803D01*
X992124Y291338D02*
X1023620Y259842D01*
X1033463Y259842D01*
X1051179Y242126D01*
X1051179Y226378D01*
X1062990Y92520D02*
X1062990Y45276D01*
X1066927Y41339D01*
X1066927Y-151575D01*
X1049211Y-169291D01*
D14*
X816928Y1167321D03*
X866140Y903542D03*
X931101Y779526D03*
X915353Y614172D03*
X895668Y517716D03*
X966534Y324803D03*
X992124Y291338D03*
X1051179Y226378D03*
X1062990Y92520D03*
X1049211Y-169291D03*
D13*
X395669Y966534D02*
X208661Y966534D01*
X395669Y966534D02*
X425196Y937006D01*
X616141Y470472D02*
X625983Y470472D01*
X785432Y311023D01*
X785432Y253937D01*
X785432Y238189D02*
X822833Y200787D01*
X921258Y200787D01*
X968502Y153543D01*
X1051179Y153543D01*
X1098423Y106299D02*
X1098423Y47244D01*
X1127951Y17717D01*
X1127951Y-100394D01*
X1086612Y-141732D01*
D14*
X208661Y966534D03*
X425196Y937006D03*
X616141Y470472D03*
X785432Y253937D03*
X785432Y238189D03*
X1051179Y153543D03*
X1098423Y106299D03*
X1086612Y-141732D03*
D13*
X204724Y913384D02*
X179134Y938975D01*
X204724Y913384D02*
X320866Y913384D01*
X316929Y671259D02*
X316929Y645668D01*
X389763Y572834D01*
X389763Y336614D01*
X387795Y334645D01*
X814959Y281496D02*
X860235Y236220D01*
X891731Y163386D02*
X891731Y82677D01*
X901573Y72835D01*
X895668Y-15748D02*
X889762Y-15748D01*
X895668Y-15748D02*
X907479Y-27559D01*
X907479Y-35433D01*
X1047242Y-175197D01*
X1047242Y-212598D01*
X179134Y938975D02*
X177800Y939800D01*
X1047242Y-212598D02*
X1048700Y-214000D01*
D14*
X320866Y913384D03*
X316929Y671259D03*
X387795Y334645D03*
X814959Y281496D03*
X860235Y236220D03*
X891731Y163386D03*
X901573Y72835D03*
X889762Y-15748D03*
D13*
X230315Y702755D02*
X210630Y702755D01*
X208661Y704723D01*
X198819Y704723D01*
X188976Y694881D01*
X188976Y673227D01*
X165354Y649605D01*
X86614Y649605D01*
X23622Y586613D01*
X23622Y582676D01*
X104331Y501968D01*
X108268Y501968D01*
X141732Y535432D01*
X141732Y570865D01*
X149606Y578739D01*
X155512Y578739D01*
X165354Y568897D01*
X165354Y547243D01*
X198819Y513779D01*
X208661Y513779D01*
X222441Y499999D01*
X222441Y320866D01*
X253937Y289370D01*
X253937Y167323D01*
X265748Y155512D01*
X279527Y11811D02*
X393700Y-102362D01*
X393700Y-183071D02*
X509842Y-183071D01*
X511810Y-181102D01*
X580708Y-181102D01*
X627952Y-228346D01*
D14*
X230315Y702755D03*
X265748Y155512D03*
X279527Y11811D03*
X393700Y-102362D03*
X393700Y-183071D03*
X627952Y-228346D03*
D13*
X94488Y728345D02*
X177165Y811022D01*
X94488Y728345D02*
X70866Y728345D01*
X-78740Y677164D02*
X-78740Y631889D01*
X-82677Y627952D01*
X-82677Y490157D01*
X-88583Y-35433D02*
X15748Y-139764D01*
X108268Y-139764D01*
X159449Y-190945D01*
X159449Y-200787D01*
X163386Y-204724D01*
X167323Y-204724D01*
X187008Y-185039D01*
X387795Y-185039D01*
X391732Y-188976D01*
X509842Y-188976D01*
X513779Y-185039D01*
X576771Y-185039D01*
X592519Y-200787D01*
X1080707Y-165354D02*
X1080707Y-131890D01*
X1080707Y-165354D02*
X1127951Y-212598D01*
X177165Y811022D02*
X177800Y812800D01*
X1127951Y-212598D02*
X1128700Y-214000D01*
D14*
X70866Y728345D03*
X-78740Y677164D03*
X-82677Y490157D03*
X-88583Y-35433D03*
X592519Y-200787D03*
X1080707Y-131890D03*
D13*
X244094Y622046D02*
X236220Y629920D01*
X244094Y622046D02*
X244094Y340551D01*
X257874Y326771D01*
X496062Y285433D02*
X519684Y261811D01*
X608267Y261811D02*
X614172Y261811D01*
X616141Y263779D01*
X641731Y263779D01*
X657479Y248031D01*
X657479Y224409D01*
X710629Y171260D01*
X738188Y171260D01*
X765747Y143701D02*
X870077Y39370D01*
X870077Y-15748D02*
X870077Y-29528D01*
X881888Y-41339D01*
X881888Y-94488D01*
X783463Y-192913D01*
X783463Y-232283D01*
X828739Y-277559D01*
X856298Y-277559D01*
X872046Y-293307D01*
X872046Y-301181D01*
X881888Y-311023D01*
X1055116Y-311023D01*
X1070864Y-295275D01*
X1070864Y-287401D01*
X1086612Y-271653D01*
X1114171Y-271653D01*
D14*
X236220Y629920D03*
X257874Y326771D03*
X496062Y285433D03*
X519684Y261811D03*
X608267Y261811D03*
X738188Y171260D03*
X765747Y143701D03*
X870077Y39370D03*
X870077Y-15748D03*
X1114171Y-271653D03*
D13*
X265748Y562991D02*
X255905Y572834D01*
X265748Y562991D02*
X265748Y344488D01*
X285433Y324803D01*
X285433Y265748D01*
X289370Y261811D01*
X618109Y257874D02*
X627952Y257874D01*
X629920Y259842D01*
X639763Y259842D01*
X653542Y246063D01*
X653542Y222441D01*
X710629Y165354D01*
X748030Y165354D01*
X789369Y206693D01*
X915353Y159449D02*
X915353Y145669D01*
X972439Y88583D01*
X1013778Y88583D01*
X1061022Y41339D01*
X1061022Y-45276D01*
X1161415Y-33465D02*
X1161415Y-92520D01*
X1208659Y-139764D01*
X1208659Y-212598D01*
X1208700Y-214000D01*
D14*
X255905Y572834D03*
X289370Y261811D03*
X618109Y257874D03*
X789369Y206693D03*
X915353Y159449D03*
X1061022Y-45276D03*
X1161415Y-33465D03*
D13*
X177165Y614172D02*
X177165Y622046D01*
X177165Y614172D02*
X106299Y543306D01*
X106299Y507873D01*
X-11811Y484251D02*
X-55118Y484251D01*
X-82677Y470472D02*
X-82677Y466535D01*
X-98425Y450787D01*
X-98425Y-137795D01*
X41339Y-277559D01*
X68898Y-277559D01*
X84646Y-293307D01*
X84646Y-301181D01*
X110236Y-326771D01*
X685038Y-326771D01*
X690944Y-320866D01*
X177800Y622300D02*
X177165Y622046D01*
D14*
X106299Y507873D03*
X-11811Y484251D03*
X-55118Y484251D03*
X-82677Y470472D03*
X690944Y-320866D03*
D13*
X-64961Y525590D02*
X-19685Y570865D01*
X-64961Y525590D02*
X-64961Y472440D01*
X-86614Y450787D01*
X-86614Y5906D01*
X-51181Y-29528D01*
X53150Y-29528D01*
X153543Y-129921D01*
X230315Y-129921D02*
X261811Y-161417D01*
X608267Y-161417D01*
X629920Y-161417D02*
X698818Y-161417D01*
X789369Y-194882D02*
X789369Y-226378D01*
X816928Y-253937D01*
X826770Y-253937D01*
X828700Y-254000D01*
D14*
X-19685Y570865D03*
X153543Y-129921D03*
X230315Y-129921D03*
X608267Y-161417D03*
X629920Y-161417D03*
X698818Y-161417D03*
X789369Y-194882D03*
D13*
X157480Y474409D02*
X177165Y494094D01*
X157480Y474409D02*
X116142Y474409D01*
X-15748Y474409D02*
X-64961Y425196D01*
X-72835Y425196D01*
X-82677Y415354D01*
X-82677Y281496D01*
X-66929Y265748D01*
X-59055Y265748D01*
X-49213Y255905D01*
X-49213Y159449D01*
X-82677Y-165354D02*
X43307Y-291338D01*
X43307Y-299212D01*
X74803Y-330708D01*
X710629Y-330708D01*
X773621Y-267716D01*
X773621Y-232283D01*
X177165Y494094D02*
X177800Y495300D01*
D14*
X116142Y474409D03*
X-15748Y474409D03*
X-49213Y159449D03*
X-82677Y-165354D03*
X773621Y-232283D03*
D13*
X177165Y417322D02*
X177165Y431102D01*
X177165Y417322D02*
X127953Y368110D01*
X127953Y352362D01*
X163386Y316929D01*
X163386Y212598D01*
X131890Y181102D01*
X165354Y-1969D02*
X165354Y-45276D01*
X267716Y-147638D01*
X578739Y-147638D01*
X608267Y-177165D02*
X645668Y-214567D01*
X177165Y431102D02*
X177800Y431800D01*
D14*
X131890Y181102D03*
X165354Y-1969D03*
X578739Y-147638D03*
X608267Y-177165D03*
X645668Y-214567D03*
D13*
X285433Y387795D02*
X281496Y387795D01*
X285433Y387795D02*
X289370Y383858D01*
X309055Y383858D01*
X535432Y383858D02*
X561023Y358267D01*
X561023Y224409D01*
X598424Y187008D01*
X598424Y165354D01*
X604330Y159449D01*
X620078Y159449D01*
X671259Y108268D01*
X671259Y39370D01*
X677164Y33465D01*
X677164Y13780D01*
X891731Y-192913D02*
X911416Y-212598D01*
X911416Y-220472D01*
X946849Y-255905D01*
X948700Y-254000D01*
D14*
X281496Y387795D03*
X309055Y383858D03*
X535432Y383858D03*
X677164Y13780D03*
X891731Y-192913D03*
D13*
X336614Y204724D02*
X336614Y277559D01*
X336614Y204724D02*
X354330Y187008D01*
X547243Y116142D02*
X586613Y76772D01*
X862203Y-15748D02*
X862203Y-29528D01*
X875983Y-43307D01*
X891731Y-43307D02*
X984250Y-135827D01*
X984250Y-204724D01*
D14*
X336614Y277559D03*
X354330Y187008D03*
X547243Y116142D03*
X586613Y76772D03*
X862203Y-15748D03*
X875983Y-43307D03*
X891731Y-43307D03*
X984250Y-204724D03*
D13*
X179134Y226378D02*
X179134Y240157D01*
X179134Y226378D02*
X234252Y171260D01*
X253937Y51181D02*
X320866Y51181D01*
X425196Y-53150D01*
X425196Y-129921D01*
X429133Y-133858D01*
X438976Y-133858D01*
X440944Y-131890D01*
X507873Y-198819D02*
X531495Y-222441D01*
X179134Y240157D02*
X177800Y241300D01*
D14*
X234252Y171260D03*
X253937Y51181D03*
X440944Y-131890D03*
X507873Y-198819D03*
X531495Y-222441D03*
D13*
X364173Y68898D02*
X330708Y68898D01*
X364173Y68898D02*
X370078Y62992D01*
X405511Y62992D01*
X407480Y61024D01*
X425196Y43307D02*
X433070Y43307D01*
X517716Y-41339D01*
X641731Y-41339D01*
X687007Y3937D01*
X702755Y3937D01*
X935038Y-70866D02*
X935038Y-74803D01*
X1031494Y-171260D01*
X1031494Y-220472D01*
X1066927Y-255905D01*
X1068700Y-254000D01*
D14*
X330708Y68898D03*
X407480Y61024D03*
X425196Y43307D03*
X702755Y3937D03*
X935038Y-70866D03*
D13*
X667322Y122047D02*
X622046Y167323D01*
X795274Y124016D02*
X842518Y76772D01*
X1055116Y92520D02*
X1061022Y98425D01*
X1064959Y98425D01*
X1078738Y84646D01*
X1078738Y21654D01*
X1074801Y17717D01*
X1074801Y-177165D01*
X1108266Y-210630D01*
X1108266Y-253937D01*
X1108700Y-254000D01*
D14*
X622046Y167323D03*
X667322Y122047D03*
X795274Y124016D03*
X842518Y76772D03*
X1055116Y92520D03*
D13*
X263779Y-179134D02*
X208661Y-124016D01*
X263779Y-179134D02*
X389763Y-179134D01*
X391732Y-177165D01*
X592519Y-177165D01*
X637794Y-222441D01*
X795274Y-305118D02*
X805117Y-314960D01*
X1092518Y-314960D01*
X1112203Y-295275D01*
X1112203Y-287401D01*
X1143699Y-255905D01*
X1147636Y-255905D01*
X1148700Y-254000D01*
D14*
X208661Y-124016D03*
X637794Y-222441D03*
X795274Y-305118D03*
D13*
X303149Y-137795D02*
X179134Y-13780D01*
X303149Y-137795D02*
X458661Y-137795D01*
X460629Y-135827D01*
X515747Y-190945D02*
X572834Y-190945D01*
X598424Y-216535D01*
X781495Y-299212D02*
X801180Y-318897D01*
X1167321Y-318897D01*
X1187006Y-299212D01*
X1187006Y-255905D01*
X179134Y-13780D02*
X177800Y-12700D01*
X1187006Y-255905D02*
X1188700Y-254000D01*
D14*
X460629Y-135827D03*
X515747Y-190945D03*
X598424Y-216535D03*
X781495Y-299212D03*
D13*
X614172Y1318895D02*
X610235Y1318895D01*
X614172Y1318895D02*
X631889Y1301179D01*
X929132Y1301179D01*
X972439Y1344486D01*
X1202754Y1344486D01*
X1334643Y1212596D01*
X1342517Y1212596D01*
X1372045Y1183069D01*
X1372045Y-114173D01*
X1230313Y-255905D01*
X610235Y1318895D02*
X609600Y1320800D01*
X1228700Y-254000D02*
X1230313Y-255905D01*
X458661Y1005904D02*
X458661Y1061022D01*
X458661Y1005904D02*
X470472Y994093D01*
X444881Y708660D02*
X521653Y708660D01*
X566928Y663385D01*
X624015Y663385D01*
X649605Y637794D01*
X649605Y580708D01*
X690944Y381889D02*
X690944Y370078D01*
X726377Y334645D01*
X726377Y228346D01*
X722440Y224409D01*
X757873Y143701D02*
X757873Y41339D01*
X757873Y9843D02*
X801180Y-33465D01*
X801180Y-39370D01*
X803148Y-41339D01*
X803148Y-45276D01*
X789369Y-59055D01*
X795274Y-116142D02*
X795274Y-175197D01*
X779526Y-190945D01*
X779526Y-265748D01*
X807085Y-293307D01*
X808700Y-294000D01*
D14*
X458661Y1061022D03*
X470472Y994093D03*
X444881Y708660D03*
X649605Y580708D03*
X690944Y381889D03*
X722440Y224409D03*
X757873Y143701D03*
X757873Y41339D03*
X757873Y9843D03*
X789369Y-59055D03*
X795274Y-116142D03*
D13*
X647637Y1155510D02*
X625983Y1177163D01*
X1318895Y773621D02*
X1318895Y753936D01*
X1334643Y738188D01*
D14*
X625983Y1177163D03*
X647637Y1155510D03*
X1318895Y773621D03*
X1334643Y738188D03*
D13*
X557086Y1057085D02*
X537401Y1037400D01*
X537401Y1019683D01*
X452755Y614172D02*
X452755Y521653D01*
X490157Y484251D01*
X490157Y244094D01*
X547243Y187008D01*
X547243Y131890D02*
X541338Y125984D01*
X541338Y70866D01*
X580708Y31496D01*
X659448Y31496D01*
X661416Y33465D01*
X665353Y33465D01*
X669290Y29528D01*
X669290Y19685D01*
X655511Y5906D01*
X736219Y-66929D02*
X761810Y-92520D01*
X830707Y-177165D02*
X830707Y-232283D01*
X852361Y-253937D01*
X852361Y-261811D01*
X883857Y-293307D01*
X887794Y-293307D01*
X888700Y-294000D01*
D14*
X557086Y1057085D03*
X537401Y1019683D03*
X452755Y614172D03*
X547243Y187008D03*
X547243Y131890D03*
X655511Y5906D03*
X736219Y-66929D03*
X761810Y-92520D03*
X830707Y-177165D03*
D13*
X608267Y1049211D02*
X608267Y1064959D01*
X608267Y1049211D02*
X584645Y1025589D01*
X562991Y1025589D01*
X547243Y1009841D01*
X547243Y1005904D01*
X562991Y990156D01*
X568897Y990156D01*
X919290Y728345D02*
X919290Y685038D01*
X844487Y610235D01*
X905510Y438976D02*
X905510Y377952D01*
X946849Y336614D01*
X1017715Y336614D02*
X1017715Y291338D01*
X1033463Y275590D01*
X1041337Y275590D01*
X1090549Y226378D01*
X1153541Y100394D02*
X1153541Y-27559D01*
X1151573Y-29528D01*
X1151573Y-96457D01*
X1153541Y-98425D01*
X608267Y1064959D02*
X609600Y1066800D01*
D14*
X568897Y990156D03*
X919290Y728345D03*
X844487Y610235D03*
X905510Y438976D03*
X946849Y336614D03*
X1017715Y336614D03*
X1090549Y226378D03*
X1153541Y100394D03*
X1153541Y-98425D03*
D13*
X606298Y840550D02*
X541338Y840550D01*
X606298Y840550D02*
X622046Y824802D01*
X622046Y797243D01*
X732282Y622046D02*
X777558Y576771D01*
X832676Y521653D02*
X858266Y521653D01*
X870077Y509842D01*
X870077Y389763D01*
X919290Y340551D01*
X909447Y163386D02*
X909447Y72835D01*
X895668Y-23622D02*
X895668Y-39370D01*
X931101Y-74803D01*
X931101Y-76772D01*
X990156Y-135827D01*
X990156Y-228346D01*
X970471Y-248031D01*
X970471Y-293307D01*
X968700Y-294000D01*
D14*
X541338Y840550D03*
X622046Y797243D03*
X732282Y622046D03*
X777558Y576771D03*
X832676Y521653D03*
X919290Y340551D03*
X909447Y163386D03*
X909447Y72835D03*
X895668Y-23622D03*
D13*
X828739Y891731D02*
X828739Y946849D01*
X860235Y978345D01*
X1220470Y946849D02*
X1220470Y852361D01*
X1230313Y842518D01*
X1230313Y777558D01*
X1165352Y712597D01*
X1165352Y657479D01*
X1267714Y555117D02*
X1297242Y555117D01*
X1368108Y484251D01*
X1368108Y-45276D01*
X1232281Y-181102D01*
D14*
X828739Y891731D03*
X860235Y978345D03*
X1220470Y946849D03*
X1165352Y657479D03*
X1267714Y555117D03*
X1232281Y-181102D03*
D13*
X598424Y568897D02*
X568897Y598424D01*
X598424Y568897D02*
X598424Y547243D01*
X612204Y533464D01*
X657479Y381889D02*
X657479Y370078D01*
X702755Y324803D01*
X702755Y311023D01*
X761810Y305118D02*
X761810Y281496D01*
X759841Y279527D01*
X759841Y255905D01*
X862203Y153543D01*
X862203Y104331D01*
X909447Y57087D01*
X1072833Y23622D02*
X1072833Y21654D01*
X1070864Y19685D01*
X1070864Y-232283D01*
X1086612Y-248031D01*
X1086612Y-259842D01*
X1053148Y-293307D01*
X1049211Y-293307D01*
X1048700Y-294000D01*
D14*
X568897Y598424D03*
X612204Y533464D03*
X657479Y381889D03*
X702755Y311023D03*
X761810Y305118D03*
X909447Y57087D03*
X1072833Y23622D03*
D13*
X775589Y541338D02*
X685038Y631889D01*
X875983Y435039D02*
X889762Y421259D01*
X1151573Y407480D02*
X1151573Y212598D01*
X1155510Y208661D01*
X1179132Y185039D02*
X1179132Y-7874D01*
X1155510Y-31496D01*
X1155510Y-92520D01*
X1159447Y-96457D01*
X1159447Y-159449D01*
D14*
X685038Y631889D03*
X775589Y541338D03*
X875983Y435039D03*
X889762Y421259D03*
X1151573Y407480D03*
X1155510Y208661D03*
X1179132Y185039D03*
X1159447Y-159449D03*
D13*
X610235Y749999D02*
X627952Y767715D01*
X643700Y767715D01*
X673227Y738188D01*
X696849Y501968D02*
X736219Y462598D01*
X736219Y427165D01*
X848424Y354330D02*
X958660Y244094D01*
X958660Y230315D01*
X974408Y214567D01*
X1114171Y214567D01*
X1222439Y149606D02*
X1222439Y-45276D01*
X1226376Y-49213D01*
X1226376Y-187008D01*
X609600Y749300D02*
X610235Y749999D01*
D14*
X673227Y738188D03*
X696849Y501968D03*
X736219Y427165D03*
X848424Y354330D03*
X1114171Y214567D03*
X1222439Y149606D03*
X1226376Y-187008D03*
D13*
X685038Y641731D02*
X661416Y665353D01*
X685038Y641731D02*
X685038Y639763D01*
X775589Y549212D01*
X1082675Y413385D02*
X1082675Y397637D01*
X1092518Y387795D01*
X1192911Y206693D02*
X1147636Y161417D01*
X1147636Y-228346D01*
X1167321Y-248031D01*
X1167321Y-293307D01*
X1168700Y-294000D01*
D14*
X661416Y665353D03*
X775589Y549212D03*
X1082675Y413385D03*
X1092518Y387795D03*
X1192911Y206693D03*
D13*
X643700Y588582D02*
X610235Y622046D01*
X742125Y440944D02*
X791337Y440944D01*
X848424Y397637D02*
X848424Y391732D01*
X956691Y283464D01*
X1139762Y232283D02*
X1139762Y214567D01*
X1151573Y202756D01*
X1204722Y149606D02*
X1204722Y-129921D01*
X1214565Y-139764D01*
X1214565Y-194882D01*
X610235Y622046D02*
X609600Y622300D01*
D14*
X643700Y588582D03*
X742125Y440944D03*
X791337Y440944D03*
X848424Y397637D03*
X956691Y283464D03*
X1139762Y232283D03*
X1151573Y202756D03*
X1204722Y149606D03*
X1214565Y-194882D03*
D13*
X755904Y332677D02*
X685038Y403543D01*
X755904Y332677D02*
X755904Y224409D01*
X952754Y153543D02*
X962597Y153543D01*
X968502Y147638D01*
X1005904Y147638D01*
X1104329Y92520D02*
X1104329Y47244D01*
X1133856Y17717D01*
X1133856Y-104331D01*
D14*
X685038Y403543D03*
X755904Y224409D03*
X952754Y153543D03*
X1005904Y147638D03*
X1104329Y92520D03*
X1133856Y-104331D03*
D13*
X590550Y476377D02*
X608267Y494094D01*
X590550Y476377D02*
X578739Y476377D01*
X572834Y482283D01*
X572834Y507873D01*
X588582Y523621D01*
X779526Y523621D01*
X811022Y555117D01*
X811022Y1181100D01*
X773621Y1218502D01*
X-3937Y1218502D01*
X-17717Y1232281D01*
X-45276Y1232281D01*
X-61024Y1216533D01*
X-76772Y1216533D01*
X-102362Y1190943D01*
X-102362Y498031D01*
X-76772Y472440D01*
X-76772Y466535D01*
X-94488Y448818D01*
X-94488Y-98425D01*
X19685Y-212598D01*
X608267Y494094D02*
X609600Y495300D01*
X19685Y-212598D02*
X21300Y-214000D01*
X383858Y338582D02*
X383858Y411417D01*
X383858Y338582D02*
X381889Y336614D01*
X381889Y279527D01*
X352362Y250000D01*
X145669Y218504D02*
X145669Y210630D01*
X122047Y187008D01*
X106299Y-169291D02*
X62992Y-212598D01*
X61300Y-214000D01*
D14*
X383858Y411417D03*
X352362Y250000D03*
X145669Y218504D03*
X122047Y187008D03*
X106299Y-169291D03*
D13*
X608267Y305118D02*
X608267Y312992D01*
X588582Y332677D01*
X399606Y316929D02*
X399606Y177165D01*
X377952Y155512D01*
X328740Y-45276D02*
X299212Y-74803D01*
X608267Y305118D02*
X609600Y304800D01*
D14*
X588582Y332677D03*
X399606Y316929D03*
X377952Y155512D03*
X328740Y-45276D03*
X299212Y-74803D03*
D13*
X610235Y240157D02*
X645668Y204724D01*
X407480Y15748D02*
X407480Y-3937D01*
X437007Y-33465D01*
X250000Y-190945D02*
X204724Y-190945D01*
X183071Y-212598D01*
X610235Y240157D02*
X609600Y241300D01*
X183071Y-212598D02*
X181300Y-214000D01*
D14*
X645668Y204724D03*
X407480Y15748D03*
X437007Y-33465D03*
X250000Y-190945D03*
D13*
X661416Y43307D02*
X661416Y92520D01*
X661416Y43307D02*
X673227Y31496D01*
X673227Y17717D01*
X661416Y5906D01*
X661416Y-7874D01*
D14*
X661416Y92520D03*
X661416Y-7874D03*
D13*
X324803Y-82677D02*
X324803Y-96457D01*
D14*
X324803Y-82677D03*
X324803Y-96457D03*
D13*
X403543Y992124D02*
X403543Y1100392D01*
X259842Y535432D02*
X259842Y344488D01*
X277559Y326771D01*
X277559Y198819D01*
X279527Y196850D01*
X279527Y159449D01*
X314960Y-9843D02*
X314960Y-15748D01*
X383858Y-84646D01*
D14*
X403543Y1100392D03*
X403543Y992124D03*
X259842Y535432D03*
X279527Y159449D03*
X314960Y-9843D03*
X383858Y-84646D03*
D13*
X1021652Y1238187D02*
X1003935Y1255903D01*
X1021652Y1238187D02*
X1033463Y1238187D01*
X1041337Y1246061D01*
X1041337Y1269683D01*
X488188Y-261811D02*
X488188Y-305118D01*
X488188Y-261811D02*
X490157Y-259842D01*
X490157Y-255905D01*
X486220Y-251968D01*
X466535Y-251968D01*
X446850Y-271653D01*
X435039Y-271653D01*
X423228Y-259842D01*
X423228Y-214567D01*
X1003935Y1255903D02*
X1003300Y1257300D01*
X423228Y-214567D02*
X421300Y-214000D01*
D14*
X1041337Y1269683D03*
X488188Y-305118D03*
D13*
X543306Y1224407D02*
X584645Y1224407D01*
X370078Y1051179D02*
X320866Y1001967D01*
X320866Y950786D02*
X320866Y921258D01*
X326771Y681101D02*
X326771Y675196D01*
X448818Y553149D01*
X448818Y519684D01*
X478346Y490157D01*
X478346Y232283D01*
X478346Y220472D02*
X478346Y161417D01*
X488188Y151575D01*
X385826Y9843D02*
X431102Y-35433D01*
X431102Y-127953D01*
D14*
X584645Y1224407D03*
X543306Y1224407D03*
X370078Y1051179D03*
X320866Y1001967D03*
X320866Y950786D03*
X320866Y921258D03*
X326771Y681101D03*
X478346Y232283D03*
X478346Y220472D03*
X488188Y151575D03*
X385826Y9843D03*
X431102Y-127953D03*
D13*
X551180Y1025589D02*
X551180Y1043305D01*
X551180Y1025589D02*
X539369Y1013778D01*
X539369Y994093D01*
X543306Y990156D01*
X437007Y836613D02*
X431102Y836613D01*
X413385Y818896D01*
X352362Y517716D02*
X352362Y478346D01*
X354330Y476377D01*
X354330Y309055D01*
X320866Y275590D01*
X320866Y171260D01*
X305118Y155512D01*
X297244Y139764D02*
X273622Y139764D01*
X271653Y141732D01*
X110236Y141732D01*
X106299Y137795D01*
X53150Y137795D01*
X49213Y141732D01*
D14*
X551180Y1043305D03*
X543306Y990156D03*
X437007Y836613D03*
X413385Y818896D03*
X352362Y517716D03*
X305118Y155512D03*
X297244Y139764D03*
X49213Y141732D03*
D13*
X895668Y958660D02*
X1001967Y1064959D01*
X759841Y974408D02*
X706692Y921258D01*
X505905Y921258D01*
X480314Y946849D01*
X442913Y946849D01*
X409448Y913384D01*
X374015Y913384D01*
X275590Y541338D02*
X275590Y346456D01*
X297244Y324803D01*
X297244Y289370D01*
X295275Y287401D01*
X295275Y222441D01*
X316929Y200787D01*
X316929Y188976D01*
X281496Y153543D01*
X275590Y153543D01*
X273622Y155512D01*
X269685Y135827D02*
X137795Y135827D01*
X102362Y100394D01*
X1001967Y1064959D02*
X1003300Y1066800D01*
D14*
X895668Y958660D03*
X759841Y974408D03*
X374015Y913384D03*
X275590Y541338D03*
X273622Y155512D03*
X269685Y135827D03*
X102362Y100394D03*
D13*
X588582Y1104329D02*
X706692Y1104329D01*
X588582Y1104329D02*
X484251Y999998D01*
X230315Y529527D02*
X230315Y476377D01*
X226378Y472440D01*
X226378Y322834D01*
X257874Y291338D01*
X257874Y171260D01*
X259842Y169291D01*
X194882Y-110236D02*
X194882Y-169291D01*
X165354Y-198819D01*
D14*
X706692Y1104329D03*
X484251Y999998D03*
X230315Y529527D03*
X259842Y169291D03*
X194882Y-110236D03*
X165354Y-198819D03*
D13*
X923227Y964565D02*
X978345Y964565D01*
X677164Y1033463D02*
X598424Y1033463D01*
X586613Y1021652D01*
X566928Y1021652D01*
X553149Y1007872D01*
X431102Y828739D02*
X431102Y787400D01*
X358267Y539369D02*
X358267Y307086D01*
X330708Y279527D01*
X330708Y163386D01*
X336614Y139764D02*
X336614Y124016D01*
X141732Y-188976D02*
X124016Y-206693D01*
X124016Y-228346D01*
X149606Y-253937D01*
X159449Y-253937D01*
X161300Y-254000D01*
D14*
X978345Y964565D03*
X923227Y964565D03*
X677164Y1033463D03*
X553149Y1007872D03*
X431102Y828739D03*
X431102Y787400D03*
X358267Y539369D03*
X330708Y163386D03*
X336614Y139764D03*
X336614Y124016D03*
X141732Y-188976D03*
D13*
X714566Y921258D02*
X791337Y921258D01*
X568897Y895668D02*
X438976Y895668D01*
X405511Y862203D01*
X314960Y521653D02*
X314960Y381889D01*
X291338Y358267D01*
X90551Y309055D02*
X90551Y159449D01*
X96457Y153543D01*
X137795Y-234252D02*
X181102Y-234252D01*
X200787Y-253937D01*
X201300Y-254000D01*
D14*
X791337Y921258D03*
X714566Y921258D03*
X568897Y895668D03*
X405511Y862203D03*
X314960Y521653D03*
X291338Y358267D03*
X90551Y309055D03*
X96457Y153543D03*
X137795Y-234252D03*
D13*
X1049211Y765747D02*
X1003935Y811022D01*
X1049211Y765747D02*
X1049211Y665353D01*
X1031494Y647637D01*
X972439Y647637D01*
X952754Y627952D01*
X856298Y507873D02*
X836613Y507873D01*
X832676Y511810D01*
X828739Y511810D01*
X809054Y492125D01*
X809054Y248031D01*
X812991Y244094D01*
X797243Y206693D02*
X712597Y122047D01*
X712597Y41339D01*
X679133Y7874D01*
X671259Y7874D01*
X318897Y-198819D02*
X318897Y-228346D01*
X309055Y-238189D01*
X289370Y-238189D01*
X287401Y-236220D01*
X275590Y-236220D01*
X257874Y-253937D01*
X242126Y-253937D01*
X1003935Y811022D02*
X1003300Y812800D01*
X242126Y-253937D02*
X241300Y-254000D01*
D14*
X952754Y627952D03*
X856298Y507873D03*
X812991Y244094D03*
X797243Y206693D03*
X671259Y7874D03*
X318897Y-198819D03*
D13*
X1001967Y740156D02*
X1001967Y748030D01*
X1001967Y740156D02*
X921258Y659448D01*
X921258Y612204D01*
X913384Y604330D01*
X842518Y604330D01*
X838581Y608267D01*
X838581Y631889D01*
X781495Y706692D02*
X781495Y712597D01*
X767715Y726377D01*
X559054Y726377D01*
X557086Y728345D01*
X348425Y474409D02*
X348425Y395669D01*
X291338Y338582D01*
X216535Y326771D02*
X216535Y320866D01*
X240157Y297244D01*
X240157Y157480D01*
X240157Y-57087D02*
X240157Y-66929D01*
X293307Y-120079D01*
X1001967Y748030D02*
X1003300Y749300D01*
D14*
X838581Y631889D03*
X781495Y706692D03*
X557086Y728345D03*
X348425Y474409D03*
X291338Y338582D03*
X216535Y326771D03*
X240157Y157480D03*
X240157Y-57087D03*
X293307Y-120079D03*
D13*
X864172Y826770D02*
X864172Y832676D01*
X822833Y874014D01*
X822833Y1001967D01*
X824802Y1003935D01*
X659448Y1143699D02*
X659448Y1192911D01*
X639763Y1212596D01*
X-5906Y1212596D01*
X-19685Y1198817D01*
X-45276Y1198817D01*
X-59055Y1212596D01*
X-72835Y1212596D01*
X-92520Y1192911D01*
X-88583Y-72835D02*
X39370Y-200787D01*
X39370Y-228346D01*
X64961Y-253937D01*
X64961Y-261811D01*
X80709Y-277559D01*
X108268Y-277559D01*
X124016Y-293307D01*
X124016Y-301181D01*
X133858Y-311023D01*
X188976Y-311023D01*
X204724Y-295275D01*
X204724Y-287401D01*
X220472Y-271653D01*
X305118Y-271653D01*
X320866Y-255905D01*
X321300Y-254000D01*
D14*
X864172Y826770D03*
X824802Y1003935D03*
X659448Y1143699D03*
X-92520Y1192911D03*
X-88583Y-72835D03*
D13*
X1076770Y387795D02*
X1076770Y456692D01*
X1076770Y291338D02*
X1076770Y248031D01*
X1112203Y112205D02*
X1141730Y82677D01*
X1141730Y-104331D01*
X480314Y-320866D02*
X344488Y-320866D01*
D14*
X1076770Y456692D03*
X1076770Y387795D03*
X1076770Y291338D03*
X1076770Y248031D03*
X1112203Y112205D03*
X1141730Y-104331D03*
X480314Y-320866D03*
X344488Y-320866D03*
D13*
X1070864Y383858D02*
X1070864Y490157D01*
X915353Y194882D02*
X868109Y147638D01*
X868109Y127953D01*
X783463Y104331D02*
X783463Y59055D01*
X744093Y19685D01*
X742125Y-13780D02*
X667322Y-88583D01*
D14*
X1070864Y490157D03*
X1070864Y383858D03*
X915353Y194882D03*
X868109Y127953D03*
X783463Y104331D03*
X744093Y19685D03*
X742125Y-13780D03*
X667322Y-88583D03*
D13*
X1080707Y15748D02*
X1122045Y15748D01*
X901573Y11811D02*
X868109Y11811D01*
X816928Y-39370D01*
X816928Y-51181D01*
X633857Y-234252D01*
X535432Y-234252D01*
X533464Y-232283D01*
X464566Y-232283D01*
X442913Y-253937D01*
X441300Y-254000D01*
D14*
X1122045Y15748D03*
X1080707Y15748D03*
X901573Y11811D03*
D13*
X824802Y358267D02*
X824802Y460629D01*
X824802Y358267D02*
X814959Y348425D01*
X687007Y314960D02*
X687007Y248031D01*
X667322Y228346D01*
X440944Y214567D02*
X440944Y210630D01*
X379921Y149606D01*
X356299Y149606D01*
X354330Y151575D01*
D14*
X824802Y460629D03*
X814959Y348425D03*
X687007Y314960D03*
X667322Y228346D03*
X440944Y214567D03*
X354330Y151575D03*
D13*
X592519Y273622D02*
X624015Y273622D01*
X592519Y273622D02*
X568897Y297244D01*
X568897Y395669D01*
X547243Y417322D01*
X55118Y419291D02*
X55118Y226378D01*
X49213Y220472D01*
D14*
X624015Y273622D03*
X547243Y417322D03*
X55118Y419291D03*
X49213Y220472D03*
D13*
X1196848Y185039D02*
X1196848Y-41339D01*
X1167321Y-70866D01*
X958660Y-118110D02*
X866140Y-210630D01*
X866140Y-220472D01*
X484251Y-257874D02*
X466535Y-257874D01*
X446850Y-277559D01*
X253937Y-277559D01*
X238189Y-293307D01*
X238189Y-301181D01*
X224409Y-314960D01*
X122047Y-314960D01*
X102362Y-295275D01*
X101300Y-294000D01*
D14*
X1196848Y185039D03*
X1167321Y-70866D03*
X958660Y-118110D03*
X866140Y-220472D03*
X484251Y-257874D03*
D13*
X716534Y118110D02*
X783463Y185039D01*
X716534Y118110D02*
X716534Y39370D01*
X641731Y-35433D01*
X572834Y-35433D01*
X307086Y-232283D02*
X273622Y-232283D01*
X269685Y-236220D01*
X234252Y-236220D01*
X218504Y-251968D01*
X218504Y-259842D01*
X200787Y-277559D01*
X157480Y-277559D01*
X141732Y-293307D01*
X141300Y-294000D01*
D14*
X783463Y185039D03*
X572834Y-35433D03*
X307086Y-232283D03*
D13*
X610235Y147638D02*
X606298Y151575D01*
X590550Y151575D01*
X354330Y-29528D02*
X354330Y-45276D01*
D14*
X610235Y147638D03*
X590550Y151575D03*
X354330Y-29528D03*
X354330Y-45276D03*
D13*
X370078Y-17717D02*
X381889Y-17717D01*
X370078Y-17717D02*
X364173Y-11811D01*
D14*
X381889Y-17717D03*
X364173Y-11811D03*
D13*
X1001967Y35433D02*
X1001967Y49213D01*
X1001967Y35433D02*
X958660Y-7874D01*
X848424Y-33465D02*
X566928Y-314960D01*
X281496Y-314960D01*
X261811Y-295275D01*
X1001967Y49213D02*
X1003300Y50800D01*
X261300Y-294000D02*
X261811Y-295275D01*
D14*
X958660Y-7874D03*
X848424Y-33465D03*
D13*
X1003935Y-11811D02*
X1021652Y5906D01*
X1033463Y5906D01*
X1039368Y0D01*
X1039368Y-45276D01*
X1031494Y-53150D01*
X999998Y-53150D01*
X998030Y-51181D01*
X940943Y-51181D01*
X899605Y-9843D01*
X852361Y-9843D01*
X820865Y-41339D01*
X820865Y-53150D01*
X562991Y-311023D01*
X318897Y-311023D01*
X303149Y-295275D01*
X1003300Y-12700D02*
X1003935Y-11811D01*
X303149Y-295275D02*
X301300Y-294000D01*
X627952Y-122047D02*
X647637Y-102362D01*
X627952Y-122047D02*
X627952Y-131890D01*
X633857Y-137795D01*
X675196Y-137795D01*
X677164Y-135827D01*
X647637Y-102362D02*
X647700Y-101600D01*
D14*
X677164Y-135827D03*
D13*
X153543Y1257872D02*
X153543Y1299210D01*
X165354Y1311021D01*
X165354Y1332675D01*
X181102Y1348423D01*
X1214565Y1348423D01*
X1348423Y732282D02*
X1212596Y596456D01*
X1212596Y401574D01*
X1190943Y379921D01*
X1190943Y261811D01*
X1196848Y255905D01*
X1269683Y151575D02*
X1269683Y137795D01*
X1271651Y135827D01*
X1271651Y64961D01*
X1255903Y49213D01*
X153543Y1257872D02*
X152400Y1257300D01*
X1255903Y49213D02*
X1255400Y48600D01*
D14*
X1214565Y1348423D03*
X1348423Y732282D03*
X1196848Y255905D03*
X1269683Y151575D03*
D13*
X305118Y1045274D02*
X259842Y1090549D01*
X305118Y1045274D02*
X305118Y996061D01*
X307086Y994093D01*
X305118Y816928D02*
X366141Y755904D01*
X381889Y690944D02*
X452755Y620078D01*
X454724Y620078D01*
X568897Y505905D01*
X568897Y480314D01*
X598424Y450787D01*
X614172Y450787D01*
X624015Y440944D01*
X624015Y419291D01*
X651574Y391732D01*
X663385Y391732D01*
X720471Y334645D01*
X720471Y246063D01*
X828739Y159449D02*
X828739Y129921D01*
X901573Y57087D01*
X940943Y17717D02*
X940943Y0D01*
X978345Y-37402D01*
X1023620Y-37402D01*
D14*
X259842Y1090549D03*
X307086Y994093D03*
X305118Y816928D03*
X366141Y755904D03*
X381889Y690944D03*
X720471Y246063D03*
X828739Y159449D03*
X901573Y57087D03*
X940943Y17717D03*
X1023620Y-37402D03*
D13*
X153543Y1131888D02*
X171260Y1149604D01*
X539369Y1149604D01*
X578739Y1110234D01*
X736219Y1049211D02*
X736219Y1041337D01*
X807085Y970471D01*
X807085Y840550D01*
X799211Y832676D01*
X799211Y724408D01*
X803148Y720471D01*
X803148Y594487D01*
X781495Y572834D01*
X781495Y539369D01*
X775589Y533464D01*
X791337Y395669D02*
X805117Y381889D01*
X805117Y244094D01*
X828739Y220472D01*
X962597Y220472D01*
X982282Y200787D01*
X1127951Y200787D01*
X152400Y1130300D02*
X153543Y1131888D01*
D14*
X578739Y1110234D03*
X736219Y1049211D03*
X775589Y533464D03*
X791337Y395669D03*
X1127951Y200787D03*
D13*
X202756Y1129919D02*
X183071Y1110234D01*
X19685Y1110234D01*
X15748Y1114171D01*
X202756Y1129919D02*
X203200Y1130300D01*
X15748Y1114171D02*
X14600Y1116000D01*
X153543Y1064959D02*
X173228Y1045274D01*
X212598Y1045274D01*
X250000Y1007872D01*
X354330Y704723D02*
X375984Y704723D01*
X547243Y533464D01*
X604330Y533464D01*
X624015Y513779D02*
X698818Y513779D01*
X700786Y515747D01*
X761810Y515747D01*
X791337Y486220D01*
X153543Y1064959D02*
X152400Y1066800D01*
D14*
X250000Y1007872D03*
X354330Y704723D03*
X604330Y533464D03*
X624015Y513779D03*
X791337Y486220D03*
D13*
X202756Y1066927D02*
X183071Y1086612D01*
X25591Y1086612D01*
X15748Y1076770D01*
X202756Y1066927D02*
X203200Y1066800D01*
X15748Y1076770D02*
X14600Y1076000D01*
X153543Y1003935D02*
X188976Y1039368D01*
X667322Y1027557D02*
X706692Y1027557D01*
X734251Y1055116D01*
X773621Y1055116D01*
X816928Y1011809D02*
X816928Y1009841D01*
X814959Y1007872D01*
X814959Y775589D01*
X816928Y773621D01*
X860235Y574802D02*
X901573Y574802D01*
X909447Y582676D01*
X1086612Y582676D01*
X1309053Y446850D02*
X1309053Y438976D01*
X1312990Y435039D01*
X1312990Y421259D01*
X1311021Y419291D01*
X1311021Y397637D01*
X1312990Y395669D01*
X1312990Y261811D01*
X1297242Y246063D01*
X1285431Y246063D01*
X1255903Y216535D01*
X1255903Y208661D01*
X153543Y1003935D02*
X152400Y1003300D01*
X1255400Y208600D02*
X1255903Y208661D01*
D14*
X188976Y1039368D03*
X667322Y1027557D03*
X773621Y1055116D03*
X816928Y1011809D03*
X816928Y773621D03*
X860235Y574802D03*
X1086612Y582676D03*
X1309053Y446850D03*
D13*
X171260Y958660D02*
X152400Y939800D01*
X171260Y958660D02*
X395669Y958660D01*
X519684Y1027557D02*
X590550Y1098423D01*
X724408Y1098423D01*
X805117Y1179132D01*
X1334643Y1133856D02*
X1340549Y1133856D01*
X1356297Y1118108D01*
X1356297Y913384D01*
X1336612Y893699D01*
X1328738Y893699D01*
X1318895Y883857D01*
X1318895Y868109D01*
X1334643Y852361D01*
X1342517Y852361D01*
X1360234Y834644D01*
X1360234Y726377D01*
X1216533Y582676D01*
X1216533Y311023D01*
D14*
X395669Y958660D03*
X519684Y1027557D03*
X805117Y1179132D03*
X1334643Y1133856D03*
X1216533Y311023D03*
D13*
X177165Y901573D02*
X153543Y877951D01*
X177165Y901573D02*
X606298Y901573D01*
X854329Y793306D02*
X921258Y793306D01*
X972439Y844487D01*
X1023620Y844487D01*
X1076770Y791337D01*
X1076770Y631889D01*
X1074801Y629920D01*
X1074801Y625983D01*
X1149604Y551180D01*
X1251966Y480314D02*
X1251966Y476377D01*
X1271651Y456692D01*
X1271651Y305118D01*
X1255903Y289370D01*
X153543Y877951D02*
X152400Y876300D01*
X1255400Y288600D02*
X1255903Y289370D01*
D14*
X606298Y901573D03*
X854329Y793306D03*
X1149604Y551180D03*
X1251966Y480314D03*
D13*
X175197Y834644D02*
X153543Y812991D01*
X175197Y834644D02*
X226378Y834644D01*
X293307Y988187D02*
X399606Y988187D01*
X401574Y986219D01*
X454724Y986219D01*
X456692Y988187D01*
X537401Y988187D01*
X541338Y984250D01*
X614172Y984250D01*
X624015Y994093D01*
X624015Y1015746D01*
X629920Y1021652D01*
X748030Y1021652D01*
X801180Y968502D01*
X1019683Y895668D02*
X1033463Y895668D01*
X1092518Y836613D01*
X1092518Y665353D01*
X1165352Y592519D01*
X1222439Y535432D02*
X1222439Y527558D01*
X1220470Y525590D01*
X1220470Y362204D01*
X1253935Y328740D01*
X153543Y812991D02*
X152400Y812800D01*
X1253935Y328740D02*
X1255400Y328600D01*
D14*
X226378Y834644D03*
X293307Y988187D03*
X801180Y968502D03*
X1019683Y895668D03*
X1165352Y592519D03*
X1222439Y535432D03*
D13*
X196850Y793306D02*
X153543Y749999D01*
X196850Y793306D02*
X273622Y793306D01*
X303149Y822833D01*
X352362Y822833D01*
X393700Y781495D01*
X769684Y781495D01*
X826770Y724408D02*
X860235Y690944D01*
X909447Y543306D02*
X970471Y543306D01*
X974408Y539369D01*
X1009841Y539369D01*
X1011809Y541338D01*
X1106297Y456692D02*
X1106297Y450787D01*
X1129919Y427165D01*
X153543Y749999D02*
X152400Y749300D01*
D14*
X769684Y781495D03*
X826770Y724408D03*
X860235Y690944D03*
X909447Y543306D03*
X1011809Y541338D03*
X1106297Y456692D03*
X1129919Y427165D03*
D13*
X175197Y708660D02*
X153543Y687007D01*
X175197Y708660D02*
X234252Y708660D01*
X253937Y728345D02*
X265748Y728345D01*
X267716Y726377D01*
X417322Y726377D01*
X456692Y765747D01*
X488188Y913384D02*
X777558Y913384D01*
X872046Y883857D02*
X901573Y883857D01*
X915353Y870077D01*
X1098423Y761810D02*
X1125982Y734251D01*
X1125982Y647637D01*
X1165352Y608267D01*
X1238187Y539369D02*
X1238187Y425196D01*
X1253935Y409448D01*
X153543Y687007D02*
X152400Y685800D01*
X1253935Y409448D02*
X1255400Y408600D01*
D14*
X234252Y708660D03*
X253937Y728345D03*
X456692Y765747D03*
X488188Y913384D03*
X777558Y913384D03*
X872046Y883857D03*
X915353Y870077D03*
X1098423Y761810D03*
X1165352Y608267D03*
X1238187Y539369D03*
D13*
X171260Y641731D02*
X153543Y624015D01*
X171260Y641731D02*
X208661Y641731D01*
X370078Y978345D02*
X454724Y978345D01*
X456692Y976376D01*
X716534Y976376D01*
X895668Y937006D02*
X901573Y931101D01*
X944880Y931101D01*
X972439Y958660D01*
X1043305Y958660D01*
X1078738Y923227D01*
X1141730Y763778D02*
X1141730Y651574D01*
X1165352Y627952D01*
X1246061Y547243D02*
X1246061Y456692D01*
X1253935Y448818D01*
X153543Y624015D02*
X152400Y622300D01*
X1253935Y448818D02*
X1255400Y448600D01*
D14*
X208661Y641731D03*
X370078Y978345D03*
X716534Y976376D03*
X895668Y937006D03*
X1078738Y923227D03*
X1141730Y763778D03*
X1165352Y627952D03*
X1246061Y547243D03*
D13*
X153543Y543306D02*
X153543Y557086D01*
X153543Y543306D02*
X190945Y505905D01*
X190945Y468503D01*
X216535Y442913D01*
X216535Y407480D01*
X399606Y405511D02*
X399606Y324803D01*
X405511Y318897D01*
X405511Y259842D01*
X438976Y226378D01*
X484251Y226378D01*
X559054Y151575D01*
X559054Y127953D02*
X559054Y118110D01*
X572834Y104331D01*
X572834Y102362D01*
X580708Y94488D01*
X649605Y94488D01*
X659448Y104331D01*
X726377Y104331D02*
X726377Y29528D01*
X751967Y3937D01*
X757873Y3937D01*
X789369Y-27559D01*
X789369Y-43307D01*
X153543Y557086D02*
X152400Y558800D01*
D14*
X216535Y407480D03*
X399606Y405511D03*
X559054Y151575D03*
X559054Y127953D03*
X659448Y104331D03*
X726377Y104331D03*
X789369Y-43307D03*
D13*
X330708Y442913D02*
X330708Y472440D01*
X586613Y411417D02*
X625983Y411417D01*
X649605Y387795D01*
X661416Y387795D01*
X714566Y334645D01*
X714566Y240157D01*
X720471Y234252D01*
X795274Y143701D02*
X909447Y29528D01*
X980313Y29528D01*
X1277557Y86614D02*
X1277557Y94488D01*
X1277557Y86614D02*
X1295273Y68898D01*
X1295400Y68600D01*
D14*
X330708Y472440D03*
X330708Y442913D03*
X586613Y411417D03*
X720471Y234252D03*
X795274Y143701D03*
X980313Y29528D03*
X1277557Y94488D03*
D13*
X-88583Y1108266D02*
X-94488Y1114171D01*
X-94488Y1151573D01*
X-70866Y1175195D01*
X-25591Y1175195D01*
X-25400Y1176000D01*
D14*
X-88583Y1108266D03*
D13*
X151575Y431102D02*
X151575Y397637D01*
X114173Y360236D01*
X114173Y314960D01*
X110236Y311023D01*
X110236Y171260D01*
X124016Y157480D01*
X232283Y157480D01*
X232283Y-1969D02*
X232283Y-15748D01*
X344488Y-127953D01*
X348425Y-127953D01*
X377952Y-173228D02*
X604330Y-173228D01*
X635826Y-141732D01*
X720471Y-141732D01*
X812991Y-49213D01*
X812991Y-35433D01*
X826770Y-21654D01*
X929132Y-25591D02*
X960628Y-25591D01*
X978345Y-43307D01*
X1027557Y-43307D01*
X152400Y431800D02*
X151575Y431102D01*
D14*
X232283Y157480D03*
X232283Y-1969D03*
X348425Y-127953D03*
X377952Y-173228D03*
X826770Y-21654D03*
X929132Y-25591D03*
X1027557Y-43307D03*
D13*
X-88583Y1116140D02*
X-68898Y1135825D01*
X-25591Y1135825D01*
X-25400Y1136000D01*
D14*
X-88583Y1116140D03*
D13*
X192913Y409448D02*
X153543Y370078D01*
X297244Y442913D02*
X297244Y531495D01*
X336614Y570865D01*
X350393Y779526D02*
X389763Y779526D01*
X391732Y777558D01*
X722440Y777558D01*
X791337Y708660D01*
X791337Y704723D01*
X917321Y438976D02*
X940943Y415354D01*
X1196848Y377952D02*
X1196848Y322834D01*
X1246061Y273622D01*
X153543Y370078D02*
X152400Y368300D01*
D14*
X192913Y409448D03*
X297244Y442913D03*
X336614Y570865D03*
X350393Y779526D03*
X791337Y704723D03*
X917321Y438976D03*
X940943Y415354D03*
X1196848Y377952D03*
X1246061Y273622D03*
D13*
X291338Y389763D02*
X291338Y645668D01*
X259842Y677164D01*
X220472Y978345D02*
X135827Y978345D01*
X33465Y1080707D01*
D14*
X291338Y389763D03*
X259842Y677164D03*
X220472Y978345D03*
X33465Y1080707D03*
D13*
X153543Y303149D02*
X153543Y265748D01*
X157480Y261811D01*
X342519Y255905D02*
X342519Y251968D01*
X374015Y220472D01*
X444881Y220472D02*
X472440Y192913D01*
X547243Y124016D02*
X568897Y102362D01*
X568897Y100394D01*
X580708Y88583D01*
X627952Y88583D01*
X964565Y88583D02*
X970471Y82677D01*
X1001967Y82677D01*
X1112203Y88583D02*
X1127951Y88583D01*
X1236218Y133858D02*
X1253935Y151575D01*
X1261809Y151575D01*
X1297242Y187008D01*
X153543Y303149D02*
X152400Y304800D01*
X1295400Y188600D02*
X1297242Y187008D01*
D14*
X157480Y261811D03*
X342519Y255905D03*
X374015Y220472D03*
X444881Y220472D03*
X472440Y192913D03*
X547243Y124016D03*
X627952Y88583D03*
X964565Y88583D03*
X1001967Y82677D03*
X1112203Y88583D03*
X1127951Y88583D03*
X1236218Y133858D03*
D13*
X202756Y305118D02*
X163386Y344488D01*
X143701Y344488D01*
X133858Y354330D01*
X104331Y354330D02*
X68898Y389763D01*
X68898Y525590D01*
X-31496Y625983D01*
X-31496Y694881D01*
X-66929Y765747D02*
X-86614Y785432D01*
X-86614Y958660D01*
X-72835Y972439D01*
X-53150Y972439D01*
X-39370Y958660D01*
X202756Y305118D02*
X203200Y304800D01*
D14*
X133858Y354330D03*
X104331Y354330D03*
X-31496Y694881D03*
X-66929Y765747D03*
X-39370Y958660D03*
D13*
X151575Y240157D02*
X151575Y208661D01*
X116142Y173228D01*
X114173Y-153543D02*
X155512Y-194882D01*
X155512Y-204724D01*
X163386Y-212598D01*
X163386Y-220472D01*
X173228Y-230315D01*
X269685Y-230315D01*
X283464Y-216535D01*
X283464Y-208661D01*
X303149Y-188976D01*
X385826Y-188976D01*
X389763Y-192913D01*
X509842Y-192913D01*
X513779Y-196850D01*
X570865Y-196850D01*
X708660Y-194882D02*
X809054Y-94488D01*
X848424Y-94488D01*
X1230313Y-9843D02*
X1230313Y167323D01*
X1253935Y190945D01*
X152400Y241300D02*
X151575Y240157D01*
D14*
X116142Y173228D03*
X114173Y-153543D03*
X570865Y-196850D03*
X708660Y-194882D03*
X848424Y-94488D03*
X1230313Y-9843D03*
X1253935Y190945D03*
D13*
X273622Y255905D02*
X267716Y250000D01*
X273622Y255905D02*
X273622Y324803D01*
X253937Y344488D01*
X253937Y562991D01*
X255905Y564960D01*
X33465Y681101D02*
X21654Y692912D01*
D14*
X267716Y250000D03*
X255905Y564960D03*
X33465Y681101D03*
X21654Y692912D03*
D13*
X153543Y196850D02*
X153543Y179134D01*
X153543Y196850D02*
X171260Y214567D01*
X171260Y222441D01*
X356299Y261811D02*
X375984Y281496D01*
X645668Y277559D02*
X645668Y265748D01*
X661416Y250000D01*
X661416Y226378D01*
X669290Y218504D01*
X779526Y218504D01*
X820865Y250000D02*
X824802Y250000D01*
X850392Y224409D01*
X937006Y224409D01*
X952754Y240157D01*
X1171258Y248031D02*
X1196848Y248031D01*
X1230313Y281496D01*
X153543Y179134D02*
X152400Y177800D01*
D14*
X171260Y222441D03*
X356299Y261811D03*
X375984Y281496D03*
X645668Y277559D03*
X779526Y218504D03*
X820865Y250000D03*
X952754Y240157D03*
X1171258Y248031D03*
X1230313Y281496D03*
D13*
X96457Y334645D02*
X96457Y202756D01*
X96457Y334645D02*
X61024Y370078D01*
X61024Y521653D01*
X-61024Y643700D01*
X-61024Y740156D01*
X-94488Y773621D01*
X-94488Y1039368D01*
X-80709Y1053148D01*
D14*
X96457Y202756D03*
X-80709Y1053148D03*
D13*
X171260Y151575D02*
X261811Y151575D01*
X263779Y149606D01*
X324803Y149606D01*
X393700Y218504D01*
X393700Y407480D01*
X399606Y413385D01*
X427165Y413385D01*
X466535Y452755D01*
X635826Y452755D02*
X637794Y452755D01*
X679133Y411417D01*
X679133Y401574D01*
X734251Y346456D01*
X734251Y224409D01*
X814959Y143701D02*
X814959Y135827D01*
X899605Y51181D01*
X948817Y51181D01*
X972439Y74803D01*
X1019683Y74803D01*
X1033463Y76772D02*
X1049211Y92520D01*
X1049211Y94488D01*
X1086612Y131890D01*
X1106297Y131890D01*
X1242124Y267716D01*
X1257872Y267716D01*
X1297242Y307086D01*
X1295400Y308600D01*
D14*
X171260Y151575D03*
X466535Y452755D03*
X635826Y452755D03*
X734251Y224409D03*
X814959Y143701D03*
X1019683Y74803D03*
X1033463Y76772D03*
D13*
X218504Y194882D02*
X218504Y255905D01*
X212598Y261811D01*
X212598Y289370D01*
X291338Y314960D02*
X291338Y324803D01*
X269685Y346456D01*
X269685Y655511D01*
X253937Y671259D01*
X90551Y897636D02*
X49213Y938975D01*
X-21654Y938975D01*
X-23622Y937006D01*
X-25400Y936000D01*
D14*
X218504Y194882D03*
X212598Y289370D03*
X291338Y314960D03*
X253937Y671259D03*
X90551Y897636D03*
D13*
X210630Y88583D02*
X301181Y88583D01*
X307086Y82677D01*
X478346Y82677D01*
X537401Y23622D01*
X657479Y23622D01*
X659448Y21654D01*
X913384Y-31496D02*
X938975Y-57087D01*
X996061Y-57087D01*
X1190943Y104331D02*
X1190943Y187008D01*
X1236218Y232283D01*
X1263777Y232283D01*
X1277557Y246063D01*
X1277557Y275590D01*
X1293305Y291338D01*
X1301179Y291338D01*
D14*
X210630Y88583D03*
X659448Y21654D03*
X913384Y-31496D03*
X996061Y-57087D03*
X1190943Y104331D03*
X1301179Y291338D03*
D13*
X226378Y253937D02*
X226378Y194882D01*
X226378Y253937D02*
X218504Y261811D01*
X218504Y312992D01*
X183071Y348425D01*
X147638Y348425D01*
X133858Y362204D01*
X94488Y356299D02*
X64961Y385826D01*
X64961Y523621D01*
X-57087Y645668D01*
X-57087Y763778D01*
X-82677Y789369D01*
X-82677Y923227D01*
X-72835Y933069D01*
X-59055Y933069D01*
X-23622Y897636D01*
X-25400Y896000D01*
D14*
X226378Y194882D03*
X133858Y362204D03*
X94488Y356299D03*
D13*
X153543Y-13780D02*
X153543Y-39370D01*
X267716Y-153543D01*
X580708Y-153543D01*
X604330Y-129921D01*
X604330Y-96457D01*
X692912Y-7874D01*
X751967Y-7874D01*
X755904Y-11811D01*
X755904Y-17717D01*
X753936Y-19685D01*
X753936Y-23622D01*
X779526Y-49213D01*
X791337Y-49213D01*
X797243Y-43307D01*
X1236218Y-3937D02*
X1240155Y-7874D01*
X1295273Y-7874D01*
X1334643Y31496D01*
X1342517Y31496D01*
X1364171Y53150D01*
X1364171Y297244D01*
X1358265Y303149D01*
X153543Y-13780D02*
X152400Y-12700D01*
D14*
X797243Y-43307D03*
X1236218Y-3937D03*
X1358265Y303149D03*
D13*
X994093Y1216533D02*
X929132Y1281494D01*
X994093Y1216533D02*
X1011809Y1216533D01*
X1015746Y1212596D01*
X1092518Y1212596D01*
X1202754Y1102360D01*
X1354328Y799211D02*
X1354328Y728345D01*
X1234250Y608267D01*
D14*
X929132Y1281494D03*
X1202754Y1102360D03*
X1354328Y799211D03*
X1234250Y608267D03*
D13*
X633857Y1320864D02*
X614172Y1340549D01*
X580708Y1340549D01*
X521653Y1281494D01*
X291338Y1051179D02*
X291338Y1041337D01*
X277559Y1027557D01*
X45276Y933069D02*
X7874Y933069D01*
X-7874Y917321D01*
X633857Y1320864D02*
X635000Y1320800D01*
D14*
X521653Y1281494D03*
X291338Y1051179D03*
X277559Y1027557D03*
X45276Y933069D03*
X-7874Y917321D03*
D13*
X389763Y1005904D02*
X389763Y1062990D01*
X281496Y643700D02*
X281496Y513779D01*
X232283Y470472D02*
X232283Y322834D01*
X261811Y293307D01*
X261811Y242126D01*
X273622Y230315D01*
X273622Y194882D01*
X348425Y120079D02*
X446850Y120079D01*
X539369Y27559D01*
X663385Y27559D01*
X759841Y-21654D02*
X781495Y-43307D01*
D14*
X389763Y1062990D03*
X389763Y1005904D03*
X281496Y643700D03*
X281496Y513779D03*
X232283Y470472D03*
X273622Y194882D03*
X348425Y120079D03*
X663385Y27559D03*
X759841Y-21654D03*
X781495Y-43307D03*
D13*
X616141Y1238187D02*
X633857Y1255903D01*
X616141Y1238187D02*
X43307Y1238187D01*
X27559Y1253935D01*
X-47244Y1253935D01*
X-64961Y1236218D01*
X633857Y1255903D02*
X635000Y1257300D01*
X-64961Y1236218D02*
X-65400Y1236000D01*
X564960Y1169289D02*
X625983Y1169289D01*
X657479Y1137793D01*
X755904Y1137793D01*
X1226376Y988187D02*
X1226376Y980313D01*
X1192911Y946849D01*
X1192911Y830707D01*
X1230313Y744093D02*
X1246061Y728345D01*
X1350391Y470472D02*
X1350391Y456692D01*
X1352360Y454724D01*
X1352360Y320866D01*
X1336612Y305118D01*
X1328738Y305118D01*
X1318895Y295275D01*
X1318895Y122047D01*
X1334643Y106299D01*
X1342517Y106299D01*
X1352360Y96457D01*
X1352360Y64961D01*
X1336612Y49213D01*
X1335400Y48600D01*
D14*
X564960Y1169289D03*
X755904Y1137793D03*
X1226376Y988187D03*
X1192911Y830707D03*
X1230313Y744093D03*
X1246061Y728345D03*
X1350391Y470472D03*
D13*
X633857Y1192911D02*
X616141Y1175195D01*
X25591Y1175195D01*
X21654Y1179132D01*
X-3937Y1179132D01*
X-19685Y1194880D01*
X-64961Y1194880D01*
X633857Y1192911D02*
X635000Y1193800D01*
X-64961Y1194880D02*
X-65400Y1196000D01*
X722440Y980313D02*
X722440Y944880D01*
X901573Y521653D02*
X927164Y521653D01*
X972439Y476377D01*
X982282Y476377D01*
X992124Y486220D01*
X992124Y507873D01*
X999998Y515747D01*
X1066927Y515747D01*
X1100392Y482283D01*
X1100392Y395669D01*
X1273620Y226378D02*
X1293305Y206693D01*
X1301179Y206693D01*
X1314958Y192913D01*
X1314958Y110236D01*
X1334643Y90551D01*
X1335400Y88600D01*
D14*
X722440Y980313D03*
X722440Y944880D03*
X901573Y521653D03*
X1100392Y395669D03*
X1273620Y226378D03*
D13*
X633857Y1131888D02*
X606298Y1159447D01*
X35433Y1159447D01*
X21654Y1173226D01*
X-3937Y1173226D01*
X-19685Y1157478D01*
X-64961Y1157478D01*
X633857Y1131888D02*
X635000Y1130300D01*
X-64961Y1157478D02*
X-65400Y1156000D01*
X584645Y1066927D02*
X604330Y1086612D01*
X805117Y1086612D01*
X1220470Y954723D02*
X1238187Y937006D01*
X1238187Y870077D01*
X1255903Y852361D01*
X1263777Y852361D01*
X1271651Y844487D01*
X1271651Y781495D01*
X1242124Y751967D01*
X1242124Y740156D01*
X1358265Y257874D02*
X1358265Y151575D01*
X1336612Y129921D01*
X584645Y1066927D02*
X584200Y1066800D01*
X1336612Y129921D02*
X1335400Y128600D01*
D14*
X805117Y1086612D03*
X1220470Y954723D03*
X1242124Y740156D03*
X1358265Y257874D03*
D13*
X566928Y1098423D02*
X521653Y1098423D01*
X480314Y1139762D01*
X236220Y1139762D01*
X194882Y1098423D01*
X3937Y1098423D01*
X1969Y1100392D01*
D14*
X566928Y1098423D03*
X1969Y1100392D03*
D13*
X925195Y783463D02*
X925195Y742125D01*
X907479Y724408D01*
X907479Y679133D01*
X846455Y618109D01*
X844487Y618109D01*
X838581Y488188D02*
X838581Y438976D01*
X866140Y411417D01*
X866140Y385826D01*
X948817Y303149D01*
X952754Y303149D01*
X962597Y293307D01*
X962597Y232283D01*
X974408Y220472D01*
X1116140Y220472D01*
X1127951Y208661D01*
D14*
X925195Y783463D03*
X844487Y618109D03*
X838581Y488188D03*
X1127951Y208661D03*
D13*
X582676Y938975D02*
X511810Y938975D01*
X501968Y765747D02*
X576771Y765747D01*
X578739Y767715D01*
X588582Y767715D01*
X596456Y759841D01*
X677164Y631889D02*
X767715Y541338D01*
X761810Y492125D02*
X791337Y462598D01*
X848424Y405511D02*
X862203Y391732D01*
X862203Y383858D01*
X948817Y297244D01*
X950786Y297244D01*
X1039368Y269685D02*
X1082675Y226378D01*
X584200Y939800D02*
X582676Y938975D01*
D14*
X511810Y938975D03*
X501968Y765747D03*
X596456Y759841D03*
X677164Y631889D03*
X767715Y541338D03*
X761810Y492125D03*
X791337Y462598D03*
X848424Y405511D03*
X950786Y297244D03*
X1039368Y269685D03*
X1082675Y226378D03*
D13*
X635000Y939800D02*
X602361Y972439D01*
X27559Y972439D01*
X21654Y978345D01*
X-3937Y978345D01*
X-23622Y998030D01*
X-31496Y998030D01*
X-64961Y1031494D01*
X-64961Y1035431D01*
X-65400Y1036000D01*
X584645Y877951D02*
X602361Y895668D01*
X614172Y895668D01*
X624015Y885825D01*
X624015Y864172D01*
X631889Y856298D01*
X771652Y856298D01*
X797243Y881888D01*
X903542Y852361D02*
X1005904Y852361D01*
X1015746Y862203D01*
X1019683Y862203D01*
X1043305Y838581D01*
X1051179Y838581D01*
X1088581Y801180D01*
X1088581Y661416D01*
X1165352Y584645D01*
X1226376Y523621D02*
X1226376Y374015D01*
X584200Y876300D02*
X584645Y877951D01*
D14*
X797243Y881888D03*
X903542Y852361D03*
X1165352Y584645D03*
X1226376Y523621D03*
X1226376Y374015D03*
D13*
X633857Y877951D02*
X633857Y881888D01*
X608267Y907479D01*
X86614Y907479D01*
X21654Y972439D01*
X-5906Y972439D01*
X-19685Y958660D01*
X-31496Y958660D01*
X-66929Y994093D01*
X633857Y877951D02*
X635000Y876300D01*
X-65400Y996000D02*
X-66929Y994093D01*
X584645Y811022D02*
X588582Y811022D01*
X608267Y791337D01*
X791337Y791337D01*
X822833Y759841D02*
X897636Y759841D01*
X1098423Y753936D02*
X1098423Y667322D01*
X1151573Y614172D01*
X1265746Y519684D02*
X1265746Y511810D01*
X1277557Y499999D01*
X1277557Y498031D01*
X1299210Y476377D01*
X1352360Y476377D01*
X1356297Y472440D01*
X1356297Y309055D01*
X1336612Y289370D01*
X584645Y811022D02*
X584200Y812800D01*
X1335400Y288600D02*
X1336612Y289370D01*
D14*
X791337Y791337D03*
X822833Y759841D03*
X897636Y759841D03*
X1098423Y753936D03*
X1151573Y614172D03*
X1265746Y519684D03*
D13*
X633857Y812991D02*
X633857Y818896D01*
X606298Y846455D01*
X301181Y846455D01*
X295275Y840550D01*
X74803Y840550D01*
X15748Y899605D01*
X-5906Y899605D01*
X-25591Y919290D01*
X-33465Y919290D01*
X-64961Y950786D01*
X-64961Y954723D01*
X633857Y812991D02*
X635000Y812800D01*
X-64961Y954723D02*
X-65400Y956000D01*
X830707Y537401D02*
X864172Y537401D01*
X870077Y531495D01*
X1147636Y531495D01*
X1165352Y549212D01*
X1165352Y551180D01*
X1261809Y480314D02*
X1283462Y480314D01*
X1314958Y448818D01*
X1314958Y438976D01*
X1316927Y437007D01*
X1316927Y419291D01*
X1314958Y417322D01*
X1314958Y399606D01*
X1318895Y395669D01*
X1318895Y344488D01*
X1334643Y328740D01*
X1335400Y328600D01*
D14*
X830707Y537401D03*
X1165352Y551180D03*
X1261809Y480314D03*
D13*
X608267Y720471D02*
X606298Y720471D01*
X604330Y722440D01*
X68898Y722440D01*
X43307Y748030D01*
X43307Y830707D01*
X15748Y858266D01*
X-3937Y858266D01*
X-23622Y877951D01*
X-31496Y877951D01*
X-64961Y911416D01*
X-64961Y915353D01*
X-65400Y916000D01*
D14*
X608267Y720471D03*
D13*
X716534Y907479D02*
X789369Y907479D01*
X797243Y915353D01*
X1049211Y832676D02*
X1084644Y797243D01*
X1084644Y657479D01*
X1143699Y598424D01*
X1267714Y501968D02*
X1318895Y450787D01*
X1318895Y440944D01*
X1320864Y438976D01*
X1320864Y417322D01*
X1318895Y415354D01*
X1318895Y401574D01*
X1334643Y385826D01*
X1334643Y370078D01*
X1335400Y368600D01*
D14*
X716534Y907479D03*
X797243Y915353D03*
X1049211Y832676D03*
X1143699Y598424D03*
X1267714Y501968D03*
D13*
X633857Y687007D02*
X602361Y718503D01*
X39370Y718503D01*
X-45276Y803148D01*
X-45276Y856298D01*
X-64961Y875983D01*
X633857Y687007D02*
X635000Y685800D01*
X-64961Y875983D02*
X-65400Y876000D01*
X584645Y622046D02*
X584645Y608267D01*
X624015Y568897D01*
X624015Y545275D01*
X629920Y539369D01*
X639763Y539369D01*
X659448Y559054D01*
X659448Y653542D01*
X651574Y661416D01*
X651574Y669290D01*
X692912Y710629D01*
X775589Y710629D01*
X830707Y712597D02*
X877951Y665353D01*
X584645Y622046D02*
X584200Y622300D01*
D14*
X775589Y710629D03*
X830707Y712597D03*
X877951Y665353D03*
D13*
X633857Y624015D02*
X606298Y651574D01*
X444881Y651574D01*
X387795Y868109D02*
X218504Y868109D01*
X204724Y854329D01*
X76772Y854329D01*
X37402Y814959D02*
X-1969Y814959D01*
X-25591Y791337D01*
X-37402Y787400D02*
X-49213Y799211D01*
X-49213Y818896D01*
X-64961Y834644D01*
X633857Y624015D02*
X635000Y622300D01*
X-64961Y834644D02*
X-65400Y836000D01*
D14*
X444881Y651574D03*
X387795Y868109D03*
X76772Y854329D03*
X37402Y814959D03*
X-25591Y791337D03*
X-37402Y787400D03*
D13*
X690944Y641731D02*
X736219Y641731D01*
X781495Y596456D01*
X830707Y545275D02*
X862203Y545275D01*
X872046Y535432D01*
X1143699Y535432D01*
X1153541Y545275D01*
D14*
X690944Y641731D03*
X781495Y596456D03*
X830707Y545275D03*
X1153541Y545275D03*
D13*
X655511Y578739D02*
X635826Y559054D01*
X655511Y578739D02*
X655511Y637794D01*
X625983Y667322D01*
X568897Y667322D01*
X521653Y714566D01*
X29528Y714566D01*
X-37402Y781495D01*
X-51181Y781495D01*
X-64961Y795274D01*
X635000Y558800D02*
X635826Y559054D01*
X-64961Y795274D02*
X-65400Y796000D01*
X584645Y496062D02*
X608267Y519684D01*
X820865Y519684D01*
X828739Y527558D01*
X1149604Y527558D01*
X1171258Y549212D01*
X1171258Y712597D01*
X1253935Y795274D01*
X584645Y496062D02*
X584200Y495300D01*
X1253935Y795274D02*
X1255400Y796000D01*
X582676Y458661D02*
X582676Y433070D01*
X582676Y458661D02*
X566928Y474409D01*
X622046Y476377D02*
X663385Y476377D01*
X696849Y509842D01*
X702755Y509842D01*
X777558Y584645D02*
X793306Y600393D01*
X824802Y600393D02*
X915353Y600393D01*
X942912Y627952D01*
X942912Y633857D01*
X976376Y667322D01*
X1043305Y667322D01*
X584200Y431800D02*
X582676Y433070D01*
D14*
X566928Y474409D03*
X622046Y476377D03*
X702755Y509842D03*
X777558Y584645D03*
X793306Y600393D03*
X824802Y600393D03*
X1043305Y667322D03*
D13*
X614172Y399606D02*
X584645Y370078D01*
X645668Y458661D02*
X659448Y472440D01*
X679133Y472440D01*
X698818Y492125D01*
X787400Y566928D02*
X787400Y570865D01*
X801180Y584645D01*
X822833Y590550D02*
X828739Y596456D01*
X917321Y596456D01*
X946849Y625983D01*
X946849Y629920D01*
X974408Y657479D01*
X1175195Y791337D02*
X1224407Y840550D01*
X584645Y370078D02*
X584200Y368300D01*
D14*
X614172Y399606D03*
X645668Y458661D03*
X698818Y492125D03*
X787400Y566928D03*
X801180Y584645D03*
X822833Y590550D03*
X974408Y657479D03*
X1175195Y791337D03*
X1224407Y840550D03*
D13*
X90551Y348425D02*
X70866Y368110D01*
D14*
X90551Y348425D03*
X70866Y368110D03*
D13*
X584645Y303149D02*
X602361Y285433D01*
X639763Y285433D01*
X647637Y293307D01*
X647637Y295275D01*
X893699Y374015D02*
X899605Y379921D01*
X899605Y458661D01*
X889762Y468503D01*
X889762Y513779D01*
X946849Y614172D02*
X976376Y643700D01*
X1035431Y643700D01*
X1070864Y679133D01*
X1169289Y777558D02*
X1169289Y793306D01*
X1214565Y838581D01*
X1214565Y956691D01*
X1218502Y960628D01*
X1222439Y960628D01*
X1253935Y929132D01*
X1253935Y917321D01*
X584200Y304800D02*
X584645Y303149D01*
X1253935Y917321D02*
X1255400Y916000D01*
D14*
X647637Y295275D03*
X893699Y374015D03*
X889762Y513779D03*
X946849Y614172D03*
X1070864Y679133D03*
X1169289Y777558D03*
D13*
X633857Y305118D02*
X590550Y348425D01*
X578739Y348425D01*
X574802Y352362D01*
X340551Y354330D02*
X340551Y344488D01*
X301181Y305118D01*
X301181Y285433D01*
X633857Y305118D02*
X635000Y304800D01*
D14*
X574802Y352362D03*
X340551Y354330D03*
X301181Y285433D03*
D13*
X472440Y261811D02*
X472440Y488188D01*
X517716Y663385D02*
X517716Y702755D01*
X555117Y990156D02*
X543306Y1001967D01*
X543306Y1011809D01*
X574802Y1043305D01*
X594487Y1043305D01*
X958660Y998030D02*
X992124Y964565D01*
X1007872Y964565D01*
D14*
X472440Y261811D03*
X472440Y488188D03*
X517716Y663385D03*
X517716Y702755D03*
X555117Y990156D03*
X594487Y1043305D03*
X958660Y998030D03*
X1007872Y964565D03*
D13*
X582676Y179134D02*
X562991Y179134D01*
X549212Y192913D01*
X547243Y192913D01*
X529527Y210630D01*
X529527Y375984D01*
X523621Y381889D01*
X523621Y480314D01*
X555117Y511810D01*
X570865Y527558D02*
X647637Y527558D01*
X702755Y582676D01*
X761810Y641731D02*
X761810Y647637D01*
X797243Y683070D01*
X797243Y718503D01*
X816928Y726377D02*
X816928Y763778D01*
X897636Y844487D01*
X897636Y854329D01*
X907479Y864172D01*
X937006Y864172D01*
X990156Y917321D01*
X1118108Y917321D01*
X1181100Y980313D01*
X1181100Y982282D01*
X582676Y179134D02*
X584200Y177800D01*
D14*
X555117Y511810D03*
X570865Y527558D03*
X702755Y582676D03*
X761810Y641731D03*
X797243Y718503D03*
X816928Y726377D03*
X1181100Y982282D03*
D13*
X588582Y116142D02*
X584645Y116142D01*
X588582Y116142D02*
X606298Y133858D01*
X734251Y127953D02*
X807085Y200787D01*
X842518Y271653D02*
X842518Y429133D01*
X830707Y440944D01*
X830707Y505905D01*
X812991Y541338D02*
X812991Y551180D01*
X816928Y555117D01*
X816928Y618109D01*
X842518Y643700D01*
X866140Y643700D01*
X903542Y681101D01*
X903542Y769684D01*
X972439Y838581D01*
X1021652Y838581D01*
X1114171Y952754D02*
X1188974Y1027557D01*
X584645Y116142D02*
X584200Y114300D01*
D14*
X606298Y133858D03*
X734251Y127953D03*
X807085Y200787D03*
X842518Y271653D03*
X830707Y505905D03*
X812991Y541338D03*
X1021652Y838581D03*
X1114171Y952754D03*
X1188974Y1027557D03*
D13*
X604330Y145669D02*
X633857Y116142D01*
X604330Y145669D02*
X108268Y145669D01*
X104331Y141732D01*
X80709Y141732D01*
X15748Y206693D01*
X633857Y116142D02*
X635000Y114300D01*
X15748Y206693D02*
X14600Y208600D01*
X584645Y51181D02*
X616141Y82677D01*
X643700Y82677D01*
X659448Y98425D01*
X665353Y98425D01*
X974408Y94488D02*
X1043305Y94488D01*
X1084644Y135827D01*
X1100392Y135827D01*
X1175195Y210630D01*
X1177163Y289370D02*
X1177163Y460629D01*
X1192911Y476377D02*
X1192911Y525590D01*
X1208659Y541338D01*
X1208659Y602361D01*
X1340549Y734251D01*
X1340549Y777558D01*
X584645Y51181D02*
X584200Y50800D01*
D14*
X665353Y98425D03*
X974408Y94488D03*
X1175195Y210630D03*
X1177163Y289370D03*
X1177163Y460629D03*
X1192911Y476377D03*
X1340549Y777558D03*
D13*
X484251Y31496D02*
X456692Y31496D01*
X409448Y78740D01*
X210630Y78740D01*
X194882Y94488D01*
X88583Y94488D01*
X15748Y167323D01*
X14600Y168600D01*
D14*
X484251Y31496D03*
D13*
X584645Y-13780D02*
X602361Y-31496D01*
X639763Y-31496D01*
X645668Y-25591D01*
X645668Y17717D01*
X677164Y49213D02*
X677164Y175197D01*
X1037400Y352362D02*
X1070864Y352362D01*
X1141730Y423228D01*
X1141730Y507873D01*
X1181100Y547243D01*
X1181100Y706692D01*
X1175195Y830707D02*
X1175195Y915353D01*
X1167321Y923227D01*
X1167321Y948817D01*
X1234250Y1015746D01*
X1234250Y1070864D01*
X1238187Y1074801D01*
X584200Y-12700D02*
X584645Y-13780D01*
D14*
X645668Y17717D03*
X677164Y49213D03*
X677164Y175197D03*
X1037400Y352362D03*
X1181100Y706692D03*
X1175195Y830707D03*
X1238187Y1074801D03*
D13*
X602361Y19685D02*
X633857Y-11811D01*
X602361Y19685D02*
X462598Y19685D01*
X407480Y74803D01*
X208661Y74803D01*
X192913Y90551D01*
X53150Y90551D01*
X15748Y127953D01*
X633857Y-11811D02*
X635000Y-12700D01*
X15748Y127953D02*
X14600Y128600D01*
X978345Y1318895D02*
X982282Y1318895D01*
X1025589Y1275588D01*
X1192911Y1275588D01*
X1255903Y1212596D01*
X1261809Y1212596D01*
X1271651Y1202754D01*
X1271651Y1173226D01*
X1255903Y1157478D01*
X978345Y1318895D02*
X977900Y1320800D01*
X1255903Y1157478D02*
X1255400Y1156000D01*
X-1969Y1106297D02*
X-7874Y1100392D01*
X-7874Y1090549D01*
X-25591Y1072833D01*
X-45276Y1072833D01*
X-64961Y1053148D01*
X-72835Y1053148D01*
X-90551Y1035431D01*
X-90551Y777558D01*
X-72835Y759841D01*
X-51181Y681101D02*
X-51181Y647637D01*
X-76772Y625983D02*
X-76772Y486220D01*
X-76772Y188976D02*
X-57087Y188976D01*
X-55118Y190945D01*
X-31496Y167323D02*
X-19685Y167323D01*
X-3937Y151575D01*
X-3937Y118110D01*
D14*
X-1969Y1106297D03*
X-72835Y759841D03*
X-51181Y681101D03*
X-51181Y647637D03*
X-76772Y625983D03*
X-76772Y486220D03*
X-76772Y188976D03*
X-55118Y190945D03*
X-31496Y167323D03*
X-3937Y118110D03*
D13*
X1017715Y1216533D02*
X978345Y1255903D01*
X1017715Y1216533D02*
X1234250Y1216533D01*
X1253935Y1196848D01*
X978345Y1255903D02*
X977900Y1257300D01*
X1253935Y1196848D02*
X1255400Y1196000D01*
X1220470Y-51181D02*
X1220470Y-202756D01*
X1226376Y-208661D01*
X1226376Y-224409D01*
X1206691Y-244094D01*
X143701Y-271653D02*
X114173Y-271653D01*
X98425Y-255905D01*
X98425Y-248031D01*
X80709Y-230315D01*
X53150Y-230315D01*
X43307Y-220472D01*
X43307Y-145669D01*
D14*
X1220470Y-51181D03*
X1206691Y-244094D03*
X143701Y-271653D03*
X43307Y-145669D03*
D13*
X1027557Y1194880D02*
X1009841Y1212596D01*
X877951Y1212596D01*
X478346Y1133856D02*
X236220Y1133856D01*
X194882Y1092518D01*
X7874Y1092518D01*
X-1969Y1082675D01*
X-1969Y1055116D01*
X-29528Y765747D02*
X-17717Y753936D01*
X-15748Y753936D01*
X11811Y726377D01*
X11811Y588582D01*
X102362Y498031D01*
X116142Y498031D01*
X125984Y507873D01*
X129921Y507873D01*
X133858Y503936D01*
X133858Y499999D01*
X110236Y476377D01*
X110236Y316929D01*
X102362Y309055D01*
X102362Y147638D01*
X72835Y21654D02*
X70866Y21654D01*
X68898Y19685D01*
X45276Y19685D01*
X43307Y21654D01*
X27559Y21654D01*
X15748Y9843D01*
X1028700Y1193800D02*
X1027557Y1194880D01*
X15748Y9843D02*
X14600Y8600D01*
D14*
X877951Y1212596D03*
X478346Y1133856D03*
X-1969Y1055116D03*
X-29528Y765747D03*
X102362Y147638D03*
X72835Y21654D03*
D13*
X1021652Y1086612D02*
X978345Y1129919D01*
X1021652Y1086612D02*
X1033463Y1086612D01*
X1088581Y1031494D01*
X1088581Y944880D01*
X1092518Y940943D01*
X1098423Y940943D01*
X1234250Y866140D02*
X1246061Y854329D01*
X978345Y1129919D02*
X977900Y1130300D01*
D14*
X1098423Y940943D03*
X1234250Y866140D03*
X1246061Y854329D03*
D13*
X517716Y1165352D02*
X183071Y1165352D01*
X33465Y1070864D02*
X15748Y1053148D01*
X3937Y1053148D01*
X-15748Y1033463D01*
X-31496Y1033463D01*
X-45276Y1019683D01*
X-80709Y685038D02*
X-88583Y677164D01*
X-88583Y610235D01*
X-15748Y454724D02*
X-15748Y437007D01*
X-23622Y429133D01*
X-25400Y428600D01*
D14*
X517716Y1165352D03*
X183071Y1165352D03*
X33465Y1070864D03*
X-45276Y1019683D03*
X-80709Y685038D03*
X-88583Y610235D03*
X-15748Y454724D03*
D13*
X984250Y1110234D02*
X1027557Y1066927D01*
X984250Y1110234D02*
X877951Y1110234D01*
X700786Y1110234D02*
X586613Y1110234D01*
X521653Y1045274D01*
X383858Y1045274D02*
X332677Y994093D01*
X297244Y704723D02*
X279527Y704723D01*
X220472Y645668D01*
X220472Y509842D01*
X-9843Y468503D02*
X-43307Y435039D01*
X-43307Y407480D01*
X-25591Y389763D01*
X1027557Y1066927D02*
X1028700Y1066800D01*
X-25591Y389763D02*
X-25400Y388600D01*
D14*
X877951Y1110234D03*
X700786Y1110234D03*
X521653Y1045274D03*
X383858Y1045274D03*
X332677Y994093D03*
X297244Y704723D03*
X220472Y509842D03*
X-9843Y468503D03*
D13*
X978345Y1001967D02*
X1017715Y962597D01*
X1059053Y962597D01*
X1090549Y931101D01*
X1124014Y931101D01*
X978345Y1001967D02*
X977900Y1003300D01*
D14*
X1124014Y931101D03*
D13*
X598424Y1149604D02*
X545275Y1149604D01*
X541338Y1153541D01*
X35433Y1153541D01*
X15748Y1133856D01*
X-3937Y1133856D01*
X-25591Y1112203D01*
X-45276Y1112203D01*
X-64961Y1092518D01*
X-72835Y1092518D01*
X-98425Y1066927D01*
X-98425Y710629D01*
X-64961Y677164D01*
X-64961Y624015D01*
X-3937Y562991D01*
X-3937Y427165D01*
X-9843Y421259D01*
X-9843Y397637D01*
X-7874Y395669D01*
X-7874Y366141D01*
X-23622Y350393D01*
X-25400Y348600D01*
D14*
X598424Y1149604D03*
D13*
X1009841Y921258D02*
X1027557Y938975D01*
X1009841Y921258D02*
X938975Y921258D01*
X907479Y889762D01*
X840550Y889762D01*
X828739Y877951D01*
X783463Y895668D02*
X627952Y895668D01*
X529527Y771652D02*
X423228Y771652D01*
X383858Y732282D01*
X375984Y732282D01*
X366141Y622046D02*
X348425Y622046D01*
X334645Y635826D01*
X53150Y498031D02*
X53150Y425196D01*
X41339Y413385D01*
X41339Y372047D01*
X19685Y350393D01*
X3937Y350393D01*
X-15748Y330708D01*
X1027557Y938975D02*
X1028700Y939800D01*
D14*
X828739Y877951D03*
X783463Y895668D03*
X627952Y895668D03*
X529527Y771652D03*
X375984Y732282D03*
X366141Y622046D03*
X334645Y635826D03*
X53150Y498031D03*
X-15748Y330708D03*
D13*
X978345Y877951D02*
X1009841Y909447D01*
X1135825Y909447D01*
X1157478Y931101D01*
X1263777Y933069D02*
X1263777Y940943D01*
X1297242Y974408D01*
X978345Y877951D02*
X977900Y876300D01*
X1295400Y976000D02*
X1297242Y974408D01*
D14*
X1157478Y931101D03*
X1263777Y933069D03*
D13*
X724408Y994093D02*
X649605Y994093D01*
X635826Y980313D01*
X460629Y980313D01*
X458661Y982282D01*
X393700Y767715D02*
X358267Y732282D01*
X269685Y732282D01*
X269685Y702755D02*
X214567Y647637D01*
X214567Y610235D01*
X188976Y584645D01*
X155512Y584645D01*
X53150Y505905D02*
X35433Y488188D01*
X35433Y405511D01*
D14*
X724408Y994093D03*
X458661Y982282D03*
X393700Y767715D03*
X269685Y732282D03*
X269685Y702755D03*
X155512Y584645D03*
X53150Y505905D03*
X35433Y405511D03*
D13*
X1100392Y854329D02*
X1100392Y866140D01*
X1157478Y923227D01*
X1177163Y927164D02*
X1177163Y946849D01*
X1246061Y1015746D01*
X1295273Y1015746D01*
X1295400Y1016000D01*
D14*
X1100392Y854329D03*
X1157478Y923227D03*
X1177163Y927164D03*
D13*
X907479Y870077D02*
X875983Y838581D01*
X875983Y830707D01*
X842518Y797243D01*
X714566Y771652D02*
X673227Y730314D01*
X562991Y730314D01*
X559054Y734251D01*
X507873Y734251D01*
X501968Y728345D01*
X336614Y482283D02*
X336614Y395669D01*
X291338Y350393D01*
X76772Y287401D02*
X76772Y240157D01*
X51181Y214567D01*
X33465Y214567D01*
D14*
X907479Y870077D03*
X842518Y797243D03*
X714566Y771652D03*
X501968Y728345D03*
X336614Y482283D03*
X291338Y350393D03*
X76772Y287401D03*
X33465Y214567D03*
D13*
X976376Y749999D02*
X976376Y791337D01*
X940943Y858266D02*
X940943Y862203D01*
X992124Y913384D01*
X1120077Y913384D01*
X1194880Y988187D01*
X1194880Y1039368D01*
X1253935Y1098423D01*
X1273620Y1098423D01*
X1287399Y1112203D01*
X1303147Y1112203D01*
X1312990Y1102360D01*
X1312990Y1072833D01*
X1297242Y1057085D01*
X977900Y749300D02*
X976376Y749999D01*
X1295400Y1056000D02*
X1297242Y1057085D01*
D14*
X976376Y791337D03*
X940943Y858266D03*
D13*
X870077Y836613D02*
X856298Y850392D01*
X854329Y850392D01*
X775589Y852361D02*
X612204Y852361D01*
X608267Y856298D01*
X401574Y856298D01*
X127953Y501968D02*
X98425Y472440D01*
X98425Y368110D01*
X43307Y312992D02*
X43307Y253937D01*
X15748Y226378D01*
X7874Y226378D01*
X-23622Y194882D01*
X-23622Y188976D01*
X-25400Y188600D01*
D14*
X870077Y836613D03*
X854329Y850392D03*
X775589Y852361D03*
X401574Y856298D03*
X127953Y501968D03*
X98425Y368110D03*
X43307Y312992D03*
D13*
X1135825Y783463D02*
X1181100Y828739D01*
X1181100Y915353D01*
X1171258Y925195D01*
X1171258Y946849D01*
X1238187Y1013778D01*
X1238187Y1043305D01*
X1253935Y1059053D01*
X1261809Y1059053D01*
X1297242Y1094486D01*
X1295400Y1096000D01*
D14*
X1135825Y783463D03*
D13*
X842518Y736219D02*
X822833Y736219D01*
X777558Y781495D02*
X771652Y787400D01*
X582676Y787400D01*
X551180Y818896D01*
X535432Y818896D02*
X462598Y818896D01*
X438976Y842518D01*
X303149Y842518D01*
X295275Y834644D01*
X244094Y834644D01*
X232283Y846455D02*
X76772Y846455D01*
X68898Y854329D01*
X-70866Y675196D02*
X-70866Y474409D01*
D14*
X842518Y736219D03*
X822833Y736219D03*
X777558Y781495D03*
X551180Y818896D03*
X535432Y818896D03*
X244094Y834644D03*
X232283Y846455D03*
X68898Y854329D03*
X-70866Y675196D03*
X-70866Y474409D03*
D13*
X996061Y590550D02*
X1027557Y622046D01*
X996061Y590550D02*
X830707Y590550D01*
X631889Y846455D02*
X612204Y846455D01*
X608267Y850392D01*
X297244Y850392D01*
X293307Y846455D01*
X236220Y622046D02*
X236220Y474409D01*
X238189Y472440D01*
X238189Y338582D01*
X84646Y287401D02*
X84646Y224409D01*
X45276Y185039D01*
X1027557Y622046D02*
X1028700Y622300D01*
D14*
X830707Y590550D03*
X631889Y846455D03*
X293307Y846455D03*
X236220Y622046D03*
X238189Y338582D03*
X84646Y287401D03*
X45276Y185039D03*
D13*
X1135825Y651574D02*
X1135825Y775589D01*
X1187006Y826770D01*
X1187006Y915353D01*
X1198817Y927164D02*
X1198817Y946849D01*
X1230313Y978345D01*
X1273620Y978345D01*
X1293305Y998030D01*
X1301179Y998030D01*
X1316927Y1013778D01*
X1316927Y1155510D01*
X1297242Y1175195D01*
X1295400Y1176000D01*
D14*
X1135825Y651574D03*
X1187006Y915353D03*
X1198817Y927164D03*
D13*
X1007872Y578739D02*
X1027557Y559054D01*
X1007872Y578739D02*
X911416Y578739D01*
X874014Y541338D01*
X856298Y515747D02*
X820865Y515747D01*
X797243Y492125D01*
X797243Y429133D01*
X736219Y368110D01*
X681101Y320866D02*
X627952Y267716D01*
X584645Y267716D01*
X570865Y253937D01*
X549212Y232283D02*
X549212Y198819D01*
X409448Y139764D02*
X360236Y139764D01*
X309055Y88583D01*
X251968Y5906D02*
X232283Y5906D01*
X228346Y9843D01*
X37402Y9843D01*
X1027557Y559054D02*
X1028700Y558800D01*
D14*
X874014Y541338D03*
X856298Y515747D03*
X736219Y368110D03*
X681101Y320866D03*
X570865Y253937D03*
X549212Y232283D03*
X549212Y198819D03*
X409448Y139764D03*
X309055Y88583D03*
X251968Y5906D03*
X37402Y9843D03*
D13*
X978345Y496062D02*
X978345Y499999D01*
X1001967Y523621D01*
X1151573Y523621D01*
X1175195Y547243D01*
X1175195Y708660D01*
X1194880Y728345D01*
X1238187Y728345D01*
X1352360Y704723D02*
X1368108Y720471D01*
X1368108Y1147636D01*
X1336612Y1179132D01*
X1328738Y1179132D01*
X1297242Y1210628D01*
X1297242Y1214565D01*
X978345Y496062D02*
X977900Y495300D01*
X1297242Y1214565D02*
X1295400Y1216000D01*
D14*
X1238187Y728345D03*
X1352360Y704723D03*
D13*
X1027557Y494094D02*
X1009841Y476377D01*
X988187Y476377D01*
X952754Y440944D01*
X952754Y387795D01*
X116142Y309055D02*
X116142Y181102D01*
X66929Y25591D02*
X-21654Y25591D01*
X-23622Y27559D01*
X1027557Y494094D02*
X1028700Y495300D01*
X-23622Y27559D02*
X-25400Y28600D01*
D14*
X952754Y387795D03*
X116142Y309055D03*
X116142Y181102D03*
X66929Y25591D03*
D13*
X978345Y431102D02*
X996061Y413385D01*
X1033463Y413385D01*
X1059053Y438976D01*
X1059053Y450787D01*
X1151573Y494094D02*
X1151573Y501968D01*
X1196848Y547243D01*
X1196848Y665353D01*
X1326769Y795274D01*
X1334643Y795274D01*
X977900Y431800D02*
X978345Y431102D01*
X1334643Y795274D02*
X1335400Y796000D01*
D14*
X1059053Y450787D03*
X1151573Y494094D03*
D13*
X1027557Y433070D02*
X990156Y470472D01*
X864172Y649605D02*
X816928Y649605D01*
X773621Y667322D02*
X669290Y667322D01*
X622046Y657479D02*
X429133Y657479D01*
X375984Y710629D01*
X251968Y710629D01*
X187008Y645668D01*
X90551Y645668D01*
X29528Y584645D01*
X-15748Y564960D02*
X-61024Y519684D01*
X-61024Y452755D01*
X-64961Y448818D01*
X1027557Y433070D02*
X1028700Y431800D01*
X-64961Y448818D02*
X-65400Y448600D01*
D14*
X990156Y470472D03*
X864172Y649605D03*
X816928Y649605D03*
X773621Y667322D03*
X669290Y667322D03*
X622046Y657479D03*
X29528Y584645D03*
X-15748Y564960D03*
D13*
X978345Y370078D02*
X982282Y370078D01*
X1021652Y409448D01*
X1035431Y409448D01*
X1064959Y438976D01*
X1064959Y509842D01*
X1064959Y618109D02*
X1064959Y661416D01*
X1070864Y667322D01*
X1169289Y765747D02*
X1210628Y765747D01*
X1224407Y779526D01*
X978345Y370078D02*
X977900Y368300D01*
D14*
X1064959Y509842D03*
X1064959Y618109D03*
X1070864Y667322D03*
X1169289Y765747D03*
X1224407Y779526D03*
D13*
X893699Y381889D02*
X885825Y381889D01*
X881888Y385826D01*
X417322Y348425D02*
X417322Y267716D01*
X411417Y261811D01*
X49213Y261811D02*
X49213Y316929D01*
X19685Y346456D01*
X7874Y346456D01*
X-13780Y324803D01*
X-25591Y324803D01*
X-49213Y348425D01*
X-49213Y391732D01*
X-64961Y407480D01*
X-65400Y408600D01*
D14*
X893699Y381889D03*
X881888Y385826D03*
X417322Y348425D03*
X411417Y261811D03*
X49213Y261811D03*
D13*
X978345Y305118D02*
X1019683Y346456D01*
X1106297Y346456D01*
X1131888Y372047D01*
X1232281Y395669D02*
X1232281Y592519D01*
X1364171Y724408D01*
X1364171Y848424D01*
X1336612Y875983D01*
X978345Y305118D02*
X977900Y304800D01*
X1335400Y876000D02*
X1336612Y875983D01*
D14*
X1131888Y372047D03*
X1232281Y395669D03*
D13*
X1029526Y336614D02*
X1029526Y305118D01*
X781495Y421259D02*
X685038Y421259D01*
X651574Y454724D01*
X29528Y431102D02*
X7874Y431102D01*
X-3937Y419291D01*
X1028700Y304800D02*
X1029526Y305118D01*
D14*
X1029526Y336614D03*
X781495Y421259D03*
X651574Y454724D03*
X29528Y431102D03*
X-3937Y419291D03*
D13*
X976376Y283464D02*
X976376Y242126D01*
X976376Y283464D02*
X966534Y293307D01*
X966534Y316929D01*
X998030Y348425D01*
X1007872Y348425D01*
X1017715Y358267D01*
X1017715Y381889D01*
X1023620Y387795D01*
X1059053Y387795D01*
X1068896Y377952D01*
X1090549Y377952D01*
X1135825Y423228D01*
X1135825Y494094D01*
X1151573Y509842D02*
X1192911Y551180D01*
X1192911Y667322D01*
X1314958Y789369D01*
X1314958Y895668D01*
X1334643Y915353D01*
X976376Y242126D02*
X977900Y241300D01*
X1334643Y915353D02*
X1335400Y916000D01*
D14*
X1135825Y494094D03*
X1151573Y509842D03*
D13*
X929132Y230315D02*
X850392Y230315D01*
X814959Y265748D01*
X35433Y314960D02*
X25591Y314960D01*
X15748Y305118D01*
X-5906Y305118D01*
X-19685Y291338D01*
X-31496Y291338D01*
X-66929Y326771D01*
X-65400Y328600D01*
D14*
X929132Y230315D03*
X814959Y265748D03*
X35433Y314960D03*
D13*
X1102360Y253937D02*
X1127951Y253937D01*
X1171258Y265748D02*
X1187006Y281496D01*
X1187006Y525590D01*
X1204722Y543306D01*
X1204722Y659448D01*
X1259840Y714566D01*
X1259840Y748030D02*
X1309053Y797243D01*
D14*
X1102360Y253937D03*
X1127951Y253937D03*
X1171258Y265748D03*
X1259840Y714566D03*
X1259840Y748030D03*
X1309053Y797243D03*
D13*
X1027557Y177165D02*
X1009841Y159449D01*
X968502Y159449D01*
X915353Y212598D01*
X818896Y212598D01*
X765747Y265748D01*
X765747Y277559D01*
X464566Y324803D02*
X448818Y324803D01*
X419291Y354330D01*
X405511Y354330D01*
X348425Y354330D02*
X348425Y346456D01*
X311023Y309055D01*
X311023Y265748D01*
X3937Y267716D02*
X0Y267716D01*
X-19685Y287401D01*
X-64961Y287401D01*
X1027557Y177165D02*
X1028700Y177800D01*
X-64961Y287401D02*
X-65400Y288600D01*
D14*
X765747Y277559D03*
X464566Y324803D03*
X405511Y354330D03*
X348425Y354330D03*
X311023Y265748D03*
X3937Y267716D03*
D13*
X978345Y116142D02*
X982282Y116142D01*
X1013778Y147638D01*
X1098423Y147638D01*
X1133856Y183071D01*
X1133856Y366141D01*
X1145667Y377952D01*
X1145667Y480314D01*
X1169289Y503936D01*
X1157478Y655511D02*
X1157478Y787400D01*
X1208659Y838581D01*
X1208659Y893699D01*
X1263777Y899605D02*
X1277557Y913384D01*
X1277557Y942912D01*
X1293305Y958660D01*
X1301179Y958660D01*
X1336612Y994093D01*
X978345Y116142D02*
X977900Y114300D01*
X1336612Y994093D02*
X1335400Y996000D01*
D14*
X1169289Y503936D03*
X1157478Y655511D03*
X1208659Y893699D03*
X1263777Y899605D03*
D13*
X602361Y139764D02*
X586613Y139764D01*
X570865Y124016D01*
X570865Y116142D01*
X401574Y57087D02*
X232283Y57087D01*
X206693Y31496D01*
X74803Y31496D01*
X35433Y70866D01*
X-3937Y70866D01*
X-23622Y90551D01*
X-31496Y90551D01*
X-49213Y108268D01*
X-49213Y135827D01*
X-64961Y151575D01*
X-72835Y151575D01*
X-82677Y161417D01*
X-82677Y232283D01*
X-66929Y248031D01*
X-65400Y248600D01*
D14*
X602361Y139764D03*
X570865Y116142D03*
X401574Y57087D03*
D13*
X1098423Y141732D02*
X1165352Y208661D01*
X1165352Y267716D01*
X1183069Y285433D01*
X1183069Y527558D01*
X1200785Y545275D01*
X1200785Y663385D01*
X1263777Y726377D01*
X1265746Y726377D01*
X1265746Y761810D02*
X1265746Y769684D01*
X1277557Y781495D01*
X1277557Y901573D01*
X1295273Y919290D01*
X1303147Y919290D01*
X1318895Y935038D01*
X1318895Y962597D01*
X1334643Y978345D01*
X1342517Y978345D01*
X1352360Y988187D01*
X1352360Y1019683D01*
X1336612Y1035431D01*
X1335400Y1036000D01*
D14*
X1098423Y141732D03*
X1265746Y726377D03*
X1265746Y761810D03*
D13*
X988187Y29528D02*
X982282Y23622D01*
X814959Y23622D01*
X415354Y-27559D02*
X336614Y51181D01*
X324803Y62992D02*
X214567Y62992D01*
X190945Y86614D01*
X49213Y86614D01*
X43307Y92520D01*
D14*
X988187Y29528D03*
X814959Y23622D03*
X415354Y-27559D03*
X336614Y51181D03*
X324803Y62992D03*
X43307Y92520D03*
D13*
X942912Y-62992D02*
X990156Y-110236D01*
X1167321Y-62992D02*
X1167321Y-25591D01*
X1185037Y-7874D01*
X1185037Y190945D01*
X1188974Y194882D01*
X1173226Y283464D02*
X1169289Y287401D01*
X1169289Y450787D01*
X1129919Y464566D02*
X1129919Y517716D01*
X1135825Y643700D02*
X1137793Y643700D01*
X1135825Y643700D02*
X1129919Y649605D01*
X1129919Y887794D01*
X1163384Y921258D01*
X1163384Y950786D01*
X1200785Y988187D01*
X1200785Y1037400D01*
D14*
X942912Y-62992D03*
X990156Y-110236D03*
X1167321Y-62992D03*
X1188974Y194882D03*
X1173226Y283464D03*
X1169289Y450787D03*
X1129919Y464566D03*
X1129919Y517716D03*
X1137793Y643700D03*
X1200785Y1037400D03*
D13*
X1029526Y-13780D02*
X1029526Y-37402D01*
X1033463Y-41339D01*
X1033463Y-45276D01*
X1029526Y-49213D01*
X1001967Y-49213D01*
X999998Y-47244D01*
X942912Y-47244D01*
X907479Y-11811D01*
X907479Y13780D01*
X903542Y17717D01*
X811022Y17717D01*
X755904Y-1969D02*
X687007Y-1969D01*
X598424Y-90551D01*
X503936Y-167323D02*
X259842Y-167323D01*
X106299Y-13780D01*
X96457Y-13780D01*
X78740Y49213D02*
X15748Y112205D01*
X-5906Y112205D01*
X-25591Y131890D01*
X-33465Y131890D01*
X-64961Y163386D01*
X-64961Y167323D01*
X1028700Y-12700D02*
X1029526Y-13780D01*
X-64961Y167323D02*
X-65400Y168600D01*
D14*
X811022Y17717D03*
X755904Y-1969D03*
X598424Y-90551D03*
X503936Y-167323D03*
X96457Y-13780D03*
X78740Y49213D03*
D13*
X442913Y-49213D02*
X520700Y-127000D01*
X442913Y-49213D02*
X442913Y-29528D01*
X429133Y-15748D01*
X509842Y64961D02*
X509842Y102362D01*
X547243Y139764D01*
X553149Y139764D01*
X555117Y194882D02*
X555117Y356299D01*
X529527Y381889D01*
X529527Y478346D01*
X665353Y627952D02*
X665353Y653542D01*
X655511Y663385D01*
X655511Y667322D01*
X692912Y704723D01*
X722440Y704723D01*
X728345Y797243D02*
X667322Y797243D01*
X728345Y797243D02*
X803148Y872046D01*
X803148Y925195D01*
X801180Y927164D01*
X903542Y937006D02*
X903542Y952754D01*
X972439Y1021652D01*
X1033463Y1021652D01*
X1084644Y970471D01*
X1084644Y942912D01*
X1092518Y935038D01*
X1100392Y935038D01*
X1108266Y942912D01*
X1108266Y992124D01*
X1249998Y1133856D01*
X1273620Y1133856D01*
X1289368Y1118108D01*
X1305116Y1118108D01*
X1311021Y1124014D01*
D14*
X429133Y-15748D03*
X509842Y64961D03*
X553149Y139764D03*
X555117Y194882D03*
X529527Y478346D03*
X665353Y627952D03*
X722440Y704723D03*
X667322Y797243D03*
X801180Y927164D03*
X903542Y937006D03*
X1311021Y1124014D03*
D13*
X316929Y19685D02*
X411417Y-74803D01*
X316929Y19685D02*
X78740Y19685D01*
X74803Y15748D01*
X41339Y15748D01*
D14*
X411417Y-74803D03*
X41339Y15748D03*
D13*
X568897Y-125984D02*
X582676Y-125984D01*
X568897Y-125984D02*
X531495Y-88583D01*
X509842Y-88583D01*
X413385Y7874D01*
X413385Y62992D01*
X407480Y68898D01*
X372047Y68898D01*
X311023Y198819D02*
X283464Y226378D01*
X267716Y257874D02*
X267716Y324803D01*
X250000Y342519D01*
X250000Y590550D01*
X395669Y996061D02*
X395669Y1122045D01*
X582676Y-125984D02*
X584200Y-127000D01*
D14*
X372047Y68898D03*
X311023Y198819D03*
X283464Y226378D03*
X267716Y257874D03*
X250000Y590550D03*
X395669Y996061D03*
X395669Y1122045D03*
D13*
X543306Y-74803D02*
X582676Y-74803D01*
X543306Y-74803D02*
X507873Y-39370D01*
X468503Y-39370D01*
X383858Y-39370D02*
X316929Y27559D01*
X72835Y27559D01*
X68898Y31496D01*
X-3937Y31496D01*
X-23622Y51181D01*
X-31496Y51181D01*
X-64961Y84646D01*
X-64961Y88583D01*
X582676Y-74803D02*
X584200Y-76200D01*
X-64961Y88583D02*
X-65400Y88600D01*
D14*
X468503Y-39370D03*
X383858Y-39370D03*
D13*
X649605Y-125984D02*
X692912Y-82677D01*
X692912Y-70866D01*
X749999Y-13780D01*
X706692Y51181D02*
X706692Y64961D01*
X700786Y70866D01*
X700786Y151575D01*
X706692Y224409D02*
X706692Y228346D01*
X692912Y242126D01*
X692912Y328740D01*
X645668Y375984D01*
X645668Y381889D01*
X622046Y405511D01*
X584645Y405511D01*
X561023Y429133D01*
X561023Y498031D01*
X620078Y539369D02*
X624015Y539369D01*
X627952Y535432D01*
X647637Y535432D01*
X700786Y588582D01*
X704723Y588582D01*
X765747Y527558D01*
X777558Y527558D01*
X807085Y557086D01*
X807085Y828739D01*
X805117Y830707D01*
X820865Y846455D02*
X820865Y870077D01*
X818896Y872046D01*
X818896Y1005904D01*
X824802Y1011809D01*
X872046Y1059053D02*
X872046Y1238187D01*
X974408Y1340549D01*
X1194880Y1340549D01*
X1334643Y1200785D01*
X1334643Y1196848D01*
X649605Y-125984D02*
X647700Y-127000D01*
X1335400Y1196000D02*
X1334643Y1196848D01*
D14*
X749999Y-13780D03*
X706692Y51181D03*
X700786Y151575D03*
X706692Y224409D03*
X561023Y498031D03*
X620078Y539369D03*
X805117Y830707D03*
X820865Y846455D03*
X824802Y1011809D03*
X872046Y1059053D03*
D13*
X647637Y-76772D02*
X608267Y-116142D01*
X608267Y-131890D01*
X582676Y-157480D01*
X265748Y-157480D01*
X116142Y-7874D01*
X-11811Y-7874D01*
X-66929Y47244D01*
X647700Y-76200D02*
X647637Y-76772D01*
X-65400Y48600D02*
X-66929Y47244D01*
X683070Y19685D02*
X683070Y169291D01*
X708660Y234252D02*
X708660Y332677D01*
X765747Y389763D02*
X803148Y427165D01*
X803148Y490157D01*
X805117Y525590D02*
X797243Y525590D01*
X805117Y525590D02*
X824802Y545275D01*
X824802Y547243D01*
X862203Y584645D01*
X875983Y584645D01*
X935038Y643700D02*
X935038Y667322D01*
X998030Y730314D01*
X1007872Y730314D01*
X1017715Y740156D01*
X1017715Y787400D01*
X1094486Y946849D02*
X1094486Y984250D01*
X1249998Y1139762D01*
X1263777Y1139762D01*
X1277557Y1153541D01*
X1277557Y1181100D01*
D14*
X683070Y19685D03*
X683070Y169291D03*
X708660Y234252D03*
X708660Y332677D03*
X765747Y389763D03*
X803148Y490157D03*
X797243Y525590D03*
X875983Y584645D03*
X935038Y643700D03*
X1017715Y787400D03*
X1094486Y946849D03*
X1277557Y1181100D03*
D13*
X551180Y-141732D02*
X269685Y-141732D01*
X244094Y-116142D01*
X147638Y-116142D02*
X43307Y-11811D01*
X-45276Y-11811D01*
X-64961Y7874D01*
X-65400Y8600D01*
D14*
X551180Y-141732D03*
X244094Y-116142D03*
X147638Y-116142D03*
D13*
X360236Y1127951D02*
X399606Y1127951D01*
X478346Y1049211D01*
X478346Y994093D01*
X478346Y940943D02*
X499999Y919290D01*
X499999Y840550D02*
X521653Y840550D01*
X574802Y787400D01*
X687007Y614172D02*
X767715Y533464D01*
X791337Y387795D02*
X791337Y251968D01*
X826770Y216535D01*
X960628Y216535D01*
X980313Y196850D01*
X1064959Y196850D01*
X1102360Y159449D01*
X1153541Y108268D02*
X1173226Y88583D01*
X1173226Y9843D01*
D14*
X360236Y1127951D03*
X478346Y994093D03*
X478346Y940943D03*
X499999Y919290D03*
X499999Y840550D03*
X574802Y787400D03*
X687007Y614172D03*
X767715Y533464D03*
X791337Y387795D03*
X1102360Y159449D03*
X1153541Y108268D03*
X1173226Y9843D03*
M02*
