M48
;GenerationSoftware,Autodesk,EAGLE,9.1.3*%
;CreationDate,2020-04-16T01:31:32Z*%
FMAT,2
ICI,OFF
METRIC,TZ,000.000
T4C0.300
T3C1.016
T2C1.750
T1C2.850
%
G90
M71
T1
X-3040Y-5640
X74370Y-25900
X131370Y-25900
X-4370Y-25900
X52630Y-25900
X130040Y-5640
X130040Y51360
X130040Y73100
X130040Y130100
X-3040Y130100
X-3040Y73100
X-3040Y51360
T2
X26130Y-21400
X80870Y-21400
X84870Y-21400
X88870Y-21400
X92870Y-21400
X96870Y-21400
X100870Y-21400
X104870Y-21400
X108870Y-21400
X112870Y-21400
X116870Y-21400
X120870Y-21400
X124870Y-21400
X82870Y-25400
X86870Y-25400
X90870Y-25400
X94870Y-25400
X98870Y-25400
X102870Y-25400
X106870Y-25400
X110870Y-25400
X114870Y-25400
X118870Y-25400
X122870Y-25400
X80870Y-29400
X84870Y-29400
X88870Y-29400
X92870Y-29400
X96870Y-29400
X100870Y-29400
X104870Y-29400
X108870Y-29400
X112870Y-29400
X116870Y-29400
X120870Y-29400
X124870Y-29400
X2130Y-21400
X6130Y-21400
X10130Y-21400
X14130Y-21400
X18130Y-21400
X22130Y-21400
X-2540Y109600
X30130Y-21400
X34130Y-21400
X38130Y-21400
X42130Y-21400
X46130Y-21400
X4130Y-25400
X8130Y-25400
X12130Y-25400
X16130Y-25400
X20130Y-25400
X24130Y-25400
X28130Y-25400
X32130Y-25400
X36130Y-25400
X40130Y-25400
X44130Y-25400
X2130Y-29400
X6130Y-29400
X10130Y-29400
X14130Y-29400
X18130Y-29400
X22130Y-29400
X26130Y-29400
X30130Y-29400
X34130Y-29400
X38130Y-29400
X42130Y-29400
X46130Y-29400
X-6540Y860
X125540Y860
X125540Y4860
X125540Y8860
X125540Y12860
X125540Y16860
X125540Y20860
X125540Y24860
X125540Y28860
X125540Y32860
X125540Y36860
X125540Y40860
X125540Y44860
X129540Y2860
X129540Y6860
X129540Y10860
X129540Y14860
X129540Y18860
X129540Y22860
X129540Y26860
X129540Y30860
X129540Y34860
X129540Y38860
X129540Y42860
X133540Y860
X133540Y4860
X133540Y8860
X133540Y12860
X133540Y16860
X133540Y20860
X133540Y24860
X133540Y28860
X133540Y32860
X133540Y36860
X133540Y40860
X133540Y44860
X125540Y79600
X125540Y83600
X125540Y87600
X125540Y91600
X125540Y95600
X125540Y99600
X125540Y103600
X125540Y107600
X125540Y111600
X125540Y115600
X125540Y119600
X125540Y123600
X129540Y81600
X129540Y85600
X129540Y89600
X129540Y93600
X129540Y97600
X129540Y101600
X129540Y105600
X129540Y109600
X129540Y113600
X129540Y117600
X129540Y121600
X133540Y79600
X133540Y83600
X133540Y87600
X133540Y91600
X133540Y95600
X133540Y99600
X133540Y103600
X133540Y107600
X133540Y111600
X133540Y115600
X133540Y119600
X133540Y123600
X1460Y123600
X1460Y119600
X1460Y115600
X1460Y111600
X1460Y107600
X1460Y103600
X1460Y99600
X1460Y95600
X1460Y91600
X1460Y87600
X1460Y83600
X1460Y79600
X-2540Y121600
X-2540Y117600
X-2540Y113600
X-2540Y105600
X-2540Y101600
X-2540Y97600
X-2540Y93600
X-2540Y89600
X-2540Y85600
X-2540Y81600
X-6540Y123600
X-6540Y119600
X-6540Y115600
X-6540Y111600
X-6540Y107600
X-6540Y103600
X-6540Y99600
X-6540Y95600
X-6540Y91600
X-6540Y87600
X-6540Y83600
X-6540Y79600
X1460Y44860
X1460Y40860
X1460Y36860
X1460Y32860
X1460Y28860
X1460Y24860
X1460Y20860
X1460Y16860
X1460Y12860
X1460Y8860
X1460Y4860
X1460Y860
X-2540Y42860
X-2540Y38860
X-2540Y34860
X-2540Y30860
X-2540Y26860
X-2540Y22860
X-2540Y18860
X-2540Y14860
X-2540Y10860
X-2540Y6860
X-2540Y2860
X-6540Y44860
X-6540Y40860
X-6540Y36860
X-6540Y32860
X-6540Y28860
X-6540Y24860
X-6540Y20860
X-6540Y16860
X-6540Y12860
X-6540Y8860
X-6540Y4860
T3
X100330Y119380
X102870Y119380
X97790Y113030
X100330Y113030
X102870Y113030
X97790Y106680
X100330Y106680
X102870Y106680
X97790Y100330
X100330Y100330
X102870Y100330
X97790Y93980
X100330Y93980
X102870Y93980
X97790Y87630
X100330Y87630
X102870Y87630
X97790Y81280
X100330Y81280
X102870Y81280
X97790Y74930
X100330Y74930
X102870Y74930
X97790Y68580
X100330Y68580
X102870Y68580
X97790Y62230
X100330Y62230
X102870Y62230
X97790Y55880
X100330Y55880
X102870Y55880
X97790Y49530
X100330Y49530
X102870Y49530
X97790Y43180
X100330Y43180
X97790Y36830
X100330Y36830
X102870Y36830
X97790Y30480
X100330Y30480
X102870Y30480
X97790Y24130
X100330Y24130
X102870Y24130
X97790Y17780
X100330Y17780
X102870Y17780
X97790Y11430
X100330Y11430
X102870Y11430
X97790Y5080
X100330Y5080
X102870Y5080
X97790Y-1270
X100330Y-1270
X102870Y-1270
X52070Y-12700
X52070Y-10160
X52070Y-7620
X58420Y-12700
X58420Y-10160
X58420Y-7620
X64770Y-12700
X64770Y-10160
X64770Y-7620
X71120Y-12700
X71120Y-10160
X71120Y-7620
X15240Y132080
X17780Y132080
X20320Y132080
X17780Y125730
X20320Y125730
X15240Y119380
X17780Y119380
X20320Y119380
X15240Y113030
X17780Y113030
X20320Y113030
X15240Y106680
X17780Y106680
X20320Y106680
X15240Y100330
X17780Y100330
X20320Y100330
X15240Y93980
X17780Y93980
X20320Y93980
X15240Y87630
X17780Y87630
X20320Y87630
X15240Y81280
X17780Y81280
X20320Y81280
X15240Y74930
X17780Y74930
X20320Y74930
X15240Y68580
X17780Y68580
X20320Y68580
X15240Y62230
X17780Y62230
X20320Y62230
X15240Y55880
X17780Y55880
X20320Y55880
X15240Y49530
X17780Y49530
X20320Y49530
X15240Y43180
X17780Y43180
X20320Y43180
X15240Y36830
X17780Y36830
X20320Y36830
X15240Y30480
X17780Y30480
X20320Y30480
X15240Y24130
X17780Y24130
X20320Y24130
X15240Y17780
X17780Y17780
X20320Y17780
X15240Y11430
X17780Y11430
X20320Y11430
X15240Y5080
X17780Y5080
X20320Y5080
X15240Y-1270
X17780Y-1270
X20320Y-1270
X58420Y132080
X60960Y132080
X63500Y132080
X58420Y125730
X60960Y125730
X63500Y125730
X58420Y119380
X60960Y119380
X63500Y119380
X58420Y113030
X60960Y113030
X63500Y113030
X58420Y106680
X60960Y106680
X63500Y106680
X58420Y100330
X60960Y100330
X63500Y100330
X58420Y93980
X60960Y93980
X100330Y132080
X63500Y93980
X58420Y87630
X60960Y87630
X63500Y87630
X58420Y81280
X60960Y81280
X63500Y81280
X58420Y74930
X60960Y74930
X63500Y74930
X58420Y68580
X60960Y68580
X63500Y68580
X58420Y62230
X60960Y62230
X63500Y62230
X58420Y55880
X60960Y55880
X63500Y55880
X58420Y49530
X60960Y49530
X63500Y49530
X58420Y43180
X60960Y43180
X63500Y43180
X58420Y36830
X60960Y36830
X63500Y36830
X58420Y30480
X60960Y30480
X63500Y30480
X58420Y24130
X60960Y24130
X63500Y24130
X58420Y17780
X60960Y17780
X63500Y17780
X58420Y11430
X60960Y11430
X63500Y11430
X58420Y5080
X60960Y5080
X63500Y5080
X58420Y-1270
X60960Y-1270
X63500Y-1270
X97790Y132080
X15240Y125730
X102870Y132080
X97790Y125730
X100330Y125730
X102870Y125730
X97790Y119380
X102870Y43180
T4
X90945Y54331
X101181Y54134
X110630Y45669
X112992Y42716
X23425Y70866
X25394Y72835
X45669Y76575
X48819Y91338
X77756Y91338
X87205Y88386
X91535Y87008
X109842Y76181
X116535Y60827
X123819Y53937
X20866Y64173
X37008Y97834
X71653Y97638
X89567Y93701
X107874Y92323
X114173Y76378
X116535Y62795
X124606Y54724
X21654Y40748
X39961Y40551
X55905Y15157
X55905Y12795
X65945Y10433
X72638Y10433
X78937Y-4331
X33071Y47244
X33071Y44291
X58661Y41142
X72047Y23425
X79527Y14370
X98031Y2953
X127756Y9449
X-8858Y110827
X23228Y15748
X23228Y-197
X34842Y-12795
X37795Y-17323
X82677Y-2165
X92913Y-2559
X102756Y-4331
X-8858Y111614
X19291Y40945
X29724Y44291
X33661Y57086
X35039Y77953
X79134Y70472
X91732Y43898
X94094Y41535
X119685Y37795
X124606Y27362
X29134Y38976
X25984Y67716
X22047Y97834
X3346Y108071
X15748Y26181
X34252Y25590
X37402Y22047
X44488Y22047
X47244Y19291
X54724Y12402
X62795Y8858
X96456Y8858
X100197Y8268
X111220Y8858
X112795Y8858
X123622Y13386
X13386Y35433
X10433Y35433
X-3150Y69488
X-6693Y76575
X-3937Y95866
X11614Y17323
X11417Y-15354
X57086Y-19685
X70866Y-19488
X84842Y-9449
X123031Y-984
X125393Y19094
X26772Y25000
X25590Y56496
X3346Y68110
X2165Y69291
X17126Y22244
X35630Y26181
X37598Y28150
X64567Y27756
X77953Y21850
X82086Y25000
X95275Y24016
X117126Y24803
X123031Y28150
X9646Y20276
X-8071Y105315
X17126Y15157
X46653Y45275
X63583Y45275
X73425Y22441
X81496Y14370
X101968Y7480
X103346Y7677
X21850Y19488
X21260Y28937
X29134Y31496
X25394Y67126
X9055Y89764
X21063Y8858
X65945Y2165
X91338Y-3150
X99606Y-5709
X119094Y10433
X130118Y29134
X22638Y19488
X13386Y36220
X9449Y35630
X79724Y-4331
X123622Y-394
X135827Y30315
X92913Y128149
X120275Y110236
X135433Y79921
X123425Y60827
X52165Y128149
X29134Y105118
X27756Y102756
X4528Y93307
X-787Y91732
X38976Y106299
X38976Y100590
X28150Y64370
X28150Y51378
X23228Y47047
X27362Y19488
X34842Y12008
X66338Y2756
X75984Y-2165
X78149Y-4331
X56496Y116929
X75590Y113779
X122638Y98819
X119291Y83071
X123031Y74409
X124606Y72835
X135039Y47047
X72244Y98031
X72244Y94488
X90157Y52165
X110039Y39567
X127362Y22638
X80512Y108661
X122047Y95472
X124212Y74016
X135827Y25787
X56693Y109842
X197Y110039
X92519Y78346
X84449Y61811
X83858Y48819
X112795Y20866
X51181Y93897
X50197Y76575
X59646Y75984
X67716Y63189
X76772Y54134
X76181Y49212
X79134Y46260
X84842Y40551
X95079Y29724
X103937Y26968
X108267Y22638
X79724Y88189
X90354Y85236
X116535Y58464
X122638Y52362
X122638Y37402
X79134Y79134
X82283Y75984
X89764Y75984
X109842Y75394
X115157Y61417
X126575Y51968
X83071Y53740
X116535Y55118
X126181Y48031
X60827Y72047
X71653Y90748
X79724Y91535
X104921Y83268
X114370Y59842
X126771Y50197
X77559Y71063
X83071Y71260
X87795Y66535
X44488Y65157
X38779Y86811
X7677Y85433
X3740Y81496
X-2559Y79134
X-3740Y78740
X69094Y64173
X78149Y59646
X83071Y54527
X115354Y54527
X56693Y47441
X62205Y47638
X70275Y50984
X77756Y58464
X79331Y60039
X82480Y60039
X104330Y66732
X61417Y39961
X64567Y45866
X69882Y49212
X78740Y56693
X80118Y58464
X82283Y59055
X97441Y65748
X117519Y79134
X122441Y84055
X9055Y34842
X7087Y36811
X64764Y29527
X89370Y37402
X88976Y51378
X94685Y61417
X107086Y67913
X116929Y77756
X57480Y35236
X34055Y35433
X30118Y28543
X47244Y26181
X47244Y48819
X51772Y66338
X51772Y70275
X55512Y99016
X59449Y104330
X95866Y99803
X100787Y96456
X55512Y51181
X57086Y52756
X70275Y58268
X76181Y64173
X79724Y71850
X81693Y72638
X118110Y98228
X60630Y13386
X73425Y12795
X80709Y20079
X84252Y27165
X83071Y50590
X81299Y54134
X102165Y83858
X111417Y95275
X118897Y102756
X66535Y9843
X97441Y9449
X117519Y21063
X117716Y28937
X117716Y46063
X84449Y61023
X134055Y77756
X48425Y3150
X64567Y1772
X67716Y4921
X67716Y17520
X103740Y35236
X118110Y70669
X117519Y83071
X123819Y107480
X-197Y110630
X-7283Y75984
X-5118Y68110
X-5118Y64764
X-7677Y62598
X-7677Y48622
X-7677Y18898
X-5512Y19094
X-3150Y16732
X-394Y11811
X122047Y-5118
X120669Y-24409
X14370Y-27165
X4331Y-14567
X87795Y121260
X47835Y113386
X-197Y105512
X-2953Y76575
X10236Y14764
X7283Y2165
X109842Y94094
X123425Y86614
X124606Y85433
X51772Y116535
X18307Y116535
X3346Y107086
X-4528Y101968
X-8071Y68504
X-8858Y61023
X-1575Y45472
X87795Y111023
X70079Y111023
X52165Y104527
X38386Y104527
X33268Y99409
X29724Y70472
X22047Y50984
X-984Y46850
X112401Y93110
X59842Y114960
X82874Y87795
X78346Y89567
X62795Y89567
X52953Y77165
X37598Y73228
X36614Y62205
X33465Y63583
X5315Y49803
X-1575Y33071
X115748Y93110
X126378Y93307
X72441Y99409
X45866Y98228
X39370Y76772
X26968Y73228
X26968Y70275
X15551Y58464
X5315Y50590
X3543Y40551
X110039Y85433
X115748Y92323
X117716Y92716
X90748Y87008
X84252Y79724
X71457Y77165
X50197Y72835
X33661Y48228
X29134Y35039
X7677Y28740
X3346Y21457
X97638Y79134
X94094Y85827
X87008Y83661
X85433Y85039
X77559Y85236
X40157Y85630
X12795Y50197
X9843Y36811
X4331Y31299
X113582Y78346
X84252Y73622
X82283Y73622
X77756Y78149
X55118Y81890
X53543Y81890
X24409Y83464
X23228Y84646
X6890Y85433
X-7087Y67520
X-7087Y47441
X83071Y59055
X63189Y84646
X29331Y84646
X23622Y62205
X23819Y33858
X8465Y28740
X4528Y18504
X113582Y65157
X118701Y91535
X119882Y92716
X87401Y54134
X85630Y51575
X73622Y36811
X68110Y32087
X57086Y25394
X54921Y23228
X54921Y19882
X40945Y13976
X30905Y8858
X25197Y591
X3740Y984
X123819Y72835
X135236Y70472
X95275Y38779
X11614Y30905
X11614Y18110
X6693Y2559
X105905Y45079
X115157Y49409
X99016Y47047
X86417Y64960
X81693Y64960
X77362Y66732
X66929Y66732
X62205Y65748
X2953Y58464
X-1575Y56496
X106496Y50984
X106496Y61811
X107086Y66732
X116929Y76575
X122441Y77953
X89370Y38189
X88189Y38583
X41732Y34842
X41142Y26181
X4921Y26181
X113189Y37205
X123228Y39567
X102953Y33661
X78149Y42126
X65157Y45472
X2953Y43110
X-394Y41929
X113582Y49409
X115157Y50984
X92913Y23031
X81496Y26575
X3543Y31496
X110236Y25394
X112795Y25394
X117126Y26575
X125984Y71457
X125984Y74803
X130905Y79724
X76575Y27756
X46457Y32480
X40551Y35433
X34842Y35433
X31102Y26575
X394Y26772
X116929Y50394
X115748Y65551
X120866Y89370
X126378Y89960
X60236Y13976
X57086Y11614
X40157Y5709
X109842Y14173
X126575Y72638
X126575Y76181
X98819Y2953
X81496Y2362
X41535Y-2756
X33661Y5118
X32480Y6299
X4331Y9252
X94291Y-6299
X99016Y-11024
X116732Y-6299
X118897Y19488
X117323Y28346
X116929Y45079
X112992Y46457
X112992Y51772
X113779Y64370
X120078Y103740
X81102Y1772
X75590Y-197
X59842Y-9055
X50394Y-16732
X9646Y-1378
X7874Y4921
X42913Y-1575
X50984Y6496
X55315Y13976
X55512Y19488
X52953Y47835
X66535Y62795
X72244Y70472
X66732Y79724
X80118Y92716
X90354Y93701
X131102Y112401
X41142Y-7480
X4134Y1575
X37205Y6890
X31102Y19882
X28346Y22638
X26772Y25787
X25000Y59055
X39567Y99606
X39567Y112204
X46850Y-3937
X38386Y-3937
X75000Y-1378
X70669Y5118
X70079Y15157
X70669Y22441
X56102Y49803
X62008Y53937
X80512Y83071
X82086Y84646
X82480Y101181
X87205Y105905
X68307Y1968
X68307Y16929
X70866Y23425
X70866Y33268
X76575Y38976
X80315Y49016
X79724Y52559
X87598Y58464
X93504Y64370
X101771Y78740
X109449Y94685
X127756Y118110
X55118Y-14173
X24409Y-11614
X14764Y-11614
X36024Y112795
X47835Y99409
X47835Y94094
X50000Y91929
X50000Y84055
X57480Y78740
X68701Y61417
X76772Y53346
X79134Y38779
X110236Y15945
X115354Y10827
X117323Y984
X91732Y90748
X101771Y85630
X108071Y62795
X116338Y48819
X115748Y22638
X112598Y14370
X109252Y2165
X90551Y-6496
X26575Y105118
X26575Y98228
X28150Y69882
X44291Y53937
X46653Y51575
X52362Y22047
X69094Y21260
X73425Y21260
X80315Y14370
X99016Y-197
X92716Y-8661
X25394Y107086
X27165Y97834
X28543Y67520
X37598Y32087
X48425Y28543
X65945Y11220
X78346Y11220
X78543Y-6890
X25590Y105315
X25590Y97834
X27559Y66929
X34252Y45472
X53543Y42323
X70669Y7283
X85433Y-1575
X85236Y-11614
X81693Y116732
X86614Y90354
X93110Y77953
X91535Y61417
X89567Y51772
X96653Y32480
X99212Y29134
X105118Y22638
X106299Y9252
X104921Y-16929
X20866Y96653
X42520Y93701
X61614Y47047
X78543Y25394
X78543Y23819
X105118Y15354
X109842Y10630
X108661Y-14173
X32087Y91338
X31693Y67126
X38779Y33465
X81496Y28150
X86023Y23622
X89173Y16339
X90157Y7283
X88976Y-1575
X23031Y70275
X26575Y15551
X27953Y1181
X39370Y-10236
X39370Y-18307
X62795Y-22835
X7087Y72835
X-7874Y67716
X-8268Y49016
X-8858Y-3543
X59252Y-20079
X108071Y-13189
X23622Y62992
X25787Y32677
X49606Y28543
X51968Y26181
X60827Y26181
X73819Y17126
X76575Y14370
X87008Y3937
X87008Y-1575
X111417Y-27165
X25590Y57283
X28937Y26181
X61811Y25787
X78937Y20669
X91535Y15945
X106102Y-4528
X116141Y-3346
X10630Y50787
X-1181Y48425
X-5512Y48425
X-8268Y47047
X69094Y-32087
X-1968Y57086
X15354Y-12992
X23031Y-12992
X60827Y-16142
X62992Y-16142
X69882Y-16142
X78937Y-19488
X11614Y47441
X-1575Y47441
X-4921Y15945
X-8268Y-16535
X77362Y-23228
X13189Y18110
X16535Y-197
X57874Y-14764
X60827Y-17717
X64567Y-21457
X28150Y38779
X30905Y38386
X53543Y38386
X67716Y1378
X89173Y-19291
X33661Y27756
X35433Y18701
X54724Y11614
X58661Y7677
X86220Y-1575
X87598Y-4331
X89173Y-4331
X98425Y-20472
X23425Y17126
X25394Y5118
X44094Y-13189
X50787Y-19882
X53149Y-22244
X33071Y6890
X40748Y6102
X42520Y4331
X70275Y394
X93504Y-7087
X62205Y16732
X66732Y12205
X79527Y12402
X84252Y7677
X105512Y9252
X20866Y-12402
X63779Y-22244
X79527Y-30512
X46063Y-13583
X51575Y-19094
X59842Y-21654
X78149Y-29921
X45866Y106102
X47047Y99409
X44488Y70866
X64960Y58071
X69094Y38189
X72244Y22441
X75787Y14370
X75787Y4134
X75787Y984
X78937Y-5905
X79527Y-11614
X62598Y117716
X64764Y115551
X131890Y77362
X133464Y73819
X55709Y105708
X53740Y101968
X45275Y61417
X54724Y18701
X54724Y13189
X65551Y591
X73622Y-6693
X76181Y-9252
X83071Y-17717
X56890Y99016
X91929Y72835
X90551Y43898
X94685Y33661
X101771Y33661
X109055Y22638
X115354Y10039
X115354Y-9843
X54134Y84055
X62205Y79724
X73228Y62205
X77756Y57677
X83268Y52165
X91929Y34055
X90945Y16339
X90945Y7283
X89567Y-2362
X82874Y89173
X86023Y97834
X122047Y94685
X116535Y65748
X126771Y55512
X123228Y-18110
X56890Y59842
X61220Y53346
X65748Y38189
X70275Y31102
X76181Y30512
X90945Y5709
X107283Y2362
X68504Y63189
X77559Y54134
X87598Y43504
X88976Y42126
X115157Y40748
X115551Y20866
X117913Y18504
X115945Y-15945
X67323Y73819
X69685Y50197
X73622Y42716
X84842Y35433
X111417Y21457
X122244Y14961
X122638Y-18701
X66142Y66535
X77559Y54921
X108267Y41339
X109252Y38779
X119291Y20669
X64370Y58858
X74212Y44094
X79134Y44094
X84842Y39764
X95669Y28346
X113976Y23228
X115157Y20276
X120472Y14961
X121456Y-19488
X68504Y40354
X75590Y22441
X95275Y15354
X100590Y14764
X110433Y9252
X113386Y-10433
X38386Y41142
X35236Y25000
X14567Y21850
X12205Y18701
X10630Y-16929
X58858Y33268
X39961Y31693
X37795Y15551
X32874Y-4528
X29921Y-7480
X64567Y20472
X40748Y1575
X43701Y-3346
X25000Y-19094
X66142Y9252
X66142Y-787
X32480Y-8268
X32480Y-9646
X40354Y110039
X40354Y99212
X25984Y53543
X27953Y15945
X119291Y47638
X31496Y-984
X38386Y-8465
X104134Y126968
X48819Y-30512
X58464Y122441
X54331Y122441
X37008Y105118
X32087Y100197
X32087Y95079
X32087Y92126
X32677Y68110
X47835Y23228
X47835Y22047
X48819Y15157
X38583Y984
X43110Y-12795
X55118Y104330
X54331Y99016
X43701Y83661
X41339Y81890
X35236Y51772
X30512Y15551
X29724Y13976
X4921Y14173
X89567Y95866
X75984Y97441
X37402Y91338
X27559Y54134
X27362Y15551
X26968Y13583
X10236Y10039
X70669Y110433
X48425Y100000
X23031Y52953
X25984Y16929
X19488Y-11024
X16535Y-19882
X97834Y96456
X92323Y96456
X67716Y103346
X55315Y100787
X43110Y82874
X43110Y78740
X35827Y53937
X33071Y16339
X33661Y13976
X33661Y12402
X14173Y-18898
X79134Y92126
X71457Y92126
X56890Y89567
X40551Y86220
X31496Y52165
X29134Y35827
X9055Y30905
X9646Y15354
X13779Y-23425
X95275Y62795
X85630Y50787
X81299Y24409
X79724Y20669
X67126Y787
X31890Y-19882
X83858Y63189
X78149Y70669
X55709Y72835
X34842Y47441
X29134Y33858
X21654Y32677
X24016Y15748
X24016Y-5709
X29331Y-12008
X86417Y82677
X82480Y100393
X65945Y114370
X-9252Y119291
X-8858Y-7283
X107677Y45669
X107677Y38779
X107677Y29134
X107677Y24803
X111220Y11220
X114173Y-10433
X48031Y-32087
X34449Y-32087
X107086Y49016
X107086Y38386
X91535Y19488
X86811Y12795
X78346Y10433
X74409Y1968
X74212Y-1378
X66732Y-8858
X112204Y1575
X108071Y1575
X90157Y1181
X82480Y46063
X81496Y34842
X68701Y31496
X66732Y22835
X44094Y21457
X35433Y15157
X62401Y27362
X54724Y41732
X5512Y41929
X4921Y22047
X119685Y18504
X116732Y-7087
X95866Y-11811
X86614Y-22047
X48425Y-25787
X78346Y18504
X57283Y-3543
X30709Y-23228
X61023Y14764
X59055Y15157
X35433Y-2953
X35433Y-4528
X38189Y-1772
X36417Y-1181
X95866Y-787
X84842Y-3346
X67716Y-13583
X121456Y134842
X134842Y73228
X119685Y25590
X126968Y15157
X25984Y109055
X30709Y99409
X30512Y81693
X36614Y75590
X38189Y69094
X72047Y24606
X82874Y15945
X90157Y5709
X94094Y1772
X102362Y-3740
X57874Y111023
X73622Y104921
X77559Y53346
X79134Y39567
X112795Y20079
X25000Y100787
X35433Y70472
X60433Y53346
X62401Y51378
X79134Y48622
X18898Y103937
X66732Y102756
X77362Y105512
X81693Y101181
X81693Y77362
X86023Y57480
X108661Y58268
X130905Y44685
X39567Y95866
X51968Y102756
X80512Y117913
X133464Y113386
X121653Y31102
X60630Y90157
X85433Y79331
X114960Y55118
X125197Y48031
X22638Y83464
X29331Y98819
X80118Y96850
X101968Y89567
X116535Y59252
X122244Y53543
X76968Y78149
X82677Y72441
X86023Y69094
M30