G04 EAGLE Gerber X2 export*
%TF.Part,Single*%
%TF.FileFunction,Profile,NP*%
%TF.FilePolarity,Positive*%
%TF.GenerationSoftware,Autodesk,EAGLE,9.1.3*%
%TF.CreationDate,2020-04-16T01:31:32Z*%
G75*
%MOMM*%
%FSLAX34Y34*%
%LPD*%
%AMOC8*
5,1,8,0,0,1.08239X$1,22.5*%
G01*
%ADD10C,0.254000*%


D10*
X-114300Y-342900D02*
X1384100Y-342900D01*
X1384100Y1406400D01*
X-114300Y1406400D01*
X-114300Y-342900D01*
X757950Y-259509D02*
X757877Y-260524D01*
X757733Y-261532D01*
X757516Y-262526D01*
X757229Y-263503D01*
X756874Y-264457D01*
X756451Y-265383D01*
X755963Y-266276D01*
X755413Y-267132D01*
X754803Y-267947D01*
X754136Y-268716D01*
X753416Y-269436D01*
X752647Y-270103D01*
X751832Y-270713D01*
X750976Y-271263D01*
X750083Y-271751D01*
X749157Y-272174D01*
X748203Y-272529D01*
X747226Y-272816D01*
X746232Y-273033D01*
X745224Y-273177D01*
X744209Y-273250D01*
X743191Y-273250D01*
X742176Y-273177D01*
X741168Y-273033D01*
X740174Y-272816D01*
X739197Y-272529D01*
X738243Y-272174D01*
X737317Y-271751D01*
X736424Y-271263D01*
X735568Y-270713D01*
X734753Y-270103D01*
X733984Y-269436D01*
X733264Y-268716D01*
X732597Y-267947D01*
X731987Y-267132D01*
X731437Y-266276D01*
X730949Y-265383D01*
X730526Y-264457D01*
X730171Y-263503D01*
X729884Y-262526D01*
X729667Y-261532D01*
X729523Y-260524D01*
X729450Y-259509D01*
X729450Y-258491D01*
X729523Y-257476D01*
X729667Y-256468D01*
X729884Y-255474D01*
X730171Y-254497D01*
X730526Y-253543D01*
X730949Y-252617D01*
X731437Y-251724D01*
X731987Y-250868D01*
X732597Y-250053D01*
X733264Y-249284D01*
X733984Y-248564D01*
X734753Y-247897D01*
X735568Y-247287D01*
X736424Y-246737D01*
X737317Y-246249D01*
X738243Y-245826D01*
X739197Y-245471D01*
X740174Y-245184D01*
X741168Y-244967D01*
X742176Y-244823D01*
X743191Y-244750D01*
X744209Y-244750D01*
X745224Y-244823D01*
X746232Y-244967D01*
X747226Y-245184D01*
X748203Y-245471D01*
X749157Y-245826D01*
X750083Y-246249D01*
X750976Y-246737D01*
X751832Y-247287D01*
X752647Y-247897D01*
X753416Y-248564D01*
X754136Y-249284D01*
X754803Y-250053D01*
X755413Y-250868D01*
X755963Y-251724D01*
X756451Y-252617D01*
X756874Y-253543D01*
X757229Y-254497D01*
X757516Y-255474D01*
X757733Y-256468D01*
X757877Y-257476D01*
X757950Y-258491D01*
X757950Y-259509D01*
X1327950Y-259509D02*
X1327877Y-260524D01*
X1327733Y-261532D01*
X1327516Y-262526D01*
X1327229Y-263503D01*
X1326874Y-264457D01*
X1326451Y-265383D01*
X1325963Y-266276D01*
X1325413Y-267132D01*
X1324803Y-267947D01*
X1324136Y-268716D01*
X1323416Y-269436D01*
X1322647Y-270103D01*
X1321832Y-270713D01*
X1320976Y-271263D01*
X1320083Y-271751D01*
X1319157Y-272174D01*
X1318203Y-272529D01*
X1317226Y-272816D01*
X1316232Y-273033D01*
X1315224Y-273177D01*
X1314209Y-273250D01*
X1313191Y-273250D01*
X1312176Y-273177D01*
X1311168Y-273033D01*
X1310174Y-272816D01*
X1309197Y-272529D01*
X1308243Y-272174D01*
X1307317Y-271751D01*
X1306424Y-271263D01*
X1305568Y-270713D01*
X1304753Y-270103D01*
X1303984Y-269436D01*
X1303264Y-268716D01*
X1302597Y-267947D01*
X1301987Y-267132D01*
X1301437Y-266276D01*
X1300949Y-265383D01*
X1300526Y-264457D01*
X1300171Y-263503D01*
X1299884Y-262526D01*
X1299667Y-261532D01*
X1299523Y-260524D01*
X1299450Y-259509D01*
X1299450Y-258491D01*
X1299523Y-257476D01*
X1299667Y-256468D01*
X1299884Y-255474D01*
X1300171Y-254497D01*
X1300526Y-253543D01*
X1300949Y-252617D01*
X1301437Y-251724D01*
X1301987Y-250868D01*
X1302597Y-250053D01*
X1303264Y-249284D01*
X1303984Y-248564D01*
X1304753Y-247897D01*
X1305568Y-247287D01*
X1306424Y-246737D01*
X1307317Y-246249D01*
X1308243Y-245826D01*
X1309197Y-245471D01*
X1310174Y-245184D01*
X1311168Y-244967D01*
X1312176Y-244823D01*
X1313191Y-244750D01*
X1314209Y-244750D01*
X1315224Y-244823D01*
X1316232Y-244967D01*
X1317226Y-245184D01*
X1318203Y-245471D01*
X1319157Y-245826D01*
X1320083Y-246249D01*
X1320976Y-246737D01*
X1321832Y-247287D01*
X1322647Y-247897D01*
X1323416Y-248564D01*
X1324136Y-249284D01*
X1324803Y-250053D01*
X1325413Y-250868D01*
X1325963Y-251724D01*
X1326451Y-252617D01*
X1326874Y-253543D01*
X1327229Y-254497D01*
X1327516Y-255474D01*
X1327733Y-256468D01*
X1327877Y-257476D01*
X1327950Y-258491D01*
X1327950Y-259509D01*
X-29450Y-259509D02*
X-29523Y-260524D01*
X-29667Y-261532D01*
X-29884Y-262526D01*
X-30171Y-263503D01*
X-30526Y-264457D01*
X-30949Y-265383D01*
X-31437Y-266276D01*
X-31987Y-267132D01*
X-32597Y-267947D01*
X-33264Y-268716D01*
X-33984Y-269436D01*
X-34753Y-270103D01*
X-35568Y-270713D01*
X-36424Y-271263D01*
X-37317Y-271751D01*
X-38243Y-272174D01*
X-39197Y-272529D01*
X-40174Y-272816D01*
X-41168Y-273033D01*
X-42176Y-273177D01*
X-43191Y-273250D01*
X-44209Y-273250D01*
X-45224Y-273177D01*
X-46232Y-273033D01*
X-47226Y-272816D01*
X-48203Y-272529D01*
X-49157Y-272174D01*
X-50083Y-271751D01*
X-50976Y-271263D01*
X-51832Y-270713D01*
X-52647Y-270103D01*
X-53416Y-269436D01*
X-54136Y-268716D01*
X-54803Y-267947D01*
X-55413Y-267132D01*
X-55963Y-266276D01*
X-56451Y-265383D01*
X-56874Y-264457D01*
X-57229Y-263503D01*
X-57516Y-262526D01*
X-57733Y-261532D01*
X-57877Y-260524D01*
X-57950Y-259509D01*
X-57950Y-258491D01*
X-57877Y-257476D01*
X-57733Y-256468D01*
X-57516Y-255474D01*
X-57229Y-254497D01*
X-56874Y-253543D01*
X-56451Y-252617D01*
X-55963Y-251724D01*
X-55413Y-250868D01*
X-54803Y-250053D01*
X-54136Y-249284D01*
X-53416Y-248564D01*
X-52647Y-247897D01*
X-51832Y-247287D01*
X-50976Y-246737D01*
X-50083Y-246249D01*
X-49157Y-245826D01*
X-48203Y-245471D01*
X-47226Y-245184D01*
X-46232Y-244967D01*
X-45224Y-244823D01*
X-44209Y-244750D01*
X-43191Y-244750D01*
X-42176Y-244823D01*
X-41168Y-244967D01*
X-40174Y-245184D01*
X-39197Y-245471D01*
X-38243Y-245826D01*
X-37317Y-246249D01*
X-36424Y-246737D01*
X-35568Y-247287D01*
X-34753Y-247897D01*
X-33984Y-248564D01*
X-33264Y-249284D01*
X-32597Y-250053D01*
X-31987Y-250868D01*
X-31437Y-251724D01*
X-30949Y-252617D01*
X-30526Y-253543D01*
X-30171Y-254497D01*
X-29884Y-255474D01*
X-29667Y-256468D01*
X-29523Y-257476D01*
X-29450Y-258491D01*
X-29450Y-259509D01*
X540550Y-259509D02*
X540477Y-260524D01*
X540333Y-261532D01*
X540116Y-262526D01*
X539829Y-263503D01*
X539474Y-264457D01*
X539051Y-265383D01*
X538563Y-266276D01*
X538013Y-267132D01*
X537403Y-267947D01*
X536736Y-268716D01*
X536016Y-269436D01*
X535247Y-270103D01*
X534432Y-270713D01*
X533576Y-271263D01*
X532683Y-271751D01*
X531757Y-272174D01*
X530803Y-272529D01*
X529826Y-272816D01*
X528832Y-273033D01*
X527824Y-273177D01*
X526809Y-273250D01*
X525791Y-273250D01*
X524776Y-273177D01*
X523768Y-273033D01*
X522774Y-272816D01*
X521797Y-272529D01*
X520843Y-272174D01*
X519917Y-271751D01*
X519024Y-271263D01*
X518168Y-270713D01*
X517353Y-270103D01*
X516584Y-269436D01*
X515864Y-268716D01*
X515197Y-267947D01*
X514587Y-267132D01*
X514037Y-266276D01*
X513549Y-265383D01*
X513126Y-264457D01*
X512771Y-263503D01*
X512484Y-262526D01*
X512267Y-261532D01*
X512123Y-260524D01*
X512050Y-259509D01*
X512050Y-258491D01*
X512123Y-257476D01*
X512267Y-256468D01*
X512484Y-255474D01*
X512771Y-254497D01*
X513126Y-253543D01*
X513549Y-252617D01*
X514037Y-251724D01*
X514587Y-250868D01*
X515197Y-250053D01*
X515864Y-249284D01*
X516584Y-248564D01*
X517353Y-247897D01*
X518168Y-247287D01*
X519024Y-246737D01*
X519917Y-246249D01*
X520843Y-245826D01*
X521797Y-245471D01*
X522774Y-245184D01*
X523768Y-244967D01*
X524776Y-244823D01*
X525791Y-244750D01*
X526809Y-244750D01*
X527824Y-244823D01*
X528832Y-244967D01*
X529826Y-245184D01*
X530803Y-245471D01*
X531757Y-245826D01*
X532683Y-246249D01*
X533576Y-246737D01*
X534432Y-247287D01*
X535247Y-247897D01*
X536016Y-248564D01*
X536736Y-249284D01*
X537403Y-250053D01*
X538013Y-250868D01*
X538563Y-251724D01*
X539051Y-252617D01*
X539474Y-253543D01*
X539829Y-254497D01*
X540116Y-255474D01*
X540333Y-256468D01*
X540477Y-257476D01*
X540550Y-258491D01*
X540550Y-259509D01*
X1300909Y-42150D02*
X1301924Y-42223D01*
X1302932Y-42367D01*
X1303926Y-42584D01*
X1304903Y-42871D01*
X1305857Y-43226D01*
X1306783Y-43649D01*
X1307676Y-44137D01*
X1308532Y-44687D01*
X1309347Y-45297D01*
X1310116Y-45964D01*
X1310836Y-46684D01*
X1311503Y-47453D01*
X1312113Y-48268D01*
X1312663Y-49124D01*
X1313151Y-50017D01*
X1313574Y-50943D01*
X1313929Y-51897D01*
X1314216Y-52874D01*
X1314433Y-53868D01*
X1314577Y-54876D01*
X1314650Y-55891D01*
X1314650Y-56909D01*
X1314577Y-57924D01*
X1314433Y-58932D01*
X1314216Y-59926D01*
X1313929Y-60903D01*
X1313574Y-61857D01*
X1313151Y-62783D01*
X1312663Y-63676D01*
X1312113Y-64532D01*
X1311503Y-65347D01*
X1310836Y-66116D01*
X1310116Y-66836D01*
X1309347Y-67503D01*
X1308532Y-68113D01*
X1307676Y-68663D01*
X1306783Y-69151D01*
X1305857Y-69574D01*
X1304903Y-69929D01*
X1303926Y-70216D01*
X1302932Y-70433D01*
X1301924Y-70577D01*
X1300909Y-70650D01*
X1299891Y-70650D01*
X1298876Y-70577D01*
X1297868Y-70433D01*
X1296874Y-70216D01*
X1295897Y-69929D01*
X1294943Y-69574D01*
X1294017Y-69151D01*
X1293124Y-68663D01*
X1292268Y-68113D01*
X1291453Y-67503D01*
X1290684Y-66836D01*
X1289964Y-66116D01*
X1289297Y-65347D01*
X1288687Y-64532D01*
X1288137Y-63676D01*
X1287649Y-62783D01*
X1287226Y-61857D01*
X1286871Y-60903D01*
X1286584Y-59926D01*
X1286367Y-58932D01*
X1286223Y-57924D01*
X1286150Y-56909D01*
X1286150Y-55891D01*
X1286223Y-54876D01*
X1286367Y-53868D01*
X1286584Y-52874D01*
X1286871Y-51897D01*
X1287226Y-50943D01*
X1287649Y-50017D01*
X1288137Y-49124D01*
X1288687Y-48268D01*
X1289297Y-47453D01*
X1289964Y-46684D01*
X1290684Y-45964D01*
X1291453Y-45297D01*
X1292268Y-44687D01*
X1293124Y-44137D01*
X1294017Y-43649D01*
X1294943Y-43226D01*
X1295897Y-42871D01*
X1296874Y-42584D01*
X1297868Y-42367D01*
X1298876Y-42223D01*
X1299891Y-42150D01*
X1300909Y-42150D01*
X1300909Y527850D02*
X1301924Y527777D01*
X1302932Y527633D01*
X1303926Y527416D01*
X1304903Y527129D01*
X1305857Y526774D01*
X1306783Y526351D01*
X1307676Y525863D01*
X1308532Y525313D01*
X1309347Y524703D01*
X1310116Y524036D01*
X1310836Y523316D01*
X1311503Y522547D01*
X1312113Y521732D01*
X1312663Y520876D01*
X1313151Y519983D01*
X1313574Y519057D01*
X1313929Y518103D01*
X1314216Y517126D01*
X1314433Y516132D01*
X1314577Y515124D01*
X1314650Y514109D01*
X1314650Y513091D01*
X1314577Y512076D01*
X1314433Y511068D01*
X1314216Y510074D01*
X1313929Y509097D01*
X1313574Y508143D01*
X1313151Y507217D01*
X1312663Y506324D01*
X1312113Y505468D01*
X1311503Y504653D01*
X1310836Y503884D01*
X1310116Y503164D01*
X1309347Y502497D01*
X1308532Y501887D01*
X1307676Y501337D01*
X1306783Y500849D01*
X1305857Y500426D01*
X1304903Y500071D01*
X1303926Y499784D01*
X1302932Y499567D01*
X1301924Y499423D01*
X1300909Y499350D01*
X1299891Y499350D01*
X1298876Y499423D01*
X1297868Y499567D01*
X1296874Y499784D01*
X1295897Y500071D01*
X1294943Y500426D01*
X1294017Y500849D01*
X1293124Y501337D01*
X1292268Y501887D01*
X1291453Y502497D01*
X1290684Y503164D01*
X1289964Y503884D01*
X1289297Y504653D01*
X1288687Y505468D01*
X1288137Y506324D01*
X1287649Y507217D01*
X1287226Y508143D01*
X1286871Y509097D01*
X1286584Y510074D01*
X1286367Y511068D01*
X1286223Y512076D01*
X1286150Y513091D01*
X1286150Y514109D01*
X1286223Y515124D01*
X1286367Y516132D01*
X1286584Y517126D01*
X1286871Y518103D01*
X1287226Y519057D01*
X1287649Y519983D01*
X1288137Y520876D01*
X1288687Y521732D01*
X1289297Y522547D01*
X1289964Y523316D01*
X1290684Y524036D01*
X1291453Y524703D01*
X1292268Y525313D01*
X1293124Y525863D01*
X1294017Y526351D01*
X1294943Y526774D01*
X1295897Y527129D01*
X1296874Y527416D01*
X1297868Y527633D01*
X1298876Y527777D01*
X1299891Y527850D01*
X1300909Y527850D01*
X1300909Y745250D02*
X1301924Y745177D01*
X1302932Y745033D01*
X1303926Y744816D01*
X1304903Y744529D01*
X1305857Y744174D01*
X1306783Y743751D01*
X1307676Y743263D01*
X1308532Y742713D01*
X1309347Y742103D01*
X1310116Y741436D01*
X1310836Y740716D01*
X1311503Y739947D01*
X1312113Y739132D01*
X1312663Y738276D01*
X1313151Y737383D01*
X1313574Y736457D01*
X1313929Y735503D01*
X1314216Y734526D01*
X1314433Y733532D01*
X1314577Y732524D01*
X1314650Y731509D01*
X1314650Y730491D01*
X1314577Y729476D01*
X1314433Y728468D01*
X1314216Y727474D01*
X1313929Y726497D01*
X1313574Y725543D01*
X1313151Y724617D01*
X1312663Y723724D01*
X1312113Y722868D01*
X1311503Y722053D01*
X1310836Y721284D01*
X1310116Y720564D01*
X1309347Y719897D01*
X1308532Y719287D01*
X1307676Y718737D01*
X1306783Y718249D01*
X1305857Y717826D01*
X1304903Y717471D01*
X1303926Y717184D01*
X1302932Y716967D01*
X1301924Y716823D01*
X1300909Y716750D01*
X1299891Y716750D01*
X1298876Y716823D01*
X1297868Y716967D01*
X1296874Y717184D01*
X1295897Y717471D01*
X1294943Y717826D01*
X1294017Y718249D01*
X1293124Y718737D01*
X1292268Y719287D01*
X1291453Y719897D01*
X1290684Y720564D01*
X1289964Y721284D01*
X1289297Y722053D01*
X1288687Y722868D01*
X1288137Y723724D01*
X1287649Y724617D01*
X1287226Y725543D01*
X1286871Y726497D01*
X1286584Y727474D01*
X1286367Y728468D01*
X1286223Y729476D01*
X1286150Y730491D01*
X1286150Y731509D01*
X1286223Y732524D01*
X1286367Y733532D01*
X1286584Y734526D01*
X1286871Y735503D01*
X1287226Y736457D01*
X1287649Y737383D01*
X1288137Y738276D01*
X1288687Y739132D01*
X1289297Y739947D01*
X1289964Y740716D01*
X1290684Y741436D01*
X1291453Y742103D01*
X1292268Y742713D01*
X1293124Y743263D01*
X1294017Y743751D01*
X1294943Y744174D01*
X1295897Y744529D01*
X1296874Y744816D01*
X1297868Y745033D01*
X1298876Y745177D01*
X1299891Y745250D01*
X1300909Y745250D01*
X1300909Y1315250D02*
X1301924Y1315177D01*
X1302932Y1315033D01*
X1303926Y1314816D01*
X1304903Y1314529D01*
X1305857Y1314174D01*
X1306783Y1313751D01*
X1307676Y1313263D01*
X1308532Y1312713D01*
X1309347Y1312103D01*
X1310116Y1311436D01*
X1310836Y1310716D01*
X1311503Y1309947D01*
X1312113Y1309132D01*
X1312663Y1308276D01*
X1313151Y1307383D01*
X1313574Y1306457D01*
X1313929Y1305503D01*
X1314216Y1304526D01*
X1314433Y1303532D01*
X1314577Y1302524D01*
X1314650Y1301509D01*
X1314650Y1300491D01*
X1314577Y1299476D01*
X1314433Y1298468D01*
X1314216Y1297474D01*
X1313929Y1296497D01*
X1313574Y1295543D01*
X1313151Y1294617D01*
X1312663Y1293724D01*
X1312113Y1292868D01*
X1311503Y1292053D01*
X1310836Y1291284D01*
X1310116Y1290564D01*
X1309347Y1289897D01*
X1308532Y1289287D01*
X1307676Y1288737D01*
X1306783Y1288249D01*
X1305857Y1287826D01*
X1304903Y1287471D01*
X1303926Y1287184D01*
X1302932Y1286967D01*
X1301924Y1286823D01*
X1300909Y1286750D01*
X1299891Y1286750D01*
X1298876Y1286823D01*
X1297868Y1286967D01*
X1296874Y1287184D01*
X1295897Y1287471D01*
X1294943Y1287826D01*
X1294017Y1288249D01*
X1293124Y1288737D01*
X1292268Y1289287D01*
X1291453Y1289897D01*
X1290684Y1290564D01*
X1289964Y1291284D01*
X1289297Y1292053D01*
X1288687Y1292868D01*
X1288137Y1293724D01*
X1287649Y1294617D01*
X1287226Y1295543D01*
X1286871Y1296497D01*
X1286584Y1297474D01*
X1286367Y1298468D01*
X1286223Y1299476D01*
X1286150Y1300491D01*
X1286150Y1301509D01*
X1286223Y1302524D01*
X1286367Y1303532D01*
X1286584Y1304526D01*
X1286871Y1305503D01*
X1287226Y1306457D01*
X1287649Y1307383D01*
X1288137Y1308276D01*
X1288687Y1309132D01*
X1289297Y1309947D01*
X1289964Y1310716D01*
X1290684Y1311436D01*
X1291453Y1312103D01*
X1292268Y1312713D01*
X1293124Y1313263D01*
X1294017Y1313751D01*
X1294943Y1314174D01*
X1295897Y1314529D01*
X1296874Y1314816D01*
X1297868Y1315033D01*
X1298876Y1315177D01*
X1299891Y1315250D01*
X1300909Y1315250D01*
X-30909Y1286750D02*
X-31924Y1286823D01*
X-32932Y1286967D01*
X-33926Y1287184D01*
X-34903Y1287471D01*
X-35857Y1287826D01*
X-36783Y1288249D01*
X-37676Y1288737D01*
X-38532Y1289287D01*
X-39347Y1289897D01*
X-40116Y1290564D01*
X-40836Y1291284D01*
X-41503Y1292053D01*
X-42113Y1292868D01*
X-42663Y1293724D01*
X-43151Y1294617D01*
X-43574Y1295543D01*
X-43929Y1296497D01*
X-44216Y1297474D01*
X-44433Y1298468D01*
X-44577Y1299476D01*
X-44650Y1300491D01*
X-44650Y1301509D01*
X-44577Y1302524D01*
X-44433Y1303532D01*
X-44216Y1304526D01*
X-43929Y1305503D01*
X-43574Y1306457D01*
X-43151Y1307383D01*
X-42663Y1308276D01*
X-42113Y1309132D01*
X-41503Y1309947D01*
X-40836Y1310716D01*
X-40116Y1311436D01*
X-39347Y1312103D01*
X-38532Y1312713D01*
X-37676Y1313263D01*
X-36783Y1313751D01*
X-35857Y1314174D01*
X-34903Y1314529D01*
X-33926Y1314816D01*
X-32932Y1315033D01*
X-31924Y1315177D01*
X-30909Y1315250D01*
X-29891Y1315250D01*
X-28876Y1315177D01*
X-27868Y1315033D01*
X-26874Y1314816D01*
X-25897Y1314529D01*
X-24943Y1314174D01*
X-24017Y1313751D01*
X-23124Y1313263D01*
X-22268Y1312713D01*
X-21453Y1312103D01*
X-20684Y1311436D01*
X-19964Y1310716D01*
X-19297Y1309947D01*
X-18687Y1309132D01*
X-18137Y1308276D01*
X-17649Y1307383D01*
X-17226Y1306457D01*
X-16871Y1305503D01*
X-16584Y1304526D01*
X-16367Y1303532D01*
X-16223Y1302524D01*
X-16150Y1301509D01*
X-16150Y1300491D01*
X-16223Y1299476D01*
X-16367Y1298468D01*
X-16584Y1297474D01*
X-16871Y1296497D01*
X-17226Y1295543D01*
X-17649Y1294617D01*
X-18137Y1293724D01*
X-18687Y1292868D01*
X-19297Y1292053D01*
X-19964Y1291284D01*
X-20684Y1290564D01*
X-21453Y1289897D01*
X-22268Y1289287D01*
X-23124Y1288737D01*
X-24017Y1288249D01*
X-24943Y1287826D01*
X-25897Y1287471D01*
X-26874Y1287184D01*
X-27868Y1286967D01*
X-28876Y1286823D01*
X-29891Y1286750D01*
X-30909Y1286750D01*
X-30909Y716750D02*
X-31924Y716823D01*
X-32932Y716967D01*
X-33926Y717184D01*
X-34903Y717471D01*
X-35857Y717826D01*
X-36783Y718249D01*
X-37676Y718737D01*
X-38532Y719287D01*
X-39347Y719897D01*
X-40116Y720564D01*
X-40836Y721284D01*
X-41503Y722053D01*
X-42113Y722868D01*
X-42663Y723724D01*
X-43151Y724617D01*
X-43574Y725543D01*
X-43929Y726497D01*
X-44216Y727474D01*
X-44433Y728468D01*
X-44577Y729476D01*
X-44650Y730491D01*
X-44650Y731509D01*
X-44577Y732524D01*
X-44433Y733532D01*
X-44216Y734526D01*
X-43929Y735503D01*
X-43574Y736457D01*
X-43151Y737383D01*
X-42663Y738276D01*
X-42113Y739132D01*
X-41503Y739947D01*
X-40836Y740716D01*
X-40116Y741436D01*
X-39347Y742103D01*
X-38532Y742713D01*
X-37676Y743263D01*
X-36783Y743751D01*
X-35857Y744174D01*
X-34903Y744529D01*
X-33926Y744816D01*
X-32932Y745033D01*
X-31924Y745177D01*
X-30909Y745250D01*
X-29891Y745250D01*
X-28876Y745177D01*
X-27868Y745033D01*
X-26874Y744816D01*
X-25897Y744529D01*
X-24943Y744174D01*
X-24017Y743751D01*
X-23124Y743263D01*
X-22268Y742713D01*
X-21453Y742103D01*
X-20684Y741436D01*
X-19964Y740716D01*
X-19297Y739947D01*
X-18687Y739132D01*
X-18137Y738276D01*
X-17649Y737383D01*
X-17226Y736457D01*
X-16871Y735503D01*
X-16584Y734526D01*
X-16367Y733532D01*
X-16223Y732524D01*
X-16150Y731509D01*
X-16150Y730491D01*
X-16223Y729476D01*
X-16367Y728468D01*
X-16584Y727474D01*
X-16871Y726497D01*
X-17226Y725543D01*
X-17649Y724617D01*
X-18137Y723724D01*
X-18687Y722868D01*
X-19297Y722053D01*
X-19964Y721284D01*
X-20684Y720564D01*
X-21453Y719897D01*
X-22268Y719287D01*
X-23124Y718737D01*
X-24017Y718249D01*
X-24943Y717826D01*
X-25897Y717471D01*
X-26874Y717184D01*
X-27868Y716967D01*
X-28876Y716823D01*
X-29891Y716750D01*
X-30909Y716750D01*
X-30909Y499350D02*
X-31924Y499423D01*
X-32932Y499567D01*
X-33926Y499784D01*
X-34903Y500071D01*
X-35857Y500426D01*
X-36783Y500849D01*
X-37676Y501337D01*
X-38532Y501887D01*
X-39347Y502497D01*
X-40116Y503164D01*
X-40836Y503884D01*
X-41503Y504653D01*
X-42113Y505468D01*
X-42663Y506324D01*
X-43151Y507217D01*
X-43574Y508143D01*
X-43929Y509097D01*
X-44216Y510074D01*
X-44433Y511068D01*
X-44577Y512076D01*
X-44650Y513091D01*
X-44650Y514109D01*
X-44577Y515124D01*
X-44433Y516132D01*
X-44216Y517126D01*
X-43929Y518103D01*
X-43574Y519057D01*
X-43151Y519983D01*
X-42663Y520876D01*
X-42113Y521732D01*
X-41503Y522547D01*
X-40836Y523316D01*
X-40116Y524036D01*
X-39347Y524703D01*
X-38532Y525313D01*
X-37676Y525863D01*
X-36783Y526351D01*
X-35857Y526774D01*
X-34903Y527129D01*
X-33926Y527416D01*
X-32932Y527633D01*
X-31924Y527777D01*
X-30909Y527850D01*
X-29891Y527850D01*
X-28876Y527777D01*
X-27868Y527633D01*
X-26874Y527416D01*
X-25897Y527129D01*
X-24943Y526774D01*
X-24017Y526351D01*
X-23124Y525863D01*
X-22268Y525313D01*
X-21453Y524703D01*
X-20684Y524036D01*
X-19964Y523316D01*
X-19297Y522547D01*
X-18687Y521732D01*
X-18137Y520876D01*
X-17649Y519983D01*
X-17226Y519057D01*
X-16871Y518103D01*
X-16584Y517126D01*
X-16367Y516132D01*
X-16223Y515124D01*
X-16150Y514109D01*
X-16150Y513091D01*
X-16223Y512076D01*
X-16367Y511068D01*
X-16584Y510074D01*
X-16871Y509097D01*
X-17226Y508143D01*
X-17649Y507217D01*
X-18137Y506324D01*
X-18687Y505468D01*
X-19297Y504653D01*
X-19964Y503884D01*
X-20684Y503164D01*
X-21453Y502497D01*
X-22268Y501887D01*
X-23124Y501337D01*
X-24017Y500849D01*
X-24943Y500426D01*
X-25897Y500071D01*
X-26874Y499784D01*
X-27868Y499567D01*
X-28876Y499423D01*
X-29891Y499350D01*
X-30909Y499350D01*
X-30909Y-70650D02*
X-31924Y-70577D01*
X-32932Y-70433D01*
X-33926Y-70216D01*
X-34903Y-69929D01*
X-35857Y-69574D01*
X-36783Y-69151D01*
X-37676Y-68663D01*
X-38532Y-68113D01*
X-39347Y-67503D01*
X-40116Y-66836D01*
X-40836Y-66116D01*
X-41503Y-65347D01*
X-42113Y-64532D01*
X-42663Y-63676D01*
X-43151Y-62783D01*
X-43574Y-61857D01*
X-43929Y-60903D01*
X-44216Y-59926D01*
X-44433Y-58932D01*
X-44577Y-57924D01*
X-44650Y-56909D01*
X-44650Y-55891D01*
X-44577Y-54876D01*
X-44433Y-53868D01*
X-44216Y-52874D01*
X-43929Y-51897D01*
X-43574Y-50943D01*
X-43151Y-50017D01*
X-42663Y-49124D01*
X-42113Y-48268D01*
X-41503Y-47453D01*
X-40836Y-46684D01*
X-40116Y-45964D01*
X-39347Y-45297D01*
X-38532Y-44687D01*
X-37676Y-44137D01*
X-36783Y-43649D01*
X-35857Y-43226D01*
X-34903Y-42871D01*
X-33926Y-42584D01*
X-32932Y-42367D01*
X-31924Y-42223D01*
X-30909Y-42150D01*
X-29891Y-42150D01*
X-28876Y-42223D01*
X-27868Y-42367D01*
X-26874Y-42584D01*
X-25897Y-42871D01*
X-24943Y-43226D01*
X-24017Y-43649D01*
X-23124Y-44137D01*
X-22268Y-44687D01*
X-21453Y-45297D01*
X-20684Y-45964D01*
X-19964Y-46684D01*
X-19297Y-47453D01*
X-18687Y-48268D01*
X-18137Y-49124D01*
X-17649Y-50017D01*
X-17226Y-50943D01*
X-16871Y-51897D01*
X-16584Y-52874D01*
X-16367Y-53868D01*
X-16223Y-54876D01*
X-16150Y-55891D01*
X-16150Y-56909D01*
X-16223Y-57924D01*
X-16367Y-58932D01*
X-16584Y-59926D01*
X-16871Y-60903D01*
X-17226Y-61857D01*
X-17649Y-62783D01*
X-18137Y-63676D01*
X-18687Y-64532D01*
X-19297Y-65347D01*
X-19964Y-66116D01*
X-20684Y-66836D01*
X-21453Y-67503D01*
X-22268Y-68113D01*
X-23124Y-68663D01*
X-24017Y-69151D01*
X-24943Y-69574D01*
X-25897Y-69929D01*
X-26874Y-70216D01*
X-27868Y-70433D01*
X-28876Y-70577D01*
X-29891Y-70650D01*
X-30909Y-70650D01*
M02*
