M48
;GenerationSoftware,Autodesk,EAGLE,9.1.3*%
;CreationDate,2020-03-05T03:51:44Z*%
FMAT,2
ICI,OFF
METRIC,TZ,000.000
T6C0.350
T5C0.914
T4C1.016
T3C1.651
T2C1.750
T1C2.850
%
G90
M71
T1
X9980Y-4310
X50980Y-4310
T2
X44480Y190
X40480Y190
X36480Y190
X32480Y190
X28480Y190
X24480Y190
X38480Y-3810
X20480Y190
X16480Y190
X22480Y-3810
X34480Y-3810
X30480Y-3810
X44480Y-7810
X26480Y-3810
X18480Y-3810
X40480Y-7810
X36480Y-7810
X32480Y-7810
X28480Y-7810
X24480Y-7810
X20480Y-7810
X16480Y-7810
X42480Y-3810
T3
X41910Y22860
X41910Y38100
X1270Y38100
X1270Y22860
T4
X39370Y7620
X40640Y13970
X40640Y16510
X41910Y7620
T5
X26670Y22860
X29210Y22860
X31750Y22860
X36830Y22860
X39370Y22860
X3810Y38100
X6350Y38100
X8890Y38100
X11430Y38100
X13970Y38100
X16510Y38100
X19050Y38100
X21590Y38100
X24130Y38100
X26670Y38100
X29210Y38100
X34290Y38100
X36830Y38100
X39370Y38100
X31750Y38100
X34290Y22860
X3810Y22860
X6350Y22860
X8890Y22860
X11430Y22860
X13970Y22860
X16510Y22860
X19050Y22860
X21590Y22860
X24130Y22860
T6
X21031Y41148
X37795Y-10363
X42977Y-10363
X45720Y-10363
X11582Y32004
X28346Y27737
X25298Y29566
X13411Y17374
X48158Y26213
X49987Y24384
X47244Y10058
X30480Y8230
X27737Y5486
X21946Y3353
X20117Y5182
X29870Y-9144
X35357Y9754
X30480Y4877
X28042Y2438
X38710Y33528
X42062Y31699
X40234Y9754
X42062Y29870
X38100Y35662
X42062Y34747
X49987Y34747
X56998Y27737
X45415Y-5486
X53035Y3048
X53035Y10668
X25603Y3353
X25298Y4267
X27737Y6706
X30480Y9449
X32918Y11887
X41148Y27432
X42977Y31394
X44196Y40234
X38405Y26518
X33223Y12802
X17678Y3353
X37186Y31090
X36881Y34442
X17374Y-5791
M30