G04 EAGLE Gerber X2 export*
%TF.Part,Single*%
%TF.FileFunction,Profile,NP*%
%TF.FilePolarity,Positive*%
%TF.GenerationSoftware,Autodesk,EAGLE,9.1.3*%
%TF.CreationDate,2020-03-05T03:51:44Z*%
G75*
%MOMM*%
%FSLAX34Y34*%
%LPD*%
%AMOC8*
5,1,8,0,0,1.08239X$1,22.5*%
G01*
%ADD10C,0.254000*%


D10*
X0Y-127000D02*
X619000Y-127000D01*
X619000Y449480D01*
X0Y449480D01*
X0Y-127000D01*
X419506Y236855D02*
X420313Y236776D01*
X421108Y236617D01*
X421884Y236382D01*
X422634Y236071D01*
X423349Y235689D01*
X424023Y235238D01*
X424650Y234724D01*
X425224Y234150D01*
X425738Y233523D01*
X426189Y232849D01*
X426571Y232134D01*
X426882Y231384D01*
X427117Y230608D01*
X427276Y229813D01*
X427355Y229006D01*
X427355Y228194D01*
X427276Y227387D01*
X427117Y226592D01*
X426882Y225816D01*
X426571Y225066D01*
X426189Y224351D01*
X425738Y223677D01*
X425224Y223050D01*
X424650Y222476D01*
X424023Y221962D01*
X423349Y221511D01*
X422634Y221129D01*
X421884Y220818D01*
X421108Y220583D01*
X420313Y220425D01*
X419506Y220345D01*
X418694Y220345D01*
X417887Y220425D01*
X417092Y220583D01*
X416316Y220818D01*
X415566Y221129D01*
X414851Y221511D01*
X414177Y221962D01*
X413550Y222476D01*
X412976Y223050D01*
X412462Y223677D01*
X412011Y224351D01*
X411629Y225066D01*
X411318Y225816D01*
X411083Y226592D01*
X410925Y227387D01*
X410845Y228194D01*
X410845Y229006D01*
X410925Y229813D01*
X411083Y230608D01*
X411318Y231384D01*
X411629Y232134D01*
X412011Y232849D01*
X412462Y233523D01*
X412976Y234150D01*
X413550Y234724D01*
X414177Y235238D01*
X414851Y235689D01*
X415566Y236071D01*
X416316Y236382D01*
X417092Y236617D01*
X417887Y236776D01*
X418694Y236855D01*
X419506Y236855D01*
X419506Y389255D02*
X420313Y389176D01*
X421108Y389017D01*
X421884Y388782D01*
X422634Y388471D01*
X423349Y388089D01*
X424023Y387638D01*
X424650Y387124D01*
X425224Y386550D01*
X425738Y385923D01*
X426189Y385249D01*
X426571Y384534D01*
X426882Y383784D01*
X427117Y383008D01*
X427276Y382213D01*
X427355Y381406D01*
X427355Y380594D01*
X427276Y379787D01*
X427117Y378992D01*
X426882Y378216D01*
X426571Y377466D01*
X426189Y376751D01*
X425738Y376077D01*
X425224Y375450D01*
X424650Y374876D01*
X424023Y374362D01*
X423349Y373911D01*
X422634Y373529D01*
X421884Y373218D01*
X421108Y372983D01*
X420313Y372825D01*
X419506Y372745D01*
X418694Y372745D01*
X417887Y372825D01*
X417092Y372983D01*
X416316Y373218D01*
X415566Y373529D01*
X414851Y373911D01*
X414177Y374362D01*
X413550Y374876D01*
X412976Y375450D01*
X412462Y376077D01*
X412011Y376751D01*
X411629Y377466D01*
X411318Y378216D01*
X411083Y378992D01*
X410925Y379787D01*
X410845Y380594D01*
X410845Y381406D01*
X410925Y382213D01*
X411083Y383008D01*
X411318Y383784D01*
X411629Y384534D01*
X412011Y385249D01*
X412462Y385923D01*
X412976Y386550D01*
X413550Y387124D01*
X414177Y387638D01*
X414851Y388089D01*
X415566Y388471D01*
X416316Y388782D01*
X417092Y389017D01*
X417887Y389176D01*
X418694Y389255D01*
X419506Y389255D01*
X13106Y389255D02*
X13913Y389176D01*
X14708Y389017D01*
X15484Y388782D01*
X16234Y388471D01*
X16949Y388089D01*
X17623Y387638D01*
X18250Y387124D01*
X18824Y386550D01*
X19338Y385923D01*
X19789Y385249D01*
X20171Y384534D01*
X20482Y383784D01*
X20717Y383008D01*
X20876Y382213D01*
X20955Y381406D01*
X20955Y380594D01*
X20876Y379787D01*
X20717Y378992D01*
X20482Y378216D01*
X20171Y377466D01*
X19789Y376751D01*
X19338Y376077D01*
X18824Y375450D01*
X18250Y374876D01*
X17623Y374362D01*
X16949Y373911D01*
X16234Y373529D01*
X15484Y373218D01*
X14708Y372983D01*
X13913Y372825D01*
X13106Y372745D01*
X12294Y372745D01*
X11487Y372825D01*
X10692Y372983D01*
X9916Y373218D01*
X9166Y373529D01*
X8451Y373911D01*
X7777Y374362D01*
X7150Y374876D01*
X6576Y375450D01*
X6062Y376077D01*
X5611Y376751D01*
X5229Y377466D01*
X4918Y378216D01*
X4683Y378992D01*
X4525Y379787D01*
X4445Y380594D01*
X4445Y381406D01*
X4525Y382213D01*
X4683Y383008D01*
X4918Y383784D01*
X5229Y384534D01*
X5611Y385249D01*
X6062Y385923D01*
X6576Y386550D01*
X7150Y387124D01*
X7777Y387638D01*
X8451Y388089D01*
X9166Y388471D01*
X9916Y388782D01*
X10692Y389017D01*
X11487Y389176D01*
X12294Y389255D01*
X13106Y389255D01*
X13106Y236855D02*
X13913Y236776D01*
X14708Y236617D01*
X15484Y236382D01*
X16234Y236071D01*
X16949Y235689D01*
X17623Y235238D01*
X18250Y234724D01*
X18824Y234150D01*
X19338Y233523D01*
X19789Y232849D01*
X20171Y232134D01*
X20482Y231384D01*
X20717Y230608D01*
X20876Y229813D01*
X20955Y229006D01*
X20955Y228194D01*
X20876Y227387D01*
X20717Y226592D01*
X20482Y225816D01*
X20171Y225066D01*
X19789Y224351D01*
X19338Y223677D01*
X18824Y223050D01*
X18250Y222476D01*
X17623Y221962D01*
X16949Y221511D01*
X16234Y221129D01*
X15484Y220818D01*
X14708Y220583D01*
X13913Y220425D01*
X13106Y220345D01*
X12294Y220345D01*
X11487Y220425D01*
X10692Y220583D01*
X9916Y220818D01*
X9166Y221129D01*
X8451Y221511D01*
X7777Y221962D01*
X7150Y222476D01*
X6576Y223050D01*
X6062Y223677D01*
X5611Y224351D01*
X5229Y225066D01*
X4918Y225816D01*
X4683Y226592D01*
X4525Y227387D01*
X4445Y228194D01*
X4445Y229006D01*
X4525Y229813D01*
X4683Y230608D01*
X4918Y231384D01*
X5229Y232134D01*
X5611Y232849D01*
X6062Y233523D01*
X6576Y234150D01*
X7150Y234724D01*
X7777Y235238D01*
X8451Y235689D01*
X9166Y236071D01*
X9916Y236382D01*
X10692Y236617D01*
X11487Y236776D01*
X12294Y236855D01*
X13106Y236855D01*
X114050Y-43609D02*
X113977Y-44624D01*
X113833Y-45632D01*
X113616Y-46626D01*
X113329Y-47603D01*
X112974Y-48557D01*
X112551Y-49483D01*
X112063Y-50376D01*
X111513Y-51232D01*
X110903Y-52047D01*
X110236Y-52816D01*
X109516Y-53536D01*
X108747Y-54203D01*
X107932Y-54813D01*
X107076Y-55363D01*
X106183Y-55851D01*
X105257Y-56274D01*
X104303Y-56629D01*
X103326Y-56916D01*
X102332Y-57133D01*
X101324Y-57277D01*
X100309Y-57350D01*
X99291Y-57350D01*
X98276Y-57277D01*
X97268Y-57133D01*
X96274Y-56916D01*
X95297Y-56629D01*
X94343Y-56274D01*
X93417Y-55851D01*
X92524Y-55363D01*
X91668Y-54813D01*
X90853Y-54203D01*
X90084Y-53536D01*
X89364Y-52816D01*
X88697Y-52047D01*
X88087Y-51232D01*
X87537Y-50376D01*
X87049Y-49483D01*
X86626Y-48557D01*
X86271Y-47603D01*
X85984Y-46626D01*
X85767Y-45632D01*
X85623Y-44624D01*
X85550Y-43609D01*
X85550Y-42591D01*
X85623Y-41576D01*
X85767Y-40568D01*
X85984Y-39574D01*
X86271Y-38597D01*
X86626Y-37643D01*
X87049Y-36717D01*
X87537Y-35824D01*
X88087Y-34968D01*
X88697Y-34153D01*
X89364Y-33384D01*
X90084Y-32664D01*
X90853Y-31997D01*
X91668Y-31387D01*
X92524Y-30837D01*
X93417Y-30349D01*
X94343Y-29926D01*
X95297Y-29571D01*
X96274Y-29284D01*
X97268Y-29067D01*
X98276Y-28923D01*
X99291Y-28850D01*
X100309Y-28850D01*
X101324Y-28923D01*
X102332Y-29067D01*
X103326Y-29284D01*
X104303Y-29571D01*
X105257Y-29926D01*
X106183Y-30349D01*
X107076Y-30837D01*
X107932Y-31387D01*
X108747Y-31997D01*
X109516Y-32664D01*
X110236Y-33384D01*
X110903Y-34153D01*
X111513Y-34968D01*
X112063Y-35824D01*
X112551Y-36717D01*
X112974Y-37643D01*
X113329Y-38597D01*
X113616Y-39574D01*
X113833Y-40568D01*
X113977Y-41576D01*
X114050Y-42591D01*
X114050Y-43609D01*
X524050Y-43609D02*
X523977Y-44624D01*
X523833Y-45632D01*
X523616Y-46626D01*
X523329Y-47603D01*
X522974Y-48557D01*
X522551Y-49483D01*
X522063Y-50376D01*
X521513Y-51232D01*
X520903Y-52047D01*
X520236Y-52816D01*
X519516Y-53536D01*
X518747Y-54203D01*
X517932Y-54813D01*
X517076Y-55363D01*
X516183Y-55851D01*
X515257Y-56274D01*
X514303Y-56629D01*
X513326Y-56916D01*
X512332Y-57133D01*
X511324Y-57277D01*
X510309Y-57350D01*
X509291Y-57350D01*
X508276Y-57277D01*
X507268Y-57133D01*
X506274Y-56916D01*
X505297Y-56629D01*
X504343Y-56274D01*
X503417Y-55851D01*
X502524Y-55363D01*
X501668Y-54813D01*
X500853Y-54203D01*
X500084Y-53536D01*
X499364Y-52816D01*
X498697Y-52047D01*
X498087Y-51232D01*
X497537Y-50376D01*
X497049Y-49483D01*
X496626Y-48557D01*
X496271Y-47603D01*
X495984Y-46626D01*
X495767Y-45632D01*
X495623Y-44624D01*
X495550Y-43609D01*
X495550Y-42591D01*
X495623Y-41576D01*
X495767Y-40568D01*
X495984Y-39574D01*
X496271Y-38597D01*
X496626Y-37643D01*
X497049Y-36717D01*
X497537Y-35824D01*
X498087Y-34968D01*
X498697Y-34153D01*
X499364Y-33384D01*
X500084Y-32664D01*
X500853Y-31997D01*
X501668Y-31387D01*
X502524Y-30837D01*
X503417Y-30349D01*
X504343Y-29926D01*
X505297Y-29571D01*
X506274Y-29284D01*
X507268Y-29067D01*
X508276Y-28923D01*
X509291Y-28850D01*
X510309Y-28850D01*
X511324Y-28923D01*
X512332Y-29067D01*
X513326Y-29284D01*
X514303Y-29571D01*
X515257Y-29926D01*
X516183Y-30349D01*
X517076Y-30837D01*
X517932Y-31387D01*
X518747Y-31997D01*
X519516Y-32664D01*
X520236Y-33384D01*
X520903Y-34153D01*
X521513Y-34968D01*
X522063Y-35824D01*
X522551Y-36717D01*
X522974Y-37643D01*
X523329Y-38597D01*
X523616Y-39574D01*
X523833Y-40568D01*
X523977Y-41576D01*
X524050Y-42591D01*
X524050Y-43609D01*
M02*
