G04 EAGLE Gerber X2 export*
%TF.Part,Single*%
%TF.FileFunction,Legend,Top,1*%
%TF.FilePolarity,Positive*%
%TF.GenerationSoftware,Autodesk,EAGLE,9.1.3*%
%TF.CreationDate,2020-03-05T03:51:44Z*%
G75*
%MOMM*%
%FSLAX34Y34*%
%LPD*%
%AMOC8*
5,1,8,0,0,1.08239X$1,22.5*%
G01*
%ADD10C,0.101600*%
%ADD11R,0.200000X0.200000*%
%ADD12R,0.150000X0.250000*%
%ADD13C,0.152400*%
%ADD14C,0.127000*%
%ADD15C,0.000000*%
%ADD16C,0.076200*%
%ADD17C,0.400000*%
%ADD18R,0.250000X0.150000*%
%ADD19C,0.200000*%


D10*
X440817Y111225D02*
X429133Y111225D01*
X429133Y114471D01*
X429135Y114584D01*
X429141Y114697D01*
X429151Y114810D01*
X429165Y114923D01*
X429182Y115035D01*
X429204Y115146D01*
X429229Y115256D01*
X429259Y115366D01*
X429292Y115474D01*
X429329Y115581D01*
X429369Y115687D01*
X429414Y115791D01*
X429462Y115894D01*
X429513Y115995D01*
X429568Y116094D01*
X429626Y116191D01*
X429688Y116286D01*
X429753Y116379D01*
X429821Y116469D01*
X429892Y116557D01*
X429967Y116643D01*
X430044Y116726D01*
X430124Y116806D01*
X430207Y116883D01*
X430293Y116958D01*
X430381Y117029D01*
X430471Y117097D01*
X430564Y117162D01*
X430659Y117224D01*
X430756Y117282D01*
X430855Y117337D01*
X430956Y117388D01*
X431059Y117436D01*
X431163Y117481D01*
X431269Y117521D01*
X431376Y117558D01*
X431484Y117591D01*
X431594Y117621D01*
X431704Y117646D01*
X431815Y117668D01*
X431927Y117685D01*
X432040Y117699D01*
X432153Y117709D01*
X432266Y117715D01*
X432379Y117717D01*
X432492Y117715D01*
X432605Y117709D01*
X432718Y117699D01*
X432831Y117685D01*
X432943Y117668D01*
X433054Y117646D01*
X433164Y117621D01*
X433274Y117591D01*
X433382Y117558D01*
X433489Y117521D01*
X433595Y117481D01*
X433699Y117436D01*
X433802Y117388D01*
X433903Y117337D01*
X434002Y117282D01*
X434099Y117224D01*
X434194Y117162D01*
X434287Y117097D01*
X434377Y117029D01*
X434465Y116958D01*
X434551Y116883D01*
X434634Y116806D01*
X434714Y116726D01*
X434791Y116643D01*
X434866Y116557D01*
X434937Y116469D01*
X435005Y116379D01*
X435070Y116286D01*
X435132Y116191D01*
X435190Y116094D01*
X435245Y115995D01*
X435296Y115894D01*
X435344Y115791D01*
X435389Y115687D01*
X435429Y115581D01*
X435466Y115474D01*
X435499Y115366D01*
X435529Y115256D01*
X435554Y115146D01*
X435576Y115035D01*
X435593Y114923D01*
X435607Y114810D01*
X435617Y114697D01*
X435623Y114584D01*
X435625Y114471D01*
X435624Y114471D02*
X435624Y111225D01*
X435624Y115120D02*
X440817Y117716D01*
X440817Y124416D02*
X440817Y127662D01*
X440817Y124416D02*
X440815Y124329D01*
X440809Y124241D01*
X440799Y124155D01*
X440786Y124068D01*
X440768Y123983D01*
X440747Y123898D01*
X440722Y123814D01*
X440693Y123732D01*
X440660Y123651D01*
X440624Y123571D01*
X440585Y123493D01*
X440541Y123417D01*
X440495Y123343D01*
X440445Y123272D01*
X440392Y123202D01*
X440336Y123135D01*
X440277Y123071D01*
X440215Y123009D01*
X440151Y122950D01*
X440084Y122894D01*
X440014Y122841D01*
X439943Y122791D01*
X439869Y122745D01*
X439793Y122701D01*
X439715Y122662D01*
X439635Y122626D01*
X439554Y122593D01*
X439472Y122564D01*
X439388Y122539D01*
X439303Y122518D01*
X439218Y122500D01*
X439131Y122487D01*
X439045Y122477D01*
X438957Y122471D01*
X438870Y122469D01*
X435624Y122469D01*
X435523Y122471D01*
X435423Y122477D01*
X435323Y122487D01*
X435223Y122500D01*
X435124Y122518D01*
X435025Y122539D01*
X434928Y122564D01*
X434831Y122593D01*
X434736Y122626D01*
X434642Y122662D01*
X434550Y122702D01*
X434459Y122745D01*
X434370Y122792D01*
X434283Y122842D01*
X434197Y122896D01*
X434114Y122953D01*
X434034Y123013D01*
X433955Y123076D01*
X433879Y123143D01*
X433806Y123212D01*
X433736Y123284D01*
X433668Y123358D01*
X433603Y123435D01*
X433542Y123515D01*
X433483Y123597D01*
X433428Y123681D01*
X433376Y123767D01*
X433327Y123855D01*
X433282Y123945D01*
X433240Y124037D01*
X433202Y124130D01*
X433168Y124225D01*
X433137Y124320D01*
X433110Y124417D01*
X433087Y124515D01*
X433067Y124614D01*
X433052Y124714D01*
X433040Y124814D01*
X433032Y124914D01*
X433028Y125015D01*
X433028Y125115D01*
X433032Y125216D01*
X433040Y125316D01*
X433052Y125416D01*
X433067Y125516D01*
X433087Y125615D01*
X433110Y125713D01*
X433137Y125810D01*
X433168Y125905D01*
X433202Y126000D01*
X433240Y126093D01*
X433282Y126185D01*
X433327Y126275D01*
X433376Y126363D01*
X433428Y126449D01*
X433483Y126533D01*
X433542Y126615D01*
X433603Y126695D01*
X433668Y126772D01*
X433736Y126846D01*
X433806Y126918D01*
X433879Y126987D01*
X433955Y127054D01*
X434034Y127117D01*
X434114Y127177D01*
X434197Y127234D01*
X434283Y127288D01*
X434370Y127338D01*
X434459Y127385D01*
X434550Y127428D01*
X434642Y127468D01*
X434736Y127504D01*
X434831Y127537D01*
X434928Y127566D01*
X435025Y127591D01*
X435124Y127612D01*
X435223Y127630D01*
X435323Y127643D01*
X435423Y127653D01*
X435523Y127659D01*
X435624Y127661D01*
X435624Y127662D02*
X436922Y127662D01*
X436922Y122469D01*
X433028Y132982D02*
X440817Y132982D01*
X433028Y132982D02*
X433028Y138824D01*
X433030Y138911D01*
X433036Y138999D01*
X433046Y139085D01*
X433059Y139172D01*
X433077Y139257D01*
X433098Y139342D01*
X433123Y139426D01*
X433152Y139508D01*
X433185Y139589D01*
X433221Y139669D01*
X433260Y139747D01*
X433304Y139823D01*
X433350Y139897D01*
X433400Y139968D01*
X433453Y140038D01*
X433509Y140105D01*
X433568Y140169D01*
X433630Y140231D01*
X433694Y140290D01*
X433761Y140346D01*
X433831Y140399D01*
X433902Y140449D01*
X433976Y140495D01*
X434052Y140539D01*
X434130Y140578D01*
X434210Y140614D01*
X434291Y140647D01*
X434373Y140676D01*
X434457Y140701D01*
X434542Y140722D01*
X434627Y140740D01*
X434714Y140753D01*
X434800Y140763D01*
X434888Y140769D01*
X434975Y140771D01*
X440817Y140771D01*
X440817Y136876D02*
X433028Y136876D01*
X435624Y146091D02*
X438221Y146091D01*
X435624Y146091D02*
X435523Y146093D01*
X435423Y146099D01*
X435323Y146109D01*
X435223Y146122D01*
X435124Y146140D01*
X435025Y146161D01*
X434928Y146186D01*
X434831Y146215D01*
X434736Y146248D01*
X434642Y146284D01*
X434550Y146324D01*
X434459Y146367D01*
X434370Y146414D01*
X434283Y146464D01*
X434197Y146518D01*
X434114Y146575D01*
X434034Y146635D01*
X433955Y146698D01*
X433879Y146765D01*
X433806Y146834D01*
X433736Y146906D01*
X433668Y146980D01*
X433603Y147057D01*
X433542Y147137D01*
X433483Y147219D01*
X433428Y147303D01*
X433376Y147389D01*
X433327Y147477D01*
X433282Y147567D01*
X433240Y147659D01*
X433202Y147752D01*
X433168Y147847D01*
X433137Y147942D01*
X433110Y148039D01*
X433087Y148137D01*
X433067Y148236D01*
X433052Y148336D01*
X433040Y148436D01*
X433032Y148536D01*
X433028Y148637D01*
X433028Y148737D01*
X433032Y148838D01*
X433040Y148938D01*
X433052Y149038D01*
X433067Y149138D01*
X433087Y149237D01*
X433110Y149335D01*
X433137Y149432D01*
X433168Y149527D01*
X433202Y149622D01*
X433240Y149715D01*
X433282Y149807D01*
X433327Y149897D01*
X433376Y149985D01*
X433428Y150071D01*
X433483Y150155D01*
X433542Y150237D01*
X433603Y150317D01*
X433668Y150394D01*
X433736Y150468D01*
X433806Y150540D01*
X433879Y150609D01*
X433955Y150676D01*
X434034Y150739D01*
X434114Y150799D01*
X434197Y150856D01*
X434283Y150910D01*
X434370Y150960D01*
X434459Y151007D01*
X434550Y151050D01*
X434642Y151090D01*
X434736Y151126D01*
X434831Y151159D01*
X434928Y151188D01*
X435025Y151213D01*
X435124Y151234D01*
X435223Y151252D01*
X435323Y151265D01*
X435423Y151275D01*
X435523Y151281D01*
X435624Y151283D01*
X435624Y151284D02*
X438221Y151284D01*
X438221Y151283D02*
X438322Y151281D01*
X438422Y151275D01*
X438522Y151265D01*
X438622Y151252D01*
X438721Y151234D01*
X438820Y151213D01*
X438917Y151188D01*
X439014Y151159D01*
X439109Y151126D01*
X439203Y151090D01*
X439295Y151050D01*
X439386Y151007D01*
X439475Y150960D01*
X439562Y150910D01*
X439648Y150856D01*
X439731Y150799D01*
X439811Y150739D01*
X439890Y150676D01*
X439966Y150609D01*
X440039Y150540D01*
X440109Y150468D01*
X440177Y150394D01*
X440242Y150317D01*
X440303Y150237D01*
X440362Y150155D01*
X440417Y150071D01*
X440469Y149985D01*
X440518Y149897D01*
X440563Y149807D01*
X440605Y149715D01*
X440643Y149622D01*
X440677Y149527D01*
X440708Y149432D01*
X440735Y149335D01*
X440758Y149237D01*
X440778Y149138D01*
X440793Y149038D01*
X440805Y148938D01*
X440813Y148838D01*
X440817Y148737D01*
X440817Y148637D01*
X440813Y148536D01*
X440805Y148436D01*
X440793Y148336D01*
X440778Y148236D01*
X440758Y148137D01*
X440735Y148039D01*
X440708Y147942D01*
X440677Y147847D01*
X440643Y147752D01*
X440605Y147659D01*
X440563Y147567D01*
X440518Y147477D01*
X440469Y147389D01*
X440417Y147303D01*
X440362Y147219D01*
X440303Y147137D01*
X440242Y147057D01*
X440177Y146980D01*
X440109Y146906D01*
X440039Y146834D01*
X439966Y146765D01*
X439890Y146698D01*
X439811Y146635D01*
X439731Y146575D01*
X439648Y146518D01*
X439562Y146464D01*
X439475Y146414D01*
X439386Y146367D01*
X439295Y146324D01*
X439203Y146284D01*
X439109Y146248D01*
X439014Y146215D01*
X438917Y146186D01*
X438820Y146161D01*
X438721Y146140D01*
X438622Y146122D01*
X438522Y146109D01*
X438422Y146099D01*
X438322Y146093D01*
X438221Y146091D01*
X433028Y155616D02*
X440817Y158212D01*
X433028Y160809D01*
X440817Y167088D02*
X440817Y170334D01*
X440817Y167088D02*
X440815Y167001D01*
X440809Y166913D01*
X440799Y166827D01*
X440786Y166740D01*
X440768Y166655D01*
X440747Y166570D01*
X440722Y166486D01*
X440693Y166404D01*
X440660Y166323D01*
X440624Y166243D01*
X440585Y166165D01*
X440541Y166089D01*
X440495Y166015D01*
X440445Y165944D01*
X440392Y165874D01*
X440336Y165807D01*
X440277Y165743D01*
X440215Y165681D01*
X440151Y165622D01*
X440084Y165566D01*
X440014Y165513D01*
X439943Y165463D01*
X439869Y165417D01*
X439793Y165373D01*
X439715Y165334D01*
X439635Y165298D01*
X439554Y165265D01*
X439472Y165236D01*
X439388Y165211D01*
X439303Y165190D01*
X439218Y165172D01*
X439131Y165159D01*
X439045Y165149D01*
X438957Y165143D01*
X438870Y165141D01*
X435624Y165141D01*
X435523Y165143D01*
X435423Y165149D01*
X435323Y165159D01*
X435223Y165172D01*
X435124Y165190D01*
X435025Y165211D01*
X434928Y165236D01*
X434831Y165265D01*
X434736Y165298D01*
X434642Y165334D01*
X434550Y165374D01*
X434459Y165417D01*
X434370Y165464D01*
X434283Y165514D01*
X434197Y165568D01*
X434114Y165625D01*
X434034Y165685D01*
X433955Y165748D01*
X433879Y165815D01*
X433806Y165884D01*
X433736Y165956D01*
X433668Y166030D01*
X433603Y166107D01*
X433542Y166187D01*
X433483Y166269D01*
X433428Y166353D01*
X433376Y166439D01*
X433327Y166527D01*
X433282Y166617D01*
X433240Y166709D01*
X433202Y166802D01*
X433168Y166897D01*
X433137Y166992D01*
X433110Y167089D01*
X433087Y167187D01*
X433067Y167286D01*
X433052Y167386D01*
X433040Y167486D01*
X433032Y167586D01*
X433028Y167687D01*
X433028Y167787D01*
X433032Y167888D01*
X433040Y167988D01*
X433052Y168088D01*
X433067Y168188D01*
X433087Y168287D01*
X433110Y168385D01*
X433137Y168482D01*
X433168Y168577D01*
X433202Y168672D01*
X433240Y168765D01*
X433282Y168857D01*
X433327Y168947D01*
X433376Y169035D01*
X433428Y169121D01*
X433483Y169205D01*
X433542Y169287D01*
X433603Y169367D01*
X433668Y169444D01*
X433736Y169518D01*
X433806Y169590D01*
X433879Y169659D01*
X433955Y169726D01*
X434034Y169789D01*
X434114Y169849D01*
X434197Y169906D01*
X434283Y169960D01*
X434370Y170010D01*
X434459Y170057D01*
X434550Y170100D01*
X434642Y170140D01*
X434736Y170176D01*
X434831Y170209D01*
X434928Y170238D01*
X435025Y170263D01*
X435124Y170284D01*
X435223Y170302D01*
X435323Y170315D01*
X435423Y170325D01*
X435523Y170331D01*
X435624Y170333D01*
X435624Y170334D02*
X436922Y170334D01*
X436922Y165141D01*
X433028Y180176D02*
X433028Y184070D01*
X429133Y181474D02*
X438870Y181474D01*
X438957Y181476D01*
X439045Y181482D01*
X439131Y181492D01*
X439218Y181505D01*
X439303Y181523D01*
X439388Y181544D01*
X439472Y181569D01*
X439554Y181598D01*
X439635Y181631D01*
X439715Y181667D01*
X439793Y181706D01*
X439869Y181750D01*
X439943Y181796D01*
X440014Y181846D01*
X440084Y181899D01*
X440151Y181955D01*
X440215Y182014D01*
X440277Y182076D01*
X440336Y182140D01*
X440392Y182207D01*
X440445Y182277D01*
X440495Y182348D01*
X440541Y182422D01*
X440585Y182498D01*
X440624Y182576D01*
X440660Y182656D01*
X440693Y182737D01*
X440722Y182819D01*
X440747Y182903D01*
X440768Y182988D01*
X440786Y183073D01*
X440799Y183160D01*
X440809Y183246D01*
X440815Y183334D01*
X440817Y183421D01*
X440817Y184070D01*
X438221Y188382D02*
X435624Y188382D01*
X435523Y188384D01*
X435423Y188390D01*
X435323Y188400D01*
X435223Y188413D01*
X435124Y188431D01*
X435025Y188452D01*
X434928Y188477D01*
X434831Y188506D01*
X434736Y188539D01*
X434642Y188575D01*
X434550Y188615D01*
X434459Y188658D01*
X434370Y188705D01*
X434283Y188755D01*
X434197Y188809D01*
X434114Y188866D01*
X434034Y188926D01*
X433955Y188989D01*
X433879Y189056D01*
X433806Y189125D01*
X433736Y189197D01*
X433668Y189271D01*
X433603Y189348D01*
X433542Y189428D01*
X433483Y189510D01*
X433428Y189594D01*
X433376Y189680D01*
X433327Y189768D01*
X433282Y189858D01*
X433240Y189950D01*
X433202Y190043D01*
X433168Y190138D01*
X433137Y190233D01*
X433110Y190330D01*
X433087Y190428D01*
X433067Y190527D01*
X433052Y190627D01*
X433040Y190727D01*
X433032Y190827D01*
X433028Y190928D01*
X433028Y191028D01*
X433032Y191129D01*
X433040Y191229D01*
X433052Y191329D01*
X433067Y191429D01*
X433087Y191528D01*
X433110Y191626D01*
X433137Y191723D01*
X433168Y191818D01*
X433202Y191913D01*
X433240Y192006D01*
X433282Y192098D01*
X433327Y192188D01*
X433376Y192276D01*
X433428Y192362D01*
X433483Y192446D01*
X433542Y192528D01*
X433603Y192608D01*
X433668Y192685D01*
X433736Y192759D01*
X433806Y192831D01*
X433879Y192900D01*
X433955Y192967D01*
X434034Y193030D01*
X434114Y193090D01*
X434197Y193147D01*
X434283Y193201D01*
X434370Y193251D01*
X434459Y193298D01*
X434550Y193341D01*
X434642Y193381D01*
X434736Y193417D01*
X434831Y193450D01*
X434928Y193479D01*
X435025Y193504D01*
X435124Y193525D01*
X435223Y193543D01*
X435323Y193556D01*
X435423Y193566D01*
X435523Y193572D01*
X435624Y193574D01*
X435624Y193575D02*
X438221Y193575D01*
X438221Y193574D02*
X438322Y193572D01*
X438422Y193566D01*
X438522Y193556D01*
X438622Y193543D01*
X438721Y193525D01*
X438820Y193504D01*
X438917Y193479D01*
X439014Y193450D01*
X439109Y193417D01*
X439203Y193381D01*
X439295Y193341D01*
X439386Y193298D01*
X439475Y193251D01*
X439562Y193201D01*
X439648Y193147D01*
X439731Y193090D01*
X439811Y193030D01*
X439890Y192967D01*
X439966Y192900D01*
X440039Y192831D01*
X440109Y192759D01*
X440177Y192685D01*
X440242Y192608D01*
X440303Y192528D01*
X440362Y192446D01*
X440417Y192362D01*
X440469Y192276D01*
X440518Y192188D01*
X440563Y192098D01*
X440605Y192006D01*
X440643Y191913D01*
X440677Y191818D01*
X440708Y191723D01*
X440735Y191626D01*
X440758Y191528D01*
X440778Y191429D01*
X440793Y191329D01*
X440805Y191229D01*
X440813Y191129D01*
X440817Y191028D01*
X440817Y190928D01*
X440813Y190827D01*
X440805Y190727D01*
X440793Y190627D01*
X440778Y190527D01*
X440758Y190428D01*
X440735Y190330D01*
X440708Y190233D01*
X440677Y190138D01*
X440643Y190043D01*
X440605Y189950D01*
X440563Y189858D01*
X440518Y189768D01*
X440469Y189680D01*
X440417Y189594D01*
X440362Y189510D01*
X440303Y189428D01*
X440242Y189348D01*
X440177Y189271D01*
X440109Y189197D01*
X440039Y189125D01*
X439966Y189056D01*
X439890Y188989D01*
X439811Y188926D01*
X439731Y188866D01*
X439648Y188809D01*
X439562Y188755D01*
X439475Y188705D01*
X439386Y188658D01*
X439295Y188615D01*
X439203Y188575D01*
X439109Y188539D01*
X439014Y188506D01*
X438917Y188477D01*
X438820Y188452D01*
X438721Y188431D01*
X438622Y188413D01*
X438522Y188400D01*
X438422Y188390D01*
X438322Y188384D01*
X438221Y188382D01*
X448183Y119578D02*
X459867Y119578D01*
X448183Y119578D02*
X448183Y122823D01*
X448185Y122936D01*
X448191Y123049D01*
X448201Y123162D01*
X448215Y123275D01*
X448232Y123387D01*
X448254Y123498D01*
X448279Y123608D01*
X448309Y123718D01*
X448342Y123826D01*
X448379Y123933D01*
X448419Y124039D01*
X448464Y124143D01*
X448512Y124246D01*
X448563Y124347D01*
X448618Y124446D01*
X448676Y124543D01*
X448738Y124638D01*
X448803Y124731D01*
X448871Y124821D01*
X448942Y124909D01*
X449017Y124995D01*
X449094Y125078D01*
X449174Y125158D01*
X449257Y125235D01*
X449343Y125310D01*
X449431Y125381D01*
X449521Y125449D01*
X449614Y125514D01*
X449709Y125576D01*
X449806Y125634D01*
X449905Y125689D01*
X450006Y125740D01*
X450109Y125788D01*
X450213Y125833D01*
X450319Y125873D01*
X450426Y125910D01*
X450534Y125943D01*
X450644Y125973D01*
X450754Y125998D01*
X450865Y126020D01*
X450977Y126037D01*
X451090Y126051D01*
X451203Y126061D01*
X451316Y126067D01*
X451429Y126069D01*
X451542Y126067D01*
X451655Y126061D01*
X451768Y126051D01*
X451881Y126037D01*
X451993Y126020D01*
X452104Y125998D01*
X452214Y125973D01*
X452324Y125943D01*
X452432Y125910D01*
X452539Y125873D01*
X452645Y125833D01*
X452749Y125788D01*
X452852Y125740D01*
X452953Y125689D01*
X453052Y125634D01*
X453149Y125576D01*
X453244Y125514D01*
X453337Y125449D01*
X453427Y125381D01*
X453515Y125310D01*
X453601Y125235D01*
X453684Y125158D01*
X453764Y125078D01*
X453841Y124995D01*
X453916Y124909D01*
X453987Y124821D01*
X454055Y124731D01*
X454120Y124638D01*
X454182Y124543D01*
X454240Y124446D01*
X454295Y124347D01*
X454346Y124246D01*
X454394Y124143D01*
X454439Y124039D01*
X454479Y123933D01*
X454516Y123826D01*
X454549Y123718D01*
X454579Y123608D01*
X454604Y123498D01*
X454626Y123387D01*
X454643Y123275D01*
X454657Y123162D01*
X454667Y123049D01*
X454673Y122936D01*
X454675Y122823D01*
X454674Y122823D02*
X454674Y119578D01*
X452078Y130792D02*
X459867Y130792D01*
X452078Y130792D02*
X452078Y134686D01*
X453376Y134686D01*
X454674Y138345D02*
X457271Y138345D01*
X454674Y138346D02*
X454573Y138348D01*
X454473Y138354D01*
X454373Y138364D01*
X454273Y138377D01*
X454174Y138395D01*
X454075Y138416D01*
X453978Y138441D01*
X453881Y138470D01*
X453786Y138503D01*
X453692Y138539D01*
X453600Y138579D01*
X453509Y138622D01*
X453420Y138669D01*
X453333Y138719D01*
X453247Y138773D01*
X453164Y138830D01*
X453084Y138890D01*
X453005Y138953D01*
X452929Y139020D01*
X452856Y139089D01*
X452786Y139161D01*
X452718Y139235D01*
X452653Y139312D01*
X452592Y139392D01*
X452533Y139474D01*
X452478Y139558D01*
X452426Y139644D01*
X452377Y139732D01*
X452332Y139822D01*
X452290Y139914D01*
X452252Y140007D01*
X452218Y140102D01*
X452187Y140197D01*
X452160Y140294D01*
X452137Y140392D01*
X452117Y140491D01*
X452102Y140591D01*
X452090Y140691D01*
X452082Y140791D01*
X452078Y140892D01*
X452078Y140992D01*
X452082Y141093D01*
X452090Y141193D01*
X452102Y141293D01*
X452117Y141393D01*
X452137Y141492D01*
X452160Y141590D01*
X452187Y141687D01*
X452218Y141782D01*
X452252Y141877D01*
X452290Y141970D01*
X452332Y142062D01*
X452377Y142152D01*
X452426Y142240D01*
X452478Y142326D01*
X452533Y142410D01*
X452592Y142492D01*
X452653Y142572D01*
X452718Y142649D01*
X452786Y142723D01*
X452856Y142795D01*
X452929Y142864D01*
X453005Y142931D01*
X453084Y142994D01*
X453164Y143054D01*
X453247Y143111D01*
X453333Y143165D01*
X453420Y143215D01*
X453509Y143262D01*
X453600Y143305D01*
X453692Y143345D01*
X453786Y143381D01*
X453881Y143414D01*
X453978Y143443D01*
X454075Y143468D01*
X454174Y143489D01*
X454273Y143507D01*
X454373Y143520D01*
X454473Y143530D01*
X454573Y143536D01*
X454674Y143538D01*
X457271Y143538D01*
X457372Y143536D01*
X457472Y143530D01*
X457572Y143520D01*
X457672Y143507D01*
X457771Y143489D01*
X457870Y143468D01*
X457967Y143443D01*
X458064Y143414D01*
X458159Y143381D01*
X458253Y143345D01*
X458345Y143305D01*
X458436Y143262D01*
X458525Y143215D01*
X458612Y143165D01*
X458698Y143111D01*
X458781Y143054D01*
X458861Y142994D01*
X458940Y142931D01*
X459016Y142864D01*
X459089Y142795D01*
X459159Y142723D01*
X459227Y142649D01*
X459292Y142572D01*
X459353Y142492D01*
X459412Y142410D01*
X459467Y142326D01*
X459519Y142240D01*
X459568Y142152D01*
X459613Y142062D01*
X459655Y141970D01*
X459693Y141877D01*
X459727Y141782D01*
X459758Y141687D01*
X459785Y141590D01*
X459808Y141492D01*
X459828Y141393D01*
X459843Y141293D01*
X459855Y141193D01*
X459863Y141093D01*
X459867Y140992D01*
X459867Y140892D01*
X459863Y140791D01*
X459855Y140691D01*
X459843Y140591D01*
X459828Y140491D01*
X459808Y140392D01*
X459785Y140294D01*
X459758Y140197D01*
X459727Y140102D01*
X459693Y140007D01*
X459655Y139914D01*
X459613Y139822D01*
X459568Y139732D01*
X459519Y139644D01*
X459467Y139558D01*
X459412Y139474D01*
X459353Y139392D01*
X459292Y139312D01*
X459227Y139235D01*
X459159Y139161D01*
X459089Y139089D01*
X459016Y139020D01*
X458940Y138953D01*
X458861Y138890D01*
X458781Y138830D01*
X458698Y138773D01*
X458612Y138719D01*
X458525Y138669D01*
X458436Y138622D01*
X458345Y138579D01*
X458253Y138539D01*
X458159Y138503D01*
X458064Y138470D01*
X457967Y138441D01*
X457870Y138416D01*
X457771Y138395D01*
X457672Y138377D01*
X457572Y138364D01*
X457472Y138354D01*
X457372Y138348D01*
X457271Y138346D01*
X459867Y150140D02*
X459867Y153385D01*
X459867Y150140D02*
X459865Y150053D01*
X459859Y149965D01*
X459849Y149879D01*
X459836Y149792D01*
X459818Y149707D01*
X459797Y149622D01*
X459772Y149538D01*
X459743Y149456D01*
X459710Y149375D01*
X459674Y149295D01*
X459635Y149217D01*
X459591Y149141D01*
X459545Y149067D01*
X459495Y148996D01*
X459442Y148926D01*
X459386Y148859D01*
X459327Y148795D01*
X459265Y148733D01*
X459201Y148674D01*
X459134Y148618D01*
X459064Y148565D01*
X458993Y148515D01*
X458919Y148469D01*
X458843Y148425D01*
X458765Y148386D01*
X458685Y148350D01*
X458604Y148317D01*
X458522Y148288D01*
X458438Y148263D01*
X458353Y148242D01*
X458268Y148224D01*
X458181Y148211D01*
X458095Y148201D01*
X458007Y148195D01*
X457920Y148193D01*
X457920Y148192D02*
X454025Y148192D01*
X454025Y148193D02*
X453938Y148195D01*
X453850Y148201D01*
X453764Y148211D01*
X453677Y148224D01*
X453592Y148242D01*
X453507Y148263D01*
X453423Y148288D01*
X453341Y148317D01*
X453260Y148350D01*
X453180Y148386D01*
X453102Y148425D01*
X453026Y148469D01*
X452952Y148515D01*
X452881Y148565D01*
X452811Y148618D01*
X452744Y148674D01*
X452680Y148733D01*
X452618Y148795D01*
X452559Y148859D01*
X452503Y148926D01*
X452450Y148996D01*
X452400Y149067D01*
X452354Y149141D01*
X452310Y149217D01*
X452271Y149295D01*
X452235Y149375D01*
X452202Y149456D01*
X452173Y149538D01*
X452148Y149622D01*
X452127Y149707D01*
X452109Y149792D01*
X452096Y149879D01*
X452086Y149965D01*
X452080Y150053D01*
X452078Y150140D01*
X452078Y153385D01*
X461814Y153385D01*
X461901Y153383D01*
X461989Y153377D01*
X462075Y153367D01*
X462162Y153354D01*
X462247Y153336D01*
X462332Y153315D01*
X462416Y153290D01*
X462498Y153261D01*
X462579Y153228D01*
X462659Y153192D01*
X462737Y153153D01*
X462813Y153109D01*
X462887Y153063D01*
X462958Y153013D01*
X463028Y152960D01*
X463095Y152904D01*
X463159Y152845D01*
X463221Y152783D01*
X463280Y152719D01*
X463336Y152652D01*
X463389Y152582D01*
X463439Y152511D01*
X463485Y152437D01*
X463529Y152361D01*
X463568Y152283D01*
X463604Y152203D01*
X463637Y152122D01*
X463666Y152040D01*
X463691Y151956D01*
X463712Y151871D01*
X463730Y151786D01*
X463743Y151699D01*
X463753Y151613D01*
X463759Y151525D01*
X463761Y151438D01*
X463762Y151438D02*
X463762Y148842D01*
X459867Y158986D02*
X452078Y158986D01*
X452078Y162880D01*
X453376Y162880D01*
X455323Y168752D02*
X455323Y171673D01*
X455323Y168752D02*
X455325Y168658D01*
X455331Y168564D01*
X455340Y168471D01*
X455354Y168378D01*
X455371Y168286D01*
X455393Y168194D01*
X455417Y168104D01*
X455446Y168014D01*
X455478Y167926D01*
X455514Y167839D01*
X455554Y167754D01*
X455597Y167671D01*
X455643Y167589D01*
X455693Y167509D01*
X455746Y167432D01*
X455802Y167357D01*
X455861Y167284D01*
X455923Y167213D01*
X455988Y167145D01*
X456056Y167080D01*
X456127Y167018D01*
X456200Y166959D01*
X456275Y166903D01*
X456352Y166850D01*
X456432Y166800D01*
X456514Y166754D01*
X456597Y166711D01*
X456682Y166671D01*
X456769Y166635D01*
X456857Y166603D01*
X456947Y166574D01*
X457037Y166550D01*
X457129Y166528D01*
X457221Y166511D01*
X457314Y166497D01*
X457407Y166488D01*
X457501Y166482D01*
X457595Y166480D01*
X457689Y166482D01*
X457783Y166488D01*
X457876Y166497D01*
X457969Y166511D01*
X458061Y166528D01*
X458153Y166550D01*
X458243Y166574D01*
X458333Y166603D01*
X458421Y166635D01*
X458508Y166671D01*
X458593Y166711D01*
X458676Y166754D01*
X458758Y166800D01*
X458838Y166850D01*
X458915Y166903D01*
X458990Y166959D01*
X459063Y167018D01*
X459134Y167080D01*
X459202Y167145D01*
X459267Y167213D01*
X459329Y167284D01*
X459388Y167357D01*
X459444Y167432D01*
X459497Y167509D01*
X459547Y167589D01*
X459593Y167671D01*
X459636Y167754D01*
X459676Y167839D01*
X459712Y167926D01*
X459744Y168014D01*
X459773Y168104D01*
X459797Y168194D01*
X459819Y168286D01*
X459836Y168378D01*
X459850Y168471D01*
X459859Y168564D01*
X459865Y168658D01*
X459867Y168752D01*
X459867Y171673D01*
X454025Y171673D01*
X453938Y171671D01*
X453850Y171665D01*
X453764Y171655D01*
X453677Y171642D01*
X453592Y171624D01*
X453507Y171603D01*
X453423Y171578D01*
X453341Y171549D01*
X453260Y171516D01*
X453180Y171480D01*
X453102Y171441D01*
X453026Y171397D01*
X452952Y171351D01*
X452881Y171301D01*
X452811Y171248D01*
X452744Y171192D01*
X452680Y171133D01*
X452618Y171071D01*
X452559Y171007D01*
X452503Y170940D01*
X452450Y170870D01*
X452400Y170799D01*
X452354Y170725D01*
X452310Y170649D01*
X452271Y170571D01*
X452235Y170491D01*
X452202Y170410D01*
X452173Y170328D01*
X452148Y170244D01*
X452127Y170159D01*
X452109Y170074D01*
X452096Y169987D01*
X452086Y169901D01*
X452080Y169813D01*
X452078Y169726D01*
X452078Y167130D01*
X452078Y177433D02*
X459867Y177433D01*
X452078Y177433D02*
X452078Y183275D01*
X452080Y183362D01*
X452086Y183450D01*
X452096Y183536D01*
X452109Y183623D01*
X452127Y183708D01*
X452148Y183793D01*
X452173Y183877D01*
X452202Y183959D01*
X452235Y184040D01*
X452271Y184120D01*
X452310Y184198D01*
X452354Y184274D01*
X452400Y184348D01*
X452450Y184419D01*
X452503Y184489D01*
X452559Y184556D01*
X452618Y184620D01*
X452680Y184682D01*
X452744Y184741D01*
X452811Y184797D01*
X452881Y184850D01*
X452952Y184900D01*
X453026Y184946D01*
X453102Y184990D01*
X453180Y185029D01*
X453260Y185065D01*
X453341Y185098D01*
X453423Y185127D01*
X453507Y185152D01*
X453592Y185173D01*
X453677Y185191D01*
X453764Y185204D01*
X453850Y185214D01*
X453938Y185220D01*
X454025Y185222D01*
X459867Y185222D01*
X459867Y181328D02*
X452078Y181328D01*
X489800Y325200D02*
X489924Y325067D01*
X490052Y324937D01*
X490182Y324810D01*
X490316Y324686D01*
X490452Y324565D01*
X490592Y324448D01*
X490734Y324335D01*
X490879Y324225D01*
X491027Y324118D01*
X491177Y324015D01*
X491330Y323916D01*
X491485Y323821D01*
X491642Y323729D01*
X491802Y323642D01*
X491964Y323558D01*
X492127Y323478D01*
X492293Y323402D01*
X492460Y323331D01*
X492630Y323263D01*
X492800Y323200D01*
X492972Y323141D01*
X493146Y323086D01*
X493321Y323035D01*
X493497Y322989D01*
X493674Y322947D01*
X493852Y322909D01*
X494032Y322876D01*
X494211Y322847D01*
X494392Y322823D01*
X494573Y322803D01*
X494754Y322787D01*
X494936Y322776D01*
X495118Y322769D01*
X495300Y322767D01*
X495482Y322769D01*
X495664Y322776D01*
X495846Y322787D01*
X496027Y322803D01*
X496208Y322823D01*
X496389Y322847D01*
X496568Y322876D01*
X496748Y322909D01*
X496926Y322947D01*
X497103Y322989D01*
X497279Y323035D01*
X497454Y323086D01*
X497628Y323141D01*
X497800Y323200D01*
X497970Y323263D01*
X498140Y323331D01*
X498307Y323402D01*
X498473Y323478D01*
X498636Y323558D01*
X498798Y323642D01*
X498958Y323729D01*
X499115Y323821D01*
X499270Y323916D01*
X499423Y324015D01*
X499573Y324118D01*
X499721Y324225D01*
X499866Y324335D01*
X500008Y324448D01*
X500148Y324565D01*
X500284Y324686D01*
X500418Y324810D01*
X500548Y324937D01*
X500676Y325067D01*
X500800Y325200D01*
X500800Y335200D02*
X500676Y335333D01*
X500548Y335463D01*
X500418Y335590D01*
X500284Y335714D01*
X500148Y335835D01*
X500008Y335952D01*
X499866Y336065D01*
X499721Y336175D01*
X499573Y336282D01*
X499423Y336385D01*
X499270Y336484D01*
X499115Y336579D01*
X498958Y336671D01*
X498798Y336758D01*
X498636Y336842D01*
X498473Y336922D01*
X498307Y336998D01*
X498140Y337069D01*
X497970Y337137D01*
X497800Y337200D01*
X497628Y337259D01*
X497454Y337314D01*
X497279Y337365D01*
X497103Y337411D01*
X496926Y337453D01*
X496748Y337491D01*
X496568Y337524D01*
X496389Y337553D01*
X496208Y337577D01*
X496027Y337597D01*
X495846Y337613D01*
X495664Y337624D01*
X495482Y337631D01*
X495300Y337633D01*
X495118Y337631D01*
X494936Y337624D01*
X494754Y337613D01*
X494573Y337597D01*
X494392Y337577D01*
X494211Y337553D01*
X494032Y337524D01*
X493852Y337491D01*
X493674Y337453D01*
X493497Y337411D01*
X493321Y337365D01*
X493146Y337314D01*
X492972Y337259D01*
X492800Y337200D01*
X492630Y337137D01*
X492460Y337069D01*
X492293Y336998D01*
X492127Y336922D01*
X491964Y336842D01*
X491802Y336758D01*
X491642Y336671D01*
X491485Y336579D01*
X491330Y336484D01*
X491177Y336385D01*
X491027Y336282D01*
X490879Y336175D01*
X490734Y336065D01*
X490592Y335952D01*
X490452Y335835D01*
X490316Y335714D01*
X490182Y335590D01*
X490052Y335463D01*
X489924Y335333D01*
X489800Y335200D01*
D11*
X495300Y330200D03*
D12*
X500550Y324450D03*
D10*
X483108Y352496D02*
X486354Y355092D01*
X486354Y343408D01*
X489599Y343408D02*
X483108Y343408D01*
X498052Y343408D02*
X498151Y343410D01*
X498251Y343416D01*
X498350Y343425D01*
X498448Y343438D01*
X498546Y343455D01*
X498644Y343476D01*
X498740Y343501D01*
X498835Y343529D01*
X498929Y343561D01*
X499022Y343596D01*
X499114Y343635D01*
X499204Y343678D01*
X499292Y343723D01*
X499379Y343773D01*
X499463Y343825D01*
X499546Y343881D01*
X499626Y343939D01*
X499704Y344001D01*
X499779Y344066D01*
X499852Y344134D01*
X499922Y344204D01*
X499990Y344277D01*
X500055Y344352D01*
X500117Y344430D01*
X500175Y344510D01*
X500231Y344593D01*
X500283Y344677D01*
X500333Y344764D01*
X500378Y344852D01*
X500421Y344942D01*
X500460Y345034D01*
X500495Y345127D01*
X500527Y345221D01*
X500555Y345316D01*
X500580Y345412D01*
X500601Y345510D01*
X500618Y345608D01*
X500631Y345706D01*
X500640Y345805D01*
X500646Y345905D01*
X500648Y346004D01*
X498052Y343408D02*
X497908Y343410D01*
X497763Y343416D01*
X497619Y343425D01*
X497476Y343438D01*
X497332Y343455D01*
X497189Y343476D01*
X497047Y343501D01*
X496906Y343529D01*
X496765Y343561D01*
X496625Y343597D01*
X496486Y343636D01*
X496348Y343679D01*
X496212Y343726D01*
X496076Y343776D01*
X495942Y343830D01*
X495810Y343887D01*
X495679Y343948D01*
X495550Y344012D01*
X495422Y344080D01*
X495296Y344150D01*
X495172Y344225D01*
X495051Y344302D01*
X494931Y344383D01*
X494813Y344466D01*
X494698Y344553D01*
X494585Y344643D01*
X494474Y344736D01*
X494366Y344831D01*
X494260Y344930D01*
X494157Y345031D01*
X494482Y352496D02*
X494484Y352595D01*
X494490Y352695D01*
X494499Y352794D01*
X494512Y352892D01*
X494529Y352990D01*
X494550Y353088D01*
X494575Y353184D01*
X494603Y353279D01*
X494635Y353373D01*
X494670Y353466D01*
X494709Y353558D01*
X494752Y353648D01*
X494797Y353736D01*
X494847Y353823D01*
X494899Y353907D01*
X494955Y353990D01*
X495013Y354070D01*
X495075Y354148D01*
X495140Y354223D01*
X495208Y354296D01*
X495278Y354366D01*
X495351Y354434D01*
X495426Y354499D01*
X495504Y354561D01*
X495584Y354619D01*
X495667Y354675D01*
X495751Y354727D01*
X495838Y354777D01*
X495926Y354822D01*
X496016Y354865D01*
X496108Y354904D01*
X496201Y354939D01*
X496295Y354971D01*
X496390Y354999D01*
X496487Y355024D01*
X496584Y355045D01*
X496682Y355062D01*
X496780Y355075D01*
X496879Y355084D01*
X496979Y355090D01*
X497078Y355092D01*
X497214Y355090D01*
X497350Y355084D01*
X497486Y355075D01*
X497622Y355062D01*
X497757Y355044D01*
X497891Y355024D01*
X498025Y354999D01*
X498159Y354971D01*
X498291Y354938D01*
X498422Y354903D01*
X498553Y354863D01*
X498682Y354820D01*
X498810Y354774D01*
X498936Y354723D01*
X499062Y354670D01*
X499185Y354612D01*
X499307Y354552D01*
X499427Y354488D01*
X499546Y354420D01*
X499662Y354350D01*
X499776Y354276D01*
X499889Y354199D01*
X499999Y354118D01*
X495779Y350224D02*
X495693Y350277D01*
X495609Y350334D01*
X495527Y350393D01*
X495447Y350456D01*
X495370Y350522D01*
X495295Y350590D01*
X495223Y350662D01*
X495154Y350736D01*
X495088Y350813D01*
X495025Y350892D01*
X494965Y350974D01*
X494908Y351058D01*
X494854Y351144D01*
X494804Y351232D01*
X494757Y351322D01*
X494713Y351413D01*
X494674Y351507D01*
X494637Y351601D01*
X494605Y351697D01*
X494576Y351795D01*
X494551Y351893D01*
X494530Y351992D01*
X494512Y352092D01*
X494499Y352192D01*
X494489Y352293D01*
X494483Y352395D01*
X494481Y352496D01*
X499350Y348276D02*
X499436Y348223D01*
X499520Y348166D01*
X499602Y348107D01*
X499682Y348044D01*
X499759Y347978D01*
X499834Y347910D01*
X499906Y347838D01*
X499975Y347764D01*
X500041Y347687D01*
X500104Y347608D01*
X500164Y347526D01*
X500221Y347442D01*
X500275Y347356D01*
X500325Y347268D01*
X500372Y347178D01*
X500416Y347087D01*
X500455Y346993D01*
X500492Y346899D01*
X500524Y346803D01*
X500553Y346705D01*
X500578Y346607D01*
X500599Y346508D01*
X500617Y346408D01*
X500630Y346308D01*
X500640Y346207D01*
X500646Y346105D01*
X500648Y346004D01*
X499350Y348276D02*
X495780Y350224D01*
X507689Y355092D02*
X507689Y343408D01*
X504444Y355092D02*
X510935Y355092D01*
X514618Y342110D02*
X519811Y342110D01*
X529181Y349899D02*
X531128Y349899D01*
X531128Y343408D01*
X527233Y343408D01*
X527134Y343410D01*
X527034Y343416D01*
X526935Y343425D01*
X526837Y343438D01*
X526739Y343455D01*
X526641Y343476D01*
X526545Y343501D01*
X526450Y343529D01*
X526356Y343561D01*
X526263Y343596D01*
X526171Y343635D01*
X526081Y343678D01*
X525993Y343723D01*
X525906Y343773D01*
X525822Y343825D01*
X525739Y343881D01*
X525659Y343939D01*
X525581Y344001D01*
X525506Y344066D01*
X525433Y344134D01*
X525363Y344204D01*
X525295Y344277D01*
X525230Y344352D01*
X525168Y344430D01*
X525110Y344510D01*
X525054Y344593D01*
X525002Y344677D01*
X524952Y344764D01*
X524907Y344852D01*
X524864Y344942D01*
X524825Y345034D01*
X524790Y345127D01*
X524758Y345221D01*
X524730Y345316D01*
X524705Y345412D01*
X524684Y345510D01*
X524667Y345608D01*
X524654Y345706D01*
X524645Y345805D01*
X524639Y345905D01*
X524637Y346004D01*
X524637Y352496D01*
X524639Y352595D01*
X524645Y352695D01*
X524654Y352794D01*
X524667Y352892D01*
X524684Y352990D01*
X524705Y353088D01*
X524730Y353184D01*
X524758Y353279D01*
X524790Y353373D01*
X524825Y353466D01*
X524864Y353558D01*
X524907Y353648D01*
X524952Y353736D01*
X525002Y353823D01*
X525054Y353907D01*
X525110Y353990D01*
X525168Y354070D01*
X525230Y354148D01*
X525295Y354223D01*
X525363Y354296D01*
X525433Y354366D01*
X525506Y354434D01*
X525581Y354499D01*
X525659Y354561D01*
X525739Y354619D01*
X525822Y354675D01*
X525906Y354727D01*
X525993Y354777D01*
X526081Y354822D01*
X526171Y354865D01*
X526263Y354904D01*
X526355Y354939D01*
X526450Y354971D01*
X526545Y354999D01*
X526641Y355024D01*
X526739Y355045D01*
X526837Y355062D01*
X526935Y355075D01*
X527034Y355084D01*
X527134Y355090D01*
X527233Y355092D01*
X531128Y355092D01*
X536851Y343408D02*
X542044Y343408D01*
X536851Y343408D02*
X536851Y355092D01*
X542044Y355092D01*
X540746Y349899D02*
X536851Y349899D01*
X545705Y343408D02*
X549599Y355092D01*
X553494Y343408D01*
X552520Y346329D02*
X546678Y346329D01*
X558239Y343408D02*
X558239Y355092D01*
X561484Y355092D01*
X561597Y355090D01*
X561710Y355084D01*
X561823Y355074D01*
X561936Y355060D01*
X562048Y355043D01*
X562159Y355021D01*
X562269Y354996D01*
X562379Y354966D01*
X562487Y354933D01*
X562594Y354896D01*
X562700Y354856D01*
X562804Y354811D01*
X562907Y354763D01*
X563008Y354712D01*
X563107Y354657D01*
X563204Y354599D01*
X563299Y354537D01*
X563392Y354472D01*
X563482Y354404D01*
X563570Y354333D01*
X563656Y354258D01*
X563739Y354181D01*
X563819Y354101D01*
X563896Y354018D01*
X563971Y353932D01*
X564042Y353844D01*
X564110Y353754D01*
X564175Y353661D01*
X564237Y353566D01*
X564295Y353469D01*
X564350Y353370D01*
X564401Y353269D01*
X564449Y353166D01*
X564494Y353062D01*
X564534Y352956D01*
X564571Y352849D01*
X564604Y352741D01*
X564634Y352631D01*
X564659Y352521D01*
X564681Y352410D01*
X564698Y352298D01*
X564712Y352185D01*
X564722Y352072D01*
X564728Y351959D01*
X564730Y351846D01*
X564728Y351733D01*
X564722Y351620D01*
X564712Y351507D01*
X564698Y351394D01*
X564681Y351282D01*
X564659Y351171D01*
X564634Y351061D01*
X564604Y350951D01*
X564571Y350843D01*
X564534Y350736D01*
X564494Y350630D01*
X564449Y350526D01*
X564401Y350423D01*
X564350Y350322D01*
X564295Y350223D01*
X564237Y350126D01*
X564175Y350031D01*
X564110Y349938D01*
X564042Y349848D01*
X563971Y349760D01*
X563896Y349674D01*
X563819Y349591D01*
X563739Y349511D01*
X563656Y349434D01*
X563570Y349359D01*
X563482Y349288D01*
X563392Y349220D01*
X563299Y349155D01*
X563204Y349093D01*
X563107Y349035D01*
X563008Y348980D01*
X562907Y348929D01*
X562804Y348881D01*
X562700Y348836D01*
X562594Y348796D01*
X562487Y348759D01*
X562379Y348726D01*
X562269Y348696D01*
X562159Y348671D01*
X562048Y348649D01*
X561936Y348632D01*
X561823Y348618D01*
X561710Y348608D01*
X561597Y348602D01*
X561484Y348600D01*
X561484Y348601D02*
X558239Y348601D01*
X562133Y348601D02*
X564730Y343408D01*
X500800Y274400D02*
X500676Y274267D01*
X500548Y274137D01*
X500418Y274010D01*
X500284Y273886D01*
X500148Y273765D01*
X500008Y273648D01*
X499866Y273535D01*
X499721Y273425D01*
X499573Y273318D01*
X499423Y273215D01*
X499270Y273116D01*
X499115Y273021D01*
X498958Y272929D01*
X498798Y272842D01*
X498636Y272758D01*
X498473Y272678D01*
X498307Y272602D01*
X498140Y272531D01*
X497970Y272463D01*
X497800Y272400D01*
X497628Y272341D01*
X497454Y272286D01*
X497279Y272235D01*
X497103Y272189D01*
X496926Y272147D01*
X496748Y272109D01*
X496568Y272076D01*
X496389Y272047D01*
X496208Y272023D01*
X496027Y272003D01*
X495846Y271987D01*
X495664Y271976D01*
X495482Y271969D01*
X495300Y271967D01*
X495118Y271969D01*
X494936Y271976D01*
X494754Y271987D01*
X494573Y272003D01*
X494392Y272023D01*
X494211Y272047D01*
X494032Y272076D01*
X493852Y272109D01*
X493674Y272147D01*
X493497Y272189D01*
X493321Y272235D01*
X493146Y272286D01*
X492972Y272341D01*
X492800Y272400D01*
X492630Y272463D01*
X492460Y272531D01*
X492293Y272602D01*
X492127Y272678D01*
X491964Y272758D01*
X491802Y272842D01*
X491642Y272929D01*
X491485Y273021D01*
X491330Y273116D01*
X491177Y273215D01*
X491027Y273318D01*
X490879Y273425D01*
X490734Y273535D01*
X490592Y273648D01*
X490452Y273765D01*
X490316Y273886D01*
X490182Y274010D01*
X490052Y274137D01*
X489924Y274267D01*
X489800Y274400D01*
X489800Y284400D02*
X489924Y284533D01*
X490052Y284663D01*
X490182Y284790D01*
X490316Y284914D01*
X490452Y285035D01*
X490592Y285152D01*
X490734Y285265D01*
X490879Y285375D01*
X491027Y285482D01*
X491177Y285585D01*
X491330Y285684D01*
X491485Y285779D01*
X491642Y285871D01*
X491802Y285958D01*
X491964Y286042D01*
X492127Y286122D01*
X492293Y286198D01*
X492460Y286269D01*
X492630Y286337D01*
X492800Y286400D01*
X492972Y286459D01*
X493146Y286514D01*
X493321Y286565D01*
X493497Y286611D01*
X493674Y286653D01*
X493852Y286691D01*
X494032Y286724D01*
X494211Y286753D01*
X494392Y286777D01*
X494573Y286797D01*
X494754Y286813D01*
X494936Y286824D01*
X495118Y286831D01*
X495300Y286833D01*
X495482Y286831D01*
X495664Y286824D01*
X495846Y286813D01*
X496027Y286797D01*
X496208Y286777D01*
X496389Y286753D01*
X496568Y286724D01*
X496748Y286691D01*
X496926Y286653D01*
X497103Y286611D01*
X497279Y286565D01*
X497454Y286514D01*
X497628Y286459D01*
X497800Y286400D01*
X497970Y286337D01*
X498140Y286269D01*
X498307Y286198D01*
X498473Y286122D01*
X498636Y286042D01*
X498798Y285958D01*
X498958Y285871D01*
X499115Y285779D01*
X499270Y285684D01*
X499423Y285585D01*
X499573Y285482D01*
X499721Y285375D01*
X499866Y285265D01*
X500008Y285152D01*
X500148Y285035D01*
X500284Y284914D01*
X500418Y284790D01*
X500548Y284663D01*
X500676Y284533D01*
X500800Y284400D01*
D11*
X495300Y279400D03*
D12*
X500550Y273650D03*
D10*
X489599Y301371D02*
X489597Y301478D01*
X489591Y301584D01*
X489581Y301690D01*
X489568Y301796D01*
X489550Y301902D01*
X489529Y302006D01*
X489504Y302110D01*
X489475Y302213D01*
X489443Y302314D01*
X489406Y302414D01*
X489366Y302513D01*
X489323Y302611D01*
X489276Y302707D01*
X489225Y302801D01*
X489171Y302893D01*
X489114Y302983D01*
X489054Y303071D01*
X488990Y303156D01*
X488923Y303239D01*
X488853Y303320D01*
X488781Y303398D01*
X488705Y303474D01*
X488627Y303546D01*
X488546Y303616D01*
X488463Y303683D01*
X488378Y303747D01*
X488290Y303807D01*
X488200Y303864D01*
X488108Y303918D01*
X488014Y303969D01*
X487918Y304016D01*
X487820Y304059D01*
X487721Y304099D01*
X487621Y304136D01*
X487520Y304168D01*
X487417Y304197D01*
X487313Y304222D01*
X487209Y304243D01*
X487103Y304261D01*
X486997Y304274D01*
X486891Y304284D01*
X486785Y304290D01*
X486678Y304292D01*
X486557Y304290D01*
X486436Y304284D01*
X486316Y304274D01*
X486195Y304261D01*
X486076Y304243D01*
X485956Y304222D01*
X485838Y304197D01*
X485721Y304168D01*
X485604Y304135D01*
X485489Y304099D01*
X485375Y304058D01*
X485262Y304015D01*
X485150Y303967D01*
X485041Y303916D01*
X484933Y303861D01*
X484826Y303803D01*
X484722Y303742D01*
X484620Y303677D01*
X484520Y303609D01*
X484422Y303538D01*
X484326Y303464D01*
X484233Y303387D01*
X484143Y303306D01*
X484055Y303223D01*
X483970Y303137D01*
X483887Y303048D01*
X483808Y302957D01*
X483731Y302863D01*
X483658Y302767D01*
X483588Y302669D01*
X483521Y302568D01*
X483457Y302465D01*
X483397Y302360D01*
X483340Y302253D01*
X483286Y302145D01*
X483236Y302035D01*
X483190Y301923D01*
X483147Y301810D01*
X483108Y301695D01*
X488626Y299099D02*
X488705Y299176D01*
X488781Y299257D01*
X488854Y299340D01*
X488924Y299425D01*
X488991Y299513D01*
X489055Y299603D01*
X489115Y299695D01*
X489172Y299790D01*
X489226Y299886D01*
X489277Y299984D01*
X489324Y300084D01*
X489368Y300186D01*
X489408Y300289D01*
X489444Y300393D01*
X489476Y300499D01*
X489505Y300605D01*
X489530Y300713D01*
X489552Y300821D01*
X489569Y300931D01*
X489583Y301040D01*
X489592Y301150D01*
X489598Y301261D01*
X489600Y301371D01*
X488625Y299099D02*
X483108Y292608D01*
X489599Y292608D01*
X494919Y292608D02*
X494919Y304292D01*
X501410Y292608D01*
X501410Y304292D01*
X507111Y304292D02*
X507111Y292608D01*
X507111Y304292D02*
X510356Y304292D01*
X510469Y304290D01*
X510582Y304284D01*
X510695Y304274D01*
X510808Y304260D01*
X510920Y304243D01*
X511031Y304221D01*
X511141Y304196D01*
X511251Y304166D01*
X511359Y304133D01*
X511466Y304096D01*
X511572Y304056D01*
X511676Y304011D01*
X511779Y303963D01*
X511880Y303912D01*
X511979Y303857D01*
X512076Y303799D01*
X512171Y303737D01*
X512264Y303672D01*
X512354Y303604D01*
X512442Y303533D01*
X512528Y303458D01*
X512611Y303381D01*
X512691Y303301D01*
X512768Y303218D01*
X512843Y303132D01*
X512914Y303044D01*
X512982Y302954D01*
X513047Y302861D01*
X513109Y302766D01*
X513167Y302669D01*
X513222Y302570D01*
X513273Y302469D01*
X513321Y302366D01*
X513366Y302262D01*
X513406Y302156D01*
X513443Y302049D01*
X513476Y301941D01*
X513506Y301831D01*
X513531Y301721D01*
X513553Y301610D01*
X513570Y301498D01*
X513584Y301385D01*
X513594Y301272D01*
X513600Y301159D01*
X513602Y301046D01*
X513602Y295854D01*
X513603Y295854D02*
X513601Y295741D01*
X513595Y295628D01*
X513585Y295515D01*
X513571Y295402D01*
X513554Y295290D01*
X513532Y295179D01*
X513507Y295069D01*
X513477Y294959D01*
X513444Y294851D01*
X513407Y294744D01*
X513367Y294638D01*
X513322Y294534D01*
X513274Y294431D01*
X513223Y294330D01*
X513168Y294231D01*
X513110Y294134D01*
X513048Y294039D01*
X512983Y293946D01*
X512915Y293856D01*
X512844Y293768D01*
X512769Y293682D01*
X512692Y293599D01*
X512612Y293519D01*
X512529Y293442D01*
X512443Y293367D01*
X512355Y293296D01*
X512265Y293228D01*
X512172Y293163D01*
X512077Y293101D01*
X511980Y293043D01*
X511881Y292988D01*
X511780Y292937D01*
X511677Y292889D01*
X511573Y292844D01*
X511467Y292804D01*
X511360Y292767D01*
X511252Y292734D01*
X511142Y292704D01*
X511032Y292679D01*
X510921Y292657D01*
X510809Y292640D01*
X510696Y292626D01*
X510583Y292616D01*
X510470Y292610D01*
X510357Y292608D01*
X510356Y292608D02*
X507111Y292608D01*
X518428Y291310D02*
X523621Y291310D01*
X532991Y299099D02*
X534938Y299099D01*
X534938Y292608D01*
X531043Y292608D01*
X530944Y292610D01*
X530844Y292616D01*
X530745Y292625D01*
X530647Y292638D01*
X530549Y292655D01*
X530451Y292676D01*
X530355Y292701D01*
X530260Y292729D01*
X530166Y292761D01*
X530073Y292796D01*
X529981Y292835D01*
X529891Y292878D01*
X529803Y292923D01*
X529716Y292973D01*
X529632Y293025D01*
X529549Y293081D01*
X529469Y293139D01*
X529391Y293201D01*
X529316Y293266D01*
X529243Y293334D01*
X529173Y293404D01*
X529105Y293477D01*
X529040Y293552D01*
X528978Y293630D01*
X528920Y293710D01*
X528864Y293793D01*
X528812Y293877D01*
X528762Y293964D01*
X528717Y294052D01*
X528674Y294142D01*
X528635Y294234D01*
X528600Y294327D01*
X528568Y294421D01*
X528540Y294516D01*
X528515Y294612D01*
X528494Y294710D01*
X528477Y294808D01*
X528464Y294906D01*
X528455Y295005D01*
X528449Y295105D01*
X528447Y295204D01*
X528447Y301696D01*
X528449Y301795D01*
X528455Y301895D01*
X528464Y301994D01*
X528477Y302092D01*
X528494Y302190D01*
X528515Y302288D01*
X528540Y302384D01*
X528568Y302479D01*
X528600Y302573D01*
X528635Y302666D01*
X528674Y302758D01*
X528717Y302848D01*
X528762Y302936D01*
X528812Y303023D01*
X528864Y303107D01*
X528920Y303190D01*
X528978Y303270D01*
X529040Y303348D01*
X529105Y303423D01*
X529173Y303496D01*
X529243Y303566D01*
X529316Y303634D01*
X529391Y303699D01*
X529469Y303761D01*
X529549Y303819D01*
X529632Y303875D01*
X529716Y303927D01*
X529803Y303977D01*
X529891Y304022D01*
X529981Y304065D01*
X530073Y304104D01*
X530165Y304139D01*
X530260Y304171D01*
X530355Y304199D01*
X530451Y304224D01*
X530549Y304245D01*
X530647Y304262D01*
X530745Y304275D01*
X530844Y304284D01*
X530944Y304290D01*
X531043Y304292D01*
X534938Y304292D01*
X540661Y292608D02*
X545854Y292608D01*
X540661Y292608D02*
X540661Y304292D01*
X545854Y304292D01*
X544556Y299099D02*
X540661Y299099D01*
X549515Y292608D02*
X553409Y304292D01*
X557304Y292608D01*
X556330Y295529D02*
X550488Y295529D01*
X562049Y292608D02*
X562049Y304292D01*
X565294Y304292D01*
X565407Y304290D01*
X565520Y304284D01*
X565633Y304274D01*
X565746Y304260D01*
X565858Y304243D01*
X565969Y304221D01*
X566079Y304196D01*
X566189Y304166D01*
X566297Y304133D01*
X566404Y304096D01*
X566510Y304056D01*
X566614Y304011D01*
X566717Y303963D01*
X566818Y303912D01*
X566917Y303857D01*
X567014Y303799D01*
X567109Y303737D01*
X567202Y303672D01*
X567292Y303604D01*
X567380Y303533D01*
X567466Y303458D01*
X567549Y303381D01*
X567629Y303301D01*
X567706Y303218D01*
X567781Y303132D01*
X567852Y303044D01*
X567920Y302954D01*
X567985Y302861D01*
X568047Y302766D01*
X568105Y302669D01*
X568160Y302570D01*
X568211Y302469D01*
X568259Y302366D01*
X568304Y302262D01*
X568344Y302156D01*
X568381Y302049D01*
X568414Y301941D01*
X568444Y301831D01*
X568469Y301721D01*
X568491Y301610D01*
X568508Y301498D01*
X568522Y301385D01*
X568532Y301272D01*
X568538Y301159D01*
X568540Y301046D01*
X568538Y300933D01*
X568532Y300820D01*
X568522Y300707D01*
X568508Y300594D01*
X568491Y300482D01*
X568469Y300371D01*
X568444Y300261D01*
X568414Y300151D01*
X568381Y300043D01*
X568344Y299936D01*
X568304Y299830D01*
X568259Y299726D01*
X568211Y299623D01*
X568160Y299522D01*
X568105Y299423D01*
X568047Y299326D01*
X567985Y299231D01*
X567920Y299138D01*
X567852Y299048D01*
X567781Y298960D01*
X567706Y298874D01*
X567629Y298791D01*
X567549Y298711D01*
X567466Y298634D01*
X567380Y298559D01*
X567292Y298488D01*
X567202Y298420D01*
X567109Y298355D01*
X567014Y298293D01*
X566917Y298235D01*
X566818Y298180D01*
X566717Y298129D01*
X566614Y298081D01*
X566510Y298036D01*
X566404Y297996D01*
X566297Y297959D01*
X566189Y297926D01*
X566079Y297896D01*
X565969Y297871D01*
X565858Y297849D01*
X565746Y297832D01*
X565633Y297818D01*
X565520Y297808D01*
X565407Y297802D01*
X565294Y297800D01*
X565294Y297801D02*
X562049Y297801D01*
X565943Y297801D02*
X568540Y292608D01*
X500800Y223600D02*
X500676Y223467D01*
X500548Y223337D01*
X500418Y223210D01*
X500284Y223086D01*
X500148Y222965D01*
X500008Y222848D01*
X499866Y222735D01*
X499721Y222625D01*
X499573Y222518D01*
X499423Y222415D01*
X499270Y222316D01*
X499115Y222221D01*
X498958Y222129D01*
X498798Y222042D01*
X498636Y221958D01*
X498473Y221878D01*
X498307Y221802D01*
X498140Y221731D01*
X497970Y221663D01*
X497800Y221600D01*
X497628Y221541D01*
X497454Y221486D01*
X497279Y221435D01*
X497103Y221389D01*
X496926Y221347D01*
X496748Y221309D01*
X496568Y221276D01*
X496389Y221247D01*
X496208Y221223D01*
X496027Y221203D01*
X495846Y221187D01*
X495664Y221176D01*
X495482Y221169D01*
X495300Y221167D01*
X495118Y221169D01*
X494936Y221176D01*
X494754Y221187D01*
X494573Y221203D01*
X494392Y221223D01*
X494211Y221247D01*
X494032Y221276D01*
X493852Y221309D01*
X493674Y221347D01*
X493497Y221389D01*
X493321Y221435D01*
X493146Y221486D01*
X492972Y221541D01*
X492800Y221600D01*
X492630Y221663D01*
X492460Y221731D01*
X492293Y221802D01*
X492127Y221878D01*
X491964Y221958D01*
X491802Y222042D01*
X491642Y222129D01*
X491485Y222221D01*
X491330Y222316D01*
X491177Y222415D01*
X491027Y222518D01*
X490879Y222625D01*
X490734Y222735D01*
X490592Y222848D01*
X490452Y222965D01*
X490316Y223086D01*
X490182Y223210D01*
X490052Y223337D01*
X489924Y223467D01*
X489800Y223600D01*
X489800Y233600D02*
X489924Y233733D01*
X490052Y233863D01*
X490182Y233990D01*
X490316Y234114D01*
X490452Y234235D01*
X490592Y234352D01*
X490734Y234465D01*
X490879Y234575D01*
X491027Y234682D01*
X491177Y234785D01*
X491330Y234884D01*
X491485Y234979D01*
X491642Y235071D01*
X491802Y235158D01*
X491964Y235242D01*
X492127Y235322D01*
X492293Y235398D01*
X492460Y235469D01*
X492630Y235537D01*
X492800Y235600D01*
X492972Y235659D01*
X493146Y235714D01*
X493321Y235765D01*
X493497Y235811D01*
X493674Y235853D01*
X493852Y235891D01*
X494032Y235924D01*
X494211Y235953D01*
X494392Y235977D01*
X494573Y235997D01*
X494754Y236013D01*
X494936Y236024D01*
X495118Y236031D01*
X495300Y236033D01*
X495482Y236031D01*
X495664Y236024D01*
X495846Y236013D01*
X496027Y235997D01*
X496208Y235977D01*
X496389Y235953D01*
X496568Y235924D01*
X496748Y235891D01*
X496926Y235853D01*
X497103Y235811D01*
X497279Y235765D01*
X497454Y235714D01*
X497628Y235659D01*
X497800Y235600D01*
X497970Y235537D01*
X498140Y235469D01*
X498307Y235398D01*
X498473Y235322D01*
X498636Y235242D01*
X498798Y235158D01*
X498958Y235071D01*
X499115Y234979D01*
X499270Y234884D01*
X499423Y234785D01*
X499573Y234682D01*
X499721Y234575D01*
X499866Y234465D01*
X500008Y234352D01*
X500148Y234235D01*
X500284Y234114D01*
X500418Y233990D01*
X500548Y233863D01*
X500676Y233733D01*
X500800Y233600D01*
D11*
X495300Y228600D03*
D12*
X500550Y222850D03*
D10*
X486354Y241808D02*
X483108Y241808D01*
X486354Y241808D02*
X486467Y241810D01*
X486580Y241816D01*
X486693Y241826D01*
X486806Y241840D01*
X486918Y241857D01*
X487029Y241879D01*
X487139Y241904D01*
X487249Y241934D01*
X487357Y241967D01*
X487464Y242004D01*
X487570Y242044D01*
X487674Y242089D01*
X487777Y242137D01*
X487878Y242188D01*
X487977Y242243D01*
X488074Y242301D01*
X488169Y242363D01*
X488262Y242428D01*
X488352Y242496D01*
X488440Y242567D01*
X488526Y242642D01*
X488609Y242719D01*
X488689Y242799D01*
X488766Y242882D01*
X488841Y242968D01*
X488912Y243056D01*
X488980Y243146D01*
X489045Y243239D01*
X489107Y243334D01*
X489165Y243431D01*
X489220Y243530D01*
X489271Y243631D01*
X489319Y243734D01*
X489364Y243838D01*
X489404Y243944D01*
X489441Y244051D01*
X489474Y244159D01*
X489504Y244269D01*
X489529Y244379D01*
X489551Y244490D01*
X489568Y244602D01*
X489582Y244715D01*
X489592Y244828D01*
X489598Y244941D01*
X489600Y245054D01*
X489598Y245167D01*
X489592Y245280D01*
X489582Y245393D01*
X489568Y245506D01*
X489551Y245618D01*
X489529Y245729D01*
X489504Y245839D01*
X489474Y245949D01*
X489441Y246057D01*
X489404Y246164D01*
X489364Y246270D01*
X489319Y246374D01*
X489271Y246477D01*
X489220Y246578D01*
X489165Y246677D01*
X489107Y246774D01*
X489045Y246869D01*
X488980Y246962D01*
X488912Y247052D01*
X488841Y247140D01*
X488766Y247226D01*
X488689Y247309D01*
X488609Y247389D01*
X488526Y247466D01*
X488440Y247541D01*
X488352Y247612D01*
X488262Y247680D01*
X488169Y247745D01*
X488074Y247807D01*
X487977Y247865D01*
X487878Y247920D01*
X487777Y247971D01*
X487674Y248019D01*
X487570Y248064D01*
X487464Y248104D01*
X487357Y248141D01*
X487249Y248174D01*
X487139Y248204D01*
X487029Y248229D01*
X486918Y248251D01*
X486806Y248268D01*
X486693Y248282D01*
X486580Y248292D01*
X486467Y248298D01*
X486354Y248300D01*
X487003Y253492D02*
X483108Y253492D01*
X487003Y253492D02*
X487104Y253490D01*
X487204Y253484D01*
X487304Y253474D01*
X487404Y253461D01*
X487503Y253443D01*
X487602Y253422D01*
X487699Y253397D01*
X487796Y253368D01*
X487891Y253335D01*
X487985Y253299D01*
X488077Y253259D01*
X488168Y253216D01*
X488257Y253169D01*
X488344Y253119D01*
X488430Y253065D01*
X488513Y253008D01*
X488593Y252948D01*
X488672Y252885D01*
X488748Y252818D01*
X488821Y252749D01*
X488891Y252677D01*
X488959Y252603D01*
X489024Y252526D01*
X489085Y252446D01*
X489144Y252364D01*
X489199Y252280D01*
X489251Y252194D01*
X489300Y252106D01*
X489345Y252016D01*
X489387Y251924D01*
X489425Y251831D01*
X489459Y251736D01*
X489490Y251641D01*
X489517Y251544D01*
X489540Y251446D01*
X489560Y251347D01*
X489575Y251247D01*
X489587Y251147D01*
X489595Y251047D01*
X489599Y250946D01*
X489599Y250846D01*
X489595Y250745D01*
X489587Y250645D01*
X489575Y250545D01*
X489560Y250445D01*
X489540Y250346D01*
X489517Y250248D01*
X489490Y250151D01*
X489459Y250056D01*
X489425Y249961D01*
X489387Y249868D01*
X489345Y249776D01*
X489300Y249686D01*
X489251Y249598D01*
X489199Y249512D01*
X489144Y249428D01*
X489085Y249346D01*
X489024Y249266D01*
X488959Y249189D01*
X488891Y249115D01*
X488821Y249043D01*
X488748Y248974D01*
X488672Y248907D01*
X488593Y248844D01*
X488513Y248784D01*
X488430Y248727D01*
X488344Y248673D01*
X488257Y248623D01*
X488168Y248576D01*
X488077Y248533D01*
X487985Y248493D01*
X487891Y248457D01*
X487796Y248424D01*
X487699Y248395D01*
X487602Y248370D01*
X487503Y248349D01*
X487404Y248331D01*
X487304Y248318D01*
X487204Y248308D01*
X487104Y248302D01*
X487003Y248300D01*
X487003Y248299D02*
X484406Y248299D01*
X494993Y253492D02*
X494993Y241808D01*
X494993Y253492D02*
X498238Y253492D01*
X498351Y253490D01*
X498464Y253484D01*
X498577Y253474D01*
X498690Y253460D01*
X498802Y253443D01*
X498913Y253421D01*
X499023Y253396D01*
X499133Y253366D01*
X499241Y253333D01*
X499348Y253296D01*
X499454Y253256D01*
X499558Y253211D01*
X499661Y253163D01*
X499762Y253112D01*
X499861Y253057D01*
X499958Y252999D01*
X500053Y252937D01*
X500146Y252872D01*
X500236Y252804D01*
X500324Y252733D01*
X500410Y252658D01*
X500493Y252581D01*
X500573Y252501D01*
X500650Y252418D01*
X500725Y252332D01*
X500796Y252244D01*
X500864Y252154D01*
X500929Y252061D01*
X500991Y251966D01*
X501049Y251869D01*
X501104Y251770D01*
X501155Y251669D01*
X501203Y251566D01*
X501248Y251462D01*
X501288Y251356D01*
X501325Y251249D01*
X501358Y251141D01*
X501388Y251031D01*
X501413Y250921D01*
X501435Y250810D01*
X501452Y250698D01*
X501466Y250585D01*
X501476Y250472D01*
X501482Y250359D01*
X501484Y250246D01*
X501482Y250133D01*
X501476Y250020D01*
X501466Y249907D01*
X501452Y249794D01*
X501435Y249682D01*
X501413Y249571D01*
X501388Y249461D01*
X501358Y249351D01*
X501325Y249243D01*
X501288Y249136D01*
X501248Y249030D01*
X501203Y248926D01*
X501155Y248823D01*
X501104Y248722D01*
X501049Y248623D01*
X500991Y248526D01*
X500929Y248431D01*
X500864Y248338D01*
X500796Y248248D01*
X500725Y248160D01*
X500650Y248074D01*
X500573Y247991D01*
X500493Y247911D01*
X500410Y247834D01*
X500324Y247759D01*
X500236Y247688D01*
X500146Y247620D01*
X500053Y247555D01*
X499958Y247493D01*
X499861Y247435D01*
X499762Y247380D01*
X499661Y247329D01*
X499558Y247281D01*
X499454Y247236D01*
X499348Y247196D01*
X499241Y247159D01*
X499133Y247126D01*
X499023Y247096D01*
X498913Y247071D01*
X498802Y247049D01*
X498690Y247032D01*
X498577Y247018D01*
X498464Y247008D01*
X498351Y247002D01*
X498238Y247000D01*
X498238Y247001D02*
X494993Y247001D01*
X498887Y247001D02*
X501484Y241808D01*
X506730Y241808D02*
X506730Y253492D01*
X509975Y253492D01*
X510088Y253490D01*
X510201Y253484D01*
X510314Y253474D01*
X510427Y253460D01*
X510539Y253443D01*
X510650Y253421D01*
X510760Y253396D01*
X510870Y253366D01*
X510978Y253333D01*
X511085Y253296D01*
X511191Y253256D01*
X511295Y253211D01*
X511398Y253163D01*
X511499Y253112D01*
X511598Y253057D01*
X511695Y252999D01*
X511790Y252937D01*
X511883Y252872D01*
X511973Y252804D01*
X512061Y252733D01*
X512147Y252658D01*
X512230Y252581D01*
X512310Y252501D01*
X512387Y252418D01*
X512462Y252332D01*
X512533Y252244D01*
X512601Y252154D01*
X512666Y252061D01*
X512728Y251966D01*
X512786Y251869D01*
X512841Y251770D01*
X512892Y251669D01*
X512940Y251566D01*
X512985Y251462D01*
X513025Y251356D01*
X513062Y251249D01*
X513095Y251141D01*
X513125Y251031D01*
X513150Y250921D01*
X513172Y250810D01*
X513189Y250698D01*
X513203Y250585D01*
X513213Y250472D01*
X513219Y250359D01*
X513221Y250246D01*
X513221Y245054D01*
X513222Y245054D02*
X513220Y244941D01*
X513214Y244828D01*
X513204Y244715D01*
X513190Y244602D01*
X513173Y244490D01*
X513151Y244379D01*
X513126Y244269D01*
X513096Y244159D01*
X513063Y244051D01*
X513026Y243944D01*
X512986Y243838D01*
X512941Y243734D01*
X512893Y243631D01*
X512842Y243530D01*
X512787Y243431D01*
X512729Y243334D01*
X512667Y243239D01*
X512602Y243146D01*
X512534Y243056D01*
X512463Y242968D01*
X512388Y242882D01*
X512311Y242799D01*
X512231Y242719D01*
X512148Y242642D01*
X512062Y242567D01*
X511974Y242496D01*
X511884Y242428D01*
X511791Y242363D01*
X511696Y242301D01*
X511599Y242243D01*
X511500Y242188D01*
X511399Y242137D01*
X511296Y242089D01*
X511192Y242044D01*
X511086Y242004D01*
X510979Y241967D01*
X510871Y241934D01*
X510761Y241904D01*
X510651Y241879D01*
X510540Y241857D01*
X510428Y241840D01*
X510315Y241826D01*
X510202Y241816D01*
X510089Y241810D01*
X509976Y241808D01*
X509975Y241808D02*
X506730Y241808D01*
X518047Y240510D02*
X523240Y240510D01*
X532610Y248299D02*
X534557Y248299D01*
X534557Y241808D01*
X530662Y241808D01*
X530563Y241810D01*
X530463Y241816D01*
X530364Y241825D01*
X530266Y241838D01*
X530168Y241855D01*
X530070Y241876D01*
X529974Y241901D01*
X529879Y241929D01*
X529785Y241961D01*
X529692Y241996D01*
X529600Y242035D01*
X529510Y242078D01*
X529422Y242123D01*
X529335Y242173D01*
X529251Y242225D01*
X529168Y242281D01*
X529088Y242339D01*
X529010Y242401D01*
X528935Y242466D01*
X528862Y242534D01*
X528792Y242604D01*
X528724Y242677D01*
X528659Y242752D01*
X528597Y242830D01*
X528539Y242910D01*
X528483Y242993D01*
X528431Y243077D01*
X528381Y243164D01*
X528336Y243252D01*
X528293Y243342D01*
X528254Y243434D01*
X528219Y243527D01*
X528187Y243621D01*
X528159Y243716D01*
X528134Y243812D01*
X528113Y243910D01*
X528096Y244008D01*
X528083Y244106D01*
X528074Y244205D01*
X528068Y244305D01*
X528066Y244404D01*
X528066Y250896D01*
X528068Y250995D01*
X528074Y251095D01*
X528083Y251194D01*
X528096Y251292D01*
X528113Y251390D01*
X528134Y251488D01*
X528159Y251584D01*
X528187Y251679D01*
X528219Y251773D01*
X528254Y251866D01*
X528293Y251958D01*
X528336Y252048D01*
X528381Y252136D01*
X528431Y252223D01*
X528483Y252307D01*
X528539Y252390D01*
X528597Y252470D01*
X528659Y252548D01*
X528724Y252623D01*
X528792Y252696D01*
X528862Y252766D01*
X528935Y252834D01*
X529010Y252899D01*
X529088Y252961D01*
X529168Y253019D01*
X529251Y253075D01*
X529335Y253127D01*
X529422Y253177D01*
X529510Y253222D01*
X529600Y253265D01*
X529692Y253304D01*
X529784Y253339D01*
X529879Y253371D01*
X529974Y253399D01*
X530070Y253424D01*
X530168Y253445D01*
X530266Y253462D01*
X530364Y253475D01*
X530463Y253484D01*
X530563Y253490D01*
X530662Y253492D01*
X534557Y253492D01*
X540280Y241808D02*
X545473Y241808D01*
X540280Y241808D02*
X540280Y253492D01*
X545473Y253492D01*
X544175Y248299D02*
X540280Y248299D01*
X549134Y241808D02*
X553028Y253492D01*
X556923Y241808D01*
X555949Y244729D02*
X550107Y244729D01*
X561668Y241808D02*
X561668Y253492D01*
X564913Y253492D01*
X565026Y253490D01*
X565139Y253484D01*
X565252Y253474D01*
X565365Y253460D01*
X565477Y253443D01*
X565588Y253421D01*
X565698Y253396D01*
X565808Y253366D01*
X565916Y253333D01*
X566023Y253296D01*
X566129Y253256D01*
X566233Y253211D01*
X566336Y253163D01*
X566437Y253112D01*
X566536Y253057D01*
X566633Y252999D01*
X566728Y252937D01*
X566821Y252872D01*
X566911Y252804D01*
X566999Y252733D01*
X567085Y252658D01*
X567168Y252581D01*
X567248Y252501D01*
X567325Y252418D01*
X567400Y252332D01*
X567471Y252244D01*
X567539Y252154D01*
X567604Y252061D01*
X567666Y251966D01*
X567724Y251869D01*
X567779Y251770D01*
X567830Y251669D01*
X567878Y251566D01*
X567923Y251462D01*
X567963Y251356D01*
X568000Y251249D01*
X568033Y251141D01*
X568063Y251031D01*
X568088Y250921D01*
X568110Y250810D01*
X568127Y250698D01*
X568141Y250585D01*
X568151Y250472D01*
X568157Y250359D01*
X568159Y250246D01*
X568157Y250133D01*
X568151Y250020D01*
X568141Y249907D01*
X568127Y249794D01*
X568110Y249682D01*
X568088Y249571D01*
X568063Y249461D01*
X568033Y249351D01*
X568000Y249243D01*
X567963Y249136D01*
X567923Y249030D01*
X567878Y248926D01*
X567830Y248823D01*
X567779Y248722D01*
X567724Y248623D01*
X567666Y248526D01*
X567604Y248431D01*
X567539Y248338D01*
X567471Y248248D01*
X567400Y248160D01*
X567325Y248074D01*
X567248Y247991D01*
X567168Y247911D01*
X567085Y247834D01*
X566999Y247759D01*
X566911Y247688D01*
X566821Y247620D01*
X566728Y247555D01*
X566633Y247493D01*
X566536Y247435D01*
X566437Y247380D01*
X566336Y247329D01*
X566233Y247281D01*
X566129Y247236D01*
X566023Y247196D01*
X565916Y247159D01*
X565808Y247126D01*
X565698Y247096D01*
X565588Y247071D01*
X565477Y247049D01*
X565365Y247032D01*
X565252Y247018D01*
X565139Y247008D01*
X565026Y247002D01*
X564913Y247000D01*
X564913Y247001D02*
X561668Y247001D01*
X565562Y247001D02*
X568159Y241808D01*
X500800Y172800D02*
X500676Y172667D01*
X500548Y172537D01*
X500418Y172410D01*
X500284Y172286D01*
X500148Y172165D01*
X500008Y172048D01*
X499866Y171935D01*
X499721Y171825D01*
X499573Y171718D01*
X499423Y171615D01*
X499270Y171516D01*
X499115Y171421D01*
X498958Y171329D01*
X498798Y171242D01*
X498636Y171158D01*
X498473Y171078D01*
X498307Y171002D01*
X498140Y170931D01*
X497970Y170863D01*
X497800Y170800D01*
X497628Y170741D01*
X497454Y170686D01*
X497279Y170635D01*
X497103Y170589D01*
X496926Y170547D01*
X496748Y170509D01*
X496568Y170476D01*
X496389Y170447D01*
X496208Y170423D01*
X496027Y170403D01*
X495846Y170387D01*
X495664Y170376D01*
X495482Y170369D01*
X495300Y170367D01*
X495118Y170369D01*
X494936Y170376D01*
X494754Y170387D01*
X494573Y170403D01*
X494392Y170423D01*
X494211Y170447D01*
X494032Y170476D01*
X493852Y170509D01*
X493674Y170547D01*
X493497Y170589D01*
X493321Y170635D01*
X493146Y170686D01*
X492972Y170741D01*
X492800Y170800D01*
X492630Y170863D01*
X492460Y170931D01*
X492293Y171002D01*
X492127Y171078D01*
X491964Y171158D01*
X491802Y171242D01*
X491642Y171329D01*
X491485Y171421D01*
X491330Y171516D01*
X491177Y171615D01*
X491027Y171718D01*
X490879Y171825D01*
X490734Y171935D01*
X490592Y172048D01*
X490452Y172165D01*
X490316Y172286D01*
X490182Y172410D01*
X490052Y172537D01*
X489924Y172667D01*
X489800Y172800D01*
X489800Y182800D02*
X489924Y182933D01*
X490052Y183063D01*
X490182Y183190D01*
X490316Y183314D01*
X490452Y183435D01*
X490592Y183552D01*
X490734Y183665D01*
X490879Y183775D01*
X491027Y183882D01*
X491177Y183985D01*
X491330Y184084D01*
X491485Y184179D01*
X491642Y184271D01*
X491802Y184358D01*
X491964Y184442D01*
X492127Y184522D01*
X492293Y184598D01*
X492460Y184669D01*
X492630Y184737D01*
X492800Y184800D01*
X492972Y184859D01*
X493146Y184914D01*
X493321Y184965D01*
X493497Y185011D01*
X493674Y185053D01*
X493852Y185091D01*
X494032Y185124D01*
X494211Y185153D01*
X494392Y185177D01*
X494573Y185197D01*
X494754Y185213D01*
X494936Y185224D01*
X495118Y185231D01*
X495300Y185233D01*
X495482Y185231D01*
X495664Y185224D01*
X495846Y185213D01*
X496027Y185197D01*
X496208Y185177D01*
X496389Y185153D01*
X496568Y185124D01*
X496748Y185091D01*
X496926Y185053D01*
X497103Y185011D01*
X497279Y184965D01*
X497454Y184914D01*
X497628Y184859D01*
X497800Y184800D01*
X497970Y184737D01*
X498140Y184669D01*
X498307Y184598D01*
X498473Y184522D01*
X498636Y184442D01*
X498798Y184358D01*
X498958Y184271D01*
X499115Y184179D01*
X499270Y184084D01*
X499423Y183985D01*
X499573Y183882D01*
X499721Y183775D01*
X499866Y183665D01*
X500008Y183552D01*
X500148Y183435D01*
X500284Y183314D01*
X500418Y183190D01*
X500548Y183063D01*
X500676Y182933D01*
X500800Y182800D01*
D11*
X495300Y177800D03*
D12*
X500550Y172050D03*
D10*
X483108Y193604D02*
X485704Y202692D01*
X483108Y193604D02*
X489599Y193604D01*
X487652Y196201D02*
X487652Y191008D01*
X497022Y191008D02*
X497022Y202692D01*
X500267Y202692D02*
X493776Y202692D01*
X504825Y202692D02*
X504825Y191008D01*
X504825Y197499D02*
X511316Y197499D01*
X511316Y202692D02*
X511316Y191008D01*
X516142Y189710D02*
X521335Y189710D01*
X530705Y197499D02*
X532652Y197499D01*
X532652Y191008D01*
X528757Y191008D01*
X528658Y191010D01*
X528558Y191016D01*
X528459Y191025D01*
X528361Y191038D01*
X528263Y191055D01*
X528165Y191076D01*
X528069Y191101D01*
X527974Y191129D01*
X527880Y191161D01*
X527787Y191196D01*
X527695Y191235D01*
X527605Y191278D01*
X527517Y191323D01*
X527430Y191373D01*
X527346Y191425D01*
X527263Y191481D01*
X527183Y191539D01*
X527105Y191601D01*
X527030Y191666D01*
X526957Y191734D01*
X526887Y191804D01*
X526819Y191877D01*
X526754Y191952D01*
X526692Y192030D01*
X526634Y192110D01*
X526578Y192193D01*
X526526Y192277D01*
X526476Y192364D01*
X526431Y192452D01*
X526388Y192542D01*
X526349Y192634D01*
X526314Y192727D01*
X526282Y192821D01*
X526254Y192916D01*
X526229Y193012D01*
X526208Y193110D01*
X526191Y193208D01*
X526178Y193306D01*
X526169Y193405D01*
X526163Y193505D01*
X526161Y193604D01*
X526161Y200096D01*
X526163Y200195D01*
X526169Y200295D01*
X526178Y200394D01*
X526191Y200492D01*
X526208Y200590D01*
X526229Y200688D01*
X526254Y200784D01*
X526282Y200879D01*
X526314Y200973D01*
X526349Y201066D01*
X526388Y201158D01*
X526431Y201248D01*
X526476Y201336D01*
X526526Y201423D01*
X526578Y201507D01*
X526634Y201590D01*
X526692Y201670D01*
X526754Y201748D01*
X526819Y201823D01*
X526887Y201896D01*
X526957Y201966D01*
X527030Y202034D01*
X527105Y202099D01*
X527183Y202161D01*
X527263Y202219D01*
X527346Y202275D01*
X527430Y202327D01*
X527517Y202377D01*
X527605Y202422D01*
X527695Y202465D01*
X527787Y202504D01*
X527879Y202539D01*
X527974Y202571D01*
X528069Y202599D01*
X528165Y202624D01*
X528263Y202645D01*
X528361Y202662D01*
X528459Y202675D01*
X528558Y202684D01*
X528658Y202690D01*
X528757Y202692D01*
X532652Y202692D01*
X538375Y191008D02*
X543568Y191008D01*
X538375Y191008D02*
X538375Y202692D01*
X543568Y202692D01*
X542270Y197499D02*
X538375Y197499D01*
X547229Y191008D02*
X551123Y202692D01*
X555018Y191008D01*
X554044Y193929D02*
X548202Y193929D01*
X559763Y191008D02*
X559763Y202692D01*
X563008Y202692D01*
X563121Y202690D01*
X563234Y202684D01*
X563347Y202674D01*
X563460Y202660D01*
X563572Y202643D01*
X563683Y202621D01*
X563793Y202596D01*
X563903Y202566D01*
X564011Y202533D01*
X564118Y202496D01*
X564224Y202456D01*
X564328Y202411D01*
X564431Y202363D01*
X564532Y202312D01*
X564631Y202257D01*
X564728Y202199D01*
X564823Y202137D01*
X564916Y202072D01*
X565006Y202004D01*
X565094Y201933D01*
X565180Y201858D01*
X565263Y201781D01*
X565343Y201701D01*
X565420Y201618D01*
X565495Y201532D01*
X565566Y201444D01*
X565634Y201354D01*
X565699Y201261D01*
X565761Y201166D01*
X565819Y201069D01*
X565874Y200970D01*
X565925Y200869D01*
X565973Y200766D01*
X566018Y200662D01*
X566058Y200556D01*
X566095Y200449D01*
X566128Y200341D01*
X566158Y200231D01*
X566183Y200121D01*
X566205Y200010D01*
X566222Y199898D01*
X566236Y199785D01*
X566246Y199672D01*
X566252Y199559D01*
X566254Y199446D01*
X566252Y199333D01*
X566246Y199220D01*
X566236Y199107D01*
X566222Y198994D01*
X566205Y198882D01*
X566183Y198771D01*
X566158Y198661D01*
X566128Y198551D01*
X566095Y198443D01*
X566058Y198336D01*
X566018Y198230D01*
X565973Y198126D01*
X565925Y198023D01*
X565874Y197922D01*
X565819Y197823D01*
X565761Y197726D01*
X565699Y197631D01*
X565634Y197538D01*
X565566Y197448D01*
X565495Y197360D01*
X565420Y197274D01*
X565343Y197191D01*
X565263Y197111D01*
X565180Y197034D01*
X565094Y196959D01*
X565006Y196888D01*
X564916Y196820D01*
X564823Y196755D01*
X564728Y196693D01*
X564631Y196635D01*
X564532Y196580D01*
X564431Y196529D01*
X564328Y196481D01*
X564224Y196436D01*
X564118Y196396D01*
X564011Y196359D01*
X563903Y196326D01*
X563793Y196296D01*
X563683Y196271D01*
X563572Y196249D01*
X563460Y196232D01*
X563347Y196218D01*
X563234Y196208D01*
X563121Y196202D01*
X563008Y196200D01*
X563008Y196201D02*
X559763Y196201D01*
X563657Y196201D02*
X566254Y191008D01*
D13*
X393700Y146050D02*
X393700Y133350D01*
X393700Y146050D02*
X400050Y152400D01*
X412750Y152400D01*
X419100Y146050D01*
X412750Y127000D02*
X400050Y127000D01*
X393700Y133350D01*
X412750Y127000D02*
X419100Y133350D01*
X419100Y146050D01*
X400050Y152400D02*
X393700Y158750D01*
X393700Y171450D01*
X400050Y177800D01*
X412750Y177800D01*
X419100Y171450D01*
X419100Y158750D01*
X412750Y152400D01*
D14*
X384937Y130683D02*
X376047Y130683D01*
X384937Y130683D02*
X385037Y130681D01*
X385136Y130675D01*
X385236Y130665D01*
X385334Y130652D01*
X385433Y130634D01*
X385530Y130613D01*
X385626Y130588D01*
X385722Y130559D01*
X385816Y130526D01*
X385909Y130490D01*
X386000Y130450D01*
X386090Y130406D01*
X386178Y130359D01*
X386264Y130309D01*
X386348Y130255D01*
X386430Y130198D01*
X386509Y130138D01*
X386587Y130074D01*
X386661Y130008D01*
X386733Y129939D01*
X386802Y129867D01*
X386868Y129793D01*
X386932Y129715D01*
X386992Y129636D01*
X387049Y129554D01*
X387103Y129470D01*
X387153Y129384D01*
X387200Y129296D01*
X387244Y129206D01*
X387284Y129115D01*
X387320Y129022D01*
X387353Y128928D01*
X387382Y128832D01*
X387407Y128736D01*
X387428Y128639D01*
X387446Y128540D01*
X387459Y128442D01*
X387469Y128342D01*
X387475Y128243D01*
X387477Y128143D01*
X387477Y126873D01*
X387477Y136663D02*
X376047Y136663D01*
X376047Y139838D01*
X376049Y139949D01*
X376055Y140059D01*
X376064Y140170D01*
X376078Y140280D01*
X376095Y140389D01*
X376116Y140498D01*
X376141Y140606D01*
X376170Y140713D01*
X376202Y140819D01*
X376238Y140924D01*
X376278Y141027D01*
X376321Y141129D01*
X376368Y141230D01*
X376419Y141329D01*
X376472Y141426D01*
X376529Y141520D01*
X376590Y141613D01*
X376653Y141704D01*
X376720Y141793D01*
X376790Y141879D01*
X376863Y141962D01*
X376938Y142044D01*
X377016Y142122D01*
X377098Y142197D01*
X377181Y142270D01*
X377267Y142340D01*
X377356Y142407D01*
X377447Y142470D01*
X377540Y142531D01*
X377635Y142588D01*
X377731Y142641D01*
X377830Y142692D01*
X377931Y142739D01*
X378033Y142782D01*
X378136Y142822D01*
X378241Y142858D01*
X378347Y142890D01*
X378454Y142919D01*
X378562Y142944D01*
X378671Y142965D01*
X378780Y142982D01*
X378890Y142996D01*
X379001Y143005D01*
X379111Y143011D01*
X379222Y143013D01*
X379333Y143011D01*
X379443Y143005D01*
X379554Y142996D01*
X379664Y142982D01*
X379773Y142965D01*
X379882Y142944D01*
X379990Y142919D01*
X380097Y142890D01*
X380203Y142858D01*
X380308Y142822D01*
X380411Y142782D01*
X380513Y142739D01*
X380614Y142692D01*
X380713Y142641D01*
X380810Y142588D01*
X380904Y142531D01*
X380997Y142470D01*
X381088Y142407D01*
X381177Y142340D01*
X381263Y142270D01*
X381346Y142197D01*
X381428Y142122D01*
X381506Y142044D01*
X381581Y141962D01*
X381654Y141879D01*
X381724Y141793D01*
X381791Y141704D01*
X381854Y141613D01*
X381915Y141520D01*
X381972Y141426D01*
X382025Y141329D01*
X382076Y141230D01*
X382123Y141129D01*
X382166Y141027D01*
X382206Y140924D01*
X382242Y140819D01*
X382274Y140713D01*
X382303Y140606D01*
X382328Y140498D01*
X382349Y140389D01*
X382366Y140280D01*
X382380Y140170D01*
X382389Y140059D01*
X382395Y139949D01*
X382397Y139838D01*
X382397Y136663D01*
X378587Y147522D02*
X376047Y150697D01*
X387477Y150697D01*
X387477Y147522D02*
X387477Y153872D01*
D13*
X412750Y63500D02*
X425450Y63500D01*
X412750Y63500D02*
X406400Y69850D01*
X406400Y82550D01*
X412750Y88900D01*
X431800Y82550D02*
X431800Y69850D01*
X425450Y63500D01*
X431800Y82550D02*
X425450Y88900D01*
X412750Y88900D01*
X406400Y69850D02*
X400050Y63500D01*
X387350Y63500D01*
X381000Y69850D01*
X381000Y82550D01*
X387350Y88900D01*
X400050Y88900D01*
X406400Y82550D01*
D14*
X408738Y57277D02*
X408738Y48387D01*
X408736Y48287D01*
X408730Y48188D01*
X408720Y48088D01*
X408707Y47990D01*
X408689Y47891D01*
X408668Y47794D01*
X408643Y47698D01*
X408614Y47602D01*
X408581Y47508D01*
X408545Y47415D01*
X408505Y47324D01*
X408461Y47234D01*
X408414Y47146D01*
X408364Y47060D01*
X408310Y46976D01*
X408253Y46894D01*
X408193Y46815D01*
X408129Y46737D01*
X408063Y46663D01*
X407994Y46591D01*
X407922Y46522D01*
X407848Y46456D01*
X407770Y46392D01*
X407691Y46332D01*
X407609Y46275D01*
X407525Y46221D01*
X407439Y46171D01*
X407351Y46124D01*
X407261Y46080D01*
X407170Y46040D01*
X407077Y46004D01*
X406983Y45971D01*
X406887Y45942D01*
X406791Y45917D01*
X406694Y45896D01*
X406595Y45878D01*
X406497Y45865D01*
X406397Y45855D01*
X406298Y45849D01*
X406198Y45847D01*
X404928Y45847D01*
X414719Y45847D02*
X414719Y57277D01*
X417894Y57277D01*
X418005Y57275D01*
X418115Y57269D01*
X418226Y57260D01*
X418336Y57246D01*
X418445Y57229D01*
X418554Y57208D01*
X418662Y57183D01*
X418769Y57154D01*
X418875Y57122D01*
X418980Y57086D01*
X419083Y57046D01*
X419185Y57003D01*
X419286Y56956D01*
X419385Y56905D01*
X419482Y56852D01*
X419576Y56795D01*
X419669Y56734D01*
X419760Y56671D01*
X419849Y56604D01*
X419935Y56534D01*
X420018Y56461D01*
X420100Y56386D01*
X420178Y56308D01*
X420253Y56226D01*
X420326Y56143D01*
X420396Y56057D01*
X420463Y55968D01*
X420526Y55877D01*
X420587Y55784D01*
X420644Y55689D01*
X420697Y55593D01*
X420748Y55494D01*
X420795Y55393D01*
X420838Y55291D01*
X420878Y55188D01*
X420914Y55083D01*
X420946Y54977D01*
X420975Y54870D01*
X421000Y54762D01*
X421021Y54653D01*
X421038Y54544D01*
X421052Y54434D01*
X421061Y54323D01*
X421067Y54213D01*
X421069Y54102D01*
X421067Y53991D01*
X421061Y53881D01*
X421052Y53770D01*
X421038Y53660D01*
X421021Y53551D01*
X421000Y53442D01*
X420975Y53334D01*
X420946Y53227D01*
X420914Y53121D01*
X420878Y53016D01*
X420838Y52913D01*
X420795Y52811D01*
X420748Y52710D01*
X420697Y52611D01*
X420644Y52514D01*
X420587Y52420D01*
X420526Y52327D01*
X420463Y52236D01*
X420396Y52147D01*
X420326Y52061D01*
X420253Y51978D01*
X420178Y51896D01*
X420100Y51818D01*
X420018Y51743D01*
X419935Y51670D01*
X419849Y51600D01*
X419760Y51533D01*
X419669Y51470D01*
X419576Y51409D01*
X419482Y51352D01*
X419385Y51299D01*
X419286Y51248D01*
X419185Y51201D01*
X419083Y51158D01*
X418980Y51118D01*
X418875Y51082D01*
X418769Y51050D01*
X418662Y51021D01*
X418554Y50996D01*
X418445Y50975D01*
X418336Y50958D01*
X418226Y50944D01*
X418115Y50935D01*
X418005Y50929D01*
X417894Y50927D01*
X414719Y50927D01*
X425577Y45847D02*
X428752Y45847D01*
X428863Y45849D01*
X428973Y45855D01*
X429084Y45864D01*
X429194Y45878D01*
X429303Y45895D01*
X429412Y45916D01*
X429520Y45941D01*
X429627Y45970D01*
X429733Y46002D01*
X429838Y46038D01*
X429941Y46078D01*
X430043Y46121D01*
X430144Y46168D01*
X430243Y46219D01*
X430340Y46272D01*
X430434Y46329D01*
X430527Y46390D01*
X430618Y46453D01*
X430707Y46520D01*
X430793Y46590D01*
X430876Y46663D01*
X430958Y46738D01*
X431036Y46816D01*
X431111Y46898D01*
X431184Y46981D01*
X431254Y47067D01*
X431321Y47156D01*
X431384Y47247D01*
X431445Y47340D01*
X431502Y47434D01*
X431555Y47531D01*
X431606Y47630D01*
X431653Y47731D01*
X431696Y47833D01*
X431736Y47936D01*
X431772Y48041D01*
X431804Y48147D01*
X431833Y48254D01*
X431858Y48362D01*
X431879Y48471D01*
X431896Y48580D01*
X431910Y48690D01*
X431919Y48801D01*
X431925Y48911D01*
X431927Y49022D01*
X431925Y49133D01*
X431919Y49243D01*
X431910Y49354D01*
X431896Y49464D01*
X431879Y49573D01*
X431858Y49682D01*
X431833Y49790D01*
X431804Y49897D01*
X431772Y50003D01*
X431736Y50108D01*
X431696Y50211D01*
X431653Y50313D01*
X431606Y50414D01*
X431555Y50513D01*
X431502Y50609D01*
X431445Y50704D01*
X431384Y50797D01*
X431321Y50888D01*
X431254Y50977D01*
X431184Y51063D01*
X431111Y51146D01*
X431036Y51228D01*
X430958Y51306D01*
X430876Y51381D01*
X430793Y51454D01*
X430707Y51524D01*
X430618Y51591D01*
X430527Y51654D01*
X430434Y51715D01*
X430340Y51772D01*
X430243Y51825D01*
X430144Y51876D01*
X430043Y51923D01*
X429941Y51966D01*
X429838Y52006D01*
X429733Y52042D01*
X429627Y52074D01*
X429520Y52103D01*
X429412Y52128D01*
X429303Y52149D01*
X429194Y52166D01*
X429084Y52180D01*
X428973Y52189D01*
X428863Y52195D01*
X428752Y52197D01*
X429387Y57277D02*
X425577Y57277D01*
X429387Y57277D02*
X429487Y57275D01*
X429586Y57269D01*
X429686Y57259D01*
X429784Y57246D01*
X429883Y57228D01*
X429980Y57207D01*
X430076Y57182D01*
X430172Y57153D01*
X430266Y57120D01*
X430359Y57084D01*
X430450Y57044D01*
X430540Y57000D01*
X430628Y56953D01*
X430714Y56903D01*
X430798Y56849D01*
X430880Y56792D01*
X430959Y56732D01*
X431037Y56668D01*
X431111Y56602D01*
X431183Y56533D01*
X431252Y56461D01*
X431318Y56387D01*
X431382Y56309D01*
X431442Y56230D01*
X431499Y56148D01*
X431553Y56064D01*
X431603Y55978D01*
X431650Y55890D01*
X431694Y55800D01*
X431734Y55709D01*
X431770Y55616D01*
X431803Y55522D01*
X431832Y55426D01*
X431857Y55330D01*
X431878Y55233D01*
X431896Y55134D01*
X431909Y55036D01*
X431919Y54936D01*
X431925Y54837D01*
X431927Y54737D01*
X431925Y54637D01*
X431919Y54538D01*
X431909Y54438D01*
X431896Y54340D01*
X431878Y54241D01*
X431857Y54144D01*
X431832Y54048D01*
X431803Y53952D01*
X431770Y53858D01*
X431734Y53765D01*
X431694Y53674D01*
X431650Y53584D01*
X431603Y53496D01*
X431553Y53410D01*
X431499Y53326D01*
X431442Y53244D01*
X431382Y53165D01*
X431318Y53087D01*
X431252Y53013D01*
X431183Y52941D01*
X431111Y52872D01*
X431037Y52806D01*
X430959Y52742D01*
X430880Y52682D01*
X430798Y52625D01*
X430714Y52571D01*
X430628Y52521D01*
X430540Y52474D01*
X430450Y52430D01*
X430359Y52390D01*
X430266Y52354D01*
X430172Y52321D01*
X430076Y52292D01*
X429980Y52267D01*
X429883Y52246D01*
X429784Y52228D01*
X429686Y52215D01*
X429586Y52205D01*
X429487Y52199D01*
X429387Y52197D01*
X426847Y52197D01*
D10*
X489800Y122000D02*
X489924Y121867D01*
X490052Y121737D01*
X490182Y121610D01*
X490316Y121486D01*
X490452Y121365D01*
X490592Y121248D01*
X490734Y121135D01*
X490879Y121025D01*
X491027Y120918D01*
X491177Y120815D01*
X491330Y120716D01*
X491485Y120621D01*
X491642Y120529D01*
X491802Y120442D01*
X491964Y120358D01*
X492127Y120278D01*
X492293Y120202D01*
X492460Y120131D01*
X492630Y120063D01*
X492800Y120000D01*
X492972Y119941D01*
X493146Y119886D01*
X493321Y119835D01*
X493497Y119789D01*
X493674Y119747D01*
X493852Y119709D01*
X494032Y119676D01*
X494211Y119647D01*
X494392Y119623D01*
X494573Y119603D01*
X494754Y119587D01*
X494936Y119576D01*
X495118Y119569D01*
X495300Y119567D01*
X495482Y119569D01*
X495664Y119576D01*
X495846Y119587D01*
X496027Y119603D01*
X496208Y119623D01*
X496389Y119647D01*
X496568Y119676D01*
X496748Y119709D01*
X496926Y119747D01*
X497103Y119789D01*
X497279Y119835D01*
X497454Y119886D01*
X497628Y119941D01*
X497800Y120000D01*
X497970Y120063D01*
X498140Y120131D01*
X498307Y120202D01*
X498473Y120278D01*
X498636Y120358D01*
X498798Y120442D01*
X498958Y120529D01*
X499115Y120621D01*
X499270Y120716D01*
X499423Y120815D01*
X499573Y120918D01*
X499721Y121025D01*
X499866Y121135D01*
X500008Y121248D01*
X500148Y121365D01*
X500284Y121486D01*
X500418Y121610D01*
X500548Y121737D01*
X500676Y121867D01*
X500800Y122000D01*
X500800Y132000D02*
X500676Y132133D01*
X500548Y132263D01*
X500418Y132390D01*
X500284Y132514D01*
X500148Y132635D01*
X500008Y132752D01*
X499866Y132865D01*
X499721Y132975D01*
X499573Y133082D01*
X499423Y133185D01*
X499270Y133284D01*
X499115Y133379D01*
X498958Y133471D01*
X498798Y133558D01*
X498636Y133642D01*
X498473Y133722D01*
X498307Y133798D01*
X498140Y133869D01*
X497970Y133937D01*
X497800Y134000D01*
X497628Y134059D01*
X497454Y134114D01*
X497279Y134165D01*
X497103Y134211D01*
X496926Y134253D01*
X496748Y134291D01*
X496568Y134324D01*
X496389Y134353D01*
X496208Y134377D01*
X496027Y134397D01*
X495846Y134413D01*
X495664Y134424D01*
X495482Y134431D01*
X495300Y134433D01*
X495118Y134431D01*
X494936Y134424D01*
X494754Y134413D01*
X494573Y134397D01*
X494392Y134377D01*
X494211Y134353D01*
X494032Y134324D01*
X493852Y134291D01*
X493674Y134253D01*
X493497Y134211D01*
X493321Y134165D01*
X493146Y134114D01*
X492972Y134059D01*
X492800Y134000D01*
X492630Y133937D01*
X492460Y133869D01*
X492293Y133798D01*
X492127Y133722D01*
X491964Y133642D01*
X491802Y133558D01*
X491642Y133471D01*
X491485Y133379D01*
X491330Y133284D01*
X491177Y133185D01*
X491027Y133082D01*
X490879Y132975D01*
X490734Y132865D01*
X490592Y132752D01*
X490452Y132635D01*
X490316Y132514D01*
X490182Y132390D01*
X490052Y132263D01*
X489924Y132133D01*
X489800Y132000D01*
D11*
X495300Y127000D03*
D12*
X500550Y121250D03*
D10*
X483108Y140208D02*
X483108Y151892D01*
X483108Y140208D02*
X488301Y140208D01*
X492610Y143454D02*
X492610Y148646D01*
X492612Y148759D01*
X492618Y148872D01*
X492628Y148985D01*
X492642Y149098D01*
X492659Y149210D01*
X492681Y149321D01*
X492706Y149431D01*
X492736Y149541D01*
X492769Y149649D01*
X492806Y149756D01*
X492846Y149862D01*
X492891Y149966D01*
X492939Y150069D01*
X492990Y150170D01*
X493045Y150269D01*
X493103Y150366D01*
X493165Y150461D01*
X493230Y150554D01*
X493298Y150644D01*
X493369Y150732D01*
X493444Y150818D01*
X493521Y150901D01*
X493601Y150981D01*
X493684Y151058D01*
X493770Y151133D01*
X493858Y151204D01*
X493948Y151272D01*
X494041Y151337D01*
X494136Y151399D01*
X494233Y151457D01*
X494332Y151512D01*
X494433Y151563D01*
X494536Y151611D01*
X494640Y151656D01*
X494746Y151696D01*
X494853Y151733D01*
X494961Y151766D01*
X495071Y151796D01*
X495181Y151821D01*
X495292Y151843D01*
X495404Y151860D01*
X495517Y151874D01*
X495630Y151884D01*
X495743Y151890D01*
X495856Y151892D01*
X495969Y151890D01*
X496082Y151884D01*
X496195Y151874D01*
X496308Y151860D01*
X496420Y151843D01*
X496531Y151821D01*
X496641Y151796D01*
X496751Y151766D01*
X496859Y151733D01*
X496966Y151696D01*
X497072Y151656D01*
X497176Y151611D01*
X497279Y151563D01*
X497380Y151512D01*
X497479Y151457D01*
X497576Y151399D01*
X497671Y151337D01*
X497764Y151272D01*
X497854Y151204D01*
X497942Y151133D01*
X498028Y151058D01*
X498111Y150981D01*
X498191Y150901D01*
X498268Y150818D01*
X498343Y150732D01*
X498414Y150644D01*
X498482Y150554D01*
X498547Y150461D01*
X498609Y150366D01*
X498667Y150269D01*
X498722Y150170D01*
X498773Y150069D01*
X498821Y149966D01*
X498866Y149862D01*
X498906Y149756D01*
X498943Y149649D01*
X498976Y149541D01*
X499006Y149431D01*
X499031Y149321D01*
X499053Y149210D01*
X499070Y149098D01*
X499084Y148985D01*
X499094Y148872D01*
X499100Y148759D01*
X499102Y148646D01*
X499102Y143454D01*
X499100Y143341D01*
X499094Y143228D01*
X499084Y143115D01*
X499070Y143002D01*
X499053Y142890D01*
X499031Y142779D01*
X499006Y142669D01*
X498976Y142559D01*
X498943Y142451D01*
X498906Y142344D01*
X498866Y142238D01*
X498821Y142134D01*
X498773Y142031D01*
X498722Y141930D01*
X498667Y141831D01*
X498609Y141734D01*
X498547Y141639D01*
X498482Y141546D01*
X498414Y141456D01*
X498343Y141368D01*
X498268Y141282D01*
X498191Y141199D01*
X498111Y141119D01*
X498028Y141042D01*
X497942Y140967D01*
X497854Y140896D01*
X497764Y140828D01*
X497671Y140763D01*
X497576Y140701D01*
X497479Y140643D01*
X497380Y140588D01*
X497279Y140537D01*
X497176Y140489D01*
X497072Y140444D01*
X496966Y140404D01*
X496859Y140367D01*
X496751Y140334D01*
X496641Y140304D01*
X496531Y140279D01*
X496420Y140257D01*
X496308Y140240D01*
X496195Y140226D01*
X496082Y140216D01*
X495969Y140210D01*
X495856Y140208D01*
X495743Y140210D01*
X495630Y140216D01*
X495517Y140226D01*
X495404Y140240D01*
X495292Y140257D01*
X495181Y140279D01*
X495071Y140304D01*
X494961Y140334D01*
X494853Y140367D01*
X494746Y140404D01*
X494640Y140444D01*
X494536Y140489D01*
X494433Y140537D01*
X494332Y140588D01*
X494233Y140643D01*
X494136Y140701D01*
X494041Y140763D01*
X493948Y140828D01*
X493858Y140896D01*
X493770Y140967D01*
X493684Y141042D01*
X493601Y141119D01*
X493521Y141199D01*
X493444Y141282D01*
X493369Y141368D01*
X493298Y141456D01*
X493230Y141546D01*
X493165Y141639D01*
X493103Y141734D01*
X493045Y141831D01*
X492990Y141930D01*
X492939Y142031D01*
X492891Y142134D01*
X492846Y142238D01*
X492806Y142344D01*
X492769Y142451D01*
X492736Y142559D01*
X492706Y142669D01*
X492681Y142779D01*
X492659Y142890D01*
X492642Y143002D01*
X492628Y143115D01*
X492618Y143228D01*
X492612Y143341D01*
X492610Y143454D01*
X506604Y140208D02*
X509200Y140208D01*
X506604Y140208D02*
X506505Y140210D01*
X506405Y140216D01*
X506306Y140225D01*
X506208Y140238D01*
X506110Y140255D01*
X506012Y140276D01*
X505916Y140301D01*
X505821Y140329D01*
X505727Y140361D01*
X505634Y140396D01*
X505542Y140435D01*
X505452Y140478D01*
X505364Y140523D01*
X505277Y140573D01*
X505193Y140625D01*
X505110Y140681D01*
X505030Y140739D01*
X504952Y140801D01*
X504877Y140866D01*
X504804Y140934D01*
X504734Y141004D01*
X504666Y141077D01*
X504601Y141152D01*
X504539Y141230D01*
X504481Y141310D01*
X504425Y141393D01*
X504373Y141477D01*
X504323Y141564D01*
X504278Y141652D01*
X504235Y141742D01*
X504196Y141834D01*
X504161Y141927D01*
X504129Y142021D01*
X504101Y142116D01*
X504076Y142212D01*
X504055Y142310D01*
X504038Y142408D01*
X504025Y142506D01*
X504016Y142605D01*
X504010Y142705D01*
X504008Y142804D01*
X504007Y142804D02*
X504007Y149296D01*
X504008Y149296D02*
X504010Y149395D01*
X504016Y149495D01*
X504025Y149594D01*
X504038Y149692D01*
X504055Y149790D01*
X504076Y149888D01*
X504101Y149984D01*
X504129Y150079D01*
X504161Y150173D01*
X504196Y150266D01*
X504235Y150358D01*
X504278Y150448D01*
X504323Y150536D01*
X504373Y150623D01*
X504425Y150707D01*
X504481Y150790D01*
X504539Y150870D01*
X504601Y150948D01*
X504666Y151023D01*
X504734Y151096D01*
X504804Y151166D01*
X504877Y151234D01*
X504952Y151299D01*
X505030Y151361D01*
X505110Y151419D01*
X505193Y151475D01*
X505277Y151527D01*
X505364Y151577D01*
X505452Y151622D01*
X505542Y151665D01*
X505634Y151704D01*
X505726Y151739D01*
X505821Y151771D01*
X505916Y151799D01*
X506012Y151824D01*
X506110Y151845D01*
X506208Y151862D01*
X506306Y151875D01*
X506405Y151884D01*
X506505Y151890D01*
X506604Y151892D01*
X509200Y151892D01*
X514116Y151892D02*
X514116Y140208D01*
X514116Y144752D02*
X520607Y151892D01*
X516712Y147348D02*
X520607Y140208D01*
X525376Y143454D02*
X525376Y151892D01*
X525376Y143454D02*
X525378Y143341D01*
X525384Y143228D01*
X525394Y143115D01*
X525408Y143002D01*
X525425Y142890D01*
X525447Y142779D01*
X525472Y142669D01*
X525502Y142559D01*
X525535Y142451D01*
X525572Y142344D01*
X525612Y142238D01*
X525657Y142134D01*
X525705Y142031D01*
X525756Y141930D01*
X525811Y141831D01*
X525869Y141734D01*
X525931Y141639D01*
X525996Y141546D01*
X526064Y141456D01*
X526135Y141368D01*
X526210Y141282D01*
X526287Y141199D01*
X526367Y141119D01*
X526450Y141042D01*
X526536Y140967D01*
X526624Y140896D01*
X526714Y140828D01*
X526807Y140763D01*
X526902Y140701D01*
X526999Y140643D01*
X527098Y140588D01*
X527199Y140537D01*
X527302Y140489D01*
X527406Y140444D01*
X527512Y140404D01*
X527619Y140367D01*
X527727Y140334D01*
X527837Y140304D01*
X527947Y140279D01*
X528058Y140257D01*
X528170Y140240D01*
X528283Y140226D01*
X528396Y140216D01*
X528509Y140210D01*
X528622Y140208D01*
X528735Y140210D01*
X528848Y140216D01*
X528961Y140226D01*
X529074Y140240D01*
X529186Y140257D01*
X529297Y140279D01*
X529407Y140304D01*
X529517Y140334D01*
X529625Y140367D01*
X529732Y140404D01*
X529838Y140444D01*
X529942Y140489D01*
X530045Y140537D01*
X530146Y140588D01*
X530245Y140643D01*
X530342Y140701D01*
X530437Y140763D01*
X530530Y140828D01*
X530620Y140896D01*
X530708Y140967D01*
X530794Y141042D01*
X530877Y141119D01*
X530957Y141199D01*
X531034Y141282D01*
X531109Y141368D01*
X531180Y141456D01*
X531248Y141546D01*
X531313Y141639D01*
X531375Y141734D01*
X531433Y141831D01*
X531488Y141930D01*
X531539Y142031D01*
X531587Y142134D01*
X531632Y142238D01*
X531672Y142344D01*
X531709Y142451D01*
X531742Y142559D01*
X531772Y142669D01*
X531797Y142779D01*
X531819Y142890D01*
X531836Y143002D01*
X531850Y143115D01*
X531860Y143228D01*
X531866Y143341D01*
X531868Y143454D01*
X531867Y143454D02*
X531867Y151892D01*
X537738Y151892D02*
X537738Y140208D01*
X537738Y151892D02*
X540983Y151892D01*
X541096Y151890D01*
X541209Y151884D01*
X541322Y151874D01*
X541435Y151860D01*
X541547Y151843D01*
X541658Y151821D01*
X541768Y151796D01*
X541878Y151766D01*
X541986Y151733D01*
X542093Y151696D01*
X542199Y151656D01*
X542303Y151611D01*
X542406Y151563D01*
X542507Y151512D01*
X542606Y151457D01*
X542703Y151399D01*
X542798Y151337D01*
X542891Y151272D01*
X542981Y151204D01*
X543069Y151133D01*
X543155Y151058D01*
X543238Y150981D01*
X543318Y150901D01*
X543395Y150818D01*
X543470Y150732D01*
X543541Y150644D01*
X543609Y150554D01*
X543674Y150461D01*
X543736Y150366D01*
X543794Y150269D01*
X543849Y150170D01*
X543900Y150069D01*
X543948Y149966D01*
X543993Y149862D01*
X544033Y149756D01*
X544070Y149649D01*
X544103Y149541D01*
X544133Y149431D01*
X544158Y149321D01*
X544180Y149210D01*
X544197Y149098D01*
X544211Y148985D01*
X544221Y148872D01*
X544227Y148759D01*
X544229Y148646D01*
X544227Y148533D01*
X544221Y148420D01*
X544211Y148307D01*
X544197Y148194D01*
X544180Y148082D01*
X544158Y147971D01*
X544133Y147861D01*
X544103Y147751D01*
X544070Y147643D01*
X544033Y147536D01*
X543993Y147430D01*
X543948Y147326D01*
X543900Y147223D01*
X543849Y147122D01*
X543794Y147023D01*
X543736Y146926D01*
X543674Y146831D01*
X543609Y146738D01*
X543541Y146648D01*
X543470Y146560D01*
X543395Y146474D01*
X543318Y146391D01*
X543238Y146311D01*
X543155Y146234D01*
X543069Y146159D01*
X542981Y146088D01*
X542891Y146020D01*
X542798Y145955D01*
X542703Y145893D01*
X542606Y145835D01*
X542507Y145780D01*
X542406Y145729D01*
X542303Y145681D01*
X542199Y145636D01*
X542093Y145596D01*
X541986Y145559D01*
X541878Y145526D01*
X541768Y145496D01*
X541658Y145471D01*
X541547Y145449D01*
X541435Y145432D01*
X541322Y145418D01*
X541209Y145408D01*
X541096Y145402D01*
X540983Y145400D01*
X540983Y145401D02*
X537738Y145401D01*
D15*
X431800Y215900D02*
X431800Y393700D01*
X0Y393700D01*
X0Y215900D01*
X431800Y215900D01*
D16*
X19519Y305181D02*
X10281Y305181D01*
X15413Y308260D01*
X10281Y311340D01*
X19519Y311340D01*
X16953Y315594D02*
X12847Y315594D01*
X12748Y315596D01*
X12648Y315602D01*
X12549Y315611D01*
X12451Y315625D01*
X12353Y315642D01*
X12255Y315663D01*
X12159Y315688D01*
X12064Y315717D01*
X11969Y315749D01*
X11877Y315785D01*
X11785Y315824D01*
X11695Y315867D01*
X11607Y315913D01*
X11521Y315963D01*
X11437Y316016D01*
X11355Y316072D01*
X11275Y316132D01*
X11198Y316194D01*
X11123Y316260D01*
X11050Y316328D01*
X10981Y316399D01*
X10914Y316473D01*
X10850Y316549D01*
X10789Y316628D01*
X10731Y316709D01*
X10676Y316792D01*
X10625Y316877D01*
X10577Y316964D01*
X10532Y317053D01*
X10491Y317144D01*
X10453Y317236D01*
X10419Y317329D01*
X10389Y317424D01*
X10362Y317520D01*
X10339Y317617D01*
X10320Y317714D01*
X10305Y317813D01*
X10293Y317912D01*
X10285Y318011D01*
X10281Y318110D01*
X10281Y318210D01*
X10285Y318309D01*
X10293Y318408D01*
X10305Y318507D01*
X10320Y318606D01*
X10339Y318703D01*
X10362Y318800D01*
X10389Y318896D01*
X10419Y318991D01*
X10453Y319084D01*
X10491Y319176D01*
X10532Y319267D01*
X10577Y319356D01*
X10625Y319443D01*
X10676Y319528D01*
X10731Y319611D01*
X10789Y319692D01*
X10850Y319771D01*
X10914Y319847D01*
X10981Y319921D01*
X11050Y319992D01*
X11123Y320060D01*
X11198Y320126D01*
X11275Y320188D01*
X11355Y320248D01*
X11437Y320304D01*
X11521Y320357D01*
X11607Y320407D01*
X11695Y320453D01*
X11785Y320496D01*
X11877Y320535D01*
X11969Y320571D01*
X12064Y320603D01*
X12159Y320632D01*
X12255Y320657D01*
X12353Y320678D01*
X12451Y320695D01*
X12549Y320709D01*
X12648Y320718D01*
X12748Y320724D01*
X12847Y320726D01*
X16953Y320726D01*
X17052Y320724D01*
X17152Y320718D01*
X17251Y320709D01*
X17349Y320695D01*
X17447Y320678D01*
X17545Y320657D01*
X17641Y320632D01*
X17736Y320603D01*
X17831Y320571D01*
X17923Y320535D01*
X18015Y320496D01*
X18105Y320453D01*
X18193Y320407D01*
X18279Y320357D01*
X18363Y320304D01*
X18445Y320248D01*
X18525Y320188D01*
X18602Y320126D01*
X18677Y320060D01*
X18750Y319992D01*
X18819Y319921D01*
X18886Y319847D01*
X18950Y319771D01*
X19011Y319692D01*
X19069Y319611D01*
X19124Y319528D01*
X19175Y319443D01*
X19223Y319356D01*
X19268Y319267D01*
X19309Y319176D01*
X19347Y319084D01*
X19381Y318991D01*
X19411Y318896D01*
X19438Y318800D01*
X19461Y318703D01*
X19480Y318606D01*
X19495Y318507D01*
X19507Y318408D01*
X19515Y318309D01*
X19519Y318210D01*
X19519Y318110D01*
X19515Y318011D01*
X19507Y317912D01*
X19495Y317813D01*
X19480Y317714D01*
X19461Y317617D01*
X19438Y317520D01*
X19411Y317424D01*
X19381Y317329D01*
X19347Y317236D01*
X19309Y317144D01*
X19268Y317053D01*
X19223Y316964D01*
X19175Y316877D01*
X19124Y316792D01*
X19069Y316709D01*
X19011Y316628D01*
X18950Y316549D01*
X18886Y316473D01*
X18819Y316399D01*
X18750Y316328D01*
X18677Y316260D01*
X18602Y316194D01*
X18525Y316132D01*
X18445Y316072D01*
X18363Y316016D01*
X18279Y315963D01*
X18193Y315913D01*
X18105Y315867D01*
X18015Y315824D01*
X17923Y315785D01*
X17831Y315749D01*
X17736Y315717D01*
X17641Y315688D01*
X17545Y315663D01*
X17447Y315642D01*
X17349Y315625D01*
X17251Y315611D01*
X17152Y315602D01*
X17052Y315596D01*
X16953Y315594D01*
X19519Y324894D02*
X10281Y324894D01*
X10281Y327460D01*
X10283Y327558D01*
X10289Y327656D01*
X10298Y327754D01*
X10311Y327852D01*
X10328Y327949D01*
X10348Y328045D01*
X10373Y328140D01*
X10401Y328234D01*
X10432Y328327D01*
X10467Y328419D01*
X10506Y328510D01*
X10547Y328599D01*
X10593Y328686D01*
X10641Y328771D01*
X10693Y328855D01*
X10748Y328936D01*
X10806Y329016D01*
X10867Y329093D01*
X10931Y329167D01*
X10998Y329239D01*
X11068Y329309D01*
X11140Y329376D01*
X11214Y329440D01*
X11291Y329501D01*
X11371Y329559D01*
X11452Y329614D01*
X11536Y329666D01*
X11621Y329714D01*
X11708Y329760D01*
X11797Y329801D01*
X11888Y329840D01*
X11980Y329875D01*
X12073Y329906D01*
X12167Y329934D01*
X12262Y329959D01*
X12358Y329979D01*
X12455Y329996D01*
X12553Y330009D01*
X12651Y330018D01*
X12749Y330024D01*
X12847Y330026D01*
X16953Y330026D01*
X17051Y330024D01*
X17149Y330018D01*
X17247Y330009D01*
X17345Y329996D01*
X17442Y329979D01*
X17538Y329959D01*
X17633Y329934D01*
X17727Y329906D01*
X17820Y329875D01*
X17912Y329840D01*
X18003Y329801D01*
X18092Y329760D01*
X18179Y329714D01*
X18264Y329666D01*
X18348Y329614D01*
X18429Y329559D01*
X18509Y329501D01*
X18586Y329440D01*
X18660Y329376D01*
X18732Y329309D01*
X18802Y329239D01*
X18869Y329167D01*
X18933Y329093D01*
X18994Y329016D01*
X19052Y328936D01*
X19107Y328855D01*
X19159Y328771D01*
X19207Y328686D01*
X19253Y328599D01*
X19294Y328510D01*
X19333Y328419D01*
X19368Y328327D01*
X19399Y328234D01*
X19427Y328140D01*
X19452Y328045D01*
X19472Y327949D01*
X19489Y327852D01*
X19502Y327754D01*
X19511Y327656D01*
X19517Y327558D01*
X19519Y327460D01*
X19519Y324894D01*
X16953Y334494D02*
X10281Y334494D01*
X16953Y334494D02*
X17052Y334496D01*
X17152Y334502D01*
X17251Y334511D01*
X17349Y334525D01*
X17447Y334542D01*
X17545Y334563D01*
X17641Y334588D01*
X17736Y334617D01*
X17831Y334649D01*
X17923Y334685D01*
X18015Y334724D01*
X18105Y334767D01*
X18193Y334813D01*
X18279Y334863D01*
X18363Y334916D01*
X18445Y334972D01*
X18525Y335032D01*
X18602Y335094D01*
X18677Y335160D01*
X18750Y335228D01*
X18819Y335299D01*
X18886Y335373D01*
X18950Y335449D01*
X19011Y335528D01*
X19069Y335609D01*
X19124Y335692D01*
X19175Y335777D01*
X19223Y335864D01*
X19268Y335953D01*
X19309Y336044D01*
X19347Y336136D01*
X19381Y336229D01*
X19411Y336324D01*
X19438Y336420D01*
X19461Y336517D01*
X19480Y336614D01*
X19495Y336713D01*
X19507Y336812D01*
X19515Y336911D01*
X19519Y337010D01*
X19519Y337110D01*
X19515Y337209D01*
X19507Y337308D01*
X19495Y337407D01*
X19480Y337506D01*
X19461Y337603D01*
X19438Y337700D01*
X19411Y337796D01*
X19381Y337891D01*
X19347Y337984D01*
X19309Y338076D01*
X19268Y338167D01*
X19223Y338256D01*
X19175Y338343D01*
X19124Y338428D01*
X19069Y338511D01*
X19011Y338592D01*
X18950Y338671D01*
X18886Y338747D01*
X18819Y338821D01*
X18750Y338892D01*
X18677Y338960D01*
X18602Y339026D01*
X18525Y339088D01*
X18445Y339148D01*
X18363Y339204D01*
X18279Y339257D01*
X18193Y339307D01*
X18105Y339353D01*
X18015Y339396D01*
X17923Y339435D01*
X17831Y339471D01*
X17736Y339503D01*
X17641Y339532D01*
X17545Y339557D01*
X17447Y339578D01*
X17349Y339595D01*
X17251Y339609D01*
X17152Y339618D01*
X17052Y339624D01*
X16953Y339626D01*
X10281Y339626D01*
X10281Y344111D02*
X19519Y344111D01*
X19519Y348217D01*
X12334Y351594D02*
X10281Y354160D01*
X19519Y354160D01*
X19519Y351594D02*
X19519Y356726D01*
D10*
X489800Y376000D02*
X489924Y375867D01*
X490052Y375737D01*
X490182Y375610D01*
X490316Y375486D01*
X490452Y375365D01*
X490592Y375248D01*
X490734Y375135D01*
X490879Y375025D01*
X491027Y374918D01*
X491177Y374815D01*
X491330Y374716D01*
X491485Y374621D01*
X491642Y374529D01*
X491802Y374442D01*
X491964Y374358D01*
X492127Y374278D01*
X492293Y374202D01*
X492460Y374131D01*
X492630Y374063D01*
X492800Y374000D01*
X492972Y373941D01*
X493146Y373886D01*
X493321Y373835D01*
X493497Y373789D01*
X493674Y373747D01*
X493852Y373709D01*
X494032Y373676D01*
X494211Y373647D01*
X494392Y373623D01*
X494573Y373603D01*
X494754Y373587D01*
X494936Y373576D01*
X495118Y373569D01*
X495300Y373567D01*
X495482Y373569D01*
X495664Y373576D01*
X495846Y373587D01*
X496027Y373603D01*
X496208Y373623D01*
X496389Y373647D01*
X496568Y373676D01*
X496748Y373709D01*
X496926Y373747D01*
X497103Y373789D01*
X497279Y373835D01*
X497454Y373886D01*
X497628Y373941D01*
X497800Y374000D01*
X497970Y374063D01*
X498140Y374131D01*
X498307Y374202D01*
X498473Y374278D01*
X498636Y374358D01*
X498798Y374442D01*
X498958Y374529D01*
X499115Y374621D01*
X499270Y374716D01*
X499423Y374815D01*
X499573Y374918D01*
X499721Y375025D01*
X499866Y375135D01*
X500008Y375248D01*
X500148Y375365D01*
X500284Y375486D01*
X500418Y375610D01*
X500548Y375737D01*
X500676Y375867D01*
X500800Y376000D01*
X500800Y386000D02*
X500676Y386133D01*
X500548Y386263D01*
X500418Y386390D01*
X500284Y386514D01*
X500148Y386635D01*
X500008Y386752D01*
X499866Y386865D01*
X499721Y386975D01*
X499573Y387082D01*
X499423Y387185D01*
X499270Y387284D01*
X499115Y387379D01*
X498958Y387471D01*
X498798Y387558D01*
X498636Y387642D01*
X498473Y387722D01*
X498307Y387798D01*
X498140Y387869D01*
X497970Y387937D01*
X497800Y388000D01*
X497628Y388059D01*
X497454Y388114D01*
X497279Y388165D01*
X497103Y388211D01*
X496926Y388253D01*
X496748Y388291D01*
X496568Y388324D01*
X496389Y388353D01*
X496208Y388377D01*
X496027Y388397D01*
X495846Y388413D01*
X495664Y388424D01*
X495482Y388431D01*
X495300Y388433D01*
X495118Y388431D01*
X494936Y388424D01*
X494754Y388413D01*
X494573Y388397D01*
X494392Y388377D01*
X494211Y388353D01*
X494032Y388324D01*
X493852Y388291D01*
X493674Y388253D01*
X493497Y388211D01*
X493321Y388165D01*
X493146Y388114D01*
X492972Y388059D01*
X492800Y388000D01*
X492630Y387937D01*
X492460Y387869D01*
X492293Y387798D01*
X492127Y387722D01*
X491964Y387642D01*
X491802Y387558D01*
X491642Y387471D01*
X491485Y387379D01*
X491330Y387284D01*
X491177Y387185D01*
X491027Y387082D01*
X490879Y386975D01*
X490734Y386865D01*
X490592Y386752D01*
X490452Y386635D01*
X490316Y386514D01*
X490182Y386390D01*
X490052Y386263D01*
X489924Y386133D01*
X489800Y386000D01*
D11*
X495300Y381000D03*
D12*
X500550Y375250D03*
D10*
X483108Y394208D02*
X483108Y405892D01*
X486354Y405892D01*
X486467Y405890D01*
X486580Y405884D01*
X486693Y405874D01*
X486806Y405860D01*
X486918Y405843D01*
X487029Y405821D01*
X487139Y405796D01*
X487249Y405766D01*
X487357Y405733D01*
X487464Y405696D01*
X487570Y405656D01*
X487674Y405611D01*
X487777Y405563D01*
X487878Y405512D01*
X487977Y405457D01*
X488074Y405399D01*
X488169Y405337D01*
X488262Y405272D01*
X488352Y405204D01*
X488440Y405133D01*
X488526Y405058D01*
X488609Y404981D01*
X488689Y404901D01*
X488766Y404818D01*
X488841Y404732D01*
X488912Y404644D01*
X488980Y404554D01*
X489045Y404461D01*
X489107Y404366D01*
X489165Y404269D01*
X489220Y404170D01*
X489271Y404069D01*
X489319Y403966D01*
X489364Y403862D01*
X489404Y403756D01*
X489441Y403649D01*
X489474Y403541D01*
X489504Y403431D01*
X489529Y403321D01*
X489551Y403210D01*
X489568Y403098D01*
X489582Y402985D01*
X489592Y402872D01*
X489598Y402759D01*
X489600Y402646D01*
X489598Y402533D01*
X489592Y402420D01*
X489582Y402307D01*
X489568Y402194D01*
X489551Y402082D01*
X489529Y401971D01*
X489504Y401861D01*
X489474Y401751D01*
X489441Y401643D01*
X489404Y401536D01*
X489364Y401430D01*
X489319Y401326D01*
X489271Y401223D01*
X489220Y401122D01*
X489165Y401023D01*
X489107Y400926D01*
X489045Y400831D01*
X488980Y400738D01*
X488912Y400648D01*
X488841Y400560D01*
X488766Y400474D01*
X488689Y400391D01*
X488609Y400311D01*
X488526Y400234D01*
X488440Y400159D01*
X488352Y400088D01*
X488262Y400020D01*
X488169Y399955D01*
X488074Y399893D01*
X487977Y399835D01*
X487878Y399780D01*
X487777Y399729D01*
X487674Y399681D01*
X487570Y399636D01*
X487464Y399596D01*
X487357Y399559D01*
X487249Y399526D01*
X487139Y399496D01*
X487029Y399471D01*
X486918Y399449D01*
X486806Y399432D01*
X486693Y399418D01*
X486580Y399408D01*
X486467Y399402D01*
X486354Y399400D01*
X486354Y399401D02*
X483108Y399401D01*
X493988Y397454D02*
X493988Y402646D01*
X493987Y402646D02*
X493989Y402759D01*
X493995Y402872D01*
X494005Y402985D01*
X494019Y403098D01*
X494036Y403210D01*
X494058Y403321D01*
X494083Y403431D01*
X494113Y403541D01*
X494146Y403649D01*
X494183Y403756D01*
X494223Y403862D01*
X494268Y403966D01*
X494316Y404069D01*
X494367Y404170D01*
X494422Y404269D01*
X494480Y404366D01*
X494542Y404461D01*
X494607Y404554D01*
X494675Y404644D01*
X494746Y404732D01*
X494821Y404818D01*
X494898Y404901D01*
X494978Y404981D01*
X495061Y405058D01*
X495147Y405133D01*
X495235Y405204D01*
X495325Y405272D01*
X495418Y405337D01*
X495513Y405399D01*
X495610Y405457D01*
X495709Y405512D01*
X495810Y405563D01*
X495913Y405611D01*
X496017Y405656D01*
X496123Y405696D01*
X496230Y405733D01*
X496338Y405766D01*
X496448Y405796D01*
X496558Y405821D01*
X496669Y405843D01*
X496781Y405860D01*
X496894Y405874D01*
X497007Y405884D01*
X497120Y405890D01*
X497233Y405892D01*
X497346Y405890D01*
X497459Y405884D01*
X497572Y405874D01*
X497685Y405860D01*
X497797Y405843D01*
X497908Y405821D01*
X498018Y405796D01*
X498128Y405766D01*
X498236Y405733D01*
X498343Y405696D01*
X498449Y405656D01*
X498553Y405611D01*
X498656Y405563D01*
X498757Y405512D01*
X498856Y405457D01*
X498953Y405399D01*
X499048Y405337D01*
X499141Y405272D01*
X499231Y405204D01*
X499319Y405133D01*
X499405Y405058D01*
X499488Y404981D01*
X499568Y404901D01*
X499645Y404818D01*
X499720Y404732D01*
X499791Y404644D01*
X499859Y404554D01*
X499924Y404461D01*
X499986Y404366D01*
X500044Y404269D01*
X500099Y404170D01*
X500150Y404069D01*
X500198Y403966D01*
X500243Y403862D01*
X500283Y403756D01*
X500320Y403649D01*
X500353Y403541D01*
X500383Y403431D01*
X500408Y403321D01*
X500430Y403210D01*
X500447Y403098D01*
X500461Y402985D01*
X500471Y402872D01*
X500477Y402759D01*
X500479Y402646D01*
X500479Y397454D01*
X500477Y397341D01*
X500471Y397228D01*
X500461Y397115D01*
X500447Y397002D01*
X500430Y396890D01*
X500408Y396779D01*
X500383Y396669D01*
X500353Y396559D01*
X500320Y396451D01*
X500283Y396344D01*
X500243Y396238D01*
X500198Y396134D01*
X500150Y396031D01*
X500099Y395930D01*
X500044Y395831D01*
X499986Y395734D01*
X499924Y395639D01*
X499859Y395546D01*
X499791Y395456D01*
X499720Y395368D01*
X499645Y395282D01*
X499568Y395199D01*
X499488Y395119D01*
X499405Y395042D01*
X499319Y394967D01*
X499231Y394896D01*
X499141Y394828D01*
X499048Y394763D01*
X498953Y394701D01*
X498856Y394643D01*
X498757Y394588D01*
X498656Y394537D01*
X498553Y394489D01*
X498449Y394444D01*
X498343Y394404D01*
X498236Y394367D01*
X498128Y394334D01*
X498018Y394304D01*
X497908Y394279D01*
X497797Y394257D01*
X497685Y394240D01*
X497572Y394226D01*
X497459Y394216D01*
X497346Y394210D01*
X497233Y394208D01*
X497120Y394210D01*
X497007Y394216D01*
X496894Y394226D01*
X496781Y394240D01*
X496669Y394257D01*
X496558Y394279D01*
X496448Y394304D01*
X496338Y394334D01*
X496230Y394367D01*
X496123Y394404D01*
X496017Y394444D01*
X495913Y394489D01*
X495810Y394537D01*
X495709Y394588D01*
X495610Y394643D01*
X495513Y394701D01*
X495418Y394763D01*
X495325Y394828D01*
X495235Y394896D01*
X495147Y394967D01*
X495061Y395042D01*
X494978Y395119D01*
X494898Y395199D01*
X494821Y395282D01*
X494746Y395368D01*
X494675Y395456D01*
X494607Y395546D01*
X494542Y395639D01*
X494480Y395734D01*
X494422Y395831D01*
X494367Y395930D01*
X494316Y396031D01*
X494268Y396134D01*
X494223Y396238D01*
X494183Y396344D01*
X494146Y396451D01*
X494113Y396559D01*
X494083Y396669D01*
X494058Y396779D01*
X494036Y396890D01*
X494019Y397002D01*
X494005Y397115D01*
X493995Y397228D01*
X493989Y397341D01*
X493987Y397454D01*
X504994Y405892D02*
X507591Y394208D01*
X510187Y401997D01*
X512784Y394208D01*
X515380Y405892D01*
X520299Y394208D02*
X525492Y394208D01*
X520299Y394208D02*
X520299Y405892D01*
X525492Y405892D01*
X524194Y400699D02*
X520299Y400699D01*
X530256Y405892D02*
X530256Y394208D01*
X530256Y405892D02*
X533502Y405892D01*
X533615Y405890D01*
X533728Y405884D01*
X533841Y405874D01*
X533954Y405860D01*
X534066Y405843D01*
X534177Y405821D01*
X534287Y405796D01*
X534397Y405766D01*
X534505Y405733D01*
X534612Y405696D01*
X534718Y405656D01*
X534822Y405611D01*
X534925Y405563D01*
X535026Y405512D01*
X535125Y405457D01*
X535222Y405399D01*
X535317Y405337D01*
X535410Y405272D01*
X535500Y405204D01*
X535588Y405133D01*
X535674Y405058D01*
X535757Y404981D01*
X535837Y404901D01*
X535914Y404818D01*
X535989Y404732D01*
X536060Y404644D01*
X536128Y404554D01*
X536193Y404461D01*
X536255Y404366D01*
X536313Y404269D01*
X536368Y404170D01*
X536419Y404069D01*
X536467Y403966D01*
X536512Y403862D01*
X536552Y403756D01*
X536589Y403649D01*
X536622Y403541D01*
X536652Y403431D01*
X536677Y403321D01*
X536699Y403210D01*
X536716Y403098D01*
X536730Y402985D01*
X536740Y402872D01*
X536746Y402759D01*
X536748Y402646D01*
X536746Y402533D01*
X536740Y402420D01*
X536730Y402307D01*
X536716Y402194D01*
X536699Y402082D01*
X536677Y401971D01*
X536652Y401861D01*
X536622Y401751D01*
X536589Y401643D01*
X536552Y401536D01*
X536512Y401430D01*
X536467Y401326D01*
X536419Y401223D01*
X536368Y401122D01*
X536313Y401023D01*
X536255Y400926D01*
X536193Y400831D01*
X536128Y400738D01*
X536060Y400648D01*
X535989Y400560D01*
X535914Y400474D01*
X535837Y400391D01*
X535757Y400311D01*
X535674Y400234D01*
X535588Y400159D01*
X535500Y400088D01*
X535410Y400020D01*
X535317Y399955D01*
X535222Y399893D01*
X535125Y399835D01*
X535026Y399780D01*
X534925Y399729D01*
X534822Y399681D01*
X534718Y399636D01*
X534612Y399596D01*
X534505Y399559D01*
X534397Y399526D01*
X534287Y399496D01*
X534177Y399471D01*
X534066Y399449D01*
X533954Y399432D01*
X533841Y399418D01*
X533728Y399408D01*
X533615Y399402D01*
X533502Y399400D01*
X533502Y399401D02*
X530256Y399401D01*
X534151Y399401D02*
X536747Y394208D01*
X431292Y305308D02*
X419608Y305308D01*
X419608Y308554D01*
X419610Y308667D01*
X419616Y308780D01*
X419626Y308893D01*
X419640Y309006D01*
X419657Y309118D01*
X419679Y309229D01*
X419704Y309339D01*
X419734Y309449D01*
X419767Y309557D01*
X419804Y309664D01*
X419844Y309770D01*
X419889Y309874D01*
X419937Y309977D01*
X419988Y310078D01*
X420043Y310177D01*
X420101Y310274D01*
X420163Y310369D01*
X420228Y310462D01*
X420296Y310552D01*
X420367Y310640D01*
X420442Y310726D01*
X420519Y310809D01*
X420599Y310889D01*
X420682Y310966D01*
X420768Y311041D01*
X420856Y311112D01*
X420946Y311180D01*
X421039Y311245D01*
X421134Y311307D01*
X421231Y311365D01*
X421330Y311420D01*
X421431Y311471D01*
X421534Y311519D01*
X421638Y311564D01*
X421744Y311604D01*
X421851Y311641D01*
X421959Y311674D01*
X422069Y311704D01*
X422179Y311729D01*
X422290Y311751D01*
X422402Y311768D01*
X422515Y311782D01*
X422628Y311792D01*
X422741Y311798D01*
X422854Y311800D01*
X422967Y311798D01*
X423080Y311792D01*
X423193Y311782D01*
X423306Y311768D01*
X423418Y311751D01*
X423529Y311729D01*
X423639Y311704D01*
X423749Y311674D01*
X423857Y311641D01*
X423964Y311604D01*
X424070Y311564D01*
X424174Y311519D01*
X424277Y311471D01*
X424378Y311420D01*
X424477Y311365D01*
X424574Y311307D01*
X424669Y311245D01*
X424762Y311180D01*
X424852Y311112D01*
X424940Y311041D01*
X425026Y310966D01*
X425109Y310889D01*
X425189Y310809D01*
X425266Y310726D01*
X425341Y310640D01*
X425412Y310552D01*
X425480Y310462D01*
X425545Y310369D01*
X425607Y310274D01*
X425665Y310177D01*
X425720Y310078D01*
X425771Y309977D01*
X425819Y309874D01*
X425864Y309770D01*
X425904Y309664D01*
X425941Y309557D01*
X425974Y309449D01*
X426004Y309339D01*
X426029Y309229D01*
X426051Y309118D01*
X426068Y309006D01*
X426082Y308893D01*
X426092Y308780D01*
X426098Y308667D01*
X426100Y308554D01*
X426099Y308554D02*
X426099Y305308D01*
X426099Y309203D02*
X431292Y311799D01*
X422204Y316664D02*
X419608Y319910D01*
X431292Y319910D01*
X431292Y323155D02*
X431292Y316664D01*
X75692Y310501D02*
X75692Y307904D01*
X75690Y307805D01*
X75684Y307705D01*
X75675Y307606D01*
X75662Y307508D01*
X75645Y307410D01*
X75624Y307312D01*
X75599Y307216D01*
X75571Y307121D01*
X75539Y307027D01*
X75504Y306934D01*
X75465Y306842D01*
X75422Y306752D01*
X75377Y306664D01*
X75327Y306577D01*
X75275Y306493D01*
X75219Y306410D01*
X75161Y306330D01*
X75099Y306252D01*
X75034Y306177D01*
X74966Y306104D01*
X74896Y306034D01*
X74823Y305966D01*
X74748Y305901D01*
X74670Y305839D01*
X74590Y305781D01*
X74507Y305725D01*
X74423Y305673D01*
X74336Y305623D01*
X74248Y305578D01*
X74158Y305535D01*
X74066Y305496D01*
X73973Y305461D01*
X73879Y305429D01*
X73784Y305401D01*
X73688Y305376D01*
X73590Y305355D01*
X73492Y305338D01*
X73394Y305325D01*
X73295Y305316D01*
X73195Y305310D01*
X73096Y305308D01*
X66604Y305308D01*
X66505Y305310D01*
X66405Y305316D01*
X66306Y305325D01*
X66208Y305338D01*
X66110Y305356D01*
X66012Y305376D01*
X65916Y305401D01*
X65820Y305429D01*
X65726Y305461D01*
X65633Y305496D01*
X65542Y305535D01*
X65452Y305578D01*
X65363Y305623D01*
X65277Y305673D01*
X65192Y305725D01*
X65110Y305781D01*
X65030Y305840D01*
X64952Y305901D01*
X64876Y305966D01*
X64803Y306034D01*
X64733Y306104D01*
X64665Y306177D01*
X64600Y306253D01*
X64539Y306331D01*
X64480Y306411D01*
X64424Y306493D01*
X64372Y306578D01*
X64323Y306664D01*
X64277Y306753D01*
X64234Y306843D01*
X64195Y306934D01*
X64160Y307027D01*
X64128Y307121D01*
X64100Y307217D01*
X64075Y307313D01*
X64055Y307411D01*
X64037Y307509D01*
X64024Y307607D01*
X64015Y307706D01*
X64009Y307805D01*
X64007Y307905D01*
X64008Y307904D02*
X64008Y310501D01*
X66604Y314866D02*
X64008Y318112D01*
X75692Y318112D01*
X75692Y321357D02*
X75692Y314866D01*
X126492Y310501D02*
X126492Y307904D01*
X126490Y307805D01*
X126484Y307705D01*
X126475Y307606D01*
X126462Y307508D01*
X126445Y307410D01*
X126424Y307312D01*
X126399Y307216D01*
X126371Y307121D01*
X126339Y307027D01*
X126304Y306934D01*
X126265Y306842D01*
X126222Y306752D01*
X126177Y306664D01*
X126127Y306577D01*
X126075Y306493D01*
X126019Y306410D01*
X125961Y306330D01*
X125899Y306252D01*
X125834Y306177D01*
X125766Y306104D01*
X125696Y306034D01*
X125623Y305966D01*
X125548Y305901D01*
X125470Y305839D01*
X125390Y305781D01*
X125307Y305725D01*
X125223Y305673D01*
X125136Y305623D01*
X125048Y305578D01*
X124958Y305535D01*
X124866Y305496D01*
X124773Y305461D01*
X124679Y305429D01*
X124584Y305401D01*
X124488Y305376D01*
X124390Y305355D01*
X124292Y305338D01*
X124194Y305325D01*
X124095Y305316D01*
X123995Y305310D01*
X123896Y305308D01*
X117404Y305308D01*
X117305Y305310D01*
X117205Y305316D01*
X117106Y305325D01*
X117008Y305338D01*
X116910Y305356D01*
X116812Y305376D01*
X116716Y305401D01*
X116620Y305429D01*
X116526Y305461D01*
X116433Y305496D01*
X116342Y305535D01*
X116252Y305578D01*
X116163Y305623D01*
X116077Y305673D01*
X115992Y305725D01*
X115910Y305781D01*
X115830Y305840D01*
X115752Y305901D01*
X115676Y305966D01*
X115603Y306034D01*
X115533Y306104D01*
X115465Y306177D01*
X115400Y306253D01*
X115339Y306331D01*
X115280Y306411D01*
X115224Y306493D01*
X115172Y306578D01*
X115123Y306664D01*
X115077Y306753D01*
X115034Y306843D01*
X114995Y306934D01*
X114960Y307027D01*
X114928Y307121D01*
X114900Y307217D01*
X114875Y307313D01*
X114855Y307411D01*
X114837Y307509D01*
X114824Y307607D01*
X114815Y307706D01*
X114809Y307805D01*
X114807Y307905D01*
X114808Y307904D02*
X114808Y310501D01*
X114808Y318436D02*
X114810Y318543D01*
X114816Y318649D01*
X114826Y318755D01*
X114839Y318861D01*
X114857Y318967D01*
X114878Y319071D01*
X114903Y319175D01*
X114932Y319278D01*
X114964Y319379D01*
X115001Y319479D01*
X115041Y319578D01*
X115084Y319676D01*
X115131Y319772D01*
X115182Y319866D01*
X115236Y319958D01*
X115293Y320048D01*
X115353Y320136D01*
X115417Y320221D01*
X115484Y320304D01*
X115554Y320385D01*
X115626Y320463D01*
X115702Y320539D01*
X115780Y320611D01*
X115861Y320681D01*
X115944Y320748D01*
X116029Y320812D01*
X116117Y320872D01*
X116207Y320929D01*
X116299Y320983D01*
X116393Y321034D01*
X116489Y321081D01*
X116587Y321124D01*
X116686Y321164D01*
X116786Y321201D01*
X116887Y321233D01*
X116990Y321262D01*
X117094Y321287D01*
X117198Y321308D01*
X117304Y321326D01*
X117410Y321339D01*
X117516Y321349D01*
X117622Y321355D01*
X117729Y321357D01*
X114808Y318436D02*
X114810Y318315D01*
X114816Y318194D01*
X114826Y318074D01*
X114839Y317953D01*
X114857Y317834D01*
X114878Y317714D01*
X114903Y317596D01*
X114932Y317479D01*
X114965Y317362D01*
X115001Y317247D01*
X115042Y317133D01*
X115085Y317020D01*
X115133Y316908D01*
X115184Y316799D01*
X115239Y316691D01*
X115297Y316584D01*
X115358Y316480D01*
X115423Y316378D01*
X115491Y316278D01*
X115562Y316180D01*
X115636Y316084D01*
X115713Y315991D01*
X115794Y315901D01*
X115877Y315813D01*
X115963Y315728D01*
X116052Y315645D01*
X116143Y315566D01*
X116237Y315489D01*
X116333Y315416D01*
X116431Y315346D01*
X116532Y315279D01*
X116635Y315215D01*
X116740Y315155D01*
X116847Y315097D01*
X116955Y315044D01*
X117065Y314994D01*
X117177Y314948D01*
X117290Y314905D01*
X117405Y314866D01*
X120001Y320383D02*
X119923Y320462D01*
X119843Y320538D01*
X119760Y320611D01*
X119674Y320681D01*
X119587Y320748D01*
X119496Y320812D01*
X119404Y320872D01*
X119310Y320930D01*
X119213Y320984D01*
X119115Y321034D01*
X119015Y321081D01*
X118914Y321125D01*
X118811Y321165D01*
X118706Y321201D01*
X118601Y321233D01*
X118494Y321262D01*
X118387Y321287D01*
X118278Y321309D01*
X118169Y321326D01*
X118060Y321340D01*
X117950Y321349D01*
X117839Y321355D01*
X117729Y321357D01*
X120001Y320384D02*
X126492Y314866D01*
X126492Y321357D01*
X177292Y310501D02*
X177292Y307904D01*
X177290Y307805D01*
X177284Y307705D01*
X177275Y307606D01*
X177262Y307508D01*
X177245Y307410D01*
X177224Y307312D01*
X177199Y307216D01*
X177171Y307121D01*
X177139Y307027D01*
X177104Y306934D01*
X177065Y306842D01*
X177022Y306752D01*
X176977Y306664D01*
X176927Y306577D01*
X176875Y306493D01*
X176819Y306410D01*
X176761Y306330D01*
X176699Y306252D01*
X176634Y306177D01*
X176566Y306104D01*
X176496Y306034D01*
X176423Y305966D01*
X176348Y305901D01*
X176270Y305839D01*
X176190Y305781D01*
X176107Y305725D01*
X176023Y305673D01*
X175936Y305623D01*
X175848Y305578D01*
X175758Y305535D01*
X175666Y305496D01*
X175573Y305461D01*
X175479Y305429D01*
X175384Y305401D01*
X175288Y305376D01*
X175190Y305355D01*
X175092Y305338D01*
X174994Y305325D01*
X174895Y305316D01*
X174795Y305310D01*
X174696Y305308D01*
X168204Y305308D01*
X168105Y305310D01*
X168005Y305316D01*
X167906Y305325D01*
X167808Y305338D01*
X167710Y305356D01*
X167612Y305376D01*
X167516Y305401D01*
X167420Y305429D01*
X167326Y305461D01*
X167233Y305496D01*
X167142Y305535D01*
X167052Y305578D01*
X166963Y305623D01*
X166877Y305673D01*
X166792Y305725D01*
X166710Y305781D01*
X166630Y305840D01*
X166552Y305901D01*
X166476Y305966D01*
X166403Y306034D01*
X166333Y306104D01*
X166265Y306177D01*
X166200Y306253D01*
X166139Y306331D01*
X166080Y306411D01*
X166024Y306493D01*
X165972Y306578D01*
X165923Y306664D01*
X165877Y306753D01*
X165834Y306843D01*
X165795Y306934D01*
X165760Y307027D01*
X165728Y307121D01*
X165700Y307217D01*
X165675Y307313D01*
X165655Y307411D01*
X165637Y307509D01*
X165624Y307607D01*
X165615Y307706D01*
X165609Y307805D01*
X165607Y307905D01*
X165608Y307904D02*
X165608Y310501D01*
X177292Y314866D02*
X177292Y318112D01*
X177290Y318225D01*
X177284Y318338D01*
X177274Y318451D01*
X177260Y318564D01*
X177243Y318676D01*
X177221Y318787D01*
X177196Y318897D01*
X177166Y319007D01*
X177133Y319115D01*
X177096Y319222D01*
X177056Y319328D01*
X177011Y319432D01*
X176963Y319535D01*
X176912Y319636D01*
X176857Y319735D01*
X176799Y319832D01*
X176737Y319927D01*
X176672Y320020D01*
X176604Y320110D01*
X176533Y320198D01*
X176458Y320284D01*
X176381Y320367D01*
X176301Y320447D01*
X176218Y320524D01*
X176132Y320599D01*
X176044Y320670D01*
X175954Y320738D01*
X175861Y320803D01*
X175766Y320865D01*
X175669Y320923D01*
X175570Y320978D01*
X175469Y321029D01*
X175366Y321077D01*
X175262Y321122D01*
X175156Y321162D01*
X175049Y321199D01*
X174941Y321232D01*
X174831Y321262D01*
X174721Y321287D01*
X174610Y321309D01*
X174498Y321326D01*
X174385Y321340D01*
X174272Y321350D01*
X174159Y321356D01*
X174046Y321358D01*
X173933Y321356D01*
X173820Y321350D01*
X173707Y321340D01*
X173594Y321326D01*
X173482Y321309D01*
X173371Y321287D01*
X173261Y321262D01*
X173151Y321232D01*
X173043Y321199D01*
X172936Y321162D01*
X172830Y321122D01*
X172726Y321077D01*
X172623Y321029D01*
X172522Y320978D01*
X172423Y320923D01*
X172326Y320865D01*
X172231Y320803D01*
X172138Y320738D01*
X172048Y320670D01*
X171960Y320599D01*
X171874Y320524D01*
X171791Y320447D01*
X171711Y320367D01*
X171634Y320284D01*
X171559Y320198D01*
X171488Y320110D01*
X171420Y320020D01*
X171355Y319927D01*
X171293Y319832D01*
X171235Y319735D01*
X171180Y319636D01*
X171129Y319535D01*
X171081Y319432D01*
X171036Y319328D01*
X170996Y319222D01*
X170959Y319115D01*
X170926Y319007D01*
X170896Y318897D01*
X170871Y318787D01*
X170849Y318676D01*
X170832Y318564D01*
X170818Y318451D01*
X170808Y318338D01*
X170802Y318225D01*
X170800Y318112D01*
X165608Y318761D02*
X165608Y314866D01*
X165608Y318761D02*
X165610Y318862D01*
X165616Y318962D01*
X165626Y319062D01*
X165639Y319162D01*
X165657Y319261D01*
X165678Y319360D01*
X165703Y319457D01*
X165732Y319554D01*
X165765Y319649D01*
X165801Y319743D01*
X165841Y319835D01*
X165884Y319926D01*
X165931Y320015D01*
X165981Y320102D01*
X166035Y320188D01*
X166092Y320271D01*
X166152Y320351D01*
X166215Y320430D01*
X166282Y320506D01*
X166351Y320579D01*
X166423Y320649D01*
X166497Y320717D01*
X166574Y320782D01*
X166654Y320843D01*
X166736Y320902D01*
X166820Y320957D01*
X166906Y321009D01*
X166994Y321058D01*
X167084Y321103D01*
X167176Y321145D01*
X167269Y321183D01*
X167364Y321217D01*
X167459Y321248D01*
X167556Y321275D01*
X167654Y321298D01*
X167753Y321318D01*
X167853Y321333D01*
X167953Y321345D01*
X168053Y321353D01*
X168154Y321357D01*
X168254Y321357D01*
X168355Y321353D01*
X168455Y321345D01*
X168555Y321333D01*
X168655Y321318D01*
X168754Y321298D01*
X168852Y321275D01*
X168949Y321248D01*
X169044Y321217D01*
X169139Y321183D01*
X169232Y321145D01*
X169324Y321103D01*
X169414Y321058D01*
X169502Y321009D01*
X169588Y320957D01*
X169672Y320902D01*
X169754Y320843D01*
X169834Y320782D01*
X169911Y320717D01*
X169985Y320649D01*
X170057Y320579D01*
X170126Y320506D01*
X170193Y320430D01*
X170256Y320351D01*
X170316Y320271D01*
X170373Y320188D01*
X170427Y320102D01*
X170477Y320015D01*
X170524Y319926D01*
X170567Y319835D01*
X170607Y319743D01*
X170643Y319649D01*
X170676Y319554D01*
X170705Y319457D01*
X170730Y319360D01*
X170751Y319261D01*
X170769Y319162D01*
X170782Y319062D01*
X170792Y318962D01*
X170798Y318862D01*
X170800Y318761D01*
X170801Y318761D02*
X170801Y316164D01*
X228092Y310501D02*
X228092Y307904D01*
X228090Y307805D01*
X228084Y307705D01*
X228075Y307606D01*
X228062Y307508D01*
X228045Y307410D01*
X228024Y307312D01*
X227999Y307216D01*
X227971Y307121D01*
X227939Y307027D01*
X227904Y306934D01*
X227865Y306842D01*
X227822Y306752D01*
X227777Y306664D01*
X227727Y306577D01*
X227675Y306493D01*
X227619Y306410D01*
X227561Y306330D01*
X227499Y306252D01*
X227434Y306177D01*
X227366Y306104D01*
X227296Y306034D01*
X227223Y305966D01*
X227148Y305901D01*
X227070Y305839D01*
X226990Y305781D01*
X226907Y305725D01*
X226823Y305673D01*
X226736Y305623D01*
X226648Y305578D01*
X226558Y305535D01*
X226466Y305496D01*
X226373Y305461D01*
X226279Y305429D01*
X226184Y305401D01*
X226088Y305376D01*
X225990Y305355D01*
X225892Y305338D01*
X225794Y305325D01*
X225695Y305316D01*
X225595Y305310D01*
X225496Y305308D01*
X219004Y305308D01*
X218905Y305310D01*
X218805Y305316D01*
X218706Y305325D01*
X218608Y305338D01*
X218510Y305356D01*
X218412Y305376D01*
X218316Y305401D01*
X218220Y305429D01*
X218126Y305461D01*
X218033Y305496D01*
X217942Y305535D01*
X217852Y305578D01*
X217763Y305623D01*
X217677Y305673D01*
X217592Y305725D01*
X217510Y305781D01*
X217430Y305840D01*
X217352Y305901D01*
X217276Y305966D01*
X217203Y306034D01*
X217133Y306104D01*
X217065Y306177D01*
X217000Y306253D01*
X216939Y306331D01*
X216880Y306411D01*
X216824Y306493D01*
X216772Y306578D01*
X216723Y306664D01*
X216677Y306753D01*
X216634Y306843D01*
X216595Y306934D01*
X216560Y307027D01*
X216528Y307121D01*
X216500Y307217D01*
X216475Y307313D01*
X216455Y307411D01*
X216437Y307509D01*
X216424Y307607D01*
X216415Y307706D01*
X216409Y307805D01*
X216407Y307905D01*
X216408Y307904D02*
X216408Y310501D01*
X216408Y317463D02*
X225496Y314866D01*
X225496Y321357D01*
X222899Y319410D02*
X228092Y319410D01*
X303539Y318008D02*
X306136Y318008D01*
X303539Y318008D02*
X303440Y318010D01*
X303340Y318016D01*
X303241Y318025D01*
X303143Y318038D01*
X303045Y318055D01*
X302947Y318076D01*
X302851Y318101D01*
X302756Y318129D01*
X302662Y318161D01*
X302569Y318196D01*
X302477Y318235D01*
X302387Y318278D01*
X302299Y318323D01*
X302212Y318373D01*
X302128Y318425D01*
X302045Y318481D01*
X301965Y318539D01*
X301887Y318601D01*
X301812Y318666D01*
X301739Y318734D01*
X301669Y318804D01*
X301601Y318877D01*
X301536Y318952D01*
X301474Y319030D01*
X301416Y319110D01*
X301360Y319193D01*
X301308Y319277D01*
X301258Y319364D01*
X301213Y319452D01*
X301170Y319542D01*
X301131Y319634D01*
X301096Y319727D01*
X301064Y319821D01*
X301036Y319916D01*
X301011Y320012D01*
X300990Y320110D01*
X300973Y320208D01*
X300960Y320306D01*
X300951Y320405D01*
X300945Y320505D01*
X300943Y320604D01*
X300943Y327096D01*
X300945Y327195D01*
X300951Y327295D01*
X300960Y327394D01*
X300973Y327492D01*
X300990Y327590D01*
X301011Y327688D01*
X301036Y327784D01*
X301064Y327879D01*
X301096Y327973D01*
X301131Y328066D01*
X301170Y328158D01*
X301213Y328248D01*
X301258Y328336D01*
X301308Y328423D01*
X301360Y328507D01*
X301416Y328590D01*
X301474Y328670D01*
X301536Y328748D01*
X301601Y328823D01*
X301669Y328896D01*
X301739Y328966D01*
X301812Y329034D01*
X301887Y329099D01*
X301965Y329161D01*
X302045Y329219D01*
X302128Y329275D01*
X302212Y329327D01*
X302299Y329377D01*
X302387Y329422D01*
X302477Y329465D01*
X302569Y329504D01*
X302661Y329539D01*
X302756Y329571D01*
X302851Y329599D01*
X302947Y329624D01*
X303045Y329645D01*
X303143Y329662D01*
X303241Y329675D01*
X303340Y329684D01*
X303440Y329690D01*
X303539Y329692D01*
X306136Y329692D01*
X310501Y318008D02*
X314396Y318008D01*
X314495Y318010D01*
X314595Y318016D01*
X314694Y318025D01*
X314792Y318038D01*
X314890Y318055D01*
X314988Y318076D01*
X315084Y318101D01*
X315179Y318129D01*
X315273Y318161D01*
X315366Y318196D01*
X315458Y318235D01*
X315548Y318278D01*
X315636Y318323D01*
X315723Y318373D01*
X315807Y318425D01*
X315890Y318481D01*
X315970Y318539D01*
X316048Y318601D01*
X316123Y318666D01*
X316196Y318734D01*
X316266Y318804D01*
X316334Y318877D01*
X316399Y318952D01*
X316461Y319030D01*
X316519Y319110D01*
X316575Y319193D01*
X316627Y319277D01*
X316677Y319364D01*
X316722Y319452D01*
X316765Y319542D01*
X316804Y319634D01*
X316839Y319727D01*
X316871Y319821D01*
X316899Y319916D01*
X316924Y320012D01*
X316945Y320110D01*
X316962Y320208D01*
X316975Y320306D01*
X316984Y320405D01*
X316990Y320505D01*
X316992Y320604D01*
X316992Y321903D01*
X316990Y322002D01*
X316984Y322102D01*
X316975Y322201D01*
X316962Y322299D01*
X316945Y322397D01*
X316924Y322495D01*
X316899Y322591D01*
X316871Y322686D01*
X316839Y322780D01*
X316804Y322873D01*
X316765Y322965D01*
X316722Y323055D01*
X316677Y323143D01*
X316627Y323230D01*
X316575Y323314D01*
X316519Y323397D01*
X316461Y323477D01*
X316399Y323555D01*
X316334Y323630D01*
X316266Y323703D01*
X316196Y323773D01*
X316123Y323841D01*
X316048Y323906D01*
X315970Y323968D01*
X315890Y324026D01*
X315807Y324082D01*
X315723Y324134D01*
X315636Y324184D01*
X315548Y324229D01*
X315458Y324272D01*
X315366Y324311D01*
X315273Y324346D01*
X315179Y324378D01*
X315084Y324406D01*
X314988Y324431D01*
X314890Y324452D01*
X314792Y324469D01*
X314694Y324482D01*
X314595Y324491D01*
X314495Y324497D01*
X314396Y324499D01*
X310501Y324499D01*
X310501Y329692D01*
X316992Y329692D01*
X354339Y254508D02*
X356936Y254508D01*
X354339Y254508D02*
X354240Y254510D01*
X354140Y254516D01*
X354041Y254525D01*
X353943Y254538D01*
X353845Y254555D01*
X353747Y254576D01*
X353651Y254601D01*
X353556Y254629D01*
X353462Y254661D01*
X353369Y254696D01*
X353277Y254735D01*
X353187Y254778D01*
X353099Y254823D01*
X353012Y254873D01*
X352928Y254925D01*
X352845Y254981D01*
X352765Y255039D01*
X352687Y255101D01*
X352612Y255166D01*
X352539Y255234D01*
X352469Y255304D01*
X352401Y255377D01*
X352336Y255452D01*
X352274Y255530D01*
X352216Y255610D01*
X352160Y255693D01*
X352108Y255777D01*
X352058Y255864D01*
X352013Y255952D01*
X351970Y256042D01*
X351931Y256134D01*
X351896Y256227D01*
X351864Y256321D01*
X351836Y256416D01*
X351811Y256512D01*
X351790Y256610D01*
X351773Y256708D01*
X351760Y256806D01*
X351751Y256905D01*
X351745Y257005D01*
X351743Y257104D01*
X351743Y263596D01*
X351745Y263695D01*
X351751Y263795D01*
X351760Y263894D01*
X351773Y263992D01*
X351790Y264090D01*
X351811Y264188D01*
X351836Y264284D01*
X351864Y264379D01*
X351896Y264473D01*
X351931Y264566D01*
X351970Y264658D01*
X352013Y264748D01*
X352058Y264836D01*
X352108Y264923D01*
X352160Y265007D01*
X352216Y265090D01*
X352274Y265170D01*
X352336Y265248D01*
X352401Y265323D01*
X352469Y265396D01*
X352539Y265466D01*
X352612Y265534D01*
X352687Y265599D01*
X352765Y265661D01*
X352845Y265719D01*
X352928Y265775D01*
X353012Y265827D01*
X353099Y265877D01*
X353187Y265922D01*
X353277Y265965D01*
X353369Y266004D01*
X353461Y266039D01*
X353556Y266071D01*
X353651Y266099D01*
X353747Y266124D01*
X353845Y266145D01*
X353943Y266162D01*
X354041Y266175D01*
X354140Y266184D01*
X354240Y266190D01*
X354339Y266192D01*
X356936Y266192D01*
X361301Y260999D02*
X365196Y260999D01*
X365295Y260997D01*
X365395Y260991D01*
X365494Y260982D01*
X365592Y260969D01*
X365690Y260952D01*
X365788Y260931D01*
X365884Y260906D01*
X365979Y260878D01*
X366073Y260846D01*
X366166Y260811D01*
X366258Y260772D01*
X366348Y260729D01*
X366436Y260684D01*
X366523Y260634D01*
X366607Y260582D01*
X366690Y260526D01*
X366770Y260468D01*
X366848Y260406D01*
X366923Y260341D01*
X366996Y260273D01*
X367066Y260203D01*
X367134Y260130D01*
X367199Y260055D01*
X367261Y259977D01*
X367319Y259897D01*
X367375Y259814D01*
X367427Y259730D01*
X367477Y259643D01*
X367522Y259555D01*
X367565Y259465D01*
X367604Y259373D01*
X367639Y259280D01*
X367671Y259186D01*
X367699Y259091D01*
X367724Y258995D01*
X367745Y258897D01*
X367762Y258799D01*
X367775Y258701D01*
X367784Y258602D01*
X367790Y258502D01*
X367792Y258403D01*
X367792Y257754D01*
X367790Y257641D01*
X367784Y257528D01*
X367774Y257415D01*
X367760Y257302D01*
X367743Y257190D01*
X367721Y257079D01*
X367696Y256969D01*
X367666Y256859D01*
X367633Y256751D01*
X367596Y256644D01*
X367556Y256538D01*
X367511Y256434D01*
X367463Y256331D01*
X367412Y256230D01*
X367357Y256131D01*
X367299Y256034D01*
X367237Y255939D01*
X367172Y255846D01*
X367104Y255756D01*
X367033Y255668D01*
X366958Y255582D01*
X366881Y255499D01*
X366801Y255419D01*
X366718Y255342D01*
X366632Y255267D01*
X366544Y255196D01*
X366454Y255128D01*
X366361Y255063D01*
X366266Y255001D01*
X366169Y254943D01*
X366070Y254888D01*
X365969Y254837D01*
X365866Y254789D01*
X365762Y254744D01*
X365656Y254704D01*
X365549Y254667D01*
X365441Y254634D01*
X365331Y254604D01*
X365221Y254579D01*
X365110Y254557D01*
X364998Y254540D01*
X364885Y254526D01*
X364772Y254516D01*
X364659Y254510D01*
X364546Y254508D01*
X364433Y254510D01*
X364320Y254516D01*
X364207Y254526D01*
X364094Y254540D01*
X363982Y254557D01*
X363871Y254579D01*
X363761Y254604D01*
X363651Y254634D01*
X363543Y254667D01*
X363436Y254704D01*
X363330Y254744D01*
X363226Y254789D01*
X363123Y254837D01*
X363022Y254888D01*
X362923Y254943D01*
X362826Y255001D01*
X362731Y255063D01*
X362638Y255128D01*
X362548Y255196D01*
X362460Y255267D01*
X362374Y255342D01*
X362291Y255419D01*
X362211Y255499D01*
X362134Y255582D01*
X362059Y255668D01*
X361988Y255756D01*
X361920Y255846D01*
X361855Y255939D01*
X361793Y256034D01*
X361735Y256131D01*
X361680Y256230D01*
X361629Y256331D01*
X361581Y256434D01*
X361536Y256538D01*
X361496Y256644D01*
X361459Y256751D01*
X361426Y256859D01*
X361396Y256969D01*
X361371Y257079D01*
X361349Y257190D01*
X361332Y257302D01*
X361318Y257415D01*
X361308Y257528D01*
X361302Y257641D01*
X361300Y257754D01*
X361301Y257754D02*
X361301Y260999D01*
X361303Y261142D01*
X361309Y261285D01*
X361319Y261428D01*
X361333Y261570D01*
X361350Y261712D01*
X361372Y261854D01*
X361397Y261995D01*
X361427Y262135D01*
X361460Y262274D01*
X361497Y262412D01*
X361538Y262549D01*
X361582Y262685D01*
X361631Y262820D01*
X361683Y262953D01*
X361738Y263085D01*
X361798Y263215D01*
X361861Y263344D01*
X361927Y263471D01*
X361997Y263595D01*
X362070Y263718D01*
X362147Y263839D01*
X362227Y263958D01*
X362310Y264074D01*
X362396Y264189D01*
X362485Y264300D01*
X362578Y264410D01*
X362673Y264516D01*
X362772Y264620D01*
X362873Y264721D01*
X362977Y264820D01*
X363083Y264915D01*
X363193Y265008D01*
X363304Y265097D01*
X363419Y265183D01*
X363535Y265266D01*
X363654Y265346D01*
X363775Y265423D01*
X363897Y265496D01*
X364022Y265566D01*
X364149Y265632D01*
X364278Y265695D01*
X364408Y265755D01*
X364540Y265810D01*
X364673Y265862D01*
X364808Y265911D01*
X364944Y265955D01*
X365081Y265996D01*
X365219Y266033D01*
X365358Y266066D01*
X365498Y266096D01*
X365639Y266121D01*
X365781Y266143D01*
X365923Y266160D01*
X366065Y266174D01*
X366208Y266184D01*
X366351Y266190D01*
X366494Y266192D01*
D13*
X608800Y22400D02*
X800Y22400D01*
X800Y-156100D02*
X608800Y-156100D01*
X800Y-156100D02*
X800Y22400D01*
X608803Y22400D02*
X608803Y-156100D01*
X608778Y-156093D01*
X521800Y-356600D02*
X87800Y-356600D01*
X521800Y-356600D02*
X521800Y-156091D01*
X521836Y-156091D01*
X87800Y-156101D02*
X87800Y-356600D01*
X521811Y-349100D02*
X521811Y-156101D01*
X521778Y-156101D01*
X1094Y37400D02*
X1094Y50053D01*
X1094Y37400D02*
X1092Y37282D01*
X1086Y37164D01*
X1077Y37046D01*
X1063Y36928D01*
X1046Y36811D01*
X1025Y36695D01*
X1000Y36579D01*
X971Y36464D01*
X938Y36351D01*
X902Y36238D01*
X862Y36127D01*
X819Y36017D01*
X772Y35908D01*
X721Y35801D01*
X667Y35696D01*
X610Y35593D01*
X549Y35491D01*
X485Y35392D01*
X417Y35294D01*
X347Y35199D01*
X273Y35107D01*
X197Y35016D01*
X117Y34929D01*
X35Y34844D01*
X-50Y34762D01*
X-137Y34682D01*
X-228Y34606D01*
X-320Y34532D01*
X-415Y34462D01*
X-513Y34394D01*
X-612Y34330D01*
X-713Y34269D01*
X-817Y34212D01*
X-922Y34158D01*
X-1029Y34107D01*
X-1138Y34060D01*
X-1248Y34017D01*
X-1359Y33977D01*
X-1472Y33941D01*
X-1585Y33908D01*
X-1700Y33879D01*
X-1816Y33854D01*
X-1932Y33833D01*
X-2049Y33816D01*
X-2167Y33802D01*
X-2285Y33793D01*
X-2403Y33787D01*
X-2521Y33785D01*
X-4329Y33785D01*
X8163Y46438D02*
X12682Y50053D01*
X12682Y33785D01*
X8163Y33785D02*
X17201Y33785D01*
D17*
X163100Y38100D02*
X163102Y38189D01*
X163108Y38278D01*
X163118Y38367D01*
X163132Y38455D01*
X163149Y38542D01*
X163171Y38628D01*
X163197Y38714D01*
X163226Y38798D01*
X163259Y38881D01*
X163295Y38962D01*
X163336Y39042D01*
X163379Y39119D01*
X163426Y39195D01*
X163477Y39268D01*
X163530Y39339D01*
X163587Y39408D01*
X163647Y39474D01*
X163710Y39538D01*
X163775Y39598D01*
X163843Y39656D01*
X163914Y39710D01*
X163987Y39761D01*
X164062Y39809D01*
X164139Y39854D01*
X164218Y39895D01*
X164299Y39932D01*
X164381Y39966D01*
X164465Y39997D01*
X164550Y40023D01*
X164636Y40046D01*
X164723Y40064D01*
X164811Y40079D01*
X164900Y40090D01*
X164989Y40097D01*
X165078Y40100D01*
X165167Y40099D01*
X165256Y40094D01*
X165344Y40085D01*
X165433Y40072D01*
X165520Y40055D01*
X165607Y40035D01*
X165693Y40010D01*
X165777Y39982D01*
X165860Y39950D01*
X165942Y39914D01*
X166022Y39875D01*
X166100Y39832D01*
X166176Y39786D01*
X166250Y39736D01*
X166322Y39683D01*
X166391Y39627D01*
X166458Y39568D01*
X166522Y39506D01*
X166583Y39442D01*
X166642Y39374D01*
X166697Y39304D01*
X166749Y39232D01*
X166798Y39157D01*
X166843Y39081D01*
X166885Y39002D01*
X166923Y38922D01*
X166958Y38840D01*
X166989Y38756D01*
X167017Y38671D01*
X167040Y38585D01*
X167060Y38498D01*
X167076Y38411D01*
X167088Y38322D01*
X167096Y38234D01*
X167100Y38145D01*
X167100Y38055D01*
X167096Y37966D01*
X167088Y37878D01*
X167076Y37789D01*
X167060Y37702D01*
X167040Y37615D01*
X167017Y37529D01*
X166989Y37444D01*
X166958Y37360D01*
X166923Y37278D01*
X166885Y37198D01*
X166843Y37119D01*
X166798Y37043D01*
X166749Y36968D01*
X166697Y36896D01*
X166642Y36826D01*
X166583Y36758D01*
X166522Y36694D01*
X166458Y36632D01*
X166391Y36573D01*
X166322Y36517D01*
X166250Y36464D01*
X166176Y36414D01*
X166100Y36368D01*
X166022Y36325D01*
X165942Y36286D01*
X165860Y36250D01*
X165777Y36218D01*
X165693Y36190D01*
X165607Y36165D01*
X165520Y36145D01*
X165433Y36128D01*
X165344Y36115D01*
X165256Y36106D01*
X165167Y36101D01*
X165078Y36100D01*
X164989Y36103D01*
X164900Y36110D01*
X164811Y36121D01*
X164723Y36136D01*
X164636Y36154D01*
X164550Y36177D01*
X164465Y36203D01*
X164381Y36234D01*
X164299Y36268D01*
X164218Y36305D01*
X164139Y36346D01*
X164062Y36391D01*
X163987Y36439D01*
X163914Y36490D01*
X163843Y36544D01*
X163775Y36602D01*
X163710Y36662D01*
X163647Y36726D01*
X163587Y36792D01*
X163530Y36861D01*
X163477Y36932D01*
X163426Y37005D01*
X163379Y37081D01*
X163336Y37158D01*
X163295Y37238D01*
X163259Y37319D01*
X163226Y37402D01*
X163197Y37486D01*
X163171Y37572D01*
X163149Y37658D01*
X163132Y37745D01*
X163118Y37833D01*
X163108Y37922D01*
X163102Y38011D01*
X163100Y38100D01*
D13*
X557276Y115824D02*
X565404Y115824D01*
X565404Y110236D01*
X565404Y87376D02*
X557276Y87376D01*
X565404Y87376D02*
X565404Y92964D01*
D10*
X578358Y101840D02*
X590042Y101840D01*
X578358Y101840D02*
X578358Y105085D01*
X578360Y105198D01*
X578366Y105311D01*
X578376Y105424D01*
X578390Y105537D01*
X578407Y105649D01*
X578429Y105760D01*
X578454Y105870D01*
X578484Y105980D01*
X578517Y106088D01*
X578554Y106195D01*
X578594Y106301D01*
X578639Y106405D01*
X578687Y106508D01*
X578738Y106609D01*
X578793Y106708D01*
X578851Y106805D01*
X578913Y106900D01*
X578978Y106993D01*
X579046Y107083D01*
X579117Y107171D01*
X579192Y107257D01*
X579269Y107340D01*
X579349Y107420D01*
X579432Y107497D01*
X579518Y107572D01*
X579606Y107643D01*
X579696Y107711D01*
X579789Y107776D01*
X579884Y107838D01*
X579981Y107896D01*
X580080Y107951D01*
X580181Y108002D01*
X580284Y108050D01*
X580388Y108095D01*
X580494Y108135D01*
X580601Y108172D01*
X580709Y108205D01*
X580819Y108235D01*
X580929Y108260D01*
X581040Y108282D01*
X581152Y108299D01*
X581265Y108313D01*
X581378Y108323D01*
X581491Y108329D01*
X581604Y108331D01*
X586796Y108331D01*
X586796Y108332D02*
X586909Y108330D01*
X587022Y108324D01*
X587135Y108314D01*
X587248Y108300D01*
X587360Y108283D01*
X587471Y108261D01*
X587581Y108236D01*
X587691Y108206D01*
X587799Y108173D01*
X587906Y108136D01*
X588012Y108096D01*
X588116Y108051D01*
X588219Y108003D01*
X588320Y107952D01*
X588419Y107897D01*
X588516Y107839D01*
X588611Y107777D01*
X588704Y107712D01*
X588794Y107644D01*
X588882Y107573D01*
X588968Y107498D01*
X589051Y107421D01*
X589131Y107341D01*
X589208Y107258D01*
X589283Y107172D01*
X589354Y107084D01*
X589422Y106994D01*
X589487Y106901D01*
X589549Y106806D01*
X589607Y106709D01*
X589662Y106610D01*
X589713Y106509D01*
X589761Y106406D01*
X589806Y106302D01*
X589846Y106196D01*
X589883Y106089D01*
X589916Y105981D01*
X589946Y105871D01*
X589971Y105761D01*
X589993Y105650D01*
X590010Y105538D01*
X590024Y105425D01*
X590034Y105312D01*
X590040Y105199D01*
X590042Y105086D01*
X590042Y105085D02*
X590042Y101840D01*
X580954Y113651D02*
X578358Y116896D01*
X590042Y116896D01*
X590042Y113651D02*
X590042Y120142D01*
X558292Y57658D02*
X546608Y57658D01*
X546608Y60904D01*
X546610Y61017D01*
X546616Y61130D01*
X546626Y61243D01*
X546640Y61356D01*
X546657Y61468D01*
X546679Y61579D01*
X546704Y61689D01*
X546734Y61799D01*
X546767Y61907D01*
X546804Y62014D01*
X546844Y62120D01*
X546889Y62224D01*
X546937Y62327D01*
X546988Y62428D01*
X547043Y62527D01*
X547101Y62624D01*
X547163Y62719D01*
X547228Y62812D01*
X547296Y62902D01*
X547367Y62990D01*
X547442Y63076D01*
X547519Y63159D01*
X547599Y63239D01*
X547682Y63316D01*
X547768Y63391D01*
X547856Y63462D01*
X547946Y63530D01*
X548039Y63595D01*
X548134Y63657D01*
X548231Y63715D01*
X548330Y63770D01*
X548431Y63821D01*
X548534Y63869D01*
X548638Y63914D01*
X548744Y63954D01*
X548851Y63991D01*
X548959Y64024D01*
X549069Y64054D01*
X549179Y64079D01*
X549290Y64101D01*
X549402Y64118D01*
X549515Y64132D01*
X549628Y64142D01*
X549741Y64148D01*
X549854Y64150D01*
X549967Y64148D01*
X550080Y64142D01*
X550193Y64132D01*
X550306Y64118D01*
X550418Y64101D01*
X550529Y64079D01*
X550639Y64054D01*
X550749Y64024D01*
X550857Y63991D01*
X550964Y63954D01*
X551070Y63914D01*
X551174Y63869D01*
X551277Y63821D01*
X551378Y63770D01*
X551477Y63715D01*
X551574Y63657D01*
X551669Y63595D01*
X551762Y63530D01*
X551852Y63462D01*
X551940Y63391D01*
X552026Y63316D01*
X552109Y63239D01*
X552189Y63159D01*
X552266Y63076D01*
X552341Y62990D01*
X552412Y62902D01*
X552480Y62812D01*
X552545Y62719D01*
X552607Y62624D01*
X552665Y62527D01*
X552720Y62428D01*
X552771Y62327D01*
X552819Y62224D01*
X552864Y62120D01*
X552904Y62014D01*
X552941Y61907D01*
X552974Y61799D01*
X553004Y61689D01*
X553029Y61579D01*
X553051Y61468D01*
X553068Y61356D01*
X553082Y61243D01*
X553092Y61130D01*
X553098Y61017D01*
X553100Y60904D01*
X553099Y60904D02*
X553099Y57658D01*
X553099Y61553D02*
X558292Y64149D01*
X551801Y69014D02*
X551801Y72909D01*
X551803Y73008D01*
X551809Y73108D01*
X551818Y73207D01*
X551831Y73305D01*
X551848Y73403D01*
X551869Y73501D01*
X551894Y73597D01*
X551922Y73692D01*
X551954Y73786D01*
X551989Y73879D01*
X552028Y73971D01*
X552071Y74061D01*
X552116Y74149D01*
X552166Y74236D01*
X552218Y74320D01*
X552274Y74403D01*
X552332Y74483D01*
X552394Y74561D01*
X552459Y74636D01*
X552527Y74709D01*
X552597Y74779D01*
X552670Y74847D01*
X552745Y74912D01*
X552823Y74974D01*
X552903Y75032D01*
X552986Y75088D01*
X553070Y75140D01*
X553157Y75190D01*
X553245Y75235D01*
X553335Y75278D01*
X553427Y75317D01*
X553520Y75352D01*
X553614Y75384D01*
X553709Y75412D01*
X553805Y75437D01*
X553903Y75458D01*
X554001Y75475D01*
X554099Y75488D01*
X554198Y75497D01*
X554298Y75503D01*
X554397Y75505D01*
X555046Y75505D01*
X555046Y75506D02*
X555159Y75504D01*
X555272Y75498D01*
X555385Y75488D01*
X555498Y75474D01*
X555610Y75457D01*
X555721Y75435D01*
X555831Y75410D01*
X555941Y75380D01*
X556049Y75347D01*
X556156Y75310D01*
X556262Y75270D01*
X556366Y75225D01*
X556469Y75177D01*
X556570Y75126D01*
X556669Y75071D01*
X556766Y75013D01*
X556861Y74951D01*
X556954Y74886D01*
X557044Y74818D01*
X557132Y74747D01*
X557218Y74672D01*
X557301Y74595D01*
X557381Y74515D01*
X557458Y74432D01*
X557533Y74346D01*
X557604Y74258D01*
X557672Y74168D01*
X557737Y74075D01*
X557799Y73980D01*
X557857Y73883D01*
X557912Y73784D01*
X557963Y73683D01*
X558011Y73580D01*
X558056Y73476D01*
X558096Y73370D01*
X558133Y73263D01*
X558166Y73155D01*
X558196Y73045D01*
X558221Y72935D01*
X558243Y72824D01*
X558260Y72712D01*
X558274Y72599D01*
X558284Y72486D01*
X558290Y72373D01*
X558292Y72260D01*
X558290Y72147D01*
X558284Y72034D01*
X558274Y71921D01*
X558260Y71808D01*
X558243Y71696D01*
X558221Y71585D01*
X558196Y71475D01*
X558166Y71365D01*
X558133Y71257D01*
X558096Y71150D01*
X558056Y71044D01*
X558011Y70940D01*
X557963Y70837D01*
X557912Y70736D01*
X557857Y70637D01*
X557799Y70540D01*
X557737Y70445D01*
X557672Y70352D01*
X557604Y70262D01*
X557533Y70174D01*
X557458Y70088D01*
X557381Y70005D01*
X557301Y69925D01*
X557218Y69848D01*
X557132Y69773D01*
X557044Y69702D01*
X556954Y69634D01*
X556861Y69569D01*
X556766Y69507D01*
X556669Y69449D01*
X556570Y69394D01*
X556469Y69343D01*
X556366Y69295D01*
X556262Y69250D01*
X556156Y69210D01*
X556049Y69173D01*
X555941Y69140D01*
X555831Y69110D01*
X555721Y69085D01*
X555610Y69063D01*
X555498Y69046D01*
X555385Y69032D01*
X555272Y69022D01*
X555159Y69016D01*
X555046Y69014D01*
X551801Y69014D01*
X551658Y69016D01*
X551515Y69022D01*
X551372Y69032D01*
X551230Y69046D01*
X551088Y69063D01*
X550946Y69085D01*
X550805Y69110D01*
X550665Y69140D01*
X550526Y69173D01*
X550388Y69210D01*
X550251Y69251D01*
X550115Y69295D01*
X549980Y69344D01*
X549847Y69396D01*
X549715Y69451D01*
X549585Y69511D01*
X549456Y69574D01*
X549329Y69640D01*
X549205Y69710D01*
X549082Y69783D01*
X548961Y69860D01*
X548842Y69939D01*
X548726Y70023D01*
X548611Y70109D01*
X548500Y70198D01*
X548391Y70291D01*
X548284Y70386D01*
X548180Y70485D01*
X548079Y70586D01*
X547980Y70690D01*
X547885Y70796D01*
X547792Y70906D01*
X547703Y71017D01*
X547617Y71131D01*
X547534Y71248D01*
X547454Y71367D01*
X547377Y71488D01*
X547304Y71610D01*
X547234Y71735D01*
X547168Y71862D01*
X547105Y71991D01*
X547045Y72121D01*
X546990Y72253D01*
X546938Y72386D01*
X546889Y72521D01*
X546845Y72657D01*
X546804Y72794D01*
X546767Y72932D01*
X546734Y73071D01*
X546704Y73211D01*
X546679Y73352D01*
X546657Y73494D01*
X546640Y73636D01*
X546626Y73778D01*
X546616Y73921D01*
X546610Y74064D01*
X546608Y74207D01*
X546608Y159258D02*
X558292Y159258D01*
X546608Y159258D02*
X546608Y162504D01*
X546610Y162617D01*
X546616Y162730D01*
X546626Y162843D01*
X546640Y162956D01*
X546657Y163068D01*
X546679Y163179D01*
X546704Y163289D01*
X546734Y163399D01*
X546767Y163507D01*
X546804Y163614D01*
X546844Y163720D01*
X546889Y163824D01*
X546937Y163927D01*
X546988Y164028D01*
X547043Y164127D01*
X547101Y164224D01*
X547163Y164319D01*
X547228Y164412D01*
X547296Y164502D01*
X547367Y164590D01*
X547442Y164676D01*
X547519Y164759D01*
X547599Y164839D01*
X547682Y164916D01*
X547768Y164991D01*
X547856Y165062D01*
X547946Y165130D01*
X548039Y165195D01*
X548134Y165257D01*
X548231Y165315D01*
X548330Y165370D01*
X548431Y165421D01*
X548534Y165469D01*
X548638Y165514D01*
X548744Y165554D01*
X548851Y165591D01*
X548959Y165624D01*
X549069Y165654D01*
X549179Y165679D01*
X549290Y165701D01*
X549402Y165718D01*
X549515Y165732D01*
X549628Y165742D01*
X549741Y165748D01*
X549854Y165750D01*
X549967Y165748D01*
X550080Y165742D01*
X550193Y165732D01*
X550306Y165718D01*
X550418Y165701D01*
X550529Y165679D01*
X550639Y165654D01*
X550749Y165624D01*
X550857Y165591D01*
X550964Y165554D01*
X551070Y165514D01*
X551174Y165469D01*
X551277Y165421D01*
X551378Y165370D01*
X551477Y165315D01*
X551574Y165257D01*
X551669Y165195D01*
X551762Y165130D01*
X551852Y165062D01*
X551940Y164991D01*
X552026Y164916D01*
X552109Y164839D01*
X552189Y164759D01*
X552266Y164676D01*
X552341Y164590D01*
X552412Y164502D01*
X552480Y164412D01*
X552545Y164319D01*
X552607Y164224D01*
X552665Y164127D01*
X552720Y164028D01*
X552771Y163927D01*
X552819Y163824D01*
X552864Y163720D01*
X552904Y163614D01*
X552941Y163507D01*
X552974Y163399D01*
X553004Y163289D01*
X553029Y163179D01*
X553051Y163068D01*
X553068Y162956D01*
X553082Y162843D01*
X553092Y162730D01*
X553098Y162617D01*
X553100Y162504D01*
X553099Y162504D02*
X553099Y159258D01*
X553099Y163153D02*
X558292Y165749D01*
X549204Y170614D02*
X546608Y173860D01*
X558292Y173860D01*
X558292Y177105D02*
X558292Y170614D01*
X549204Y182044D02*
X546608Y185290D01*
X558292Y185290D01*
X558292Y188535D02*
X558292Y182044D01*
X43100Y157900D02*
X43233Y157776D01*
X43363Y157648D01*
X43490Y157518D01*
X43614Y157384D01*
X43735Y157248D01*
X43852Y157108D01*
X43965Y156966D01*
X44075Y156821D01*
X44182Y156673D01*
X44285Y156523D01*
X44384Y156370D01*
X44479Y156215D01*
X44571Y156058D01*
X44658Y155898D01*
X44742Y155736D01*
X44822Y155573D01*
X44898Y155407D01*
X44969Y155240D01*
X45037Y155070D01*
X45100Y154900D01*
X45159Y154728D01*
X45214Y154554D01*
X45265Y154379D01*
X45311Y154203D01*
X45353Y154026D01*
X45391Y153848D01*
X45424Y153668D01*
X45453Y153489D01*
X45477Y153308D01*
X45497Y153127D01*
X45513Y152946D01*
X45524Y152764D01*
X45531Y152582D01*
X45533Y152400D01*
X45531Y152218D01*
X45524Y152036D01*
X45513Y151854D01*
X45497Y151673D01*
X45477Y151492D01*
X45453Y151311D01*
X45424Y151132D01*
X45391Y150952D01*
X45353Y150774D01*
X45311Y150597D01*
X45265Y150421D01*
X45214Y150246D01*
X45159Y150072D01*
X45100Y149900D01*
X45037Y149730D01*
X44969Y149560D01*
X44898Y149393D01*
X44822Y149227D01*
X44742Y149064D01*
X44658Y148902D01*
X44571Y148742D01*
X44479Y148585D01*
X44384Y148430D01*
X44285Y148277D01*
X44182Y148127D01*
X44075Y147979D01*
X43965Y147834D01*
X43852Y147692D01*
X43735Y147552D01*
X43614Y147416D01*
X43490Y147282D01*
X43363Y147152D01*
X43233Y147024D01*
X43100Y146900D01*
X33100Y146900D02*
X32967Y147024D01*
X32837Y147152D01*
X32710Y147282D01*
X32586Y147416D01*
X32465Y147552D01*
X32348Y147692D01*
X32235Y147834D01*
X32125Y147979D01*
X32018Y148127D01*
X31915Y148277D01*
X31816Y148430D01*
X31721Y148585D01*
X31629Y148742D01*
X31542Y148902D01*
X31458Y149064D01*
X31378Y149227D01*
X31302Y149393D01*
X31231Y149560D01*
X31163Y149730D01*
X31100Y149900D01*
X31041Y150072D01*
X30986Y150246D01*
X30935Y150421D01*
X30889Y150597D01*
X30847Y150774D01*
X30809Y150952D01*
X30776Y151132D01*
X30747Y151311D01*
X30723Y151492D01*
X30703Y151673D01*
X30687Y151854D01*
X30676Y152036D01*
X30669Y152218D01*
X30667Y152400D01*
X30669Y152582D01*
X30676Y152764D01*
X30687Y152946D01*
X30703Y153127D01*
X30723Y153308D01*
X30747Y153489D01*
X30776Y153668D01*
X30809Y153848D01*
X30847Y154026D01*
X30889Y154203D01*
X30935Y154379D01*
X30986Y154554D01*
X31041Y154728D01*
X31100Y154900D01*
X31163Y155070D01*
X31231Y155240D01*
X31302Y155407D01*
X31378Y155573D01*
X31458Y155736D01*
X31542Y155898D01*
X31629Y156058D01*
X31721Y156215D01*
X31816Y156370D01*
X31915Y156523D01*
X32018Y156673D01*
X32125Y156821D01*
X32235Y156966D01*
X32348Y157108D01*
X32465Y157248D01*
X32586Y157384D01*
X32710Y157518D01*
X32837Y157648D01*
X32967Y157776D01*
X33100Y157900D01*
D11*
X38100Y152400D03*
D18*
X43850Y157650D03*
D10*
X24892Y143454D02*
X13208Y143454D01*
X13208Y146699D02*
X13208Y140208D01*
X24892Y151280D02*
X24892Y156472D01*
X24892Y151280D02*
X13208Y151280D01*
X13208Y156472D01*
X18401Y155174D02*
X18401Y151280D01*
X13208Y161276D02*
X24892Y161276D01*
X19699Y165171D02*
X13208Y161276D01*
X19699Y165171D02*
X13208Y169065D01*
X24892Y169065D01*
X24892Y175048D02*
X13208Y175048D01*
X13208Y178294D01*
X13210Y178407D01*
X13216Y178520D01*
X13226Y178633D01*
X13240Y178746D01*
X13257Y178858D01*
X13279Y178969D01*
X13304Y179079D01*
X13334Y179189D01*
X13367Y179297D01*
X13404Y179404D01*
X13444Y179510D01*
X13489Y179614D01*
X13537Y179717D01*
X13588Y179818D01*
X13643Y179917D01*
X13701Y180014D01*
X13763Y180109D01*
X13828Y180202D01*
X13896Y180292D01*
X13967Y180380D01*
X14042Y180466D01*
X14119Y180549D01*
X14199Y180629D01*
X14282Y180706D01*
X14368Y180781D01*
X14456Y180852D01*
X14546Y180920D01*
X14639Y180985D01*
X14734Y181047D01*
X14831Y181105D01*
X14930Y181160D01*
X15031Y181211D01*
X15134Y181259D01*
X15238Y181304D01*
X15344Y181344D01*
X15451Y181381D01*
X15559Y181414D01*
X15669Y181444D01*
X15779Y181469D01*
X15890Y181491D01*
X16002Y181508D01*
X16115Y181522D01*
X16228Y181532D01*
X16341Y181538D01*
X16454Y181540D01*
X16567Y181538D01*
X16680Y181532D01*
X16793Y181522D01*
X16906Y181508D01*
X17018Y181491D01*
X17129Y181469D01*
X17239Y181444D01*
X17349Y181414D01*
X17457Y181381D01*
X17564Y181344D01*
X17670Y181304D01*
X17774Y181259D01*
X17877Y181211D01*
X17978Y181160D01*
X18077Y181105D01*
X18174Y181047D01*
X18269Y180985D01*
X18362Y180920D01*
X18452Y180852D01*
X18540Y180781D01*
X18626Y180706D01*
X18709Y180629D01*
X18789Y180549D01*
X18866Y180466D01*
X18941Y180380D01*
X19012Y180292D01*
X19080Y180202D01*
X19145Y180109D01*
X19207Y180014D01*
X19265Y179917D01*
X19320Y179818D01*
X19371Y179717D01*
X19419Y179614D01*
X19464Y179510D01*
X19504Y179404D01*
X19541Y179297D01*
X19574Y179189D01*
X19604Y179079D01*
X19629Y178969D01*
X19651Y178858D01*
X19668Y178746D01*
X19682Y178633D01*
X19692Y178520D01*
X19698Y178407D01*
X19700Y178294D01*
X19699Y178294D02*
X19699Y175048D01*
X44958Y203708D02*
X44958Y215392D01*
X48204Y215392D01*
X48317Y215390D01*
X48430Y215384D01*
X48543Y215374D01*
X48656Y215360D01*
X48768Y215343D01*
X48879Y215321D01*
X48989Y215296D01*
X49099Y215266D01*
X49207Y215233D01*
X49314Y215196D01*
X49420Y215156D01*
X49524Y215111D01*
X49627Y215063D01*
X49728Y215012D01*
X49827Y214957D01*
X49924Y214899D01*
X50019Y214837D01*
X50112Y214772D01*
X50202Y214704D01*
X50290Y214633D01*
X50376Y214558D01*
X50459Y214481D01*
X50539Y214401D01*
X50616Y214318D01*
X50691Y214232D01*
X50762Y214144D01*
X50830Y214054D01*
X50895Y213961D01*
X50957Y213866D01*
X51015Y213769D01*
X51070Y213670D01*
X51121Y213569D01*
X51169Y213466D01*
X51214Y213362D01*
X51254Y213256D01*
X51291Y213149D01*
X51324Y213041D01*
X51354Y212931D01*
X51379Y212821D01*
X51401Y212710D01*
X51418Y212598D01*
X51432Y212485D01*
X51442Y212372D01*
X51448Y212259D01*
X51450Y212146D01*
X51448Y212033D01*
X51442Y211920D01*
X51432Y211807D01*
X51418Y211694D01*
X51401Y211582D01*
X51379Y211471D01*
X51354Y211361D01*
X51324Y211251D01*
X51291Y211143D01*
X51254Y211036D01*
X51214Y210930D01*
X51169Y210826D01*
X51121Y210723D01*
X51070Y210622D01*
X51015Y210523D01*
X50957Y210426D01*
X50895Y210331D01*
X50830Y210238D01*
X50762Y210148D01*
X50691Y210060D01*
X50616Y209974D01*
X50539Y209891D01*
X50459Y209811D01*
X50376Y209734D01*
X50290Y209659D01*
X50202Y209588D01*
X50112Y209520D01*
X50019Y209455D01*
X49924Y209393D01*
X49827Y209335D01*
X49728Y209280D01*
X49627Y209229D01*
X49524Y209181D01*
X49420Y209136D01*
X49314Y209096D01*
X49207Y209059D01*
X49099Y209026D01*
X48989Y208996D01*
X48879Y208971D01*
X48768Y208949D01*
X48656Y208932D01*
X48543Y208918D01*
X48430Y208908D01*
X48317Y208902D01*
X48204Y208900D01*
X48204Y208901D02*
X44958Y208901D01*
X48853Y208901D02*
X51449Y203708D01*
X56314Y212796D02*
X59560Y215392D01*
X59560Y203708D01*
X62805Y203708D02*
X56314Y203708D01*
X71314Y215392D02*
X71421Y215390D01*
X71527Y215384D01*
X71633Y215374D01*
X71739Y215361D01*
X71845Y215343D01*
X71949Y215322D01*
X72053Y215297D01*
X72156Y215268D01*
X72257Y215236D01*
X72357Y215199D01*
X72456Y215159D01*
X72554Y215116D01*
X72650Y215069D01*
X72744Y215018D01*
X72836Y214964D01*
X72926Y214907D01*
X73014Y214847D01*
X73099Y214783D01*
X73182Y214716D01*
X73263Y214646D01*
X73341Y214574D01*
X73417Y214498D01*
X73489Y214420D01*
X73559Y214339D01*
X73626Y214256D01*
X73690Y214171D01*
X73750Y214083D01*
X73807Y213993D01*
X73861Y213901D01*
X73912Y213807D01*
X73959Y213711D01*
X74002Y213613D01*
X74042Y213514D01*
X74079Y213414D01*
X74111Y213313D01*
X74140Y213210D01*
X74165Y213106D01*
X74186Y213002D01*
X74204Y212896D01*
X74217Y212790D01*
X74227Y212684D01*
X74233Y212578D01*
X74235Y212471D01*
X71314Y215392D02*
X71193Y215390D01*
X71072Y215384D01*
X70952Y215374D01*
X70831Y215361D01*
X70712Y215343D01*
X70592Y215322D01*
X70474Y215297D01*
X70357Y215268D01*
X70240Y215235D01*
X70125Y215199D01*
X70011Y215158D01*
X69898Y215115D01*
X69786Y215067D01*
X69677Y215016D01*
X69569Y214961D01*
X69462Y214903D01*
X69358Y214842D01*
X69256Y214777D01*
X69156Y214709D01*
X69058Y214638D01*
X68962Y214564D01*
X68869Y214487D01*
X68779Y214406D01*
X68691Y214323D01*
X68606Y214237D01*
X68523Y214148D01*
X68444Y214057D01*
X68367Y213963D01*
X68294Y213867D01*
X68224Y213769D01*
X68157Y213668D01*
X68093Y213565D01*
X68033Y213460D01*
X67976Y213353D01*
X67922Y213245D01*
X67872Y213135D01*
X67826Y213023D01*
X67783Y212910D01*
X67744Y212795D01*
X73262Y210199D02*
X73341Y210276D01*
X73417Y210357D01*
X73490Y210440D01*
X73560Y210525D01*
X73627Y210613D01*
X73691Y210703D01*
X73751Y210795D01*
X73808Y210890D01*
X73862Y210986D01*
X73913Y211084D01*
X73960Y211184D01*
X74004Y211286D01*
X74044Y211389D01*
X74080Y211493D01*
X74112Y211599D01*
X74141Y211705D01*
X74166Y211813D01*
X74188Y211921D01*
X74205Y212031D01*
X74219Y212140D01*
X74228Y212250D01*
X74234Y212361D01*
X74236Y212471D01*
X73262Y210199D02*
X67744Y203708D01*
X74235Y203708D01*
X137104Y102943D02*
X142296Y102943D01*
X137104Y102942D02*
X136991Y102944D01*
X136878Y102950D01*
X136765Y102960D01*
X136652Y102974D01*
X136540Y102991D01*
X136429Y103013D01*
X136319Y103038D01*
X136209Y103068D01*
X136101Y103101D01*
X135994Y103138D01*
X135888Y103178D01*
X135784Y103223D01*
X135681Y103271D01*
X135580Y103322D01*
X135481Y103377D01*
X135384Y103435D01*
X135289Y103497D01*
X135196Y103562D01*
X135106Y103630D01*
X135018Y103701D01*
X134932Y103776D01*
X134849Y103853D01*
X134769Y103933D01*
X134692Y104016D01*
X134617Y104102D01*
X134546Y104190D01*
X134478Y104280D01*
X134413Y104373D01*
X134351Y104468D01*
X134293Y104565D01*
X134238Y104664D01*
X134187Y104765D01*
X134139Y104868D01*
X134094Y104972D01*
X134054Y105078D01*
X134017Y105185D01*
X133984Y105293D01*
X133954Y105403D01*
X133929Y105513D01*
X133907Y105624D01*
X133890Y105736D01*
X133876Y105849D01*
X133866Y105962D01*
X133860Y106075D01*
X133858Y106188D01*
X133860Y106301D01*
X133866Y106414D01*
X133876Y106527D01*
X133890Y106640D01*
X133907Y106752D01*
X133929Y106863D01*
X133954Y106973D01*
X133984Y107083D01*
X134017Y107191D01*
X134054Y107298D01*
X134094Y107404D01*
X134139Y107508D01*
X134187Y107611D01*
X134238Y107712D01*
X134293Y107811D01*
X134351Y107908D01*
X134413Y108003D01*
X134478Y108096D01*
X134546Y108186D01*
X134617Y108274D01*
X134692Y108360D01*
X134769Y108443D01*
X134849Y108523D01*
X134932Y108600D01*
X135018Y108675D01*
X135106Y108746D01*
X135196Y108814D01*
X135289Y108879D01*
X135384Y108941D01*
X135481Y108999D01*
X135580Y109054D01*
X135681Y109105D01*
X135784Y109153D01*
X135888Y109198D01*
X135994Y109238D01*
X136101Y109275D01*
X136209Y109308D01*
X136319Y109338D01*
X136429Y109363D01*
X136540Y109385D01*
X136652Y109402D01*
X136765Y109416D01*
X136878Y109426D01*
X136991Y109432D01*
X137104Y109434D01*
X142296Y109434D01*
X142409Y109432D01*
X142522Y109426D01*
X142635Y109416D01*
X142748Y109402D01*
X142860Y109385D01*
X142971Y109363D01*
X143081Y109338D01*
X143191Y109308D01*
X143299Y109275D01*
X143406Y109238D01*
X143512Y109198D01*
X143616Y109153D01*
X143719Y109105D01*
X143820Y109054D01*
X143919Y108999D01*
X144016Y108941D01*
X144111Y108879D01*
X144204Y108814D01*
X144294Y108746D01*
X144382Y108675D01*
X144468Y108600D01*
X144551Y108523D01*
X144631Y108443D01*
X144708Y108360D01*
X144783Y108274D01*
X144854Y108186D01*
X144922Y108096D01*
X144987Y108003D01*
X145049Y107908D01*
X145107Y107811D01*
X145162Y107712D01*
X145213Y107611D01*
X145261Y107508D01*
X145306Y107404D01*
X145346Y107298D01*
X145383Y107191D01*
X145416Y107083D01*
X145446Y106973D01*
X145471Y106863D01*
X145493Y106752D01*
X145510Y106640D01*
X145524Y106527D01*
X145534Y106414D01*
X145540Y106301D01*
X145542Y106188D01*
X145540Y106075D01*
X145534Y105962D01*
X145524Y105849D01*
X145510Y105736D01*
X145493Y105624D01*
X145471Y105513D01*
X145446Y105403D01*
X145416Y105293D01*
X145383Y105185D01*
X145346Y105078D01*
X145306Y104972D01*
X145261Y104868D01*
X145213Y104765D01*
X145162Y104664D01*
X145107Y104565D01*
X145049Y104468D01*
X144987Y104373D01*
X144922Y104280D01*
X144854Y104190D01*
X144783Y104102D01*
X144708Y104016D01*
X144631Y103933D01*
X144551Y103853D01*
X144468Y103776D01*
X144382Y103701D01*
X144294Y103630D01*
X144204Y103562D01*
X144111Y103497D01*
X144016Y103435D01*
X143919Y103377D01*
X143820Y103322D01*
X143719Y103271D01*
X143616Y103223D01*
X143512Y103178D01*
X143406Y103138D01*
X143299Y103101D01*
X143191Y103068D01*
X143081Y103038D01*
X142971Y103013D01*
X142860Y102991D01*
X142748Y102974D01*
X142635Y102960D01*
X142522Y102950D01*
X142409Y102944D01*
X142296Y102942D01*
X142946Y108135D02*
X145542Y110732D01*
X136454Y114086D02*
X133858Y117332D01*
X145542Y117332D01*
X145542Y120577D02*
X145542Y114086D01*
D19*
X164200Y127760D02*
X164200Y95760D01*
X115200Y95760D01*
X115200Y127760D01*
X164200Y127760D01*
X165750Y131260D02*
X165750Y146510D01*
D10*
X274264Y128343D02*
X279456Y128343D01*
X274264Y128342D02*
X274151Y128344D01*
X274038Y128350D01*
X273925Y128360D01*
X273812Y128374D01*
X273700Y128391D01*
X273589Y128413D01*
X273479Y128438D01*
X273369Y128468D01*
X273261Y128501D01*
X273154Y128538D01*
X273048Y128578D01*
X272944Y128623D01*
X272841Y128671D01*
X272740Y128722D01*
X272641Y128777D01*
X272544Y128835D01*
X272449Y128897D01*
X272356Y128962D01*
X272266Y129030D01*
X272178Y129101D01*
X272092Y129176D01*
X272009Y129253D01*
X271929Y129333D01*
X271852Y129416D01*
X271777Y129502D01*
X271706Y129590D01*
X271638Y129680D01*
X271573Y129773D01*
X271511Y129868D01*
X271453Y129965D01*
X271398Y130064D01*
X271347Y130165D01*
X271299Y130268D01*
X271254Y130372D01*
X271214Y130478D01*
X271177Y130585D01*
X271144Y130693D01*
X271114Y130803D01*
X271089Y130913D01*
X271067Y131024D01*
X271050Y131136D01*
X271036Y131249D01*
X271026Y131362D01*
X271020Y131475D01*
X271018Y131588D01*
X271020Y131701D01*
X271026Y131814D01*
X271036Y131927D01*
X271050Y132040D01*
X271067Y132152D01*
X271089Y132263D01*
X271114Y132373D01*
X271144Y132483D01*
X271177Y132591D01*
X271214Y132698D01*
X271254Y132804D01*
X271299Y132908D01*
X271347Y133011D01*
X271398Y133112D01*
X271453Y133211D01*
X271511Y133308D01*
X271573Y133403D01*
X271638Y133496D01*
X271706Y133586D01*
X271777Y133674D01*
X271852Y133760D01*
X271929Y133843D01*
X272009Y133923D01*
X272092Y134000D01*
X272178Y134075D01*
X272266Y134146D01*
X272356Y134214D01*
X272449Y134279D01*
X272544Y134341D01*
X272641Y134399D01*
X272740Y134454D01*
X272841Y134505D01*
X272944Y134553D01*
X273048Y134598D01*
X273154Y134638D01*
X273261Y134675D01*
X273369Y134708D01*
X273479Y134738D01*
X273589Y134763D01*
X273700Y134785D01*
X273812Y134802D01*
X273925Y134816D01*
X274038Y134826D01*
X274151Y134832D01*
X274264Y134834D01*
X279456Y134834D01*
X279569Y134832D01*
X279682Y134826D01*
X279795Y134816D01*
X279908Y134802D01*
X280020Y134785D01*
X280131Y134763D01*
X280241Y134738D01*
X280351Y134708D01*
X280459Y134675D01*
X280566Y134638D01*
X280672Y134598D01*
X280776Y134553D01*
X280879Y134505D01*
X280980Y134454D01*
X281079Y134399D01*
X281176Y134341D01*
X281271Y134279D01*
X281364Y134214D01*
X281454Y134146D01*
X281542Y134075D01*
X281628Y134000D01*
X281711Y133923D01*
X281791Y133843D01*
X281868Y133760D01*
X281943Y133674D01*
X282014Y133586D01*
X282082Y133496D01*
X282147Y133403D01*
X282209Y133308D01*
X282267Y133211D01*
X282322Y133112D01*
X282373Y133011D01*
X282421Y132908D01*
X282466Y132804D01*
X282506Y132698D01*
X282543Y132591D01*
X282576Y132483D01*
X282606Y132373D01*
X282631Y132263D01*
X282653Y132152D01*
X282670Y132040D01*
X282684Y131927D01*
X282694Y131814D01*
X282700Y131701D01*
X282702Y131588D01*
X282700Y131475D01*
X282694Y131362D01*
X282684Y131249D01*
X282670Y131136D01*
X282653Y131024D01*
X282631Y130913D01*
X282606Y130803D01*
X282576Y130693D01*
X282543Y130585D01*
X282506Y130478D01*
X282466Y130372D01*
X282421Y130268D01*
X282373Y130165D01*
X282322Y130064D01*
X282267Y129965D01*
X282209Y129868D01*
X282147Y129773D01*
X282082Y129680D01*
X282014Y129590D01*
X281943Y129502D01*
X281868Y129416D01*
X281791Y129333D01*
X281711Y129253D01*
X281628Y129176D01*
X281542Y129101D01*
X281454Y129030D01*
X281364Y128962D01*
X281271Y128897D01*
X281176Y128835D01*
X281079Y128777D01*
X280980Y128722D01*
X280879Y128671D01*
X280776Y128623D01*
X280672Y128578D01*
X280566Y128538D01*
X280459Y128501D01*
X280351Y128468D01*
X280241Y128438D01*
X280131Y128413D01*
X280020Y128391D01*
X279908Y128374D01*
X279795Y128360D01*
X279682Y128350D01*
X279569Y128344D01*
X279456Y128342D01*
X280106Y133535D02*
X282702Y136132D01*
X273939Y145977D02*
X273832Y145975D01*
X273726Y145969D01*
X273620Y145959D01*
X273514Y145946D01*
X273408Y145928D01*
X273304Y145907D01*
X273200Y145882D01*
X273097Y145853D01*
X272996Y145821D01*
X272896Y145784D01*
X272797Y145744D01*
X272699Y145701D01*
X272603Y145654D01*
X272509Y145603D01*
X272417Y145549D01*
X272327Y145492D01*
X272239Y145432D01*
X272154Y145368D01*
X272071Y145301D01*
X271990Y145231D01*
X271912Y145159D01*
X271836Y145083D01*
X271764Y145005D01*
X271694Y144924D01*
X271627Y144841D01*
X271563Y144756D01*
X271503Y144668D01*
X271446Y144578D01*
X271392Y144486D01*
X271341Y144392D01*
X271294Y144296D01*
X271251Y144198D01*
X271211Y144099D01*
X271174Y143999D01*
X271142Y143898D01*
X271113Y143795D01*
X271088Y143691D01*
X271067Y143587D01*
X271049Y143481D01*
X271036Y143375D01*
X271026Y143269D01*
X271020Y143163D01*
X271018Y143056D01*
X271020Y142935D01*
X271026Y142814D01*
X271036Y142694D01*
X271049Y142573D01*
X271067Y142454D01*
X271088Y142334D01*
X271113Y142216D01*
X271142Y142099D01*
X271175Y141982D01*
X271211Y141867D01*
X271252Y141753D01*
X271295Y141640D01*
X271343Y141528D01*
X271394Y141419D01*
X271449Y141311D01*
X271507Y141204D01*
X271568Y141100D01*
X271633Y140998D01*
X271701Y140898D01*
X271772Y140800D01*
X271846Y140704D01*
X271923Y140611D01*
X272004Y140521D01*
X272087Y140433D01*
X272173Y140348D01*
X272262Y140265D01*
X272353Y140186D01*
X272447Y140109D01*
X272543Y140036D01*
X272641Y139966D01*
X272742Y139899D01*
X272845Y139835D01*
X272950Y139775D01*
X273057Y139717D01*
X273165Y139664D01*
X273275Y139614D01*
X273387Y139568D01*
X273500Y139525D01*
X273615Y139486D01*
X276211Y145003D02*
X276133Y145082D01*
X276053Y145158D01*
X275970Y145231D01*
X275884Y145301D01*
X275797Y145368D01*
X275706Y145432D01*
X275614Y145492D01*
X275520Y145550D01*
X275423Y145604D01*
X275325Y145654D01*
X275225Y145701D01*
X275124Y145745D01*
X275021Y145785D01*
X274916Y145821D01*
X274811Y145853D01*
X274704Y145882D01*
X274597Y145907D01*
X274488Y145929D01*
X274379Y145946D01*
X274270Y145960D01*
X274160Y145969D01*
X274049Y145975D01*
X273939Y145977D01*
X276211Y145004D02*
X282702Y139486D01*
X282702Y145977D01*
D19*
X301360Y153160D02*
X301360Y121160D01*
X252360Y121160D01*
X252360Y153160D01*
X301360Y153160D01*
X302910Y156660D02*
X302910Y171910D01*
D10*
X145475Y159512D02*
X145475Y147828D01*
X145475Y159512D02*
X148720Y159512D01*
X148833Y159510D01*
X148946Y159504D01*
X149059Y159494D01*
X149172Y159480D01*
X149284Y159463D01*
X149395Y159441D01*
X149505Y159416D01*
X149615Y159386D01*
X149723Y159353D01*
X149830Y159316D01*
X149936Y159276D01*
X150040Y159231D01*
X150143Y159183D01*
X150244Y159132D01*
X150343Y159077D01*
X150440Y159019D01*
X150535Y158957D01*
X150628Y158892D01*
X150718Y158824D01*
X150806Y158753D01*
X150892Y158678D01*
X150975Y158601D01*
X151055Y158521D01*
X151132Y158438D01*
X151207Y158352D01*
X151278Y158264D01*
X151346Y158174D01*
X151411Y158081D01*
X151473Y157986D01*
X151531Y157889D01*
X151586Y157790D01*
X151637Y157689D01*
X151685Y157586D01*
X151730Y157482D01*
X151770Y157376D01*
X151807Y157269D01*
X151840Y157161D01*
X151870Y157051D01*
X151895Y156941D01*
X151917Y156830D01*
X151934Y156718D01*
X151948Y156605D01*
X151958Y156492D01*
X151964Y156379D01*
X151966Y156266D01*
X151964Y156153D01*
X151958Y156040D01*
X151948Y155927D01*
X151934Y155814D01*
X151917Y155702D01*
X151895Y155591D01*
X151870Y155481D01*
X151840Y155371D01*
X151807Y155263D01*
X151770Y155156D01*
X151730Y155050D01*
X151685Y154946D01*
X151637Y154843D01*
X151586Y154742D01*
X151531Y154643D01*
X151473Y154546D01*
X151411Y154451D01*
X151346Y154358D01*
X151278Y154268D01*
X151207Y154180D01*
X151132Y154094D01*
X151055Y154011D01*
X150975Y153931D01*
X150892Y153854D01*
X150806Y153779D01*
X150718Y153708D01*
X150628Y153640D01*
X150535Y153575D01*
X150440Y153513D01*
X150343Y153455D01*
X150244Y153400D01*
X150143Y153349D01*
X150040Y153301D01*
X149936Y153256D01*
X149830Y153216D01*
X149723Y153179D01*
X149615Y153146D01*
X149505Y153116D01*
X149395Y153091D01*
X149284Y153069D01*
X149172Y153052D01*
X149059Y153038D01*
X148946Y153028D01*
X148833Y153022D01*
X148720Y153020D01*
X148720Y153021D02*
X145475Y153021D01*
X149369Y153021D02*
X151966Y147828D01*
X163322Y156591D02*
X163320Y156698D01*
X163314Y156804D01*
X163304Y156910D01*
X163291Y157016D01*
X163273Y157122D01*
X163252Y157226D01*
X163227Y157330D01*
X163198Y157433D01*
X163166Y157534D01*
X163129Y157634D01*
X163089Y157733D01*
X163046Y157831D01*
X162999Y157927D01*
X162948Y158021D01*
X162894Y158113D01*
X162837Y158203D01*
X162777Y158291D01*
X162713Y158376D01*
X162646Y158459D01*
X162576Y158540D01*
X162504Y158618D01*
X162428Y158694D01*
X162350Y158766D01*
X162269Y158836D01*
X162186Y158903D01*
X162101Y158967D01*
X162013Y159027D01*
X161923Y159084D01*
X161831Y159138D01*
X161737Y159189D01*
X161641Y159236D01*
X161543Y159279D01*
X161444Y159319D01*
X161344Y159356D01*
X161243Y159388D01*
X161140Y159417D01*
X161036Y159442D01*
X160932Y159463D01*
X160826Y159481D01*
X160720Y159494D01*
X160614Y159504D01*
X160508Y159510D01*
X160401Y159512D01*
X160280Y159510D01*
X160159Y159504D01*
X160039Y159494D01*
X159918Y159481D01*
X159799Y159463D01*
X159679Y159442D01*
X159561Y159417D01*
X159444Y159388D01*
X159327Y159355D01*
X159212Y159319D01*
X159098Y159278D01*
X158985Y159235D01*
X158873Y159187D01*
X158764Y159136D01*
X158656Y159081D01*
X158549Y159023D01*
X158445Y158962D01*
X158343Y158897D01*
X158243Y158829D01*
X158145Y158758D01*
X158049Y158684D01*
X157956Y158607D01*
X157866Y158526D01*
X157778Y158443D01*
X157693Y158357D01*
X157610Y158268D01*
X157531Y158177D01*
X157454Y158083D01*
X157381Y157987D01*
X157311Y157889D01*
X157244Y157788D01*
X157180Y157685D01*
X157120Y157580D01*
X157063Y157473D01*
X157009Y157365D01*
X156959Y157255D01*
X156913Y157143D01*
X156870Y157030D01*
X156831Y156915D01*
X162349Y154319D02*
X162428Y154396D01*
X162504Y154477D01*
X162577Y154560D01*
X162647Y154645D01*
X162714Y154733D01*
X162778Y154823D01*
X162838Y154915D01*
X162895Y155010D01*
X162949Y155106D01*
X163000Y155204D01*
X163047Y155304D01*
X163091Y155406D01*
X163131Y155509D01*
X163167Y155613D01*
X163199Y155719D01*
X163228Y155825D01*
X163253Y155933D01*
X163275Y156041D01*
X163292Y156151D01*
X163306Y156260D01*
X163315Y156370D01*
X163321Y156481D01*
X163323Y156591D01*
X162348Y154319D02*
X156831Y147828D01*
X163322Y147828D01*
X99755Y147828D02*
X99755Y159512D01*
X103000Y159512D01*
X103113Y159510D01*
X103226Y159504D01*
X103339Y159494D01*
X103452Y159480D01*
X103564Y159463D01*
X103675Y159441D01*
X103785Y159416D01*
X103895Y159386D01*
X104003Y159353D01*
X104110Y159316D01*
X104216Y159276D01*
X104320Y159231D01*
X104423Y159183D01*
X104524Y159132D01*
X104623Y159077D01*
X104720Y159019D01*
X104815Y158957D01*
X104908Y158892D01*
X104998Y158824D01*
X105086Y158753D01*
X105172Y158678D01*
X105255Y158601D01*
X105335Y158521D01*
X105412Y158438D01*
X105487Y158352D01*
X105558Y158264D01*
X105626Y158174D01*
X105691Y158081D01*
X105753Y157986D01*
X105811Y157889D01*
X105866Y157790D01*
X105917Y157689D01*
X105965Y157586D01*
X106010Y157482D01*
X106050Y157376D01*
X106087Y157269D01*
X106120Y157161D01*
X106150Y157051D01*
X106175Y156941D01*
X106197Y156830D01*
X106214Y156718D01*
X106228Y156605D01*
X106238Y156492D01*
X106244Y156379D01*
X106246Y156266D01*
X106244Y156153D01*
X106238Y156040D01*
X106228Y155927D01*
X106214Y155814D01*
X106197Y155702D01*
X106175Y155591D01*
X106150Y155481D01*
X106120Y155371D01*
X106087Y155263D01*
X106050Y155156D01*
X106010Y155050D01*
X105965Y154946D01*
X105917Y154843D01*
X105866Y154742D01*
X105811Y154643D01*
X105753Y154546D01*
X105691Y154451D01*
X105626Y154358D01*
X105558Y154268D01*
X105487Y154180D01*
X105412Y154094D01*
X105335Y154011D01*
X105255Y153931D01*
X105172Y153854D01*
X105086Y153779D01*
X104998Y153708D01*
X104908Y153640D01*
X104815Y153575D01*
X104720Y153513D01*
X104623Y153455D01*
X104524Y153400D01*
X104423Y153349D01*
X104320Y153301D01*
X104216Y153256D01*
X104110Y153216D01*
X104003Y153179D01*
X103895Y153146D01*
X103785Y153116D01*
X103675Y153091D01*
X103564Y153069D01*
X103452Y153052D01*
X103339Y153038D01*
X103226Y153028D01*
X103113Y153022D01*
X103000Y153020D01*
X103000Y153021D02*
X99755Y153021D01*
X103649Y153021D02*
X106246Y147828D01*
X111111Y147828D02*
X114356Y147828D01*
X114469Y147830D01*
X114582Y147836D01*
X114695Y147846D01*
X114808Y147860D01*
X114920Y147877D01*
X115031Y147899D01*
X115141Y147924D01*
X115251Y147954D01*
X115359Y147987D01*
X115466Y148024D01*
X115572Y148064D01*
X115676Y148109D01*
X115779Y148157D01*
X115880Y148208D01*
X115979Y148263D01*
X116076Y148321D01*
X116171Y148383D01*
X116264Y148448D01*
X116354Y148516D01*
X116442Y148587D01*
X116528Y148662D01*
X116611Y148739D01*
X116691Y148819D01*
X116768Y148902D01*
X116843Y148988D01*
X116914Y149076D01*
X116982Y149166D01*
X117047Y149259D01*
X117109Y149354D01*
X117167Y149451D01*
X117222Y149550D01*
X117273Y149651D01*
X117321Y149754D01*
X117366Y149858D01*
X117406Y149964D01*
X117443Y150071D01*
X117476Y150179D01*
X117506Y150289D01*
X117531Y150399D01*
X117553Y150510D01*
X117570Y150622D01*
X117584Y150735D01*
X117594Y150848D01*
X117600Y150961D01*
X117602Y151074D01*
X117600Y151187D01*
X117594Y151300D01*
X117584Y151413D01*
X117570Y151526D01*
X117553Y151638D01*
X117531Y151749D01*
X117506Y151859D01*
X117476Y151969D01*
X117443Y152077D01*
X117406Y152184D01*
X117366Y152290D01*
X117321Y152394D01*
X117273Y152497D01*
X117222Y152598D01*
X117167Y152697D01*
X117109Y152794D01*
X117047Y152889D01*
X116982Y152982D01*
X116914Y153072D01*
X116843Y153160D01*
X116768Y153246D01*
X116691Y153329D01*
X116611Y153409D01*
X116528Y153486D01*
X116442Y153561D01*
X116354Y153632D01*
X116264Y153700D01*
X116171Y153765D01*
X116076Y153827D01*
X115979Y153885D01*
X115880Y153940D01*
X115779Y153991D01*
X115676Y154039D01*
X115572Y154084D01*
X115466Y154124D01*
X115359Y154161D01*
X115251Y154194D01*
X115141Y154224D01*
X115031Y154249D01*
X114920Y154271D01*
X114808Y154288D01*
X114695Y154302D01*
X114582Y154312D01*
X114469Y154318D01*
X114356Y154320D01*
X115006Y159512D02*
X111111Y159512D01*
X115006Y159512D02*
X115107Y159510D01*
X115207Y159504D01*
X115307Y159494D01*
X115407Y159481D01*
X115506Y159463D01*
X115605Y159442D01*
X115702Y159417D01*
X115799Y159388D01*
X115894Y159355D01*
X115988Y159319D01*
X116080Y159279D01*
X116171Y159236D01*
X116260Y159189D01*
X116347Y159139D01*
X116433Y159085D01*
X116516Y159028D01*
X116596Y158968D01*
X116675Y158905D01*
X116751Y158838D01*
X116824Y158769D01*
X116894Y158697D01*
X116962Y158623D01*
X117027Y158546D01*
X117088Y158466D01*
X117147Y158384D01*
X117202Y158300D01*
X117254Y158214D01*
X117303Y158126D01*
X117348Y158036D01*
X117390Y157944D01*
X117428Y157851D01*
X117462Y157756D01*
X117493Y157661D01*
X117520Y157564D01*
X117543Y157466D01*
X117563Y157367D01*
X117578Y157267D01*
X117590Y157167D01*
X117598Y157067D01*
X117602Y156966D01*
X117602Y156866D01*
X117598Y156765D01*
X117590Y156665D01*
X117578Y156565D01*
X117563Y156465D01*
X117543Y156366D01*
X117520Y156268D01*
X117493Y156171D01*
X117462Y156076D01*
X117428Y155981D01*
X117390Y155888D01*
X117348Y155796D01*
X117303Y155706D01*
X117254Y155618D01*
X117202Y155532D01*
X117147Y155448D01*
X117088Y155366D01*
X117027Y155286D01*
X116962Y155209D01*
X116894Y155135D01*
X116824Y155063D01*
X116751Y154994D01*
X116675Y154927D01*
X116596Y154864D01*
X116516Y154804D01*
X116433Y154747D01*
X116347Y154693D01*
X116260Y154643D01*
X116171Y154596D01*
X116080Y154553D01*
X115988Y154513D01*
X115894Y154477D01*
X115799Y154444D01*
X115702Y154415D01*
X115605Y154390D01*
X115506Y154369D01*
X115407Y154351D01*
X115307Y154338D01*
X115207Y154328D01*
X115107Y154322D01*
X115006Y154320D01*
X115006Y154319D02*
X112409Y154319D01*
X287715Y168148D02*
X287715Y179832D01*
X290960Y179832D01*
X291073Y179830D01*
X291186Y179824D01*
X291299Y179814D01*
X291412Y179800D01*
X291524Y179783D01*
X291635Y179761D01*
X291745Y179736D01*
X291855Y179706D01*
X291963Y179673D01*
X292070Y179636D01*
X292176Y179596D01*
X292280Y179551D01*
X292383Y179503D01*
X292484Y179452D01*
X292583Y179397D01*
X292680Y179339D01*
X292775Y179277D01*
X292868Y179212D01*
X292958Y179144D01*
X293046Y179073D01*
X293132Y178998D01*
X293215Y178921D01*
X293295Y178841D01*
X293372Y178758D01*
X293447Y178672D01*
X293518Y178584D01*
X293586Y178494D01*
X293651Y178401D01*
X293713Y178306D01*
X293771Y178209D01*
X293826Y178110D01*
X293877Y178009D01*
X293925Y177906D01*
X293970Y177802D01*
X294010Y177696D01*
X294047Y177589D01*
X294080Y177481D01*
X294110Y177371D01*
X294135Y177261D01*
X294157Y177150D01*
X294174Y177038D01*
X294188Y176925D01*
X294198Y176812D01*
X294204Y176699D01*
X294206Y176586D01*
X294204Y176473D01*
X294198Y176360D01*
X294188Y176247D01*
X294174Y176134D01*
X294157Y176022D01*
X294135Y175911D01*
X294110Y175801D01*
X294080Y175691D01*
X294047Y175583D01*
X294010Y175476D01*
X293970Y175370D01*
X293925Y175266D01*
X293877Y175163D01*
X293826Y175062D01*
X293771Y174963D01*
X293713Y174866D01*
X293651Y174771D01*
X293586Y174678D01*
X293518Y174588D01*
X293447Y174500D01*
X293372Y174414D01*
X293295Y174331D01*
X293215Y174251D01*
X293132Y174174D01*
X293046Y174099D01*
X292958Y174028D01*
X292868Y173960D01*
X292775Y173895D01*
X292680Y173833D01*
X292583Y173775D01*
X292484Y173720D01*
X292383Y173669D01*
X292280Y173621D01*
X292176Y173576D01*
X292070Y173536D01*
X291963Y173499D01*
X291855Y173466D01*
X291745Y173436D01*
X291635Y173411D01*
X291524Y173389D01*
X291412Y173372D01*
X291299Y173358D01*
X291186Y173348D01*
X291073Y173342D01*
X290960Y173340D01*
X290960Y173341D02*
X287715Y173341D01*
X291609Y173341D02*
X294206Y168148D01*
X299071Y170744D02*
X301667Y179832D01*
X299071Y170744D02*
X305562Y170744D01*
X303615Y173341D02*
X303615Y168148D01*
X236915Y163068D02*
X236915Y174752D01*
X240160Y174752D01*
X240273Y174750D01*
X240386Y174744D01*
X240499Y174734D01*
X240612Y174720D01*
X240724Y174703D01*
X240835Y174681D01*
X240945Y174656D01*
X241055Y174626D01*
X241163Y174593D01*
X241270Y174556D01*
X241376Y174516D01*
X241480Y174471D01*
X241583Y174423D01*
X241684Y174372D01*
X241783Y174317D01*
X241880Y174259D01*
X241975Y174197D01*
X242068Y174132D01*
X242158Y174064D01*
X242246Y173993D01*
X242332Y173918D01*
X242415Y173841D01*
X242495Y173761D01*
X242572Y173678D01*
X242647Y173592D01*
X242718Y173504D01*
X242786Y173414D01*
X242851Y173321D01*
X242913Y173226D01*
X242971Y173129D01*
X243026Y173030D01*
X243077Y172929D01*
X243125Y172826D01*
X243170Y172722D01*
X243210Y172616D01*
X243247Y172509D01*
X243280Y172401D01*
X243310Y172291D01*
X243335Y172181D01*
X243357Y172070D01*
X243374Y171958D01*
X243388Y171845D01*
X243398Y171732D01*
X243404Y171619D01*
X243406Y171506D01*
X243404Y171393D01*
X243398Y171280D01*
X243388Y171167D01*
X243374Y171054D01*
X243357Y170942D01*
X243335Y170831D01*
X243310Y170721D01*
X243280Y170611D01*
X243247Y170503D01*
X243210Y170396D01*
X243170Y170290D01*
X243125Y170186D01*
X243077Y170083D01*
X243026Y169982D01*
X242971Y169883D01*
X242913Y169786D01*
X242851Y169691D01*
X242786Y169598D01*
X242718Y169508D01*
X242647Y169420D01*
X242572Y169334D01*
X242495Y169251D01*
X242415Y169171D01*
X242332Y169094D01*
X242246Y169019D01*
X242158Y168948D01*
X242068Y168880D01*
X241975Y168815D01*
X241880Y168753D01*
X241783Y168695D01*
X241684Y168640D01*
X241583Y168589D01*
X241480Y168541D01*
X241376Y168496D01*
X241270Y168456D01*
X241163Y168419D01*
X241055Y168386D01*
X240945Y168356D01*
X240835Y168331D01*
X240724Y168309D01*
X240612Y168292D01*
X240499Y168278D01*
X240386Y168268D01*
X240273Y168262D01*
X240160Y168260D01*
X240160Y168261D02*
X236915Y168261D01*
X240809Y168261D02*
X243406Y163068D01*
X248271Y163068D02*
X252166Y163068D01*
X252265Y163070D01*
X252365Y163076D01*
X252464Y163085D01*
X252562Y163098D01*
X252660Y163115D01*
X252758Y163136D01*
X252854Y163161D01*
X252949Y163189D01*
X253043Y163221D01*
X253136Y163256D01*
X253228Y163295D01*
X253318Y163338D01*
X253406Y163383D01*
X253493Y163433D01*
X253577Y163485D01*
X253660Y163541D01*
X253740Y163599D01*
X253818Y163661D01*
X253893Y163726D01*
X253966Y163794D01*
X254036Y163864D01*
X254104Y163937D01*
X254169Y164012D01*
X254231Y164090D01*
X254289Y164170D01*
X254345Y164253D01*
X254397Y164337D01*
X254447Y164424D01*
X254492Y164512D01*
X254535Y164602D01*
X254574Y164694D01*
X254609Y164787D01*
X254641Y164881D01*
X254669Y164976D01*
X254694Y165072D01*
X254715Y165170D01*
X254732Y165268D01*
X254745Y165366D01*
X254754Y165465D01*
X254760Y165565D01*
X254762Y165664D01*
X254762Y166963D01*
X254760Y167062D01*
X254754Y167162D01*
X254745Y167261D01*
X254732Y167359D01*
X254715Y167457D01*
X254694Y167555D01*
X254669Y167651D01*
X254641Y167746D01*
X254609Y167840D01*
X254574Y167933D01*
X254535Y168025D01*
X254492Y168115D01*
X254447Y168203D01*
X254397Y168290D01*
X254345Y168374D01*
X254289Y168457D01*
X254231Y168537D01*
X254169Y168615D01*
X254104Y168690D01*
X254036Y168763D01*
X253966Y168833D01*
X253893Y168901D01*
X253818Y168966D01*
X253740Y169028D01*
X253660Y169086D01*
X253577Y169142D01*
X253493Y169194D01*
X253406Y169244D01*
X253318Y169289D01*
X253228Y169332D01*
X253136Y169371D01*
X253043Y169406D01*
X252949Y169438D01*
X252854Y169466D01*
X252758Y169491D01*
X252660Y169512D01*
X252562Y169529D01*
X252464Y169542D01*
X252365Y169551D01*
X252265Y169557D01*
X252166Y169559D01*
X248271Y169559D01*
X248271Y174752D01*
X254762Y174752D01*
M02*
