G04 EAGLE Gerber X2 export*
%TF.Part,Single*%
%TF.FileFunction,Paste,Top*%
%TF.FilePolarity,Positive*%
%TF.GenerationSoftware,Autodesk,EAGLE,9.1.3*%
%TF.CreationDate,2020-03-05T03:51:44Z*%
G75*
%MOMM*%
%FSLAX34Y34*%
%LPD*%
%AMOC8*
5,1,8,0,0,1.08239X$1,22.5*%
G01*
%ADD10R,1.600000X1.803000*%
%ADD11R,1.600000X1.300000*%
%ADD12R,1.500000X1.300000*%
%ADD13R,1.600000X1.800000*%
%ADD14R,1.400000X1.000000*%
%ADD15R,1.803000X1.600000*%
%ADD16R,1.300000X1.500000*%
%ADD17R,0.700000X1.525000*%


D10*
X481080Y330200D03*
X509520Y330200D03*
X481080Y279400D03*
X509520Y279400D03*
X481080Y228600D03*
X509520Y228600D03*
X481080Y177800D03*
X509520Y177800D03*
X481080Y127000D03*
X509520Y127000D03*
X481080Y381000D03*
X509520Y381000D03*
D11*
X444500Y308000D03*
X444500Y327000D03*
D12*
X88900Y308000D03*
X88900Y327000D03*
X139700Y308000D03*
X139700Y327000D03*
X190500Y308000D03*
X190500Y327000D03*
X241300Y308000D03*
X241300Y327000D03*
D13*
X318800Y342900D03*
X290800Y342900D03*
X369600Y279400D03*
X341600Y279400D03*
D14*
X569800Y101600D03*
X547800Y92100D03*
X547800Y111100D03*
D12*
X571500Y54000D03*
X571500Y73000D03*
X571500Y155600D03*
X571500Y174600D03*
D15*
X38100Y138180D03*
X38100Y166620D03*
D16*
X41300Y190500D03*
X60300Y190500D03*
D17*
X158750Y138880D03*
X146050Y138880D03*
X133350Y138880D03*
X120650Y138880D03*
X120650Y84640D03*
X133350Y84640D03*
X146050Y84640D03*
X158750Y84640D03*
X295910Y164280D03*
X283210Y164280D03*
X270510Y164280D03*
X257810Y164280D03*
X257810Y110040D03*
X270510Y110040D03*
X283210Y110040D03*
X295910Y110040D03*
D16*
X166980Y172720D03*
X147980Y172720D03*
X121260Y172720D03*
X102260Y172720D03*
X309220Y193040D03*
X290220Y193040D03*
X258420Y187960D03*
X239420Y187960D03*
M02*
