G04 EAGLE Gerber X2 export*
%TF.Part,Single*%
%TF.FileFunction,Soldermask,Top,1*%
%TF.FilePolarity,Negative*%
%TF.GenerationSoftware,Autodesk,EAGLE,9.1.3*%
%TF.CreationDate,2020-03-05T03:51:44Z*%
G75*
%MOMM*%
%FSLAX34Y34*%
%LPD*%
%AMOC8*
5,1,8,0,0,1.08239X$1,22.5*%
G01*
%ADD10R,1.803200X2.006200*%
%ADD11C,1.727200*%
%ADD12R,1.981200X1.981200*%
%ADD13C,1.981200*%
%ADD14C,1.854200*%
%ADD15R,1.803200X1.503200*%
%ADD16R,1.703200X1.503200*%
%ADD17R,1.803200X2.003200*%
%ADD18C,3.053200*%
%ADD19R,2.828200X2.828200*%
%ADD20C,2.828200*%
%ADD21R,1.603200X1.203200*%
%ADD22R,2.006200X1.803200*%
%ADD23R,1.503200X1.703200*%
%ADD24R,0.903200X1.728200*%
%ADD25C,0.959600*%


D10*
X481080Y330200D03*
X509520Y330200D03*
X481080Y279400D03*
X509520Y279400D03*
X481080Y228600D03*
X509520Y228600D03*
X481080Y177800D03*
X509520Y177800D03*
D11*
X414020Y139700D02*
X398780Y139700D01*
X398780Y165100D02*
X414020Y165100D01*
X419100Y83820D02*
X419100Y68580D01*
X393700Y68580D02*
X393700Y83820D01*
D10*
X481080Y127000D03*
X509520Y127000D03*
D12*
X38100Y228600D03*
D13*
X63500Y228600D03*
X88900Y228600D03*
X114300Y228600D03*
X139700Y228600D03*
X165100Y228600D03*
X190500Y228600D03*
X215900Y228600D03*
X241300Y228600D03*
X266700Y228600D03*
X292100Y228600D03*
X317500Y228600D03*
X342900Y228600D03*
X368300Y228600D03*
X393700Y228600D03*
X38100Y381000D03*
X63500Y381000D03*
X88900Y381000D03*
X114300Y381000D03*
X139700Y381000D03*
X165100Y381000D03*
X190500Y381000D03*
X215900Y381000D03*
X241300Y381000D03*
X266700Y381000D03*
X292100Y381000D03*
X317500Y381000D03*
X342900Y381000D03*
X368300Y381000D03*
X393700Y381000D03*
D14*
X419100Y228600D03*
X419100Y381000D03*
X12700Y381000D03*
X12700Y228600D03*
D10*
X481080Y381000D03*
X509520Y381000D03*
D15*
X444500Y308000D03*
X444500Y327000D03*
D16*
X88900Y308000D03*
X88900Y327000D03*
X139700Y308000D03*
X139700Y327000D03*
X190500Y308000D03*
X190500Y327000D03*
X241300Y308000D03*
X241300Y327000D03*
D17*
X318800Y342900D03*
X290800Y342900D03*
X369600Y279400D03*
X341600Y279400D03*
D18*
X99800Y-43100D03*
D19*
X164800Y1900D03*
D20*
X204800Y1900D03*
X244800Y1900D03*
X284800Y1900D03*
X324800Y1900D03*
X364800Y1900D03*
X404800Y1900D03*
X444800Y1900D03*
X184800Y-38100D03*
X224800Y-38100D03*
X264800Y-38100D03*
X304800Y-38100D03*
X344800Y-38100D03*
X384800Y-38100D03*
X424800Y-38100D03*
X164800Y-78100D03*
X204800Y-78100D03*
X244800Y-78100D03*
X284800Y-78100D03*
X324800Y-78100D03*
X364800Y-78100D03*
X404800Y-78100D03*
X444800Y-78100D03*
D18*
X509800Y-43100D03*
D21*
X569800Y101600D03*
X547800Y92100D03*
X547800Y111100D03*
D16*
X571500Y54000D03*
X571500Y73000D03*
X571500Y155600D03*
X571500Y174600D03*
D22*
X38100Y138180D03*
X38100Y166620D03*
D23*
X41300Y190500D03*
X60300Y190500D03*
D24*
X158750Y138880D03*
X146050Y138880D03*
X133350Y138880D03*
X120650Y138880D03*
X120650Y84640D03*
X133350Y84640D03*
X146050Y84640D03*
X158750Y84640D03*
X295910Y164280D03*
X283210Y164280D03*
X270510Y164280D03*
X257810Y164280D03*
X257810Y110040D03*
X270510Y110040D03*
X283210Y110040D03*
X295910Y110040D03*
D23*
X166980Y172720D03*
X147980Y172720D03*
X121260Y172720D03*
X102260Y172720D03*
X309220Y193040D03*
X290220Y193040D03*
X258420Y187960D03*
X239420Y187960D03*
D25*
X210312Y411480D03*
X377952Y-103632D03*
X429768Y-103632D03*
X457200Y-103632D03*
X115824Y320040D03*
X283464Y277368D03*
X252984Y295656D03*
X134112Y173736D03*
X481584Y262128D03*
X499872Y243840D03*
X472440Y100584D03*
X304800Y82296D03*
X277368Y54864D03*
X256032Y33528D03*
X219456Y33528D03*
X201168Y51816D03*
X298704Y-91440D03*
X353568Y97536D03*
X304800Y48768D03*
X280416Y24384D03*
X387096Y335280D03*
X368808Y344424D03*
X371856Y310896D03*
X176784Y33528D03*
X332232Y128016D03*
X384048Y265176D03*
X441960Y402336D03*
X429768Y313944D03*
X411480Y274320D03*
X329184Y118872D03*
X304800Y94488D03*
X277368Y67056D03*
X252984Y42672D03*
X530352Y106680D03*
X530352Y30480D03*
X454152Y-54864D03*
X569976Y277368D03*
X499872Y347472D03*
X420624Y347472D03*
X381000Y356616D03*
X420624Y316992D03*
X420624Y298704D03*
X402336Y97536D03*
X173736Y-57912D03*
M02*
