G04 EAGLE Gerber X2 export*
%TF.Part,Single*%
%TF.FileFunction,Copper,L2,Bot,Mixed*%
%TF.FilePolarity,Positive*%
%TF.GenerationSoftware,Autodesk,EAGLE,9.1.3*%
%TF.CreationDate,2020-03-05T04:38:37Z*%
G75*
%MOMM*%
%FSLAX34Y34*%
%LPD*%
%AMOC8*
5,1,8,0,0,1.08239X$1,22.5*%
G01*
%ADD10R,1.778000X1.778000*%
%ADD11C,1.778000*%
%ADD12C,1.524000*%
%ADD13R,2.625000X2.625000*%
%ADD14C,2.625000*%
%ADD15C,0.381000*%
%ADD16C,0.756400*%
%ADD17R,3.048000X3.048000*%
%ADD18C,3.048000*%


D10*
X0Y101600D03*
D11*
X25400Y101600D03*
X50800Y101600D03*
X76200Y101600D03*
X101600Y101600D03*
X127000Y101600D03*
X152400Y101600D03*
X177800Y101600D03*
X203200Y101600D03*
X228600Y101600D03*
X254000Y101600D03*
X279400Y101600D03*
X304800Y101600D03*
X330200Y101600D03*
X355600Y101600D03*
X0Y254000D03*
X25400Y254000D03*
X50800Y254000D03*
X76200Y254000D03*
X101600Y254000D03*
X127000Y254000D03*
X152400Y254000D03*
X177800Y254000D03*
X203200Y254000D03*
X228600Y254000D03*
X254000Y254000D03*
X279400Y254000D03*
X304800Y254000D03*
X330200Y254000D03*
X355600Y254000D03*
D12*
X193040Y68580D02*
X193040Y53340D01*
X218440Y53340D02*
X218440Y68580D01*
X243840Y68580D02*
X243840Y53340D01*
D13*
X126700Y-33660D03*
D14*
X166700Y-33660D03*
X206700Y-33660D03*
X246700Y-33660D03*
X286700Y-33660D03*
X326700Y-33660D03*
X366700Y-33660D03*
X406700Y-33660D03*
X146700Y-73660D03*
X186700Y-73660D03*
X226700Y-73660D03*
X266700Y-73660D03*
X306700Y-73660D03*
X346700Y-73660D03*
X386700Y-73660D03*
X126700Y-113660D03*
X166700Y-113660D03*
X206700Y-113660D03*
X246700Y-113660D03*
X286700Y-113660D03*
X326700Y-113660D03*
X366700Y-113660D03*
X406700Y-113660D03*
D15*
X101346Y77343D02*
X101346Y101346D01*
X101346Y77343D02*
X29337Y5334D01*
X29337Y-85344D01*
X50673Y-106680D01*
X109347Y-106680D01*
X120015Y-96012D01*
X133350Y-96012D01*
X149352Y-112014D01*
X149352Y-120015D01*
X160020Y-130683D01*
X349377Y-130683D01*
X365379Y-114681D01*
X101600Y101600D02*
X101346Y101346D01*
X365379Y-114681D02*
X366700Y-113660D01*
X178689Y85344D02*
X178689Y101346D01*
X178689Y85344D02*
X144018Y50673D01*
X90678Y50673D01*
X77343Y37338D01*
X77343Y-29337D01*
X144018Y-96012D01*
X229362Y-96012D01*
X245364Y-112014D01*
X178689Y101346D02*
X177800Y101600D01*
X245364Y-112014D02*
X246700Y-113660D01*
X146685Y45339D02*
X202692Y101346D01*
X146685Y45339D02*
X96012Y45339D01*
X85344Y34671D01*
X202692Y101346D02*
X203200Y101600D01*
D16*
X85344Y34671D03*
D15*
X256032Y104013D02*
X264033Y112014D01*
X264033Y162687D01*
X250698Y176022D01*
X256032Y104013D02*
X254000Y101600D01*
X136017Y-114681D02*
X128016Y-114681D01*
X136017Y-114681D02*
X157353Y-136017D01*
X408051Y-136017D01*
X434721Y-109347D01*
X434721Y168021D01*
X128016Y-114681D02*
X126700Y-113660D01*
D16*
X250698Y176022D03*
X434721Y168021D03*
D15*
X280035Y101346D02*
X280035Y77343D01*
X384048Y-26670D01*
X384048Y-72009D01*
X280035Y101346D02*
X279400Y101600D01*
X384048Y-72009D02*
X386700Y-73660D01*
X296037Y-18669D02*
X296037Y32004D01*
X296037Y-18669D02*
X309372Y-32004D01*
X309372Y-40005D01*
X344043Y-74676D01*
X346700Y-73660D01*
D16*
X296037Y32004D03*
D15*
X357378Y8001D02*
X357378Y101346D01*
X357378Y8001D02*
X389382Y-24003D01*
X389382Y-50673D01*
X405384Y-66675D01*
X405384Y-80010D01*
X394716Y-90678D01*
X245364Y-90678D01*
X229362Y-74676D01*
X355600Y101600D02*
X357378Y101346D01*
X229362Y-74676D02*
X226700Y-73660D01*
X104013Y226695D02*
X104013Y253365D01*
X104013Y226695D02*
X160020Y170688D01*
X160020Y114681D01*
X106680Y-45339D02*
X117348Y-56007D01*
X170688Y-56007D01*
X186690Y-72009D01*
X104013Y253365D02*
X101600Y254000D01*
X186690Y-72009D02*
X186700Y-73660D01*
D16*
X160020Y114681D03*
X106680Y-45339D03*
D15*
X112014Y109347D02*
X112014Y208026D01*
X112014Y109347D02*
X114681Y106680D01*
X114681Y82677D01*
X34671Y2667D01*
X34671Y-8001D01*
X101346Y-74676D01*
X112014Y-74676D01*
D16*
X112014Y208026D03*
X112014Y-74676D03*
D15*
X154686Y256032D02*
X160020Y256032D01*
X170688Y266700D01*
X261366Y266700D01*
X266700Y261366D01*
X266700Y245364D01*
X405384Y106680D01*
X405384Y-32004D01*
X152400Y254000D02*
X154686Y256032D01*
X405384Y-32004D02*
X406700Y-33660D01*
X248031Y189357D02*
X242697Y189357D01*
X248031Y189357D02*
X269367Y168021D01*
X269367Y109347D01*
X266700Y106680D01*
X266700Y80010D01*
X365379Y-18669D01*
X365379Y-32004D01*
X366700Y-33660D01*
D16*
X242697Y189357D03*
D15*
X205359Y253365D02*
X205359Y117348D01*
X216027Y106680D01*
X216027Y96012D01*
X229362Y82677D01*
X256032Y82677D01*
X325374Y13335D01*
X325374Y-32004D01*
X205359Y253365D02*
X203200Y254000D01*
X325374Y-32004D02*
X326700Y-33660D01*
X229362Y144018D02*
X229362Y253365D01*
X229362Y144018D02*
X256032Y117348D01*
X285369Y32004D02*
X285369Y-32004D01*
X229362Y253365D02*
X228600Y254000D01*
X285369Y-32004D02*
X286700Y-33660D01*
D16*
X256032Y117348D03*
X285369Y32004D03*
D15*
X256032Y189357D02*
X256032Y253365D01*
X256032Y189357D02*
X317373Y128016D01*
X317373Y96012D01*
X296037Y74676D01*
X274701Y53340D02*
X274701Y-21336D01*
X266700Y-29337D01*
X266700Y-42672D01*
X256032Y-53340D01*
X226695Y-53340D01*
X208026Y-34671D01*
X256032Y253365D02*
X254000Y254000D01*
X206700Y-33660D02*
X208026Y-34671D01*
D16*
X296037Y74676D03*
X274701Y53340D03*
D15*
X314706Y-98679D02*
X317373Y-98679D01*
X320040Y-96012D01*
X389382Y-96012D01*
X405384Y-112014D01*
X406700Y-113660D01*
X74676Y168021D02*
X74676Y205359D01*
X74676Y168021D02*
X74676Y104013D01*
X74676Y205359D02*
X26670Y253365D01*
X74676Y104013D02*
X76200Y101600D01*
X26670Y253365D02*
X25400Y254000D01*
X74676Y168021D02*
X104013Y168021D01*
D16*
X314706Y-98679D03*
X104013Y168021D03*
D15*
X42672Y-5334D02*
X104013Y-66675D01*
D16*
X42672Y-5334D03*
X104013Y-66675D03*
D17*
X127000Y-5080D03*
X127000Y25400D03*
X157480Y25400D03*
X187960Y25400D03*
X213360Y25400D03*
X248920Y30480D03*
X248920Y0D03*
D18*
X246700Y-2220D02*
X246700Y-33660D01*
X246700Y-2220D02*
X248920Y0D01*
X248920Y30480D01*
X248920Y55880D01*
X243840Y60960D01*
D15*
X168021Y109347D02*
X168021Y154686D01*
X168021Y109347D02*
X165354Y106680D01*
X165354Y93345D01*
X170688Y88011D01*
D16*
X168021Y154686D03*
X170688Y88011D03*
D15*
X408051Y162687D02*
X472059Y226695D01*
D16*
X408051Y162687D03*
X472059Y226695D03*
M02*
