M48
;GenerationSoftware,Autodesk,EAGLE,9.1.3*%
;CreationDate,2020-03-05T04:38:37Z*%
FMAT,2
ICI,OFF
METRIC,TZ,000.000
T7C0.350
T6C0.762
T5C0.914
T4C1.016
T3C1.651
T2C1.750
T1C2.850
%
G90
M71
T1
X6170Y-7866
X47170Y-7866
T2
X40670Y-11366
X36670Y-11366
X32670Y-11366
X28670Y-11366
X24670Y-11366
X20670Y-11366
X16670Y-11366
X12670Y-11366
X38670Y-7366
X26670Y-7366
X34670Y-7366
X30670Y-7366
X22670Y-7366
X18670Y-7366
X14670Y-7366
X40670Y-3366
X36670Y-3366
X32670Y-3366
X28670Y-3366
X24670Y-3366
X20670Y-3366
X16670Y-3366
X12670Y-3366
T3
X38100Y10160
X38100Y25400
X-2540Y25400
X-2540Y10160
T4
X24384Y6096
X21844Y6096
X19304Y6096
T5
X33020Y25400
X35560Y25400
X0Y10160
X2540Y10160
X5080Y10160
X7620Y10160
X10160Y10160
X12700Y10160
X15240Y10160
X17780Y10160
X20320Y10160
X22860Y10160
X25400Y10160
X27940Y10160
X30480Y10160
X33020Y10160
X35560Y10160
X0Y25400
X2540Y25400
X5080Y25400
X7620Y25400
X10160Y25400
X12700Y25400
X15240Y25400
X17780Y25400
X20320Y25400
X22860Y25400
X25400Y25400
X27940Y25400
X30480Y25400
T6
X24892Y3048
X24892Y0
X21336Y2540
X18796Y2540
X15748Y2540
X12700Y2540
X12700Y-508
T7
X25070Y17602
X47206Y22669
X40805Y16269
X17069Y8801
X16802Y15469
X29604Y7468
X10401Y-6667
X4267Y-533
X10401Y16802
X8534Y3467
X31471Y-9868
X27470Y5334
X28537Y3200
X25603Y11735
X24270Y18936
X11201Y-7468
X11201Y20803
X10668Y-4534
X16002Y11468
X29604Y3200
X43472Y16802
M30