G04 EAGLE Gerber X2 export*
%TF.Part,Single*%
%TF.FileFunction,Legend,Top,1*%
%TF.FilePolarity,Positive*%
%TF.GenerationSoftware,Autodesk,EAGLE,9.1.3*%
%TF.CreationDate,2020-03-05T04:38:37Z*%
G75*
%MOMM*%
%FSLAX34Y34*%
%LPD*%
%AMOC8*
5,1,8,0,0,1.08239X$1,22.5*%
G01*
%ADD10C,0.000000*%
%ADD11C,0.076200*%
%ADD12C,0.101600*%
%ADD13C,0.127000*%
%ADD14R,10.668000X0.762000*%
%ADD15R,1.905000X0.508000*%
%ADD16R,0.762000X0.508000*%
%ADD17R,0.200000X0.200000*%
%ADD18R,0.150000X0.250000*%
%ADD19C,0.203200*%
%ADD20C,0.152400*%
%ADD21C,0.400000*%


D10*
X393700Y88900D02*
X393700Y266700D01*
X-38100Y266700D01*
X-38100Y88900D01*
X393700Y88900D01*
D11*
X-18581Y178181D02*
X-27819Y178181D01*
X-22687Y181260D01*
X-27819Y184340D01*
X-18581Y184340D01*
X-21147Y188594D02*
X-25253Y188594D01*
X-25352Y188596D01*
X-25452Y188602D01*
X-25551Y188611D01*
X-25649Y188625D01*
X-25747Y188642D01*
X-25845Y188663D01*
X-25941Y188688D01*
X-26036Y188717D01*
X-26131Y188749D01*
X-26223Y188785D01*
X-26315Y188824D01*
X-26405Y188867D01*
X-26493Y188913D01*
X-26579Y188963D01*
X-26663Y189016D01*
X-26745Y189072D01*
X-26825Y189132D01*
X-26902Y189194D01*
X-26977Y189260D01*
X-27050Y189328D01*
X-27119Y189399D01*
X-27186Y189473D01*
X-27250Y189549D01*
X-27311Y189628D01*
X-27369Y189709D01*
X-27424Y189792D01*
X-27475Y189877D01*
X-27523Y189964D01*
X-27568Y190053D01*
X-27609Y190144D01*
X-27647Y190236D01*
X-27681Y190329D01*
X-27711Y190424D01*
X-27738Y190520D01*
X-27761Y190617D01*
X-27780Y190714D01*
X-27795Y190813D01*
X-27807Y190912D01*
X-27815Y191011D01*
X-27819Y191110D01*
X-27819Y191210D01*
X-27815Y191309D01*
X-27807Y191408D01*
X-27795Y191507D01*
X-27780Y191606D01*
X-27761Y191703D01*
X-27738Y191800D01*
X-27711Y191896D01*
X-27681Y191991D01*
X-27647Y192084D01*
X-27609Y192176D01*
X-27568Y192267D01*
X-27523Y192356D01*
X-27475Y192443D01*
X-27424Y192528D01*
X-27369Y192611D01*
X-27311Y192692D01*
X-27250Y192771D01*
X-27186Y192847D01*
X-27119Y192921D01*
X-27050Y192992D01*
X-26977Y193060D01*
X-26902Y193126D01*
X-26825Y193188D01*
X-26745Y193248D01*
X-26663Y193304D01*
X-26579Y193357D01*
X-26493Y193407D01*
X-26405Y193453D01*
X-26315Y193496D01*
X-26223Y193535D01*
X-26131Y193571D01*
X-26036Y193603D01*
X-25941Y193632D01*
X-25845Y193657D01*
X-25747Y193678D01*
X-25649Y193695D01*
X-25551Y193709D01*
X-25452Y193718D01*
X-25352Y193724D01*
X-25253Y193726D01*
X-21147Y193726D01*
X-21048Y193724D01*
X-20948Y193718D01*
X-20849Y193709D01*
X-20751Y193695D01*
X-20653Y193678D01*
X-20555Y193657D01*
X-20459Y193632D01*
X-20364Y193603D01*
X-20269Y193571D01*
X-20177Y193535D01*
X-20085Y193496D01*
X-19995Y193453D01*
X-19907Y193407D01*
X-19821Y193357D01*
X-19737Y193304D01*
X-19655Y193248D01*
X-19575Y193188D01*
X-19498Y193126D01*
X-19423Y193060D01*
X-19350Y192992D01*
X-19281Y192921D01*
X-19214Y192847D01*
X-19150Y192771D01*
X-19089Y192692D01*
X-19031Y192611D01*
X-18976Y192528D01*
X-18925Y192443D01*
X-18877Y192356D01*
X-18832Y192267D01*
X-18791Y192176D01*
X-18753Y192084D01*
X-18719Y191991D01*
X-18689Y191896D01*
X-18662Y191800D01*
X-18639Y191703D01*
X-18620Y191606D01*
X-18605Y191507D01*
X-18593Y191408D01*
X-18585Y191309D01*
X-18581Y191210D01*
X-18581Y191110D01*
X-18585Y191011D01*
X-18593Y190912D01*
X-18605Y190813D01*
X-18620Y190714D01*
X-18639Y190617D01*
X-18662Y190520D01*
X-18689Y190424D01*
X-18719Y190329D01*
X-18753Y190236D01*
X-18791Y190144D01*
X-18832Y190053D01*
X-18877Y189964D01*
X-18925Y189877D01*
X-18976Y189792D01*
X-19031Y189709D01*
X-19089Y189628D01*
X-19150Y189549D01*
X-19214Y189473D01*
X-19281Y189399D01*
X-19350Y189328D01*
X-19423Y189260D01*
X-19498Y189194D01*
X-19575Y189132D01*
X-19655Y189072D01*
X-19737Y189016D01*
X-19821Y188963D01*
X-19907Y188913D01*
X-19995Y188867D01*
X-20085Y188824D01*
X-20177Y188785D01*
X-20269Y188749D01*
X-20364Y188717D01*
X-20459Y188688D01*
X-20555Y188663D01*
X-20653Y188642D01*
X-20751Y188625D01*
X-20849Y188611D01*
X-20948Y188602D01*
X-21048Y188596D01*
X-21147Y188594D01*
X-18581Y197894D02*
X-27819Y197894D01*
X-27819Y200460D01*
X-27817Y200558D01*
X-27811Y200656D01*
X-27802Y200754D01*
X-27789Y200852D01*
X-27772Y200949D01*
X-27752Y201045D01*
X-27727Y201140D01*
X-27699Y201234D01*
X-27668Y201327D01*
X-27633Y201419D01*
X-27594Y201510D01*
X-27553Y201599D01*
X-27507Y201686D01*
X-27459Y201771D01*
X-27407Y201855D01*
X-27352Y201936D01*
X-27294Y202016D01*
X-27233Y202093D01*
X-27169Y202167D01*
X-27102Y202239D01*
X-27032Y202309D01*
X-26960Y202376D01*
X-26886Y202440D01*
X-26809Y202501D01*
X-26729Y202559D01*
X-26648Y202614D01*
X-26564Y202666D01*
X-26479Y202714D01*
X-26392Y202760D01*
X-26303Y202801D01*
X-26212Y202840D01*
X-26120Y202875D01*
X-26027Y202906D01*
X-25933Y202934D01*
X-25838Y202959D01*
X-25742Y202979D01*
X-25645Y202996D01*
X-25547Y203009D01*
X-25449Y203018D01*
X-25351Y203024D01*
X-25253Y203026D01*
X-21147Y203026D01*
X-21049Y203024D01*
X-20951Y203018D01*
X-20853Y203009D01*
X-20755Y202996D01*
X-20658Y202979D01*
X-20562Y202959D01*
X-20467Y202934D01*
X-20373Y202906D01*
X-20280Y202875D01*
X-20188Y202840D01*
X-20097Y202801D01*
X-20008Y202760D01*
X-19921Y202714D01*
X-19836Y202666D01*
X-19752Y202614D01*
X-19671Y202559D01*
X-19591Y202501D01*
X-19514Y202440D01*
X-19440Y202376D01*
X-19368Y202309D01*
X-19298Y202239D01*
X-19231Y202167D01*
X-19167Y202093D01*
X-19106Y202016D01*
X-19048Y201936D01*
X-18993Y201855D01*
X-18941Y201771D01*
X-18893Y201686D01*
X-18847Y201599D01*
X-18806Y201510D01*
X-18767Y201419D01*
X-18732Y201327D01*
X-18701Y201234D01*
X-18673Y201140D01*
X-18648Y201045D01*
X-18628Y200949D01*
X-18611Y200852D01*
X-18598Y200754D01*
X-18589Y200656D01*
X-18583Y200558D01*
X-18581Y200460D01*
X-18581Y197894D01*
X-21147Y207494D02*
X-27819Y207494D01*
X-21147Y207494D02*
X-21048Y207496D01*
X-20948Y207502D01*
X-20849Y207511D01*
X-20751Y207525D01*
X-20653Y207542D01*
X-20555Y207563D01*
X-20459Y207588D01*
X-20364Y207617D01*
X-20269Y207649D01*
X-20177Y207685D01*
X-20085Y207724D01*
X-19995Y207767D01*
X-19907Y207813D01*
X-19821Y207863D01*
X-19737Y207916D01*
X-19655Y207972D01*
X-19575Y208032D01*
X-19498Y208094D01*
X-19423Y208160D01*
X-19350Y208228D01*
X-19281Y208299D01*
X-19214Y208373D01*
X-19150Y208449D01*
X-19089Y208528D01*
X-19031Y208609D01*
X-18976Y208692D01*
X-18925Y208777D01*
X-18877Y208864D01*
X-18832Y208953D01*
X-18791Y209044D01*
X-18753Y209136D01*
X-18719Y209229D01*
X-18689Y209324D01*
X-18662Y209420D01*
X-18639Y209517D01*
X-18620Y209614D01*
X-18605Y209713D01*
X-18593Y209812D01*
X-18585Y209911D01*
X-18581Y210010D01*
X-18581Y210110D01*
X-18585Y210209D01*
X-18593Y210308D01*
X-18605Y210407D01*
X-18620Y210506D01*
X-18639Y210603D01*
X-18662Y210700D01*
X-18689Y210796D01*
X-18719Y210891D01*
X-18753Y210984D01*
X-18791Y211076D01*
X-18832Y211167D01*
X-18877Y211256D01*
X-18925Y211343D01*
X-18976Y211428D01*
X-19031Y211511D01*
X-19089Y211592D01*
X-19150Y211671D01*
X-19214Y211747D01*
X-19281Y211821D01*
X-19350Y211892D01*
X-19423Y211960D01*
X-19498Y212026D01*
X-19575Y212088D01*
X-19655Y212148D01*
X-19737Y212204D01*
X-19821Y212257D01*
X-19907Y212307D01*
X-19995Y212353D01*
X-20085Y212396D01*
X-20177Y212435D01*
X-20269Y212471D01*
X-20364Y212503D01*
X-20459Y212532D01*
X-20555Y212557D01*
X-20653Y212578D01*
X-20751Y212595D01*
X-20849Y212609D01*
X-20948Y212618D01*
X-21048Y212624D01*
X-21147Y212626D01*
X-27819Y212626D01*
X-27819Y217111D02*
X-18581Y217111D01*
X-18581Y221217D01*
X-25766Y224594D02*
X-27819Y227160D01*
X-18581Y227160D01*
X-18581Y224594D02*
X-18581Y229726D01*
D12*
X128965Y184912D02*
X128965Y173228D01*
X128965Y184912D02*
X132210Y184912D01*
X132323Y184910D01*
X132436Y184904D01*
X132549Y184894D01*
X132662Y184880D01*
X132774Y184863D01*
X132885Y184841D01*
X132995Y184816D01*
X133105Y184786D01*
X133213Y184753D01*
X133320Y184716D01*
X133426Y184676D01*
X133530Y184631D01*
X133633Y184583D01*
X133734Y184532D01*
X133833Y184477D01*
X133930Y184419D01*
X134025Y184357D01*
X134118Y184292D01*
X134208Y184224D01*
X134296Y184153D01*
X134382Y184078D01*
X134465Y184001D01*
X134545Y183921D01*
X134622Y183838D01*
X134697Y183752D01*
X134768Y183664D01*
X134836Y183574D01*
X134901Y183481D01*
X134963Y183386D01*
X135021Y183289D01*
X135076Y183190D01*
X135127Y183089D01*
X135175Y182986D01*
X135220Y182882D01*
X135260Y182776D01*
X135297Y182669D01*
X135330Y182561D01*
X135360Y182451D01*
X135385Y182341D01*
X135407Y182230D01*
X135424Y182118D01*
X135438Y182005D01*
X135448Y181892D01*
X135454Y181779D01*
X135456Y181666D01*
X135454Y181553D01*
X135448Y181440D01*
X135438Y181327D01*
X135424Y181214D01*
X135407Y181102D01*
X135385Y180991D01*
X135360Y180881D01*
X135330Y180771D01*
X135297Y180663D01*
X135260Y180556D01*
X135220Y180450D01*
X135175Y180346D01*
X135127Y180243D01*
X135076Y180142D01*
X135021Y180043D01*
X134963Y179946D01*
X134901Y179851D01*
X134836Y179758D01*
X134768Y179668D01*
X134697Y179580D01*
X134622Y179494D01*
X134545Y179411D01*
X134465Y179331D01*
X134382Y179254D01*
X134296Y179179D01*
X134208Y179108D01*
X134118Y179040D01*
X134025Y178975D01*
X133930Y178913D01*
X133833Y178855D01*
X133734Y178800D01*
X133633Y178749D01*
X133530Y178701D01*
X133426Y178656D01*
X133320Y178616D01*
X133213Y178579D01*
X133105Y178546D01*
X132995Y178516D01*
X132885Y178491D01*
X132774Y178469D01*
X132662Y178452D01*
X132549Y178438D01*
X132436Y178428D01*
X132323Y178422D01*
X132210Y178420D01*
X132210Y178421D02*
X128965Y178421D01*
X132859Y178421D02*
X135456Y173228D01*
X140321Y173228D02*
X143566Y173228D01*
X143679Y173230D01*
X143792Y173236D01*
X143905Y173246D01*
X144018Y173260D01*
X144130Y173277D01*
X144241Y173299D01*
X144351Y173324D01*
X144461Y173354D01*
X144569Y173387D01*
X144676Y173424D01*
X144782Y173464D01*
X144886Y173509D01*
X144989Y173557D01*
X145090Y173608D01*
X145189Y173663D01*
X145286Y173721D01*
X145381Y173783D01*
X145474Y173848D01*
X145564Y173916D01*
X145652Y173987D01*
X145738Y174062D01*
X145821Y174139D01*
X145901Y174219D01*
X145978Y174302D01*
X146053Y174388D01*
X146124Y174476D01*
X146192Y174566D01*
X146257Y174659D01*
X146319Y174754D01*
X146377Y174851D01*
X146432Y174950D01*
X146483Y175051D01*
X146531Y175154D01*
X146576Y175258D01*
X146616Y175364D01*
X146653Y175471D01*
X146686Y175579D01*
X146716Y175689D01*
X146741Y175799D01*
X146763Y175910D01*
X146780Y176022D01*
X146794Y176135D01*
X146804Y176248D01*
X146810Y176361D01*
X146812Y176474D01*
X146810Y176587D01*
X146804Y176700D01*
X146794Y176813D01*
X146780Y176926D01*
X146763Y177038D01*
X146741Y177149D01*
X146716Y177259D01*
X146686Y177369D01*
X146653Y177477D01*
X146616Y177584D01*
X146576Y177690D01*
X146531Y177794D01*
X146483Y177897D01*
X146432Y177998D01*
X146377Y178097D01*
X146319Y178194D01*
X146257Y178289D01*
X146192Y178382D01*
X146124Y178472D01*
X146053Y178560D01*
X145978Y178646D01*
X145901Y178729D01*
X145821Y178809D01*
X145738Y178886D01*
X145652Y178961D01*
X145564Y179032D01*
X145474Y179100D01*
X145381Y179165D01*
X145286Y179227D01*
X145189Y179285D01*
X145090Y179340D01*
X144989Y179391D01*
X144886Y179439D01*
X144782Y179484D01*
X144676Y179524D01*
X144569Y179561D01*
X144461Y179594D01*
X144351Y179624D01*
X144241Y179649D01*
X144130Y179671D01*
X144018Y179688D01*
X143905Y179702D01*
X143792Y179712D01*
X143679Y179718D01*
X143566Y179720D01*
X144216Y184912D02*
X140321Y184912D01*
X144216Y184912D02*
X144317Y184910D01*
X144417Y184904D01*
X144517Y184894D01*
X144617Y184881D01*
X144716Y184863D01*
X144815Y184842D01*
X144912Y184817D01*
X145009Y184788D01*
X145104Y184755D01*
X145198Y184719D01*
X145290Y184679D01*
X145381Y184636D01*
X145470Y184589D01*
X145557Y184539D01*
X145643Y184485D01*
X145726Y184428D01*
X145806Y184368D01*
X145885Y184305D01*
X145961Y184238D01*
X146034Y184169D01*
X146104Y184097D01*
X146172Y184023D01*
X146237Y183946D01*
X146298Y183866D01*
X146357Y183784D01*
X146412Y183700D01*
X146464Y183614D01*
X146513Y183526D01*
X146558Y183436D01*
X146600Y183344D01*
X146638Y183251D01*
X146672Y183156D01*
X146703Y183061D01*
X146730Y182964D01*
X146753Y182866D01*
X146773Y182767D01*
X146788Y182667D01*
X146800Y182567D01*
X146808Y182467D01*
X146812Y182366D01*
X146812Y182266D01*
X146808Y182165D01*
X146800Y182065D01*
X146788Y181965D01*
X146773Y181865D01*
X146753Y181766D01*
X146730Y181668D01*
X146703Y181571D01*
X146672Y181476D01*
X146638Y181381D01*
X146600Y181288D01*
X146558Y181196D01*
X146513Y181106D01*
X146464Y181018D01*
X146412Y180932D01*
X146357Y180848D01*
X146298Y180766D01*
X146237Y180686D01*
X146172Y180609D01*
X146104Y180535D01*
X146034Y180463D01*
X145961Y180394D01*
X145885Y180327D01*
X145806Y180264D01*
X145726Y180204D01*
X145643Y180147D01*
X145557Y180093D01*
X145470Y180043D01*
X145381Y179996D01*
X145290Y179953D01*
X145198Y179913D01*
X145104Y179877D01*
X145009Y179844D01*
X144912Y179815D01*
X144815Y179790D01*
X144716Y179769D01*
X144617Y179751D01*
X144517Y179738D01*
X144417Y179728D01*
X144317Y179722D01*
X144216Y179720D01*
X144216Y179719D02*
X141619Y179719D01*
X66548Y211328D02*
X66548Y223012D01*
X69794Y223012D01*
X69907Y223010D01*
X70020Y223004D01*
X70133Y222994D01*
X70246Y222980D01*
X70358Y222963D01*
X70469Y222941D01*
X70579Y222916D01*
X70689Y222886D01*
X70797Y222853D01*
X70904Y222816D01*
X71010Y222776D01*
X71114Y222731D01*
X71217Y222683D01*
X71318Y222632D01*
X71417Y222577D01*
X71514Y222519D01*
X71609Y222457D01*
X71702Y222392D01*
X71792Y222324D01*
X71880Y222253D01*
X71966Y222178D01*
X72049Y222101D01*
X72129Y222021D01*
X72206Y221938D01*
X72281Y221852D01*
X72352Y221764D01*
X72420Y221674D01*
X72485Y221581D01*
X72547Y221486D01*
X72605Y221389D01*
X72660Y221290D01*
X72711Y221189D01*
X72759Y221086D01*
X72804Y220982D01*
X72844Y220876D01*
X72881Y220769D01*
X72914Y220661D01*
X72944Y220551D01*
X72969Y220441D01*
X72991Y220330D01*
X73008Y220218D01*
X73022Y220105D01*
X73032Y219992D01*
X73038Y219879D01*
X73040Y219766D01*
X73038Y219653D01*
X73032Y219540D01*
X73022Y219427D01*
X73008Y219314D01*
X72991Y219202D01*
X72969Y219091D01*
X72944Y218981D01*
X72914Y218871D01*
X72881Y218763D01*
X72844Y218656D01*
X72804Y218550D01*
X72759Y218446D01*
X72711Y218343D01*
X72660Y218242D01*
X72605Y218143D01*
X72547Y218046D01*
X72485Y217951D01*
X72420Y217858D01*
X72352Y217768D01*
X72281Y217680D01*
X72206Y217594D01*
X72129Y217511D01*
X72049Y217431D01*
X71966Y217354D01*
X71880Y217279D01*
X71792Y217208D01*
X71702Y217140D01*
X71609Y217075D01*
X71514Y217013D01*
X71417Y216955D01*
X71318Y216900D01*
X71217Y216849D01*
X71114Y216801D01*
X71010Y216756D01*
X70904Y216716D01*
X70797Y216679D01*
X70689Y216646D01*
X70579Y216616D01*
X70469Y216591D01*
X70358Y216569D01*
X70246Y216552D01*
X70133Y216538D01*
X70020Y216528D01*
X69907Y216522D01*
X69794Y216520D01*
X69794Y216521D02*
X66548Y216521D01*
X70443Y216521D02*
X73039Y211328D01*
X77904Y213924D02*
X80501Y223012D01*
X77904Y213924D02*
X84395Y213924D01*
X82448Y216521D02*
X82448Y211328D01*
X278825Y188722D02*
X278825Y177038D01*
X278825Y188722D02*
X282070Y188722D01*
X282183Y188720D01*
X282296Y188714D01*
X282409Y188704D01*
X282522Y188690D01*
X282634Y188673D01*
X282745Y188651D01*
X282855Y188626D01*
X282965Y188596D01*
X283073Y188563D01*
X283180Y188526D01*
X283286Y188486D01*
X283390Y188441D01*
X283493Y188393D01*
X283594Y188342D01*
X283693Y188287D01*
X283790Y188229D01*
X283885Y188167D01*
X283978Y188102D01*
X284068Y188034D01*
X284156Y187963D01*
X284242Y187888D01*
X284325Y187811D01*
X284405Y187731D01*
X284482Y187648D01*
X284557Y187562D01*
X284628Y187474D01*
X284696Y187384D01*
X284761Y187291D01*
X284823Y187196D01*
X284881Y187099D01*
X284936Y187000D01*
X284987Y186899D01*
X285035Y186796D01*
X285080Y186692D01*
X285120Y186586D01*
X285157Y186479D01*
X285190Y186371D01*
X285220Y186261D01*
X285245Y186151D01*
X285267Y186040D01*
X285284Y185928D01*
X285298Y185815D01*
X285308Y185702D01*
X285314Y185589D01*
X285316Y185476D01*
X285314Y185363D01*
X285308Y185250D01*
X285298Y185137D01*
X285284Y185024D01*
X285267Y184912D01*
X285245Y184801D01*
X285220Y184691D01*
X285190Y184581D01*
X285157Y184473D01*
X285120Y184366D01*
X285080Y184260D01*
X285035Y184156D01*
X284987Y184053D01*
X284936Y183952D01*
X284881Y183853D01*
X284823Y183756D01*
X284761Y183661D01*
X284696Y183568D01*
X284628Y183478D01*
X284557Y183390D01*
X284482Y183304D01*
X284405Y183221D01*
X284325Y183141D01*
X284242Y183064D01*
X284156Y182989D01*
X284068Y182918D01*
X283978Y182850D01*
X283885Y182785D01*
X283790Y182723D01*
X283693Y182665D01*
X283594Y182610D01*
X283493Y182559D01*
X283390Y182511D01*
X283286Y182466D01*
X283180Y182426D01*
X283073Y182389D01*
X282965Y182356D01*
X282855Y182326D01*
X282745Y182301D01*
X282634Y182279D01*
X282522Y182262D01*
X282409Y182248D01*
X282296Y182238D01*
X282183Y182232D01*
X282070Y182230D01*
X282070Y182231D02*
X278825Y182231D01*
X282719Y182231D02*
X285316Y177038D01*
X290181Y177038D02*
X294076Y177038D01*
X294175Y177040D01*
X294275Y177046D01*
X294374Y177055D01*
X294472Y177068D01*
X294570Y177085D01*
X294668Y177106D01*
X294764Y177131D01*
X294859Y177159D01*
X294953Y177191D01*
X295046Y177226D01*
X295138Y177265D01*
X295228Y177308D01*
X295316Y177353D01*
X295403Y177403D01*
X295487Y177455D01*
X295570Y177511D01*
X295650Y177569D01*
X295728Y177631D01*
X295803Y177696D01*
X295876Y177764D01*
X295946Y177834D01*
X296014Y177907D01*
X296079Y177982D01*
X296141Y178060D01*
X296199Y178140D01*
X296255Y178223D01*
X296307Y178307D01*
X296357Y178394D01*
X296402Y178482D01*
X296445Y178572D01*
X296484Y178664D01*
X296519Y178757D01*
X296551Y178851D01*
X296579Y178946D01*
X296604Y179042D01*
X296625Y179140D01*
X296642Y179238D01*
X296655Y179336D01*
X296664Y179435D01*
X296670Y179535D01*
X296672Y179634D01*
X296672Y180933D01*
X296670Y181032D01*
X296664Y181132D01*
X296655Y181231D01*
X296642Y181329D01*
X296625Y181427D01*
X296604Y181525D01*
X296579Y181621D01*
X296551Y181716D01*
X296519Y181810D01*
X296484Y181903D01*
X296445Y181995D01*
X296402Y182085D01*
X296357Y182173D01*
X296307Y182260D01*
X296255Y182344D01*
X296199Y182427D01*
X296141Y182507D01*
X296079Y182585D01*
X296014Y182660D01*
X295946Y182733D01*
X295876Y182803D01*
X295803Y182871D01*
X295728Y182936D01*
X295650Y182998D01*
X295570Y183056D01*
X295487Y183112D01*
X295403Y183164D01*
X295316Y183214D01*
X295228Y183259D01*
X295138Y183302D01*
X295046Y183341D01*
X294953Y183376D01*
X294859Y183408D01*
X294764Y183436D01*
X294668Y183461D01*
X294570Y183482D01*
X294472Y183499D01*
X294374Y183512D01*
X294275Y183521D01*
X294175Y183527D01*
X294076Y183529D01*
X290181Y183529D01*
X290181Y188722D01*
X296672Y188722D01*
X285175Y135382D02*
X285175Y123698D01*
X285175Y135382D02*
X288420Y135382D01*
X288533Y135380D01*
X288646Y135374D01*
X288759Y135364D01*
X288872Y135350D01*
X288984Y135333D01*
X289095Y135311D01*
X289205Y135286D01*
X289315Y135256D01*
X289423Y135223D01*
X289530Y135186D01*
X289636Y135146D01*
X289740Y135101D01*
X289843Y135053D01*
X289944Y135002D01*
X290043Y134947D01*
X290140Y134889D01*
X290235Y134827D01*
X290328Y134762D01*
X290418Y134694D01*
X290506Y134623D01*
X290592Y134548D01*
X290675Y134471D01*
X290755Y134391D01*
X290832Y134308D01*
X290907Y134222D01*
X290978Y134134D01*
X291046Y134044D01*
X291111Y133951D01*
X291173Y133856D01*
X291231Y133759D01*
X291286Y133660D01*
X291337Y133559D01*
X291385Y133456D01*
X291430Y133352D01*
X291470Y133246D01*
X291507Y133139D01*
X291540Y133031D01*
X291570Y132921D01*
X291595Y132811D01*
X291617Y132700D01*
X291634Y132588D01*
X291648Y132475D01*
X291658Y132362D01*
X291664Y132249D01*
X291666Y132136D01*
X291664Y132023D01*
X291658Y131910D01*
X291648Y131797D01*
X291634Y131684D01*
X291617Y131572D01*
X291595Y131461D01*
X291570Y131351D01*
X291540Y131241D01*
X291507Y131133D01*
X291470Y131026D01*
X291430Y130920D01*
X291385Y130816D01*
X291337Y130713D01*
X291286Y130612D01*
X291231Y130513D01*
X291173Y130416D01*
X291111Y130321D01*
X291046Y130228D01*
X290978Y130138D01*
X290907Y130050D01*
X290832Y129964D01*
X290755Y129881D01*
X290675Y129801D01*
X290592Y129724D01*
X290506Y129649D01*
X290418Y129578D01*
X290328Y129510D01*
X290235Y129445D01*
X290140Y129383D01*
X290043Y129325D01*
X289944Y129270D01*
X289843Y129219D01*
X289740Y129171D01*
X289636Y129126D01*
X289530Y129086D01*
X289423Y129049D01*
X289315Y129016D01*
X289205Y128986D01*
X289095Y128961D01*
X288984Y128939D01*
X288872Y128922D01*
X288759Y128908D01*
X288646Y128898D01*
X288533Y128892D01*
X288420Y128890D01*
X288420Y128891D02*
X285175Y128891D01*
X289069Y128891D02*
X291666Y123698D01*
X296531Y130189D02*
X300426Y130189D01*
X300525Y130187D01*
X300625Y130181D01*
X300724Y130172D01*
X300822Y130159D01*
X300920Y130142D01*
X301018Y130121D01*
X301114Y130096D01*
X301209Y130068D01*
X301303Y130036D01*
X301396Y130001D01*
X301488Y129962D01*
X301578Y129919D01*
X301666Y129874D01*
X301753Y129824D01*
X301837Y129772D01*
X301920Y129716D01*
X302000Y129658D01*
X302078Y129596D01*
X302153Y129531D01*
X302226Y129463D01*
X302296Y129393D01*
X302364Y129320D01*
X302429Y129245D01*
X302491Y129167D01*
X302549Y129087D01*
X302605Y129004D01*
X302657Y128920D01*
X302707Y128833D01*
X302752Y128745D01*
X302795Y128655D01*
X302834Y128563D01*
X302869Y128470D01*
X302901Y128376D01*
X302929Y128281D01*
X302954Y128185D01*
X302975Y128087D01*
X302992Y127989D01*
X303005Y127891D01*
X303014Y127792D01*
X303020Y127692D01*
X303022Y127593D01*
X303022Y126944D01*
X303020Y126831D01*
X303014Y126718D01*
X303004Y126605D01*
X302990Y126492D01*
X302973Y126380D01*
X302951Y126269D01*
X302926Y126159D01*
X302896Y126049D01*
X302863Y125941D01*
X302826Y125834D01*
X302786Y125728D01*
X302741Y125624D01*
X302693Y125521D01*
X302642Y125420D01*
X302587Y125321D01*
X302529Y125224D01*
X302467Y125129D01*
X302402Y125036D01*
X302334Y124946D01*
X302263Y124858D01*
X302188Y124772D01*
X302111Y124689D01*
X302031Y124609D01*
X301948Y124532D01*
X301862Y124457D01*
X301774Y124386D01*
X301684Y124318D01*
X301591Y124253D01*
X301496Y124191D01*
X301399Y124133D01*
X301300Y124078D01*
X301199Y124027D01*
X301096Y123979D01*
X300992Y123934D01*
X300886Y123894D01*
X300779Y123857D01*
X300671Y123824D01*
X300561Y123794D01*
X300451Y123769D01*
X300340Y123747D01*
X300228Y123730D01*
X300115Y123716D01*
X300002Y123706D01*
X299889Y123700D01*
X299776Y123698D01*
X299663Y123700D01*
X299550Y123706D01*
X299437Y123716D01*
X299324Y123730D01*
X299212Y123747D01*
X299101Y123769D01*
X298991Y123794D01*
X298881Y123824D01*
X298773Y123857D01*
X298666Y123894D01*
X298560Y123934D01*
X298456Y123979D01*
X298353Y124027D01*
X298252Y124078D01*
X298153Y124133D01*
X298056Y124191D01*
X297961Y124253D01*
X297868Y124318D01*
X297778Y124386D01*
X297690Y124457D01*
X297604Y124532D01*
X297521Y124609D01*
X297441Y124689D01*
X297364Y124772D01*
X297289Y124858D01*
X297218Y124946D01*
X297150Y125036D01*
X297085Y125129D01*
X297023Y125224D01*
X296965Y125321D01*
X296910Y125420D01*
X296859Y125521D01*
X296811Y125624D01*
X296766Y125728D01*
X296726Y125834D01*
X296689Y125941D01*
X296656Y126049D01*
X296626Y126159D01*
X296601Y126269D01*
X296579Y126380D01*
X296562Y126492D01*
X296548Y126605D01*
X296538Y126718D01*
X296532Y126831D01*
X296530Y126944D01*
X296531Y126944D02*
X296531Y130189D01*
X296533Y130332D01*
X296539Y130475D01*
X296549Y130618D01*
X296563Y130760D01*
X296580Y130902D01*
X296602Y131044D01*
X296627Y131185D01*
X296657Y131325D01*
X296690Y131464D01*
X296727Y131602D01*
X296768Y131739D01*
X296812Y131875D01*
X296861Y132010D01*
X296913Y132143D01*
X296968Y132275D01*
X297028Y132405D01*
X297091Y132534D01*
X297157Y132661D01*
X297227Y132785D01*
X297300Y132908D01*
X297377Y133029D01*
X297457Y133148D01*
X297540Y133264D01*
X297626Y133379D01*
X297715Y133490D01*
X297808Y133600D01*
X297903Y133706D01*
X298002Y133810D01*
X298103Y133911D01*
X298207Y134010D01*
X298313Y134105D01*
X298423Y134198D01*
X298534Y134287D01*
X298649Y134373D01*
X298765Y134456D01*
X298884Y134536D01*
X299005Y134613D01*
X299127Y134686D01*
X299252Y134756D01*
X299379Y134822D01*
X299508Y134885D01*
X299638Y134945D01*
X299770Y135000D01*
X299903Y135052D01*
X300038Y135101D01*
X300174Y135145D01*
X300311Y135186D01*
X300449Y135223D01*
X300588Y135256D01*
X300728Y135286D01*
X300869Y135311D01*
X301011Y135333D01*
X301153Y135350D01*
X301295Y135364D01*
X301438Y135374D01*
X301581Y135380D01*
X301724Y135382D01*
D13*
X269240Y74930D02*
X267970Y45720D01*
X265430Y43180D01*
X171450Y43180D01*
X168910Y45720D01*
X167640Y74930D01*
X170942Y49276D02*
X170944Y49376D01*
X170950Y49477D01*
X170960Y49576D01*
X170974Y49676D01*
X170991Y49775D01*
X171013Y49873D01*
X171039Y49970D01*
X171068Y50066D01*
X171101Y50160D01*
X171138Y50254D01*
X171178Y50346D01*
X171222Y50436D01*
X171270Y50524D01*
X171321Y50611D01*
X171375Y50695D01*
X171433Y50777D01*
X171494Y50857D01*
X171558Y50934D01*
X171625Y51009D01*
X171695Y51081D01*
X171768Y51150D01*
X171843Y51216D01*
X171921Y51280D01*
X172001Y51340D01*
X172084Y51397D01*
X172169Y51450D01*
X172256Y51500D01*
X172345Y51547D01*
X172435Y51590D01*
X172527Y51630D01*
X172621Y51666D01*
X172716Y51698D01*
X172812Y51726D01*
X172910Y51751D01*
X173008Y51771D01*
X173107Y51788D01*
X173207Y51801D01*
X173306Y51810D01*
X173407Y51815D01*
X173507Y51816D01*
X173607Y51813D01*
X173708Y51806D01*
X173807Y51795D01*
X173907Y51780D01*
X174005Y51762D01*
X174103Y51739D01*
X174200Y51712D01*
X174295Y51682D01*
X174390Y51648D01*
X174483Y51610D01*
X174574Y51569D01*
X174664Y51524D01*
X174752Y51476D01*
X174838Y51424D01*
X174922Y51369D01*
X175003Y51310D01*
X175082Y51248D01*
X175159Y51184D01*
X175233Y51116D01*
X175304Y51045D01*
X175373Y50972D01*
X175438Y50896D01*
X175501Y50817D01*
X175560Y50736D01*
X175616Y50653D01*
X175669Y50568D01*
X175718Y50480D01*
X175764Y50391D01*
X175806Y50300D01*
X175845Y50207D01*
X175880Y50113D01*
X175911Y50018D01*
X175939Y49921D01*
X175962Y49824D01*
X175982Y49725D01*
X175998Y49626D01*
X176010Y49527D01*
X176018Y49426D01*
X176022Y49326D01*
X176022Y49226D01*
X176018Y49126D01*
X176010Y49025D01*
X175998Y48926D01*
X175982Y48827D01*
X175962Y48728D01*
X175939Y48631D01*
X175911Y48534D01*
X175880Y48439D01*
X175845Y48345D01*
X175806Y48252D01*
X175764Y48161D01*
X175718Y48072D01*
X175669Y47984D01*
X175616Y47899D01*
X175560Y47816D01*
X175501Y47735D01*
X175438Y47656D01*
X175373Y47580D01*
X175304Y47507D01*
X175233Y47436D01*
X175159Y47368D01*
X175082Y47304D01*
X175003Y47242D01*
X174922Y47183D01*
X174838Y47128D01*
X174752Y47076D01*
X174664Y47028D01*
X174574Y46983D01*
X174483Y46942D01*
X174390Y46904D01*
X174295Y46870D01*
X174200Y46840D01*
X174103Y46813D01*
X174005Y46790D01*
X173907Y46772D01*
X173807Y46757D01*
X173708Y46746D01*
X173607Y46739D01*
X173507Y46736D01*
X173407Y46737D01*
X173306Y46742D01*
X173207Y46751D01*
X173107Y46764D01*
X173008Y46781D01*
X172910Y46801D01*
X172812Y46826D01*
X172716Y46854D01*
X172621Y46886D01*
X172527Y46922D01*
X172435Y46962D01*
X172345Y47005D01*
X172256Y47052D01*
X172169Y47102D01*
X172084Y47155D01*
X172001Y47212D01*
X171921Y47272D01*
X171843Y47336D01*
X171768Y47402D01*
X171695Y47471D01*
X171625Y47543D01*
X171558Y47618D01*
X171494Y47695D01*
X171433Y47775D01*
X171375Y47857D01*
X171321Y47941D01*
X171270Y48028D01*
X171222Y48116D01*
X171178Y48206D01*
X171138Y48298D01*
X171101Y48392D01*
X171068Y48486D01*
X171039Y48582D01*
X171013Y48679D01*
X170991Y48777D01*
X170974Y48876D01*
X170960Y48976D01*
X170950Y49075D01*
X170944Y49176D01*
X170942Y49276D01*
X171450Y37973D02*
X171450Y26543D01*
X168275Y37973D02*
X174625Y37973D01*
X178943Y35433D02*
X182118Y37973D01*
X182118Y26543D01*
X178943Y26543D02*
X185293Y26543D01*
D14*
X218440Y82550D03*
D15*
X174625Y76200D03*
D16*
X205740Y76200D03*
X231140Y76200D03*
D15*
X262255Y76200D03*
D12*
X195072Y163774D02*
X183388Y163774D01*
X183388Y167019D02*
X183388Y160528D01*
X183388Y174766D02*
X183390Y174873D01*
X183396Y174979D01*
X183406Y175085D01*
X183419Y175191D01*
X183437Y175297D01*
X183458Y175401D01*
X183483Y175505D01*
X183512Y175608D01*
X183544Y175709D01*
X183581Y175809D01*
X183621Y175908D01*
X183664Y176006D01*
X183711Y176102D01*
X183762Y176196D01*
X183816Y176288D01*
X183873Y176378D01*
X183933Y176466D01*
X183997Y176551D01*
X184064Y176634D01*
X184134Y176715D01*
X184206Y176793D01*
X184282Y176869D01*
X184360Y176941D01*
X184441Y177011D01*
X184524Y177078D01*
X184609Y177142D01*
X184697Y177202D01*
X184787Y177259D01*
X184879Y177313D01*
X184973Y177364D01*
X185069Y177411D01*
X185167Y177454D01*
X185266Y177494D01*
X185366Y177531D01*
X185467Y177563D01*
X185570Y177592D01*
X185674Y177617D01*
X185778Y177638D01*
X185884Y177656D01*
X185990Y177669D01*
X186096Y177679D01*
X186202Y177685D01*
X186309Y177687D01*
X183388Y174766D02*
X183390Y174645D01*
X183396Y174524D01*
X183406Y174404D01*
X183419Y174283D01*
X183437Y174164D01*
X183458Y174044D01*
X183483Y173926D01*
X183512Y173809D01*
X183545Y173692D01*
X183581Y173577D01*
X183622Y173463D01*
X183665Y173350D01*
X183713Y173238D01*
X183764Y173129D01*
X183819Y173021D01*
X183877Y172914D01*
X183938Y172810D01*
X184003Y172708D01*
X184071Y172608D01*
X184142Y172510D01*
X184216Y172414D01*
X184293Y172321D01*
X184374Y172231D01*
X184457Y172143D01*
X184543Y172058D01*
X184632Y171975D01*
X184723Y171896D01*
X184817Y171819D01*
X184913Y171746D01*
X185011Y171676D01*
X185112Y171609D01*
X185215Y171545D01*
X185320Y171485D01*
X185427Y171427D01*
X185535Y171374D01*
X185645Y171324D01*
X185757Y171278D01*
X185870Y171235D01*
X185985Y171196D01*
X188581Y176713D02*
X188503Y176792D01*
X188423Y176868D01*
X188340Y176941D01*
X188254Y177011D01*
X188167Y177078D01*
X188076Y177142D01*
X187984Y177202D01*
X187890Y177260D01*
X187793Y177314D01*
X187695Y177364D01*
X187595Y177411D01*
X187494Y177455D01*
X187391Y177495D01*
X187286Y177531D01*
X187181Y177563D01*
X187074Y177592D01*
X186967Y177617D01*
X186858Y177639D01*
X186749Y177656D01*
X186640Y177670D01*
X186530Y177679D01*
X186419Y177685D01*
X186309Y177687D01*
X188581Y176713D02*
X195072Y171196D01*
X195072Y177687D01*
X50292Y209559D02*
X50292Y212156D01*
X50292Y209559D02*
X50290Y209460D01*
X50284Y209360D01*
X50275Y209261D01*
X50262Y209163D01*
X50245Y209065D01*
X50224Y208967D01*
X50199Y208871D01*
X50171Y208776D01*
X50139Y208682D01*
X50104Y208589D01*
X50065Y208497D01*
X50022Y208407D01*
X49977Y208319D01*
X49927Y208232D01*
X49875Y208148D01*
X49819Y208065D01*
X49761Y207985D01*
X49699Y207907D01*
X49634Y207832D01*
X49566Y207759D01*
X49496Y207689D01*
X49423Y207621D01*
X49348Y207556D01*
X49270Y207494D01*
X49190Y207436D01*
X49107Y207380D01*
X49023Y207328D01*
X48936Y207278D01*
X48848Y207233D01*
X48758Y207190D01*
X48666Y207151D01*
X48573Y207116D01*
X48479Y207084D01*
X48384Y207056D01*
X48288Y207031D01*
X48190Y207010D01*
X48092Y206993D01*
X47994Y206980D01*
X47895Y206971D01*
X47795Y206965D01*
X47696Y206963D01*
X41204Y206963D01*
X41204Y206962D02*
X41105Y206964D01*
X41005Y206970D01*
X40906Y206979D01*
X40808Y206992D01*
X40710Y207010D01*
X40612Y207030D01*
X40516Y207055D01*
X40420Y207083D01*
X40326Y207115D01*
X40233Y207150D01*
X40142Y207189D01*
X40052Y207232D01*
X39963Y207277D01*
X39877Y207327D01*
X39792Y207379D01*
X39710Y207435D01*
X39630Y207494D01*
X39552Y207555D01*
X39476Y207620D01*
X39403Y207688D01*
X39333Y207758D01*
X39265Y207831D01*
X39200Y207907D01*
X39139Y207985D01*
X39080Y208065D01*
X39024Y208147D01*
X38972Y208232D01*
X38923Y208318D01*
X38877Y208407D01*
X38834Y208497D01*
X38795Y208588D01*
X38760Y208681D01*
X38728Y208775D01*
X38700Y208871D01*
X38675Y208967D01*
X38655Y209065D01*
X38637Y209163D01*
X38624Y209261D01*
X38615Y209360D01*
X38609Y209459D01*
X38607Y209559D01*
X38608Y209559D02*
X38608Y212156D01*
X41204Y216521D02*
X38608Y219766D01*
X50292Y219766D01*
X50292Y216521D02*
X50292Y223012D01*
X12192Y150481D02*
X12192Y147884D01*
X12190Y147785D01*
X12184Y147685D01*
X12175Y147586D01*
X12162Y147488D01*
X12145Y147390D01*
X12124Y147292D01*
X12099Y147196D01*
X12071Y147101D01*
X12039Y147007D01*
X12004Y146914D01*
X11965Y146822D01*
X11922Y146732D01*
X11877Y146644D01*
X11827Y146557D01*
X11775Y146473D01*
X11719Y146390D01*
X11661Y146310D01*
X11599Y146232D01*
X11534Y146157D01*
X11466Y146084D01*
X11396Y146014D01*
X11323Y145946D01*
X11248Y145881D01*
X11170Y145819D01*
X11090Y145761D01*
X11007Y145705D01*
X10923Y145653D01*
X10836Y145603D01*
X10748Y145558D01*
X10658Y145515D01*
X10566Y145476D01*
X10473Y145441D01*
X10379Y145409D01*
X10284Y145381D01*
X10188Y145356D01*
X10090Y145335D01*
X9992Y145318D01*
X9894Y145305D01*
X9795Y145296D01*
X9695Y145290D01*
X9596Y145288D01*
X3104Y145288D01*
X3005Y145290D01*
X2905Y145296D01*
X2806Y145305D01*
X2708Y145318D01*
X2610Y145336D01*
X2512Y145356D01*
X2416Y145381D01*
X2320Y145409D01*
X2226Y145441D01*
X2133Y145476D01*
X2042Y145515D01*
X1952Y145558D01*
X1863Y145603D01*
X1777Y145653D01*
X1692Y145705D01*
X1610Y145761D01*
X1530Y145820D01*
X1452Y145881D01*
X1376Y145946D01*
X1303Y146014D01*
X1233Y146084D01*
X1165Y146157D01*
X1100Y146233D01*
X1039Y146311D01*
X980Y146391D01*
X924Y146473D01*
X872Y146558D01*
X823Y146644D01*
X777Y146733D01*
X734Y146823D01*
X695Y146914D01*
X660Y147007D01*
X628Y147101D01*
X600Y147197D01*
X575Y147293D01*
X555Y147391D01*
X537Y147489D01*
X524Y147587D01*
X515Y147686D01*
X509Y147785D01*
X507Y147885D01*
X508Y147884D02*
X508Y150481D01*
X508Y158416D02*
X510Y158523D01*
X516Y158629D01*
X526Y158735D01*
X539Y158841D01*
X557Y158947D01*
X578Y159051D01*
X603Y159155D01*
X632Y159258D01*
X664Y159359D01*
X701Y159459D01*
X741Y159558D01*
X784Y159656D01*
X831Y159752D01*
X882Y159846D01*
X936Y159938D01*
X993Y160028D01*
X1053Y160116D01*
X1117Y160201D01*
X1184Y160284D01*
X1254Y160365D01*
X1326Y160443D01*
X1402Y160519D01*
X1480Y160591D01*
X1561Y160661D01*
X1644Y160728D01*
X1729Y160792D01*
X1817Y160852D01*
X1907Y160909D01*
X1999Y160963D01*
X2093Y161014D01*
X2189Y161061D01*
X2287Y161104D01*
X2386Y161144D01*
X2486Y161181D01*
X2587Y161213D01*
X2690Y161242D01*
X2794Y161267D01*
X2898Y161288D01*
X3004Y161306D01*
X3110Y161319D01*
X3216Y161329D01*
X3322Y161335D01*
X3429Y161337D01*
X508Y158416D02*
X510Y158295D01*
X516Y158174D01*
X526Y158054D01*
X539Y157933D01*
X557Y157814D01*
X578Y157694D01*
X603Y157576D01*
X632Y157459D01*
X665Y157342D01*
X701Y157227D01*
X742Y157113D01*
X785Y157000D01*
X833Y156888D01*
X884Y156779D01*
X939Y156671D01*
X997Y156564D01*
X1058Y156460D01*
X1123Y156358D01*
X1191Y156258D01*
X1262Y156160D01*
X1336Y156064D01*
X1413Y155971D01*
X1494Y155881D01*
X1577Y155793D01*
X1663Y155708D01*
X1752Y155625D01*
X1843Y155546D01*
X1937Y155469D01*
X2033Y155396D01*
X2131Y155326D01*
X2232Y155259D01*
X2335Y155195D01*
X2440Y155135D01*
X2547Y155077D01*
X2655Y155024D01*
X2765Y154974D01*
X2877Y154928D01*
X2990Y154885D01*
X3105Y154846D01*
X5701Y160363D02*
X5623Y160442D01*
X5543Y160518D01*
X5460Y160591D01*
X5374Y160661D01*
X5287Y160728D01*
X5196Y160792D01*
X5104Y160852D01*
X5010Y160910D01*
X4913Y160964D01*
X4815Y161014D01*
X4715Y161061D01*
X4614Y161105D01*
X4511Y161145D01*
X4406Y161181D01*
X4301Y161213D01*
X4194Y161242D01*
X4087Y161267D01*
X3978Y161289D01*
X3869Y161306D01*
X3760Y161320D01*
X3650Y161329D01*
X3539Y161335D01*
X3429Y161337D01*
X5701Y160364D02*
X12192Y154846D01*
X12192Y161337D01*
X439000Y12780D02*
X439124Y12647D01*
X439252Y12517D01*
X439382Y12390D01*
X439516Y12266D01*
X439652Y12145D01*
X439792Y12028D01*
X439934Y11915D01*
X440079Y11805D01*
X440227Y11698D01*
X440377Y11595D01*
X440530Y11496D01*
X440685Y11401D01*
X440842Y11309D01*
X441002Y11222D01*
X441164Y11138D01*
X441327Y11058D01*
X441493Y10982D01*
X441660Y10911D01*
X441830Y10843D01*
X442000Y10780D01*
X442172Y10721D01*
X442346Y10666D01*
X442521Y10615D01*
X442697Y10569D01*
X442874Y10527D01*
X443052Y10489D01*
X443232Y10456D01*
X443411Y10427D01*
X443592Y10403D01*
X443773Y10383D01*
X443954Y10367D01*
X444136Y10356D01*
X444318Y10349D01*
X444500Y10347D01*
X444682Y10349D01*
X444864Y10356D01*
X445046Y10367D01*
X445227Y10383D01*
X445408Y10403D01*
X445589Y10427D01*
X445768Y10456D01*
X445948Y10489D01*
X446126Y10527D01*
X446303Y10569D01*
X446479Y10615D01*
X446654Y10666D01*
X446828Y10721D01*
X447000Y10780D01*
X447170Y10843D01*
X447340Y10911D01*
X447507Y10982D01*
X447673Y11058D01*
X447836Y11138D01*
X447998Y11222D01*
X448158Y11309D01*
X448315Y11401D01*
X448470Y11496D01*
X448623Y11595D01*
X448773Y11698D01*
X448921Y11805D01*
X449066Y11915D01*
X449208Y12028D01*
X449348Y12145D01*
X449484Y12266D01*
X449618Y12390D01*
X449748Y12517D01*
X449876Y12647D01*
X450000Y12780D01*
X450000Y22780D02*
X449876Y22913D01*
X449748Y23043D01*
X449618Y23170D01*
X449484Y23294D01*
X449348Y23415D01*
X449208Y23532D01*
X449066Y23645D01*
X448921Y23755D01*
X448773Y23862D01*
X448623Y23965D01*
X448470Y24064D01*
X448315Y24159D01*
X448158Y24251D01*
X447998Y24338D01*
X447836Y24422D01*
X447673Y24502D01*
X447507Y24578D01*
X447340Y24649D01*
X447170Y24717D01*
X447000Y24780D01*
X446828Y24839D01*
X446654Y24894D01*
X446479Y24945D01*
X446303Y24991D01*
X446126Y25033D01*
X445948Y25071D01*
X445768Y25104D01*
X445589Y25133D01*
X445408Y25157D01*
X445227Y25177D01*
X445046Y25193D01*
X444864Y25204D01*
X444682Y25211D01*
X444500Y25213D01*
X444318Y25211D01*
X444136Y25204D01*
X443954Y25193D01*
X443773Y25177D01*
X443592Y25157D01*
X443411Y25133D01*
X443232Y25104D01*
X443052Y25071D01*
X442874Y25033D01*
X442697Y24991D01*
X442521Y24945D01*
X442346Y24894D01*
X442172Y24839D01*
X442000Y24780D01*
X441830Y24717D01*
X441660Y24649D01*
X441493Y24578D01*
X441327Y24502D01*
X441164Y24422D01*
X441002Y24338D01*
X440842Y24251D01*
X440685Y24159D01*
X440530Y24064D01*
X440377Y23965D01*
X440227Y23862D01*
X440079Y23755D01*
X439934Y23645D01*
X439792Y23532D01*
X439652Y23415D01*
X439516Y23294D01*
X439382Y23170D01*
X439252Y23043D01*
X439124Y22913D01*
X439000Y22780D01*
D17*
X444500Y17780D03*
D18*
X449750Y12030D03*
D12*
X438799Y39751D02*
X438797Y39858D01*
X438791Y39964D01*
X438781Y40070D01*
X438768Y40176D01*
X438750Y40282D01*
X438729Y40386D01*
X438704Y40490D01*
X438675Y40593D01*
X438643Y40694D01*
X438606Y40794D01*
X438566Y40893D01*
X438523Y40991D01*
X438476Y41087D01*
X438425Y41181D01*
X438371Y41273D01*
X438314Y41363D01*
X438254Y41451D01*
X438190Y41536D01*
X438123Y41619D01*
X438053Y41700D01*
X437981Y41778D01*
X437905Y41854D01*
X437827Y41926D01*
X437746Y41996D01*
X437663Y42063D01*
X437578Y42127D01*
X437490Y42187D01*
X437400Y42244D01*
X437308Y42298D01*
X437214Y42349D01*
X437118Y42396D01*
X437020Y42439D01*
X436921Y42479D01*
X436821Y42516D01*
X436720Y42548D01*
X436617Y42577D01*
X436513Y42602D01*
X436409Y42623D01*
X436303Y42641D01*
X436197Y42654D01*
X436091Y42664D01*
X435985Y42670D01*
X435878Y42672D01*
X435757Y42670D01*
X435636Y42664D01*
X435516Y42654D01*
X435395Y42641D01*
X435276Y42623D01*
X435156Y42602D01*
X435038Y42577D01*
X434921Y42548D01*
X434804Y42515D01*
X434689Y42479D01*
X434575Y42438D01*
X434462Y42395D01*
X434350Y42347D01*
X434241Y42296D01*
X434133Y42241D01*
X434026Y42183D01*
X433922Y42122D01*
X433820Y42057D01*
X433720Y41989D01*
X433622Y41918D01*
X433526Y41844D01*
X433433Y41767D01*
X433343Y41686D01*
X433255Y41603D01*
X433170Y41517D01*
X433087Y41428D01*
X433008Y41337D01*
X432931Y41243D01*
X432858Y41147D01*
X432788Y41049D01*
X432721Y40948D01*
X432657Y40845D01*
X432597Y40740D01*
X432540Y40633D01*
X432486Y40525D01*
X432436Y40415D01*
X432390Y40303D01*
X432347Y40190D01*
X432308Y40075D01*
X437826Y37479D02*
X437905Y37556D01*
X437981Y37637D01*
X438054Y37720D01*
X438124Y37805D01*
X438191Y37893D01*
X438255Y37983D01*
X438315Y38075D01*
X438372Y38170D01*
X438426Y38266D01*
X438477Y38364D01*
X438524Y38464D01*
X438568Y38566D01*
X438608Y38669D01*
X438644Y38773D01*
X438676Y38879D01*
X438705Y38985D01*
X438730Y39093D01*
X438752Y39201D01*
X438769Y39311D01*
X438783Y39420D01*
X438792Y39530D01*
X438798Y39641D01*
X438800Y39751D01*
X437825Y37479D02*
X432308Y30988D01*
X438799Y30988D01*
X447252Y30988D02*
X447351Y30990D01*
X447451Y30996D01*
X447550Y31005D01*
X447648Y31018D01*
X447746Y31035D01*
X447844Y31056D01*
X447940Y31081D01*
X448035Y31109D01*
X448129Y31141D01*
X448222Y31176D01*
X448314Y31215D01*
X448404Y31258D01*
X448492Y31303D01*
X448579Y31353D01*
X448663Y31405D01*
X448746Y31461D01*
X448826Y31519D01*
X448904Y31581D01*
X448979Y31646D01*
X449052Y31714D01*
X449122Y31784D01*
X449190Y31857D01*
X449255Y31932D01*
X449317Y32010D01*
X449375Y32090D01*
X449431Y32173D01*
X449483Y32257D01*
X449533Y32344D01*
X449578Y32432D01*
X449621Y32522D01*
X449660Y32614D01*
X449695Y32707D01*
X449727Y32801D01*
X449755Y32896D01*
X449780Y32992D01*
X449801Y33090D01*
X449818Y33188D01*
X449831Y33286D01*
X449840Y33385D01*
X449846Y33485D01*
X449848Y33584D01*
X447252Y30988D02*
X447108Y30990D01*
X446963Y30996D01*
X446819Y31005D01*
X446676Y31018D01*
X446532Y31035D01*
X446389Y31056D01*
X446247Y31081D01*
X446106Y31109D01*
X445965Y31141D01*
X445825Y31177D01*
X445686Y31216D01*
X445548Y31259D01*
X445412Y31306D01*
X445276Y31356D01*
X445142Y31410D01*
X445010Y31467D01*
X444879Y31528D01*
X444750Y31592D01*
X444622Y31660D01*
X444496Y31730D01*
X444372Y31805D01*
X444251Y31882D01*
X444131Y31963D01*
X444013Y32046D01*
X443898Y32133D01*
X443785Y32223D01*
X443674Y32316D01*
X443566Y32411D01*
X443460Y32510D01*
X443357Y32611D01*
X443682Y40076D02*
X443684Y40175D01*
X443690Y40275D01*
X443699Y40374D01*
X443712Y40472D01*
X443729Y40570D01*
X443750Y40668D01*
X443775Y40764D01*
X443803Y40859D01*
X443835Y40953D01*
X443870Y41046D01*
X443909Y41138D01*
X443952Y41228D01*
X443997Y41316D01*
X444047Y41403D01*
X444099Y41487D01*
X444155Y41570D01*
X444213Y41650D01*
X444275Y41728D01*
X444340Y41803D01*
X444408Y41876D01*
X444478Y41946D01*
X444551Y42014D01*
X444626Y42079D01*
X444704Y42141D01*
X444784Y42199D01*
X444867Y42255D01*
X444951Y42307D01*
X445038Y42357D01*
X445126Y42402D01*
X445216Y42445D01*
X445308Y42484D01*
X445401Y42519D01*
X445495Y42551D01*
X445590Y42579D01*
X445687Y42604D01*
X445784Y42625D01*
X445882Y42642D01*
X445980Y42655D01*
X446079Y42664D01*
X446179Y42670D01*
X446278Y42672D01*
X446414Y42670D01*
X446550Y42664D01*
X446686Y42655D01*
X446822Y42642D01*
X446957Y42624D01*
X447091Y42604D01*
X447225Y42579D01*
X447359Y42551D01*
X447491Y42518D01*
X447622Y42483D01*
X447753Y42443D01*
X447882Y42400D01*
X448010Y42354D01*
X448136Y42303D01*
X448262Y42250D01*
X448385Y42192D01*
X448507Y42132D01*
X448627Y42068D01*
X448746Y42000D01*
X448862Y41930D01*
X448976Y41856D01*
X449089Y41779D01*
X449199Y41698D01*
X444979Y37804D02*
X444893Y37857D01*
X444809Y37914D01*
X444727Y37973D01*
X444647Y38036D01*
X444570Y38102D01*
X444495Y38170D01*
X444423Y38242D01*
X444354Y38316D01*
X444288Y38393D01*
X444225Y38472D01*
X444165Y38554D01*
X444108Y38638D01*
X444054Y38724D01*
X444004Y38812D01*
X443957Y38902D01*
X443913Y38993D01*
X443874Y39087D01*
X443837Y39181D01*
X443805Y39277D01*
X443776Y39375D01*
X443751Y39473D01*
X443730Y39572D01*
X443712Y39672D01*
X443699Y39772D01*
X443689Y39873D01*
X443683Y39975D01*
X443681Y40076D01*
X448550Y35856D02*
X448636Y35803D01*
X448720Y35746D01*
X448802Y35687D01*
X448882Y35624D01*
X448959Y35558D01*
X449034Y35490D01*
X449106Y35418D01*
X449175Y35344D01*
X449241Y35267D01*
X449304Y35188D01*
X449364Y35106D01*
X449421Y35022D01*
X449475Y34936D01*
X449525Y34848D01*
X449572Y34758D01*
X449616Y34667D01*
X449655Y34573D01*
X449692Y34479D01*
X449724Y34383D01*
X449753Y34285D01*
X449778Y34187D01*
X449799Y34088D01*
X449817Y33988D01*
X449830Y33888D01*
X449840Y33787D01*
X449846Y33685D01*
X449848Y33584D01*
X448550Y35856D02*
X444980Y37804D01*
X456889Y42672D02*
X456889Y30988D01*
X453644Y42672D02*
X460135Y42672D01*
X464716Y30988D02*
X469908Y30988D01*
X464716Y30988D02*
X464716Y42672D01*
X469908Y42672D01*
X468610Y37479D02*
X464716Y37479D01*
X474768Y42672D02*
X474768Y30988D01*
X474768Y42672D02*
X478014Y42672D01*
X478127Y42670D01*
X478240Y42664D01*
X478353Y42654D01*
X478466Y42640D01*
X478578Y42623D01*
X478689Y42601D01*
X478799Y42576D01*
X478909Y42546D01*
X479017Y42513D01*
X479124Y42476D01*
X479230Y42436D01*
X479334Y42391D01*
X479437Y42343D01*
X479538Y42292D01*
X479637Y42237D01*
X479734Y42179D01*
X479829Y42117D01*
X479922Y42052D01*
X480012Y41984D01*
X480100Y41913D01*
X480186Y41838D01*
X480269Y41761D01*
X480349Y41681D01*
X480426Y41598D01*
X480501Y41512D01*
X480572Y41424D01*
X480640Y41334D01*
X480705Y41241D01*
X480767Y41146D01*
X480825Y41049D01*
X480880Y40950D01*
X480931Y40849D01*
X480979Y40746D01*
X481024Y40642D01*
X481064Y40536D01*
X481101Y40429D01*
X481134Y40321D01*
X481164Y40211D01*
X481189Y40101D01*
X481211Y39990D01*
X481228Y39878D01*
X481242Y39765D01*
X481252Y39652D01*
X481258Y39539D01*
X481260Y39426D01*
X481258Y39313D01*
X481252Y39200D01*
X481242Y39087D01*
X481228Y38974D01*
X481211Y38862D01*
X481189Y38751D01*
X481164Y38641D01*
X481134Y38531D01*
X481101Y38423D01*
X481064Y38316D01*
X481024Y38210D01*
X480979Y38106D01*
X480931Y38003D01*
X480880Y37902D01*
X480825Y37803D01*
X480767Y37706D01*
X480705Y37611D01*
X480640Y37518D01*
X480572Y37428D01*
X480501Y37340D01*
X480426Y37254D01*
X480349Y37171D01*
X480269Y37091D01*
X480186Y37014D01*
X480100Y36939D01*
X480012Y36868D01*
X479922Y36800D01*
X479829Y36735D01*
X479734Y36673D01*
X479637Y36615D01*
X479538Y36560D01*
X479437Y36509D01*
X479334Y36461D01*
X479230Y36416D01*
X479124Y36376D01*
X479017Y36339D01*
X478909Y36306D01*
X478799Y36276D01*
X478689Y36251D01*
X478578Y36229D01*
X478466Y36212D01*
X478353Y36198D01*
X478240Y36188D01*
X478127Y36182D01*
X478014Y36180D01*
X478014Y36181D02*
X474768Y36181D01*
X485154Y29690D02*
X490347Y29690D01*
X494143Y30988D02*
X498037Y42672D01*
X501932Y30988D01*
X500958Y33909D02*
X495116Y33909D01*
X508785Y30988D02*
X511382Y30988D01*
X508785Y30988D02*
X508686Y30990D01*
X508586Y30996D01*
X508487Y31005D01*
X508389Y31018D01*
X508291Y31035D01*
X508193Y31056D01*
X508097Y31081D01*
X508002Y31109D01*
X507908Y31141D01*
X507815Y31176D01*
X507723Y31215D01*
X507633Y31258D01*
X507545Y31303D01*
X507458Y31353D01*
X507374Y31405D01*
X507291Y31461D01*
X507211Y31519D01*
X507133Y31581D01*
X507058Y31646D01*
X506985Y31714D01*
X506915Y31784D01*
X506847Y31857D01*
X506782Y31932D01*
X506720Y32010D01*
X506662Y32090D01*
X506606Y32173D01*
X506554Y32257D01*
X506504Y32344D01*
X506459Y32432D01*
X506416Y32522D01*
X506377Y32614D01*
X506342Y32707D01*
X506310Y32801D01*
X506282Y32896D01*
X506257Y32992D01*
X506236Y33090D01*
X506219Y33188D01*
X506206Y33286D01*
X506197Y33385D01*
X506191Y33485D01*
X506189Y33584D01*
X506189Y40076D01*
X506191Y40175D01*
X506197Y40275D01*
X506206Y40374D01*
X506219Y40472D01*
X506236Y40570D01*
X506257Y40668D01*
X506282Y40764D01*
X506310Y40859D01*
X506342Y40953D01*
X506377Y41046D01*
X506416Y41138D01*
X506459Y41228D01*
X506504Y41316D01*
X506554Y41403D01*
X506606Y41487D01*
X506662Y41570D01*
X506720Y41650D01*
X506782Y41728D01*
X506847Y41803D01*
X506915Y41876D01*
X506985Y41946D01*
X507058Y42014D01*
X507133Y42079D01*
X507211Y42141D01*
X507291Y42199D01*
X507374Y42255D01*
X507458Y42307D01*
X507545Y42357D01*
X507633Y42402D01*
X507723Y42445D01*
X507815Y42484D01*
X507907Y42519D01*
X508002Y42551D01*
X508097Y42579D01*
X508193Y42604D01*
X508291Y42625D01*
X508389Y42642D01*
X508487Y42655D01*
X508586Y42664D01*
X508686Y42670D01*
X508785Y42672D01*
X511382Y42672D01*
X518230Y42672D02*
X518230Y30988D01*
X514985Y42672D02*
X521476Y42672D01*
X526612Y42672D02*
X526612Y30988D01*
X525314Y30988D02*
X527911Y30988D01*
X527911Y42672D02*
X525314Y42672D01*
X531862Y42672D02*
X535756Y30988D01*
X539651Y42672D01*
X544344Y30988D02*
X549537Y30988D01*
X544344Y30988D02*
X544344Y42672D01*
X549537Y42672D01*
X548239Y37479D02*
X544344Y37479D01*
X503340Y177880D02*
X503216Y177747D01*
X503088Y177617D01*
X502958Y177490D01*
X502824Y177366D01*
X502688Y177245D01*
X502548Y177128D01*
X502406Y177015D01*
X502261Y176905D01*
X502113Y176798D01*
X501963Y176695D01*
X501810Y176596D01*
X501655Y176501D01*
X501498Y176409D01*
X501338Y176322D01*
X501176Y176238D01*
X501013Y176158D01*
X500847Y176082D01*
X500680Y176011D01*
X500510Y175943D01*
X500340Y175880D01*
X500168Y175821D01*
X499994Y175766D01*
X499819Y175715D01*
X499643Y175669D01*
X499466Y175627D01*
X499288Y175589D01*
X499108Y175556D01*
X498929Y175527D01*
X498748Y175503D01*
X498567Y175483D01*
X498386Y175467D01*
X498204Y175456D01*
X498022Y175449D01*
X497840Y175447D01*
X497658Y175449D01*
X497476Y175456D01*
X497294Y175467D01*
X497113Y175483D01*
X496932Y175503D01*
X496751Y175527D01*
X496572Y175556D01*
X496392Y175589D01*
X496214Y175627D01*
X496037Y175669D01*
X495861Y175715D01*
X495686Y175766D01*
X495512Y175821D01*
X495340Y175880D01*
X495170Y175943D01*
X495000Y176011D01*
X494833Y176082D01*
X494667Y176158D01*
X494504Y176238D01*
X494342Y176322D01*
X494182Y176409D01*
X494025Y176501D01*
X493870Y176596D01*
X493717Y176695D01*
X493567Y176798D01*
X493419Y176905D01*
X493274Y177015D01*
X493132Y177128D01*
X492992Y177245D01*
X492856Y177366D01*
X492722Y177490D01*
X492592Y177617D01*
X492464Y177747D01*
X492340Y177880D01*
X492340Y187880D02*
X492464Y188013D01*
X492592Y188143D01*
X492722Y188270D01*
X492856Y188394D01*
X492992Y188515D01*
X493132Y188632D01*
X493274Y188745D01*
X493419Y188855D01*
X493567Y188962D01*
X493717Y189065D01*
X493870Y189164D01*
X494025Y189259D01*
X494182Y189351D01*
X494342Y189438D01*
X494504Y189522D01*
X494667Y189602D01*
X494833Y189678D01*
X495000Y189749D01*
X495170Y189817D01*
X495340Y189880D01*
X495512Y189939D01*
X495686Y189994D01*
X495861Y190045D01*
X496037Y190091D01*
X496214Y190133D01*
X496392Y190171D01*
X496572Y190204D01*
X496751Y190233D01*
X496932Y190257D01*
X497113Y190277D01*
X497294Y190293D01*
X497476Y190304D01*
X497658Y190311D01*
X497840Y190313D01*
X498022Y190311D01*
X498204Y190304D01*
X498386Y190293D01*
X498567Y190277D01*
X498748Y190257D01*
X498929Y190233D01*
X499108Y190204D01*
X499288Y190171D01*
X499466Y190133D01*
X499643Y190091D01*
X499819Y190045D01*
X499994Y189994D01*
X500168Y189939D01*
X500340Y189880D01*
X500510Y189817D01*
X500680Y189749D01*
X500847Y189678D01*
X501013Y189602D01*
X501176Y189522D01*
X501338Y189438D01*
X501498Y189351D01*
X501655Y189259D01*
X501810Y189164D01*
X501963Y189065D01*
X502113Y188962D01*
X502261Y188855D01*
X502406Y188745D01*
X502548Y188632D01*
X502688Y188515D01*
X502824Y188394D01*
X502958Y188270D01*
X503088Y188143D01*
X503216Y188013D01*
X503340Y187880D01*
D17*
X497840Y182880D03*
D18*
X503090Y177130D03*
D12*
X485648Y196088D02*
X485648Y207772D01*
X485648Y196088D02*
X490841Y196088D01*
X496110Y196088D02*
X496110Y207772D01*
X494812Y196088D02*
X497408Y196088D01*
X497408Y207772D02*
X494812Y207772D01*
X502502Y207772D02*
X502502Y196088D01*
X506397Y201281D02*
X502502Y207772D01*
X506397Y201281D02*
X510292Y207772D01*
X510292Y196088D01*
X516684Y196088D02*
X516684Y207772D01*
X515386Y196088D02*
X517982Y196088D01*
X517982Y207772D02*
X515386Y207772D01*
X525066Y207772D02*
X525066Y196088D01*
X521820Y207772D02*
X528312Y207772D01*
X532892Y196088D02*
X538085Y196088D01*
X532892Y196088D02*
X532892Y207772D01*
X538085Y207772D01*
X536787Y202579D02*
X532892Y202579D01*
X542849Y207772D02*
X542849Y196088D01*
X542849Y207772D02*
X546095Y207772D01*
X546208Y207770D01*
X546321Y207764D01*
X546434Y207754D01*
X546547Y207740D01*
X546659Y207723D01*
X546770Y207701D01*
X546880Y207676D01*
X546990Y207646D01*
X547098Y207613D01*
X547205Y207576D01*
X547311Y207536D01*
X547415Y207491D01*
X547518Y207443D01*
X547619Y207392D01*
X547718Y207337D01*
X547815Y207279D01*
X547910Y207217D01*
X548003Y207152D01*
X548093Y207084D01*
X548181Y207013D01*
X548267Y206938D01*
X548350Y206861D01*
X548430Y206781D01*
X548507Y206698D01*
X548582Y206612D01*
X548653Y206524D01*
X548721Y206434D01*
X548786Y206341D01*
X548848Y206246D01*
X548906Y206149D01*
X548961Y206050D01*
X549012Y205949D01*
X549060Y205846D01*
X549105Y205742D01*
X549145Y205636D01*
X549182Y205529D01*
X549215Y205421D01*
X549245Y205311D01*
X549270Y205201D01*
X549292Y205090D01*
X549309Y204978D01*
X549323Y204865D01*
X549333Y204752D01*
X549339Y204639D01*
X549341Y204526D01*
X549339Y204413D01*
X549333Y204300D01*
X549323Y204187D01*
X549309Y204074D01*
X549292Y203962D01*
X549270Y203851D01*
X549245Y203741D01*
X549215Y203631D01*
X549182Y203523D01*
X549145Y203416D01*
X549105Y203310D01*
X549060Y203206D01*
X549012Y203103D01*
X548961Y203002D01*
X548906Y202903D01*
X548848Y202806D01*
X548786Y202711D01*
X548721Y202618D01*
X548653Y202528D01*
X548582Y202440D01*
X548507Y202354D01*
X548430Y202271D01*
X548350Y202191D01*
X548267Y202114D01*
X548181Y202039D01*
X548093Y201968D01*
X548003Y201900D01*
X547910Y201835D01*
X547815Y201773D01*
X547718Y201715D01*
X547619Y201660D01*
X547518Y201609D01*
X547415Y201561D01*
X547311Y201516D01*
X547205Y201476D01*
X547098Y201439D01*
X546990Y201406D01*
X546880Y201376D01*
X546770Y201351D01*
X546659Y201329D01*
X546547Y201312D01*
X546434Y201298D01*
X546321Y201288D01*
X546208Y201282D01*
X546095Y201280D01*
X546095Y201281D02*
X542849Y201281D01*
X546744Y201281D02*
X549340Y196088D01*
X431225Y169672D02*
X431225Y157988D01*
X431225Y169672D02*
X434470Y169672D01*
X434583Y169670D01*
X434696Y169664D01*
X434809Y169654D01*
X434922Y169640D01*
X435034Y169623D01*
X435145Y169601D01*
X435255Y169576D01*
X435365Y169546D01*
X435473Y169513D01*
X435580Y169476D01*
X435686Y169436D01*
X435790Y169391D01*
X435893Y169343D01*
X435994Y169292D01*
X436093Y169237D01*
X436190Y169179D01*
X436285Y169117D01*
X436378Y169052D01*
X436468Y168984D01*
X436556Y168913D01*
X436642Y168838D01*
X436725Y168761D01*
X436805Y168681D01*
X436882Y168598D01*
X436957Y168512D01*
X437028Y168424D01*
X437096Y168334D01*
X437161Y168241D01*
X437223Y168146D01*
X437281Y168049D01*
X437336Y167950D01*
X437387Y167849D01*
X437435Y167746D01*
X437480Y167642D01*
X437520Y167536D01*
X437557Y167429D01*
X437590Y167321D01*
X437620Y167211D01*
X437645Y167101D01*
X437667Y166990D01*
X437684Y166878D01*
X437698Y166765D01*
X437708Y166652D01*
X437714Y166539D01*
X437716Y166426D01*
X437714Y166313D01*
X437708Y166200D01*
X437698Y166087D01*
X437684Y165974D01*
X437667Y165862D01*
X437645Y165751D01*
X437620Y165641D01*
X437590Y165531D01*
X437557Y165423D01*
X437520Y165316D01*
X437480Y165210D01*
X437435Y165106D01*
X437387Y165003D01*
X437336Y164902D01*
X437281Y164803D01*
X437223Y164706D01*
X437161Y164611D01*
X437096Y164518D01*
X437028Y164428D01*
X436957Y164340D01*
X436882Y164254D01*
X436805Y164171D01*
X436725Y164091D01*
X436642Y164014D01*
X436556Y163939D01*
X436468Y163868D01*
X436378Y163800D01*
X436285Y163735D01*
X436190Y163673D01*
X436093Y163615D01*
X435994Y163560D01*
X435893Y163509D01*
X435790Y163461D01*
X435686Y163416D01*
X435580Y163376D01*
X435473Y163339D01*
X435365Y163306D01*
X435255Y163276D01*
X435145Y163251D01*
X435034Y163229D01*
X434922Y163212D01*
X434809Y163198D01*
X434696Y163188D01*
X434583Y163182D01*
X434470Y163180D01*
X434470Y163181D02*
X431225Y163181D01*
X435119Y163181D02*
X437716Y157988D01*
X442581Y168374D02*
X442581Y169672D01*
X449072Y169672D01*
X445826Y157988D01*
X390585Y4572D02*
X390585Y-7112D01*
X390585Y4572D02*
X393830Y4572D01*
X393943Y4570D01*
X394056Y4564D01*
X394169Y4554D01*
X394282Y4540D01*
X394394Y4523D01*
X394505Y4501D01*
X394615Y4476D01*
X394725Y4446D01*
X394833Y4413D01*
X394940Y4376D01*
X395046Y4336D01*
X395150Y4291D01*
X395253Y4243D01*
X395354Y4192D01*
X395453Y4137D01*
X395550Y4079D01*
X395645Y4017D01*
X395738Y3952D01*
X395828Y3884D01*
X395916Y3813D01*
X396002Y3738D01*
X396085Y3661D01*
X396165Y3581D01*
X396242Y3498D01*
X396317Y3412D01*
X396388Y3324D01*
X396456Y3234D01*
X396521Y3141D01*
X396583Y3046D01*
X396641Y2949D01*
X396696Y2850D01*
X396747Y2749D01*
X396795Y2646D01*
X396840Y2542D01*
X396880Y2436D01*
X396917Y2329D01*
X396950Y2221D01*
X396980Y2111D01*
X397005Y2001D01*
X397027Y1890D01*
X397044Y1778D01*
X397058Y1665D01*
X397068Y1552D01*
X397074Y1439D01*
X397076Y1326D01*
X397074Y1213D01*
X397068Y1100D01*
X397058Y987D01*
X397044Y874D01*
X397027Y762D01*
X397005Y651D01*
X396980Y541D01*
X396950Y431D01*
X396917Y323D01*
X396880Y216D01*
X396840Y110D01*
X396795Y6D01*
X396747Y-97D01*
X396696Y-198D01*
X396641Y-297D01*
X396583Y-394D01*
X396521Y-489D01*
X396456Y-582D01*
X396388Y-672D01*
X396317Y-760D01*
X396242Y-846D01*
X396165Y-929D01*
X396085Y-1009D01*
X396002Y-1086D01*
X395916Y-1161D01*
X395828Y-1232D01*
X395738Y-1300D01*
X395645Y-1365D01*
X395550Y-1427D01*
X395453Y-1485D01*
X395354Y-1540D01*
X395253Y-1591D01*
X395150Y-1639D01*
X395046Y-1684D01*
X394940Y-1724D01*
X394833Y-1761D01*
X394725Y-1794D01*
X394615Y-1824D01*
X394505Y-1849D01*
X394394Y-1871D01*
X394282Y-1888D01*
X394169Y-1902D01*
X394056Y-1912D01*
X393943Y-1918D01*
X393830Y-1920D01*
X393830Y-1919D02*
X390585Y-1919D01*
X394479Y-1919D02*
X397076Y-7112D01*
X401940Y-3866D02*
X401942Y-3753D01*
X401948Y-3640D01*
X401958Y-3527D01*
X401972Y-3414D01*
X401989Y-3302D01*
X402011Y-3191D01*
X402036Y-3081D01*
X402066Y-2971D01*
X402099Y-2863D01*
X402136Y-2756D01*
X402176Y-2650D01*
X402221Y-2546D01*
X402269Y-2443D01*
X402320Y-2342D01*
X402375Y-2243D01*
X402433Y-2146D01*
X402495Y-2051D01*
X402560Y-1958D01*
X402628Y-1868D01*
X402699Y-1780D01*
X402774Y-1694D01*
X402851Y-1611D01*
X402931Y-1531D01*
X403014Y-1454D01*
X403100Y-1379D01*
X403188Y-1308D01*
X403278Y-1240D01*
X403371Y-1175D01*
X403466Y-1113D01*
X403563Y-1055D01*
X403662Y-1000D01*
X403763Y-949D01*
X403866Y-901D01*
X403970Y-856D01*
X404076Y-816D01*
X404183Y-779D01*
X404291Y-746D01*
X404401Y-716D01*
X404511Y-691D01*
X404622Y-669D01*
X404734Y-652D01*
X404847Y-638D01*
X404960Y-628D01*
X405073Y-622D01*
X405186Y-620D01*
X405299Y-622D01*
X405412Y-628D01*
X405525Y-638D01*
X405638Y-652D01*
X405750Y-669D01*
X405861Y-691D01*
X405971Y-716D01*
X406081Y-746D01*
X406189Y-779D01*
X406296Y-816D01*
X406402Y-856D01*
X406506Y-901D01*
X406609Y-949D01*
X406710Y-1000D01*
X406809Y-1055D01*
X406906Y-1113D01*
X407001Y-1175D01*
X407094Y-1240D01*
X407184Y-1308D01*
X407272Y-1379D01*
X407358Y-1454D01*
X407441Y-1531D01*
X407521Y-1611D01*
X407598Y-1694D01*
X407673Y-1780D01*
X407744Y-1868D01*
X407812Y-1958D01*
X407877Y-2051D01*
X407939Y-2146D01*
X407997Y-2243D01*
X408052Y-2342D01*
X408103Y-2443D01*
X408151Y-2546D01*
X408196Y-2650D01*
X408236Y-2756D01*
X408273Y-2863D01*
X408306Y-2971D01*
X408336Y-3081D01*
X408361Y-3191D01*
X408383Y-3302D01*
X408400Y-3414D01*
X408414Y-3527D01*
X408424Y-3640D01*
X408430Y-3753D01*
X408432Y-3866D01*
X408430Y-3979D01*
X408424Y-4092D01*
X408414Y-4205D01*
X408400Y-4318D01*
X408383Y-4430D01*
X408361Y-4541D01*
X408336Y-4651D01*
X408306Y-4761D01*
X408273Y-4869D01*
X408236Y-4976D01*
X408196Y-5082D01*
X408151Y-5186D01*
X408103Y-5289D01*
X408052Y-5390D01*
X407997Y-5489D01*
X407939Y-5586D01*
X407877Y-5681D01*
X407812Y-5774D01*
X407744Y-5864D01*
X407673Y-5952D01*
X407598Y-6038D01*
X407521Y-6121D01*
X407441Y-6201D01*
X407358Y-6278D01*
X407272Y-6353D01*
X407184Y-6424D01*
X407094Y-6492D01*
X407001Y-6557D01*
X406906Y-6619D01*
X406809Y-6677D01*
X406710Y-6732D01*
X406609Y-6783D01*
X406506Y-6831D01*
X406402Y-6876D01*
X406296Y-6916D01*
X406189Y-6953D01*
X406081Y-6986D01*
X405971Y-7016D01*
X405861Y-7041D01*
X405750Y-7063D01*
X405638Y-7080D01*
X405525Y-7094D01*
X405412Y-7104D01*
X405299Y-7110D01*
X405186Y-7112D01*
X405073Y-7110D01*
X404960Y-7104D01*
X404847Y-7094D01*
X404734Y-7080D01*
X404622Y-7063D01*
X404511Y-7041D01*
X404401Y-7016D01*
X404291Y-6986D01*
X404183Y-6953D01*
X404076Y-6916D01*
X403970Y-6876D01*
X403866Y-6831D01*
X403763Y-6783D01*
X403662Y-6732D01*
X403563Y-6677D01*
X403466Y-6619D01*
X403371Y-6557D01*
X403278Y-6492D01*
X403188Y-6424D01*
X403100Y-6353D01*
X403014Y-6278D01*
X402931Y-6201D01*
X402851Y-6121D01*
X402774Y-6038D01*
X402699Y-5952D01*
X402628Y-5864D01*
X402560Y-5774D01*
X402495Y-5681D01*
X402433Y-5586D01*
X402375Y-5489D01*
X402320Y-5390D01*
X402269Y-5289D01*
X402221Y-5186D01*
X402176Y-5082D01*
X402136Y-4976D01*
X402099Y-4869D01*
X402066Y-4761D01*
X402036Y-4651D01*
X402011Y-4541D01*
X401989Y-4430D01*
X401972Y-4318D01*
X401958Y-4205D01*
X401948Y-4092D01*
X401942Y-3979D01*
X401940Y-3866D01*
X402590Y1976D02*
X402592Y2077D01*
X402598Y2177D01*
X402608Y2277D01*
X402621Y2377D01*
X402639Y2476D01*
X402660Y2575D01*
X402685Y2672D01*
X402714Y2769D01*
X402747Y2864D01*
X402783Y2958D01*
X402823Y3050D01*
X402866Y3141D01*
X402913Y3230D01*
X402963Y3317D01*
X403017Y3403D01*
X403074Y3486D01*
X403134Y3566D01*
X403197Y3645D01*
X403264Y3721D01*
X403333Y3794D01*
X403405Y3864D01*
X403479Y3932D01*
X403556Y3997D01*
X403636Y4058D01*
X403718Y4117D01*
X403802Y4172D01*
X403888Y4224D01*
X403976Y4273D01*
X404066Y4318D01*
X404158Y4360D01*
X404251Y4398D01*
X404346Y4432D01*
X404441Y4463D01*
X404538Y4490D01*
X404636Y4513D01*
X404735Y4533D01*
X404835Y4548D01*
X404935Y4560D01*
X405035Y4568D01*
X405136Y4572D01*
X405236Y4572D01*
X405337Y4568D01*
X405437Y4560D01*
X405537Y4548D01*
X405637Y4533D01*
X405736Y4513D01*
X405834Y4490D01*
X405931Y4463D01*
X406026Y4432D01*
X406121Y4398D01*
X406214Y4360D01*
X406306Y4318D01*
X406396Y4273D01*
X406484Y4224D01*
X406570Y4172D01*
X406654Y4117D01*
X406736Y4058D01*
X406816Y3997D01*
X406893Y3932D01*
X406967Y3864D01*
X407039Y3794D01*
X407108Y3721D01*
X407175Y3645D01*
X407238Y3566D01*
X407298Y3486D01*
X407355Y3403D01*
X407409Y3317D01*
X407459Y3230D01*
X407506Y3141D01*
X407549Y3050D01*
X407589Y2958D01*
X407625Y2864D01*
X407658Y2769D01*
X407687Y2672D01*
X407712Y2575D01*
X407733Y2476D01*
X407751Y2377D01*
X407764Y2277D01*
X407774Y2177D01*
X407780Y2077D01*
X407782Y1976D01*
X407780Y1875D01*
X407774Y1775D01*
X407764Y1675D01*
X407751Y1575D01*
X407733Y1476D01*
X407712Y1377D01*
X407687Y1280D01*
X407658Y1183D01*
X407625Y1088D01*
X407589Y994D01*
X407549Y902D01*
X407506Y811D01*
X407459Y722D01*
X407409Y635D01*
X407355Y549D01*
X407298Y466D01*
X407238Y386D01*
X407175Y307D01*
X407108Y231D01*
X407039Y158D01*
X406967Y88D01*
X406893Y20D01*
X406816Y-45D01*
X406736Y-106D01*
X406654Y-165D01*
X406570Y-220D01*
X406484Y-272D01*
X406396Y-321D01*
X406306Y-366D01*
X406214Y-408D01*
X406121Y-446D01*
X406026Y-480D01*
X405931Y-511D01*
X405834Y-538D01*
X405736Y-561D01*
X405637Y-581D01*
X405537Y-596D01*
X405437Y-608D01*
X405337Y-616D01*
X405236Y-620D01*
X405136Y-620D01*
X405035Y-616D01*
X404935Y-608D01*
X404835Y-596D01*
X404735Y-581D01*
X404636Y-561D01*
X404538Y-538D01*
X404441Y-511D01*
X404346Y-480D01*
X404251Y-446D01*
X404158Y-408D01*
X404066Y-366D01*
X403976Y-321D01*
X403888Y-272D01*
X403802Y-220D01*
X403718Y-165D01*
X403636Y-106D01*
X403556Y-45D01*
X403479Y20D01*
X403405Y88D01*
X403333Y158D01*
X403264Y231D01*
X403197Y307D01*
X403134Y386D01*
X403074Y466D01*
X403017Y549D01*
X402963Y635D01*
X402913Y722D01*
X402866Y811D01*
X402823Y902D01*
X402783Y994D01*
X402747Y1088D01*
X402714Y1183D01*
X402685Y1280D01*
X402660Y1377D01*
X402639Y1476D01*
X402621Y1575D01*
X402608Y1675D01*
X402598Y1775D01*
X402592Y1875D01*
X402590Y1976D01*
X441540Y53420D02*
X441664Y53287D01*
X441792Y53157D01*
X441922Y53030D01*
X442056Y52906D01*
X442192Y52785D01*
X442332Y52668D01*
X442474Y52555D01*
X442619Y52445D01*
X442767Y52338D01*
X442917Y52235D01*
X443070Y52136D01*
X443225Y52041D01*
X443382Y51949D01*
X443542Y51862D01*
X443704Y51778D01*
X443867Y51698D01*
X444033Y51622D01*
X444200Y51551D01*
X444370Y51483D01*
X444540Y51420D01*
X444712Y51361D01*
X444886Y51306D01*
X445061Y51255D01*
X445237Y51209D01*
X445414Y51167D01*
X445592Y51129D01*
X445772Y51096D01*
X445951Y51067D01*
X446132Y51043D01*
X446313Y51023D01*
X446494Y51007D01*
X446676Y50996D01*
X446858Y50989D01*
X447040Y50987D01*
X447222Y50989D01*
X447404Y50996D01*
X447586Y51007D01*
X447767Y51023D01*
X447948Y51043D01*
X448129Y51067D01*
X448308Y51096D01*
X448488Y51129D01*
X448666Y51167D01*
X448843Y51209D01*
X449019Y51255D01*
X449194Y51306D01*
X449368Y51361D01*
X449540Y51420D01*
X449710Y51483D01*
X449880Y51551D01*
X450047Y51622D01*
X450213Y51698D01*
X450376Y51778D01*
X450538Y51862D01*
X450698Y51949D01*
X450855Y52041D01*
X451010Y52136D01*
X451163Y52235D01*
X451313Y52338D01*
X451461Y52445D01*
X451606Y52555D01*
X451748Y52668D01*
X451888Y52785D01*
X452024Y52906D01*
X452158Y53030D01*
X452288Y53157D01*
X452416Y53287D01*
X452540Y53420D01*
X452540Y63420D02*
X452416Y63553D01*
X452288Y63683D01*
X452158Y63810D01*
X452024Y63934D01*
X451888Y64055D01*
X451748Y64172D01*
X451606Y64285D01*
X451461Y64395D01*
X451313Y64502D01*
X451163Y64605D01*
X451010Y64704D01*
X450855Y64799D01*
X450698Y64891D01*
X450538Y64978D01*
X450376Y65062D01*
X450213Y65142D01*
X450047Y65218D01*
X449880Y65289D01*
X449710Y65357D01*
X449540Y65420D01*
X449368Y65479D01*
X449194Y65534D01*
X449019Y65585D01*
X448843Y65631D01*
X448666Y65673D01*
X448488Y65711D01*
X448308Y65744D01*
X448129Y65773D01*
X447948Y65797D01*
X447767Y65817D01*
X447586Y65833D01*
X447404Y65844D01*
X447222Y65851D01*
X447040Y65853D01*
X446858Y65851D01*
X446676Y65844D01*
X446494Y65833D01*
X446313Y65817D01*
X446132Y65797D01*
X445951Y65773D01*
X445772Y65744D01*
X445592Y65711D01*
X445414Y65673D01*
X445237Y65631D01*
X445061Y65585D01*
X444886Y65534D01*
X444712Y65479D01*
X444540Y65420D01*
X444370Y65357D01*
X444200Y65289D01*
X444033Y65218D01*
X443867Y65142D01*
X443704Y65062D01*
X443542Y64978D01*
X443382Y64891D01*
X443225Y64799D01*
X443070Y64704D01*
X442917Y64605D01*
X442767Y64502D01*
X442619Y64395D01*
X442474Y64285D01*
X442332Y64172D01*
X442192Y64055D01*
X442056Y63934D01*
X441922Y63810D01*
X441792Y63683D01*
X441664Y63553D01*
X441540Y63420D01*
D17*
X447040Y58420D03*
D18*
X452290Y52670D03*
D12*
X440041Y71628D02*
X437444Y71628D01*
X437345Y71630D01*
X437245Y71636D01*
X437146Y71645D01*
X437048Y71658D01*
X436950Y71675D01*
X436852Y71696D01*
X436756Y71721D01*
X436661Y71749D01*
X436567Y71781D01*
X436474Y71816D01*
X436382Y71855D01*
X436292Y71898D01*
X436204Y71943D01*
X436117Y71993D01*
X436033Y72045D01*
X435950Y72101D01*
X435870Y72159D01*
X435792Y72221D01*
X435717Y72286D01*
X435644Y72354D01*
X435574Y72424D01*
X435506Y72497D01*
X435441Y72572D01*
X435379Y72650D01*
X435321Y72730D01*
X435265Y72813D01*
X435213Y72897D01*
X435163Y72984D01*
X435118Y73072D01*
X435075Y73162D01*
X435036Y73254D01*
X435001Y73347D01*
X434969Y73441D01*
X434941Y73536D01*
X434916Y73632D01*
X434895Y73730D01*
X434878Y73828D01*
X434865Y73926D01*
X434856Y74025D01*
X434850Y74125D01*
X434848Y74224D01*
X434848Y80716D01*
X434850Y80815D01*
X434856Y80915D01*
X434865Y81014D01*
X434878Y81112D01*
X434895Y81210D01*
X434916Y81308D01*
X434941Y81404D01*
X434969Y81499D01*
X435001Y81593D01*
X435036Y81686D01*
X435075Y81778D01*
X435118Y81868D01*
X435163Y81956D01*
X435213Y82043D01*
X435265Y82127D01*
X435321Y82210D01*
X435379Y82290D01*
X435441Y82368D01*
X435506Y82443D01*
X435574Y82516D01*
X435644Y82586D01*
X435717Y82654D01*
X435792Y82719D01*
X435870Y82781D01*
X435950Y82839D01*
X436033Y82895D01*
X436117Y82947D01*
X436204Y82997D01*
X436292Y83042D01*
X436382Y83085D01*
X436474Y83124D01*
X436566Y83159D01*
X436661Y83191D01*
X436756Y83219D01*
X436852Y83244D01*
X436950Y83265D01*
X437048Y83282D01*
X437146Y83295D01*
X437245Y83304D01*
X437345Y83310D01*
X437444Y83312D01*
X440041Y83312D01*
X444406Y80066D02*
X444406Y74874D01*
X444406Y80066D02*
X444408Y80179D01*
X444414Y80292D01*
X444424Y80405D01*
X444438Y80518D01*
X444455Y80630D01*
X444477Y80741D01*
X444502Y80851D01*
X444532Y80961D01*
X444565Y81069D01*
X444602Y81176D01*
X444642Y81282D01*
X444687Y81386D01*
X444735Y81489D01*
X444786Y81590D01*
X444841Y81689D01*
X444899Y81786D01*
X444961Y81881D01*
X445026Y81974D01*
X445094Y82064D01*
X445165Y82152D01*
X445240Y82238D01*
X445317Y82321D01*
X445397Y82401D01*
X445480Y82478D01*
X445566Y82553D01*
X445654Y82624D01*
X445744Y82692D01*
X445837Y82757D01*
X445932Y82819D01*
X446029Y82877D01*
X446128Y82932D01*
X446229Y82983D01*
X446332Y83031D01*
X446436Y83076D01*
X446542Y83116D01*
X446649Y83153D01*
X446757Y83186D01*
X446867Y83216D01*
X446977Y83241D01*
X447088Y83263D01*
X447200Y83280D01*
X447313Y83294D01*
X447426Y83304D01*
X447539Y83310D01*
X447652Y83312D01*
X447765Y83310D01*
X447878Y83304D01*
X447991Y83294D01*
X448104Y83280D01*
X448216Y83263D01*
X448327Y83241D01*
X448437Y83216D01*
X448547Y83186D01*
X448655Y83153D01*
X448762Y83116D01*
X448868Y83076D01*
X448972Y83031D01*
X449075Y82983D01*
X449176Y82932D01*
X449275Y82877D01*
X449372Y82819D01*
X449467Y82757D01*
X449560Y82692D01*
X449650Y82624D01*
X449738Y82553D01*
X449824Y82478D01*
X449907Y82401D01*
X449987Y82321D01*
X450064Y82238D01*
X450139Y82152D01*
X450210Y82064D01*
X450278Y81974D01*
X450343Y81881D01*
X450405Y81786D01*
X450463Y81689D01*
X450518Y81590D01*
X450569Y81489D01*
X450617Y81386D01*
X450662Y81282D01*
X450702Y81176D01*
X450739Y81069D01*
X450772Y80961D01*
X450802Y80851D01*
X450827Y80741D01*
X450849Y80630D01*
X450866Y80518D01*
X450880Y80405D01*
X450890Y80292D01*
X450896Y80179D01*
X450898Y80066D01*
X450897Y80066D02*
X450897Y74874D01*
X450898Y74874D02*
X450896Y74761D01*
X450890Y74648D01*
X450880Y74535D01*
X450866Y74422D01*
X450849Y74310D01*
X450827Y74199D01*
X450802Y74089D01*
X450772Y73979D01*
X450739Y73871D01*
X450702Y73764D01*
X450662Y73658D01*
X450617Y73554D01*
X450569Y73451D01*
X450518Y73350D01*
X450463Y73251D01*
X450405Y73154D01*
X450343Y73059D01*
X450278Y72966D01*
X450210Y72876D01*
X450139Y72788D01*
X450064Y72702D01*
X449987Y72619D01*
X449907Y72539D01*
X449824Y72462D01*
X449738Y72387D01*
X449650Y72316D01*
X449560Y72248D01*
X449467Y72183D01*
X449372Y72121D01*
X449275Y72063D01*
X449176Y72008D01*
X449075Y71957D01*
X448972Y71909D01*
X448868Y71864D01*
X448762Y71824D01*
X448655Y71787D01*
X448547Y71754D01*
X448437Y71724D01*
X448327Y71699D01*
X448216Y71677D01*
X448104Y71660D01*
X447991Y71646D01*
X447878Y71636D01*
X447765Y71630D01*
X447652Y71628D01*
X447539Y71630D01*
X447426Y71636D01*
X447313Y71646D01*
X447200Y71660D01*
X447088Y71677D01*
X446977Y71699D01*
X446867Y71724D01*
X446757Y71754D01*
X446649Y71787D01*
X446542Y71824D01*
X446436Y71864D01*
X446332Y71909D01*
X446229Y71957D01*
X446128Y72008D01*
X446029Y72063D01*
X445932Y72121D01*
X445837Y72183D01*
X445744Y72248D01*
X445654Y72316D01*
X445566Y72387D01*
X445480Y72462D01*
X445397Y72539D01*
X445317Y72619D01*
X445240Y72702D01*
X445165Y72788D01*
X445094Y72876D01*
X445026Y72966D01*
X444961Y73059D01*
X444899Y73154D01*
X444841Y73251D01*
X444786Y73350D01*
X444735Y73451D01*
X444687Y73554D01*
X444642Y73658D01*
X444602Y73764D01*
X444565Y73871D01*
X444532Y73979D01*
X444502Y74089D01*
X444477Y74199D01*
X444455Y74310D01*
X444438Y74422D01*
X444424Y74535D01*
X444414Y74648D01*
X444408Y74761D01*
X444406Y74874D01*
X456796Y71628D02*
X456796Y83312D01*
X455498Y71628D02*
X458094Y71628D01*
X458094Y83312D02*
X455498Y83312D01*
X463098Y83312D02*
X463098Y71628D01*
X468291Y71628D01*
X472106Y70330D02*
X477299Y70330D01*
X482295Y71628D02*
X482295Y83312D01*
X485540Y83312D01*
X485653Y83310D01*
X485766Y83304D01*
X485879Y83294D01*
X485992Y83280D01*
X486104Y83263D01*
X486215Y83241D01*
X486325Y83216D01*
X486435Y83186D01*
X486543Y83153D01*
X486650Y83116D01*
X486756Y83076D01*
X486860Y83031D01*
X486963Y82983D01*
X487064Y82932D01*
X487163Y82877D01*
X487260Y82819D01*
X487355Y82757D01*
X487448Y82692D01*
X487538Y82624D01*
X487626Y82553D01*
X487712Y82478D01*
X487795Y82401D01*
X487875Y82321D01*
X487952Y82238D01*
X488027Y82152D01*
X488098Y82064D01*
X488166Y81974D01*
X488231Y81881D01*
X488293Y81786D01*
X488351Y81689D01*
X488406Y81590D01*
X488457Y81489D01*
X488505Y81386D01*
X488550Y81282D01*
X488590Y81176D01*
X488627Y81069D01*
X488660Y80961D01*
X488690Y80851D01*
X488715Y80741D01*
X488737Y80630D01*
X488754Y80518D01*
X488768Y80405D01*
X488778Y80292D01*
X488784Y80179D01*
X488786Y80066D01*
X488784Y79953D01*
X488778Y79840D01*
X488768Y79727D01*
X488754Y79614D01*
X488737Y79502D01*
X488715Y79391D01*
X488690Y79281D01*
X488660Y79171D01*
X488627Y79063D01*
X488590Y78956D01*
X488550Y78850D01*
X488505Y78746D01*
X488457Y78643D01*
X488406Y78542D01*
X488351Y78443D01*
X488293Y78346D01*
X488231Y78251D01*
X488166Y78158D01*
X488098Y78068D01*
X488027Y77980D01*
X487952Y77894D01*
X487875Y77811D01*
X487795Y77731D01*
X487712Y77654D01*
X487626Y77579D01*
X487538Y77508D01*
X487448Y77440D01*
X487355Y77375D01*
X487260Y77313D01*
X487163Y77255D01*
X487064Y77200D01*
X486963Y77149D01*
X486860Y77101D01*
X486756Y77056D01*
X486650Y77016D01*
X486543Y76979D01*
X486435Y76946D01*
X486325Y76916D01*
X486215Y76891D01*
X486104Y76869D01*
X485992Y76852D01*
X485879Y76838D01*
X485766Y76828D01*
X485653Y76822D01*
X485540Y76820D01*
X485540Y76821D02*
X482295Y76821D01*
X493174Y74874D02*
X493174Y80066D01*
X493176Y80179D01*
X493182Y80292D01*
X493192Y80405D01*
X493206Y80518D01*
X493223Y80630D01*
X493245Y80741D01*
X493270Y80851D01*
X493300Y80961D01*
X493333Y81069D01*
X493370Y81176D01*
X493410Y81282D01*
X493455Y81386D01*
X493503Y81489D01*
X493554Y81590D01*
X493609Y81689D01*
X493667Y81786D01*
X493729Y81881D01*
X493794Y81974D01*
X493862Y82064D01*
X493933Y82152D01*
X494008Y82238D01*
X494085Y82321D01*
X494165Y82401D01*
X494248Y82478D01*
X494334Y82553D01*
X494422Y82624D01*
X494512Y82692D01*
X494605Y82757D01*
X494700Y82819D01*
X494797Y82877D01*
X494896Y82932D01*
X494997Y82983D01*
X495100Y83031D01*
X495204Y83076D01*
X495310Y83116D01*
X495417Y83153D01*
X495525Y83186D01*
X495635Y83216D01*
X495745Y83241D01*
X495856Y83263D01*
X495968Y83280D01*
X496081Y83294D01*
X496194Y83304D01*
X496307Y83310D01*
X496420Y83312D01*
X496533Y83310D01*
X496646Y83304D01*
X496759Y83294D01*
X496872Y83280D01*
X496984Y83263D01*
X497095Y83241D01*
X497205Y83216D01*
X497315Y83186D01*
X497423Y83153D01*
X497530Y83116D01*
X497636Y83076D01*
X497740Y83031D01*
X497843Y82983D01*
X497944Y82932D01*
X498043Y82877D01*
X498140Y82819D01*
X498235Y82757D01*
X498328Y82692D01*
X498418Y82624D01*
X498506Y82553D01*
X498592Y82478D01*
X498675Y82401D01*
X498755Y82321D01*
X498832Y82238D01*
X498907Y82152D01*
X498978Y82064D01*
X499046Y81974D01*
X499111Y81881D01*
X499173Y81786D01*
X499231Y81689D01*
X499286Y81590D01*
X499337Y81489D01*
X499385Y81386D01*
X499430Y81282D01*
X499470Y81176D01*
X499507Y81069D01*
X499540Y80961D01*
X499570Y80851D01*
X499595Y80741D01*
X499617Y80630D01*
X499634Y80518D01*
X499648Y80405D01*
X499658Y80292D01*
X499664Y80179D01*
X499666Y80066D01*
X499665Y80066D02*
X499665Y74874D01*
X499666Y74874D02*
X499664Y74761D01*
X499658Y74648D01*
X499648Y74535D01*
X499634Y74422D01*
X499617Y74310D01*
X499595Y74199D01*
X499570Y74089D01*
X499540Y73979D01*
X499507Y73871D01*
X499470Y73764D01*
X499430Y73658D01*
X499385Y73554D01*
X499337Y73451D01*
X499286Y73350D01*
X499231Y73251D01*
X499173Y73154D01*
X499111Y73059D01*
X499046Y72966D01*
X498978Y72876D01*
X498907Y72788D01*
X498832Y72702D01*
X498755Y72619D01*
X498675Y72539D01*
X498592Y72462D01*
X498506Y72387D01*
X498418Y72316D01*
X498328Y72248D01*
X498235Y72183D01*
X498140Y72121D01*
X498043Y72063D01*
X497944Y72008D01*
X497843Y71957D01*
X497740Y71909D01*
X497636Y71864D01*
X497530Y71824D01*
X497423Y71787D01*
X497315Y71754D01*
X497205Y71724D01*
X497095Y71699D01*
X496984Y71677D01*
X496872Y71660D01*
X496759Y71646D01*
X496646Y71636D01*
X496533Y71630D01*
X496420Y71628D01*
X496307Y71630D01*
X496194Y71636D01*
X496081Y71646D01*
X495968Y71660D01*
X495856Y71677D01*
X495745Y71699D01*
X495635Y71724D01*
X495525Y71754D01*
X495417Y71787D01*
X495310Y71824D01*
X495204Y71864D01*
X495100Y71909D01*
X494997Y71957D01*
X494896Y72008D01*
X494797Y72063D01*
X494700Y72121D01*
X494605Y72183D01*
X494512Y72248D01*
X494422Y72316D01*
X494334Y72387D01*
X494248Y72462D01*
X494165Y72539D01*
X494085Y72619D01*
X494008Y72702D01*
X493933Y72788D01*
X493862Y72876D01*
X493794Y72966D01*
X493729Y73059D01*
X493667Y73154D01*
X493609Y73251D01*
X493554Y73350D01*
X493503Y73451D01*
X493455Y73554D01*
X493410Y73658D01*
X493370Y73764D01*
X493333Y73871D01*
X493300Y73979D01*
X493270Y74089D01*
X493245Y74199D01*
X493223Y74310D01*
X493206Y74422D01*
X493192Y74535D01*
X493182Y74648D01*
X493176Y74761D01*
X493174Y74874D01*
X504181Y83312D02*
X506777Y71628D01*
X509374Y79417D01*
X511970Y71628D01*
X514567Y83312D01*
X519486Y71628D02*
X524679Y71628D01*
X519486Y71628D02*
X519486Y83312D01*
X524679Y83312D01*
X523380Y78119D02*
X519486Y78119D01*
X529443Y83312D02*
X529443Y71628D01*
X529443Y83312D02*
X532688Y83312D01*
X532801Y83310D01*
X532914Y83304D01*
X533027Y83294D01*
X533140Y83280D01*
X533252Y83263D01*
X533363Y83241D01*
X533473Y83216D01*
X533583Y83186D01*
X533691Y83153D01*
X533798Y83116D01*
X533904Y83076D01*
X534008Y83031D01*
X534111Y82983D01*
X534212Y82932D01*
X534311Y82877D01*
X534408Y82819D01*
X534503Y82757D01*
X534596Y82692D01*
X534686Y82624D01*
X534774Y82553D01*
X534860Y82478D01*
X534943Y82401D01*
X535023Y82321D01*
X535100Y82238D01*
X535175Y82152D01*
X535246Y82064D01*
X535314Y81974D01*
X535379Y81881D01*
X535441Y81786D01*
X535499Y81689D01*
X535554Y81590D01*
X535605Y81489D01*
X535653Y81386D01*
X535698Y81282D01*
X535738Y81176D01*
X535775Y81069D01*
X535808Y80961D01*
X535838Y80851D01*
X535863Y80741D01*
X535885Y80630D01*
X535902Y80518D01*
X535916Y80405D01*
X535926Y80292D01*
X535932Y80179D01*
X535934Y80066D01*
X535932Y79953D01*
X535926Y79840D01*
X535916Y79727D01*
X535902Y79614D01*
X535885Y79502D01*
X535863Y79391D01*
X535838Y79281D01*
X535808Y79171D01*
X535775Y79063D01*
X535738Y78956D01*
X535698Y78850D01*
X535653Y78746D01*
X535605Y78643D01*
X535554Y78542D01*
X535499Y78443D01*
X535441Y78346D01*
X535379Y78251D01*
X535314Y78158D01*
X535246Y78068D01*
X535175Y77980D01*
X535100Y77894D01*
X535023Y77811D01*
X534943Y77731D01*
X534860Y77654D01*
X534774Y77579D01*
X534686Y77508D01*
X534596Y77440D01*
X534503Y77375D01*
X534408Y77313D01*
X534311Y77255D01*
X534212Y77200D01*
X534111Y77149D01*
X534008Y77101D01*
X533904Y77056D01*
X533798Y77016D01*
X533691Y76979D01*
X533583Y76946D01*
X533473Y76916D01*
X533363Y76891D01*
X533252Y76869D01*
X533140Y76852D01*
X533027Y76838D01*
X532914Y76828D01*
X532801Y76822D01*
X532688Y76820D01*
X532688Y76821D02*
X529443Y76821D01*
X533337Y76821D02*
X535934Y71628D01*
X393125Y45212D02*
X393125Y33528D01*
X393125Y45212D02*
X396370Y45212D01*
X396483Y45210D01*
X396596Y45204D01*
X396709Y45194D01*
X396822Y45180D01*
X396934Y45163D01*
X397045Y45141D01*
X397155Y45116D01*
X397265Y45086D01*
X397373Y45053D01*
X397480Y45016D01*
X397586Y44976D01*
X397690Y44931D01*
X397793Y44883D01*
X397894Y44832D01*
X397993Y44777D01*
X398090Y44719D01*
X398185Y44657D01*
X398278Y44592D01*
X398368Y44524D01*
X398456Y44453D01*
X398542Y44378D01*
X398625Y44301D01*
X398705Y44221D01*
X398782Y44138D01*
X398857Y44052D01*
X398928Y43964D01*
X398996Y43874D01*
X399061Y43781D01*
X399123Y43686D01*
X399181Y43589D01*
X399236Y43490D01*
X399287Y43389D01*
X399335Y43286D01*
X399380Y43182D01*
X399420Y43076D01*
X399457Y42969D01*
X399490Y42861D01*
X399520Y42751D01*
X399545Y42641D01*
X399567Y42530D01*
X399584Y42418D01*
X399598Y42305D01*
X399608Y42192D01*
X399614Y42079D01*
X399616Y41966D01*
X399614Y41853D01*
X399608Y41740D01*
X399598Y41627D01*
X399584Y41514D01*
X399567Y41402D01*
X399545Y41291D01*
X399520Y41181D01*
X399490Y41071D01*
X399457Y40963D01*
X399420Y40856D01*
X399380Y40750D01*
X399335Y40646D01*
X399287Y40543D01*
X399236Y40442D01*
X399181Y40343D01*
X399123Y40246D01*
X399061Y40151D01*
X398996Y40058D01*
X398928Y39968D01*
X398857Y39880D01*
X398782Y39794D01*
X398705Y39711D01*
X398625Y39631D01*
X398542Y39554D01*
X398456Y39479D01*
X398368Y39408D01*
X398278Y39340D01*
X398185Y39275D01*
X398090Y39213D01*
X397993Y39155D01*
X397894Y39100D01*
X397793Y39049D01*
X397690Y39001D01*
X397586Y38956D01*
X397480Y38916D01*
X397373Y38879D01*
X397265Y38846D01*
X397155Y38816D01*
X397045Y38791D01*
X396934Y38769D01*
X396822Y38752D01*
X396709Y38738D01*
X396596Y38728D01*
X396483Y38722D01*
X396370Y38720D01*
X396370Y38721D02*
X393125Y38721D01*
X397019Y38721D02*
X399616Y33528D01*
X407077Y38721D02*
X410972Y38721D01*
X407077Y38721D02*
X406978Y38723D01*
X406878Y38729D01*
X406779Y38738D01*
X406681Y38751D01*
X406583Y38768D01*
X406485Y38789D01*
X406389Y38814D01*
X406294Y38842D01*
X406200Y38874D01*
X406107Y38909D01*
X406015Y38948D01*
X405925Y38991D01*
X405837Y39036D01*
X405750Y39086D01*
X405666Y39138D01*
X405583Y39194D01*
X405503Y39252D01*
X405425Y39314D01*
X405350Y39379D01*
X405277Y39447D01*
X405207Y39517D01*
X405139Y39590D01*
X405074Y39665D01*
X405012Y39743D01*
X404954Y39823D01*
X404898Y39906D01*
X404846Y39990D01*
X404796Y40077D01*
X404751Y40165D01*
X404708Y40255D01*
X404669Y40347D01*
X404634Y40440D01*
X404602Y40534D01*
X404574Y40629D01*
X404549Y40725D01*
X404528Y40823D01*
X404511Y40921D01*
X404498Y41019D01*
X404489Y41118D01*
X404483Y41218D01*
X404481Y41317D01*
X404481Y41966D01*
X404480Y41966D02*
X404482Y42079D01*
X404488Y42192D01*
X404498Y42305D01*
X404512Y42418D01*
X404529Y42530D01*
X404551Y42641D01*
X404576Y42751D01*
X404606Y42861D01*
X404639Y42969D01*
X404676Y43076D01*
X404716Y43182D01*
X404761Y43286D01*
X404809Y43389D01*
X404860Y43490D01*
X404915Y43589D01*
X404973Y43686D01*
X405035Y43781D01*
X405100Y43874D01*
X405168Y43964D01*
X405239Y44052D01*
X405314Y44138D01*
X405391Y44221D01*
X405471Y44301D01*
X405554Y44378D01*
X405640Y44453D01*
X405728Y44524D01*
X405818Y44592D01*
X405911Y44657D01*
X406006Y44719D01*
X406103Y44777D01*
X406202Y44832D01*
X406303Y44883D01*
X406406Y44931D01*
X406510Y44976D01*
X406616Y45016D01*
X406723Y45053D01*
X406831Y45086D01*
X406941Y45116D01*
X407051Y45141D01*
X407162Y45163D01*
X407274Y45180D01*
X407387Y45194D01*
X407500Y45204D01*
X407613Y45210D01*
X407726Y45212D01*
X407839Y45210D01*
X407952Y45204D01*
X408065Y45194D01*
X408178Y45180D01*
X408290Y45163D01*
X408401Y45141D01*
X408511Y45116D01*
X408621Y45086D01*
X408729Y45053D01*
X408836Y45016D01*
X408942Y44976D01*
X409046Y44931D01*
X409149Y44883D01*
X409250Y44832D01*
X409349Y44777D01*
X409446Y44719D01*
X409541Y44657D01*
X409634Y44592D01*
X409724Y44524D01*
X409812Y44453D01*
X409898Y44378D01*
X409981Y44301D01*
X410061Y44221D01*
X410138Y44138D01*
X410213Y44052D01*
X410284Y43964D01*
X410352Y43874D01*
X410417Y43781D01*
X410479Y43686D01*
X410537Y43589D01*
X410592Y43490D01*
X410643Y43389D01*
X410691Y43286D01*
X410736Y43182D01*
X410776Y43076D01*
X410813Y42969D01*
X410846Y42861D01*
X410876Y42751D01*
X410901Y42641D01*
X410923Y42530D01*
X410940Y42418D01*
X410954Y42305D01*
X410964Y42192D01*
X410970Y42079D01*
X410972Y41966D01*
X410972Y38721D01*
X410970Y38578D01*
X410964Y38435D01*
X410954Y38292D01*
X410940Y38150D01*
X410923Y38008D01*
X410901Y37866D01*
X410876Y37725D01*
X410846Y37585D01*
X410813Y37446D01*
X410776Y37308D01*
X410735Y37171D01*
X410691Y37035D01*
X410642Y36900D01*
X410590Y36767D01*
X410535Y36635D01*
X410475Y36505D01*
X410412Y36376D01*
X410346Y36249D01*
X410276Y36124D01*
X410203Y36002D01*
X410126Y35881D01*
X410046Y35762D01*
X409963Y35646D01*
X409877Y35531D01*
X409788Y35420D01*
X409695Y35310D01*
X409600Y35204D01*
X409501Y35100D01*
X409400Y34999D01*
X409296Y34900D01*
X409190Y34805D01*
X409080Y34712D01*
X408969Y34623D01*
X408854Y34537D01*
X408738Y34454D01*
X408619Y34374D01*
X408498Y34297D01*
X408376Y34224D01*
X408251Y34154D01*
X408124Y34088D01*
X407995Y34025D01*
X407865Y33965D01*
X407733Y33910D01*
X407600Y33858D01*
X407465Y33809D01*
X407329Y33765D01*
X407192Y33724D01*
X407054Y33687D01*
X406915Y33654D01*
X406775Y33624D01*
X406634Y33599D01*
X406492Y33577D01*
X406350Y33560D01*
X406208Y33546D01*
X406065Y33536D01*
X405922Y33530D01*
X405779Y33528D01*
X494880Y236300D02*
X495004Y236167D01*
X495132Y236037D01*
X495262Y235910D01*
X495396Y235786D01*
X495532Y235665D01*
X495672Y235548D01*
X495814Y235435D01*
X495959Y235325D01*
X496107Y235218D01*
X496257Y235115D01*
X496410Y235016D01*
X496565Y234921D01*
X496722Y234829D01*
X496882Y234742D01*
X497044Y234658D01*
X497207Y234578D01*
X497373Y234502D01*
X497540Y234431D01*
X497710Y234363D01*
X497880Y234300D01*
X498052Y234241D01*
X498226Y234186D01*
X498401Y234135D01*
X498577Y234089D01*
X498754Y234047D01*
X498932Y234009D01*
X499112Y233976D01*
X499291Y233947D01*
X499472Y233923D01*
X499653Y233903D01*
X499834Y233887D01*
X500016Y233876D01*
X500198Y233869D01*
X500380Y233867D01*
X500562Y233869D01*
X500744Y233876D01*
X500926Y233887D01*
X501107Y233903D01*
X501288Y233923D01*
X501469Y233947D01*
X501648Y233976D01*
X501828Y234009D01*
X502006Y234047D01*
X502183Y234089D01*
X502359Y234135D01*
X502534Y234186D01*
X502708Y234241D01*
X502880Y234300D01*
X503050Y234363D01*
X503220Y234431D01*
X503387Y234502D01*
X503553Y234578D01*
X503716Y234658D01*
X503878Y234742D01*
X504038Y234829D01*
X504195Y234921D01*
X504350Y235016D01*
X504503Y235115D01*
X504653Y235218D01*
X504801Y235325D01*
X504946Y235435D01*
X505088Y235548D01*
X505228Y235665D01*
X505364Y235786D01*
X505498Y235910D01*
X505628Y236037D01*
X505756Y236167D01*
X505880Y236300D01*
X505880Y246300D02*
X505756Y246433D01*
X505628Y246563D01*
X505498Y246690D01*
X505364Y246814D01*
X505228Y246935D01*
X505088Y247052D01*
X504946Y247165D01*
X504801Y247275D01*
X504653Y247382D01*
X504503Y247485D01*
X504350Y247584D01*
X504195Y247679D01*
X504038Y247771D01*
X503878Y247858D01*
X503716Y247942D01*
X503553Y248022D01*
X503387Y248098D01*
X503220Y248169D01*
X503050Y248237D01*
X502880Y248300D01*
X502708Y248359D01*
X502534Y248414D01*
X502359Y248465D01*
X502183Y248511D01*
X502006Y248553D01*
X501828Y248591D01*
X501648Y248624D01*
X501469Y248653D01*
X501288Y248677D01*
X501107Y248697D01*
X500926Y248713D01*
X500744Y248724D01*
X500562Y248731D01*
X500380Y248733D01*
X500198Y248731D01*
X500016Y248724D01*
X499834Y248713D01*
X499653Y248697D01*
X499472Y248677D01*
X499291Y248653D01*
X499112Y248624D01*
X498932Y248591D01*
X498754Y248553D01*
X498577Y248511D01*
X498401Y248465D01*
X498226Y248414D01*
X498052Y248359D01*
X497880Y248300D01*
X497710Y248237D01*
X497540Y248169D01*
X497373Y248098D01*
X497207Y248022D01*
X497044Y247942D01*
X496882Y247858D01*
X496722Y247771D01*
X496565Y247679D01*
X496410Y247584D01*
X496257Y247485D01*
X496107Y247382D01*
X495959Y247275D01*
X495814Y247165D01*
X495672Y247052D01*
X495532Y246935D01*
X495396Y246814D01*
X495262Y246690D01*
X495132Y246563D01*
X495004Y246433D01*
X494880Y246300D01*
D17*
X500380Y241300D03*
D18*
X505630Y235550D03*
D12*
X488188Y254508D02*
X488188Y266192D01*
X491434Y266192D01*
X491547Y266190D01*
X491660Y266184D01*
X491773Y266174D01*
X491886Y266160D01*
X491998Y266143D01*
X492109Y266121D01*
X492219Y266096D01*
X492329Y266066D01*
X492437Y266033D01*
X492544Y265996D01*
X492650Y265956D01*
X492754Y265911D01*
X492857Y265863D01*
X492958Y265812D01*
X493057Y265757D01*
X493154Y265699D01*
X493249Y265637D01*
X493342Y265572D01*
X493432Y265504D01*
X493520Y265433D01*
X493606Y265358D01*
X493689Y265281D01*
X493769Y265201D01*
X493846Y265118D01*
X493921Y265032D01*
X493992Y264944D01*
X494060Y264854D01*
X494125Y264761D01*
X494187Y264666D01*
X494245Y264569D01*
X494300Y264470D01*
X494351Y264369D01*
X494399Y264266D01*
X494444Y264162D01*
X494484Y264056D01*
X494521Y263949D01*
X494554Y263841D01*
X494584Y263731D01*
X494609Y263621D01*
X494631Y263510D01*
X494648Y263398D01*
X494662Y263285D01*
X494672Y263172D01*
X494678Y263059D01*
X494680Y262946D01*
X494678Y262833D01*
X494672Y262720D01*
X494662Y262607D01*
X494648Y262494D01*
X494631Y262382D01*
X494609Y262271D01*
X494584Y262161D01*
X494554Y262051D01*
X494521Y261943D01*
X494484Y261836D01*
X494444Y261730D01*
X494399Y261626D01*
X494351Y261523D01*
X494300Y261422D01*
X494245Y261323D01*
X494187Y261226D01*
X494125Y261131D01*
X494060Y261038D01*
X493992Y260948D01*
X493921Y260860D01*
X493846Y260774D01*
X493769Y260691D01*
X493689Y260611D01*
X493606Y260534D01*
X493520Y260459D01*
X493432Y260388D01*
X493342Y260320D01*
X493249Y260255D01*
X493154Y260193D01*
X493057Y260135D01*
X492958Y260080D01*
X492857Y260029D01*
X492754Y259981D01*
X492650Y259936D01*
X492544Y259896D01*
X492437Y259859D01*
X492329Y259826D01*
X492219Y259796D01*
X492109Y259771D01*
X491998Y259749D01*
X491886Y259732D01*
X491773Y259718D01*
X491660Y259708D01*
X491547Y259702D01*
X491434Y259700D01*
X491434Y259701D02*
X488188Y259701D01*
X499068Y257754D02*
X499068Y262946D01*
X499067Y262946D02*
X499069Y263059D01*
X499075Y263172D01*
X499085Y263285D01*
X499099Y263398D01*
X499116Y263510D01*
X499138Y263621D01*
X499163Y263731D01*
X499193Y263841D01*
X499226Y263949D01*
X499263Y264056D01*
X499303Y264162D01*
X499348Y264266D01*
X499396Y264369D01*
X499447Y264470D01*
X499502Y264569D01*
X499560Y264666D01*
X499622Y264761D01*
X499687Y264854D01*
X499755Y264944D01*
X499826Y265032D01*
X499901Y265118D01*
X499978Y265201D01*
X500058Y265281D01*
X500141Y265358D01*
X500227Y265433D01*
X500315Y265504D01*
X500405Y265572D01*
X500498Y265637D01*
X500593Y265699D01*
X500690Y265757D01*
X500789Y265812D01*
X500890Y265863D01*
X500993Y265911D01*
X501097Y265956D01*
X501203Y265996D01*
X501310Y266033D01*
X501418Y266066D01*
X501528Y266096D01*
X501638Y266121D01*
X501749Y266143D01*
X501861Y266160D01*
X501974Y266174D01*
X502087Y266184D01*
X502200Y266190D01*
X502313Y266192D01*
X502426Y266190D01*
X502539Y266184D01*
X502652Y266174D01*
X502765Y266160D01*
X502877Y266143D01*
X502988Y266121D01*
X503098Y266096D01*
X503208Y266066D01*
X503316Y266033D01*
X503423Y265996D01*
X503529Y265956D01*
X503633Y265911D01*
X503736Y265863D01*
X503837Y265812D01*
X503936Y265757D01*
X504033Y265699D01*
X504128Y265637D01*
X504221Y265572D01*
X504311Y265504D01*
X504399Y265433D01*
X504485Y265358D01*
X504568Y265281D01*
X504648Y265201D01*
X504725Y265118D01*
X504800Y265032D01*
X504871Y264944D01*
X504939Y264854D01*
X505004Y264761D01*
X505066Y264666D01*
X505124Y264569D01*
X505179Y264470D01*
X505230Y264369D01*
X505278Y264266D01*
X505323Y264162D01*
X505363Y264056D01*
X505400Y263949D01*
X505433Y263841D01*
X505463Y263731D01*
X505488Y263621D01*
X505510Y263510D01*
X505527Y263398D01*
X505541Y263285D01*
X505551Y263172D01*
X505557Y263059D01*
X505559Y262946D01*
X505559Y257754D01*
X505557Y257641D01*
X505551Y257528D01*
X505541Y257415D01*
X505527Y257302D01*
X505510Y257190D01*
X505488Y257079D01*
X505463Y256969D01*
X505433Y256859D01*
X505400Y256751D01*
X505363Y256644D01*
X505323Y256538D01*
X505278Y256434D01*
X505230Y256331D01*
X505179Y256230D01*
X505124Y256131D01*
X505066Y256034D01*
X505004Y255939D01*
X504939Y255846D01*
X504871Y255756D01*
X504800Y255668D01*
X504725Y255582D01*
X504648Y255499D01*
X504568Y255419D01*
X504485Y255342D01*
X504399Y255267D01*
X504311Y255196D01*
X504221Y255128D01*
X504128Y255063D01*
X504033Y255001D01*
X503936Y254943D01*
X503837Y254888D01*
X503736Y254837D01*
X503633Y254789D01*
X503529Y254744D01*
X503423Y254704D01*
X503316Y254667D01*
X503208Y254634D01*
X503098Y254604D01*
X502988Y254579D01*
X502877Y254557D01*
X502765Y254540D01*
X502652Y254526D01*
X502539Y254516D01*
X502426Y254510D01*
X502313Y254508D01*
X502200Y254510D01*
X502087Y254516D01*
X501974Y254526D01*
X501861Y254540D01*
X501749Y254557D01*
X501638Y254579D01*
X501528Y254604D01*
X501418Y254634D01*
X501310Y254667D01*
X501203Y254704D01*
X501097Y254744D01*
X500993Y254789D01*
X500890Y254837D01*
X500789Y254888D01*
X500690Y254943D01*
X500593Y255001D01*
X500498Y255063D01*
X500405Y255128D01*
X500315Y255196D01*
X500227Y255267D01*
X500141Y255342D01*
X500058Y255419D01*
X499978Y255499D01*
X499901Y255582D01*
X499826Y255668D01*
X499755Y255756D01*
X499687Y255846D01*
X499622Y255939D01*
X499560Y256034D01*
X499502Y256131D01*
X499447Y256230D01*
X499396Y256331D01*
X499348Y256434D01*
X499303Y256538D01*
X499263Y256644D01*
X499226Y256751D01*
X499193Y256859D01*
X499163Y256969D01*
X499138Y257079D01*
X499116Y257190D01*
X499099Y257302D01*
X499085Y257415D01*
X499075Y257528D01*
X499069Y257641D01*
X499067Y257754D01*
X510074Y266192D02*
X512671Y254508D01*
X515267Y262297D01*
X517864Y254508D01*
X520460Y266192D01*
X525379Y254508D02*
X530572Y254508D01*
X525379Y254508D02*
X525379Y266192D01*
X530572Y266192D01*
X529274Y260999D02*
X525379Y260999D01*
X535336Y266192D02*
X535336Y254508D01*
X535336Y266192D02*
X538582Y266192D01*
X538695Y266190D01*
X538808Y266184D01*
X538921Y266174D01*
X539034Y266160D01*
X539146Y266143D01*
X539257Y266121D01*
X539367Y266096D01*
X539477Y266066D01*
X539585Y266033D01*
X539692Y265996D01*
X539798Y265956D01*
X539902Y265911D01*
X540005Y265863D01*
X540106Y265812D01*
X540205Y265757D01*
X540302Y265699D01*
X540397Y265637D01*
X540490Y265572D01*
X540580Y265504D01*
X540668Y265433D01*
X540754Y265358D01*
X540837Y265281D01*
X540917Y265201D01*
X540994Y265118D01*
X541069Y265032D01*
X541140Y264944D01*
X541208Y264854D01*
X541273Y264761D01*
X541335Y264666D01*
X541393Y264569D01*
X541448Y264470D01*
X541499Y264369D01*
X541547Y264266D01*
X541592Y264162D01*
X541632Y264056D01*
X541669Y263949D01*
X541702Y263841D01*
X541732Y263731D01*
X541757Y263621D01*
X541779Y263510D01*
X541796Y263398D01*
X541810Y263285D01*
X541820Y263172D01*
X541826Y263059D01*
X541828Y262946D01*
X541826Y262833D01*
X541820Y262720D01*
X541810Y262607D01*
X541796Y262494D01*
X541779Y262382D01*
X541757Y262271D01*
X541732Y262161D01*
X541702Y262051D01*
X541669Y261943D01*
X541632Y261836D01*
X541592Y261730D01*
X541547Y261626D01*
X541499Y261523D01*
X541448Y261422D01*
X541393Y261323D01*
X541335Y261226D01*
X541273Y261131D01*
X541208Y261038D01*
X541140Y260948D01*
X541069Y260860D01*
X540994Y260774D01*
X540917Y260691D01*
X540837Y260611D01*
X540754Y260534D01*
X540668Y260459D01*
X540580Y260388D01*
X540490Y260320D01*
X540397Y260255D01*
X540302Y260193D01*
X540205Y260135D01*
X540106Y260080D01*
X540005Y260029D01*
X539902Y259981D01*
X539798Y259936D01*
X539692Y259896D01*
X539585Y259859D01*
X539477Y259826D01*
X539367Y259796D01*
X539257Y259771D01*
X539146Y259749D01*
X539034Y259732D01*
X538921Y259718D01*
X538808Y259708D01*
X538695Y259702D01*
X538582Y259700D01*
X538582Y259701D02*
X535336Y259701D01*
X539231Y259701D02*
X541827Y254508D01*
X114808Y172212D02*
X114808Y160528D01*
X114808Y172212D02*
X118054Y172212D01*
X118167Y172210D01*
X118280Y172204D01*
X118393Y172194D01*
X118506Y172180D01*
X118618Y172163D01*
X118729Y172141D01*
X118839Y172116D01*
X118949Y172086D01*
X119057Y172053D01*
X119164Y172016D01*
X119270Y171976D01*
X119374Y171931D01*
X119477Y171883D01*
X119578Y171832D01*
X119677Y171777D01*
X119774Y171719D01*
X119869Y171657D01*
X119962Y171592D01*
X120052Y171524D01*
X120140Y171453D01*
X120226Y171378D01*
X120309Y171301D01*
X120389Y171221D01*
X120466Y171138D01*
X120541Y171052D01*
X120612Y170964D01*
X120680Y170874D01*
X120745Y170781D01*
X120807Y170686D01*
X120865Y170589D01*
X120920Y170490D01*
X120971Y170389D01*
X121019Y170286D01*
X121064Y170182D01*
X121104Y170076D01*
X121141Y169969D01*
X121174Y169861D01*
X121204Y169751D01*
X121229Y169641D01*
X121251Y169530D01*
X121268Y169418D01*
X121282Y169305D01*
X121292Y169192D01*
X121298Y169079D01*
X121300Y168966D01*
X121298Y168853D01*
X121292Y168740D01*
X121282Y168627D01*
X121268Y168514D01*
X121251Y168402D01*
X121229Y168291D01*
X121204Y168181D01*
X121174Y168071D01*
X121141Y167963D01*
X121104Y167856D01*
X121064Y167750D01*
X121019Y167646D01*
X120971Y167543D01*
X120920Y167442D01*
X120865Y167343D01*
X120807Y167246D01*
X120745Y167151D01*
X120680Y167058D01*
X120612Y166968D01*
X120541Y166880D01*
X120466Y166794D01*
X120389Y166711D01*
X120309Y166631D01*
X120226Y166554D01*
X120140Y166479D01*
X120052Y166408D01*
X119962Y166340D01*
X119869Y166275D01*
X119774Y166213D01*
X119677Y166155D01*
X119578Y166100D01*
X119477Y166049D01*
X119374Y166001D01*
X119270Y165956D01*
X119164Y165916D01*
X119057Y165879D01*
X118949Y165846D01*
X118839Y165816D01*
X118729Y165791D01*
X118618Y165769D01*
X118506Y165752D01*
X118393Y165738D01*
X118280Y165728D01*
X118167Y165722D01*
X118054Y165720D01*
X118054Y165721D02*
X114808Y165721D01*
X118703Y165721D02*
X121299Y160528D01*
X126164Y169616D02*
X129410Y172212D01*
X129410Y160528D01*
X132655Y160528D02*
X126164Y160528D01*
X137595Y166370D02*
X137598Y166600D01*
X137606Y166830D01*
X137620Y167059D01*
X137639Y167288D01*
X137664Y167517D01*
X137694Y167744D01*
X137729Y167972D01*
X137770Y168198D01*
X137816Y168423D01*
X137868Y168647D01*
X137925Y168869D01*
X137987Y169091D01*
X138055Y169310D01*
X138128Y169528D01*
X138206Y169745D01*
X138289Y169959D01*
X138377Y170171D01*
X138470Y170381D01*
X138569Y170589D01*
X138568Y170589D02*
X138601Y170679D01*
X138637Y170768D01*
X138677Y170856D01*
X138721Y170941D01*
X138768Y171025D01*
X138818Y171107D01*
X138872Y171187D01*
X138928Y171264D01*
X138988Y171340D01*
X139051Y171413D01*
X139116Y171483D01*
X139185Y171551D01*
X139256Y171615D01*
X139329Y171677D01*
X139405Y171736D01*
X139483Y171792D01*
X139564Y171845D01*
X139646Y171894D01*
X139730Y171940D01*
X139817Y171983D01*
X139904Y172022D01*
X139994Y172058D01*
X140084Y172090D01*
X140176Y172118D01*
X140269Y172143D01*
X140363Y172164D01*
X140457Y172181D01*
X140552Y172195D01*
X140648Y172204D01*
X140744Y172210D01*
X140840Y172212D01*
X140936Y172210D01*
X141032Y172204D01*
X141128Y172195D01*
X141223Y172181D01*
X141317Y172164D01*
X141411Y172143D01*
X141504Y172118D01*
X141596Y172090D01*
X141686Y172058D01*
X141776Y172022D01*
X141863Y171983D01*
X141950Y171940D01*
X142034Y171894D01*
X142116Y171845D01*
X142197Y171792D01*
X142275Y171736D01*
X142351Y171677D01*
X142424Y171615D01*
X142495Y171551D01*
X142564Y171483D01*
X142629Y171413D01*
X142692Y171340D01*
X142752Y171264D01*
X142808Y171187D01*
X142862Y171107D01*
X142912Y171025D01*
X142959Y170941D01*
X143003Y170856D01*
X143043Y170768D01*
X143079Y170679D01*
X143112Y170589D01*
X143211Y170382D01*
X143304Y170172D01*
X143392Y169959D01*
X143475Y169745D01*
X143553Y169529D01*
X143626Y169311D01*
X143694Y169091D01*
X143756Y168870D01*
X143813Y168647D01*
X143865Y168423D01*
X143911Y168198D01*
X143952Y167972D01*
X143987Y167745D01*
X144017Y167517D01*
X144042Y167288D01*
X144061Y167059D01*
X144075Y166830D01*
X144083Y166600D01*
X144086Y166370D01*
X137594Y166370D02*
X137597Y166140D01*
X137605Y165910D01*
X137619Y165681D01*
X137638Y165452D01*
X137663Y165223D01*
X137693Y164995D01*
X137728Y164768D01*
X137769Y164542D01*
X137815Y164317D01*
X137867Y164093D01*
X137924Y163870D01*
X137986Y163649D01*
X138054Y163429D01*
X138127Y163211D01*
X138205Y162995D01*
X138288Y162781D01*
X138376Y162569D01*
X138469Y162358D01*
X138568Y162151D01*
X138601Y162061D01*
X138637Y161972D01*
X138678Y161884D01*
X138721Y161799D01*
X138768Y161715D01*
X138818Y161633D01*
X138872Y161553D01*
X138928Y161476D01*
X138988Y161400D01*
X139051Y161327D01*
X139116Y161257D01*
X139185Y161189D01*
X139256Y161125D01*
X139329Y161063D01*
X139405Y161004D01*
X139483Y160948D01*
X139564Y160895D01*
X139646Y160846D01*
X139730Y160800D01*
X139817Y160757D01*
X139904Y160718D01*
X139994Y160682D01*
X140084Y160650D01*
X140176Y160622D01*
X140269Y160597D01*
X140363Y160576D01*
X140457Y160559D01*
X140552Y160545D01*
X140648Y160536D01*
X140744Y160530D01*
X140840Y160528D01*
X143112Y162151D02*
X143211Y162358D01*
X143304Y162569D01*
X143392Y162781D01*
X143475Y162995D01*
X143553Y163211D01*
X143626Y163429D01*
X143694Y163649D01*
X143756Y163870D01*
X143813Y164093D01*
X143865Y164317D01*
X143911Y164542D01*
X143952Y164768D01*
X143987Y164995D01*
X144017Y165223D01*
X144042Y165452D01*
X144061Y165681D01*
X144075Y165910D01*
X144083Y166140D01*
X144086Y166370D01*
X143112Y162151D02*
X143079Y162061D01*
X143043Y161972D01*
X143003Y161884D01*
X142959Y161799D01*
X142912Y161715D01*
X142862Y161633D01*
X142808Y161553D01*
X142752Y161476D01*
X142692Y161400D01*
X142629Y161327D01*
X142564Y161257D01*
X142495Y161189D01*
X142424Y161125D01*
X142351Y161063D01*
X142275Y161004D01*
X142197Y160948D01*
X142116Y160895D01*
X142034Y160846D01*
X141950Y160800D01*
X141863Y160757D01*
X141776Y160718D01*
X141686Y160682D01*
X141596Y160650D01*
X141504Y160622D01*
X141411Y160597D01*
X141317Y160576D01*
X141223Y160559D01*
X141128Y160545D01*
X141032Y160536D01*
X140936Y160530D01*
X140840Y160528D01*
X138243Y163124D02*
X143436Y169616D01*
X22352Y21015D02*
X10668Y21015D01*
X10668Y24260D01*
X10670Y24373D01*
X10676Y24486D01*
X10686Y24599D01*
X10700Y24712D01*
X10717Y24824D01*
X10739Y24935D01*
X10764Y25045D01*
X10794Y25155D01*
X10827Y25263D01*
X10864Y25370D01*
X10904Y25476D01*
X10949Y25580D01*
X10997Y25683D01*
X11048Y25784D01*
X11103Y25883D01*
X11161Y25980D01*
X11223Y26075D01*
X11288Y26168D01*
X11356Y26258D01*
X11427Y26346D01*
X11502Y26432D01*
X11579Y26515D01*
X11659Y26595D01*
X11742Y26672D01*
X11828Y26747D01*
X11916Y26818D01*
X12006Y26886D01*
X12099Y26951D01*
X12194Y27013D01*
X12291Y27071D01*
X12390Y27126D01*
X12491Y27177D01*
X12594Y27225D01*
X12698Y27270D01*
X12804Y27310D01*
X12911Y27347D01*
X13019Y27380D01*
X13129Y27410D01*
X13239Y27435D01*
X13350Y27457D01*
X13462Y27474D01*
X13575Y27488D01*
X13688Y27498D01*
X13801Y27504D01*
X13914Y27506D01*
X14027Y27504D01*
X14140Y27498D01*
X14253Y27488D01*
X14366Y27474D01*
X14478Y27457D01*
X14589Y27435D01*
X14699Y27410D01*
X14809Y27380D01*
X14917Y27347D01*
X15024Y27310D01*
X15130Y27270D01*
X15234Y27225D01*
X15337Y27177D01*
X15438Y27126D01*
X15537Y27071D01*
X15634Y27013D01*
X15729Y26951D01*
X15822Y26886D01*
X15912Y26818D01*
X16000Y26747D01*
X16086Y26672D01*
X16169Y26595D01*
X16249Y26515D01*
X16326Y26432D01*
X16401Y26346D01*
X16472Y26258D01*
X16540Y26168D01*
X16605Y26075D01*
X16667Y25980D01*
X16725Y25883D01*
X16780Y25784D01*
X16831Y25683D01*
X16879Y25580D01*
X16924Y25476D01*
X16964Y25370D01*
X17001Y25263D01*
X17034Y25155D01*
X17064Y25045D01*
X17089Y24935D01*
X17111Y24824D01*
X17128Y24712D01*
X17142Y24599D01*
X17152Y24486D01*
X17158Y24373D01*
X17160Y24260D01*
X17159Y24260D02*
X17159Y21015D01*
X17159Y24909D02*
X22352Y27506D01*
X13264Y32371D02*
X10668Y35616D01*
X22352Y35616D01*
X22352Y32371D02*
X22352Y38862D01*
X13264Y43801D02*
X10668Y47046D01*
X22352Y47046D01*
X22352Y43801D02*
X22352Y50292D01*
D19*
X40020Y49460D02*
X47020Y49460D01*
X47020Y62960D01*
X36020Y72460D02*
X30020Y72460D01*
X19020Y62960D02*
X19020Y49460D01*
X26020Y49460D01*
D12*
X28180Y42512D02*
X28180Y30828D01*
X28180Y42512D02*
X31425Y42512D01*
X31538Y42510D01*
X31651Y42504D01*
X31764Y42494D01*
X31877Y42480D01*
X31989Y42463D01*
X32100Y42441D01*
X32210Y42416D01*
X32320Y42386D01*
X32428Y42353D01*
X32535Y42316D01*
X32641Y42276D01*
X32745Y42231D01*
X32848Y42183D01*
X32949Y42132D01*
X33048Y42077D01*
X33145Y42019D01*
X33240Y41957D01*
X33333Y41892D01*
X33423Y41824D01*
X33511Y41753D01*
X33597Y41678D01*
X33680Y41601D01*
X33760Y41521D01*
X33837Y41438D01*
X33912Y41352D01*
X33983Y41264D01*
X34051Y41174D01*
X34116Y41081D01*
X34178Y40986D01*
X34236Y40889D01*
X34291Y40790D01*
X34342Y40689D01*
X34390Y40586D01*
X34435Y40482D01*
X34475Y40376D01*
X34512Y40269D01*
X34545Y40161D01*
X34575Y40051D01*
X34600Y39941D01*
X34622Y39830D01*
X34639Y39718D01*
X34653Y39605D01*
X34663Y39492D01*
X34669Y39379D01*
X34671Y39266D01*
X34671Y34074D01*
X34672Y34074D02*
X34670Y33961D01*
X34664Y33848D01*
X34654Y33735D01*
X34640Y33622D01*
X34623Y33510D01*
X34601Y33399D01*
X34576Y33289D01*
X34546Y33179D01*
X34513Y33071D01*
X34476Y32964D01*
X34436Y32858D01*
X34391Y32754D01*
X34343Y32651D01*
X34292Y32550D01*
X34237Y32451D01*
X34179Y32354D01*
X34117Y32259D01*
X34052Y32166D01*
X33984Y32076D01*
X33913Y31988D01*
X33838Y31902D01*
X33761Y31819D01*
X33681Y31739D01*
X33598Y31662D01*
X33512Y31587D01*
X33424Y31516D01*
X33334Y31448D01*
X33241Y31383D01*
X33146Y31321D01*
X33049Y31263D01*
X32950Y31208D01*
X32849Y31157D01*
X32746Y31109D01*
X32642Y31064D01*
X32536Y31024D01*
X32429Y30987D01*
X32321Y30954D01*
X32211Y30924D01*
X32101Y30899D01*
X31990Y30877D01*
X31878Y30860D01*
X31765Y30846D01*
X31652Y30836D01*
X31539Y30830D01*
X31426Y30828D01*
X31425Y30828D02*
X28180Y30828D01*
X39991Y39916D02*
X43236Y42512D01*
X43236Y30828D01*
X39991Y30828D02*
X46482Y30828D01*
D20*
X-37300Y-13160D02*
X570700Y-13160D01*
X570700Y-191660D02*
X-37300Y-191660D01*
X-37300Y-13160D01*
X570703Y-13160D02*
X570703Y-191660D01*
X570678Y-191653D01*
X483700Y-392160D02*
X49700Y-392160D01*
X483700Y-392160D02*
X483700Y-191651D01*
X483736Y-191651D01*
X49700Y-191661D02*
X49700Y-392160D01*
X483711Y-384660D02*
X483711Y-191661D01*
X483678Y-191661D01*
X-37006Y1840D02*
X-37006Y14493D01*
X-37006Y1840D02*
X-37008Y1722D01*
X-37014Y1604D01*
X-37023Y1486D01*
X-37037Y1368D01*
X-37054Y1251D01*
X-37075Y1135D01*
X-37100Y1019D01*
X-37129Y904D01*
X-37162Y791D01*
X-37198Y678D01*
X-37238Y567D01*
X-37281Y457D01*
X-37328Y348D01*
X-37379Y241D01*
X-37433Y136D01*
X-37490Y33D01*
X-37551Y-69D01*
X-37615Y-168D01*
X-37683Y-266D01*
X-37753Y-361D01*
X-37827Y-453D01*
X-37903Y-544D01*
X-37983Y-631D01*
X-38065Y-716D01*
X-38150Y-798D01*
X-38237Y-878D01*
X-38328Y-954D01*
X-38420Y-1028D01*
X-38515Y-1098D01*
X-38613Y-1166D01*
X-38712Y-1230D01*
X-38813Y-1291D01*
X-38917Y-1348D01*
X-39022Y-1402D01*
X-39129Y-1453D01*
X-39238Y-1500D01*
X-39348Y-1543D01*
X-39459Y-1583D01*
X-39572Y-1619D01*
X-39685Y-1652D01*
X-39800Y-1681D01*
X-39916Y-1706D01*
X-40032Y-1727D01*
X-40149Y-1744D01*
X-40267Y-1758D01*
X-40385Y-1767D01*
X-40503Y-1773D01*
X-40621Y-1775D01*
X-42429Y-1775D01*
X-29937Y10878D02*
X-25418Y14493D01*
X-25418Y-1775D01*
X-29937Y-1775D02*
X-20899Y-1775D01*
D21*
X125000Y2540D02*
X125002Y2629D01*
X125008Y2718D01*
X125018Y2807D01*
X125032Y2895D01*
X125049Y2982D01*
X125071Y3068D01*
X125097Y3154D01*
X125126Y3238D01*
X125159Y3321D01*
X125195Y3402D01*
X125236Y3482D01*
X125279Y3559D01*
X125326Y3635D01*
X125377Y3708D01*
X125430Y3779D01*
X125487Y3848D01*
X125547Y3914D01*
X125610Y3978D01*
X125675Y4038D01*
X125743Y4096D01*
X125814Y4150D01*
X125887Y4201D01*
X125962Y4249D01*
X126039Y4294D01*
X126118Y4335D01*
X126199Y4372D01*
X126281Y4406D01*
X126365Y4437D01*
X126450Y4463D01*
X126536Y4486D01*
X126623Y4504D01*
X126711Y4519D01*
X126800Y4530D01*
X126889Y4537D01*
X126978Y4540D01*
X127067Y4539D01*
X127156Y4534D01*
X127244Y4525D01*
X127333Y4512D01*
X127420Y4495D01*
X127507Y4475D01*
X127593Y4450D01*
X127677Y4422D01*
X127760Y4390D01*
X127842Y4354D01*
X127922Y4315D01*
X128000Y4272D01*
X128076Y4226D01*
X128150Y4176D01*
X128222Y4123D01*
X128291Y4067D01*
X128358Y4008D01*
X128422Y3946D01*
X128483Y3882D01*
X128542Y3814D01*
X128597Y3744D01*
X128649Y3672D01*
X128698Y3597D01*
X128743Y3521D01*
X128785Y3442D01*
X128823Y3362D01*
X128858Y3280D01*
X128889Y3196D01*
X128917Y3111D01*
X128940Y3025D01*
X128960Y2938D01*
X128976Y2851D01*
X128988Y2762D01*
X128996Y2674D01*
X129000Y2585D01*
X129000Y2495D01*
X128996Y2406D01*
X128988Y2318D01*
X128976Y2229D01*
X128960Y2142D01*
X128940Y2055D01*
X128917Y1969D01*
X128889Y1884D01*
X128858Y1800D01*
X128823Y1718D01*
X128785Y1638D01*
X128743Y1559D01*
X128698Y1483D01*
X128649Y1408D01*
X128597Y1336D01*
X128542Y1266D01*
X128483Y1198D01*
X128422Y1134D01*
X128358Y1072D01*
X128291Y1013D01*
X128222Y957D01*
X128150Y904D01*
X128076Y854D01*
X128000Y808D01*
X127922Y765D01*
X127842Y726D01*
X127760Y690D01*
X127677Y658D01*
X127593Y630D01*
X127507Y605D01*
X127420Y585D01*
X127333Y568D01*
X127244Y555D01*
X127156Y546D01*
X127067Y541D01*
X126978Y540D01*
X126889Y543D01*
X126800Y550D01*
X126711Y561D01*
X126623Y576D01*
X126536Y594D01*
X126450Y617D01*
X126365Y643D01*
X126281Y674D01*
X126199Y708D01*
X126118Y745D01*
X126039Y786D01*
X125962Y831D01*
X125887Y879D01*
X125814Y930D01*
X125743Y984D01*
X125675Y1042D01*
X125610Y1102D01*
X125547Y1166D01*
X125487Y1232D01*
X125430Y1301D01*
X125377Y1372D01*
X125326Y1445D01*
X125279Y1521D01*
X125236Y1598D01*
X125195Y1678D01*
X125159Y1759D01*
X125126Y1842D01*
X125097Y1926D01*
X125071Y2012D01*
X125049Y2098D01*
X125032Y2185D01*
X125018Y2273D01*
X125008Y2362D01*
X125002Y2451D01*
X125000Y2540D01*
D12*
X34798Y20828D02*
X34798Y32512D01*
X38044Y32512D01*
X38157Y32510D01*
X38270Y32504D01*
X38383Y32494D01*
X38496Y32480D01*
X38608Y32463D01*
X38719Y32441D01*
X38829Y32416D01*
X38939Y32386D01*
X39047Y32353D01*
X39154Y32316D01*
X39260Y32276D01*
X39364Y32231D01*
X39467Y32183D01*
X39568Y32132D01*
X39667Y32077D01*
X39764Y32019D01*
X39859Y31957D01*
X39952Y31892D01*
X40042Y31824D01*
X40130Y31753D01*
X40216Y31678D01*
X40299Y31601D01*
X40379Y31521D01*
X40456Y31438D01*
X40531Y31352D01*
X40602Y31264D01*
X40670Y31174D01*
X40735Y31081D01*
X40797Y30986D01*
X40855Y30889D01*
X40910Y30790D01*
X40961Y30689D01*
X41009Y30586D01*
X41054Y30482D01*
X41094Y30376D01*
X41131Y30269D01*
X41164Y30161D01*
X41194Y30051D01*
X41219Y29941D01*
X41241Y29830D01*
X41258Y29718D01*
X41272Y29605D01*
X41282Y29492D01*
X41288Y29379D01*
X41290Y29266D01*
X41288Y29153D01*
X41282Y29040D01*
X41272Y28927D01*
X41258Y28814D01*
X41241Y28702D01*
X41219Y28591D01*
X41194Y28481D01*
X41164Y28371D01*
X41131Y28263D01*
X41094Y28156D01*
X41054Y28050D01*
X41009Y27946D01*
X40961Y27843D01*
X40910Y27742D01*
X40855Y27643D01*
X40797Y27546D01*
X40735Y27451D01*
X40670Y27358D01*
X40602Y27268D01*
X40531Y27180D01*
X40456Y27094D01*
X40379Y27011D01*
X40299Y26931D01*
X40216Y26854D01*
X40130Y26779D01*
X40042Y26708D01*
X39952Y26640D01*
X39859Y26575D01*
X39764Y26513D01*
X39667Y26455D01*
X39568Y26400D01*
X39467Y26349D01*
X39364Y26301D01*
X39260Y26256D01*
X39154Y26216D01*
X39047Y26179D01*
X38939Y26146D01*
X38829Y26116D01*
X38719Y26091D01*
X38608Y26069D01*
X38496Y26052D01*
X38383Y26038D01*
X38270Y26028D01*
X38157Y26022D01*
X38044Y26020D01*
X38044Y26021D02*
X34798Y26021D01*
X38693Y26021D02*
X41289Y20828D01*
X46154Y29916D02*
X49400Y32512D01*
X49400Y20828D01*
X52645Y20828D02*
X46154Y20828D01*
X61154Y32512D02*
X61261Y32510D01*
X61367Y32504D01*
X61473Y32494D01*
X61579Y32481D01*
X61685Y32463D01*
X61789Y32442D01*
X61893Y32417D01*
X61996Y32388D01*
X62097Y32356D01*
X62197Y32319D01*
X62296Y32279D01*
X62394Y32236D01*
X62490Y32189D01*
X62584Y32138D01*
X62676Y32084D01*
X62766Y32027D01*
X62854Y31967D01*
X62939Y31903D01*
X63022Y31836D01*
X63103Y31766D01*
X63181Y31694D01*
X63257Y31618D01*
X63329Y31540D01*
X63399Y31459D01*
X63466Y31376D01*
X63530Y31291D01*
X63590Y31203D01*
X63647Y31113D01*
X63701Y31021D01*
X63752Y30927D01*
X63799Y30831D01*
X63842Y30733D01*
X63882Y30634D01*
X63919Y30534D01*
X63951Y30433D01*
X63980Y30330D01*
X64005Y30226D01*
X64026Y30122D01*
X64044Y30016D01*
X64057Y29910D01*
X64067Y29804D01*
X64073Y29698D01*
X64075Y29591D01*
X61154Y32512D02*
X61033Y32510D01*
X60912Y32504D01*
X60792Y32494D01*
X60671Y32481D01*
X60552Y32463D01*
X60432Y32442D01*
X60314Y32417D01*
X60197Y32388D01*
X60080Y32355D01*
X59965Y32319D01*
X59851Y32278D01*
X59738Y32235D01*
X59626Y32187D01*
X59517Y32136D01*
X59409Y32081D01*
X59302Y32023D01*
X59198Y31962D01*
X59096Y31897D01*
X58996Y31829D01*
X58898Y31758D01*
X58802Y31684D01*
X58709Y31607D01*
X58619Y31526D01*
X58531Y31443D01*
X58446Y31357D01*
X58363Y31268D01*
X58284Y31177D01*
X58207Y31083D01*
X58134Y30987D01*
X58064Y30889D01*
X57997Y30788D01*
X57933Y30685D01*
X57873Y30580D01*
X57816Y30473D01*
X57762Y30365D01*
X57712Y30255D01*
X57666Y30143D01*
X57623Y30030D01*
X57584Y29915D01*
X63102Y27319D02*
X63181Y27396D01*
X63257Y27477D01*
X63330Y27560D01*
X63400Y27645D01*
X63467Y27733D01*
X63531Y27823D01*
X63591Y27915D01*
X63648Y28010D01*
X63702Y28106D01*
X63753Y28204D01*
X63800Y28304D01*
X63844Y28406D01*
X63884Y28509D01*
X63920Y28613D01*
X63952Y28719D01*
X63981Y28825D01*
X64006Y28933D01*
X64028Y29041D01*
X64045Y29151D01*
X64059Y29260D01*
X64068Y29370D01*
X64074Y29481D01*
X64076Y29591D01*
X63102Y27319D02*
X57584Y20828D01*
X64075Y20828D01*
M02*
