G04 EAGLE Gerber X2 export*
%TF.Part,Single*%
%TF.FileFunction,Soldermask,Bot,1*%
%TF.FilePolarity,Negative*%
%TF.GenerationSoftware,Autodesk,EAGLE,9.1.3*%
%TF.CreationDate,2020-03-05T04:38:37Z*%
G75*
%MOMM*%
%FSLAX34Y34*%
%LPD*%
%AMOC8*
5,1,8,0,0,1.08239X$1,22.5*%
G01*
%ADD10R,1.981200X1.981200*%
%ADD11C,1.981200*%
%ADD12C,1.854200*%
%ADD13C,1.727200*%
%ADD14C,3.053200*%
%ADD15R,2.828200X2.828200*%
%ADD16C,2.828200*%
%ADD17C,0.959600*%
%ADD18R,3.251200X3.251200*%


D10*
X0Y101600D03*
D11*
X25400Y101600D03*
X50800Y101600D03*
X76200Y101600D03*
X101600Y101600D03*
X127000Y101600D03*
X152400Y101600D03*
X177800Y101600D03*
X203200Y101600D03*
X228600Y101600D03*
X254000Y101600D03*
X279400Y101600D03*
X304800Y101600D03*
X330200Y101600D03*
X355600Y101600D03*
X0Y254000D03*
X25400Y254000D03*
X50800Y254000D03*
X76200Y254000D03*
X101600Y254000D03*
X127000Y254000D03*
X152400Y254000D03*
X177800Y254000D03*
X203200Y254000D03*
X228600Y254000D03*
X254000Y254000D03*
X279400Y254000D03*
X304800Y254000D03*
X330200Y254000D03*
X355600Y254000D03*
D12*
X381000Y101600D03*
X381000Y254000D03*
X-25400Y254000D03*
X-25400Y101600D03*
D13*
X193040Y68580D02*
X193040Y53340D01*
X218440Y53340D02*
X218440Y68580D01*
X243840Y68580D02*
X243840Y53340D01*
D14*
X61700Y-78660D03*
D15*
X126700Y-33660D03*
D16*
X166700Y-33660D03*
X206700Y-33660D03*
X246700Y-33660D03*
X286700Y-33660D03*
X326700Y-33660D03*
X366700Y-33660D03*
X406700Y-33660D03*
X146700Y-73660D03*
X186700Y-73660D03*
X226700Y-73660D03*
X266700Y-73660D03*
X306700Y-73660D03*
X346700Y-73660D03*
X386700Y-73660D03*
X126700Y-113660D03*
X166700Y-113660D03*
X206700Y-113660D03*
X246700Y-113660D03*
X286700Y-113660D03*
X326700Y-113660D03*
X366700Y-113660D03*
X406700Y-113660D03*
D14*
X471700Y-78660D03*
D17*
X85344Y34671D03*
X250698Y176022D03*
X434721Y168021D03*
X296037Y32004D03*
X160020Y114681D03*
X106680Y-45339D03*
X112014Y208026D03*
X112014Y-74676D03*
X242697Y189357D03*
X256032Y117348D03*
X285369Y32004D03*
X296037Y74676D03*
X274701Y53340D03*
X314706Y-98679D03*
X104013Y168021D03*
X42672Y-5334D03*
X104013Y-66675D03*
D18*
X127000Y-5080D03*
X127000Y25400D03*
X157480Y25400D03*
X187960Y25400D03*
X213360Y25400D03*
X248920Y30480D03*
X248920Y0D03*
D17*
X168021Y154686D03*
X170688Y88011D03*
X408051Y162687D03*
X472059Y226695D03*
M02*
