G04 EAGLE Gerber X2 export*
%TF.Part,Single*%
%TF.FileFunction,Copper,L2,Bot,Mixed*%
%TF.FilePolarity,Positive*%
%TF.GenerationSoftware,Autodesk,EAGLE,9.1.3*%
%TF.CreationDate,2020-03-18T03:06:25Z*%
G75*
%MOMM*%
%FSLAX34Y34*%
%LPD*%
%AMOC8*
5,1,8,0,0,1.08239X$1,22.5*%
G01*
%ADD10C,1.320800*%
%ADD11R,2.625000X2.625000*%
%ADD12C,2.625000*%
%ADD13R,1.778000X1.778000*%
%ADD14C,1.778000*%
%ADD15C,0.304800*%


D10*
X495300Y221996D02*
X495300Y235204D01*
X520700Y235204D02*
X520700Y221996D01*
X571500Y298196D02*
X571500Y311404D01*
X546100Y311404D02*
X546100Y298196D01*
X546100Y235204D02*
X546100Y221996D01*
X571500Y221996D02*
X571500Y235204D01*
X520700Y298196D02*
X520700Y311404D01*
X495300Y311404D02*
X495300Y298196D01*
X495300Y374396D02*
X495300Y387604D01*
X520700Y387604D02*
X520700Y374396D01*
X571500Y450596D02*
X571500Y463804D01*
X546100Y463804D02*
X546100Y450596D01*
X546100Y387604D02*
X546100Y374396D01*
X571500Y374396D02*
X571500Y387604D01*
X520700Y450596D02*
X520700Y463804D01*
X495300Y463804D02*
X495300Y450596D01*
D11*
X177500Y167000D03*
D12*
X217500Y167000D03*
X257500Y167000D03*
X297500Y167000D03*
X337500Y167000D03*
X377500Y167000D03*
X417500Y167000D03*
X457500Y167000D03*
X197500Y127000D03*
X237500Y127000D03*
X277500Y127000D03*
X317500Y127000D03*
X357500Y127000D03*
X397500Y127000D03*
X437500Y127000D03*
X177500Y87000D03*
X217500Y87000D03*
X257500Y87000D03*
X297500Y87000D03*
X337500Y87000D03*
X377500Y87000D03*
X417500Y87000D03*
X457500Y87000D03*
D13*
X393700Y368300D03*
D14*
X368300Y368300D03*
X342900Y368300D03*
X317500Y368300D03*
X292100Y368300D03*
X266700Y368300D03*
X241300Y368300D03*
X215900Y368300D03*
X190500Y368300D03*
X165100Y368300D03*
X139700Y368300D03*
X114300Y368300D03*
X88900Y368300D03*
X63500Y368300D03*
X38100Y368300D03*
X393700Y215900D03*
X368300Y215900D03*
X342900Y215900D03*
X317500Y215900D03*
X292100Y215900D03*
X266700Y215900D03*
X241300Y215900D03*
X215900Y215900D03*
X190500Y215900D03*
X165100Y215900D03*
X139700Y215900D03*
X114300Y215900D03*
X88900Y215900D03*
X63500Y215900D03*
X38100Y215900D03*
D15*
X274320Y173736D02*
X315468Y214884D01*
X274320Y173736D02*
X274320Y148590D01*
X258318Y132588D01*
X258318Y89154D01*
X315468Y214884D02*
X317500Y215900D01*
X258318Y89154D02*
X257500Y87000D01*
X358902Y214884D02*
X368046Y214884D01*
X358902Y214884D02*
X329184Y185166D01*
X292608Y185166D01*
X278892Y171450D01*
X278892Y128016D01*
X368046Y214884D02*
X368300Y215900D01*
X278892Y128016D02*
X277500Y127000D01*
X358902Y214884D02*
X358902Y326898D01*
X317500Y368300D01*
X500634Y475488D02*
X518922Y457200D01*
X500634Y475488D02*
X297180Y475488D01*
X192024Y370332D01*
X518922Y457200D02*
X520700Y457200D01*
X192024Y370332D02*
X190500Y368300D01*
X285750Y457200D02*
X495300Y457200D01*
X285750Y457200D02*
X203454Y374904D01*
X203454Y363474D01*
X194310Y354330D01*
X155448Y354330D01*
X141732Y368046D01*
X139700Y368300D01*
X520700Y228600D02*
X525780Y228600D01*
X544068Y246888D01*
X548640Y246888D01*
X557784Y237744D01*
X557784Y219456D01*
X443484Y105156D01*
X292608Y105156D01*
X274320Y86868D01*
X274320Y80010D01*
X262890Y68580D01*
X251460Y68580D01*
X235458Y84582D01*
X235458Y105156D01*
X219456Y121158D01*
X219456Y166878D01*
X217500Y167000D01*
X464058Y148590D02*
X544068Y228600D01*
X464058Y148590D02*
X317754Y148590D01*
X299466Y166878D01*
X544068Y228600D02*
X546100Y228600D01*
X299466Y166878D02*
X297500Y167000D01*
X493776Y331470D02*
X493776Y379476D01*
X493776Y331470D02*
X441198Y278892D01*
X441198Y192024D01*
X418338Y169164D01*
X493776Y379476D02*
X495300Y381000D01*
X418338Y169164D02*
X417500Y167000D01*
X518922Y381762D02*
X502920Y397764D01*
X491490Y397764D01*
X381762Y288036D01*
X381762Y171450D01*
X379476Y169164D01*
X518922Y381762D02*
X520700Y381000D01*
X379476Y169164D02*
X377500Y167000D01*
X544068Y374904D02*
X544068Y379476D01*
X544068Y374904D02*
X459486Y290322D01*
X459486Y169164D01*
X544068Y379476D02*
X546100Y381000D01*
X459486Y169164D02*
X457500Y167000D01*
X571500Y326898D02*
X571500Y381000D01*
X571500Y326898D02*
X582930Y315468D01*
X582930Y219456D01*
X468630Y105156D01*
X452628Y105156D01*
X434340Y86868D01*
X434340Y80010D01*
X418338Y64008D01*
X217170Y64008D01*
X198882Y82296D01*
X198882Y125730D01*
X197500Y127000D01*
X237744Y128016D02*
X237744Y194310D01*
X253746Y210312D01*
X253746Y356616D01*
X265176Y368046D01*
X237744Y128016D02*
X237500Y127000D01*
X265176Y368046D02*
X266700Y368300D01*
X178308Y137160D02*
X178308Y89154D01*
X178308Y137160D02*
X201168Y160020D01*
X201168Y208026D01*
X203454Y210312D01*
X203454Y356616D01*
X214884Y368046D01*
X178308Y89154D02*
X177500Y87000D01*
X214884Y368046D02*
X215900Y368300D01*
M02*
