G04 EAGLE Gerber X2 export*
%TF.Part,Single*%
%TF.FileFunction,Copper,L1,Top,Mixed*%
%TF.FilePolarity,Positive*%
%TF.GenerationSoftware,Autodesk,EAGLE,9.1.3*%
%TF.CreationDate,2020-03-18T03:06:25Z*%
G75*
%MOMM*%
%FSLAX34Y34*%
%LPD*%
%AMOC8*
5,1,8,0,0,1.08239X$1,22.5*%
G01*
%ADD10C,1.320800*%
%ADD11R,2.625000X2.625000*%
%ADD12C,2.625000*%
%ADD13R,1.778000X1.778000*%
%ADD14C,1.778000*%
%ADD15R,1.200000X1.200000*%
%ADD16R,1.300000X1.500000*%
%ADD17C,0.304800*%


D10*
X495300Y221996D02*
X495300Y235204D01*
X520700Y235204D02*
X520700Y221996D01*
X571500Y298196D02*
X571500Y311404D01*
X546100Y311404D02*
X546100Y298196D01*
X546100Y235204D02*
X546100Y221996D01*
X571500Y221996D02*
X571500Y235204D01*
X520700Y298196D02*
X520700Y311404D01*
X495300Y311404D02*
X495300Y298196D01*
X495300Y374396D02*
X495300Y387604D01*
X520700Y387604D02*
X520700Y374396D01*
X571500Y450596D02*
X571500Y463804D01*
X546100Y463804D02*
X546100Y450596D01*
X546100Y387604D02*
X546100Y374396D01*
X571500Y374396D02*
X571500Y387604D01*
X520700Y450596D02*
X520700Y463804D01*
X495300Y463804D02*
X495300Y450596D01*
D11*
X177500Y167000D03*
D12*
X217500Y167000D03*
X257500Y167000D03*
X297500Y167000D03*
X337500Y167000D03*
X377500Y167000D03*
X417500Y167000D03*
X457500Y167000D03*
X197500Y127000D03*
X237500Y127000D03*
X277500Y127000D03*
X317500Y127000D03*
X357500Y127000D03*
X397500Y127000D03*
X437500Y127000D03*
X177500Y87000D03*
X217500Y87000D03*
X257500Y87000D03*
X297500Y87000D03*
X337500Y87000D03*
X377500Y87000D03*
X417500Y87000D03*
X457500Y87000D03*
D13*
X393700Y368300D03*
D14*
X368300Y368300D03*
X342900Y368300D03*
X317500Y368300D03*
X292100Y368300D03*
X266700Y368300D03*
X241300Y368300D03*
X215900Y368300D03*
X190500Y368300D03*
X165100Y368300D03*
X139700Y368300D03*
X114300Y368300D03*
X88900Y368300D03*
X63500Y368300D03*
X38100Y368300D03*
X393700Y215900D03*
X368300Y215900D03*
X342900Y215900D03*
X317500Y215900D03*
X292100Y215900D03*
X266700Y215900D03*
X241300Y215900D03*
X215900Y215900D03*
X190500Y215900D03*
X165100Y215900D03*
X139700Y215900D03*
X114300Y215900D03*
X88900Y215900D03*
X63500Y215900D03*
X38100Y215900D03*
D15*
X381000Y442300D03*
X381000Y421300D03*
X304800Y442300D03*
X304800Y421300D03*
X215900Y442300D03*
X215900Y421300D03*
D16*
X142900Y431800D03*
X161900Y431800D03*
X28600Y431800D03*
X47600Y431800D03*
X92100Y406400D03*
X111100Y406400D03*
D17*
X93726Y404622D02*
X112014Y386334D01*
X214884Y386334D01*
X228600Y372618D01*
X228600Y304038D01*
X315468Y217170D01*
X93726Y404622D02*
X92100Y406400D01*
X315468Y217170D02*
X317500Y215900D01*
X297180Y86868D02*
X258318Y86868D01*
X257500Y87000D01*
X297180Y86868D02*
X297500Y87000D01*
X299466Y86868D02*
X336042Y86868D01*
X337500Y87000D01*
X299466Y86868D02*
X297500Y87000D01*
X571500Y304800D02*
X571500Y358902D01*
X560070Y370332D01*
X560070Y445770D01*
X571500Y457200D01*
X416052Y86868D02*
X379476Y86868D01*
X377500Y87000D01*
X416052Y86868D02*
X417500Y87000D01*
X418338Y86868D02*
X457200Y86868D01*
X457500Y87000D01*
X418338Y86868D02*
X417500Y87000D01*
X571500Y249174D02*
X571500Y304800D01*
X571500Y249174D02*
X582930Y237744D01*
X582930Y219456D01*
X459486Y96012D01*
X459486Y89154D01*
X457500Y87000D01*
X377190Y86868D02*
X338328Y86868D01*
X337500Y87000D01*
X377190Y86868D02*
X377500Y87000D01*
X395478Y128016D02*
X358902Y128016D01*
X357500Y127000D01*
X395478Y128016D02*
X397500Y127000D01*
X397764Y128016D02*
X436626Y128016D01*
X437500Y127000D01*
X397764Y128016D02*
X397500Y127000D01*
X315468Y128016D02*
X278892Y128016D01*
X315468Y128016D02*
X317500Y127000D01*
X278892Y128016D02*
X277500Y127000D01*
X317754Y128016D02*
X356616Y128016D01*
X357500Y127000D01*
X317754Y128016D02*
X317500Y127000D01*
X544068Y306324D02*
X544068Y361188D01*
X534924Y370332D01*
X534924Y411480D02*
X534924Y448056D01*
X534924Y411480D02*
X534924Y370332D01*
X534924Y448056D02*
X544068Y457200D01*
X544068Y306324D02*
X546100Y304800D01*
X546100Y457200D02*
X544068Y457200D01*
X214884Y441198D02*
X189738Y441198D01*
X169164Y420624D01*
X134874Y420624D01*
X132588Y422910D01*
X132588Y441198D01*
X153162Y461772D01*
X285750Y461772D01*
X304038Y443484D01*
X215900Y442300D02*
X214884Y441198D01*
X304038Y443484D02*
X304800Y442300D01*
X306324Y443484D02*
X379476Y443484D01*
X381000Y442300D01*
X306324Y443484D02*
X304800Y442300D01*
X317754Y370332D02*
X326898Y370332D01*
X345186Y388620D01*
X372618Y388620D01*
X395478Y411480D01*
X395478Y432054D01*
X386334Y441198D01*
X381762Y441198D01*
X317754Y370332D02*
X317500Y368300D01*
X381762Y441198D02*
X381000Y442300D01*
X395478Y411480D02*
X534924Y411480D01*
X493776Y306324D02*
X354330Y306324D01*
X292608Y368046D01*
X493776Y306324D02*
X495300Y304800D01*
X292608Y368046D02*
X292100Y368300D01*
X502920Y288036D02*
X518922Y304038D01*
X502920Y288036D02*
X322326Y288036D01*
X242316Y368046D01*
X518922Y304038D02*
X520700Y304800D01*
X242316Y368046D02*
X241300Y368300D01*
X461772Y228600D02*
X495300Y228600D01*
X461772Y228600D02*
X422910Y189738D01*
X278892Y189738D01*
X258318Y169164D01*
X257500Y167000D01*
X566928Y228600D02*
X571500Y228600D01*
X566928Y228600D02*
X523494Y185166D01*
X354330Y185166D01*
X338328Y169164D01*
X337500Y167000D01*
X386334Y214884D02*
X393192Y214884D01*
X386334Y214884D02*
X365760Y194310D01*
X203454Y194310D01*
X178308Y169164D01*
X393192Y214884D02*
X393700Y215900D01*
X178308Y169164D02*
X177500Y167000D01*
X144018Y432054D02*
X150876Y438912D01*
X150876Y441198D01*
X166878Y457200D01*
X272034Y457200D01*
X297180Y432054D01*
X388620Y432054D01*
X390906Y429768D01*
X390906Y413766D01*
X370332Y393192D01*
X290322Y393192D01*
X267462Y370332D01*
X144018Y432054D02*
X142900Y431800D01*
X267462Y370332D02*
X266700Y368300D01*
X77724Y381762D02*
X29718Y429768D01*
X77724Y381762D02*
X203454Y381762D01*
X214884Y370332D01*
X29718Y429768D02*
X28600Y431800D01*
X214884Y370332D02*
X215900Y368300D01*
X322326Y420624D02*
X379476Y420624D01*
X322326Y420624D02*
X308610Y406908D01*
X112014Y406908D01*
X379476Y420624D02*
X381000Y421300D01*
X112014Y406908D02*
X111100Y406400D01*
X253746Y422910D02*
X304038Y422910D01*
X253746Y422910D02*
X224028Y452628D01*
X182880Y452628D01*
X162306Y432054D01*
X304038Y422910D02*
X304800Y421300D01*
X162306Y432054D02*
X161900Y431800D01*
X176022Y420624D02*
X214884Y420624D01*
X176022Y420624D02*
X171450Y416052D01*
X121158Y416052D01*
X107442Y429768D01*
X48006Y429768D01*
X214884Y420624D02*
X215900Y421300D01*
X48006Y429768D02*
X47600Y431800D01*
M02*
