M48
;GenerationSoftware,Autodesk,EAGLE,9.1.3*%
;CreationDate,2020-03-18T03:06:25Z*%
FMAT,2
ICI,OFF
METRIC,TZ,000.000
T5C0.813
T4C0.914
T3C1.651
T2C1.750
T1C2.850
%
G90
M71
T1
X11250Y12200
X52250Y12200
T2
X45750Y16700
X19750Y12700
X23750Y12700
X17750Y8700
X27750Y12700
X31750Y12700
X35750Y12700
X39750Y12700
X43750Y12700
X45750Y8700
X41750Y8700
X37750Y8700
X33750Y8700
X29750Y8700
X25750Y8700
X21750Y8700
X17750Y16700
X21750Y16700
X25750Y16700
X29750Y16700
X33750Y16700
X37750Y16700
X41750Y16700
T3
X1270Y36830
X1270Y21590
X41910Y21590
X41910Y36830
T4
X21590Y21590
X19050Y21590
X16510Y21590
X13970Y21590
X11430Y21590
X8890Y21590
X6350Y21590
X3810Y21590
X26670Y21590
X39370Y36830
X36830Y36830
X34290Y36830
X31750Y36830
X29210Y36830
X26670Y36830
X24130Y36830
X21590Y36830
X19050Y36830
X16510Y36830
X13970Y36830
X11430Y36830
X8890Y36830
X6350Y36830
X3810Y36830
X39370Y21590
X36830Y21590
X34290Y21590
X31750Y21590
X29210Y21590
X24130Y21590
T5
X49530Y22860
X52070Y22860
X57150Y30480
X54610Y22860
X57150Y22860
X52070Y30480
X49530Y30480
X49530Y38100
X49530Y45720
X52070Y45720
X57150Y38100
X54610Y38100
X54610Y45720
X57150Y45720
X54610Y30480
X52070Y38100
M30