G04 EAGLE Gerber X2 export*
%TF.Part,Single*%
%TF.FileFunction,Profile,NP*%
%TF.FilePolarity,Positive*%
%TF.GenerationSoftware,Autodesk,EAGLE,9.1.3*%
%TF.CreationDate,2020-03-18T03:06:25Z*%
G75*
%MOMM*%
%FSLAX34Y34*%
%LPD*%
%AMOC8*
5,1,8,0,0,1.08239X$1,22.5*%
G01*
%ADD10C,0.254000*%


D10*
X0Y38100D02*
X634800Y38100D01*
X634800Y492000D01*
X0Y492000D01*
X0Y38100D01*
X126750Y121491D02*
X126677Y120476D01*
X126533Y119468D01*
X126316Y118474D01*
X126029Y117497D01*
X125674Y116543D01*
X125251Y115617D01*
X124763Y114724D01*
X124213Y113868D01*
X123603Y113053D01*
X122936Y112284D01*
X122216Y111564D01*
X121447Y110897D01*
X120632Y110287D01*
X119776Y109737D01*
X118883Y109249D01*
X117957Y108826D01*
X117003Y108471D01*
X116026Y108184D01*
X115032Y107967D01*
X114024Y107823D01*
X113009Y107750D01*
X111991Y107750D01*
X110976Y107823D01*
X109968Y107967D01*
X108974Y108184D01*
X107997Y108471D01*
X107043Y108826D01*
X106117Y109249D01*
X105224Y109737D01*
X104368Y110287D01*
X103553Y110897D01*
X102784Y111564D01*
X102064Y112284D01*
X101397Y113053D01*
X100787Y113868D01*
X100237Y114724D01*
X99749Y115617D01*
X99326Y116543D01*
X98971Y117497D01*
X98684Y118474D01*
X98467Y119468D01*
X98323Y120476D01*
X98250Y121491D01*
X98250Y122509D01*
X98323Y123524D01*
X98467Y124532D01*
X98684Y125526D01*
X98971Y126503D01*
X99326Y127457D01*
X99749Y128383D01*
X100237Y129276D01*
X100787Y130132D01*
X101397Y130947D01*
X102064Y131716D01*
X102784Y132436D01*
X103553Y133103D01*
X104368Y133713D01*
X105224Y134263D01*
X106117Y134751D01*
X107043Y135174D01*
X107997Y135529D01*
X108974Y135816D01*
X109968Y136033D01*
X110976Y136177D01*
X111991Y136250D01*
X113009Y136250D01*
X114024Y136177D01*
X115032Y136033D01*
X116026Y135816D01*
X117003Y135529D01*
X117957Y135174D01*
X118883Y134751D01*
X119776Y134263D01*
X120632Y133713D01*
X121447Y133103D01*
X122216Y132436D01*
X122936Y131716D01*
X123603Y130947D01*
X124213Y130132D01*
X124763Y129276D01*
X125251Y128383D01*
X125674Y127457D01*
X126029Y126503D01*
X126316Y125526D01*
X126533Y124532D01*
X126677Y123524D01*
X126750Y122509D01*
X126750Y121491D01*
X536750Y121491D02*
X536677Y120476D01*
X536533Y119468D01*
X536316Y118474D01*
X536029Y117497D01*
X535674Y116543D01*
X535251Y115617D01*
X534763Y114724D01*
X534213Y113868D01*
X533603Y113053D01*
X532936Y112284D01*
X532216Y111564D01*
X531447Y110897D01*
X530632Y110287D01*
X529776Y109737D01*
X528883Y109249D01*
X527957Y108826D01*
X527003Y108471D01*
X526026Y108184D01*
X525032Y107967D01*
X524024Y107823D01*
X523009Y107750D01*
X521991Y107750D01*
X520976Y107823D01*
X519968Y107967D01*
X518974Y108184D01*
X517997Y108471D01*
X517043Y108826D01*
X516117Y109249D01*
X515224Y109737D01*
X514368Y110287D01*
X513553Y110897D01*
X512784Y111564D01*
X512064Y112284D01*
X511397Y113053D01*
X510787Y113868D01*
X510237Y114724D01*
X509749Y115617D01*
X509326Y116543D01*
X508971Y117497D01*
X508684Y118474D01*
X508467Y119468D01*
X508323Y120476D01*
X508250Y121491D01*
X508250Y122509D01*
X508323Y123524D01*
X508467Y124532D01*
X508684Y125526D01*
X508971Y126503D01*
X509326Y127457D01*
X509749Y128383D01*
X510237Y129276D01*
X510787Y130132D01*
X511397Y130947D01*
X512064Y131716D01*
X512784Y132436D01*
X513553Y133103D01*
X514368Y133713D01*
X515224Y134263D01*
X516117Y134751D01*
X517043Y135174D01*
X517997Y135529D01*
X518974Y135816D01*
X519968Y136033D01*
X520976Y136177D01*
X521991Y136250D01*
X523009Y136250D01*
X524024Y136177D01*
X525032Y136033D01*
X526026Y135816D01*
X527003Y135529D01*
X527957Y135174D01*
X528883Y134751D01*
X529776Y134263D01*
X530632Y133713D01*
X531447Y133103D01*
X532216Y132436D01*
X532936Y131716D01*
X533603Y130947D01*
X534213Y130132D01*
X534763Y129276D01*
X535251Y128383D01*
X535674Y127457D01*
X536029Y126503D01*
X536316Y125526D01*
X536533Y124532D01*
X536677Y123524D01*
X536750Y122509D01*
X536750Y121491D01*
X12294Y360045D02*
X11487Y360125D01*
X10692Y360283D01*
X9916Y360518D01*
X9166Y360829D01*
X8451Y361211D01*
X7777Y361662D01*
X7150Y362176D01*
X6576Y362750D01*
X6062Y363377D01*
X5611Y364051D01*
X5229Y364766D01*
X4918Y365516D01*
X4683Y366292D01*
X4525Y367087D01*
X4445Y367894D01*
X4445Y368706D01*
X4525Y369513D01*
X4683Y370308D01*
X4918Y371084D01*
X5229Y371834D01*
X5611Y372549D01*
X6062Y373223D01*
X6576Y373850D01*
X7150Y374424D01*
X7777Y374938D01*
X8451Y375389D01*
X9166Y375771D01*
X9916Y376082D01*
X10692Y376317D01*
X11487Y376476D01*
X12294Y376555D01*
X13106Y376555D01*
X13913Y376476D01*
X14708Y376317D01*
X15484Y376082D01*
X16234Y375771D01*
X16949Y375389D01*
X17623Y374938D01*
X18250Y374424D01*
X18824Y373850D01*
X19338Y373223D01*
X19789Y372549D01*
X20171Y371834D01*
X20482Y371084D01*
X20717Y370308D01*
X20876Y369513D01*
X20955Y368706D01*
X20955Y367894D01*
X20876Y367087D01*
X20717Y366292D01*
X20482Y365516D01*
X20171Y364766D01*
X19789Y364051D01*
X19338Y363377D01*
X18824Y362750D01*
X18250Y362176D01*
X17623Y361662D01*
X16949Y361211D01*
X16234Y360829D01*
X15484Y360518D01*
X14708Y360283D01*
X13913Y360125D01*
X13106Y360045D01*
X12294Y360045D01*
X12294Y207645D02*
X11487Y207725D01*
X10692Y207883D01*
X9916Y208118D01*
X9166Y208429D01*
X8451Y208811D01*
X7777Y209262D01*
X7150Y209776D01*
X6576Y210350D01*
X6062Y210977D01*
X5611Y211651D01*
X5229Y212366D01*
X4918Y213116D01*
X4683Y213892D01*
X4525Y214687D01*
X4445Y215494D01*
X4445Y216306D01*
X4525Y217113D01*
X4683Y217908D01*
X4918Y218684D01*
X5229Y219434D01*
X5611Y220149D01*
X6062Y220823D01*
X6576Y221450D01*
X7150Y222024D01*
X7777Y222538D01*
X8451Y222989D01*
X9166Y223371D01*
X9916Y223682D01*
X10692Y223917D01*
X11487Y224076D01*
X12294Y224155D01*
X13106Y224155D01*
X13913Y224076D01*
X14708Y223917D01*
X15484Y223682D01*
X16234Y223371D01*
X16949Y222989D01*
X17623Y222538D01*
X18250Y222024D01*
X18824Y221450D01*
X19338Y220823D01*
X19789Y220149D01*
X20171Y219434D01*
X20482Y218684D01*
X20717Y217908D01*
X20876Y217113D01*
X20955Y216306D01*
X20955Y215494D01*
X20876Y214687D01*
X20717Y213892D01*
X20482Y213116D01*
X20171Y212366D01*
X19789Y211651D01*
X19338Y210977D01*
X18824Y210350D01*
X18250Y209776D01*
X17623Y209262D01*
X16949Y208811D01*
X16234Y208429D01*
X15484Y208118D01*
X14708Y207883D01*
X13913Y207725D01*
X13106Y207645D01*
X12294Y207645D01*
X418694Y207645D02*
X417887Y207725D01*
X417092Y207883D01*
X416316Y208118D01*
X415566Y208429D01*
X414851Y208811D01*
X414177Y209262D01*
X413550Y209776D01*
X412976Y210350D01*
X412462Y210977D01*
X412011Y211651D01*
X411629Y212366D01*
X411318Y213116D01*
X411083Y213892D01*
X410925Y214687D01*
X410845Y215494D01*
X410845Y216306D01*
X410925Y217113D01*
X411083Y217908D01*
X411318Y218684D01*
X411629Y219434D01*
X412011Y220149D01*
X412462Y220823D01*
X412976Y221450D01*
X413550Y222024D01*
X414177Y222538D01*
X414851Y222989D01*
X415566Y223371D01*
X416316Y223682D01*
X417092Y223917D01*
X417887Y224076D01*
X418694Y224155D01*
X419506Y224155D01*
X420313Y224076D01*
X421108Y223917D01*
X421884Y223682D01*
X422634Y223371D01*
X423349Y222989D01*
X424023Y222538D01*
X424650Y222024D01*
X425224Y221450D01*
X425738Y220823D01*
X426189Y220149D01*
X426571Y219434D01*
X426882Y218684D01*
X427117Y217908D01*
X427276Y217113D01*
X427355Y216306D01*
X427355Y215494D01*
X427276Y214687D01*
X427117Y213892D01*
X426882Y213116D01*
X426571Y212366D01*
X426189Y211651D01*
X425738Y210977D01*
X425224Y210350D01*
X424650Y209776D01*
X424023Y209262D01*
X423349Y208811D01*
X422634Y208429D01*
X421884Y208118D01*
X421108Y207883D01*
X420313Y207725D01*
X419506Y207645D01*
X418694Y207645D01*
X418694Y360045D02*
X417887Y360125D01*
X417092Y360283D01*
X416316Y360518D01*
X415566Y360829D01*
X414851Y361211D01*
X414177Y361662D01*
X413550Y362176D01*
X412976Y362750D01*
X412462Y363377D01*
X412011Y364051D01*
X411629Y364766D01*
X411318Y365516D01*
X411083Y366292D01*
X410925Y367087D01*
X410845Y367894D01*
X410845Y368706D01*
X410925Y369513D01*
X411083Y370308D01*
X411318Y371084D01*
X411629Y371834D01*
X412011Y372549D01*
X412462Y373223D01*
X412976Y373850D01*
X413550Y374424D01*
X414177Y374938D01*
X414851Y375389D01*
X415566Y375771D01*
X416316Y376082D01*
X417092Y376317D01*
X417887Y376476D01*
X418694Y376555D01*
X419506Y376555D01*
X420313Y376476D01*
X421108Y376317D01*
X421884Y376082D01*
X422634Y375771D01*
X423349Y375389D01*
X424023Y374938D01*
X424650Y374424D01*
X425224Y373850D01*
X425738Y373223D01*
X426189Y372549D01*
X426571Y371834D01*
X426882Y371084D01*
X427117Y370308D01*
X427276Y369513D01*
X427355Y368706D01*
X427355Y367894D01*
X427276Y367087D01*
X427117Y366292D01*
X426882Y365516D01*
X426571Y364766D01*
X426189Y364051D01*
X425738Y363377D01*
X425224Y362750D01*
X424650Y362176D01*
X424023Y361662D01*
X423349Y361211D01*
X422634Y360829D01*
X421884Y360518D01*
X421108Y360283D01*
X420313Y360125D01*
X419506Y360045D01*
X418694Y360045D01*
M02*
