G04 EAGLE Gerber X2 export*
%TF.Part,Single*%
%TF.FileFunction,Legend,Top,1*%
%TF.FilePolarity,Positive*%
%TF.GenerationSoftware,Autodesk,EAGLE,9.1.3*%
%TF.CreationDate,2020-03-18T03:06:25Z*%
G75*
%MOMM*%
%FSLAX34Y34*%
%LPD*%
%AMOC8*
5,1,8,0,0,1.08239X$1,22.5*%
G01*
%ADD10C,0.152400*%
%ADD11C,0.127000*%
%ADD12C,0.400000*%
%ADD13C,0.000000*%
%ADD14C,0.076200*%
%ADD15C,0.101600*%
%ADD16R,0.150000X0.300000*%
%ADD17R,0.300000X0.300000*%


D10*
X584200Y317500D02*
X482600Y317500D01*
X482600Y215900D02*
X584200Y215900D01*
X584200Y292100D02*
X584200Y317500D01*
X482600Y317500D02*
X482600Y292100D01*
X482600Y241300D02*
X482600Y215900D01*
X482600Y256540D02*
X482847Y256543D01*
X483095Y256552D01*
X483342Y256567D01*
X483588Y256588D01*
X483834Y256615D01*
X484079Y256648D01*
X484324Y256687D01*
X484567Y256732D01*
X484809Y256783D01*
X485050Y256840D01*
X485289Y256902D01*
X485527Y256971D01*
X485763Y257045D01*
X485997Y257125D01*
X486229Y257210D01*
X486459Y257302D01*
X486687Y257398D01*
X486912Y257501D01*
X487135Y257608D01*
X487355Y257722D01*
X487572Y257840D01*
X487787Y257964D01*
X487998Y258093D01*
X488206Y258227D01*
X488411Y258366D01*
X488612Y258510D01*
X488810Y258658D01*
X489004Y258812D01*
X489194Y258970D01*
X489380Y259133D01*
X489562Y259300D01*
X489740Y259472D01*
X489914Y259648D01*
X490084Y259828D01*
X490249Y260013D01*
X490409Y260201D01*
X490565Y260393D01*
X490717Y260589D01*
X490863Y260788D01*
X491005Y260991D01*
X491141Y261198D01*
X491273Y261407D01*
X491399Y261620D01*
X491520Y261836D01*
X491636Y262054D01*
X491746Y262276D01*
X491851Y262500D01*
X491951Y262726D01*
X492045Y262955D01*
X492133Y263186D01*
X492216Y263420D01*
X492293Y263655D01*
X492364Y263892D01*
X492430Y264130D01*
X492489Y264370D01*
X492543Y264612D01*
X492591Y264855D01*
X492633Y265098D01*
X492669Y265343D01*
X492699Y265589D01*
X492723Y265835D01*
X492741Y266082D01*
X492753Y266329D01*
X492759Y266576D01*
X492759Y266824D01*
X492753Y267071D01*
X492741Y267318D01*
X492723Y267565D01*
X492699Y267811D01*
X492669Y268057D01*
X492633Y268302D01*
X492591Y268545D01*
X492543Y268788D01*
X492489Y269030D01*
X492430Y269270D01*
X492364Y269508D01*
X492293Y269745D01*
X492216Y269980D01*
X492133Y270214D01*
X492045Y270445D01*
X491951Y270674D01*
X491851Y270900D01*
X491746Y271124D01*
X491636Y271346D01*
X491520Y271564D01*
X491399Y271780D01*
X491273Y271993D01*
X491141Y272202D01*
X491005Y272409D01*
X490863Y272612D01*
X490717Y272811D01*
X490565Y273007D01*
X490409Y273199D01*
X490249Y273387D01*
X490084Y273572D01*
X489914Y273752D01*
X489740Y273928D01*
X489562Y274100D01*
X489380Y274267D01*
X489194Y274430D01*
X489004Y274588D01*
X488810Y274742D01*
X488612Y274890D01*
X488411Y275034D01*
X488206Y275173D01*
X487998Y275307D01*
X487787Y275436D01*
X487572Y275560D01*
X487355Y275678D01*
X487135Y275792D01*
X486912Y275899D01*
X486687Y276002D01*
X486459Y276098D01*
X486229Y276190D01*
X485997Y276275D01*
X485763Y276355D01*
X485527Y276429D01*
X485289Y276498D01*
X485050Y276560D01*
X484809Y276617D01*
X484567Y276668D01*
X484324Y276713D01*
X484079Y276752D01*
X483834Y276785D01*
X483588Y276812D01*
X483342Y276833D01*
X483095Y276848D01*
X482847Y276857D01*
X482600Y276860D01*
X482600Y292100D02*
X584200Y292100D01*
X482600Y292100D02*
X482600Y276860D01*
X584200Y292100D02*
X584200Y241300D01*
X482600Y241300D01*
X482600Y256540D01*
X584200Y241300D02*
X584200Y215900D01*
D11*
X478155Y241935D02*
X466725Y241935D01*
X478155Y240665D02*
X478155Y243205D01*
X466725Y243205D02*
X466725Y240665D01*
X478155Y250407D02*
X478155Y252947D01*
X478155Y250407D02*
X478153Y250307D01*
X478147Y250208D01*
X478137Y250108D01*
X478124Y250010D01*
X478106Y249911D01*
X478085Y249814D01*
X478060Y249718D01*
X478031Y249622D01*
X477998Y249528D01*
X477962Y249435D01*
X477922Y249344D01*
X477878Y249254D01*
X477831Y249166D01*
X477781Y249080D01*
X477727Y248996D01*
X477670Y248914D01*
X477610Y248835D01*
X477546Y248757D01*
X477480Y248683D01*
X477411Y248611D01*
X477339Y248542D01*
X477265Y248476D01*
X477187Y248412D01*
X477108Y248352D01*
X477026Y248295D01*
X476942Y248241D01*
X476856Y248191D01*
X476768Y248144D01*
X476678Y248100D01*
X476587Y248060D01*
X476494Y248024D01*
X476400Y247991D01*
X476304Y247962D01*
X476208Y247937D01*
X476111Y247916D01*
X476012Y247898D01*
X475914Y247885D01*
X475814Y247875D01*
X475715Y247869D01*
X475615Y247867D01*
X469265Y247867D01*
X469165Y247869D01*
X469066Y247875D01*
X468966Y247885D01*
X468868Y247898D01*
X468769Y247916D01*
X468672Y247937D01*
X468576Y247962D01*
X468480Y247991D01*
X468386Y248024D01*
X468293Y248060D01*
X468202Y248100D01*
X468112Y248144D01*
X468024Y248191D01*
X467938Y248241D01*
X467854Y248295D01*
X467772Y248352D01*
X467693Y248412D01*
X467615Y248476D01*
X467541Y248542D01*
X467469Y248611D01*
X467400Y248683D01*
X467334Y248757D01*
X467270Y248835D01*
X467210Y248914D01*
X467153Y248996D01*
X467099Y249080D01*
X467049Y249166D01*
X467002Y249254D01*
X466958Y249344D01*
X466918Y249435D01*
X466882Y249528D01*
X466849Y249622D01*
X466820Y249718D01*
X466795Y249814D01*
X466774Y249911D01*
X466756Y250010D01*
X466743Y250108D01*
X466733Y250208D01*
X466727Y250307D01*
X466725Y250407D01*
X466725Y252947D01*
X469265Y257429D02*
X466725Y260604D01*
X478155Y260604D01*
X478155Y257429D02*
X478155Y263779D01*
D10*
X482600Y469900D02*
X584200Y469900D01*
X584200Y368300D02*
X482600Y368300D01*
X584200Y444500D02*
X584200Y469900D01*
X482600Y469900D02*
X482600Y444500D01*
X482600Y393700D02*
X482600Y368300D01*
X482600Y408940D02*
X482847Y408943D01*
X483095Y408952D01*
X483342Y408967D01*
X483588Y408988D01*
X483834Y409015D01*
X484079Y409048D01*
X484324Y409087D01*
X484567Y409132D01*
X484809Y409183D01*
X485050Y409240D01*
X485289Y409302D01*
X485527Y409371D01*
X485763Y409445D01*
X485997Y409525D01*
X486229Y409610D01*
X486459Y409702D01*
X486687Y409798D01*
X486912Y409901D01*
X487135Y410008D01*
X487355Y410122D01*
X487572Y410240D01*
X487787Y410364D01*
X487998Y410493D01*
X488206Y410627D01*
X488411Y410766D01*
X488612Y410910D01*
X488810Y411058D01*
X489004Y411212D01*
X489194Y411370D01*
X489380Y411533D01*
X489562Y411700D01*
X489740Y411872D01*
X489914Y412048D01*
X490084Y412228D01*
X490249Y412413D01*
X490409Y412601D01*
X490565Y412793D01*
X490717Y412989D01*
X490863Y413188D01*
X491005Y413391D01*
X491141Y413598D01*
X491273Y413807D01*
X491399Y414020D01*
X491520Y414236D01*
X491636Y414454D01*
X491746Y414676D01*
X491851Y414900D01*
X491951Y415126D01*
X492045Y415355D01*
X492133Y415586D01*
X492216Y415820D01*
X492293Y416055D01*
X492364Y416292D01*
X492430Y416530D01*
X492489Y416770D01*
X492543Y417012D01*
X492591Y417255D01*
X492633Y417498D01*
X492669Y417743D01*
X492699Y417989D01*
X492723Y418235D01*
X492741Y418482D01*
X492753Y418729D01*
X492759Y418976D01*
X492759Y419224D01*
X492753Y419471D01*
X492741Y419718D01*
X492723Y419965D01*
X492699Y420211D01*
X492669Y420457D01*
X492633Y420702D01*
X492591Y420945D01*
X492543Y421188D01*
X492489Y421430D01*
X492430Y421670D01*
X492364Y421908D01*
X492293Y422145D01*
X492216Y422380D01*
X492133Y422614D01*
X492045Y422845D01*
X491951Y423074D01*
X491851Y423300D01*
X491746Y423524D01*
X491636Y423746D01*
X491520Y423964D01*
X491399Y424180D01*
X491273Y424393D01*
X491141Y424602D01*
X491005Y424809D01*
X490863Y425012D01*
X490717Y425211D01*
X490565Y425407D01*
X490409Y425599D01*
X490249Y425787D01*
X490084Y425972D01*
X489914Y426152D01*
X489740Y426328D01*
X489562Y426500D01*
X489380Y426667D01*
X489194Y426830D01*
X489004Y426988D01*
X488810Y427142D01*
X488612Y427290D01*
X488411Y427434D01*
X488206Y427573D01*
X487998Y427707D01*
X487787Y427836D01*
X487572Y427960D01*
X487355Y428078D01*
X487135Y428192D01*
X486912Y428299D01*
X486687Y428402D01*
X486459Y428498D01*
X486229Y428590D01*
X485997Y428675D01*
X485763Y428755D01*
X485527Y428829D01*
X485289Y428898D01*
X485050Y428960D01*
X484809Y429017D01*
X484567Y429068D01*
X484324Y429113D01*
X484079Y429152D01*
X483834Y429185D01*
X483588Y429212D01*
X483342Y429233D01*
X483095Y429248D01*
X482847Y429257D01*
X482600Y429260D01*
X482600Y444500D02*
X584200Y444500D01*
X482600Y444500D02*
X482600Y429260D01*
X584200Y444500D02*
X584200Y393700D01*
X482600Y393700D01*
X482600Y408940D01*
X584200Y393700D02*
X584200Y368300D01*
D11*
X478155Y394335D02*
X466725Y394335D01*
X478155Y393065D02*
X478155Y395605D01*
X466725Y395605D02*
X466725Y393065D01*
X478155Y402807D02*
X478155Y405347D01*
X478155Y402807D02*
X478153Y402707D01*
X478147Y402608D01*
X478137Y402508D01*
X478124Y402410D01*
X478106Y402311D01*
X478085Y402214D01*
X478060Y402118D01*
X478031Y402022D01*
X477998Y401928D01*
X477962Y401835D01*
X477922Y401744D01*
X477878Y401654D01*
X477831Y401566D01*
X477781Y401480D01*
X477727Y401396D01*
X477670Y401314D01*
X477610Y401235D01*
X477546Y401157D01*
X477480Y401083D01*
X477411Y401011D01*
X477339Y400942D01*
X477265Y400876D01*
X477187Y400812D01*
X477108Y400752D01*
X477026Y400695D01*
X476942Y400641D01*
X476856Y400591D01*
X476768Y400544D01*
X476678Y400500D01*
X476587Y400460D01*
X476494Y400424D01*
X476400Y400391D01*
X476304Y400362D01*
X476208Y400337D01*
X476111Y400316D01*
X476012Y400298D01*
X475914Y400285D01*
X475814Y400275D01*
X475715Y400269D01*
X475615Y400267D01*
X469265Y400267D01*
X469165Y400269D01*
X469066Y400275D01*
X468966Y400285D01*
X468868Y400298D01*
X468769Y400316D01*
X468672Y400337D01*
X468576Y400362D01*
X468480Y400391D01*
X468386Y400424D01*
X468293Y400460D01*
X468202Y400500D01*
X468112Y400544D01*
X468024Y400591D01*
X467938Y400641D01*
X467854Y400695D01*
X467772Y400752D01*
X467693Y400812D01*
X467615Y400876D01*
X467541Y400942D01*
X467469Y401011D01*
X467400Y401083D01*
X467334Y401157D01*
X467270Y401235D01*
X467210Y401314D01*
X467153Y401396D01*
X467099Y401480D01*
X467049Y401566D01*
X467002Y401654D01*
X466958Y401744D01*
X466918Y401835D01*
X466882Y401928D01*
X466849Y402022D01*
X466820Y402118D01*
X466795Y402214D01*
X466774Y402311D01*
X466756Y402410D01*
X466743Y402508D01*
X466733Y402608D01*
X466727Y402707D01*
X466725Y402807D01*
X466725Y405347D01*
X466725Y413321D02*
X466727Y413425D01*
X466733Y413530D01*
X466742Y413634D01*
X466755Y413737D01*
X466773Y413840D01*
X466793Y413942D01*
X466818Y414044D01*
X466846Y414144D01*
X466878Y414244D01*
X466914Y414342D01*
X466953Y414439D01*
X466995Y414534D01*
X467041Y414628D01*
X467091Y414720D01*
X467143Y414810D01*
X467199Y414898D01*
X467259Y414984D01*
X467321Y415068D01*
X467386Y415149D01*
X467454Y415228D01*
X467526Y415305D01*
X467599Y415378D01*
X467676Y415450D01*
X467755Y415518D01*
X467836Y415583D01*
X467920Y415645D01*
X468006Y415705D01*
X468094Y415761D01*
X468184Y415813D01*
X468276Y415863D01*
X468370Y415909D01*
X468465Y415951D01*
X468562Y415990D01*
X468660Y416026D01*
X468760Y416058D01*
X468860Y416086D01*
X468962Y416111D01*
X469064Y416131D01*
X469167Y416149D01*
X469270Y416162D01*
X469374Y416171D01*
X469479Y416177D01*
X469583Y416179D01*
X466725Y413321D02*
X466727Y413203D01*
X466733Y413084D01*
X466742Y412966D01*
X466755Y412849D01*
X466773Y412732D01*
X466793Y412615D01*
X466818Y412499D01*
X466846Y412384D01*
X466879Y412271D01*
X466914Y412158D01*
X466954Y412046D01*
X466996Y411936D01*
X467043Y411827D01*
X467093Y411719D01*
X467146Y411614D01*
X467203Y411510D01*
X467263Y411408D01*
X467326Y411308D01*
X467393Y411210D01*
X467462Y411114D01*
X467535Y411021D01*
X467611Y410930D01*
X467689Y410841D01*
X467771Y410755D01*
X467855Y410672D01*
X467941Y410591D01*
X468031Y410514D01*
X468122Y410439D01*
X468216Y410367D01*
X468313Y410298D01*
X468411Y410233D01*
X468512Y410170D01*
X468615Y410111D01*
X468719Y410055D01*
X468825Y410003D01*
X468933Y409954D01*
X469042Y409909D01*
X469153Y409867D01*
X469265Y409829D01*
X471805Y415227D02*
X471730Y415303D01*
X471651Y415378D01*
X471570Y415449D01*
X471486Y415518D01*
X471400Y415583D01*
X471312Y415645D01*
X471222Y415705D01*
X471130Y415761D01*
X471035Y415814D01*
X470939Y415863D01*
X470841Y415909D01*
X470742Y415952D01*
X470641Y415991D01*
X470539Y416026D01*
X470436Y416058D01*
X470332Y416086D01*
X470227Y416111D01*
X470120Y416132D01*
X470014Y416149D01*
X469907Y416162D01*
X469799Y416171D01*
X469691Y416177D01*
X469583Y416179D01*
X471805Y415226D02*
X478155Y409829D01*
X478155Y416179D01*
D10*
X621500Y187500D02*
X13500Y187500D01*
X13500Y9000D02*
X621500Y9000D01*
X13500Y9000D02*
X13500Y187500D01*
X621503Y187500D02*
X621503Y9000D01*
X621478Y9007D01*
X534500Y-191500D02*
X100500Y-191500D01*
X534500Y-191500D02*
X534500Y9009D01*
X534536Y9009D01*
X100500Y8999D02*
X100500Y-191500D01*
X534511Y-184000D02*
X534511Y8999D01*
X534478Y8999D01*
X13794Y202500D02*
X13794Y215153D01*
X13794Y202500D02*
X13792Y202382D01*
X13786Y202264D01*
X13777Y202146D01*
X13763Y202028D01*
X13746Y201911D01*
X13725Y201795D01*
X13700Y201679D01*
X13671Y201564D01*
X13638Y201451D01*
X13602Y201338D01*
X13562Y201227D01*
X13519Y201117D01*
X13472Y201008D01*
X13421Y200901D01*
X13367Y200796D01*
X13310Y200693D01*
X13249Y200591D01*
X13185Y200492D01*
X13117Y200394D01*
X13047Y200299D01*
X12973Y200207D01*
X12897Y200116D01*
X12817Y200029D01*
X12735Y199944D01*
X12650Y199862D01*
X12563Y199782D01*
X12472Y199706D01*
X12380Y199632D01*
X12285Y199562D01*
X12187Y199494D01*
X12088Y199430D01*
X11987Y199369D01*
X11883Y199312D01*
X11778Y199258D01*
X11671Y199207D01*
X11562Y199160D01*
X11452Y199117D01*
X11341Y199077D01*
X11228Y199041D01*
X11115Y199008D01*
X11000Y198979D01*
X10884Y198954D01*
X10768Y198933D01*
X10651Y198916D01*
X10533Y198902D01*
X10415Y198893D01*
X10297Y198887D01*
X10179Y198885D01*
X8371Y198885D01*
X20863Y211538D02*
X25382Y215153D01*
X25382Y198885D01*
X20863Y198885D02*
X29901Y198885D01*
D12*
X175800Y203200D02*
X175802Y203289D01*
X175808Y203378D01*
X175818Y203467D01*
X175832Y203555D01*
X175849Y203642D01*
X175871Y203728D01*
X175897Y203814D01*
X175926Y203898D01*
X175959Y203981D01*
X175995Y204062D01*
X176036Y204142D01*
X176079Y204219D01*
X176126Y204295D01*
X176177Y204368D01*
X176230Y204439D01*
X176287Y204508D01*
X176347Y204574D01*
X176410Y204638D01*
X176475Y204698D01*
X176543Y204756D01*
X176614Y204810D01*
X176687Y204861D01*
X176762Y204909D01*
X176839Y204954D01*
X176918Y204995D01*
X176999Y205032D01*
X177081Y205066D01*
X177165Y205097D01*
X177250Y205123D01*
X177336Y205146D01*
X177423Y205164D01*
X177511Y205179D01*
X177600Y205190D01*
X177689Y205197D01*
X177778Y205200D01*
X177867Y205199D01*
X177956Y205194D01*
X178044Y205185D01*
X178133Y205172D01*
X178220Y205155D01*
X178307Y205135D01*
X178393Y205110D01*
X178477Y205082D01*
X178560Y205050D01*
X178642Y205014D01*
X178722Y204975D01*
X178800Y204932D01*
X178876Y204886D01*
X178950Y204836D01*
X179022Y204783D01*
X179091Y204727D01*
X179158Y204668D01*
X179222Y204606D01*
X179283Y204542D01*
X179342Y204474D01*
X179397Y204404D01*
X179449Y204332D01*
X179498Y204257D01*
X179543Y204181D01*
X179585Y204102D01*
X179623Y204022D01*
X179658Y203940D01*
X179689Y203856D01*
X179717Y203771D01*
X179740Y203685D01*
X179760Y203598D01*
X179776Y203511D01*
X179788Y203422D01*
X179796Y203334D01*
X179800Y203245D01*
X179800Y203155D01*
X179796Y203066D01*
X179788Y202978D01*
X179776Y202889D01*
X179760Y202802D01*
X179740Y202715D01*
X179717Y202629D01*
X179689Y202544D01*
X179658Y202460D01*
X179623Y202378D01*
X179585Y202298D01*
X179543Y202219D01*
X179498Y202143D01*
X179449Y202068D01*
X179397Y201996D01*
X179342Y201926D01*
X179283Y201858D01*
X179222Y201794D01*
X179158Y201732D01*
X179091Y201673D01*
X179022Y201617D01*
X178950Y201564D01*
X178876Y201514D01*
X178800Y201468D01*
X178722Y201425D01*
X178642Y201386D01*
X178560Y201350D01*
X178477Y201318D01*
X178393Y201290D01*
X178307Y201265D01*
X178220Y201245D01*
X178133Y201228D01*
X178044Y201215D01*
X177956Y201206D01*
X177867Y201201D01*
X177778Y201200D01*
X177689Y201203D01*
X177600Y201210D01*
X177511Y201221D01*
X177423Y201236D01*
X177336Y201254D01*
X177250Y201277D01*
X177165Y201303D01*
X177081Y201334D01*
X176999Y201368D01*
X176918Y201405D01*
X176839Y201446D01*
X176762Y201491D01*
X176687Y201539D01*
X176614Y201590D01*
X176543Y201644D01*
X176475Y201702D01*
X176410Y201762D01*
X176347Y201826D01*
X176287Y201892D01*
X176230Y201961D01*
X176177Y202032D01*
X176126Y202105D01*
X176079Y202181D01*
X176036Y202258D01*
X175995Y202338D01*
X175959Y202419D01*
X175926Y202502D01*
X175897Y202586D01*
X175871Y202672D01*
X175849Y202758D01*
X175832Y202845D01*
X175818Y202933D01*
X175808Y203022D01*
X175802Y203111D01*
X175800Y203200D01*
D13*
X0Y203200D02*
X0Y381000D01*
X0Y203200D02*
X431800Y203200D01*
X431800Y381000D01*
X0Y381000D01*
D14*
X412281Y240174D02*
X421519Y240174D01*
X417413Y243253D02*
X412281Y240174D01*
X417413Y243253D02*
X412281Y246332D01*
X421519Y246332D01*
X418953Y250587D02*
X414847Y250587D01*
X414748Y250589D01*
X414648Y250595D01*
X414549Y250604D01*
X414451Y250618D01*
X414353Y250635D01*
X414255Y250656D01*
X414159Y250681D01*
X414064Y250710D01*
X413969Y250742D01*
X413877Y250778D01*
X413785Y250817D01*
X413695Y250860D01*
X413607Y250906D01*
X413521Y250956D01*
X413437Y251009D01*
X413355Y251065D01*
X413275Y251125D01*
X413198Y251187D01*
X413123Y251253D01*
X413050Y251321D01*
X412981Y251392D01*
X412914Y251466D01*
X412850Y251542D01*
X412789Y251621D01*
X412731Y251702D01*
X412676Y251785D01*
X412625Y251870D01*
X412577Y251957D01*
X412532Y252046D01*
X412491Y252137D01*
X412453Y252229D01*
X412419Y252322D01*
X412389Y252417D01*
X412362Y252513D01*
X412339Y252610D01*
X412320Y252707D01*
X412305Y252806D01*
X412293Y252905D01*
X412285Y253004D01*
X412281Y253103D01*
X412281Y253203D01*
X412285Y253302D01*
X412293Y253401D01*
X412305Y253500D01*
X412320Y253599D01*
X412339Y253696D01*
X412362Y253793D01*
X412389Y253889D01*
X412419Y253984D01*
X412453Y254077D01*
X412491Y254169D01*
X412532Y254260D01*
X412577Y254349D01*
X412625Y254436D01*
X412676Y254521D01*
X412731Y254604D01*
X412789Y254685D01*
X412850Y254764D01*
X412914Y254840D01*
X412981Y254914D01*
X413050Y254985D01*
X413123Y255053D01*
X413198Y255119D01*
X413275Y255181D01*
X413355Y255241D01*
X413437Y255297D01*
X413521Y255350D01*
X413607Y255400D01*
X413695Y255446D01*
X413785Y255489D01*
X413877Y255528D01*
X413969Y255564D01*
X414064Y255596D01*
X414159Y255625D01*
X414255Y255650D01*
X414353Y255671D01*
X414451Y255688D01*
X414549Y255702D01*
X414648Y255711D01*
X414748Y255717D01*
X414847Y255719D01*
X418953Y255719D01*
X419052Y255717D01*
X419152Y255711D01*
X419251Y255702D01*
X419349Y255688D01*
X419447Y255671D01*
X419545Y255650D01*
X419641Y255625D01*
X419736Y255596D01*
X419831Y255564D01*
X419923Y255528D01*
X420015Y255489D01*
X420105Y255446D01*
X420193Y255400D01*
X420279Y255350D01*
X420363Y255297D01*
X420445Y255241D01*
X420525Y255181D01*
X420602Y255119D01*
X420677Y255053D01*
X420750Y254985D01*
X420819Y254914D01*
X420886Y254840D01*
X420950Y254764D01*
X421011Y254685D01*
X421069Y254604D01*
X421124Y254521D01*
X421175Y254436D01*
X421223Y254349D01*
X421268Y254260D01*
X421309Y254169D01*
X421347Y254077D01*
X421381Y253984D01*
X421411Y253889D01*
X421438Y253793D01*
X421461Y253696D01*
X421480Y253599D01*
X421495Y253500D01*
X421507Y253401D01*
X421515Y253302D01*
X421519Y253203D01*
X421519Y253103D01*
X421515Y253004D01*
X421507Y252905D01*
X421495Y252806D01*
X421480Y252707D01*
X421461Y252610D01*
X421438Y252513D01*
X421411Y252417D01*
X421381Y252322D01*
X421347Y252229D01*
X421309Y252137D01*
X421268Y252046D01*
X421223Y251957D01*
X421175Y251870D01*
X421124Y251785D01*
X421069Y251702D01*
X421011Y251621D01*
X420950Y251542D01*
X420886Y251466D01*
X420819Y251392D01*
X420750Y251321D01*
X420677Y251253D01*
X420602Y251187D01*
X420525Y251125D01*
X420445Y251065D01*
X420363Y251009D01*
X420279Y250956D01*
X420193Y250906D01*
X420105Y250860D01*
X420015Y250817D01*
X419923Y250778D01*
X419831Y250742D01*
X419736Y250710D01*
X419641Y250681D01*
X419545Y250656D01*
X419447Y250635D01*
X419349Y250618D01*
X419251Y250604D01*
X419152Y250595D01*
X419052Y250589D01*
X418953Y250587D01*
X421519Y259887D02*
X412281Y259887D01*
X412281Y262453D01*
X412283Y262551D01*
X412289Y262649D01*
X412298Y262747D01*
X412311Y262845D01*
X412328Y262942D01*
X412348Y263038D01*
X412373Y263133D01*
X412401Y263227D01*
X412432Y263320D01*
X412467Y263412D01*
X412506Y263503D01*
X412547Y263592D01*
X412593Y263679D01*
X412641Y263764D01*
X412693Y263848D01*
X412748Y263929D01*
X412806Y264009D01*
X412867Y264086D01*
X412931Y264160D01*
X412998Y264232D01*
X413068Y264302D01*
X413140Y264369D01*
X413214Y264433D01*
X413291Y264494D01*
X413371Y264552D01*
X413452Y264607D01*
X413536Y264659D01*
X413621Y264707D01*
X413708Y264753D01*
X413797Y264794D01*
X413888Y264833D01*
X413980Y264868D01*
X414073Y264899D01*
X414167Y264927D01*
X414262Y264952D01*
X414358Y264972D01*
X414455Y264989D01*
X414553Y265002D01*
X414651Y265011D01*
X414749Y265017D01*
X414847Y265019D01*
X418953Y265019D01*
X419051Y265017D01*
X419149Y265011D01*
X419247Y265002D01*
X419345Y264989D01*
X419442Y264972D01*
X419538Y264952D01*
X419633Y264927D01*
X419727Y264899D01*
X419820Y264868D01*
X419912Y264833D01*
X420003Y264794D01*
X420092Y264753D01*
X420179Y264707D01*
X420264Y264659D01*
X420348Y264607D01*
X420429Y264552D01*
X420509Y264494D01*
X420586Y264433D01*
X420660Y264369D01*
X420732Y264302D01*
X420802Y264232D01*
X420869Y264160D01*
X420933Y264086D01*
X420994Y264009D01*
X421052Y263929D01*
X421107Y263848D01*
X421159Y263764D01*
X421207Y263679D01*
X421253Y263592D01*
X421294Y263503D01*
X421333Y263412D01*
X421368Y263320D01*
X421399Y263227D01*
X421427Y263133D01*
X421452Y263038D01*
X421472Y262942D01*
X421489Y262845D01*
X421502Y262747D01*
X421511Y262649D01*
X421517Y262551D01*
X421519Y262453D01*
X421519Y259887D01*
X418953Y269487D02*
X412281Y269487D01*
X418953Y269487D02*
X419052Y269489D01*
X419152Y269495D01*
X419251Y269504D01*
X419349Y269518D01*
X419447Y269535D01*
X419545Y269556D01*
X419641Y269581D01*
X419736Y269610D01*
X419831Y269642D01*
X419923Y269678D01*
X420015Y269717D01*
X420105Y269760D01*
X420193Y269806D01*
X420279Y269856D01*
X420363Y269909D01*
X420445Y269965D01*
X420525Y270025D01*
X420602Y270087D01*
X420677Y270153D01*
X420750Y270221D01*
X420819Y270292D01*
X420886Y270366D01*
X420950Y270442D01*
X421011Y270521D01*
X421069Y270602D01*
X421124Y270685D01*
X421175Y270770D01*
X421223Y270857D01*
X421268Y270946D01*
X421309Y271037D01*
X421347Y271129D01*
X421381Y271222D01*
X421411Y271317D01*
X421438Y271413D01*
X421461Y271510D01*
X421480Y271607D01*
X421495Y271706D01*
X421507Y271805D01*
X421515Y271904D01*
X421519Y272003D01*
X421519Y272103D01*
X421515Y272202D01*
X421507Y272301D01*
X421495Y272400D01*
X421480Y272499D01*
X421461Y272596D01*
X421438Y272693D01*
X421411Y272789D01*
X421381Y272884D01*
X421347Y272977D01*
X421309Y273069D01*
X421268Y273160D01*
X421223Y273249D01*
X421175Y273336D01*
X421124Y273421D01*
X421069Y273504D01*
X421011Y273585D01*
X420950Y273664D01*
X420886Y273740D01*
X420819Y273814D01*
X420750Y273885D01*
X420677Y273953D01*
X420602Y274019D01*
X420525Y274081D01*
X420445Y274141D01*
X420363Y274197D01*
X420279Y274250D01*
X420193Y274300D01*
X420105Y274346D01*
X420015Y274389D01*
X419923Y274428D01*
X419831Y274464D01*
X419736Y274496D01*
X419641Y274525D01*
X419545Y274550D01*
X419447Y274571D01*
X419349Y274588D01*
X419251Y274602D01*
X419152Y274611D01*
X419052Y274617D01*
X418953Y274619D01*
X412281Y274619D01*
X412281Y279104D02*
X421519Y279104D01*
X421519Y283210D01*
X414334Y286587D02*
X412281Y289153D01*
X421519Y289153D01*
X421519Y286587D02*
X421519Y291719D01*
D15*
X367792Y419608D02*
X356108Y419608D01*
X367792Y419608D02*
X367792Y424801D01*
X367792Y429514D02*
X367792Y434707D01*
X367792Y429514D02*
X356108Y429514D01*
X356108Y434707D01*
X361301Y433409D02*
X361301Y429514D01*
X356108Y439397D02*
X367792Y439397D01*
X356108Y439397D02*
X356108Y442643D01*
X356110Y442756D01*
X356116Y442869D01*
X356126Y442982D01*
X356140Y443095D01*
X356157Y443207D01*
X356179Y443318D01*
X356204Y443428D01*
X356234Y443538D01*
X356267Y443646D01*
X356304Y443753D01*
X356344Y443859D01*
X356389Y443963D01*
X356437Y444066D01*
X356488Y444167D01*
X356543Y444266D01*
X356601Y444363D01*
X356663Y444458D01*
X356728Y444551D01*
X356796Y444641D01*
X356867Y444729D01*
X356942Y444815D01*
X357019Y444898D01*
X357099Y444978D01*
X357182Y445055D01*
X357268Y445130D01*
X357356Y445201D01*
X357446Y445269D01*
X357539Y445334D01*
X357634Y445396D01*
X357731Y445454D01*
X357830Y445509D01*
X357931Y445560D01*
X358034Y445608D01*
X358138Y445653D01*
X358244Y445693D01*
X358351Y445730D01*
X358459Y445763D01*
X358569Y445793D01*
X358679Y445818D01*
X358790Y445840D01*
X358902Y445857D01*
X359015Y445871D01*
X359128Y445881D01*
X359241Y445887D01*
X359354Y445889D01*
X364546Y445889D01*
X364659Y445887D01*
X364772Y445881D01*
X364885Y445871D01*
X364998Y445857D01*
X365110Y445840D01*
X365221Y445818D01*
X365331Y445793D01*
X365441Y445763D01*
X365549Y445730D01*
X365656Y445693D01*
X365762Y445653D01*
X365866Y445608D01*
X365969Y445560D01*
X366070Y445509D01*
X366169Y445454D01*
X366266Y445396D01*
X366361Y445334D01*
X366454Y445269D01*
X366544Y445201D01*
X366632Y445130D01*
X366718Y445055D01*
X366801Y444978D01*
X366881Y444898D01*
X366958Y444815D01*
X367033Y444729D01*
X367104Y444641D01*
X367172Y444551D01*
X367237Y444458D01*
X367299Y444363D01*
X367357Y444266D01*
X367412Y444167D01*
X367463Y444066D01*
X367511Y443963D01*
X367556Y443859D01*
X367596Y443753D01*
X367633Y443646D01*
X367666Y443538D01*
X367696Y443428D01*
X367721Y443318D01*
X367743Y443207D01*
X367760Y443095D01*
X367774Y442982D01*
X367784Y442869D01*
X367790Y442756D01*
X367792Y442643D01*
X367792Y439397D01*
X358704Y451208D02*
X356108Y454454D01*
X367792Y454454D01*
X367792Y457699D02*
X367792Y451208D01*
D16*
X375000Y433300D03*
X387000Y433300D03*
D17*
X381000Y433300D03*
D15*
X291592Y419608D02*
X279908Y419608D01*
X291592Y419608D02*
X291592Y424801D01*
X291592Y429514D02*
X291592Y434707D01*
X291592Y429514D02*
X279908Y429514D01*
X279908Y434707D01*
X285101Y433409D02*
X285101Y429514D01*
X279908Y439397D02*
X291592Y439397D01*
X279908Y439397D02*
X279908Y442643D01*
X279910Y442756D01*
X279916Y442869D01*
X279926Y442982D01*
X279940Y443095D01*
X279957Y443207D01*
X279979Y443318D01*
X280004Y443428D01*
X280034Y443538D01*
X280067Y443646D01*
X280104Y443753D01*
X280144Y443859D01*
X280189Y443963D01*
X280237Y444066D01*
X280288Y444167D01*
X280343Y444266D01*
X280401Y444363D01*
X280463Y444458D01*
X280528Y444551D01*
X280596Y444641D01*
X280667Y444729D01*
X280742Y444815D01*
X280819Y444898D01*
X280899Y444978D01*
X280982Y445055D01*
X281068Y445130D01*
X281156Y445201D01*
X281246Y445269D01*
X281339Y445334D01*
X281434Y445396D01*
X281531Y445454D01*
X281630Y445509D01*
X281731Y445560D01*
X281834Y445608D01*
X281938Y445653D01*
X282044Y445693D01*
X282151Y445730D01*
X282259Y445763D01*
X282369Y445793D01*
X282479Y445818D01*
X282590Y445840D01*
X282702Y445857D01*
X282815Y445871D01*
X282928Y445881D01*
X283041Y445887D01*
X283154Y445889D01*
X288346Y445889D01*
X288459Y445887D01*
X288572Y445881D01*
X288685Y445871D01*
X288798Y445857D01*
X288910Y445840D01*
X289021Y445818D01*
X289131Y445793D01*
X289241Y445763D01*
X289349Y445730D01*
X289456Y445693D01*
X289562Y445653D01*
X289666Y445608D01*
X289769Y445560D01*
X289870Y445509D01*
X289969Y445454D01*
X290066Y445396D01*
X290161Y445334D01*
X290254Y445269D01*
X290344Y445201D01*
X290432Y445130D01*
X290518Y445055D01*
X290601Y444978D01*
X290681Y444898D01*
X290758Y444815D01*
X290833Y444729D01*
X290904Y444641D01*
X290972Y444551D01*
X291037Y444458D01*
X291099Y444363D01*
X291157Y444266D01*
X291212Y444167D01*
X291263Y444066D01*
X291311Y443963D01*
X291356Y443859D01*
X291396Y443753D01*
X291433Y443646D01*
X291466Y443538D01*
X291496Y443428D01*
X291521Y443318D01*
X291543Y443207D01*
X291560Y443095D01*
X291574Y442982D01*
X291584Y442869D01*
X291590Y442756D01*
X291592Y442643D01*
X291592Y439397D01*
X279908Y454778D02*
X279910Y454885D01*
X279916Y454991D01*
X279926Y455097D01*
X279939Y455203D01*
X279957Y455309D01*
X279978Y455413D01*
X280003Y455517D01*
X280032Y455620D01*
X280064Y455721D01*
X280101Y455821D01*
X280141Y455920D01*
X280184Y456018D01*
X280231Y456114D01*
X280282Y456208D01*
X280336Y456300D01*
X280393Y456390D01*
X280453Y456478D01*
X280517Y456563D01*
X280584Y456646D01*
X280654Y456727D01*
X280726Y456805D01*
X280802Y456881D01*
X280880Y456953D01*
X280961Y457023D01*
X281044Y457090D01*
X281129Y457154D01*
X281217Y457214D01*
X281307Y457271D01*
X281399Y457325D01*
X281493Y457376D01*
X281589Y457423D01*
X281687Y457466D01*
X281786Y457506D01*
X281886Y457543D01*
X281987Y457575D01*
X282090Y457604D01*
X282194Y457629D01*
X282298Y457650D01*
X282404Y457668D01*
X282510Y457681D01*
X282616Y457691D01*
X282722Y457697D01*
X282829Y457699D01*
X279908Y454778D02*
X279910Y454657D01*
X279916Y454536D01*
X279926Y454416D01*
X279939Y454295D01*
X279957Y454176D01*
X279978Y454056D01*
X280003Y453938D01*
X280032Y453821D01*
X280065Y453704D01*
X280101Y453589D01*
X280142Y453475D01*
X280185Y453362D01*
X280233Y453250D01*
X280284Y453141D01*
X280339Y453033D01*
X280397Y452926D01*
X280458Y452822D01*
X280523Y452720D01*
X280591Y452620D01*
X280662Y452522D01*
X280736Y452426D01*
X280813Y452333D01*
X280894Y452243D01*
X280977Y452155D01*
X281063Y452070D01*
X281152Y451987D01*
X281243Y451908D01*
X281337Y451831D01*
X281433Y451758D01*
X281531Y451688D01*
X281632Y451621D01*
X281735Y451557D01*
X281840Y451497D01*
X281947Y451439D01*
X282055Y451386D01*
X282165Y451336D01*
X282277Y451290D01*
X282390Y451247D01*
X282505Y451208D01*
X285101Y456725D02*
X285023Y456804D01*
X284943Y456880D01*
X284860Y456953D01*
X284774Y457023D01*
X284687Y457090D01*
X284596Y457154D01*
X284504Y457214D01*
X284410Y457272D01*
X284313Y457326D01*
X284215Y457376D01*
X284115Y457423D01*
X284014Y457467D01*
X283911Y457507D01*
X283806Y457543D01*
X283701Y457575D01*
X283594Y457604D01*
X283487Y457629D01*
X283378Y457651D01*
X283269Y457668D01*
X283160Y457682D01*
X283050Y457691D01*
X282939Y457697D01*
X282829Y457699D01*
X285101Y456726D02*
X291592Y451208D01*
X291592Y457699D01*
D16*
X298800Y433300D03*
X310800Y433300D03*
D17*
X304800Y433300D03*
D15*
X202692Y419608D02*
X191008Y419608D01*
X202692Y419608D02*
X202692Y424801D01*
X202692Y429514D02*
X202692Y434707D01*
X202692Y429514D02*
X191008Y429514D01*
X191008Y434707D01*
X196201Y433409D02*
X196201Y429514D01*
X191008Y439397D02*
X202692Y439397D01*
X191008Y439397D02*
X191008Y442643D01*
X191010Y442756D01*
X191016Y442869D01*
X191026Y442982D01*
X191040Y443095D01*
X191057Y443207D01*
X191079Y443318D01*
X191104Y443428D01*
X191134Y443538D01*
X191167Y443646D01*
X191204Y443753D01*
X191244Y443859D01*
X191289Y443963D01*
X191337Y444066D01*
X191388Y444167D01*
X191443Y444266D01*
X191501Y444363D01*
X191563Y444458D01*
X191628Y444551D01*
X191696Y444641D01*
X191767Y444729D01*
X191842Y444815D01*
X191919Y444898D01*
X191999Y444978D01*
X192082Y445055D01*
X192168Y445130D01*
X192256Y445201D01*
X192346Y445269D01*
X192439Y445334D01*
X192534Y445396D01*
X192631Y445454D01*
X192730Y445509D01*
X192831Y445560D01*
X192934Y445608D01*
X193038Y445653D01*
X193144Y445693D01*
X193251Y445730D01*
X193359Y445763D01*
X193469Y445793D01*
X193579Y445818D01*
X193690Y445840D01*
X193802Y445857D01*
X193915Y445871D01*
X194028Y445881D01*
X194141Y445887D01*
X194254Y445889D01*
X199446Y445889D01*
X199559Y445887D01*
X199672Y445881D01*
X199785Y445871D01*
X199898Y445857D01*
X200010Y445840D01*
X200121Y445818D01*
X200231Y445793D01*
X200341Y445763D01*
X200449Y445730D01*
X200556Y445693D01*
X200662Y445653D01*
X200766Y445608D01*
X200869Y445560D01*
X200970Y445509D01*
X201069Y445454D01*
X201166Y445396D01*
X201261Y445334D01*
X201354Y445269D01*
X201444Y445201D01*
X201532Y445130D01*
X201618Y445055D01*
X201701Y444978D01*
X201781Y444898D01*
X201858Y444815D01*
X201933Y444729D01*
X202004Y444641D01*
X202072Y444551D01*
X202137Y444458D01*
X202199Y444363D01*
X202257Y444266D01*
X202312Y444167D01*
X202363Y444066D01*
X202411Y443963D01*
X202456Y443859D01*
X202496Y443753D01*
X202533Y443646D01*
X202566Y443538D01*
X202596Y443428D01*
X202621Y443318D01*
X202643Y443207D01*
X202660Y443095D01*
X202674Y442982D01*
X202684Y442869D01*
X202690Y442756D01*
X202692Y442643D01*
X202692Y439397D01*
X202692Y451208D02*
X202692Y454454D01*
X202690Y454567D01*
X202684Y454680D01*
X202674Y454793D01*
X202660Y454906D01*
X202643Y455018D01*
X202621Y455129D01*
X202596Y455239D01*
X202566Y455349D01*
X202533Y455457D01*
X202496Y455564D01*
X202456Y455670D01*
X202411Y455774D01*
X202363Y455877D01*
X202312Y455978D01*
X202257Y456077D01*
X202199Y456174D01*
X202137Y456269D01*
X202072Y456362D01*
X202004Y456452D01*
X201933Y456540D01*
X201858Y456626D01*
X201781Y456709D01*
X201701Y456789D01*
X201618Y456866D01*
X201532Y456941D01*
X201444Y457012D01*
X201354Y457080D01*
X201261Y457145D01*
X201166Y457207D01*
X201069Y457265D01*
X200970Y457320D01*
X200869Y457371D01*
X200766Y457419D01*
X200662Y457464D01*
X200556Y457504D01*
X200449Y457541D01*
X200341Y457574D01*
X200231Y457604D01*
X200121Y457629D01*
X200010Y457651D01*
X199898Y457668D01*
X199785Y457682D01*
X199672Y457692D01*
X199559Y457698D01*
X199446Y457700D01*
X199333Y457698D01*
X199220Y457692D01*
X199107Y457682D01*
X198994Y457668D01*
X198882Y457651D01*
X198771Y457629D01*
X198661Y457604D01*
X198551Y457574D01*
X198443Y457541D01*
X198336Y457504D01*
X198230Y457464D01*
X198126Y457419D01*
X198023Y457371D01*
X197922Y457320D01*
X197823Y457265D01*
X197726Y457207D01*
X197631Y457145D01*
X197538Y457080D01*
X197448Y457012D01*
X197360Y456941D01*
X197274Y456866D01*
X197191Y456789D01*
X197111Y456709D01*
X197034Y456626D01*
X196959Y456540D01*
X196888Y456452D01*
X196820Y456362D01*
X196755Y456269D01*
X196693Y456174D01*
X196635Y456077D01*
X196580Y455978D01*
X196529Y455877D01*
X196481Y455774D01*
X196436Y455670D01*
X196396Y455564D01*
X196359Y455457D01*
X196326Y455349D01*
X196296Y455239D01*
X196271Y455129D01*
X196249Y455018D01*
X196232Y454906D01*
X196218Y454793D01*
X196208Y454680D01*
X196202Y454567D01*
X196200Y454454D01*
X191008Y455103D02*
X191008Y451208D01*
X191008Y455103D02*
X191010Y455204D01*
X191016Y455304D01*
X191026Y455404D01*
X191039Y455504D01*
X191057Y455603D01*
X191078Y455702D01*
X191103Y455799D01*
X191132Y455896D01*
X191165Y455991D01*
X191201Y456085D01*
X191241Y456177D01*
X191284Y456268D01*
X191331Y456357D01*
X191381Y456444D01*
X191435Y456530D01*
X191492Y456613D01*
X191552Y456693D01*
X191615Y456772D01*
X191682Y456848D01*
X191751Y456921D01*
X191823Y456991D01*
X191897Y457059D01*
X191974Y457124D01*
X192054Y457185D01*
X192136Y457244D01*
X192220Y457299D01*
X192306Y457351D01*
X192394Y457400D01*
X192484Y457445D01*
X192576Y457487D01*
X192669Y457525D01*
X192764Y457559D01*
X192859Y457590D01*
X192956Y457617D01*
X193054Y457640D01*
X193153Y457660D01*
X193253Y457675D01*
X193353Y457687D01*
X193453Y457695D01*
X193554Y457699D01*
X193654Y457699D01*
X193755Y457695D01*
X193855Y457687D01*
X193955Y457675D01*
X194055Y457660D01*
X194154Y457640D01*
X194252Y457617D01*
X194349Y457590D01*
X194444Y457559D01*
X194539Y457525D01*
X194632Y457487D01*
X194724Y457445D01*
X194814Y457400D01*
X194902Y457351D01*
X194988Y457299D01*
X195072Y457244D01*
X195154Y457185D01*
X195234Y457124D01*
X195311Y457059D01*
X195385Y456991D01*
X195457Y456921D01*
X195526Y456848D01*
X195593Y456772D01*
X195656Y456693D01*
X195716Y456613D01*
X195773Y456530D01*
X195827Y456444D01*
X195877Y456357D01*
X195924Y456268D01*
X195967Y456177D01*
X196007Y456085D01*
X196043Y455991D01*
X196076Y455896D01*
X196105Y455799D01*
X196130Y455702D01*
X196151Y455603D01*
X196169Y455504D01*
X196182Y455404D01*
X196192Y455304D01*
X196198Y455204D01*
X196200Y455103D01*
X196201Y455103D02*
X196201Y452507D01*
D16*
X209900Y433300D03*
X221900Y433300D03*
D17*
X215900Y433300D03*
D15*
X146558Y445008D02*
X146558Y456692D01*
X149804Y456692D01*
X149917Y456690D01*
X150030Y456684D01*
X150143Y456674D01*
X150256Y456660D01*
X150368Y456643D01*
X150479Y456621D01*
X150589Y456596D01*
X150699Y456566D01*
X150807Y456533D01*
X150914Y456496D01*
X151020Y456456D01*
X151124Y456411D01*
X151227Y456363D01*
X151328Y456312D01*
X151427Y456257D01*
X151524Y456199D01*
X151619Y456137D01*
X151712Y456072D01*
X151802Y456004D01*
X151890Y455933D01*
X151976Y455858D01*
X152059Y455781D01*
X152139Y455701D01*
X152216Y455618D01*
X152291Y455532D01*
X152362Y455444D01*
X152430Y455354D01*
X152495Y455261D01*
X152557Y455166D01*
X152615Y455069D01*
X152670Y454970D01*
X152721Y454869D01*
X152769Y454766D01*
X152814Y454662D01*
X152854Y454556D01*
X152891Y454449D01*
X152924Y454341D01*
X152954Y454231D01*
X152979Y454121D01*
X153001Y454010D01*
X153018Y453898D01*
X153032Y453785D01*
X153042Y453672D01*
X153048Y453559D01*
X153050Y453446D01*
X153048Y453333D01*
X153042Y453220D01*
X153032Y453107D01*
X153018Y452994D01*
X153001Y452882D01*
X152979Y452771D01*
X152954Y452661D01*
X152924Y452551D01*
X152891Y452443D01*
X152854Y452336D01*
X152814Y452230D01*
X152769Y452126D01*
X152721Y452023D01*
X152670Y451922D01*
X152615Y451823D01*
X152557Y451726D01*
X152495Y451631D01*
X152430Y451538D01*
X152362Y451448D01*
X152291Y451360D01*
X152216Y451274D01*
X152139Y451191D01*
X152059Y451111D01*
X151976Y451034D01*
X151890Y450959D01*
X151802Y450888D01*
X151712Y450820D01*
X151619Y450755D01*
X151524Y450693D01*
X151427Y450635D01*
X151328Y450580D01*
X151227Y450529D01*
X151124Y450481D01*
X151020Y450436D01*
X150914Y450396D01*
X150807Y450359D01*
X150699Y450326D01*
X150589Y450296D01*
X150479Y450271D01*
X150368Y450249D01*
X150256Y450232D01*
X150143Y450218D01*
X150030Y450208D01*
X149917Y450202D01*
X149804Y450200D01*
X149804Y450201D02*
X146558Y450201D01*
X150453Y450201D02*
X153049Y445008D01*
X157914Y454096D02*
X161160Y456692D01*
X161160Y445008D01*
X164405Y445008D02*
X157914Y445008D01*
X32258Y445008D02*
X32258Y456692D01*
X35504Y456692D01*
X35617Y456690D01*
X35730Y456684D01*
X35843Y456674D01*
X35956Y456660D01*
X36068Y456643D01*
X36179Y456621D01*
X36289Y456596D01*
X36399Y456566D01*
X36507Y456533D01*
X36614Y456496D01*
X36720Y456456D01*
X36824Y456411D01*
X36927Y456363D01*
X37028Y456312D01*
X37127Y456257D01*
X37224Y456199D01*
X37319Y456137D01*
X37412Y456072D01*
X37502Y456004D01*
X37590Y455933D01*
X37676Y455858D01*
X37759Y455781D01*
X37839Y455701D01*
X37916Y455618D01*
X37991Y455532D01*
X38062Y455444D01*
X38130Y455354D01*
X38195Y455261D01*
X38257Y455166D01*
X38315Y455069D01*
X38370Y454970D01*
X38421Y454869D01*
X38469Y454766D01*
X38514Y454662D01*
X38554Y454556D01*
X38591Y454449D01*
X38624Y454341D01*
X38654Y454231D01*
X38679Y454121D01*
X38701Y454010D01*
X38718Y453898D01*
X38732Y453785D01*
X38742Y453672D01*
X38748Y453559D01*
X38750Y453446D01*
X38748Y453333D01*
X38742Y453220D01*
X38732Y453107D01*
X38718Y452994D01*
X38701Y452882D01*
X38679Y452771D01*
X38654Y452661D01*
X38624Y452551D01*
X38591Y452443D01*
X38554Y452336D01*
X38514Y452230D01*
X38469Y452126D01*
X38421Y452023D01*
X38370Y451922D01*
X38315Y451823D01*
X38257Y451726D01*
X38195Y451631D01*
X38130Y451538D01*
X38062Y451448D01*
X37991Y451360D01*
X37916Y451274D01*
X37839Y451191D01*
X37759Y451111D01*
X37676Y451034D01*
X37590Y450959D01*
X37502Y450888D01*
X37412Y450820D01*
X37319Y450755D01*
X37224Y450693D01*
X37127Y450635D01*
X37028Y450580D01*
X36927Y450529D01*
X36824Y450481D01*
X36720Y450436D01*
X36614Y450396D01*
X36507Y450359D01*
X36399Y450326D01*
X36289Y450296D01*
X36179Y450271D01*
X36068Y450249D01*
X35956Y450232D01*
X35843Y450218D01*
X35730Y450208D01*
X35617Y450202D01*
X35504Y450200D01*
X35504Y450201D02*
X32258Y450201D01*
X36153Y450201D02*
X38749Y445008D01*
X50105Y453771D02*
X50103Y453878D01*
X50097Y453984D01*
X50087Y454090D01*
X50074Y454196D01*
X50056Y454302D01*
X50035Y454406D01*
X50010Y454510D01*
X49981Y454613D01*
X49949Y454714D01*
X49912Y454814D01*
X49872Y454913D01*
X49829Y455011D01*
X49782Y455107D01*
X49731Y455201D01*
X49677Y455293D01*
X49620Y455383D01*
X49560Y455471D01*
X49496Y455556D01*
X49429Y455639D01*
X49359Y455720D01*
X49287Y455798D01*
X49211Y455874D01*
X49133Y455946D01*
X49052Y456016D01*
X48969Y456083D01*
X48884Y456147D01*
X48796Y456207D01*
X48706Y456264D01*
X48614Y456318D01*
X48520Y456369D01*
X48424Y456416D01*
X48326Y456459D01*
X48227Y456499D01*
X48127Y456536D01*
X48026Y456568D01*
X47923Y456597D01*
X47819Y456622D01*
X47715Y456643D01*
X47609Y456661D01*
X47503Y456674D01*
X47397Y456684D01*
X47291Y456690D01*
X47184Y456692D01*
X47063Y456690D01*
X46942Y456684D01*
X46822Y456674D01*
X46701Y456661D01*
X46582Y456643D01*
X46462Y456622D01*
X46344Y456597D01*
X46227Y456568D01*
X46110Y456535D01*
X45995Y456499D01*
X45881Y456458D01*
X45768Y456415D01*
X45656Y456367D01*
X45547Y456316D01*
X45439Y456261D01*
X45332Y456203D01*
X45228Y456142D01*
X45126Y456077D01*
X45026Y456009D01*
X44928Y455938D01*
X44832Y455864D01*
X44739Y455787D01*
X44649Y455706D01*
X44561Y455623D01*
X44476Y455537D01*
X44393Y455448D01*
X44314Y455357D01*
X44237Y455263D01*
X44164Y455167D01*
X44094Y455069D01*
X44027Y454968D01*
X43963Y454865D01*
X43903Y454760D01*
X43846Y454653D01*
X43792Y454545D01*
X43742Y454435D01*
X43696Y454323D01*
X43653Y454210D01*
X43614Y454095D01*
X49132Y451499D02*
X49211Y451576D01*
X49287Y451657D01*
X49360Y451740D01*
X49430Y451825D01*
X49497Y451913D01*
X49561Y452003D01*
X49621Y452095D01*
X49678Y452190D01*
X49732Y452286D01*
X49783Y452384D01*
X49830Y452484D01*
X49874Y452586D01*
X49914Y452689D01*
X49950Y452793D01*
X49982Y452899D01*
X50011Y453005D01*
X50036Y453113D01*
X50058Y453221D01*
X50075Y453331D01*
X50089Y453440D01*
X50098Y453550D01*
X50104Y453661D01*
X50106Y453771D01*
X49132Y451499D02*
X43614Y445008D01*
X50105Y445008D01*
X95758Y431292D02*
X95758Y419608D01*
X95758Y431292D02*
X99004Y431292D01*
X99117Y431290D01*
X99230Y431284D01*
X99343Y431274D01*
X99456Y431260D01*
X99568Y431243D01*
X99679Y431221D01*
X99789Y431196D01*
X99899Y431166D01*
X100007Y431133D01*
X100114Y431096D01*
X100220Y431056D01*
X100324Y431011D01*
X100427Y430963D01*
X100528Y430912D01*
X100627Y430857D01*
X100724Y430799D01*
X100819Y430737D01*
X100912Y430672D01*
X101002Y430604D01*
X101090Y430533D01*
X101176Y430458D01*
X101259Y430381D01*
X101339Y430301D01*
X101416Y430218D01*
X101491Y430132D01*
X101562Y430044D01*
X101630Y429954D01*
X101695Y429861D01*
X101757Y429766D01*
X101815Y429669D01*
X101870Y429570D01*
X101921Y429469D01*
X101969Y429366D01*
X102014Y429262D01*
X102054Y429156D01*
X102091Y429049D01*
X102124Y428941D01*
X102154Y428831D01*
X102179Y428721D01*
X102201Y428610D01*
X102218Y428498D01*
X102232Y428385D01*
X102242Y428272D01*
X102248Y428159D01*
X102250Y428046D01*
X102248Y427933D01*
X102242Y427820D01*
X102232Y427707D01*
X102218Y427594D01*
X102201Y427482D01*
X102179Y427371D01*
X102154Y427261D01*
X102124Y427151D01*
X102091Y427043D01*
X102054Y426936D01*
X102014Y426830D01*
X101969Y426726D01*
X101921Y426623D01*
X101870Y426522D01*
X101815Y426423D01*
X101757Y426326D01*
X101695Y426231D01*
X101630Y426138D01*
X101562Y426048D01*
X101491Y425960D01*
X101416Y425874D01*
X101339Y425791D01*
X101259Y425711D01*
X101176Y425634D01*
X101090Y425559D01*
X101002Y425488D01*
X100912Y425420D01*
X100819Y425355D01*
X100724Y425293D01*
X100627Y425235D01*
X100528Y425180D01*
X100427Y425129D01*
X100324Y425081D01*
X100220Y425036D01*
X100114Y424996D01*
X100007Y424959D01*
X99899Y424926D01*
X99789Y424896D01*
X99679Y424871D01*
X99568Y424849D01*
X99456Y424832D01*
X99343Y424818D01*
X99230Y424808D01*
X99117Y424802D01*
X99004Y424800D01*
X99004Y424801D02*
X95758Y424801D01*
X99653Y424801D02*
X102249Y419608D01*
X107114Y419608D02*
X110360Y419608D01*
X110473Y419610D01*
X110586Y419616D01*
X110699Y419626D01*
X110812Y419640D01*
X110924Y419657D01*
X111035Y419679D01*
X111145Y419704D01*
X111255Y419734D01*
X111363Y419767D01*
X111470Y419804D01*
X111576Y419844D01*
X111680Y419889D01*
X111783Y419937D01*
X111884Y419988D01*
X111983Y420043D01*
X112080Y420101D01*
X112175Y420163D01*
X112268Y420228D01*
X112358Y420296D01*
X112446Y420367D01*
X112532Y420442D01*
X112615Y420519D01*
X112695Y420599D01*
X112772Y420682D01*
X112847Y420768D01*
X112918Y420856D01*
X112986Y420946D01*
X113051Y421039D01*
X113113Y421134D01*
X113171Y421231D01*
X113226Y421330D01*
X113277Y421431D01*
X113325Y421534D01*
X113370Y421638D01*
X113410Y421744D01*
X113447Y421851D01*
X113480Y421959D01*
X113510Y422069D01*
X113535Y422179D01*
X113557Y422290D01*
X113574Y422402D01*
X113588Y422515D01*
X113598Y422628D01*
X113604Y422741D01*
X113606Y422854D01*
X113604Y422967D01*
X113598Y423080D01*
X113588Y423193D01*
X113574Y423306D01*
X113557Y423418D01*
X113535Y423529D01*
X113510Y423639D01*
X113480Y423749D01*
X113447Y423857D01*
X113410Y423964D01*
X113370Y424070D01*
X113325Y424174D01*
X113277Y424277D01*
X113226Y424378D01*
X113171Y424477D01*
X113113Y424574D01*
X113051Y424669D01*
X112986Y424762D01*
X112918Y424852D01*
X112847Y424940D01*
X112772Y425026D01*
X112695Y425109D01*
X112615Y425189D01*
X112532Y425266D01*
X112446Y425341D01*
X112358Y425412D01*
X112268Y425480D01*
X112175Y425545D01*
X112080Y425607D01*
X111983Y425665D01*
X111884Y425720D01*
X111783Y425771D01*
X111680Y425819D01*
X111576Y425864D01*
X111470Y425904D01*
X111363Y425941D01*
X111255Y425974D01*
X111145Y426004D01*
X111035Y426029D01*
X110924Y426051D01*
X110812Y426068D01*
X110699Y426082D01*
X110586Y426092D01*
X110473Y426098D01*
X110360Y426100D01*
X111009Y431292D02*
X107114Y431292D01*
X111009Y431292D02*
X111110Y431290D01*
X111210Y431284D01*
X111310Y431274D01*
X111410Y431261D01*
X111509Y431243D01*
X111608Y431222D01*
X111705Y431197D01*
X111802Y431168D01*
X111897Y431135D01*
X111991Y431099D01*
X112083Y431059D01*
X112174Y431016D01*
X112263Y430969D01*
X112350Y430919D01*
X112436Y430865D01*
X112519Y430808D01*
X112599Y430748D01*
X112678Y430685D01*
X112754Y430618D01*
X112827Y430549D01*
X112897Y430477D01*
X112965Y430403D01*
X113030Y430326D01*
X113091Y430246D01*
X113150Y430164D01*
X113205Y430080D01*
X113257Y429994D01*
X113306Y429906D01*
X113351Y429816D01*
X113393Y429724D01*
X113431Y429631D01*
X113465Y429536D01*
X113496Y429441D01*
X113523Y429344D01*
X113546Y429246D01*
X113566Y429147D01*
X113581Y429047D01*
X113593Y428947D01*
X113601Y428847D01*
X113605Y428746D01*
X113605Y428646D01*
X113601Y428545D01*
X113593Y428445D01*
X113581Y428345D01*
X113566Y428245D01*
X113546Y428146D01*
X113523Y428048D01*
X113496Y427951D01*
X113465Y427856D01*
X113431Y427761D01*
X113393Y427668D01*
X113351Y427576D01*
X113306Y427486D01*
X113257Y427398D01*
X113205Y427312D01*
X113150Y427228D01*
X113091Y427146D01*
X113030Y427066D01*
X112965Y426989D01*
X112897Y426915D01*
X112827Y426843D01*
X112754Y426774D01*
X112678Y426707D01*
X112599Y426644D01*
X112519Y426584D01*
X112436Y426527D01*
X112350Y426473D01*
X112263Y426423D01*
X112174Y426376D01*
X112083Y426333D01*
X111991Y426293D01*
X111897Y426257D01*
X111802Y426224D01*
X111705Y426195D01*
X111608Y426170D01*
X111509Y426149D01*
X111410Y426131D01*
X111310Y426118D01*
X111210Y426108D01*
X111110Y426102D01*
X111009Y426100D01*
X111009Y426099D02*
X108413Y426099D01*
M02*
