M48
;GenerationSoftware,Autodesk,EAGLE,9.1.3*%
;CreationDate,2020-03-28T12:55:41Z*%
FMAT,2
ICI,OFF
METRIC,TZ,000.000
T6C0.350
T5C0.813
T4C0.914
T3C1.651
T2C1.750
T1C2.850
%
G90
M71
T1
X9980Y8390
X50980Y8390
T2
X32480Y4890
X28480Y4890
X24480Y4890
X16480Y4890
X42480Y8890
X38480Y8890
X34480Y8890
X32480Y12890
X30480Y8890
X26480Y8890
X22480Y8890
X20480Y4890
X18480Y8890
X44480Y12890
X40480Y12890
X36480Y12890
X16480Y12890
X20480Y12890
X24480Y12890
X28480Y12890
X44480Y4890
X40480Y4890
X36480Y4890
T3
X1270Y33020
X1270Y17780
X41910Y17780
X41910Y33020
T4
X13970Y33020
X11430Y33020
X8890Y33020
X6350Y33020
X3810Y33020
X39370Y17780
X36830Y17780
X31750Y17780
X29210Y17780
X26670Y17780
X24130Y17780
X21590Y17780
X19050Y17780
X16510Y17780
X13970Y17780
X11430Y17780
X8890Y17780
X6350Y17780
X3810Y17780
X34290Y17780
X39370Y33020
X36830Y33020
X34290Y33020
X31750Y33020
X29210Y33020
X26670Y33020
X24130Y33020
X21590Y33020
X19050Y33020
X16510Y33020
T5
X49530Y45720
X57150Y26670
X57150Y24130
X49530Y19050
X49530Y21590
X57150Y21590
X57150Y19050
X49530Y24130
X49530Y26670
X57150Y45720
X57150Y43180
X49530Y38100
X49530Y40640
X57150Y40640
X57150Y38100
X49530Y43180
T6
X46228Y20472
X39294Y14529
X47879Y13868
X46228Y11887
X47549Y27737
X47549Y23774
X45898Y19152
X44577Y14859
X42596Y30048
X47879Y14859
X35662Y28067
X52502Y40945
X16180Y26746
X35662Y26746
X54153Y39294
X20472Y38303
X51511Y22454
X44907Y6934
X52502Y16510
X48209Y15850
X20142Y27076
X51181Y12548
M30