G04 EAGLE Gerber X2 export*
%TF.Part,Single*%
%TF.FileFunction,Legend,Top,1*%
%TF.FilePolarity,Positive*%
%TF.GenerationSoftware,Autodesk,EAGLE,9.1.3*%
%TF.CreationDate,2020-03-28T12:55:41Z*%
G75*
%MOMM*%
%FSLAX34Y34*%
%LPD*%
%AMOC8*
5,1,8,0,0,1.08239X$1,22.5*%
G01*
%ADD10C,0.152400*%
%ADD11C,0.127000*%
%ADD12C,0.101600*%
%ADD13R,0.150000X0.300000*%
%ADD14R,0.300000X0.300000*%
%ADD15C,0.400000*%
%ADD16C,0.000000*%
%ADD17C,0.076200*%


D10*
X13462Y356362D02*
X13462Y372618D01*
X22493Y372618D02*
X13462Y362684D01*
X17074Y366296D02*
X22493Y356362D01*
X28222Y359974D02*
X28222Y363587D01*
X28223Y363587D02*
X28225Y363706D01*
X28231Y363826D01*
X28241Y363945D01*
X28255Y364063D01*
X28272Y364182D01*
X28294Y364299D01*
X28319Y364416D01*
X28349Y364531D01*
X28382Y364646D01*
X28419Y364760D01*
X28459Y364872D01*
X28504Y364983D01*
X28552Y365092D01*
X28603Y365200D01*
X28658Y365306D01*
X28717Y365410D01*
X28779Y365512D01*
X28844Y365612D01*
X28913Y365710D01*
X28985Y365806D01*
X29060Y365899D01*
X29137Y365989D01*
X29218Y366077D01*
X29302Y366162D01*
X29389Y366244D01*
X29478Y366324D01*
X29570Y366400D01*
X29664Y366474D01*
X29761Y366544D01*
X29859Y366611D01*
X29960Y366675D01*
X30064Y366735D01*
X30169Y366792D01*
X30276Y366845D01*
X30384Y366895D01*
X30494Y366941D01*
X30606Y366983D01*
X30719Y367022D01*
X30833Y367057D01*
X30948Y367088D01*
X31065Y367116D01*
X31182Y367139D01*
X31299Y367159D01*
X31418Y367175D01*
X31537Y367187D01*
X31656Y367195D01*
X31775Y367199D01*
X31895Y367199D01*
X32014Y367195D01*
X32133Y367187D01*
X32252Y367175D01*
X32371Y367159D01*
X32488Y367139D01*
X32605Y367116D01*
X32722Y367088D01*
X32837Y367057D01*
X32951Y367022D01*
X33064Y366983D01*
X33176Y366941D01*
X33286Y366895D01*
X33394Y366845D01*
X33501Y366792D01*
X33606Y366735D01*
X33710Y366675D01*
X33811Y366611D01*
X33909Y366544D01*
X34006Y366474D01*
X34100Y366400D01*
X34192Y366324D01*
X34281Y366244D01*
X34368Y366162D01*
X34452Y366077D01*
X34533Y365989D01*
X34610Y365899D01*
X34685Y365806D01*
X34757Y365710D01*
X34826Y365612D01*
X34891Y365512D01*
X34953Y365410D01*
X35012Y365306D01*
X35067Y365200D01*
X35118Y365092D01*
X35166Y364983D01*
X35211Y364872D01*
X35251Y364760D01*
X35288Y364646D01*
X35321Y364531D01*
X35351Y364416D01*
X35376Y364299D01*
X35398Y364182D01*
X35415Y364063D01*
X35429Y363945D01*
X35439Y363826D01*
X35445Y363706D01*
X35447Y363587D01*
X35447Y359974D01*
X35445Y359855D01*
X35439Y359735D01*
X35429Y359616D01*
X35415Y359498D01*
X35398Y359379D01*
X35376Y359262D01*
X35351Y359145D01*
X35321Y359030D01*
X35288Y358915D01*
X35251Y358801D01*
X35211Y358689D01*
X35166Y358578D01*
X35118Y358469D01*
X35067Y358361D01*
X35012Y358255D01*
X34953Y358151D01*
X34891Y358049D01*
X34826Y357949D01*
X34757Y357851D01*
X34685Y357755D01*
X34610Y357662D01*
X34533Y357572D01*
X34452Y357484D01*
X34368Y357399D01*
X34281Y357317D01*
X34192Y357237D01*
X34100Y357161D01*
X34006Y357087D01*
X33909Y357017D01*
X33811Y356950D01*
X33710Y356886D01*
X33606Y356826D01*
X33501Y356769D01*
X33394Y356716D01*
X33286Y356666D01*
X33176Y356620D01*
X33064Y356578D01*
X32951Y356539D01*
X32837Y356504D01*
X32722Y356473D01*
X32605Y356445D01*
X32488Y356422D01*
X32371Y356402D01*
X32252Y356386D01*
X32133Y356374D01*
X32014Y356366D01*
X31895Y356362D01*
X31775Y356362D01*
X31656Y356366D01*
X31537Y356374D01*
X31418Y356386D01*
X31299Y356402D01*
X31182Y356422D01*
X31065Y356445D01*
X30948Y356473D01*
X30833Y356504D01*
X30719Y356539D01*
X30606Y356578D01*
X30494Y356620D01*
X30384Y356666D01*
X30276Y356716D01*
X30169Y356769D01*
X30064Y356826D01*
X29960Y356886D01*
X29859Y356950D01*
X29761Y357017D01*
X29664Y357087D01*
X29570Y357161D01*
X29478Y357237D01*
X29389Y357317D01*
X29302Y357399D01*
X29218Y357484D01*
X29137Y357572D01*
X29060Y357662D01*
X28985Y357755D01*
X28913Y357851D01*
X28844Y357949D01*
X28779Y358049D01*
X28717Y358151D01*
X28658Y358255D01*
X28603Y358361D01*
X28552Y358469D01*
X28504Y358578D01*
X28459Y358689D01*
X28419Y358801D01*
X28382Y358915D01*
X28349Y359030D01*
X28319Y359145D01*
X28294Y359262D01*
X28272Y359379D01*
X28255Y359498D01*
X28241Y359616D01*
X28231Y359735D01*
X28225Y359855D01*
X28223Y359974D01*
X42657Y356362D02*
X42657Y369909D01*
X42659Y370013D01*
X42665Y370116D01*
X42675Y370220D01*
X42689Y370323D01*
X42707Y370425D01*
X42728Y370526D01*
X42754Y370627D01*
X42783Y370726D01*
X42816Y370825D01*
X42853Y370922D01*
X42894Y371017D01*
X42938Y371111D01*
X42986Y371203D01*
X43037Y371293D01*
X43092Y371382D01*
X43150Y371468D01*
X43212Y371551D01*
X43276Y371633D01*
X43344Y371711D01*
X43414Y371787D01*
X43487Y371861D01*
X43564Y371931D01*
X43642Y371999D01*
X43724Y372063D01*
X43807Y372125D01*
X43893Y372183D01*
X43982Y372238D01*
X44072Y372289D01*
X44164Y372337D01*
X44258Y372381D01*
X44353Y372422D01*
X44450Y372459D01*
X44549Y372492D01*
X44648Y372521D01*
X44749Y372547D01*
X44850Y372568D01*
X44952Y372586D01*
X45055Y372600D01*
X45159Y372610D01*
X45262Y372616D01*
X45366Y372618D01*
X46270Y372618D01*
X46270Y367199D02*
X40851Y367199D01*
X53336Y356362D02*
X57852Y356362D01*
X53336Y356362D02*
X53235Y356364D01*
X53134Y356370D01*
X53033Y356379D01*
X52932Y356392D01*
X52832Y356409D01*
X52733Y356430D01*
X52635Y356454D01*
X52538Y356482D01*
X52441Y356514D01*
X52346Y356549D01*
X52253Y356588D01*
X52161Y356630D01*
X52070Y356676D01*
X51982Y356725D01*
X51895Y356777D01*
X51810Y356833D01*
X51727Y356891D01*
X51647Y356953D01*
X51569Y357018D01*
X51493Y357085D01*
X51420Y357155D01*
X51350Y357228D01*
X51283Y357304D01*
X51218Y357382D01*
X51156Y357462D01*
X51098Y357545D01*
X51042Y357630D01*
X50990Y357717D01*
X50941Y357805D01*
X50895Y357896D01*
X50853Y357988D01*
X50814Y358081D01*
X50779Y358176D01*
X50747Y358273D01*
X50719Y358370D01*
X50695Y358468D01*
X50674Y358567D01*
X50657Y358667D01*
X50644Y358768D01*
X50635Y358869D01*
X50629Y358970D01*
X50627Y359071D01*
X50627Y363587D01*
X50629Y363706D01*
X50635Y363826D01*
X50645Y363945D01*
X50659Y364063D01*
X50676Y364182D01*
X50698Y364299D01*
X50723Y364416D01*
X50753Y364531D01*
X50786Y364646D01*
X50823Y364760D01*
X50863Y364872D01*
X50908Y364983D01*
X50956Y365092D01*
X51007Y365200D01*
X51062Y365306D01*
X51121Y365410D01*
X51183Y365512D01*
X51248Y365612D01*
X51317Y365710D01*
X51389Y365806D01*
X51464Y365899D01*
X51541Y365989D01*
X51622Y366077D01*
X51706Y366162D01*
X51793Y366244D01*
X51882Y366324D01*
X51974Y366400D01*
X52068Y366474D01*
X52165Y366544D01*
X52263Y366611D01*
X52364Y366675D01*
X52468Y366735D01*
X52573Y366792D01*
X52680Y366845D01*
X52788Y366895D01*
X52898Y366941D01*
X53010Y366983D01*
X53123Y367022D01*
X53237Y367057D01*
X53352Y367088D01*
X53469Y367116D01*
X53586Y367139D01*
X53703Y367159D01*
X53822Y367175D01*
X53941Y367187D01*
X54060Y367195D01*
X54179Y367199D01*
X54299Y367199D01*
X54418Y367195D01*
X54537Y367187D01*
X54656Y367175D01*
X54775Y367159D01*
X54892Y367139D01*
X55009Y367116D01*
X55126Y367088D01*
X55241Y367057D01*
X55355Y367022D01*
X55468Y366983D01*
X55580Y366941D01*
X55690Y366895D01*
X55798Y366845D01*
X55905Y366792D01*
X56010Y366735D01*
X56114Y366675D01*
X56215Y366611D01*
X56313Y366544D01*
X56410Y366474D01*
X56504Y366400D01*
X56596Y366324D01*
X56685Y366244D01*
X56772Y366162D01*
X56856Y366077D01*
X56937Y365989D01*
X57014Y365899D01*
X57089Y365806D01*
X57161Y365710D01*
X57230Y365612D01*
X57295Y365512D01*
X57357Y365410D01*
X57416Y365306D01*
X57471Y365200D01*
X57522Y365092D01*
X57570Y364983D01*
X57615Y364872D01*
X57655Y364760D01*
X57692Y364646D01*
X57725Y364531D01*
X57755Y364416D01*
X57780Y364299D01*
X57802Y364182D01*
X57819Y364063D01*
X57833Y363945D01*
X57843Y363826D01*
X57849Y363706D01*
X57851Y363587D01*
X57852Y363587D02*
X57852Y361781D01*
X50627Y361781D01*
X66883Y356362D02*
X71399Y356362D01*
X66883Y356362D02*
X66782Y356364D01*
X66681Y356370D01*
X66580Y356379D01*
X66479Y356392D01*
X66379Y356409D01*
X66280Y356430D01*
X66182Y356454D01*
X66085Y356482D01*
X65988Y356514D01*
X65893Y356549D01*
X65800Y356588D01*
X65708Y356630D01*
X65617Y356676D01*
X65529Y356725D01*
X65442Y356777D01*
X65357Y356833D01*
X65274Y356891D01*
X65194Y356953D01*
X65116Y357018D01*
X65040Y357085D01*
X64967Y357155D01*
X64897Y357228D01*
X64830Y357304D01*
X64765Y357382D01*
X64703Y357462D01*
X64645Y357545D01*
X64589Y357630D01*
X64537Y357717D01*
X64488Y357805D01*
X64442Y357896D01*
X64400Y357988D01*
X64361Y358081D01*
X64326Y358176D01*
X64294Y358273D01*
X64266Y358370D01*
X64242Y358468D01*
X64221Y358567D01*
X64204Y358667D01*
X64191Y358768D01*
X64182Y358869D01*
X64176Y358970D01*
X64174Y359071D01*
X64174Y363587D01*
X64175Y363587D02*
X64177Y363706D01*
X64183Y363826D01*
X64193Y363945D01*
X64207Y364063D01*
X64224Y364182D01*
X64246Y364299D01*
X64271Y364416D01*
X64301Y364531D01*
X64334Y364646D01*
X64371Y364760D01*
X64411Y364872D01*
X64456Y364983D01*
X64504Y365092D01*
X64555Y365200D01*
X64610Y365306D01*
X64669Y365410D01*
X64731Y365512D01*
X64796Y365612D01*
X64865Y365710D01*
X64937Y365806D01*
X65012Y365899D01*
X65089Y365989D01*
X65170Y366077D01*
X65254Y366162D01*
X65341Y366244D01*
X65430Y366324D01*
X65522Y366400D01*
X65616Y366474D01*
X65713Y366544D01*
X65811Y366611D01*
X65912Y366675D01*
X66016Y366735D01*
X66121Y366792D01*
X66228Y366845D01*
X66336Y366895D01*
X66446Y366941D01*
X66558Y366983D01*
X66671Y367022D01*
X66785Y367057D01*
X66900Y367088D01*
X67017Y367116D01*
X67134Y367139D01*
X67251Y367159D01*
X67370Y367175D01*
X67489Y367187D01*
X67608Y367195D01*
X67727Y367199D01*
X67847Y367199D01*
X67966Y367195D01*
X68085Y367187D01*
X68204Y367175D01*
X68323Y367159D01*
X68440Y367139D01*
X68557Y367116D01*
X68674Y367088D01*
X68789Y367057D01*
X68903Y367022D01*
X69016Y366983D01*
X69128Y366941D01*
X69238Y366895D01*
X69346Y366845D01*
X69453Y366792D01*
X69558Y366735D01*
X69662Y366675D01*
X69763Y366611D01*
X69861Y366544D01*
X69958Y366474D01*
X70052Y366400D01*
X70144Y366324D01*
X70233Y366244D01*
X70320Y366162D01*
X70404Y366077D01*
X70485Y365989D01*
X70562Y365899D01*
X70637Y365806D01*
X70709Y365710D01*
X70778Y365612D01*
X70843Y365512D01*
X70905Y365410D01*
X70964Y365306D01*
X71019Y365200D01*
X71070Y365092D01*
X71118Y364983D01*
X71163Y364872D01*
X71203Y364760D01*
X71240Y364646D01*
X71273Y364531D01*
X71303Y364416D01*
X71328Y364299D01*
X71350Y364182D01*
X71367Y364063D01*
X71381Y363945D01*
X71391Y363826D01*
X71397Y363706D01*
X71399Y363587D01*
X71399Y361781D01*
X64174Y361781D01*
X81433Y356362D02*
X85045Y356362D01*
X81433Y356362D02*
X81315Y356364D01*
X81197Y356370D01*
X81079Y356379D01*
X80962Y356393D01*
X80845Y356410D01*
X80728Y356431D01*
X80613Y356456D01*
X80498Y356485D01*
X80384Y356518D01*
X80272Y356554D01*
X80161Y356594D01*
X80051Y356637D01*
X79942Y356684D01*
X79835Y356734D01*
X79730Y356789D01*
X79627Y356846D01*
X79526Y356907D01*
X79426Y356971D01*
X79329Y357038D01*
X79234Y357108D01*
X79142Y357182D01*
X79051Y357258D01*
X78964Y357338D01*
X78879Y357420D01*
X78797Y357505D01*
X78717Y357592D01*
X78641Y357683D01*
X78567Y357775D01*
X78497Y357870D01*
X78430Y357967D01*
X78366Y358067D01*
X78305Y358168D01*
X78248Y358271D01*
X78193Y358376D01*
X78143Y358483D01*
X78096Y358592D01*
X78053Y358702D01*
X78013Y358813D01*
X77977Y358925D01*
X77944Y359039D01*
X77915Y359154D01*
X77890Y359269D01*
X77869Y359386D01*
X77852Y359503D01*
X77838Y359620D01*
X77829Y359738D01*
X77823Y359856D01*
X77821Y359974D01*
X77821Y369006D01*
X77823Y369124D01*
X77829Y369242D01*
X77838Y369360D01*
X77852Y369477D01*
X77869Y369594D01*
X77890Y369711D01*
X77915Y369826D01*
X77944Y369941D01*
X77977Y370055D01*
X78013Y370167D01*
X78053Y370278D01*
X78096Y370388D01*
X78143Y370497D01*
X78193Y370604D01*
X78247Y370709D01*
X78305Y370812D01*
X78366Y370913D01*
X78430Y371013D01*
X78497Y371110D01*
X78567Y371205D01*
X78641Y371297D01*
X78717Y371388D01*
X78797Y371475D01*
X78879Y371560D01*
X78964Y371642D01*
X79051Y371722D01*
X79142Y371798D01*
X79234Y371872D01*
X79329Y371942D01*
X79426Y372009D01*
X79526Y372073D01*
X79627Y372134D01*
X79730Y372191D01*
X79835Y372245D01*
X79942Y372296D01*
X80051Y372343D01*
X80161Y372386D01*
X80272Y372426D01*
X80384Y372462D01*
X80498Y372495D01*
X80613Y372524D01*
X80728Y372549D01*
X80845Y372570D01*
X80962Y372587D01*
X81079Y372601D01*
X81197Y372610D01*
X81315Y372616D01*
X81433Y372618D01*
X85045Y372618D01*
X91353Y367199D02*
X91353Y356362D01*
X91353Y367199D02*
X96772Y367199D01*
X96772Y365393D01*
X104398Y356362D02*
X108914Y356362D01*
X104398Y356362D02*
X104297Y356364D01*
X104196Y356370D01*
X104095Y356379D01*
X103994Y356392D01*
X103894Y356409D01*
X103795Y356430D01*
X103697Y356454D01*
X103600Y356482D01*
X103503Y356514D01*
X103408Y356549D01*
X103315Y356588D01*
X103223Y356630D01*
X103132Y356676D01*
X103044Y356725D01*
X102957Y356777D01*
X102872Y356833D01*
X102789Y356891D01*
X102709Y356953D01*
X102631Y357018D01*
X102555Y357085D01*
X102482Y357155D01*
X102412Y357228D01*
X102345Y357304D01*
X102280Y357382D01*
X102218Y357462D01*
X102160Y357545D01*
X102104Y357630D01*
X102052Y357717D01*
X102003Y357805D01*
X101957Y357896D01*
X101915Y357988D01*
X101876Y358081D01*
X101841Y358176D01*
X101809Y358273D01*
X101781Y358370D01*
X101757Y358468D01*
X101736Y358567D01*
X101719Y358667D01*
X101706Y358768D01*
X101697Y358869D01*
X101691Y358970D01*
X101689Y359071D01*
X101689Y363587D01*
X101691Y363706D01*
X101697Y363826D01*
X101707Y363945D01*
X101721Y364063D01*
X101738Y364182D01*
X101760Y364299D01*
X101785Y364416D01*
X101815Y364531D01*
X101848Y364646D01*
X101885Y364760D01*
X101925Y364872D01*
X101970Y364983D01*
X102018Y365092D01*
X102069Y365200D01*
X102124Y365306D01*
X102183Y365410D01*
X102245Y365512D01*
X102310Y365612D01*
X102379Y365710D01*
X102451Y365806D01*
X102526Y365899D01*
X102603Y365989D01*
X102684Y366077D01*
X102768Y366162D01*
X102855Y366244D01*
X102944Y366324D01*
X103036Y366400D01*
X103130Y366474D01*
X103227Y366544D01*
X103325Y366611D01*
X103426Y366675D01*
X103530Y366735D01*
X103635Y366792D01*
X103742Y366845D01*
X103850Y366895D01*
X103960Y366941D01*
X104072Y366983D01*
X104185Y367022D01*
X104299Y367057D01*
X104414Y367088D01*
X104531Y367116D01*
X104648Y367139D01*
X104765Y367159D01*
X104884Y367175D01*
X105003Y367187D01*
X105122Y367195D01*
X105241Y367199D01*
X105361Y367199D01*
X105480Y367195D01*
X105599Y367187D01*
X105718Y367175D01*
X105837Y367159D01*
X105954Y367139D01*
X106071Y367116D01*
X106188Y367088D01*
X106303Y367057D01*
X106417Y367022D01*
X106530Y366983D01*
X106642Y366941D01*
X106752Y366895D01*
X106860Y366845D01*
X106967Y366792D01*
X107072Y366735D01*
X107176Y366675D01*
X107277Y366611D01*
X107375Y366544D01*
X107472Y366474D01*
X107566Y366400D01*
X107658Y366324D01*
X107747Y366244D01*
X107834Y366162D01*
X107918Y366077D01*
X107999Y365989D01*
X108076Y365899D01*
X108151Y365806D01*
X108223Y365710D01*
X108292Y365612D01*
X108357Y365512D01*
X108419Y365410D01*
X108478Y365306D01*
X108533Y365200D01*
X108584Y365092D01*
X108632Y364983D01*
X108677Y364872D01*
X108717Y364760D01*
X108754Y364646D01*
X108787Y364531D01*
X108817Y364416D01*
X108842Y364299D01*
X108864Y364182D01*
X108881Y364063D01*
X108895Y363945D01*
X108905Y363826D01*
X108911Y363706D01*
X108913Y363587D01*
X108914Y363587D02*
X108914Y361781D01*
X101689Y361781D01*
X118324Y362684D02*
X122388Y362684D01*
X118324Y362684D02*
X118212Y362682D01*
X118101Y362676D01*
X117990Y362666D01*
X117879Y362653D01*
X117769Y362635D01*
X117660Y362613D01*
X117551Y362588D01*
X117443Y362559D01*
X117337Y362526D01*
X117231Y362489D01*
X117127Y362449D01*
X117025Y362405D01*
X116924Y362357D01*
X116825Y362306D01*
X116727Y362251D01*
X116632Y362193D01*
X116539Y362132D01*
X116448Y362067D01*
X116359Y361999D01*
X116273Y361928D01*
X116190Y361855D01*
X116109Y361778D01*
X116030Y361698D01*
X115955Y361616D01*
X115883Y361531D01*
X115813Y361444D01*
X115747Y361354D01*
X115684Y361262D01*
X115624Y361167D01*
X115568Y361071D01*
X115515Y360973D01*
X115466Y360873D01*
X115420Y360771D01*
X115378Y360668D01*
X115339Y360563D01*
X115304Y360457D01*
X115273Y360350D01*
X115246Y360242D01*
X115222Y360133D01*
X115203Y360023D01*
X115187Y359913D01*
X115175Y359802D01*
X115167Y359690D01*
X115163Y359579D01*
X115163Y359467D01*
X115167Y359356D01*
X115175Y359244D01*
X115187Y359133D01*
X115203Y359023D01*
X115222Y358913D01*
X115246Y358804D01*
X115273Y358696D01*
X115304Y358589D01*
X115339Y358483D01*
X115378Y358378D01*
X115420Y358275D01*
X115466Y358173D01*
X115515Y358073D01*
X115568Y357975D01*
X115624Y357879D01*
X115684Y357784D01*
X115747Y357692D01*
X115813Y357602D01*
X115883Y357515D01*
X115955Y357430D01*
X116030Y357348D01*
X116109Y357268D01*
X116190Y357191D01*
X116273Y357118D01*
X116359Y357047D01*
X116448Y356979D01*
X116539Y356914D01*
X116632Y356853D01*
X116727Y356795D01*
X116825Y356740D01*
X116924Y356689D01*
X117025Y356641D01*
X117127Y356597D01*
X117231Y356557D01*
X117337Y356520D01*
X117443Y356487D01*
X117551Y356458D01*
X117660Y356433D01*
X117769Y356411D01*
X117879Y356393D01*
X117990Y356380D01*
X118101Y356370D01*
X118212Y356364D01*
X118324Y356362D01*
X122388Y356362D01*
X122388Y364490D01*
X122387Y364490D02*
X122385Y364591D01*
X122379Y364692D01*
X122370Y364793D01*
X122357Y364894D01*
X122340Y364994D01*
X122319Y365093D01*
X122295Y365191D01*
X122267Y365288D01*
X122235Y365385D01*
X122200Y365480D01*
X122161Y365573D01*
X122119Y365665D01*
X122073Y365756D01*
X122024Y365845D01*
X121972Y365931D01*
X121916Y366016D01*
X121858Y366099D01*
X121796Y366179D01*
X121731Y366257D01*
X121664Y366333D01*
X121594Y366406D01*
X121521Y366476D01*
X121445Y366543D01*
X121367Y366608D01*
X121287Y366670D01*
X121204Y366728D01*
X121119Y366784D01*
X121033Y366836D01*
X120944Y366885D01*
X120853Y366931D01*
X120761Y366973D01*
X120668Y367012D01*
X120573Y367047D01*
X120476Y367079D01*
X120379Y367107D01*
X120281Y367131D01*
X120182Y367152D01*
X120082Y367169D01*
X119981Y367182D01*
X119880Y367191D01*
X119779Y367197D01*
X119678Y367199D01*
X116066Y367199D01*
X128007Y367199D02*
X133426Y367199D01*
X129813Y372618D02*
X129813Y359071D01*
X129815Y358970D01*
X129821Y358869D01*
X129830Y358768D01*
X129843Y358667D01*
X129860Y358567D01*
X129881Y358468D01*
X129905Y358370D01*
X129933Y358273D01*
X129965Y358176D01*
X130000Y358081D01*
X130039Y357988D01*
X130081Y357896D01*
X130127Y357805D01*
X130176Y357717D01*
X130228Y357630D01*
X130284Y357545D01*
X130342Y357462D01*
X130404Y357382D01*
X130469Y357304D01*
X130536Y357228D01*
X130606Y357155D01*
X130679Y357085D01*
X130755Y357018D01*
X130833Y356953D01*
X130913Y356891D01*
X130996Y356833D01*
X131081Y356777D01*
X131168Y356725D01*
X131256Y356676D01*
X131347Y356630D01*
X131439Y356588D01*
X131532Y356549D01*
X131627Y356514D01*
X131724Y356482D01*
X131821Y356454D01*
X131919Y356430D01*
X132018Y356409D01*
X132118Y356392D01*
X132219Y356379D01*
X132320Y356370D01*
X132421Y356364D01*
X132522Y356362D01*
X133426Y356362D01*
X139169Y356362D02*
X139169Y367199D01*
X138717Y371715D02*
X138717Y372618D01*
X139621Y372618D01*
X139621Y371715D01*
X138717Y371715D01*
X145456Y363587D02*
X145456Y359974D01*
X145457Y363587D02*
X145459Y363706D01*
X145465Y363826D01*
X145475Y363945D01*
X145489Y364063D01*
X145506Y364182D01*
X145528Y364299D01*
X145553Y364416D01*
X145583Y364531D01*
X145616Y364646D01*
X145653Y364760D01*
X145693Y364872D01*
X145738Y364983D01*
X145786Y365092D01*
X145837Y365200D01*
X145892Y365306D01*
X145951Y365410D01*
X146013Y365512D01*
X146078Y365612D01*
X146147Y365710D01*
X146219Y365806D01*
X146294Y365899D01*
X146371Y365989D01*
X146452Y366077D01*
X146536Y366162D01*
X146623Y366244D01*
X146712Y366324D01*
X146804Y366400D01*
X146898Y366474D01*
X146995Y366544D01*
X147093Y366611D01*
X147194Y366675D01*
X147298Y366735D01*
X147403Y366792D01*
X147510Y366845D01*
X147618Y366895D01*
X147728Y366941D01*
X147840Y366983D01*
X147953Y367022D01*
X148067Y367057D01*
X148182Y367088D01*
X148299Y367116D01*
X148416Y367139D01*
X148533Y367159D01*
X148652Y367175D01*
X148771Y367187D01*
X148890Y367195D01*
X149009Y367199D01*
X149129Y367199D01*
X149248Y367195D01*
X149367Y367187D01*
X149486Y367175D01*
X149605Y367159D01*
X149722Y367139D01*
X149839Y367116D01*
X149956Y367088D01*
X150071Y367057D01*
X150185Y367022D01*
X150298Y366983D01*
X150410Y366941D01*
X150520Y366895D01*
X150628Y366845D01*
X150735Y366792D01*
X150840Y366735D01*
X150944Y366675D01*
X151045Y366611D01*
X151143Y366544D01*
X151240Y366474D01*
X151334Y366400D01*
X151426Y366324D01*
X151515Y366244D01*
X151602Y366162D01*
X151686Y366077D01*
X151767Y365989D01*
X151844Y365899D01*
X151919Y365806D01*
X151991Y365710D01*
X152060Y365612D01*
X152125Y365512D01*
X152187Y365410D01*
X152246Y365306D01*
X152301Y365200D01*
X152352Y365092D01*
X152400Y364983D01*
X152445Y364872D01*
X152485Y364760D01*
X152522Y364646D01*
X152555Y364531D01*
X152585Y364416D01*
X152610Y364299D01*
X152632Y364182D01*
X152649Y364063D01*
X152663Y363945D01*
X152673Y363826D01*
X152679Y363706D01*
X152681Y363587D01*
X152681Y359974D01*
X152679Y359855D01*
X152673Y359735D01*
X152663Y359616D01*
X152649Y359498D01*
X152632Y359379D01*
X152610Y359262D01*
X152585Y359145D01*
X152555Y359030D01*
X152522Y358915D01*
X152485Y358801D01*
X152445Y358689D01*
X152400Y358578D01*
X152352Y358469D01*
X152301Y358361D01*
X152246Y358255D01*
X152187Y358151D01*
X152125Y358049D01*
X152060Y357949D01*
X151991Y357851D01*
X151919Y357755D01*
X151844Y357662D01*
X151767Y357572D01*
X151686Y357484D01*
X151602Y357399D01*
X151515Y357317D01*
X151426Y357237D01*
X151334Y357161D01*
X151240Y357087D01*
X151143Y357017D01*
X151045Y356950D01*
X150944Y356886D01*
X150840Y356826D01*
X150735Y356769D01*
X150628Y356716D01*
X150520Y356666D01*
X150410Y356620D01*
X150298Y356578D01*
X150185Y356539D01*
X150071Y356504D01*
X149956Y356473D01*
X149839Y356445D01*
X149722Y356422D01*
X149605Y356402D01*
X149486Y356386D01*
X149367Y356374D01*
X149248Y356366D01*
X149129Y356362D01*
X149009Y356362D01*
X148890Y356366D01*
X148771Y356374D01*
X148652Y356386D01*
X148533Y356402D01*
X148416Y356422D01*
X148299Y356445D01*
X148182Y356473D01*
X148067Y356504D01*
X147953Y356539D01*
X147840Y356578D01*
X147728Y356620D01*
X147618Y356666D01*
X147510Y356716D01*
X147403Y356769D01*
X147298Y356826D01*
X147194Y356886D01*
X147093Y356950D01*
X146995Y357017D01*
X146898Y357087D01*
X146804Y357161D01*
X146712Y357237D01*
X146623Y357317D01*
X146536Y357399D01*
X146452Y357484D01*
X146371Y357572D01*
X146294Y357662D01*
X146219Y357755D01*
X146147Y357851D01*
X146078Y357949D01*
X146013Y358049D01*
X145951Y358151D01*
X145892Y358255D01*
X145837Y358361D01*
X145786Y358469D01*
X145738Y358578D01*
X145693Y358689D01*
X145653Y358801D01*
X145616Y358915D01*
X145583Y359030D01*
X145553Y359145D01*
X145528Y359262D01*
X145506Y359379D01*
X145489Y359498D01*
X145475Y359616D01*
X145465Y359735D01*
X145459Y359855D01*
X145457Y359974D01*
X159524Y356362D02*
X159524Y367199D01*
X164040Y367199D01*
X164144Y367197D01*
X164247Y367191D01*
X164351Y367181D01*
X164454Y367167D01*
X164556Y367149D01*
X164657Y367128D01*
X164758Y367102D01*
X164857Y367073D01*
X164956Y367040D01*
X165053Y367003D01*
X165148Y366962D01*
X165242Y366918D01*
X165334Y366870D01*
X165424Y366819D01*
X165513Y366764D01*
X165599Y366706D01*
X165682Y366644D01*
X165764Y366580D01*
X165842Y366512D01*
X165918Y366442D01*
X165992Y366369D01*
X166062Y366292D01*
X166130Y366214D01*
X166194Y366132D01*
X166256Y366049D01*
X166314Y365963D01*
X166369Y365874D01*
X166420Y365784D01*
X166468Y365692D01*
X166512Y365598D01*
X166553Y365503D01*
X166590Y365406D01*
X166623Y365307D01*
X166652Y365208D01*
X166678Y365107D01*
X166699Y365006D01*
X166717Y364904D01*
X166731Y364801D01*
X166741Y364697D01*
X166747Y364594D01*
X166749Y364490D01*
X166749Y356362D01*
X174947Y362684D02*
X179463Y360878D01*
X174947Y362684D02*
X174859Y362721D01*
X174773Y362762D01*
X174688Y362806D01*
X174605Y362854D01*
X174525Y362905D01*
X174446Y362959D01*
X174370Y363017D01*
X174296Y363077D01*
X174224Y363141D01*
X174156Y363207D01*
X174090Y363277D01*
X174027Y363348D01*
X173966Y363423D01*
X173909Y363499D01*
X173856Y363578D01*
X173805Y363659D01*
X173758Y363742D01*
X173714Y363827D01*
X173674Y363914D01*
X173637Y364002D01*
X173604Y364092D01*
X173574Y364183D01*
X173549Y364275D01*
X173527Y364368D01*
X173509Y364462D01*
X173494Y364556D01*
X173484Y364651D01*
X173478Y364747D01*
X173475Y364842D01*
X173476Y364938D01*
X173482Y365033D01*
X173491Y365129D01*
X173504Y365223D01*
X173520Y365317D01*
X173541Y365411D01*
X173566Y365503D01*
X173594Y365594D01*
X173626Y365684D01*
X173661Y365773D01*
X173700Y365860D01*
X173743Y365946D01*
X173789Y366030D01*
X173839Y366111D01*
X173891Y366191D01*
X173947Y366269D01*
X174007Y366344D01*
X174069Y366416D01*
X174134Y366486D01*
X174202Y366554D01*
X174272Y366618D01*
X174345Y366680D01*
X174421Y366738D01*
X174499Y366794D01*
X174579Y366846D01*
X174661Y366895D01*
X174745Y366940D01*
X174831Y366982D01*
X174918Y367021D01*
X175007Y367056D01*
X175098Y367087D01*
X175189Y367114D01*
X175282Y367138D01*
X175375Y367158D01*
X175469Y367174D01*
X175564Y367186D01*
X175659Y367195D01*
X175755Y367199D01*
X175850Y367200D01*
X176097Y367193D01*
X176343Y367181D01*
X176589Y367163D01*
X176835Y367138D01*
X177079Y367108D01*
X177323Y367072D01*
X177566Y367031D01*
X177808Y366983D01*
X178049Y366929D01*
X178288Y366870D01*
X178526Y366805D01*
X178762Y366734D01*
X178997Y366658D01*
X179230Y366576D01*
X179460Y366488D01*
X179688Y366395D01*
X179915Y366297D01*
X179463Y360877D02*
X179551Y360840D01*
X179637Y360799D01*
X179722Y360755D01*
X179805Y360707D01*
X179885Y360656D01*
X179964Y360602D01*
X180040Y360544D01*
X180114Y360484D01*
X180186Y360420D01*
X180254Y360354D01*
X180320Y360284D01*
X180383Y360213D01*
X180444Y360138D01*
X180501Y360062D01*
X180554Y359983D01*
X180605Y359902D01*
X180652Y359819D01*
X180696Y359734D01*
X180736Y359647D01*
X180773Y359559D01*
X180806Y359469D01*
X180836Y359378D01*
X180861Y359286D01*
X180883Y359193D01*
X180901Y359099D01*
X180916Y359005D01*
X180926Y358910D01*
X180932Y358814D01*
X180935Y358719D01*
X180934Y358623D01*
X180928Y358528D01*
X180919Y358432D01*
X180906Y358338D01*
X180890Y358244D01*
X180869Y358150D01*
X180844Y358058D01*
X180816Y357967D01*
X180784Y357877D01*
X180749Y357788D01*
X180710Y357701D01*
X180667Y357615D01*
X180621Y357531D01*
X180571Y357450D01*
X180519Y357370D01*
X180463Y357292D01*
X180403Y357217D01*
X180341Y357145D01*
X180276Y357075D01*
X180208Y357007D01*
X180138Y356943D01*
X180065Y356881D01*
X179989Y356823D01*
X179911Y356767D01*
X179831Y356715D01*
X179749Y356666D01*
X179665Y356621D01*
X179579Y356579D01*
X179492Y356540D01*
X179403Y356505D01*
X179312Y356474D01*
X179221Y356447D01*
X179128Y356423D01*
X179035Y356403D01*
X178941Y356387D01*
X178846Y356375D01*
X178751Y356366D01*
X178655Y356362D01*
X178560Y356361D01*
X178559Y356362D02*
X178197Y356371D01*
X177835Y356389D01*
X177474Y356416D01*
X177114Y356451D01*
X176754Y356494D01*
X176395Y356546D01*
X176038Y356607D01*
X175683Y356676D01*
X175329Y356753D01*
X174977Y356839D01*
X174627Y356933D01*
X174279Y357036D01*
X173934Y357146D01*
X173592Y357265D01*
X186653Y357265D02*
X186653Y356362D01*
X186653Y357265D02*
X187556Y357265D01*
X187556Y356362D01*
X186653Y356362D01*
X196119Y356362D02*
X199731Y356362D01*
X196119Y356362D02*
X196018Y356364D01*
X195917Y356370D01*
X195816Y356379D01*
X195715Y356392D01*
X195615Y356409D01*
X195516Y356430D01*
X195418Y356454D01*
X195321Y356482D01*
X195224Y356514D01*
X195129Y356549D01*
X195036Y356588D01*
X194944Y356630D01*
X194853Y356676D01*
X194765Y356725D01*
X194678Y356777D01*
X194593Y356833D01*
X194510Y356891D01*
X194430Y356953D01*
X194352Y357018D01*
X194276Y357085D01*
X194203Y357155D01*
X194133Y357228D01*
X194066Y357304D01*
X194001Y357382D01*
X193939Y357462D01*
X193881Y357545D01*
X193825Y357630D01*
X193773Y357717D01*
X193724Y357805D01*
X193678Y357896D01*
X193636Y357988D01*
X193597Y358081D01*
X193562Y358176D01*
X193530Y358273D01*
X193502Y358370D01*
X193478Y358468D01*
X193457Y358567D01*
X193440Y358667D01*
X193427Y358768D01*
X193418Y358869D01*
X193412Y358970D01*
X193410Y359071D01*
X193410Y364490D01*
X193412Y364591D01*
X193418Y364692D01*
X193427Y364793D01*
X193440Y364894D01*
X193457Y364994D01*
X193478Y365093D01*
X193502Y365191D01*
X193530Y365288D01*
X193562Y365385D01*
X193597Y365480D01*
X193636Y365573D01*
X193678Y365665D01*
X193724Y365756D01*
X193773Y365845D01*
X193825Y365931D01*
X193881Y366016D01*
X193939Y366099D01*
X194001Y366179D01*
X194066Y366257D01*
X194133Y366333D01*
X194203Y366406D01*
X194276Y366476D01*
X194352Y366543D01*
X194430Y366608D01*
X194510Y366670D01*
X194593Y366728D01*
X194678Y366784D01*
X194765Y366836D01*
X194853Y366885D01*
X194944Y366931D01*
X195036Y366973D01*
X195129Y367012D01*
X195224Y367047D01*
X195321Y367079D01*
X195418Y367107D01*
X195516Y367131D01*
X195615Y367152D01*
X195715Y367169D01*
X195816Y367182D01*
X195917Y367191D01*
X196018Y367197D01*
X196119Y367199D01*
X199731Y367199D01*
X208103Y356362D02*
X211715Y356362D01*
X208103Y356362D02*
X208002Y356364D01*
X207901Y356370D01*
X207800Y356379D01*
X207699Y356392D01*
X207599Y356409D01*
X207500Y356430D01*
X207402Y356454D01*
X207305Y356482D01*
X207208Y356514D01*
X207113Y356549D01*
X207020Y356588D01*
X206928Y356630D01*
X206837Y356676D01*
X206749Y356725D01*
X206662Y356777D01*
X206577Y356833D01*
X206494Y356891D01*
X206414Y356953D01*
X206336Y357018D01*
X206260Y357085D01*
X206187Y357155D01*
X206117Y357228D01*
X206050Y357304D01*
X205985Y357382D01*
X205923Y357462D01*
X205865Y357545D01*
X205809Y357630D01*
X205757Y357717D01*
X205708Y357805D01*
X205662Y357896D01*
X205620Y357988D01*
X205581Y358081D01*
X205546Y358176D01*
X205514Y358273D01*
X205486Y358370D01*
X205462Y358468D01*
X205441Y358567D01*
X205424Y358667D01*
X205411Y358768D01*
X205402Y358869D01*
X205396Y358970D01*
X205394Y359071D01*
X205394Y364490D01*
X205396Y364591D01*
X205402Y364692D01*
X205411Y364793D01*
X205424Y364894D01*
X205441Y364994D01*
X205462Y365093D01*
X205486Y365191D01*
X205514Y365288D01*
X205546Y365385D01*
X205581Y365480D01*
X205620Y365573D01*
X205662Y365665D01*
X205708Y365756D01*
X205757Y365845D01*
X205809Y365931D01*
X205865Y366016D01*
X205923Y366099D01*
X205985Y366179D01*
X206050Y366257D01*
X206117Y366333D01*
X206187Y366406D01*
X206260Y366476D01*
X206336Y366543D01*
X206414Y366608D01*
X206494Y366670D01*
X206577Y366728D01*
X206662Y366784D01*
X206749Y366836D01*
X206837Y366885D01*
X206928Y366931D01*
X207020Y366973D01*
X207113Y367012D01*
X207208Y367047D01*
X207305Y367079D01*
X207402Y367107D01*
X207500Y367131D01*
X207599Y367152D01*
X207699Y367169D01*
X207800Y367182D01*
X207901Y367191D01*
X208002Y367197D01*
X208103Y367199D01*
X211715Y367199D01*
X229309Y372618D02*
X229309Y356362D01*
X224794Y372618D02*
X233825Y372618D01*
X239850Y367199D02*
X239850Y356362D01*
X239850Y367199D02*
X245268Y367199D01*
X245268Y365393D01*
X253273Y362684D02*
X257337Y362684D01*
X253273Y362684D02*
X253161Y362682D01*
X253050Y362676D01*
X252939Y362666D01*
X252828Y362653D01*
X252718Y362635D01*
X252609Y362613D01*
X252500Y362588D01*
X252392Y362559D01*
X252286Y362526D01*
X252180Y362489D01*
X252076Y362449D01*
X251974Y362405D01*
X251873Y362357D01*
X251774Y362306D01*
X251676Y362251D01*
X251581Y362193D01*
X251488Y362132D01*
X251397Y362067D01*
X251308Y361999D01*
X251222Y361928D01*
X251139Y361855D01*
X251058Y361778D01*
X250979Y361698D01*
X250904Y361616D01*
X250832Y361531D01*
X250762Y361444D01*
X250696Y361354D01*
X250633Y361262D01*
X250573Y361167D01*
X250517Y361071D01*
X250464Y360973D01*
X250415Y360873D01*
X250369Y360771D01*
X250327Y360668D01*
X250288Y360563D01*
X250253Y360457D01*
X250222Y360350D01*
X250195Y360242D01*
X250171Y360133D01*
X250152Y360023D01*
X250136Y359913D01*
X250124Y359802D01*
X250116Y359690D01*
X250112Y359579D01*
X250112Y359467D01*
X250116Y359356D01*
X250124Y359244D01*
X250136Y359133D01*
X250152Y359023D01*
X250171Y358913D01*
X250195Y358804D01*
X250222Y358696D01*
X250253Y358589D01*
X250288Y358483D01*
X250327Y358378D01*
X250369Y358275D01*
X250415Y358173D01*
X250464Y358073D01*
X250517Y357975D01*
X250573Y357879D01*
X250633Y357784D01*
X250696Y357692D01*
X250762Y357602D01*
X250832Y357515D01*
X250904Y357430D01*
X250979Y357348D01*
X251058Y357268D01*
X251139Y357191D01*
X251222Y357118D01*
X251308Y357047D01*
X251397Y356979D01*
X251488Y356914D01*
X251581Y356853D01*
X251676Y356795D01*
X251774Y356740D01*
X251873Y356689D01*
X251974Y356641D01*
X252076Y356597D01*
X252180Y356557D01*
X252286Y356520D01*
X252392Y356487D01*
X252500Y356458D01*
X252609Y356433D01*
X252718Y356411D01*
X252828Y356393D01*
X252939Y356380D01*
X253050Y356370D01*
X253161Y356364D01*
X253273Y356362D01*
X257337Y356362D01*
X257337Y364490D01*
X257335Y364591D01*
X257329Y364692D01*
X257320Y364793D01*
X257307Y364894D01*
X257290Y364994D01*
X257269Y365093D01*
X257245Y365191D01*
X257217Y365288D01*
X257185Y365385D01*
X257150Y365480D01*
X257111Y365573D01*
X257069Y365665D01*
X257023Y365756D01*
X256974Y365845D01*
X256922Y365931D01*
X256866Y366016D01*
X256808Y366099D01*
X256746Y366179D01*
X256681Y366257D01*
X256614Y366333D01*
X256544Y366406D01*
X256471Y366476D01*
X256395Y366543D01*
X256317Y366608D01*
X256237Y366670D01*
X256154Y366728D01*
X256069Y366784D01*
X255983Y366836D01*
X255894Y366885D01*
X255803Y366931D01*
X255711Y366973D01*
X255618Y367012D01*
X255523Y367047D01*
X255426Y367079D01*
X255329Y367107D01*
X255231Y367131D01*
X255132Y367152D01*
X255032Y367169D01*
X254931Y367182D01*
X254830Y367191D01*
X254729Y367197D01*
X254628Y367199D01*
X251015Y367199D01*
X266981Y356362D02*
X270593Y356362D01*
X266981Y356362D02*
X266880Y356364D01*
X266779Y356370D01*
X266678Y356379D01*
X266577Y356392D01*
X266477Y356409D01*
X266378Y356430D01*
X266280Y356454D01*
X266183Y356482D01*
X266086Y356514D01*
X265991Y356549D01*
X265898Y356588D01*
X265806Y356630D01*
X265715Y356676D01*
X265627Y356725D01*
X265540Y356777D01*
X265455Y356833D01*
X265372Y356891D01*
X265292Y356953D01*
X265214Y357018D01*
X265138Y357085D01*
X265065Y357155D01*
X264995Y357228D01*
X264928Y357304D01*
X264863Y357382D01*
X264801Y357462D01*
X264743Y357545D01*
X264687Y357630D01*
X264635Y357717D01*
X264586Y357805D01*
X264540Y357896D01*
X264498Y357988D01*
X264459Y358081D01*
X264424Y358176D01*
X264392Y358273D01*
X264364Y358370D01*
X264340Y358468D01*
X264319Y358567D01*
X264302Y358667D01*
X264289Y358768D01*
X264280Y358869D01*
X264274Y358970D01*
X264272Y359071D01*
X264271Y359071D02*
X264271Y364490D01*
X264272Y364490D02*
X264274Y364591D01*
X264280Y364692D01*
X264289Y364793D01*
X264302Y364894D01*
X264319Y364994D01*
X264340Y365093D01*
X264364Y365191D01*
X264392Y365288D01*
X264424Y365385D01*
X264459Y365480D01*
X264498Y365573D01*
X264540Y365665D01*
X264586Y365756D01*
X264635Y365845D01*
X264687Y365931D01*
X264743Y366016D01*
X264801Y366099D01*
X264863Y366179D01*
X264928Y366257D01*
X264995Y366333D01*
X265065Y366406D01*
X265138Y366476D01*
X265214Y366543D01*
X265292Y366608D01*
X265372Y366670D01*
X265455Y366728D01*
X265540Y366784D01*
X265627Y366836D01*
X265715Y366885D01*
X265806Y366931D01*
X265898Y366973D01*
X265991Y367012D01*
X266086Y367047D01*
X266183Y367079D01*
X266280Y367107D01*
X266378Y367131D01*
X266477Y367152D01*
X266577Y367169D01*
X266678Y367182D01*
X266779Y367191D01*
X266880Y367197D01*
X266981Y367199D01*
X270593Y367199D01*
X274940Y367199D02*
X280359Y367199D01*
X276747Y372618D02*
X276747Y359071D01*
X276749Y358970D01*
X276755Y358869D01*
X276764Y358768D01*
X276777Y358667D01*
X276794Y358567D01*
X276815Y358468D01*
X276839Y358370D01*
X276867Y358273D01*
X276899Y358176D01*
X276934Y358081D01*
X276973Y357988D01*
X277015Y357896D01*
X277061Y357805D01*
X277110Y357717D01*
X277162Y357630D01*
X277218Y357545D01*
X277276Y357462D01*
X277338Y357382D01*
X277403Y357304D01*
X277470Y357228D01*
X277540Y357155D01*
X277613Y357085D01*
X277689Y357018D01*
X277767Y356953D01*
X277847Y356891D01*
X277930Y356833D01*
X278015Y356777D01*
X278102Y356725D01*
X278190Y356676D01*
X278281Y356630D01*
X278373Y356588D01*
X278466Y356549D01*
X278561Y356514D01*
X278658Y356482D01*
X278755Y356454D01*
X278853Y356430D01*
X278952Y356409D01*
X279052Y356392D01*
X279153Y356379D01*
X279254Y356370D01*
X279355Y356364D01*
X279456Y356362D01*
X280359Y356362D01*
X286103Y356362D02*
X286103Y367199D01*
X285651Y371715D02*
X285651Y372618D01*
X286554Y372618D01*
X286554Y371715D01*
X285651Y371715D01*
X292390Y363587D02*
X292390Y359974D01*
X292390Y363587D02*
X292392Y363706D01*
X292398Y363826D01*
X292408Y363945D01*
X292422Y364063D01*
X292439Y364182D01*
X292461Y364299D01*
X292486Y364416D01*
X292516Y364531D01*
X292549Y364646D01*
X292586Y364760D01*
X292626Y364872D01*
X292671Y364983D01*
X292719Y365092D01*
X292770Y365200D01*
X292825Y365306D01*
X292884Y365410D01*
X292946Y365512D01*
X293011Y365612D01*
X293080Y365710D01*
X293152Y365806D01*
X293227Y365899D01*
X293304Y365989D01*
X293385Y366077D01*
X293469Y366162D01*
X293556Y366244D01*
X293645Y366324D01*
X293737Y366400D01*
X293831Y366474D01*
X293928Y366544D01*
X294026Y366611D01*
X294127Y366675D01*
X294231Y366735D01*
X294336Y366792D01*
X294443Y366845D01*
X294551Y366895D01*
X294661Y366941D01*
X294773Y366983D01*
X294886Y367022D01*
X295000Y367057D01*
X295115Y367088D01*
X295232Y367116D01*
X295349Y367139D01*
X295466Y367159D01*
X295585Y367175D01*
X295704Y367187D01*
X295823Y367195D01*
X295942Y367199D01*
X296062Y367199D01*
X296181Y367195D01*
X296300Y367187D01*
X296419Y367175D01*
X296538Y367159D01*
X296655Y367139D01*
X296772Y367116D01*
X296889Y367088D01*
X297004Y367057D01*
X297118Y367022D01*
X297231Y366983D01*
X297343Y366941D01*
X297453Y366895D01*
X297561Y366845D01*
X297668Y366792D01*
X297773Y366735D01*
X297877Y366675D01*
X297978Y366611D01*
X298076Y366544D01*
X298173Y366474D01*
X298267Y366400D01*
X298359Y366324D01*
X298448Y366244D01*
X298535Y366162D01*
X298619Y366077D01*
X298700Y365989D01*
X298777Y365899D01*
X298852Y365806D01*
X298924Y365710D01*
X298993Y365612D01*
X299058Y365512D01*
X299120Y365410D01*
X299179Y365306D01*
X299234Y365200D01*
X299285Y365092D01*
X299333Y364983D01*
X299378Y364872D01*
X299418Y364760D01*
X299455Y364646D01*
X299488Y364531D01*
X299518Y364416D01*
X299543Y364299D01*
X299565Y364182D01*
X299582Y364063D01*
X299596Y363945D01*
X299606Y363826D01*
X299612Y363706D01*
X299614Y363587D01*
X299615Y363587D02*
X299615Y359974D01*
X299614Y359974D02*
X299612Y359855D01*
X299606Y359735D01*
X299596Y359616D01*
X299582Y359498D01*
X299565Y359379D01*
X299543Y359262D01*
X299518Y359145D01*
X299488Y359030D01*
X299455Y358915D01*
X299418Y358801D01*
X299378Y358689D01*
X299333Y358578D01*
X299285Y358469D01*
X299234Y358361D01*
X299179Y358255D01*
X299120Y358151D01*
X299058Y358049D01*
X298993Y357949D01*
X298924Y357851D01*
X298852Y357755D01*
X298777Y357662D01*
X298700Y357572D01*
X298619Y357484D01*
X298535Y357399D01*
X298448Y357317D01*
X298359Y357237D01*
X298267Y357161D01*
X298173Y357087D01*
X298076Y357017D01*
X297978Y356950D01*
X297877Y356886D01*
X297773Y356826D01*
X297668Y356769D01*
X297561Y356716D01*
X297453Y356666D01*
X297343Y356620D01*
X297231Y356578D01*
X297118Y356539D01*
X297004Y356504D01*
X296889Y356473D01*
X296772Y356445D01*
X296655Y356422D01*
X296538Y356402D01*
X296419Y356386D01*
X296300Y356374D01*
X296181Y356366D01*
X296062Y356362D01*
X295942Y356362D01*
X295823Y356366D01*
X295704Y356374D01*
X295585Y356386D01*
X295466Y356402D01*
X295349Y356422D01*
X295232Y356445D01*
X295115Y356473D01*
X295000Y356504D01*
X294886Y356539D01*
X294773Y356578D01*
X294661Y356620D01*
X294551Y356666D01*
X294443Y356716D01*
X294336Y356769D01*
X294231Y356826D01*
X294127Y356886D01*
X294026Y356950D01*
X293928Y357017D01*
X293831Y357087D01*
X293737Y357161D01*
X293645Y357237D01*
X293556Y357317D01*
X293469Y357399D01*
X293385Y357484D01*
X293304Y357572D01*
X293227Y357662D01*
X293152Y357755D01*
X293080Y357851D01*
X293011Y357949D01*
X292946Y358049D01*
X292884Y358151D01*
X292825Y358255D01*
X292770Y358361D01*
X292719Y358469D01*
X292671Y358578D01*
X292626Y358689D01*
X292586Y358801D01*
X292549Y358915D01*
X292516Y359030D01*
X292486Y359145D01*
X292461Y359262D01*
X292439Y359379D01*
X292422Y359498D01*
X292408Y359616D01*
X292398Y359735D01*
X292392Y359855D01*
X292390Y359974D01*
X306458Y356362D02*
X306458Y367199D01*
X310973Y367199D01*
X311077Y367197D01*
X311180Y367191D01*
X311284Y367181D01*
X311387Y367167D01*
X311489Y367149D01*
X311590Y367128D01*
X311691Y367102D01*
X311790Y367073D01*
X311889Y367040D01*
X311986Y367003D01*
X312081Y366962D01*
X312175Y366918D01*
X312267Y366870D01*
X312357Y366819D01*
X312446Y366764D01*
X312532Y366706D01*
X312615Y366644D01*
X312697Y366580D01*
X312775Y366512D01*
X312851Y366442D01*
X312925Y366369D01*
X312995Y366292D01*
X313063Y366214D01*
X313127Y366132D01*
X313189Y366049D01*
X313247Y365963D01*
X313302Y365874D01*
X313353Y365784D01*
X313401Y365692D01*
X313445Y365598D01*
X313486Y365503D01*
X313523Y365406D01*
X313556Y365307D01*
X313585Y365208D01*
X313611Y365107D01*
X313632Y365006D01*
X313650Y364904D01*
X313664Y364801D01*
X313674Y364697D01*
X313680Y364594D01*
X313682Y364490D01*
X313683Y364490D02*
X313683Y356362D01*
X324238Y356362D02*
X327850Y356362D01*
X324238Y356362D02*
X324120Y356364D01*
X324002Y356370D01*
X323884Y356379D01*
X323767Y356393D01*
X323650Y356410D01*
X323533Y356431D01*
X323418Y356456D01*
X323303Y356485D01*
X323189Y356518D01*
X323077Y356554D01*
X322966Y356594D01*
X322856Y356637D01*
X322747Y356684D01*
X322640Y356734D01*
X322535Y356789D01*
X322432Y356846D01*
X322331Y356907D01*
X322231Y356971D01*
X322134Y357038D01*
X322039Y357108D01*
X321947Y357182D01*
X321856Y357258D01*
X321769Y357338D01*
X321684Y357420D01*
X321602Y357505D01*
X321522Y357592D01*
X321446Y357683D01*
X321372Y357775D01*
X321302Y357870D01*
X321235Y357967D01*
X321171Y358067D01*
X321110Y358168D01*
X321053Y358271D01*
X320998Y358376D01*
X320948Y358483D01*
X320901Y358592D01*
X320858Y358702D01*
X320818Y358813D01*
X320782Y358925D01*
X320749Y359039D01*
X320720Y359154D01*
X320695Y359269D01*
X320674Y359386D01*
X320657Y359503D01*
X320643Y359620D01*
X320634Y359738D01*
X320628Y359856D01*
X320626Y359974D01*
X320626Y369006D01*
X320628Y369124D01*
X320634Y369242D01*
X320643Y369360D01*
X320657Y369477D01*
X320674Y369594D01*
X320695Y369711D01*
X320720Y369826D01*
X320749Y369941D01*
X320782Y370055D01*
X320818Y370167D01*
X320858Y370278D01*
X320901Y370388D01*
X320948Y370497D01*
X320998Y370604D01*
X321052Y370709D01*
X321110Y370812D01*
X321171Y370913D01*
X321235Y371013D01*
X321302Y371110D01*
X321372Y371205D01*
X321446Y371297D01*
X321522Y371388D01*
X321602Y371475D01*
X321684Y371560D01*
X321769Y371642D01*
X321856Y371722D01*
X321947Y371798D01*
X322039Y371872D01*
X322134Y371942D01*
X322231Y372009D01*
X322331Y372073D01*
X322432Y372134D01*
X322535Y372191D01*
X322640Y372245D01*
X322747Y372296D01*
X322856Y372343D01*
X322966Y372386D01*
X323077Y372426D01*
X323189Y372462D01*
X323303Y372495D01*
X323418Y372524D01*
X323533Y372549D01*
X323650Y372570D01*
X323767Y372587D01*
X323884Y372601D01*
X324002Y372610D01*
X324120Y372616D01*
X324238Y372618D01*
X327850Y372618D01*
X333552Y363587D02*
X333552Y359974D01*
X333552Y363587D02*
X333554Y363706D01*
X333560Y363826D01*
X333570Y363945D01*
X333584Y364063D01*
X333601Y364182D01*
X333623Y364299D01*
X333648Y364416D01*
X333678Y364531D01*
X333711Y364646D01*
X333748Y364760D01*
X333788Y364872D01*
X333833Y364983D01*
X333881Y365092D01*
X333932Y365200D01*
X333987Y365306D01*
X334046Y365410D01*
X334108Y365512D01*
X334173Y365612D01*
X334242Y365710D01*
X334314Y365806D01*
X334389Y365899D01*
X334466Y365989D01*
X334547Y366077D01*
X334631Y366162D01*
X334718Y366244D01*
X334807Y366324D01*
X334899Y366400D01*
X334993Y366474D01*
X335090Y366544D01*
X335188Y366611D01*
X335289Y366675D01*
X335393Y366735D01*
X335498Y366792D01*
X335605Y366845D01*
X335713Y366895D01*
X335823Y366941D01*
X335935Y366983D01*
X336048Y367022D01*
X336162Y367057D01*
X336277Y367088D01*
X336394Y367116D01*
X336511Y367139D01*
X336628Y367159D01*
X336747Y367175D01*
X336866Y367187D01*
X336985Y367195D01*
X337104Y367199D01*
X337224Y367199D01*
X337343Y367195D01*
X337462Y367187D01*
X337581Y367175D01*
X337700Y367159D01*
X337817Y367139D01*
X337934Y367116D01*
X338051Y367088D01*
X338166Y367057D01*
X338280Y367022D01*
X338393Y366983D01*
X338505Y366941D01*
X338615Y366895D01*
X338723Y366845D01*
X338830Y366792D01*
X338935Y366735D01*
X339039Y366675D01*
X339140Y366611D01*
X339238Y366544D01*
X339335Y366474D01*
X339429Y366400D01*
X339521Y366324D01*
X339610Y366244D01*
X339697Y366162D01*
X339781Y366077D01*
X339862Y365989D01*
X339939Y365899D01*
X340014Y365806D01*
X340086Y365710D01*
X340155Y365612D01*
X340220Y365512D01*
X340282Y365410D01*
X340341Y365306D01*
X340396Y365200D01*
X340447Y365092D01*
X340495Y364983D01*
X340540Y364872D01*
X340580Y364760D01*
X340617Y364646D01*
X340650Y364531D01*
X340680Y364416D01*
X340705Y364299D01*
X340727Y364182D01*
X340744Y364063D01*
X340758Y363945D01*
X340768Y363826D01*
X340774Y363706D01*
X340776Y363587D01*
X340777Y363587D02*
X340777Y359974D01*
X340776Y359974D02*
X340774Y359855D01*
X340768Y359735D01*
X340758Y359616D01*
X340744Y359498D01*
X340727Y359379D01*
X340705Y359262D01*
X340680Y359145D01*
X340650Y359030D01*
X340617Y358915D01*
X340580Y358801D01*
X340540Y358689D01*
X340495Y358578D01*
X340447Y358469D01*
X340396Y358361D01*
X340341Y358255D01*
X340282Y358151D01*
X340220Y358049D01*
X340155Y357949D01*
X340086Y357851D01*
X340014Y357755D01*
X339939Y357662D01*
X339862Y357572D01*
X339781Y357484D01*
X339697Y357399D01*
X339610Y357317D01*
X339521Y357237D01*
X339429Y357161D01*
X339335Y357087D01*
X339238Y357017D01*
X339140Y356950D01*
X339039Y356886D01*
X338935Y356826D01*
X338830Y356769D01*
X338723Y356716D01*
X338615Y356666D01*
X338505Y356620D01*
X338393Y356578D01*
X338280Y356539D01*
X338166Y356504D01*
X338051Y356473D01*
X337934Y356445D01*
X337817Y356422D01*
X337700Y356402D01*
X337581Y356386D01*
X337462Y356374D01*
X337343Y356366D01*
X337224Y356362D01*
X337104Y356362D01*
X336985Y356366D01*
X336866Y356374D01*
X336747Y356386D01*
X336628Y356402D01*
X336511Y356422D01*
X336394Y356445D01*
X336277Y356473D01*
X336162Y356504D01*
X336048Y356539D01*
X335935Y356578D01*
X335823Y356620D01*
X335713Y356666D01*
X335605Y356716D01*
X335498Y356769D01*
X335393Y356826D01*
X335289Y356886D01*
X335188Y356950D01*
X335090Y357017D01*
X334993Y357087D01*
X334899Y357161D01*
X334807Y357237D01*
X334718Y357317D01*
X334631Y357399D01*
X334547Y357484D01*
X334466Y357572D01*
X334389Y357662D01*
X334314Y357755D01*
X334242Y357851D01*
X334173Y357949D01*
X334108Y358049D01*
X334046Y358151D01*
X333987Y358255D01*
X333932Y358361D01*
X333881Y358469D01*
X333833Y358578D01*
X333788Y358689D01*
X333748Y358801D01*
X333711Y358915D01*
X333678Y359030D01*
X333648Y359145D01*
X333623Y359262D01*
X333601Y359379D01*
X333584Y359498D01*
X333570Y359616D01*
X333560Y359735D01*
X333554Y359855D01*
X333552Y359974D01*
X347620Y356362D02*
X347620Y367199D01*
X352136Y367199D01*
X352240Y367197D01*
X352343Y367191D01*
X352447Y367181D01*
X352550Y367167D01*
X352652Y367149D01*
X352753Y367128D01*
X352854Y367102D01*
X352953Y367073D01*
X353052Y367040D01*
X353149Y367003D01*
X353244Y366962D01*
X353338Y366918D01*
X353430Y366870D01*
X353520Y366819D01*
X353609Y366764D01*
X353695Y366706D01*
X353778Y366644D01*
X353860Y366580D01*
X353938Y366512D01*
X354014Y366442D01*
X354088Y366369D01*
X354158Y366292D01*
X354226Y366214D01*
X354290Y366132D01*
X354352Y366049D01*
X354410Y365963D01*
X354465Y365874D01*
X354516Y365784D01*
X354564Y365692D01*
X354608Y365598D01*
X354649Y365503D01*
X354686Y365406D01*
X354719Y365307D01*
X354748Y365208D01*
X354774Y365107D01*
X354795Y365006D01*
X354813Y364904D01*
X354827Y364801D01*
X354837Y364697D01*
X354843Y364594D01*
X354845Y364490D01*
X354845Y356362D01*
X360391Y367199D02*
X365810Y367199D01*
X362197Y372618D02*
X362197Y359071D01*
X362199Y358970D01*
X362205Y358869D01*
X362214Y358768D01*
X362227Y358667D01*
X362244Y358567D01*
X362265Y358468D01*
X362289Y358370D01*
X362317Y358273D01*
X362349Y358176D01*
X362384Y358081D01*
X362423Y357988D01*
X362465Y357896D01*
X362511Y357805D01*
X362560Y357717D01*
X362612Y357630D01*
X362668Y357545D01*
X362726Y357462D01*
X362788Y357382D01*
X362853Y357304D01*
X362920Y357228D01*
X362990Y357155D01*
X363063Y357085D01*
X363139Y357018D01*
X363217Y356953D01*
X363297Y356891D01*
X363380Y356833D01*
X363465Y356777D01*
X363552Y356725D01*
X363640Y356676D01*
X363731Y356630D01*
X363823Y356588D01*
X363916Y356549D01*
X364011Y356514D01*
X364108Y356482D01*
X364205Y356454D01*
X364303Y356430D01*
X364402Y356409D01*
X364502Y356392D01*
X364603Y356379D01*
X364704Y356370D01*
X364805Y356364D01*
X364906Y356362D01*
X365810Y356362D01*
X372194Y356362D02*
X372194Y367199D01*
X377613Y367199D01*
X377613Y365393D01*
X382530Y363587D02*
X382530Y359974D01*
X382530Y363587D02*
X382532Y363706D01*
X382538Y363826D01*
X382548Y363945D01*
X382562Y364063D01*
X382579Y364182D01*
X382601Y364299D01*
X382626Y364416D01*
X382656Y364531D01*
X382689Y364646D01*
X382726Y364760D01*
X382766Y364872D01*
X382811Y364983D01*
X382859Y365092D01*
X382910Y365200D01*
X382965Y365306D01*
X383024Y365410D01*
X383086Y365512D01*
X383151Y365612D01*
X383220Y365710D01*
X383292Y365806D01*
X383367Y365899D01*
X383444Y365989D01*
X383525Y366077D01*
X383609Y366162D01*
X383696Y366244D01*
X383785Y366324D01*
X383877Y366400D01*
X383971Y366474D01*
X384068Y366544D01*
X384166Y366611D01*
X384267Y366675D01*
X384371Y366735D01*
X384476Y366792D01*
X384583Y366845D01*
X384691Y366895D01*
X384801Y366941D01*
X384913Y366983D01*
X385026Y367022D01*
X385140Y367057D01*
X385255Y367088D01*
X385372Y367116D01*
X385489Y367139D01*
X385606Y367159D01*
X385725Y367175D01*
X385844Y367187D01*
X385963Y367195D01*
X386082Y367199D01*
X386202Y367199D01*
X386321Y367195D01*
X386440Y367187D01*
X386559Y367175D01*
X386678Y367159D01*
X386795Y367139D01*
X386912Y367116D01*
X387029Y367088D01*
X387144Y367057D01*
X387258Y367022D01*
X387371Y366983D01*
X387483Y366941D01*
X387593Y366895D01*
X387701Y366845D01*
X387808Y366792D01*
X387913Y366735D01*
X388017Y366675D01*
X388118Y366611D01*
X388216Y366544D01*
X388313Y366474D01*
X388407Y366400D01*
X388499Y366324D01*
X388588Y366244D01*
X388675Y366162D01*
X388759Y366077D01*
X388840Y365989D01*
X388917Y365899D01*
X388992Y365806D01*
X389064Y365710D01*
X389133Y365612D01*
X389198Y365512D01*
X389260Y365410D01*
X389319Y365306D01*
X389374Y365200D01*
X389425Y365092D01*
X389473Y364983D01*
X389518Y364872D01*
X389558Y364760D01*
X389595Y364646D01*
X389628Y364531D01*
X389658Y364416D01*
X389683Y364299D01*
X389705Y364182D01*
X389722Y364063D01*
X389736Y363945D01*
X389746Y363826D01*
X389752Y363706D01*
X389754Y363587D01*
X389755Y363587D02*
X389755Y359974D01*
X389754Y359974D02*
X389752Y359855D01*
X389746Y359735D01*
X389736Y359616D01*
X389722Y359498D01*
X389705Y359379D01*
X389683Y359262D01*
X389658Y359145D01*
X389628Y359030D01*
X389595Y358915D01*
X389558Y358801D01*
X389518Y358689D01*
X389473Y358578D01*
X389425Y358469D01*
X389374Y358361D01*
X389319Y358255D01*
X389260Y358151D01*
X389198Y358049D01*
X389133Y357949D01*
X389064Y357851D01*
X388992Y357755D01*
X388917Y357662D01*
X388840Y357572D01*
X388759Y357484D01*
X388675Y357399D01*
X388588Y357317D01*
X388499Y357237D01*
X388407Y357161D01*
X388313Y357087D01*
X388216Y357017D01*
X388118Y356950D01*
X388017Y356886D01*
X387913Y356826D01*
X387808Y356769D01*
X387701Y356716D01*
X387593Y356666D01*
X387483Y356620D01*
X387371Y356578D01*
X387258Y356539D01*
X387144Y356504D01*
X387029Y356473D01*
X386912Y356445D01*
X386795Y356422D01*
X386678Y356402D01*
X386559Y356386D01*
X386440Y356374D01*
X386321Y356366D01*
X386202Y356362D01*
X386082Y356362D01*
X385963Y356366D01*
X385844Y356374D01*
X385725Y356386D01*
X385606Y356402D01*
X385489Y356422D01*
X385372Y356445D01*
X385255Y356473D01*
X385140Y356504D01*
X385026Y356539D01*
X384913Y356578D01*
X384801Y356620D01*
X384691Y356666D01*
X384583Y356716D01*
X384476Y356769D01*
X384371Y356826D01*
X384267Y356886D01*
X384166Y356950D01*
X384068Y357017D01*
X383971Y357087D01*
X383877Y357161D01*
X383785Y357237D01*
X383696Y357317D01*
X383609Y357399D01*
X383525Y357484D01*
X383444Y357572D01*
X383367Y357662D01*
X383292Y357755D01*
X383220Y357851D01*
X383151Y357949D01*
X383086Y358049D01*
X383024Y358151D01*
X382965Y358255D01*
X382910Y358361D01*
X382859Y358469D01*
X382811Y358578D01*
X382766Y358689D01*
X382726Y358801D01*
X382689Y358915D01*
X382656Y359030D01*
X382626Y359145D01*
X382601Y359262D01*
X382579Y359379D01*
X382562Y359498D01*
X382548Y359616D01*
X382538Y359735D01*
X382532Y359855D01*
X382530Y359974D01*
X396314Y359071D02*
X396314Y372618D01*
X396314Y359071D02*
X396316Y358970D01*
X396322Y358869D01*
X396331Y358768D01*
X396344Y358667D01*
X396361Y358567D01*
X396382Y358468D01*
X396406Y358370D01*
X396434Y358273D01*
X396466Y358176D01*
X396501Y358081D01*
X396540Y357988D01*
X396582Y357896D01*
X396628Y357805D01*
X396677Y357717D01*
X396729Y357630D01*
X396785Y357545D01*
X396843Y357462D01*
X396905Y357382D01*
X396970Y357304D01*
X397037Y357228D01*
X397107Y357155D01*
X397180Y357085D01*
X397256Y357018D01*
X397334Y356953D01*
X397414Y356891D01*
X397497Y356833D01*
X397582Y356777D01*
X397669Y356725D01*
X397757Y356676D01*
X397848Y356630D01*
X397940Y356588D01*
X398033Y356549D01*
X398128Y356514D01*
X398225Y356482D01*
X398322Y356454D01*
X398420Y356430D01*
X398519Y356409D01*
X398619Y356392D01*
X398720Y356379D01*
X398821Y356370D01*
X398922Y356364D01*
X399023Y356362D01*
X413549Y356362D02*
X413549Y372618D01*
X418968Y363587D01*
X424386Y372618D01*
X424386Y356362D01*
X431508Y359974D02*
X431508Y363587D01*
X431510Y363706D01*
X431516Y363826D01*
X431526Y363945D01*
X431540Y364063D01*
X431557Y364182D01*
X431579Y364299D01*
X431604Y364416D01*
X431634Y364531D01*
X431667Y364646D01*
X431704Y364760D01*
X431744Y364872D01*
X431789Y364983D01*
X431837Y365092D01*
X431888Y365200D01*
X431943Y365306D01*
X432002Y365410D01*
X432064Y365512D01*
X432129Y365612D01*
X432198Y365710D01*
X432270Y365806D01*
X432345Y365899D01*
X432422Y365989D01*
X432503Y366077D01*
X432587Y366162D01*
X432674Y366244D01*
X432763Y366324D01*
X432855Y366400D01*
X432949Y366474D01*
X433046Y366544D01*
X433144Y366611D01*
X433245Y366675D01*
X433349Y366735D01*
X433454Y366792D01*
X433561Y366845D01*
X433669Y366895D01*
X433779Y366941D01*
X433891Y366983D01*
X434004Y367022D01*
X434118Y367057D01*
X434233Y367088D01*
X434350Y367116D01*
X434467Y367139D01*
X434584Y367159D01*
X434703Y367175D01*
X434822Y367187D01*
X434941Y367195D01*
X435060Y367199D01*
X435180Y367199D01*
X435299Y367195D01*
X435418Y367187D01*
X435537Y367175D01*
X435656Y367159D01*
X435773Y367139D01*
X435890Y367116D01*
X436007Y367088D01*
X436122Y367057D01*
X436236Y367022D01*
X436349Y366983D01*
X436461Y366941D01*
X436571Y366895D01*
X436679Y366845D01*
X436786Y366792D01*
X436891Y366735D01*
X436995Y366675D01*
X437096Y366611D01*
X437194Y366544D01*
X437291Y366474D01*
X437385Y366400D01*
X437477Y366324D01*
X437566Y366244D01*
X437653Y366162D01*
X437737Y366077D01*
X437818Y365989D01*
X437895Y365899D01*
X437970Y365806D01*
X438042Y365710D01*
X438111Y365612D01*
X438176Y365512D01*
X438238Y365410D01*
X438297Y365306D01*
X438352Y365200D01*
X438403Y365092D01*
X438451Y364983D01*
X438496Y364872D01*
X438536Y364760D01*
X438573Y364646D01*
X438606Y364531D01*
X438636Y364416D01*
X438661Y364299D01*
X438683Y364182D01*
X438700Y364063D01*
X438714Y363945D01*
X438724Y363826D01*
X438730Y363706D01*
X438732Y363587D01*
X438733Y363587D02*
X438733Y359974D01*
X438732Y359974D02*
X438730Y359855D01*
X438724Y359735D01*
X438714Y359616D01*
X438700Y359498D01*
X438683Y359379D01*
X438661Y359262D01*
X438636Y359145D01*
X438606Y359030D01*
X438573Y358915D01*
X438536Y358801D01*
X438496Y358689D01*
X438451Y358578D01*
X438403Y358469D01*
X438352Y358361D01*
X438297Y358255D01*
X438238Y358151D01*
X438176Y358049D01*
X438111Y357949D01*
X438042Y357851D01*
X437970Y357755D01*
X437895Y357662D01*
X437818Y357572D01*
X437737Y357484D01*
X437653Y357399D01*
X437566Y357317D01*
X437477Y357237D01*
X437385Y357161D01*
X437291Y357087D01*
X437194Y357017D01*
X437096Y356950D01*
X436995Y356886D01*
X436891Y356826D01*
X436786Y356769D01*
X436679Y356716D01*
X436571Y356666D01*
X436461Y356620D01*
X436349Y356578D01*
X436236Y356539D01*
X436122Y356504D01*
X436007Y356473D01*
X435890Y356445D01*
X435773Y356422D01*
X435656Y356402D01*
X435537Y356386D01*
X435418Y356374D01*
X435299Y356366D01*
X435180Y356362D01*
X435060Y356362D01*
X434941Y356366D01*
X434822Y356374D01*
X434703Y356386D01*
X434584Y356402D01*
X434467Y356422D01*
X434350Y356445D01*
X434233Y356473D01*
X434118Y356504D01*
X434004Y356539D01*
X433891Y356578D01*
X433779Y356620D01*
X433669Y356666D01*
X433561Y356716D01*
X433454Y356769D01*
X433349Y356826D01*
X433245Y356886D01*
X433144Y356950D01*
X433046Y357017D01*
X432949Y357087D01*
X432855Y357161D01*
X432763Y357237D01*
X432674Y357317D01*
X432587Y357399D01*
X432503Y357484D01*
X432422Y357572D01*
X432345Y357662D01*
X432270Y357755D01*
X432198Y357851D01*
X432129Y357949D01*
X432064Y358049D01*
X432002Y358151D01*
X431943Y358255D01*
X431888Y358361D01*
X431837Y358469D01*
X431789Y358578D01*
X431744Y358689D01*
X431704Y358801D01*
X431667Y358915D01*
X431634Y359030D01*
X431604Y359145D01*
X431579Y359262D01*
X431557Y359379D01*
X431540Y359498D01*
X431526Y359616D01*
X431516Y359735D01*
X431510Y359855D01*
X431508Y359974D01*
X452206Y356362D02*
X452206Y372618D01*
X452206Y356362D02*
X447691Y356362D01*
X447590Y356364D01*
X447489Y356370D01*
X447388Y356379D01*
X447287Y356392D01*
X447187Y356409D01*
X447088Y356430D01*
X446990Y356454D01*
X446893Y356482D01*
X446796Y356514D01*
X446701Y356549D01*
X446608Y356588D01*
X446516Y356630D01*
X446425Y356676D01*
X446337Y356725D01*
X446250Y356777D01*
X446165Y356833D01*
X446082Y356891D01*
X446002Y356953D01*
X445924Y357018D01*
X445848Y357085D01*
X445775Y357155D01*
X445705Y357228D01*
X445638Y357304D01*
X445573Y357382D01*
X445511Y357462D01*
X445453Y357545D01*
X445397Y357630D01*
X445345Y357717D01*
X445296Y357805D01*
X445250Y357896D01*
X445208Y357988D01*
X445169Y358081D01*
X445134Y358176D01*
X445102Y358273D01*
X445074Y358370D01*
X445050Y358468D01*
X445029Y358567D01*
X445012Y358667D01*
X444999Y358768D01*
X444990Y358869D01*
X444984Y358970D01*
X444982Y359071D01*
X444981Y359071D02*
X444981Y364490D01*
X444982Y364490D02*
X444984Y364591D01*
X444990Y364692D01*
X444999Y364793D01*
X445012Y364894D01*
X445029Y364994D01*
X445050Y365093D01*
X445074Y365191D01*
X445102Y365288D01*
X445134Y365385D01*
X445169Y365480D01*
X445208Y365573D01*
X445250Y365665D01*
X445296Y365756D01*
X445345Y365845D01*
X445397Y365931D01*
X445453Y366016D01*
X445511Y366099D01*
X445573Y366179D01*
X445638Y366257D01*
X445705Y366333D01*
X445775Y366406D01*
X445848Y366476D01*
X445924Y366543D01*
X446002Y366608D01*
X446082Y366670D01*
X446165Y366728D01*
X446250Y366784D01*
X446337Y366836D01*
X446425Y366885D01*
X446516Y366931D01*
X446608Y366973D01*
X446701Y367012D01*
X446796Y367047D01*
X446893Y367079D01*
X446990Y367107D01*
X447088Y367131D01*
X447187Y367152D01*
X447287Y367169D01*
X447388Y367182D01*
X447489Y367191D01*
X447590Y367197D01*
X447691Y367199D01*
X452206Y367199D01*
X459644Y367199D02*
X459644Y359071D01*
X459646Y358970D01*
X459652Y358869D01*
X459661Y358768D01*
X459674Y358667D01*
X459691Y358567D01*
X459712Y358468D01*
X459736Y358370D01*
X459764Y358273D01*
X459796Y358176D01*
X459831Y358081D01*
X459870Y357988D01*
X459912Y357896D01*
X459958Y357805D01*
X460007Y357717D01*
X460059Y357630D01*
X460115Y357545D01*
X460173Y357462D01*
X460235Y357382D01*
X460300Y357304D01*
X460367Y357228D01*
X460437Y357155D01*
X460510Y357085D01*
X460586Y357018D01*
X460664Y356953D01*
X460744Y356891D01*
X460827Y356833D01*
X460912Y356777D01*
X460999Y356725D01*
X461087Y356676D01*
X461178Y356630D01*
X461270Y356588D01*
X461363Y356549D01*
X461458Y356514D01*
X461555Y356482D01*
X461652Y356454D01*
X461750Y356430D01*
X461849Y356409D01*
X461949Y356392D01*
X462050Y356379D01*
X462151Y356370D01*
X462252Y356364D01*
X462353Y356362D01*
X466869Y356362D01*
X466869Y367199D01*
X473949Y372618D02*
X473949Y359071D01*
X473951Y358970D01*
X473957Y358869D01*
X473966Y358768D01*
X473979Y358667D01*
X473996Y358567D01*
X474017Y358468D01*
X474041Y358370D01*
X474069Y358273D01*
X474101Y358176D01*
X474136Y358081D01*
X474175Y357988D01*
X474217Y357896D01*
X474263Y357805D01*
X474312Y357717D01*
X474364Y357630D01*
X474420Y357545D01*
X474478Y357462D01*
X474540Y357382D01*
X474605Y357304D01*
X474672Y357228D01*
X474742Y357155D01*
X474815Y357085D01*
X474891Y357018D01*
X474969Y356953D01*
X475049Y356891D01*
X475132Y356833D01*
X475217Y356777D01*
X475304Y356725D01*
X475392Y356676D01*
X475483Y356630D01*
X475575Y356588D01*
X475668Y356549D01*
X475763Y356514D01*
X475860Y356482D01*
X475957Y356454D01*
X476055Y356430D01*
X476154Y356409D01*
X476254Y356392D01*
X476355Y356379D01*
X476456Y356370D01*
X476557Y356364D01*
X476658Y356362D01*
X484758Y356362D02*
X489273Y356362D01*
X484758Y356362D02*
X484657Y356364D01*
X484556Y356370D01*
X484455Y356379D01*
X484354Y356392D01*
X484254Y356409D01*
X484155Y356430D01*
X484057Y356454D01*
X483960Y356482D01*
X483863Y356514D01*
X483768Y356549D01*
X483675Y356588D01*
X483583Y356630D01*
X483492Y356676D01*
X483404Y356725D01*
X483317Y356777D01*
X483232Y356833D01*
X483149Y356891D01*
X483069Y356953D01*
X482991Y357018D01*
X482915Y357085D01*
X482842Y357155D01*
X482772Y357228D01*
X482705Y357304D01*
X482640Y357382D01*
X482578Y357462D01*
X482520Y357545D01*
X482464Y357630D01*
X482412Y357717D01*
X482363Y357805D01*
X482317Y357896D01*
X482275Y357988D01*
X482236Y358081D01*
X482201Y358176D01*
X482169Y358273D01*
X482141Y358370D01*
X482117Y358468D01*
X482096Y358567D01*
X482079Y358667D01*
X482066Y358768D01*
X482057Y358869D01*
X482051Y358970D01*
X482049Y359071D01*
X482049Y363587D01*
X482051Y363706D01*
X482057Y363826D01*
X482067Y363945D01*
X482081Y364063D01*
X482098Y364182D01*
X482120Y364299D01*
X482145Y364416D01*
X482175Y364531D01*
X482208Y364646D01*
X482245Y364760D01*
X482285Y364872D01*
X482330Y364983D01*
X482378Y365092D01*
X482429Y365200D01*
X482484Y365306D01*
X482543Y365410D01*
X482605Y365512D01*
X482670Y365612D01*
X482739Y365710D01*
X482811Y365806D01*
X482886Y365899D01*
X482963Y365989D01*
X483044Y366077D01*
X483128Y366162D01*
X483215Y366244D01*
X483304Y366324D01*
X483396Y366400D01*
X483490Y366474D01*
X483587Y366544D01*
X483685Y366611D01*
X483786Y366675D01*
X483890Y366735D01*
X483995Y366792D01*
X484102Y366845D01*
X484210Y366895D01*
X484320Y366941D01*
X484432Y366983D01*
X484545Y367022D01*
X484659Y367057D01*
X484774Y367088D01*
X484891Y367116D01*
X485008Y367139D01*
X485125Y367159D01*
X485244Y367175D01*
X485363Y367187D01*
X485482Y367195D01*
X485601Y367199D01*
X485721Y367199D01*
X485840Y367195D01*
X485959Y367187D01*
X486078Y367175D01*
X486197Y367159D01*
X486314Y367139D01*
X486431Y367116D01*
X486548Y367088D01*
X486663Y367057D01*
X486777Y367022D01*
X486890Y366983D01*
X487002Y366941D01*
X487112Y366895D01*
X487220Y366845D01*
X487327Y366792D01*
X487432Y366735D01*
X487536Y366675D01*
X487637Y366611D01*
X487735Y366544D01*
X487832Y366474D01*
X487926Y366400D01*
X488018Y366324D01*
X488107Y366244D01*
X488194Y366162D01*
X488278Y366077D01*
X488359Y365989D01*
X488436Y365899D01*
X488511Y365806D01*
X488583Y365710D01*
X488652Y365612D01*
X488717Y365512D01*
X488779Y365410D01*
X488838Y365306D01*
X488893Y365200D01*
X488944Y365092D01*
X488992Y364983D01*
X489037Y364872D01*
X489077Y364760D01*
X489114Y364646D01*
X489147Y364531D01*
X489177Y364416D01*
X489202Y364299D01*
X489224Y364182D01*
X489241Y364063D01*
X489255Y363945D01*
X489265Y363826D01*
X489271Y363706D01*
X489273Y363587D01*
X489273Y361781D01*
X482049Y361781D01*
D11*
X483235Y168275D02*
X483235Y153035D01*
X483235Y168275D02*
X487468Y168275D01*
X487597Y168273D01*
X487726Y168267D01*
X487855Y168257D01*
X487983Y168244D01*
X488111Y168226D01*
X488238Y168204D01*
X488365Y168179D01*
X488491Y168150D01*
X488615Y168117D01*
X488739Y168080D01*
X488862Y168039D01*
X488983Y167995D01*
X489103Y167947D01*
X489221Y167895D01*
X489338Y167840D01*
X489453Y167781D01*
X489566Y167719D01*
X489677Y167653D01*
X489786Y167584D01*
X489893Y167512D01*
X489998Y167436D01*
X490100Y167357D01*
X490200Y167275D01*
X490297Y167191D01*
X490392Y167103D01*
X490484Y167012D01*
X490573Y166919D01*
X490659Y166823D01*
X490743Y166724D01*
X490823Y166623D01*
X490900Y166520D01*
X490974Y166414D01*
X491045Y166306D01*
X491112Y166196D01*
X491176Y166084D01*
X491237Y165969D01*
X491294Y165854D01*
X491347Y165736D01*
X491397Y165617D01*
X491443Y165497D01*
X491486Y165375D01*
X491525Y165251D01*
X491560Y165127D01*
X491591Y165002D01*
X491618Y164876D01*
X491642Y164749D01*
X491661Y164621D01*
X491677Y164493D01*
X491689Y164364D01*
X491697Y164236D01*
X491701Y164107D01*
X491701Y163977D01*
X491697Y163848D01*
X491689Y163720D01*
X491677Y163591D01*
X491661Y163463D01*
X491642Y163335D01*
X491618Y163208D01*
X491591Y163082D01*
X491560Y162957D01*
X491525Y162833D01*
X491486Y162709D01*
X491443Y162587D01*
X491397Y162467D01*
X491347Y162348D01*
X491294Y162230D01*
X491237Y162115D01*
X491176Y162000D01*
X491112Y161888D01*
X491045Y161778D01*
X490974Y161670D01*
X490900Y161564D01*
X490823Y161461D01*
X490743Y161360D01*
X490659Y161261D01*
X490573Y161165D01*
X490484Y161072D01*
X490392Y160981D01*
X490297Y160893D01*
X490200Y160809D01*
X490100Y160727D01*
X489998Y160648D01*
X489893Y160572D01*
X489786Y160500D01*
X489677Y160431D01*
X489566Y160365D01*
X489453Y160303D01*
X489338Y160244D01*
X489221Y160189D01*
X489103Y160137D01*
X488983Y160089D01*
X488862Y160045D01*
X488739Y160004D01*
X488615Y159967D01*
X488491Y159934D01*
X488365Y159905D01*
X488238Y159880D01*
X488111Y159858D01*
X487983Y159840D01*
X487855Y159827D01*
X487726Y159817D01*
X487597Y159811D01*
X487468Y159809D01*
X487468Y159808D02*
X483235Y159808D01*
X488315Y159808D02*
X491702Y153035D01*
X500229Y153035D02*
X504463Y153035D01*
X500229Y153035D02*
X500129Y153037D01*
X500030Y153043D01*
X499930Y153053D01*
X499832Y153066D01*
X499733Y153084D01*
X499636Y153105D01*
X499540Y153130D01*
X499444Y153159D01*
X499350Y153192D01*
X499257Y153228D01*
X499166Y153268D01*
X499076Y153312D01*
X498988Y153359D01*
X498902Y153409D01*
X498818Y153463D01*
X498736Y153520D01*
X498657Y153580D01*
X498579Y153644D01*
X498505Y153710D01*
X498433Y153779D01*
X498364Y153851D01*
X498298Y153925D01*
X498234Y154003D01*
X498174Y154082D01*
X498117Y154164D01*
X498063Y154248D01*
X498013Y154334D01*
X497966Y154422D01*
X497922Y154512D01*
X497882Y154603D01*
X497846Y154696D01*
X497813Y154790D01*
X497784Y154886D01*
X497759Y154982D01*
X497738Y155079D01*
X497720Y155178D01*
X497707Y155276D01*
X497697Y155376D01*
X497691Y155475D01*
X497689Y155575D01*
X497689Y159808D01*
X497691Y159924D01*
X497697Y160039D01*
X497707Y160154D01*
X497721Y160269D01*
X497738Y160383D01*
X497760Y160497D01*
X497785Y160610D01*
X497815Y160722D01*
X497848Y160833D01*
X497885Y160942D01*
X497925Y161051D01*
X497969Y161157D01*
X498017Y161263D01*
X498069Y161366D01*
X498124Y161468D01*
X498182Y161568D01*
X498244Y161666D01*
X498309Y161761D01*
X498377Y161855D01*
X498449Y161945D01*
X498523Y162034D01*
X498601Y162120D01*
X498681Y162203D01*
X498764Y162283D01*
X498850Y162361D01*
X498939Y162435D01*
X499029Y162507D01*
X499123Y162575D01*
X499218Y162640D01*
X499316Y162702D01*
X499416Y162760D01*
X499518Y162815D01*
X499621Y162867D01*
X499727Y162915D01*
X499833Y162959D01*
X499942Y162999D01*
X500051Y163036D01*
X500162Y163069D01*
X500274Y163099D01*
X500387Y163124D01*
X500501Y163146D01*
X500615Y163163D01*
X500730Y163177D01*
X500845Y163187D01*
X500960Y163193D01*
X501076Y163195D01*
X501192Y163193D01*
X501307Y163187D01*
X501422Y163177D01*
X501537Y163163D01*
X501651Y163146D01*
X501765Y163124D01*
X501878Y163099D01*
X501990Y163069D01*
X502101Y163036D01*
X502210Y162999D01*
X502319Y162959D01*
X502425Y162915D01*
X502531Y162867D01*
X502634Y162815D01*
X502736Y162760D01*
X502836Y162702D01*
X502934Y162640D01*
X503029Y162575D01*
X503123Y162507D01*
X503213Y162435D01*
X503302Y162361D01*
X503388Y162283D01*
X503471Y162203D01*
X503551Y162120D01*
X503629Y162034D01*
X503703Y161945D01*
X503775Y161855D01*
X503843Y161761D01*
X503908Y161666D01*
X503970Y161568D01*
X504028Y161468D01*
X504083Y161366D01*
X504135Y161263D01*
X504183Y161157D01*
X504227Y161051D01*
X504267Y160942D01*
X504304Y160833D01*
X504337Y160722D01*
X504367Y160610D01*
X504392Y160497D01*
X504414Y160383D01*
X504431Y160269D01*
X504445Y160154D01*
X504455Y160039D01*
X504461Y159924D01*
X504463Y159808D01*
X504463Y158115D01*
X497689Y158115D01*
X509916Y163195D02*
X513303Y153035D01*
X516689Y163195D01*
X522106Y163195D02*
X522106Y153035D01*
X521682Y167428D02*
X521682Y168275D01*
X522529Y168275D01*
X522529Y167428D01*
X521682Y167428D01*
X529281Y158962D02*
X533515Y157268D01*
X529282Y158962D02*
X529197Y158998D01*
X529113Y159038D01*
X529032Y159081D01*
X528952Y159127D01*
X528874Y159177D01*
X528799Y159230D01*
X528726Y159286D01*
X528655Y159345D01*
X528586Y159407D01*
X528521Y159472D01*
X528458Y159540D01*
X528398Y159610D01*
X528341Y159683D01*
X528287Y159758D01*
X528237Y159835D01*
X528189Y159914D01*
X528145Y159995D01*
X528105Y160078D01*
X528068Y160163D01*
X528035Y160249D01*
X528005Y160336D01*
X527979Y160425D01*
X527956Y160514D01*
X527938Y160605D01*
X527923Y160696D01*
X527912Y160788D01*
X527905Y160880D01*
X527902Y160972D01*
X527903Y161064D01*
X527908Y161156D01*
X527916Y161248D01*
X527928Y161340D01*
X527945Y161430D01*
X527965Y161521D01*
X527988Y161610D01*
X528016Y161698D01*
X528047Y161785D01*
X528082Y161870D01*
X528120Y161954D01*
X528162Y162036D01*
X528207Y162117D01*
X528256Y162195D01*
X528308Y162272D01*
X528363Y162346D01*
X528421Y162417D01*
X528482Y162487D01*
X528546Y162553D01*
X528613Y162617D01*
X528682Y162678D01*
X528754Y162736D01*
X528828Y162791D01*
X528904Y162843D01*
X528983Y162891D01*
X529063Y162936D01*
X529146Y162978D01*
X529230Y163016D01*
X529315Y163051D01*
X529402Y163082D01*
X529490Y163109D01*
X529579Y163133D01*
X529670Y163153D01*
X529760Y163169D01*
X529852Y163181D01*
X529944Y163190D01*
X530036Y163194D01*
X530128Y163195D01*
X530360Y163189D01*
X530590Y163177D01*
X530821Y163160D01*
X531051Y163137D01*
X531280Y163109D01*
X531509Y163075D01*
X531737Y163036D01*
X531964Y162991D01*
X532190Y162941D01*
X532414Y162886D01*
X532637Y162825D01*
X532858Y162758D01*
X533078Y162687D01*
X533296Y162610D01*
X533512Y162528D01*
X533726Y162441D01*
X533938Y162348D01*
X533514Y157268D02*
X533599Y157232D01*
X533683Y157192D01*
X533764Y157149D01*
X533844Y157103D01*
X533922Y157053D01*
X533997Y157000D01*
X534070Y156944D01*
X534141Y156885D01*
X534210Y156823D01*
X534275Y156758D01*
X534338Y156690D01*
X534398Y156620D01*
X534455Y156547D01*
X534509Y156472D01*
X534559Y156395D01*
X534607Y156316D01*
X534651Y156235D01*
X534691Y156152D01*
X534728Y156067D01*
X534761Y155981D01*
X534791Y155894D01*
X534817Y155805D01*
X534840Y155716D01*
X534858Y155625D01*
X534873Y155534D01*
X534884Y155442D01*
X534891Y155350D01*
X534894Y155258D01*
X534893Y155166D01*
X534888Y155074D01*
X534880Y154982D01*
X534868Y154890D01*
X534851Y154800D01*
X534831Y154709D01*
X534808Y154620D01*
X534780Y154532D01*
X534749Y154445D01*
X534714Y154360D01*
X534676Y154276D01*
X534634Y154194D01*
X534589Y154113D01*
X534540Y154035D01*
X534488Y153958D01*
X534433Y153884D01*
X534375Y153813D01*
X534314Y153743D01*
X534250Y153677D01*
X534183Y153613D01*
X534114Y153552D01*
X534042Y153494D01*
X533968Y153439D01*
X533892Y153387D01*
X533813Y153339D01*
X533733Y153294D01*
X533650Y153252D01*
X533566Y153214D01*
X533481Y153179D01*
X533394Y153148D01*
X533306Y153121D01*
X533217Y153097D01*
X533126Y153077D01*
X533036Y153061D01*
X532944Y153049D01*
X532852Y153040D01*
X532760Y153036D01*
X532668Y153035D01*
X532329Y153044D01*
X531989Y153061D01*
X531651Y153086D01*
X531313Y153119D01*
X530976Y153160D01*
X530639Y153209D01*
X530305Y153266D01*
X529971Y153330D01*
X529639Y153403D01*
X529310Y153483D01*
X528982Y153571D01*
X528656Y153667D01*
X528332Y153771D01*
X528011Y153882D01*
X540690Y153035D02*
X540690Y163195D01*
X540267Y167428D02*
X540267Y168275D01*
X541114Y168275D01*
X541114Y167428D01*
X540267Y167428D01*
X546596Y159808D02*
X546596Y156422D01*
X546595Y159808D02*
X546597Y159924D01*
X546603Y160039D01*
X546613Y160154D01*
X546627Y160269D01*
X546644Y160383D01*
X546666Y160497D01*
X546691Y160610D01*
X546721Y160722D01*
X546754Y160833D01*
X546791Y160942D01*
X546831Y161051D01*
X546875Y161157D01*
X546923Y161263D01*
X546975Y161366D01*
X547030Y161468D01*
X547088Y161568D01*
X547150Y161666D01*
X547215Y161761D01*
X547283Y161855D01*
X547355Y161945D01*
X547429Y162034D01*
X547507Y162120D01*
X547587Y162203D01*
X547670Y162283D01*
X547756Y162361D01*
X547845Y162435D01*
X547935Y162507D01*
X548029Y162575D01*
X548124Y162640D01*
X548222Y162702D01*
X548322Y162760D01*
X548424Y162815D01*
X548527Y162867D01*
X548633Y162915D01*
X548739Y162959D01*
X548848Y162999D01*
X548957Y163036D01*
X549068Y163069D01*
X549180Y163099D01*
X549293Y163124D01*
X549407Y163146D01*
X549521Y163163D01*
X549636Y163177D01*
X549751Y163187D01*
X549866Y163193D01*
X549982Y163195D01*
X550098Y163193D01*
X550213Y163187D01*
X550328Y163177D01*
X550443Y163163D01*
X550557Y163146D01*
X550671Y163124D01*
X550784Y163099D01*
X550896Y163069D01*
X551007Y163036D01*
X551116Y162999D01*
X551225Y162959D01*
X551331Y162915D01*
X551437Y162867D01*
X551540Y162815D01*
X551642Y162760D01*
X551742Y162702D01*
X551840Y162640D01*
X551935Y162575D01*
X552029Y162507D01*
X552119Y162435D01*
X552208Y162361D01*
X552294Y162283D01*
X552377Y162203D01*
X552457Y162120D01*
X552535Y162034D01*
X552609Y161945D01*
X552681Y161855D01*
X552749Y161761D01*
X552814Y161666D01*
X552876Y161568D01*
X552934Y161468D01*
X552989Y161366D01*
X553041Y161263D01*
X553089Y161157D01*
X553133Y161051D01*
X553173Y160942D01*
X553210Y160833D01*
X553243Y160722D01*
X553273Y160610D01*
X553298Y160497D01*
X553320Y160383D01*
X553337Y160269D01*
X553351Y160154D01*
X553361Y160039D01*
X553367Y159924D01*
X553369Y159808D01*
X553369Y156422D01*
X553367Y156306D01*
X553361Y156191D01*
X553351Y156076D01*
X553337Y155961D01*
X553320Y155847D01*
X553298Y155733D01*
X553273Y155620D01*
X553243Y155508D01*
X553210Y155397D01*
X553173Y155288D01*
X553133Y155179D01*
X553089Y155073D01*
X553041Y154967D01*
X552989Y154864D01*
X552934Y154762D01*
X552876Y154662D01*
X552814Y154564D01*
X552749Y154469D01*
X552681Y154375D01*
X552609Y154285D01*
X552535Y154196D01*
X552457Y154110D01*
X552377Y154027D01*
X552294Y153947D01*
X552208Y153869D01*
X552119Y153795D01*
X552029Y153723D01*
X551935Y153655D01*
X551840Y153590D01*
X551742Y153528D01*
X551642Y153470D01*
X551540Y153415D01*
X551437Y153363D01*
X551331Y153315D01*
X551225Y153271D01*
X551116Y153231D01*
X551007Y153194D01*
X550896Y153161D01*
X550784Y153131D01*
X550671Y153106D01*
X550557Y153084D01*
X550443Y153067D01*
X550328Y153053D01*
X550213Y153043D01*
X550098Y153037D01*
X549982Y153035D01*
X549866Y153037D01*
X549751Y153043D01*
X549636Y153053D01*
X549521Y153067D01*
X549407Y153084D01*
X549293Y153106D01*
X549180Y153131D01*
X549068Y153161D01*
X548957Y153194D01*
X548848Y153231D01*
X548739Y153271D01*
X548633Y153315D01*
X548527Y153363D01*
X548424Y153415D01*
X548322Y153470D01*
X548222Y153528D01*
X548124Y153590D01*
X548029Y153655D01*
X547935Y153723D01*
X547845Y153795D01*
X547756Y153869D01*
X547670Y153947D01*
X547587Y154027D01*
X547507Y154110D01*
X547429Y154196D01*
X547355Y154285D01*
X547283Y154375D01*
X547215Y154469D01*
X547150Y154564D01*
X547088Y154662D01*
X547030Y154762D01*
X546975Y154864D01*
X546923Y154967D01*
X546875Y155073D01*
X546831Y155179D01*
X546791Y155288D01*
X546754Y155397D01*
X546721Y155508D01*
X546691Y155620D01*
X546666Y155733D01*
X546644Y155847D01*
X546627Y155961D01*
X546613Y156076D01*
X546603Y156191D01*
X546597Y156306D01*
X546595Y156422D01*
X559801Y153035D02*
X559801Y163195D01*
X564034Y163195D01*
X564134Y163193D01*
X564233Y163187D01*
X564333Y163177D01*
X564431Y163164D01*
X564530Y163146D01*
X564627Y163125D01*
X564723Y163100D01*
X564819Y163071D01*
X564913Y163038D01*
X565006Y163002D01*
X565097Y162962D01*
X565187Y162918D01*
X565275Y162871D01*
X565361Y162821D01*
X565445Y162767D01*
X565527Y162710D01*
X565606Y162650D01*
X565684Y162586D01*
X565758Y162520D01*
X565830Y162451D01*
X565899Y162379D01*
X565965Y162305D01*
X566029Y162227D01*
X566089Y162148D01*
X566146Y162066D01*
X566200Y161982D01*
X566250Y161896D01*
X566297Y161808D01*
X566341Y161718D01*
X566381Y161627D01*
X566417Y161534D01*
X566450Y161440D01*
X566479Y161344D01*
X566504Y161248D01*
X566525Y161151D01*
X566543Y161052D01*
X566556Y160954D01*
X566566Y160854D01*
X566572Y160755D01*
X566574Y160655D01*
X566574Y153035D01*
X580962Y160655D02*
X580966Y160955D01*
X580976Y161254D01*
X580994Y161554D01*
X581019Y161852D01*
X581051Y162151D01*
X581091Y162448D01*
X581137Y162744D01*
X581190Y163039D01*
X581251Y163333D01*
X581318Y163625D01*
X581393Y163915D01*
X581474Y164204D01*
X581562Y164491D01*
X581657Y164775D01*
X581759Y165057D01*
X581867Y165336D01*
X581982Y165613D01*
X582104Y165887D01*
X582232Y166158D01*
X582231Y166158D02*
X582269Y166262D01*
X582311Y166365D01*
X582356Y166467D01*
X582405Y166567D01*
X582457Y166665D01*
X582513Y166761D01*
X582572Y166855D01*
X582634Y166947D01*
X582699Y167036D01*
X582768Y167123D01*
X582840Y167208D01*
X582915Y167290D01*
X582992Y167370D01*
X583073Y167446D01*
X583156Y167520D01*
X583241Y167591D01*
X583329Y167659D01*
X583419Y167723D01*
X583512Y167785D01*
X583607Y167843D01*
X583703Y167897D01*
X583802Y167948D01*
X583902Y167996D01*
X584004Y168040D01*
X584108Y168080D01*
X584212Y168117D01*
X584319Y168150D01*
X584426Y168179D01*
X584534Y168204D01*
X584643Y168226D01*
X584752Y168244D01*
X584862Y168257D01*
X584973Y168267D01*
X585084Y168273D01*
X585195Y168275D01*
X585306Y168273D01*
X585417Y168267D01*
X585528Y168257D01*
X585638Y168244D01*
X585747Y168226D01*
X585856Y168204D01*
X585964Y168179D01*
X586071Y168150D01*
X586178Y168117D01*
X586282Y168080D01*
X586386Y168040D01*
X586488Y167996D01*
X586588Y167948D01*
X586687Y167897D01*
X586783Y167843D01*
X586878Y167785D01*
X586971Y167723D01*
X587061Y167659D01*
X587149Y167591D01*
X587234Y167520D01*
X587317Y167447D01*
X587398Y167370D01*
X587475Y167290D01*
X587550Y167208D01*
X587622Y167123D01*
X587691Y167036D01*
X587756Y166947D01*
X587818Y166855D01*
X587877Y166761D01*
X587933Y166665D01*
X587985Y166567D01*
X588034Y166467D01*
X588079Y166365D01*
X588121Y166262D01*
X588159Y166158D01*
X588287Y165887D01*
X588409Y165613D01*
X588524Y165336D01*
X588632Y165057D01*
X588734Y164775D01*
X588829Y164491D01*
X588917Y164204D01*
X588998Y163915D01*
X589073Y163625D01*
X589140Y163333D01*
X589201Y163039D01*
X589254Y162744D01*
X589300Y162448D01*
X589340Y162151D01*
X589372Y161852D01*
X589397Y161554D01*
X589415Y161254D01*
X589425Y160955D01*
X589429Y160655D01*
X580962Y160655D02*
X580966Y160355D01*
X580976Y160056D01*
X580994Y159756D01*
X581019Y159458D01*
X581051Y159159D01*
X581091Y158862D01*
X581137Y158566D01*
X581190Y158271D01*
X581251Y157977D01*
X581318Y157685D01*
X581393Y157395D01*
X581474Y157106D01*
X581562Y156820D01*
X581657Y156535D01*
X581759Y156253D01*
X581867Y155974D01*
X581982Y155697D01*
X582104Y155423D01*
X582232Y155152D01*
X582231Y155152D02*
X582269Y155048D01*
X582311Y154945D01*
X582356Y154843D01*
X582405Y154743D01*
X582457Y154645D01*
X582513Y154549D01*
X582572Y154455D01*
X582634Y154363D01*
X582700Y154274D01*
X582768Y154187D01*
X582840Y154102D01*
X582915Y154020D01*
X582992Y153940D01*
X583073Y153863D01*
X583156Y153790D01*
X583241Y153719D01*
X583329Y153651D01*
X583419Y153587D01*
X583512Y153525D01*
X583607Y153467D01*
X583703Y153413D01*
X583802Y153362D01*
X583902Y153314D01*
X584004Y153270D01*
X584108Y153230D01*
X584212Y153193D01*
X584319Y153160D01*
X584426Y153131D01*
X584534Y153106D01*
X584643Y153084D01*
X584752Y153066D01*
X584862Y153053D01*
X584973Y153043D01*
X585084Y153037D01*
X585195Y153035D01*
X588158Y155152D02*
X588286Y155423D01*
X588408Y155697D01*
X588523Y155974D01*
X588631Y156253D01*
X588733Y156535D01*
X588828Y156820D01*
X588916Y157106D01*
X588997Y157395D01*
X589072Y157685D01*
X589139Y157977D01*
X589200Y158271D01*
X589253Y158566D01*
X589299Y158862D01*
X589339Y159159D01*
X589371Y159458D01*
X589396Y159756D01*
X589414Y160056D01*
X589424Y160355D01*
X589428Y160655D01*
X588159Y155152D02*
X588121Y155048D01*
X588079Y154945D01*
X588034Y154843D01*
X587985Y154743D01*
X587933Y154645D01*
X587877Y154549D01*
X587818Y154455D01*
X587756Y154363D01*
X587690Y154274D01*
X587622Y154187D01*
X587550Y154102D01*
X587475Y154020D01*
X587398Y153940D01*
X587317Y153863D01*
X587234Y153790D01*
X587149Y153719D01*
X587061Y153651D01*
X586971Y153587D01*
X586878Y153525D01*
X586783Y153467D01*
X586687Y153413D01*
X586588Y153362D01*
X586488Y153314D01*
X586386Y153270D01*
X586282Y153230D01*
X586178Y153193D01*
X586071Y153160D01*
X585964Y153131D01*
X585856Y153106D01*
X585747Y153084D01*
X585638Y153066D01*
X585528Y153053D01*
X585417Y153043D01*
X585306Y153037D01*
X585195Y153035D01*
X581808Y156422D02*
X588582Y164888D01*
X595042Y153882D02*
X595042Y153035D01*
X595042Y153882D02*
X595889Y153882D01*
X595889Y153035D01*
X595042Y153035D01*
X609969Y164465D02*
X609967Y164587D01*
X609961Y164709D01*
X609951Y164831D01*
X609938Y164952D01*
X609920Y165073D01*
X609899Y165193D01*
X609873Y165313D01*
X609844Y165431D01*
X609812Y165549D01*
X609775Y165666D01*
X609735Y165781D01*
X609691Y165895D01*
X609643Y166007D01*
X609592Y166118D01*
X609537Y166227D01*
X609479Y166335D01*
X609417Y166440D01*
X609352Y166543D01*
X609284Y166645D01*
X609212Y166744D01*
X609138Y166840D01*
X609060Y166935D01*
X608979Y167026D01*
X608896Y167116D01*
X608810Y167202D01*
X608720Y167285D01*
X608629Y167366D01*
X608534Y167444D01*
X608438Y167518D01*
X608339Y167590D01*
X608237Y167658D01*
X608134Y167723D01*
X608029Y167785D01*
X607921Y167843D01*
X607812Y167898D01*
X607701Y167949D01*
X607589Y167997D01*
X607475Y168041D01*
X607360Y168081D01*
X607243Y168118D01*
X607125Y168150D01*
X607007Y168179D01*
X606887Y168205D01*
X606767Y168226D01*
X606646Y168244D01*
X606525Y168257D01*
X606403Y168267D01*
X606281Y168273D01*
X606159Y168275D01*
X606022Y168273D01*
X605886Y168267D01*
X605749Y168258D01*
X605613Y168244D01*
X605477Y168227D01*
X605342Y168206D01*
X605208Y168182D01*
X605074Y168153D01*
X604941Y168121D01*
X604809Y168085D01*
X604678Y168046D01*
X604548Y168002D01*
X604419Y167955D01*
X604292Y167905D01*
X604167Y167851D01*
X604042Y167794D01*
X603920Y167733D01*
X603799Y167669D01*
X603680Y167601D01*
X603563Y167530D01*
X603448Y167456D01*
X603335Y167379D01*
X603225Y167298D01*
X603117Y167215D01*
X603011Y167128D01*
X602907Y167039D01*
X602806Y166946D01*
X602708Y166851D01*
X602612Y166753D01*
X602519Y166653D01*
X602429Y166550D01*
X602342Y166445D01*
X602258Y166337D01*
X602177Y166227D01*
X602099Y166114D01*
X602024Y166000D01*
X601952Y165883D01*
X601884Y165765D01*
X601819Y165644D01*
X601758Y165522D01*
X601699Y165398D01*
X601645Y165273D01*
X601594Y165146D01*
X601546Y165018D01*
X601502Y164888D01*
X608699Y161502D02*
X608790Y161591D01*
X608878Y161683D01*
X608963Y161778D01*
X609045Y161875D01*
X609125Y161975D01*
X609200Y162078D01*
X609273Y162182D01*
X609343Y162289D01*
X609409Y162398D01*
X609471Y162509D01*
X609531Y162622D01*
X609586Y162737D01*
X609638Y162853D01*
X609687Y162971D01*
X609731Y163090D01*
X609772Y163211D01*
X609809Y163333D01*
X609843Y163456D01*
X609872Y163580D01*
X609898Y163705D01*
X609919Y163830D01*
X609937Y163957D01*
X609951Y164083D01*
X609961Y164210D01*
X609967Y164338D01*
X609969Y164465D01*
X608699Y161502D02*
X601503Y153035D01*
X609969Y153035D01*
D12*
X170801Y432308D02*
X170801Y435554D01*
X170800Y435554D02*
X170802Y435667D01*
X170808Y435780D01*
X170818Y435893D01*
X170832Y436006D01*
X170849Y436118D01*
X170871Y436229D01*
X170896Y436339D01*
X170926Y436449D01*
X170959Y436557D01*
X170996Y436664D01*
X171036Y436770D01*
X171081Y436874D01*
X171129Y436977D01*
X171180Y437078D01*
X171235Y437177D01*
X171293Y437274D01*
X171355Y437369D01*
X171420Y437462D01*
X171488Y437552D01*
X171559Y437640D01*
X171634Y437726D01*
X171711Y437809D01*
X171791Y437889D01*
X171874Y437966D01*
X171960Y438041D01*
X172048Y438112D01*
X172138Y438180D01*
X172231Y438245D01*
X172326Y438307D01*
X172423Y438365D01*
X172522Y438420D01*
X172623Y438471D01*
X172726Y438519D01*
X172830Y438564D01*
X172936Y438604D01*
X173043Y438641D01*
X173151Y438674D01*
X173261Y438704D01*
X173371Y438729D01*
X173482Y438751D01*
X173594Y438768D01*
X173707Y438782D01*
X173820Y438792D01*
X173933Y438798D01*
X174046Y438800D01*
X174159Y438798D01*
X174272Y438792D01*
X174385Y438782D01*
X174498Y438768D01*
X174610Y438751D01*
X174721Y438729D01*
X174831Y438704D01*
X174941Y438674D01*
X175049Y438641D01*
X175156Y438604D01*
X175262Y438564D01*
X175366Y438519D01*
X175469Y438471D01*
X175570Y438420D01*
X175669Y438365D01*
X175766Y438307D01*
X175861Y438245D01*
X175954Y438180D01*
X176044Y438112D01*
X176132Y438041D01*
X176218Y437966D01*
X176301Y437889D01*
X176381Y437809D01*
X176458Y437726D01*
X176533Y437640D01*
X176604Y437552D01*
X176672Y437462D01*
X176737Y437369D01*
X176799Y437274D01*
X176857Y437177D01*
X176912Y437078D01*
X176963Y436977D01*
X177011Y436874D01*
X177056Y436770D01*
X177096Y436664D01*
X177133Y436557D01*
X177166Y436449D01*
X177196Y436339D01*
X177221Y436229D01*
X177243Y436118D01*
X177260Y436006D01*
X177274Y435893D01*
X177284Y435780D01*
X177290Y435667D01*
X177292Y435554D01*
X177292Y432308D01*
X165608Y432308D01*
X165608Y435554D01*
X165610Y435655D01*
X165616Y435755D01*
X165626Y435855D01*
X165639Y435955D01*
X165657Y436054D01*
X165678Y436153D01*
X165703Y436250D01*
X165732Y436347D01*
X165765Y436442D01*
X165801Y436536D01*
X165841Y436628D01*
X165884Y436719D01*
X165931Y436808D01*
X165981Y436895D01*
X166035Y436981D01*
X166092Y437064D01*
X166152Y437144D01*
X166215Y437223D01*
X166282Y437299D01*
X166351Y437372D01*
X166423Y437442D01*
X166497Y437510D01*
X166574Y437575D01*
X166654Y437636D01*
X166736Y437695D01*
X166820Y437750D01*
X166906Y437802D01*
X166994Y437851D01*
X167084Y437896D01*
X167176Y437938D01*
X167269Y437976D01*
X167364Y438010D01*
X167459Y438041D01*
X167556Y438068D01*
X167654Y438091D01*
X167753Y438111D01*
X167853Y438126D01*
X167953Y438138D01*
X168053Y438146D01*
X168154Y438150D01*
X168254Y438150D01*
X168355Y438146D01*
X168455Y438138D01*
X168555Y438126D01*
X168655Y438111D01*
X168754Y438091D01*
X168852Y438068D01*
X168949Y438041D01*
X169044Y438010D01*
X169139Y437976D01*
X169232Y437938D01*
X169324Y437896D01*
X169414Y437851D01*
X169502Y437802D01*
X169588Y437750D01*
X169672Y437695D01*
X169754Y437636D01*
X169834Y437575D01*
X169911Y437510D01*
X169985Y437442D01*
X170057Y437372D01*
X170126Y437299D01*
X170193Y437223D01*
X170256Y437144D01*
X170316Y437064D01*
X170373Y436981D01*
X170427Y436895D01*
X170477Y436808D01*
X170524Y436719D01*
X170567Y436628D01*
X170607Y436536D01*
X170643Y436442D01*
X170676Y436347D01*
X170705Y436250D01*
X170730Y436153D01*
X170751Y436054D01*
X170769Y435955D01*
X170782Y435855D01*
X170792Y435755D01*
X170798Y435655D01*
X170800Y435554D01*
X165608Y442539D02*
X171125Y446433D01*
X165608Y450328D01*
X171125Y446433D02*
X177292Y446433D01*
X177292Y455168D02*
X165608Y455168D01*
X165608Y458414D01*
X165610Y458527D01*
X165616Y458640D01*
X165626Y458753D01*
X165640Y458866D01*
X165657Y458978D01*
X165679Y459089D01*
X165704Y459199D01*
X165734Y459309D01*
X165767Y459417D01*
X165804Y459524D01*
X165844Y459630D01*
X165889Y459734D01*
X165937Y459837D01*
X165988Y459938D01*
X166043Y460037D01*
X166101Y460134D01*
X166163Y460229D01*
X166228Y460322D01*
X166296Y460412D01*
X166367Y460500D01*
X166442Y460586D01*
X166519Y460669D01*
X166599Y460749D01*
X166682Y460826D01*
X166768Y460901D01*
X166856Y460972D01*
X166946Y461040D01*
X167039Y461105D01*
X167134Y461167D01*
X167231Y461225D01*
X167330Y461280D01*
X167431Y461331D01*
X167534Y461379D01*
X167638Y461424D01*
X167744Y461464D01*
X167851Y461501D01*
X167959Y461534D01*
X168069Y461564D01*
X168179Y461589D01*
X168290Y461611D01*
X168402Y461628D01*
X168515Y461642D01*
X168628Y461652D01*
X168741Y461658D01*
X168854Y461660D01*
X168967Y461658D01*
X169080Y461652D01*
X169193Y461642D01*
X169306Y461628D01*
X169418Y461611D01*
X169529Y461589D01*
X169639Y461564D01*
X169749Y461534D01*
X169857Y461501D01*
X169964Y461464D01*
X170070Y461424D01*
X170174Y461379D01*
X170277Y461331D01*
X170378Y461280D01*
X170477Y461225D01*
X170574Y461167D01*
X170669Y461105D01*
X170762Y461040D01*
X170852Y460972D01*
X170940Y460901D01*
X171026Y460826D01*
X171109Y460749D01*
X171189Y460669D01*
X171266Y460586D01*
X171341Y460500D01*
X171412Y460412D01*
X171480Y460322D01*
X171545Y460229D01*
X171607Y460134D01*
X171665Y460037D01*
X171720Y459938D01*
X171771Y459837D01*
X171819Y459734D01*
X171864Y459630D01*
X171904Y459524D01*
X171941Y459417D01*
X171974Y459309D01*
X172004Y459199D01*
X172029Y459089D01*
X172051Y458978D01*
X172068Y458866D01*
X172082Y458753D01*
X172092Y458640D01*
X172098Y458527D01*
X172100Y458414D01*
X172099Y458414D02*
X172099Y455168D01*
X177292Y465399D02*
X165608Y469293D01*
X177292Y473188D01*
X174371Y472214D02*
X174371Y466372D01*
X177292Y480991D02*
X177290Y481090D01*
X177284Y481190D01*
X177275Y481289D01*
X177262Y481387D01*
X177245Y481485D01*
X177224Y481583D01*
X177199Y481679D01*
X177171Y481774D01*
X177139Y481868D01*
X177104Y481961D01*
X177065Y482053D01*
X177022Y482143D01*
X176977Y482231D01*
X176927Y482318D01*
X176875Y482402D01*
X176819Y482485D01*
X176761Y482565D01*
X176699Y482643D01*
X176634Y482718D01*
X176566Y482791D01*
X176496Y482861D01*
X176423Y482929D01*
X176348Y482994D01*
X176270Y483056D01*
X176190Y483114D01*
X176107Y483170D01*
X176023Y483222D01*
X175936Y483272D01*
X175848Y483317D01*
X175758Y483360D01*
X175666Y483399D01*
X175573Y483434D01*
X175479Y483466D01*
X175384Y483494D01*
X175288Y483519D01*
X175190Y483540D01*
X175092Y483557D01*
X174994Y483570D01*
X174895Y483579D01*
X174795Y483585D01*
X174696Y483587D01*
X177292Y480991D02*
X177290Y480847D01*
X177284Y480702D01*
X177275Y480558D01*
X177262Y480415D01*
X177245Y480271D01*
X177224Y480128D01*
X177199Y479986D01*
X177171Y479845D01*
X177139Y479704D01*
X177103Y479564D01*
X177064Y479425D01*
X177021Y479287D01*
X176974Y479151D01*
X176924Y479015D01*
X176870Y478881D01*
X176813Y478749D01*
X176752Y478618D01*
X176688Y478489D01*
X176620Y478361D01*
X176550Y478235D01*
X176475Y478111D01*
X176398Y477990D01*
X176317Y477870D01*
X176234Y477752D01*
X176147Y477637D01*
X176057Y477524D01*
X175964Y477413D01*
X175869Y477305D01*
X175770Y477199D01*
X175669Y477096D01*
X168204Y477422D02*
X168105Y477424D01*
X168005Y477430D01*
X167906Y477439D01*
X167808Y477452D01*
X167710Y477469D01*
X167612Y477490D01*
X167516Y477515D01*
X167421Y477543D01*
X167327Y477575D01*
X167234Y477610D01*
X167142Y477649D01*
X167052Y477692D01*
X166964Y477737D01*
X166877Y477787D01*
X166793Y477839D01*
X166710Y477895D01*
X166630Y477953D01*
X166552Y478015D01*
X166477Y478080D01*
X166404Y478148D01*
X166334Y478218D01*
X166266Y478291D01*
X166201Y478366D01*
X166139Y478444D01*
X166081Y478524D01*
X166025Y478607D01*
X165973Y478691D01*
X165923Y478778D01*
X165878Y478866D01*
X165835Y478956D01*
X165796Y479048D01*
X165761Y479141D01*
X165729Y479235D01*
X165701Y479330D01*
X165676Y479426D01*
X165655Y479524D01*
X165638Y479622D01*
X165625Y479720D01*
X165616Y479819D01*
X165610Y479919D01*
X165608Y480018D01*
X165610Y480154D01*
X165616Y480290D01*
X165625Y480426D01*
X165638Y480562D01*
X165656Y480697D01*
X165676Y480831D01*
X165701Y480965D01*
X165729Y481099D01*
X165762Y481231D01*
X165797Y481362D01*
X165837Y481493D01*
X165880Y481622D01*
X165926Y481750D01*
X165977Y481876D01*
X166030Y482002D01*
X166088Y482125D01*
X166148Y482247D01*
X166212Y482367D01*
X166280Y482486D01*
X166350Y482602D01*
X166424Y482716D01*
X166501Y482829D01*
X166582Y482939D01*
X170476Y478719D02*
X170423Y478633D01*
X170366Y478549D01*
X170307Y478467D01*
X170244Y478387D01*
X170178Y478310D01*
X170110Y478235D01*
X170038Y478163D01*
X169964Y478094D01*
X169887Y478028D01*
X169808Y477965D01*
X169726Y477905D01*
X169642Y477848D01*
X169556Y477794D01*
X169468Y477744D01*
X169378Y477697D01*
X169287Y477653D01*
X169193Y477614D01*
X169099Y477577D01*
X169003Y477545D01*
X168905Y477516D01*
X168807Y477491D01*
X168708Y477470D01*
X168608Y477452D01*
X168508Y477439D01*
X168407Y477429D01*
X168305Y477423D01*
X168204Y477421D01*
X172424Y482290D02*
X172477Y482376D01*
X172534Y482460D01*
X172593Y482542D01*
X172656Y482622D01*
X172722Y482699D01*
X172790Y482774D01*
X172862Y482846D01*
X172936Y482915D01*
X173013Y482981D01*
X173092Y483044D01*
X173174Y483104D01*
X173258Y483161D01*
X173344Y483215D01*
X173432Y483265D01*
X173522Y483312D01*
X173613Y483356D01*
X173707Y483395D01*
X173801Y483432D01*
X173897Y483464D01*
X173995Y483493D01*
X174093Y483518D01*
X174192Y483539D01*
X174292Y483557D01*
X174392Y483570D01*
X174493Y483580D01*
X174595Y483586D01*
X174696Y483588D01*
X172424Y482289D02*
X170476Y478719D01*
X177292Y491659D02*
X177290Y491758D01*
X177284Y491858D01*
X177275Y491957D01*
X177262Y492055D01*
X177245Y492153D01*
X177224Y492251D01*
X177199Y492347D01*
X177171Y492442D01*
X177139Y492536D01*
X177104Y492629D01*
X177065Y492721D01*
X177022Y492811D01*
X176977Y492899D01*
X176927Y492986D01*
X176875Y493070D01*
X176819Y493153D01*
X176761Y493233D01*
X176699Y493311D01*
X176634Y493386D01*
X176566Y493459D01*
X176496Y493529D01*
X176423Y493597D01*
X176348Y493662D01*
X176270Y493724D01*
X176190Y493782D01*
X176107Y493838D01*
X176023Y493890D01*
X175936Y493940D01*
X175848Y493985D01*
X175758Y494028D01*
X175666Y494067D01*
X175573Y494102D01*
X175479Y494134D01*
X175384Y494162D01*
X175288Y494187D01*
X175190Y494208D01*
X175092Y494225D01*
X174994Y494238D01*
X174895Y494247D01*
X174795Y494253D01*
X174696Y494255D01*
X177292Y491659D02*
X177290Y491515D01*
X177284Y491370D01*
X177275Y491226D01*
X177262Y491083D01*
X177245Y490939D01*
X177224Y490796D01*
X177199Y490654D01*
X177171Y490513D01*
X177139Y490372D01*
X177103Y490232D01*
X177064Y490093D01*
X177021Y489955D01*
X176974Y489819D01*
X176924Y489683D01*
X176870Y489549D01*
X176813Y489417D01*
X176752Y489286D01*
X176688Y489157D01*
X176620Y489029D01*
X176550Y488903D01*
X176475Y488779D01*
X176398Y488658D01*
X176317Y488538D01*
X176234Y488420D01*
X176147Y488305D01*
X176057Y488192D01*
X175964Y488081D01*
X175869Y487973D01*
X175770Y487867D01*
X175669Y487764D01*
X168204Y488090D02*
X168105Y488092D01*
X168005Y488098D01*
X167906Y488107D01*
X167808Y488120D01*
X167710Y488137D01*
X167612Y488158D01*
X167516Y488183D01*
X167421Y488211D01*
X167327Y488243D01*
X167234Y488278D01*
X167142Y488317D01*
X167052Y488360D01*
X166964Y488405D01*
X166877Y488455D01*
X166793Y488507D01*
X166710Y488563D01*
X166630Y488621D01*
X166552Y488683D01*
X166477Y488748D01*
X166404Y488816D01*
X166334Y488886D01*
X166266Y488959D01*
X166201Y489034D01*
X166139Y489112D01*
X166081Y489192D01*
X166025Y489275D01*
X165973Y489359D01*
X165923Y489446D01*
X165878Y489534D01*
X165835Y489624D01*
X165796Y489716D01*
X165761Y489809D01*
X165729Y489903D01*
X165701Y489998D01*
X165676Y490094D01*
X165655Y490192D01*
X165638Y490290D01*
X165625Y490388D01*
X165616Y490487D01*
X165610Y490587D01*
X165608Y490686D01*
X165610Y490822D01*
X165616Y490958D01*
X165625Y491094D01*
X165638Y491230D01*
X165656Y491365D01*
X165676Y491499D01*
X165701Y491633D01*
X165729Y491767D01*
X165762Y491899D01*
X165797Y492030D01*
X165837Y492161D01*
X165880Y492290D01*
X165926Y492418D01*
X165977Y492544D01*
X166030Y492670D01*
X166088Y492793D01*
X166148Y492915D01*
X166212Y493035D01*
X166280Y493154D01*
X166350Y493270D01*
X166424Y493384D01*
X166501Y493497D01*
X166582Y493607D01*
X170476Y489387D02*
X170423Y489301D01*
X170366Y489217D01*
X170307Y489135D01*
X170244Y489055D01*
X170178Y488978D01*
X170110Y488903D01*
X170038Y488831D01*
X169964Y488762D01*
X169887Y488696D01*
X169808Y488633D01*
X169726Y488573D01*
X169642Y488516D01*
X169556Y488462D01*
X169468Y488412D01*
X169378Y488365D01*
X169287Y488321D01*
X169193Y488282D01*
X169099Y488245D01*
X169003Y488213D01*
X168905Y488184D01*
X168807Y488159D01*
X168708Y488138D01*
X168608Y488120D01*
X168508Y488107D01*
X168407Y488097D01*
X168305Y488091D01*
X168204Y488089D01*
X172424Y492958D02*
X172477Y493044D01*
X172534Y493128D01*
X172593Y493210D01*
X172656Y493290D01*
X172722Y493367D01*
X172790Y493442D01*
X172862Y493514D01*
X172936Y493583D01*
X173013Y493649D01*
X173092Y493712D01*
X173174Y493772D01*
X173258Y493829D01*
X173344Y493883D01*
X173432Y493933D01*
X173522Y493980D01*
X173613Y494024D01*
X173707Y494063D01*
X173801Y494100D01*
X173897Y494132D01*
X173995Y494161D01*
X174093Y494186D01*
X174192Y494207D01*
X174292Y494225D01*
X174392Y494238D01*
X174493Y494248D01*
X174595Y494254D01*
X174696Y494256D01*
X172424Y492957D02*
X170476Y489387D01*
D13*
X184500Y446000D03*
X196500Y446000D03*
D14*
X190500Y446000D03*
D10*
X584200Y279400D02*
X584200Y177800D01*
X482600Y177800D02*
X482600Y279400D01*
X558800Y177800D02*
X584200Y177800D01*
X584200Y279400D02*
X558800Y279400D01*
X508000Y279400D02*
X482600Y279400D01*
X523240Y279400D02*
X523243Y279153D01*
X523252Y278905D01*
X523267Y278658D01*
X523288Y278412D01*
X523315Y278166D01*
X523348Y277921D01*
X523387Y277676D01*
X523432Y277433D01*
X523483Y277191D01*
X523540Y276950D01*
X523602Y276711D01*
X523671Y276473D01*
X523745Y276237D01*
X523825Y276003D01*
X523910Y275771D01*
X524002Y275541D01*
X524098Y275313D01*
X524201Y275088D01*
X524308Y274865D01*
X524422Y274645D01*
X524540Y274428D01*
X524664Y274213D01*
X524793Y274002D01*
X524927Y273794D01*
X525066Y273589D01*
X525210Y273388D01*
X525358Y273190D01*
X525512Y272996D01*
X525670Y272806D01*
X525833Y272620D01*
X526000Y272438D01*
X526172Y272260D01*
X526348Y272086D01*
X526528Y271916D01*
X526713Y271751D01*
X526901Y271591D01*
X527093Y271435D01*
X527289Y271283D01*
X527488Y271137D01*
X527691Y270995D01*
X527898Y270859D01*
X528107Y270727D01*
X528320Y270601D01*
X528536Y270480D01*
X528754Y270364D01*
X528976Y270254D01*
X529200Y270149D01*
X529426Y270049D01*
X529655Y269955D01*
X529886Y269867D01*
X530120Y269784D01*
X530355Y269707D01*
X530592Y269636D01*
X530830Y269570D01*
X531070Y269511D01*
X531312Y269457D01*
X531555Y269409D01*
X531798Y269367D01*
X532043Y269331D01*
X532289Y269301D01*
X532535Y269277D01*
X532782Y269259D01*
X533029Y269247D01*
X533276Y269241D01*
X533524Y269241D01*
X533771Y269247D01*
X534018Y269259D01*
X534265Y269277D01*
X534511Y269301D01*
X534757Y269331D01*
X535002Y269367D01*
X535245Y269409D01*
X535488Y269457D01*
X535730Y269511D01*
X535970Y269570D01*
X536208Y269636D01*
X536445Y269707D01*
X536680Y269784D01*
X536914Y269867D01*
X537145Y269955D01*
X537374Y270049D01*
X537600Y270149D01*
X537824Y270254D01*
X538046Y270364D01*
X538264Y270480D01*
X538480Y270601D01*
X538693Y270727D01*
X538902Y270859D01*
X539109Y270995D01*
X539312Y271137D01*
X539511Y271283D01*
X539707Y271435D01*
X539899Y271591D01*
X540087Y271751D01*
X540272Y271916D01*
X540452Y272086D01*
X540628Y272260D01*
X540800Y272438D01*
X540967Y272620D01*
X541130Y272806D01*
X541288Y272996D01*
X541442Y273190D01*
X541590Y273388D01*
X541734Y273589D01*
X541873Y273794D01*
X542007Y274002D01*
X542136Y274213D01*
X542260Y274428D01*
X542378Y274645D01*
X542492Y274865D01*
X542599Y275088D01*
X542702Y275313D01*
X542798Y275541D01*
X542890Y275771D01*
X542975Y276003D01*
X543055Y276237D01*
X543129Y276473D01*
X543198Y276711D01*
X543260Y276950D01*
X543317Y277191D01*
X543368Y277433D01*
X543413Y277676D01*
X543452Y277921D01*
X543485Y278166D01*
X543512Y278412D01*
X543533Y278658D01*
X543548Y278905D01*
X543557Y279153D01*
X543560Y279400D01*
X558800Y279400D02*
X558800Y177800D01*
X558800Y279400D02*
X543560Y279400D01*
X558800Y177800D02*
X508000Y177800D01*
X508000Y279400D01*
X523240Y279400D01*
X508000Y177800D02*
X482600Y177800D01*
D11*
X508635Y283845D02*
X508635Y295275D01*
X507365Y283845D02*
X509905Y283845D01*
X509905Y295275D02*
X507365Y295275D01*
X517107Y283845D02*
X519647Y283845D01*
X517107Y283845D02*
X517007Y283847D01*
X516908Y283853D01*
X516808Y283863D01*
X516710Y283876D01*
X516611Y283894D01*
X516514Y283915D01*
X516418Y283940D01*
X516322Y283969D01*
X516228Y284002D01*
X516135Y284038D01*
X516044Y284078D01*
X515954Y284122D01*
X515866Y284169D01*
X515780Y284219D01*
X515696Y284273D01*
X515614Y284330D01*
X515535Y284390D01*
X515457Y284454D01*
X515383Y284520D01*
X515311Y284589D01*
X515242Y284661D01*
X515176Y284735D01*
X515112Y284813D01*
X515052Y284892D01*
X514995Y284974D01*
X514941Y285058D01*
X514891Y285144D01*
X514844Y285232D01*
X514800Y285322D01*
X514760Y285413D01*
X514724Y285506D01*
X514691Y285600D01*
X514662Y285696D01*
X514637Y285792D01*
X514616Y285889D01*
X514598Y285988D01*
X514585Y286086D01*
X514575Y286186D01*
X514569Y286285D01*
X514567Y286385D01*
X514567Y292735D01*
X514569Y292835D01*
X514575Y292934D01*
X514585Y293034D01*
X514598Y293132D01*
X514616Y293231D01*
X514637Y293328D01*
X514662Y293424D01*
X514691Y293520D01*
X514724Y293614D01*
X514760Y293707D01*
X514800Y293798D01*
X514844Y293888D01*
X514891Y293976D01*
X514941Y294062D01*
X514995Y294146D01*
X515052Y294228D01*
X515112Y294307D01*
X515176Y294385D01*
X515242Y294459D01*
X515311Y294531D01*
X515383Y294600D01*
X515457Y294666D01*
X515535Y294730D01*
X515614Y294790D01*
X515696Y294847D01*
X515780Y294901D01*
X515866Y294951D01*
X515954Y294998D01*
X516044Y295042D01*
X516135Y295082D01*
X516228Y295118D01*
X516322Y295151D01*
X516418Y295180D01*
X516514Y295205D01*
X516611Y295226D01*
X516710Y295244D01*
X516808Y295257D01*
X516908Y295267D01*
X517007Y295273D01*
X517107Y295275D01*
X519647Y295275D01*
X524129Y292735D02*
X527304Y295275D01*
X527304Y283845D01*
X524129Y283845D02*
X530479Y283845D01*
D10*
X584200Y368300D02*
X584200Y469900D01*
X482600Y469900D02*
X482600Y368300D01*
X558800Y368300D02*
X584200Y368300D01*
X584200Y469900D02*
X558800Y469900D01*
X508000Y469900D02*
X482600Y469900D01*
X523240Y469900D02*
X523243Y469653D01*
X523252Y469405D01*
X523267Y469158D01*
X523288Y468912D01*
X523315Y468666D01*
X523348Y468421D01*
X523387Y468176D01*
X523432Y467933D01*
X523483Y467691D01*
X523540Y467450D01*
X523602Y467211D01*
X523671Y466973D01*
X523745Y466737D01*
X523825Y466503D01*
X523910Y466271D01*
X524002Y466041D01*
X524098Y465813D01*
X524201Y465588D01*
X524308Y465365D01*
X524422Y465145D01*
X524540Y464928D01*
X524664Y464713D01*
X524793Y464502D01*
X524927Y464294D01*
X525066Y464089D01*
X525210Y463888D01*
X525358Y463690D01*
X525512Y463496D01*
X525670Y463306D01*
X525833Y463120D01*
X526000Y462938D01*
X526172Y462760D01*
X526348Y462586D01*
X526528Y462416D01*
X526713Y462251D01*
X526901Y462091D01*
X527093Y461935D01*
X527289Y461783D01*
X527488Y461637D01*
X527691Y461495D01*
X527898Y461359D01*
X528107Y461227D01*
X528320Y461101D01*
X528536Y460980D01*
X528754Y460864D01*
X528976Y460754D01*
X529200Y460649D01*
X529426Y460549D01*
X529655Y460455D01*
X529886Y460367D01*
X530120Y460284D01*
X530355Y460207D01*
X530592Y460136D01*
X530830Y460070D01*
X531070Y460011D01*
X531312Y459957D01*
X531555Y459909D01*
X531798Y459867D01*
X532043Y459831D01*
X532289Y459801D01*
X532535Y459777D01*
X532782Y459759D01*
X533029Y459747D01*
X533276Y459741D01*
X533524Y459741D01*
X533771Y459747D01*
X534018Y459759D01*
X534265Y459777D01*
X534511Y459801D01*
X534757Y459831D01*
X535002Y459867D01*
X535245Y459909D01*
X535488Y459957D01*
X535730Y460011D01*
X535970Y460070D01*
X536208Y460136D01*
X536445Y460207D01*
X536680Y460284D01*
X536914Y460367D01*
X537145Y460455D01*
X537374Y460549D01*
X537600Y460649D01*
X537824Y460754D01*
X538046Y460864D01*
X538264Y460980D01*
X538480Y461101D01*
X538693Y461227D01*
X538902Y461359D01*
X539109Y461495D01*
X539312Y461637D01*
X539511Y461783D01*
X539707Y461935D01*
X539899Y462091D01*
X540087Y462251D01*
X540272Y462416D01*
X540452Y462586D01*
X540628Y462760D01*
X540800Y462938D01*
X540967Y463120D01*
X541130Y463306D01*
X541288Y463496D01*
X541442Y463690D01*
X541590Y463888D01*
X541734Y464089D01*
X541873Y464294D01*
X542007Y464502D01*
X542136Y464713D01*
X542260Y464928D01*
X542378Y465145D01*
X542492Y465365D01*
X542599Y465588D01*
X542702Y465813D01*
X542798Y466041D01*
X542890Y466271D01*
X542975Y466503D01*
X543055Y466737D01*
X543129Y466973D01*
X543198Y467211D01*
X543260Y467450D01*
X543317Y467691D01*
X543368Y467933D01*
X543413Y468176D01*
X543452Y468421D01*
X543485Y468666D01*
X543512Y468912D01*
X543533Y469158D01*
X543548Y469405D01*
X543557Y469653D01*
X543560Y469900D01*
X558800Y469900D02*
X558800Y368300D01*
X558800Y469900D02*
X543560Y469900D01*
X558800Y368300D02*
X508000Y368300D01*
X508000Y469900D01*
X523240Y469900D01*
X508000Y368300D02*
X482600Y368300D01*
D11*
X508635Y474345D02*
X508635Y485775D01*
X507365Y474345D02*
X509905Y474345D01*
X509905Y485775D02*
X507365Y485775D01*
X517107Y474345D02*
X519647Y474345D01*
X517107Y474345D02*
X517007Y474347D01*
X516908Y474353D01*
X516808Y474363D01*
X516710Y474376D01*
X516611Y474394D01*
X516514Y474415D01*
X516418Y474440D01*
X516322Y474469D01*
X516228Y474502D01*
X516135Y474538D01*
X516044Y474578D01*
X515954Y474622D01*
X515866Y474669D01*
X515780Y474719D01*
X515696Y474773D01*
X515614Y474830D01*
X515535Y474890D01*
X515457Y474954D01*
X515383Y475020D01*
X515311Y475089D01*
X515242Y475161D01*
X515176Y475235D01*
X515112Y475313D01*
X515052Y475392D01*
X514995Y475474D01*
X514941Y475558D01*
X514891Y475644D01*
X514844Y475732D01*
X514800Y475822D01*
X514760Y475913D01*
X514724Y476006D01*
X514691Y476100D01*
X514662Y476196D01*
X514637Y476292D01*
X514616Y476389D01*
X514598Y476488D01*
X514585Y476586D01*
X514575Y476686D01*
X514569Y476785D01*
X514567Y476885D01*
X514567Y483235D01*
X514569Y483335D01*
X514575Y483434D01*
X514585Y483534D01*
X514598Y483632D01*
X514616Y483731D01*
X514637Y483828D01*
X514662Y483924D01*
X514691Y484020D01*
X514724Y484114D01*
X514760Y484207D01*
X514800Y484298D01*
X514844Y484388D01*
X514891Y484476D01*
X514941Y484562D01*
X514995Y484646D01*
X515052Y484728D01*
X515112Y484807D01*
X515176Y484885D01*
X515242Y484959D01*
X515311Y485031D01*
X515383Y485100D01*
X515457Y485166D01*
X515535Y485230D01*
X515614Y485290D01*
X515696Y485347D01*
X515780Y485401D01*
X515866Y485451D01*
X515954Y485498D01*
X516044Y485542D01*
X516135Y485582D01*
X516228Y485618D01*
X516322Y485651D01*
X516418Y485680D01*
X516514Y485705D01*
X516611Y485726D01*
X516710Y485744D01*
X516808Y485757D01*
X516908Y485767D01*
X517007Y485773D01*
X517107Y485775D01*
X519647Y485775D01*
X527621Y485776D02*
X527725Y485774D01*
X527830Y485768D01*
X527934Y485759D01*
X528037Y485746D01*
X528140Y485728D01*
X528242Y485708D01*
X528344Y485683D01*
X528444Y485655D01*
X528544Y485623D01*
X528642Y485587D01*
X528739Y485548D01*
X528834Y485506D01*
X528928Y485460D01*
X529020Y485410D01*
X529110Y485358D01*
X529198Y485302D01*
X529284Y485242D01*
X529368Y485180D01*
X529449Y485115D01*
X529528Y485047D01*
X529605Y484975D01*
X529678Y484902D01*
X529750Y484825D01*
X529818Y484746D01*
X529883Y484665D01*
X529945Y484581D01*
X530005Y484495D01*
X530061Y484407D01*
X530113Y484317D01*
X530163Y484225D01*
X530209Y484131D01*
X530251Y484036D01*
X530290Y483939D01*
X530326Y483841D01*
X530358Y483741D01*
X530386Y483641D01*
X530411Y483539D01*
X530431Y483437D01*
X530449Y483334D01*
X530462Y483231D01*
X530471Y483127D01*
X530477Y483022D01*
X530479Y482918D01*
X527621Y485775D02*
X527503Y485773D01*
X527384Y485767D01*
X527266Y485758D01*
X527149Y485745D01*
X527032Y485727D01*
X526915Y485707D01*
X526799Y485682D01*
X526684Y485654D01*
X526571Y485621D01*
X526458Y485586D01*
X526346Y485546D01*
X526236Y485504D01*
X526127Y485457D01*
X526019Y485407D01*
X525914Y485354D01*
X525810Y485297D01*
X525708Y485237D01*
X525608Y485174D01*
X525510Y485107D01*
X525414Y485038D01*
X525321Y484965D01*
X525230Y484889D01*
X525141Y484811D01*
X525055Y484729D01*
X524972Y484645D01*
X524891Y484559D01*
X524814Y484469D01*
X524739Y484378D01*
X524667Y484284D01*
X524598Y484187D01*
X524533Y484089D01*
X524470Y483988D01*
X524411Y483885D01*
X524355Y483781D01*
X524303Y483675D01*
X524254Y483567D01*
X524209Y483458D01*
X524167Y483347D01*
X524129Y483235D01*
X529527Y480696D02*
X529603Y480771D01*
X529678Y480850D01*
X529749Y480931D01*
X529818Y481015D01*
X529883Y481101D01*
X529945Y481189D01*
X530005Y481279D01*
X530061Y481371D01*
X530114Y481466D01*
X530163Y481562D01*
X530209Y481660D01*
X530252Y481759D01*
X530291Y481860D01*
X530326Y481962D01*
X530358Y482065D01*
X530386Y482169D01*
X530411Y482274D01*
X530432Y482381D01*
X530449Y482487D01*
X530462Y482594D01*
X530471Y482702D01*
X530477Y482810D01*
X530479Y482918D01*
X529526Y480695D02*
X524129Y474345D01*
X530479Y474345D01*
D10*
X608800Y149400D02*
X800Y149400D01*
X800Y-29100D02*
X608800Y-29100D01*
X800Y-29100D02*
X800Y149400D01*
X608803Y149400D02*
X608803Y-29100D01*
X608778Y-29093D01*
X521800Y-229600D02*
X87800Y-229600D01*
X521800Y-229600D02*
X521800Y-29091D01*
X521836Y-29091D01*
X87800Y-29101D02*
X87800Y-229600D01*
X521811Y-222100D02*
X521811Y-29101D01*
X521778Y-29101D01*
X1094Y164400D02*
X1094Y177053D01*
X1094Y164400D02*
X1092Y164282D01*
X1086Y164164D01*
X1077Y164046D01*
X1063Y163928D01*
X1046Y163811D01*
X1025Y163695D01*
X1000Y163579D01*
X971Y163464D01*
X938Y163351D01*
X902Y163238D01*
X862Y163127D01*
X819Y163017D01*
X772Y162908D01*
X721Y162801D01*
X667Y162696D01*
X610Y162593D01*
X549Y162491D01*
X485Y162392D01*
X417Y162294D01*
X347Y162199D01*
X273Y162107D01*
X197Y162016D01*
X117Y161929D01*
X35Y161844D01*
X-50Y161762D01*
X-137Y161682D01*
X-228Y161606D01*
X-320Y161532D01*
X-415Y161462D01*
X-513Y161394D01*
X-612Y161330D01*
X-713Y161269D01*
X-817Y161212D01*
X-922Y161158D01*
X-1029Y161107D01*
X-1138Y161060D01*
X-1248Y161017D01*
X-1359Y160977D01*
X-1472Y160941D01*
X-1585Y160908D01*
X-1700Y160879D01*
X-1816Y160854D01*
X-1932Y160833D01*
X-2049Y160816D01*
X-2167Y160802D01*
X-2285Y160793D01*
X-2403Y160787D01*
X-2521Y160785D01*
X-4329Y160785D01*
X8163Y173438D02*
X12682Y177053D01*
X12682Y160785D01*
X8163Y160785D02*
X17201Y160785D01*
D15*
X163100Y165100D02*
X163102Y165189D01*
X163108Y165278D01*
X163118Y165367D01*
X163132Y165455D01*
X163149Y165542D01*
X163171Y165628D01*
X163197Y165714D01*
X163226Y165798D01*
X163259Y165881D01*
X163295Y165962D01*
X163336Y166042D01*
X163379Y166119D01*
X163426Y166195D01*
X163477Y166268D01*
X163530Y166339D01*
X163587Y166408D01*
X163647Y166474D01*
X163710Y166538D01*
X163775Y166598D01*
X163843Y166656D01*
X163914Y166710D01*
X163987Y166761D01*
X164062Y166809D01*
X164139Y166854D01*
X164218Y166895D01*
X164299Y166932D01*
X164381Y166966D01*
X164465Y166997D01*
X164550Y167023D01*
X164636Y167046D01*
X164723Y167064D01*
X164811Y167079D01*
X164900Y167090D01*
X164989Y167097D01*
X165078Y167100D01*
X165167Y167099D01*
X165256Y167094D01*
X165344Y167085D01*
X165433Y167072D01*
X165520Y167055D01*
X165607Y167035D01*
X165693Y167010D01*
X165777Y166982D01*
X165860Y166950D01*
X165942Y166914D01*
X166022Y166875D01*
X166100Y166832D01*
X166176Y166786D01*
X166250Y166736D01*
X166322Y166683D01*
X166391Y166627D01*
X166458Y166568D01*
X166522Y166506D01*
X166583Y166442D01*
X166642Y166374D01*
X166697Y166304D01*
X166749Y166232D01*
X166798Y166157D01*
X166843Y166081D01*
X166885Y166002D01*
X166923Y165922D01*
X166958Y165840D01*
X166989Y165756D01*
X167017Y165671D01*
X167040Y165585D01*
X167060Y165498D01*
X167076Y165411D01*
X167088Y165322D01*
X167096Y165234D01*
X167100Y165145D01*
X167100Y165055D01*
X167096Y164966D01*
X167088Y164878D01*
X167076Y164789D01*
X167060Y164702D01*
X167040Y164615D01*
X167017Y164529D01*
X166989Y164444D01*
X166958Y164360D01*
X166923Y164278D01*
X166885Y164198D01*
X166843Y164119D01*
X166798Y164043D01*
X166749Y163968D01*
X166697Y163896D01*
X166642Y163826D01*
X166583Y163758D01*
X166522Y163694D01*
X166458Y163632D01*
X166391Y163573D01*
X166322Y163517D01*
X166250Y163464D01*
X166176Y163414D01*
X166100Y163368D01*
X166022Y163325D01*
X165942Y163286D01*
X165860Y163250D01*
X165777Y163218D01*
X165693Y163190D01*
X165607Y163165D01*
X165520Y163145D01*
X165433Y163128D01*
X165344Y163115D01*
X165256Y163106D01*
X165167Y163101D01*
X165078Y163100D01*
X164989Y163103D01*
X164900Y163110D01*
X164811Y163121D01*
X164723Y163136D01*
X164636Y163154D01*
X164550Y163177D01*
X164465Y163203D01*
X164381Y163234D01*
X164299Y163268D01*
X164218Y163305D01*
X164139Y163346D01*
X164062Y163391D01*
X163987Y163439D01*
X163914Y163490D01*
X163843Y163544D01*
X163775Y163602D01*
X163710Y163662D01*
X163647Y163726D01*
X163587Y163792D01*
X163530Y163861D01*
X163477Y163932D01*
X163426Y164005D01*
X163379Y164081D01*
X163336Y164158D01*
X163295Y164238D01*
X163259Y164319D01*
X163226Y164402D01*
X163197Y164486D01*
X163171Y164572D01*
X163149Y164658D01*
X163132Y164745D01*
X163118Y164833D01*
X163108Y164922D01*
X163102Y165011D01*
X163100Y165100D01*
D16*
X0Y165100D02*
X0Y342900D01*
X0Y165100D02*
X431800Y165100D01*
X431800Y342900D01*
X0Y342900D01*
D17*
X412281Y202074D02*
X421519Y202074D01*
X417413Y205153D02*
X412281Y202074D01*
X417413Y205153D02*
X412281Y208232D01*
X421519Y208232D01*
X418953Y212487D02*
X414847Y212487D01*
X414748Y212489D01*
X414648Y212495D01*
X414549Y212504D01*
X414451Y212518D01*
X414353Y212535D01*
X414255Y212556D01*
X414159Y212581D01*
X414064Y212610D01*
X413969Y212642D01*
X413877Y212678D01*
X413785Y212717D01*
X413695Y212760D01*
X413607Y212806D01*
X413521Y212856D01*
X413437Y212909D01*
X413355Y212965D01*
X413275Y213025D01*
X413198Y213087D01*
X413123Y213153D01*
X413050Y213221D01*
X412981Y213292D01*
X412914Y213366D01*
X412850Y213442D01*
X412789Y213521D01*
X412731Y213602D01*
X412676Y213685D01*
X412625Y213770D01*
X412577Y213857D01*
X412532Y213946D01*
X412491Y214037D01*
X412453Y214129D01*
X412419Y214222D01*
X412389Y214317D01*
X412362Y214413D01*
X412339Y214510D01*
X412320Y214607D01*
X412305Y214706D01*
X412293Y214805D01*
X412285Y214904D01*
X412281Y215003D01*
X412281Y215103D01*
X412285Y215202D01*
X412293Y215301D01*
X412305Y215400D01*
X412320Y215499D01*
X412339Y215596D01*
X412362Y215693D01*
X412389Y215789D01*
X412419Y215884D01*
X412453Y215977D01*
X412491Y216069D01*
X412532Y216160D01*
X412577Y216249D01*
X412625Y216336D01*
X412676Y216421D01*
X412731Y216504D01*
X412789Y216585D01*
X412850Y216664D01*
X412914Y216740D01*
X412981Y216814D01*
X413050Y216885D01*
X413123Y216953D01*
X413198Y217019D01*
X413275Y217081D01*
X413355Y217141D01*
X413437Y217197D01*
X413521Y217250D01*
X413607Y217300D01*
X413695Y217346D01*
X413785Y217389D01*
X413877Y217428D01*
X413969Y217464D01*
X414064Y217496D01*
X414159Y217525D01*
X414255Y217550D01*
X414353Y217571D01*
X414451Y217588D01*
X414549Y217602D01*
X414648Y217611D01*
X414748Y217617D01*
X414847Y217619D01*
X418953Y217619D01*
X419052Y217617D01*
X419152Y217611D01*
X419251Y217602D01*
X419349Y217588D01*
X419447Y217571D01*
X419545Y217550D01*
X419641Y217525D01*
X419736Y217496D01*
X419831Y217464D01*
X419923Y217428D01*
X420015Y217389D01*
X420105Y217346D01*
X420193Y217300D01*
X420279Y217250D01*
X420363Y217197D01*
X420445Y217141D01*
X420525Y217081D01*
X420602Y217019D01*
X420677Y216953D01*
X420750Y216885D01*
X420819Y216814D01*
X420886Y216740D01*
X420950Y216664D01*
X421011Y216585D01*
X421069Y216504D01*
X421124Y216421D01*
X421175Y216336D01*
X421223Y216249D01*
X421268Y216160D01*
X421309Y216069D01*
X421347Y215977D01*
X421381Y215884D01*
X421411Y215789D01*
X421438Y215693D01*
X421461Y215596D01*
X421480Y215499D01*
X421495Y215400D01*
X421507Y215301D01*
X421515Y215202D01*
X421519Y215103D01*
X421519Y215003D01*
X421515Y214904D01*
X421507Y214805D01*
X421495Y214706D01*
X421480Y214607D01*
X421461Y214510D01*
X421438Y214413D01*
X421411Y214317D01*
X421381Y214222D01*
X421347Y214129D01*
X421309Y214037D01*
X421268Y213946D01*
X421223Y213857D01*
X421175Y213770D01*
X421124Y213685D01*
X421069Y213602D01*
X421011Y213521D01*
X420950Y213442D01*
X420886Y213366D01*
X420819Y213292D01*
X420750Y213221D01*
X420677Y213153D01*
X420602Y213087D01*
X420525Y213025D01*
X420445Y212965D01*
X420363Y212909D01*
X420279Y212856D01*
X420193Y212806D01*
X420105Y212760D01*
X420015Y212717D01*
X419923Y212678D01*
X419831Y212642D01*
X419736Y212610D01*
X419641Y212581D01*
X419545Y212556D01*
X419447Y212535D01*
X419349Y212518D01*
X419251Y212504D01*
X419152Y212495D01*
X419052Y212489D01*
X418953Y212487D01*
X421519Y221787D02*
X412281Y221787D01*
X412281Y224353D01*
X412283Y224451D01*
X412289Y224549D01*
X412298Y224647D01*
X412311Y224745D01*
X412328Y224842D01*
X412348Y224938D01*
X412373Y225033D01*
X412401Y225127D01*
X412432Y225220D01*
X412467Y225312D01*
X412506Y225403D01*
X412547Y225492D01*
X412593Y225579D01*
X412641Y225664D01*
X412693Y225748D01*
X412748Y225829D01*
X412806Y225909D01*
X412867Y225986D01*
X412931Y226060D01*
X412998Y226132D01*
X413068Y226202D01*
X413140Y226269D01*
X413214Y226333D01*
X413291Y226394D01*
X413371Y226452D01*
X413452Y226507D01*
X413536Y226559D01*
X413621Y226607D01*
X413708Y226653D01*
X413797Y226694D01*
X413888Y226733D01*
X413980Y226768D01*
X414073Y226799D01*
X414167Y226827D01*
X414262Y226852D01*
X414358Y226872D01*
X414455Y226889D01*
X414553Y226902D01*
X414651Y226911D01*
X414749Y226917D01*
X414847Y226919D01*
X418953Y226919D01*
X419051Y226917D01*
X419149Y226911D01*
X419247Y226902D01*
X419345Y226889D01*
X419442Y226872D01*
X419538Y226852D01*
X419633Y226827D01*
X419727Y226799D01*
X419820Y226768D01*
X419912Y226733D01*
X420003Y226694D01*
X420092Y226653D01*
X420179Y226607D01*
X420264Y226559D01*
X420348Y226507D01*
X420429Y226452D01*
X420509Y226394D01*
X420586Y226333D01*
X420660Y226269D01*
X420732Y226202D01*
X420802Y226132D01*
X420869Y226060D01*
X420933Y225986D01*
X420994Y225909D01*
X421052Y225829D01*
X421107Y225748D01*
X421159Y225664D01*
X421207Y225579D01*
X421253Y225492D01*
X421294Y225403D01*
X421333Y225312D01*
X421368Y225220D01*
X421399Y225127D01*
X421427Y225033D01*
X421452Y224938D01*
X421472Y224842D01*
X421489Y224745D01*
X421502Y224647D01*
X421511Y224549D01*
X421517Y224451D01*
X421519Y224353D01*
X421519Y221787D01*
X418953Y231387D02*
X412281Y231387D01*
X418953Y231387D02*
X419052Y231389D01*
X419152Y231395D01*
X419251Y231404D01*
X419349Y231418D01*
X419447Y231435D01*
X419545Y231456D01*
X419641Y231481D01*
X419736Y231510D01*
X419831Y231542D01*
X419923Y231578D01*
X420015Y231617D01*
X420105Y231660D01*
X420193Y231706D01*
X420279Y231756D01*
X420363Y231809D01*
X420445Y231865D01*
X420525Y231925D01*
X420602Y231987D01*
X420677Y232053D01*
X420750Y232121D01*
X420819Y232192D01*
X420886Y232266D01*
X420950Y232342D01*
X421011Y232421D01*
X421069Y232502D01*
X421124Y232585D01*
X421175Y232670D01*
X421223Y232757D01*
X421268Y232846D01*
X421309Y232937D01*
X421347Y233029D01*
X421381Y233122D01*
X421411Y233217D01*
X421438Y233313D01*
X421461Y233410D01*
X421480Y233507D01*
X421495Y233606D01*
X421507Y233705D01*
X421515Y233804D01*
X421519Y233903D01*
X421519Y234003D01*
X421515Y234102D01*
X421507Y234201D01*
X421495Y234300D01*
X421480Y234399D01*
X421461Y234496D01*
X421438Y234593D01*
X421411Y234689D01*
X421381Y234784D01*
X421347Y234877D01*
X421309Y234969D01*
X421268Y235060D01*
X421223Y235149D01*
X421175Y235236D01*
X421124Y235321D01*
X421069Y235404D01*
X421011Y235485D01*
X420950Y235564D01*
X420886Y235640D01*
X420819Y235714D01*
X420750Y235785D01*
X420677Y235853D01*
X420602Y235919D01*
X420525Y235981D01*
X420445Y236041D01*
X420363Y236097D01*
X420279Y236150D01*
X420193Y236200D01*
X420105Y236246D01*
X420015Y236289D01*
X419923Y236328D01*
X419831Y236364D01*
X419736Y236396D01*
X419641Y236425D01*
X419545Y236450D01*
X419447Y236471D01*
X419349Y236488D01*
X419251Y236502D01*
X419152Y236511D01*
X419052Y236517D01*
X418953Y236519D01*
X412281Y236519D01*
X412281Y241004D02*
X421519Y241004D01*
X421519Y245110D01*
X414334Y248487D02*
X412281Y251053D01*
X421519Y251053D01*
X421519Y248487D02*
X421519Y253619D01*
D12*
X313746Y432308D02*
X308554Y432308D01*
X308441Y432310D01*
X308328Y432316D01*
X308215Y432326D01*
X308102Y432340D01*
X307990Y432357D01*
X307879Y432379D01*
X307769Y432404D01*
X307659Y432434D01*
X307551Y432467D01*
X307444Y432504D01*
X307338Y432544D01*
X307234Y432589D01*
X307131Y432637D01*
X307030Y432688D01*
X306931Y432743D01*
X306834Y432801D01*
X306739Y432863D01*
X306646Y432928D01*
X306556Y432996D01*
X306468Y433067D01*
X306382Y433142D01*
X306299Y433219D01*
X306219Y433299D01*
X306142Y433382D01*
X306067Y433468D01*
X305996Y433556D01*
X305928Y433646D01*
X305863Y433739D01*
X305801Y433834D01*
X305743Y433931D01*
X305688Y434030D01*
X305637Y434131D01*
X305589Y434234D01*
X305544Y434338D01*
X305504Y434444D01*
X305467Y434551D01*
X305434Y434659D01*
X305404Y434769D01*
X305379Y434879D01*
X305357Y434990D01*
X305340Y435102D01*
X305326Y435215D01*
X305316Y435328D01*
X305310Y435441D01*
X305308Y435554D01*
X305310Y435667D01*
X305316Y435780D01*
X305326Y435893D01*
X305340Y436006D01*
X305357Y436118D01*
X305379Y436229D01*
X305404Y436339D01*
X305434Y436449D01*
X305467Y436557D01*
X305504Y436664D01*
X305544Y436770D01*
X305589Y436874D01*
X305637Y436977D01*
X305688Y437078D01*
X305743Y437177D01*
X305801Y437274D01*
X305863Y437369D01*
X305928Y437462D01*
X305996Y437552D01*
X306067Y437640D01*
X306142Y437726D01*
X306219Y437809D01*
X306299Y437889D01*
X306382Y437966D01*
X306468Y438041D01*
X306556Y438112D01*
X306646Y438180D01*
X306739Y438245D01*
X306834Y438307D01*
X306931Y438365D01*
X307030Y438420D01*
X307131Y438471D01*
X307234Y438519D01*
X307338Y438564D01*
X307444Y438604D01*
X307551Y438641D01*
X307659Y438674D01*
X307769Y438704D01*
X307879Y438729D01*
X307990Y438751D01*
X308102Y438768D01*
X308215Y438782D01*
X308328Y438792D01*
X308441Y438798D01*
X308554Y438800D01*
X308554Y438799D02*
X313746Y438799D01*
X313746Y438800D02*
X313859Y438798D01*
X313972Y438792D01*
X314085Y438782D01*
X314198Y438768D01*
X314310Y438751D01*
X314421Y438729D01*
X314531Y438704D01*
X314641Y438674D01*
X314749Y438641D01*
X314856Y438604D01*
X314962Y438564D01*
X315066Y438519D01*
X315169Y438471D01*
X315270Y438420D01*
X315369Y438365D01*
X315466Y438307D01*
X315561Y438245D01*
X315654Y438180D01*
X315744Y438112D01*
X315832Y438041D01*
X315918Y437966D01*
X316001Y437889D01*
X316081Y437809D01*
X316158Y437726D01*
X316233Y437640D01*
X316304Y437552D01*
X316372Y437462D01*
X316437Y437369D01*
X316499Y437274D01*
X316557Y437177D01*
X316612Y437078D01*
X316663Y436977D01*
X316711Y436874D01*
X316756Y436770D01*
X316796Y436664D01*
X316833Y436557D01*
X316866Y436449D01*
X316896Y436339D01*
X316921Y436229D01*
X316943Y436118D01*
X316960Y436006D01*
X316974Y435893D01*
X316984Y435780D01*
X316990Y435667D01*
X316992Y435554D01*
X316990Y435441D01*
X316984Y435328D01*
X316974Y435215D01*
X316960Y435102D01*
X316943Y434990D01*
X316921Y434879D01*
X316896Y434769D01*
X316866Y434659D01*
X316833Y434551D01*
X316796Y434444D01*
X316756Y434338D01*
X316711Y434234D01*
X316663Y434131D01*
X316612Y434030D01*
X316557Y433931D01*
X316499Y433834D01*
X316437Y433739D01*
X316372Y433646D01*
X316304Y433556D01*
X316233Y433468D01*
X316158Y433382D01*
X316081Y433299D01*
X316001Y433219D01*
X315918Y433142D01*
X315832Y433067D01*
X315744Y432996D01*
X315654Y432928D01*
X315561Y432863D01*
X315466Y432801D01*
X315369Y432743D01*
X315270Y432688D01*
X315169Y432637D01*
X315066Y432589D01*
X314962Y432544D01*
X314856Y432504D01*
X314749Y432467D01*
X314641Y432434D01*
X314531Y432404D01*
X314421Y432379D01*
X314310Y432357D01*
X314198Y432340D01*
X314085Y432326D01*
X313972Y432316D01*
X313859Y432310D01*
X313746Y432308D01*
X313746Y444119D02*
X305308Y444119D01*
X313746Y444119D02*
X313859Y444121D01*
X313972Y444127D01*
X314085Y444137D01*
X314198Y444151D01*
X314310Y444168D01*
X314421Y444190D01*
X314531Y444215D01*
X314641Y444245D01*
X314749Y444278D01*
X314856Y444315D01*
X314962Y444355D01*
X315066Y444400D01*
X315169Y444448D01*
X315270Y444499D01*
X315369Y444554D01*
X315466Y444612D01*
X315561Y444674D01*
X315654Y444739D01*
X315744Y444807D01*
X315832Y444878D01*
X315918Y444953D01*
X316001Y445030D01*
X316081Y445110D01*
X316158Y445193D01*
X316233Y445279D01*
X316304Y445367D01*
X316372Y445457D01*
X316437Y445550D01*
X316499Y445645D01*
X316557Y445742D01*
X316612Y445841D01*
X316663Y445942D01*
X316711Y446045D01*
X316756Y446149D01*
X316796Y446255D01*
X316833Y446362D01*
X316866Y446470D01*
X316896Y446580D01*
X316921Y446690D01*
X316943Y446801D01*
X316960Y446913D01*
X316974Y447026D01*
X316984Y447139D01*
X316990Y447252D01*
X316992Y447365D01*
X316990Y447478D01*
X316984Y447591D01*
X316974Y447704D01*
X316960Y447817D01*
X316943Y447929D01*
X316921Y448040D01*
X316896Y448150D01*
X316866Y448260D01*
X316833Y448368D01*
X316796Y448475D01*
X316756Y448581D01*
X316711Y448685D01*
X316663Y448788D01*
X316612Y448889D01*
X316557Y448988D01*
X316499Y449085D01*
X316437Y449180D01*
X316372Y449273D01*
X316304Y449363D01*
X316233Y449451D01*
X316158Y449537D01*
X316081Y449620D01*
X316001Y449700D01*
X315918Y449777D01*
X315832Y449852D01*
X315744Y449923D01*
X315654Y449991D01*
X315561Y450056D01*
X315466Y450118D01*
X315369Y450176D01*
X315270Y450231D01*
X315169Y450282D01*
X315066Y450330D01*
X314962Y450375D01*
X314856Y450415D01*
X314749Y450452D01*
X314641Y450485D01*
X314531Y450515D01*
X314421Y450540D01*
X314310Y450562D01*
X314198Y450579D01*
X314085Y450593D01*
X313972Y450603D01*
X313859Y450609D01*
X313746Y450611D01*
X313746Y450610D02*
X305308Y450610D01*
X305308Y458413D02*
X316992Y458413D01*
X305308Y455168D02*
X305308Y461659D01*
X305308Y466386D02*
X316992Y466386D01*
X305308Y466386D02*
X305308Y469632D01*
X305310Y469745D01*
X305316Y469858D01*
X305326Y469971D01*
X305340Y470084D01*
X305357Y470196D01*
X305379Y470307D01*
X305404Y470417D01*
X305434Y470527D01*
X305467Y470635D01*
X305504Y470742D01*
X305544Y470848D01*
X305589Y470952D01*
X305637Y471055D01*
X305688Y471156D01*
X305743Y471255D01*
X305801Y471352D01*
X305863Y471447D01*
X305928Y471540D01*
X305996Y471630D01*
X306067Y471718D01*
X306142Y471804D01*
X306219Y471887D01*
X306299Y471967D01*
X306382Y472044D01*
X306468Y472119D01*
X306556Y472190D01*
X306646Y472258D01*
X306739Y472323D01*
X306834Y472385D01*
X306931Y472443D01*
X307030Y472498D01*
X307131Y472549D01*
X307234Y472597D01*
X307338Y472642D01*
X307444Y472682D01*
X307551Y472719D01*
X307659Y472752D01*
X307769Y472782D01*
X307879Y472807D01*
X307990Y472829D01*
X308102Y472846D01*
X308215Y472860D01*
X308328Y472870D01*
X308441Y472876D01*
X308554Y472878D01*
X308667Y472876D01*
X308780Y472870D01*
X308893Y472860D01*
X309006Y472846D01*
X309118Y472829D01*
X309229Y472807D01*
X309339Y472782D01*
X309449Y472752D01*
X309557Y472719D01*
X309664Y472682D01*
X309770Y472642D01*
X309874Y472597D01*
X309977Y472549D01*
X310078Y472498D01*
X310177Y472443D01*
X310274Y472385D01*
X310369Y472323D01*
X310462Y472258D01*
X310552Y472190D01*
X310640Y472119D01*
X310726Y472044D01*
X310809Y471967D01*
X310889Y471887D01*
X310966Y471804D01*
X311041Y471718D01*
X311112Y471630D01*
X311180Y471540D01*
X311245Y471447D01*
X311307Y471352D01*
X311365Y471255D01*
X311420Y471156D01*
X311471Y471055D01*
X311519Y470952D01*
X311564Y470848D01*
X311604Y470742D01*
X311641Y470635D01*
X311674Y470527D01*
X311704Y470417D01*
X311729Y470307D01*
X311751Y470196D01*
X311768Y470084D01*
X311782Y469971D01*
X311792Y469858D01*
X311798Y469745D01*
X311800Y469632D01*
X311799Y469632D02*
X311799Y466386D01*
X313746Y477647D02*
X305308Y477647D01*
X313746Y477646D02*
X313859Y477648D01*
X313972Y477654D01*
X314085Y477664D01*
X314198Y477678D01*
X314310Y477695D01*
X314421Y477717D01*
X314531Y477742D01*
X314641Y477772D01*
X314749Y477805D01*
X314856Y477842D01*
X314962Y477882D01*
X315066Y477927D01*
X315169Y477975D01*
X315270Y478026D01*
X315369Y478081D01*
X315466Y478139D01*
X315561Y478201D01*
X315654Y478266D01*
X315744Y478334D01*
X315832Y478405D01*
X315918Y478480D01*
X316001Y478557D01*
X316081Y478637D01*
X316158Y478720D01*
X316233Y478806D01*
X316304Y478894D01*
X316372Y478984D01*
X316437Y479077D01*
X316499Y479172D01*
X316557Y479269D01*
X316612Y479368D01*
X316663Y479469D01*
X316711Y479572D01*
X316756Y479676D01*
X316796Y479782D01*
X316833Y479889D01*
X316866Y479997D01*
X316896Y480107D01*
X316921Y480217D01*
X316943Y480328D01*
X316960Y480440D01*
X316974Y480553D01*
X316984Y480666D01*
X316990Y480779D01*
X316992Y480892D01*
X316990Y481005D01*
X316984Y481118D01*
X316974Y481231D01*
X316960Y481344D01*
X316943Y481456D01*
X316921Y481567D01*
X316896Y481677D01*
X316866Y481787D01*
X316833Y481895D01*
X316796Y482002D01*
X316756Y482108D01*
X316711Y482212D01*
X316663Y482315D01*
X316612Y482416D01*
X316557Y482515D01*
X316499Y482612D01*
X316437Y482707D01*
X316372Y482800D01*
X316304Y482890D01*
X316233Y482978D01*
X316158Y483064D01*
X316081Y483147D01*
X316001Y483227D01*
X315918Y483304D01*
X315832Y483379D01*
X315744Y483450D01*
X315654Y483518D01*
X315561Y483583D01*
X315466Y483645D01*
X315369Y483703D01*
X315270Y483758D01*
X315169Y483809D01*
X315066Y483857D01*
X314962Y483902D01*
X314856Y483942D01*
X314749Y483979D01*
X314641Y484012D01*
X314531Y484042D01*
X314421Y484067D01*
X314310Y484089D01*
X314198Y484106D01*
X314085Y484120D01*
X313972Y484130D01*
X313859Y484136D01*
X313746Y484138D01*
X305308Y484138D01*
X305308Y491941D02*
X316992Y491941D01*
X305308Y488696D02*
X305308Y495187D01*
D13*
X324200Y446000D03*
X336200Y446000D03*
D14*
X330200Y446000D03*
D12*
X24892Y432308D02*
X13208Y432308D01*
X13208Y435554D01*
X13210Y435667D01*
X13216Y435780D01*
X13226Y435893D01*
X13240Y436006D01*
X13257Y436118D01*
X13279Y436229D01*
X13304Y436339D01*
X13334Y436449D01*
X13367Y436557D01*
X13404Y436664D01*
X13444Y436770D01*
X13489Y436874D01*
X13537Y436977D01*
X13588Y437078D01*
X13643Y437177D01*
X13701Y437274D01*
X13763Y437369D01*
X13828Y437462D01*
X13896Y437552D01*
X13967Y437640D01*
X14042Y437726D01*
X14119Y437809D01*
X14199Y437889D01*
X14282Y437966D01*
X14368Y438041D01*
X14456Y438112D01*
X14546Y438180D01*
X14639Y438245D01*
X14734Y438307D01*
X14831Y438365D01*
X14930Y438420D01*
X15031Y438471D01*
X15134Y438519D01*
X15238Y438564D01*
X15344Y438604D01*
X15451Y438641D01*
X15559Y438674D01*
X15669Y438704D01*
X15779Y438729D01*
X15890Y438751D01*
X16002Y438768D01*
X16115Y438782D01*
X16228Y438792D01*
X16341Y438798D01*
X16454Y438800D01*
X16567Y438798D01*
X16680Y438792D01*
X16793Y438782D01*
X16906Y438768D01*
X17018Y438751D01*
X17129Y438729D01*
X17239Y438704D01*
X17349Y438674D01*
X17457Y438641D01*
X17564Y438604D01*
X17670Y438564D01*
X17774Y438519D01*
X17877Y438471D01*
X17978Y438420D01*
X18077Y438365D01*
X18174Y438307D01*
X18269Y438245D01*
X18362Y438180D01*
X18452Y438112D01*
X18540Y438041D01*
X18626Y437966D01*
X18709Y437889D01*
X18789Y437809D01*
X18866Y437726D01*
X18941Y437640D01*
X19012Y437552D01*
X19080Y437462D01*
X19145Y437369D01*
X19207Y437274D01*
X19265Y437177D01*
X19320Y437078D01*
X19371Y436977D01*
X19419Y436874D01*
X19464Y436770D01*
X19504Y436664D01*
X19541Y436557D01*
X19574Y436449D01*
X19604Y436339D01*
X19629Y436229D01*
X19651Y436118D01*
X19668Y436006D01*
X19682Y435893D01*
X19692Y435780D01*
X19698Y435667D01*
X19700Y435554D01*
X19699Y435554D02*
X19699Y432308D01*
X21646Y443188D02*
X16454Y443188D01*
X16454Y443187D02*
X16341Y443189D01*
X16228Y443195D01*
X16115Y443205D01*
X16002Y443219D01*
X15890Y443236D01*
X15779Y443258D01*
X15669Y443283D01*
X15559Y443313D01*
X15451Y443346D01*
X15344Y443383D01*
X15238Y443423D01*
X15134Y443468D01*
X15031Y443516D01*
X14930Y443567D01*
X14831Y443622D01*
X14734Y443680D01*
X14639Y443742D01*
X14546Y443807D01*
X14456Y443875D01*
X14368Y443946D01*
X14282Y444021D01*
X14199Y444098D01*
X14119Y444178D01*
X14042Y444261D01*
X13967Y444347D01*
X13896Y444435D01*
X13828Y444525D01*
X13763Y444618D01*
X13701Y444713D01*
X13643Y444810D01*
X13588Y444909D01*
X13537Y445010D01*
X13489Y445113D01*
X13444Y445217D01*
X13404Y445323D01*
X13367Y445430D01*
X13334Y445538D01*
X13304Y445648D01*
X13279Y445758D01*
X13257Y445869D01*
X13240Y445981D01*
X13226Y446094D01*
X13216Y446207D01*
X13210Y446320D01*
X13208Y446433D01*
X13210Y446546D01*
X13216Y446659D01*
X13226Y446772D01*
X13240Y446885D01*
X13257Y446997D01*
X13279Y447108D01*
X13304Y447218D01*
X13334Y447328D01*
X13367Y447436D01*
X13404Y447543D01*
X13444Y447649D01*
X13489Y447753D01*
X13537Y447856D01*
X13588Y447957D01*
X13643Y448056D01*
X13701Y448153D01*
X13763Y448248D01*
X13828Y448341D01*
X13896Y448431D01*
X13967Y448519D01*
X14042Y448605D01*
X14119Y448688D01*
X14199Y448768D01*
X14282Y448845D01*
X14368Y448920D01*
X14456Y448991D01*
X14546Y449059D01*
X14639Y449124D01*
X14734Y449186D01*
X14831Y449244D01*
X14930Y449299D01*
X15031Y449350D01*
X15134Y449398D01*
X15238Y449443D01*
X15344Y449483D01*
X15451Y449520D01*
X15559Y449553D01*
X15669Y449583D01*
X15779Y449608D01*
X15890Y449630D01*
X16002Y449647D01*
X16115Y449661D01*
X16228Y449671D01*
X16341Y449677D01*
X16454Y449679D01*
X21646Y449679D01*
X21759Y449677D01*
X21872Y449671D01*
X21985Y449661D01*
X22098Y449647D01*
X22210Y449630D01*
X22321Y449608D01*
X22431Y449583D01*
X22541Y449553D01*
X22649Y449520D01*
X22756Y449483D01*
X22862Y449443D01*
X22966Y449398D01*
X23069Y449350D01*
X23170Y449299D01*
X23269Y449244D01*
X23366Y449186D01*
X23461Y449124D01*
X23554Y449059D01*
X23644Y448991D01*
X23732Y448920D01*
X23818Y448845D01*
X23901Y448768D01*
X23981Y448688D01*
X24058Y448605D01*
X24133Y448519D01*
X24204Y448431D01*
X24272Y448341D01*
X24337Y448248D01*
X24399Y448153D01*
X24457Y448056D01*
X24512Y447957D01*
X24563Y447856D01*
X24611Y447753D01*
X24656Y447649D01*
X24696Y447543D01*
X24733Y447436D01*
X24766Y447328D01*
X24796Y447218D01*
X24821Y447108D01*
X24843Y446997D01*
X24860Y446885D01*
X24874Y446772D01*
X24884Y446659D01*
X24890Y446546D01*
X24892Y446433D01*
X24890Y446320D01*
X24884Y446207D01*
X24874Y446094D01*
X24860Y445981D01*
X24843Y445869D01*
X24821Y445758D01*
X24796Y445648D01*
X24766Y445538D01*
X24733Y445430D01*
X24696Y445323D01*
X24656Y445217D01*
X24611Y445113D01*
X24563Y445010D01*
X24512Y444909D01*
X24457Y444810D01*
X24399Y444713D01*
X24337Y444618D01*
X24272Y444525D01*
X24204Y444435D01*
X24133Y444347D01*
X24058Y444261D01*
X23981Y444178D01*
X23901Y444098D01*
X23818Y444021D01*
X23732Y443946D01*
X23644Y443875D01*
X23554Y443807D01*
X23461Y443742D01*
X23366Y443680D01*
X23269Y443622D01*
X23170Y443567D01*
X23069Y443516D01*
X22966Y443468D01*
X22862Y443423D01*
X22756Y443383D01*
X22649Y443346D01*
X22541Y443313D01*
X22431Y443283D01*
X22321Y443258D01*
X22210Y443236D01*
X22098Y443219D01*
X21985Y443205D01*
X21872Y443195D01*
X21759Y443189D01*
X21646Y443187D01*
X13208Y454194D02*
X24892Y456791D01*
X17103Y459387D01*
X24892Y461984D01*
X13208Y464580D01*
X24892Y469499D02*
X24892Y474692D01*
X24892Y469499D02*
X13208Y469499D01*
X13208Y474692D01*
X18401Y473394D02*
X18401Y469499D01*
X13208Y479456D02*
X24892Y479456D01*
X13208Y479456D02*
X13208Y482702D01*
X13210Y482815D01*
X13216Y482928D01*
X13226Y483041D01*
X13240Y483154D01*
X13257Y483266D01*
X13279Y483377D01*
X13304Y483487D01*
X13334Y483597D01*
X13367Y483705D01*
X13404Y483812D01*
X13444Y483918D01*
X13489Y484022D01*
X13537Y484125D01*
X13588Y484226D01*
X13643Y484325D01*
X13701Y484422D01*
X13763Y484517D01*
X13828Y484610D01*
X13896Y484700D01*
X13967Y484788D01*
X14042Y484874D01*
X14119Y484957D01*
X14199Y485037D01*
X14282Y485114D01*
X14368Y485189D01*
X14456Y485260D01*
X14546Y485328D01*
X14639Y485393D01*
X14734Y485455D01*
X14831Y485513D01*
X14930Y485568D01*
X15031Y485619D01*
X15134Y485667D01*
X15238Y485712D01*
X15344Y485752D01*
X15451Y485789D01*
X15559Y485822D01*
X15669Y485852D01*
X15779Y485877D01*
X15890Y485899D01*
X16002Y485916D01*
X16115Y485930D01*
X16228Y485940D01*
X16341Y485946D01*
X16454Y485948D01*
X16567Y485946D01*
X16680Y485940D01*
X16793Y485930D01*
X16906Y485916D01*
X17018Y485899D01*
X17129Y485877D01*
X17239Y485852D01*
X17349Y485822D01*
X17457Y485789D01*
X17564Y485752D01*
X17670Y485712D01*
X17774Y485667D01*
X17877Y485619D01*
X17978Y485568D01*
X18077Y485513D01*
X18174Y485455D01*
X18269Y485393D01*
X18362Y485328D01*
X18452Y485260D01*
X18540Y485189D01*
X18626Y485114D01*
X18709Y485037D01*
X18789Y484957D01*
X18866Y484874D01*
X18941Y484788D01*
X19012Y484700D01*
X19080Y484610D01*
X19145Y484517D01*
X19207Y484422D01*
X19265Y484325D01*
X19320Y484226D01*
X19371Y484125D01*
X19419Y484022D01*
X19464Y483918D01*
X19504Y483812D01*
X19541Y483705D01*
X19574Y483597D01*
X19604Y483487D01*
X19629Y483377D01*
X19651Y483266D01*
X19668Y483154D01*
X19682Y483041D01*
X19692Y482928D01*
X19698Y482815D01*
X19700Y482702D01*
X19699Y482702D02*
X19699Y479456D01*
X19699Y483351D02*
X24892Y485947D01*
D13*
X32100Y446000D03*
X44100Y446000D03*
D14*
X38100Y446000D03*
D12*
X241808Y273558D02*
X253492Y273558D01*
X241808Y273558D02*
X241808Y276804D01*
X241810Y276917D01*
X241816Y277030D01*
X241826Y277143D01*
X241840Y277256D01*
X241857Y277368D01*
X241879Y277479D01*
X241904Y277589D01*
X241934Y277699D01*
X241967Y277807D01*
X242004Y277914D01*
X242044Y278020D01*
X242089Y278124D01*
X242137Y278227D01*
X242188Y278328D01*
X242243Y278427D01*
X242301Y278524D01*
X242363Y278619D01*
X242428Y278712D01*
X242496Y278802D01*
X242567Y278890D01*
X242642Y278976D01*
X242719Y279059D01*
X242799Y279139D01*
X242882Y279216D01*
X242968Y279291D01*
X243056Y279362D01*
X243146Y279430D01*
X243239Y279495D01*
X243334Y279557D01*
X243431Y279615D01*
X243530Y279670D01*
X243631Y279721D01*
X243734Y279769D01*
X243838Y279814D01*
X243944Y279854D01*
X244051Y279891D01*
X244159Y279924D01*
X244269Y279954D01*
X244379Y279979D01*
X244490Y280001D01*
X244602Y280018D01*
X244715Y280032D01*
X244828Y280042D01*
X244941Y280048D01*
X245054Y280050D01*
X245167Y280048D01*
X245280Y280042D01*
X245393Y280032D01*
X245506Y280018D01*
X245618Y280001D01*
X245729Y279979D01*
X245839Y279954D01*
X245949Y279924D01*
X246057Y279891D01*
X246164Y279854D01*
X246270Y279814D01*
X246374Y279769D01*
X246477Y279721D01*
X246578Y279670D01*
X246677Y279615D01*
X246774Y279557D01*
X246869Y279495D01*
X246962Y279430D01*
X247052Y279362D01*
X247140Y279291D01*
X247226Y279216D01*
X247309Y279139D01*
X247389Y279059D01*
X247466Y278976D01*
X247541Y278890D01*
X247612Y278802D01*
X247680Y278712D01*
X247745Y278619D01*
X247807Y278524D01*
X247865Y278427D01*
X247920Y278328D01*
X247971Y278227D01*
X248019Y278124D01*
X248064Y278020D01*
X248104Y277914D01*
X248141Y277807D01*
X248174Y277699D01*
X248204Y277589D01*
X248229Y277479D01*
X248251Y277368D01*
X248268Y277256D01*
X248282Y277143D01*
X248292Y277030D01*
X248298Y276917D01*
X248300Y276804D01*
X248299Y276804D02*
X248299Y273558D01*
X248299Y277453D02*
X253492Y280049D01*
X244404Y284914D02*
X241808Y288160D01*
X253492Y288160D01*
X253492Y291405D02*
X253492Y284914D01*
X202692Y273558D02*
X191008Y273558D01*
X191008Y276804D01*
X191010Y276917D01*
X191016Y277030D01*
X191026Y277143D01*
X191040Y277256D01*
X191057Y277368D01*
X191079Y277479D01*
X191104Y277589D01*
X191134Y277699D01*
X191167Y277807D01*
X191204Y277914D01*
X191244Y278020D01*
X191289Y278124D01*
X191337Y278227D01*
X191388Y278328D01*
X191443Y278427D01*
X191501Y278524D01*
X191563Y278619D01*
X191628Y278712D01*
X191696Y278802D01*
X191767Y278890D01*
X191842Y278976D01*
X191919Y279059D01*
X191999Y279139D01*
X192082Y279216D01*
X192168Y279291D01*
X192256Y279362D01*
X192346Y279430D01*
X192439Y279495D01*
X192534Y279557D01*
X192631Y279615D01*
X192730Y279670D01*
X192831Y279721D01*
X192934Y279769D01*
X193038Y279814D01*
X193144Y279854D01*
X193251Y279891D01*
X193359Y279924D01*
X193469Y279954D01*
X193579Y279979D01*
X193690Y280001D01*
X193802Y280018D01*
X193915Y280032D01*
X194028Y280042D01*
X194141Y280048D01*
X194254Y280050D01*
X194367Y280048D01*
X194480Y280042D01*
X194593Y280032D01*
X194706Y280018D01*
X194818Y280001D01*
X194929Y279979D01*
X195039Y279954D01*
X195149Y279924D01*
X195257Y279891D01*
X195364Y279854D01*
X195470Y279814D01*
X195574Y279769D01*
X195677Y279721D01*
X195778Y279670D01*
X195877Y279615D01*
X195974Y279557D01*
X196069Y279495D01*
X196162Y279430D01*
X196252Y279362D01*
X196340Y279291D01*
X196426Y279216D01*
X196509Y279139D01*
X196589Y279059D01*
X196666Y278976D01*
X196741Y278890D01*
X196812Y278802D01*
X196880Y278712D01*
X196945Y278619D01*
X197007Y278524D01*
X197065Y278427D01*
X197120Y278328D01*
X197171Y278227D01*
X197219Y278124D01*
X197264Y278020D01*
X197304Y277914D01*
X197341Y277807D01*
X197374Y277699D01*
X197404Y277589D01*
X197429Y277479D01*
X197451Y277368D01*
X197468Y277256D01*
X197482Y277143D01*
X197492Y277030D01*
X197498Y276917D01*
X197500Y276804D01*
X197499Y276804D02*
X197499Y273558D01*
X197499Y277453D02*
X202692Y280049D01*
X193929Y291405D02*
X193822Y291403D01*
X193716Y291397D01*
X193610Y291387D01*
X193504Y291374D01*
X193398Y291356D01*
X193294Y291335D01*
X193190Y291310D01*
X193087Y291281D01*
X192986Y291249D01*
X192886Y291212D01*
X192787Y291172D01*
X192689Y291129D01*
X192593Y291082D01*
X192499Y291031D01*
X192407Y290977D01*
X192317Y290920D01*
X192229Y290860D01*
X192144Y290796D01*
X192061Y290729D01*
X191980Y290659D01*
X191902Y290587D01*
X191826Y290511D01*
X191754Y290433D01*
X191684Y290352D01*
X191617Y290269D01*
X191553Y290184D01*
X191493Y290096D01*
X191436Y290006D01*
X191382Y289914D01*
X191331Y289820D01*
X191284Y289724D01*
X191241Y289626D01*
X191201Y289527D01*
X191164Y289427D01*
X191132Y289326D01*
X191103Y289223D01*
X191078Y289119D01*
X191057Y289015D01*
X191039Y288909D01*
X191026Y288803D01*
X191016Y288697D01*
X191010Y288591D01*
X191008Y288484D01*
X191010Y288363D01*
X191016Y288242D01*
X191026Y288122D01*
X191039Y288001D01*
X191057Y287882D01*
X191078Y287762D01*
X191103Y287644D01*
X191132Y287527D01*
X191165Y287410D01*
X191201Y287295D01*
X191242Y287181D01*
X191285Y287068D01*
X191333Y286956D01*
X191384Y286847D01*
X191439Y286739D01*
X191497Y286632D01*
X191558Y286528D01*
X191623Y286426D01*
X191691Y286326D01*
X191762Y286228D01*
X191836Y286132D01*
X191913Y286039D01*
X191994Y285949D01*
X192077Y285861D01*
X192163Y285776D01*
X192252Y285693D01*
X192343Y285614D01*
X192437Y285537D01*
X192533Y285464D01*
X192631Y285394D01*
X192732Y285327D01*
X192835Y285263D01*
X192940Y285203D01*
X193047Y285145D01*
X193155Y285092D01*
X193265Y285042D01*
X193377Y284996D01*
X193490Y284953D01*
X193605Y284914D01*
X196201Y290431D02*
X196123Y290510D01*
X196043Y290586D01*
X195960Y290659D01*
X195874Y290729D01*
X195787Y290796D01*
X195696Y290860D01*
X195604Y290920D01*
X195510Y290978D01*
X195413Y291032D01*
X195315Y291082D01*
X195215Y291129D01*
X195114Y291173D01*
X195011Y291213D01*
X194906Y291249D01*
X194801Y291281D01*
X194694Y291310D01*
X194587Y291335D01*
X194478Y291357D01*
X194369Y291374D01*
X194260Y291388D01*
X194150Y291397D01*
X194039Y291403D01*
X193929Y291405D01*
X196201Y290432D02*
X202692Y284914D01*
X202692Y291405D01*
X164592Y273558D02*
X152908Y273558D01*
X152908Y276804D01*
X152910Y276917D01*
X152916Y277030D01*
X152926Y277143D01*
X152940Y277256D01*
X152957Y277368D01*
X152979Y277479D01*
X153004Y277589D01*
X153034Y277699D01*
X153067Y277807D01*
X153104Y277914D01*
X153144Y278020D01*
X153189Y278124D01*
X153237Y278227D01*
X153288Y278328D01*
X153343Y278427D01*
X153401Y278524D01*
X153463Y278619D01*
X153528Y278712D01*
X153596Y278802D01*
X153667Y278890D01*
X153742Y278976D01*
X153819Y279059D01*
X153899Y279139D01*
X153982Y279216D01*
X154068Y279291D01*
X154156Y279362D01*
X154246Y279430D01*
X154339Y279495D01*
X154434Y279557D01*
X154531Y279615D01*
X154630Y279670D01*
X154731Y279721D01*
X154834Y279769D01*
X154938Y279814D01*
X155044Y279854D01*
X155151Y279891D01*
X155259Y279924D01*
X155369Y279954D01*
X155479Y279979D01*
X155590Y280001D01*
X155702Y280018D01*
X155815Y280032D01*
X155928Y280042D01*
X156041Y280048D01*
X156154Y280050D01*
X156267Y280048D01*
X156380Y280042D01*
X156493Y280032D01*
X156606Y280018D01*
X156718Y280001D01*
X156829Y279979D01*
X156939Y279954D01*
X157049Y279924D01*
X157157Y279891D01*
X157264Y279854D01*
X157370Y279814D01*
X157474Y279769D01*
X157577Y279721D01*
X157678Y279670D01*
X157777Y279615D01*
X157874Y279557D01*
X157969Y279495D01*
X158062Y279430D01*
X158152Y279362D01*
X158240Y279291D01*
X158326Y279216D01*
X158409Y279139D01*
X158489Y279059D01*
X158566Y278976D01*
X158641Y278890D01*
X158712Y278802D01*
X158780Y278712D01*
X158845Y278619D01*
X158907Y278524D01*
X158965Y278427D01*
X159020Y278328D01*
X159071Y278227D01*
X159119Y278124D01*
X159164Y278020D01*
X159204Y277914D01*
X159241Y277807D01*
X159274Y277699D01*
X159304Y277589D01*
X159329Y277479D01*
X159351Y277368D01*
X159368Y277256D01*
X159382Y277143D01*
X159392Y277030D01*
X159398Y276917D01*
X159400Y276804D01*
X159399Y276804D02*
X159399Y273558D01*
X159399Y277453D02*
X164592Y280049D01*
X164592Y284914D02*
X164592Y288160D01*
X164590Y288273D01*
X164584Y288386D01*
X164574Y288499D01*
X164560Y288612D01*
X164543Y288724D01*
X164521Y288835D01*
X164496Y288945D01*
X164466Y289055D01*
X164433Y289163D01*
X164396Y289270D01*
X164356Y289376D01*
X164311Y289480D01*
X164263Y289583D01*
X164212Y289684D01*
X164157Y289783D01*
X164099Y289880D01*
X164037Y289975D01*
X163972Y290068D01*
X163904Y290158D01*
X163833Y290246D01*
X163758Y290332D01*
X163681Y290415D01*
X163601Y290495D01*
X163518Y290572D01*
X163432Y290647D01*
X163344Y290718D01*
X163254Y290786D01*
X163161Y290851D01*
X163066Y290913D01*
X162969Y290971D01*
X162870Y291026D01*
X162769Y291077D01*
X162666Y291125D01*
X162562Y291170D01*
X162456Y291210D01*
X162349Y291247D01*
X162241Y291280D01*
X162131Y291310D01*
X162021Y291335D01*
X161910Y291357D01*
X161798Y291374D01*
X161685Y291388D01*
X161572Y291398D01*
X161459Y291404D01*
X161346Y291406D01*
X161233Y291404D01*
X161120Y291398D01*
X161007Y291388D01*
X160894Y291374D01*
X160782Y291357D01*
X160671Y291335D01*
X160561Y291310D01*
X160451Y291280D01*
X160343Y291247D01*
X160236Y291210D01*
X160130Y291170D01*
X160026Y291125D01*
X159923Y291077D01*
X159822Y291026D01*
X159723Y290971D01*
X159626Y290913D01*
X159531Y290851D01*
X159438Y290786D01*
X159348Y290718D01*
X159260Y290647D01*
X159174Y290572D01*
X159091Y290495D01*
X159011Y290415D01*
X158934Y290332D01*
X158859Y290246D01*
X158788Y290158D01*
X158720Y290068D01*
X158655Y289975D01*
X158593Y289880D01*
X158535Y289783D01*
X158480Y289684D01*
X158429Y289583D01*
X158381Y289480D01*
X158336Y289376D01*
X158296Y289270D01*
X158259Y289163D01*
X158226Y289055D01*
X158196Y288945D01*
X158171Y288835D01*
X158149Y288724D01*
X158132Y288612D01*
X158118Y288499D01*
X158108Y288386D01*
X158102Y288273D01*
X158100Y288160D01*
X152908Y288809D02*
X152908Y284914D01*
X152908Y288809D02*
X152910Y288910D01*
X152916Y289010D01*
X152926Y289110D01*
X152939Y289210D01*
X152957Y289309D01*
X152978Y289408D01*
X153003Y289505D01*
X153032Y289602D01*
X153065Y289697D01*
X153101Y289791D01*
X153141Y289883D01*
X153184Y289974D01*
X153231Y290063D01*
X153281Y290150D01*
X153335Y290236D01*
X153392Y290319D01*
X153452Y290399D01*
X153515Y290478D01*
X153582Y290554D01*
X153651Y290627D01*
X153723Y290697D01*
X153797Y290765D01*
X153874Y290830D01*
X153954Y290891D01*
X154036Y290950D01*
X154120Y291005D01*
X154206Y291057D01*
X154294Y291106D01*
X154384Y291151D01*
X154476Y291193D01*
X154569Y291231D01*
X154664Y291265D01*
X154759Y291296D01*
X154856Y291323D01*
X154954Y291346D01*
X155053Y291366D01*
X155153Y291381D01*
X155253Y291393D01*
X155353Y291401D01*
X155454Y291405D01*
X155554Y291405D01*
X155655Y291401D01*
X155755Y291393D01*
X155855Y291381D01*
X155955Y291366D01*
X156054Y291346D01*
X156152Y291323D01*
X156249Y291296D01*
X156344Y291265D01*
X156439Y291231D01*
X156532Y291193D01*
X156624Y291151D01*
X156714Y291106D01*
X156802Y291057D01*
X156888Y291005D01*
X156972Y290950D01*
X157054Y290891D01*
X157134Y290830D01*
X157211Y290765D01*
X157285Y290697D01*
X157357Y290627D01*
X157426Y290554D01*
X157493Y290478D01*
X157556Y290399D01*
X157616Y290319D01*
X157673Y290236D01*
X157727Y290150D01*
X157777Y290063D01*
X157824Y289974D01*
X157867Y289883D01*
X157907Y289791D01*
X157943Y289697D01*
X157976Y289602D01*
X158005Y289505D01*
X158030Y289408D01*
X158051Y289309D01*
X158069Y289210D01*
X158082Y289110D01*
X158092Y289010D01*
X158098Y288910D01*
X158100Y288809D01*
X158101Y288809D02*
X158101Y286213D01*
X101092Y273558D02*
X89408Y273558D01*
X89408Y276804D01*
X89410Y276917D01*
X89416Y277030D01*
X89426Y277143D01*
X89440Y277256D01*
X89457Y277368D01*
X89479Y277479D01*
X89504Y277589D01*
X89534Y277699D01*
X89567Y277807D01*
X89604Y277914D01*
X89644Y278020D01*
X89689Y278124D01*
X89737Y278227D01*
X89788Y278328D01*
X89843Y278427D01*
X89901Y278524D01*
X89963Y278619D01*
X90028Y278712D01*
X90096Y278802D01*
X90167Y278890D01*
X90242Y278976D01*
X90319Y279059D01*
X90399Y279139D01*
X90482Y279216D01*
X90568Y279291D01*
X90656Y279362D01*
X90746Y279430D01*
X90839Y279495D01*
X90934Y279557D01*
X91031Y279615D01*
X91130Y279670D01*
X91231Y279721D01*
X91334Y279769D01*
X91438Y279814D01*
X91544Y279854D01*
X91651Y279891D01*
X91759Y279924D01*
X91869Y279954D01*
X91979Y279979D01*
X92090Y280001D01*
X92202Y280018D01*
X92315Y280032D01*
X92428Y280042D01*
X92541Y280048D01*
X92654Y280050D01*
X92767Y280048D01*
X92880Y280042D01*
X92993Y280032D01*
X93106Y280018D01*
X93218Y280001D01*
X93329Y279979D01*
X93439Y279954D01*
X93549Y279924D01*
X93657Y279891D01*
X93764Y279854D01*
X93870Y279814D01*
X93974Y279769D01*
X94077Y279721D01*
X94178Y279670D01*
X94277Y279615D01*
X94374Y279557D01*
X94469Y279495D01*
X94562Y279430D01*
X94652Y279362D01*
X94740Y279291D01*
X94826Y279216D01*
X94909Y279139D01*
X94989Y279059D01*
X95066Y278976D01*
X95141Y278890D01*
X95212Y278802D01*
X95280Y278712D01*
X95345Y278619D01*
X95407Y278524D01*
X95465Y278427D01*
X95520Y278328D01*
X95571Y278227D01*
X95619Y278124D01*
X95664Y278020D01*
X95704Y277914D01*
X95741Y277807D01*
X95774Y277699D01*
X95804Y277589D01*
X95829Y277479D01*
X95851Y277368D01*
X95868Y277256D01*
X95882Y277143D01*
X95892Y277030D01*
X95898Y276917D01*
X95900Y276804D01*
X95899Y276804D02*
X95899Y273558D01*
X95899Y277453D02*
X101092Y280049D01*
X98496Y284914D02*
X89408Y287511D01*
X98496Y284914D02*
X98496Y291405D01*
X95899Y289458D02*
X101092Y289458D01*
X24892Y387858D02*
X13208Y387858D01*
X13208Y391104D01*
X13210Y391217D01*
X13216Y391330D01*
X13226Y391443D01*
X13240Y391556D01*
X13257Y391668D01*
X13279Y391779D01*
X13304Y391889D01*
X13334Y391999D01*
X13367Y392107D01*
X13404Y392214D01*
X13444Y392320D01*
X13489Y392424D01*
X13537Y392527D01*
X13588Y392628D01*
X13643Y392727D01*
X13701Y392824D01*
X13763Y392919D01*
X13828Y393012D01*
X13896Y393102D01*
X13967Y393190D01*
X14042Y393276D01*
X14119Y393359D01*
X14199Y393439D01*
X14282Y393516D01*
X14368Y393591D01*
X14456Y393662D01*
X14546Y393730D01*
X14639Y393795D01*
X14734Y393857D01*
X14831Y393915D01*
X14930Y393970D01*
X15031Y394021D01*
X15134Y394069D01*
X15238Y394114D01*
X15344Y394154D01*
X15451Y394191D01*
X15559Y394224D01*
X15669Y394254D01*
X15779Y394279D01*
X15890Y394301D01*
X16002Y394318D01*
X16115Y394332D01*
X16228Y394342D01*
X16341Y394348D01*
X16454Y394350D01*
X16567Y394348D01*
X16680Y394342D01*
X16793Y394332D01*
X16906Y394318D01*
X17018Y394301D01*
X17129Y394279D01*
X17239Y394254D01*
X17349Y394224D01*
X17457Y394191D01*
X17564Y394154D01*
X17670Y394114D01*
X17774Y394069D01*
X17877Y394021D01*
X17978Y393970D01*
X18077Y393915D01*
X18174Y393857D01*
X18269Y393795D01*
X18362Y393730D01*
X18452Y393662D01*
X18540Y393591D01*
X18626Y393516D01*
X18709Y393439D01*
X18789Y393359D01*
X18866Y393276D01*
X18941Y393190D01*
X19012Y393102D01*
X19080Y393012D01*
X19145Y392919D01*
X19207Y392824D01*
X19265Y392727D01*
X19320Y392628D01*
X19371Y392527D01*
X19419Y392424D01*
X19464Y392320D01*
X19504Y392214D01*
X19541Y392107D01*
X19574Y391999D01*
X19604Y391889D01*
X19629Y391779D01*
X19651Y391668D01*
X19668Y391556D01*
X19682Y391443D01*
X19692Y391330D01*
X19698Y391217D01*
X19700Y391104D01*
X19699Y391104D02*
X19699Y387858D01*
X19699Y391753D02*
X24892Y394349D01*
X24892Y399214D02*
X24892Y403109D01*
X24890Y403208D01*
X24884Y403308D01*
X24875Y403407D01*
X24862Y403505D01*
X24845Y403603D01*
X24824Y403701D01*
X24799Y403797D01*
X24771Y403892D01*
X24739Y403986D01*
X24704Y404079D01*
X24665Y404171D01*
X24622Y404261D01*
X24577Y404349D01*
X24527Y404436D01*
X24475Y404520D01*
X24419Y404603D01*
X24361Y404683D01*
X24299Y404761D01*
X24234Y404836D01*
X24166Y404909D01*
X24096Y404979D01*
X24023Y405047D01*
X23948Y405112D01*
X23870Y405174D01*
X23790Y405232D01*
X23707Y405288D01*
X23623Y405340D01*
X23536Y405390D01*
X23448Y405435D01*
X23358Y405478D01*
X23266Y405517D01*
X23173Y405552D01*
X23079Y405584D01*
X22984Y405612D01*
X22888Y405637D01*
X22790Y405658D01*
X22692Y405675D01*
X22594Y405688D01*
X22495Y405697D01*
X22395Y405703D01*
X22296Y405705D01*
X20997Y405705D01*
X20898Y405703D01*
X20798Y405697D01*
X20699Y405688D01*
X20601Y405675D01*
X20503Y405658D01*
X20405Y405637D01*
X20309Y405612D01*
X20214Y405584D01*
X20120Y405552D01*
X20027Y405517D01*
X19935Y405478D01*
X19845Y405435D01*
X19757Y405390D01*
X19670Y405340D01*
X19586Y405288D01*
X19503Y405232D01*
X19423Y405174D01*
X19345Y405112D01*
X19270Y405047D01*
X19197Y404979D01*
X19127Y404909D01*
X19059Y404836D01*
X18994Y404761D01*
X18932Y404683D01*
X18874Y404603D01*
X18818Y404520D01*
X18766Y404436D01*
X18716Y404349D01*
X18671Y404261D01*
X18628Y404171D01*
X18589Y404079D01*
X18554Y403986D01*
X18522Y403892D01*
X18494Y403797D01*
X18469Y403701D01*
X18448Y403603D01*
X18431Y403505D01*
X18418Y403407D01*
X18409Y403308D01*
X18403Y403208D01*
X18401Y403109D01*
X18401Y399214D01*
X13208Y399214D01*
X13208Y405705D01*
X165608Y387858D02*
X177292Y387858D01*
X165608Y387858D02*
X165608Y391104D01*
X165610Y391217D01*
X165616Y391330D01*
X165626Y391443D01*
X165640Y391556D01*
X165657Y391668D01*
X165679Y391779D01*
X165704Y391889D01*
X165734Y391999D01*
X165767Y392107D01*
X165804Y392214D01*
X165844Y392320D01*
X165889Y392424D01*
X165937Y392527D01*
X165988Y392628D01*
X166043Y392727D01*
X166101Y392824D01*
X166163Y392919D01*
X166228Y393012D01*
X166296Y393102D01*
X166367Y393190D01*
X166442Y393276D01*
X166519Y393359D01*
X166599Y393439D01*
X166682Y393516D01*
X166768Y393591D01*
X166856Y393662D01*
X166946Y393730D01*
X167039Y393795D01*
X167134Y393857D01*
X167231Y393915D01*
X167330Y393970D01*
X167431Y394021D01*
X167534Y394069D01*
X167638Y394114D01*
X167744Y394154D01*
X167851Y394191D01*
X167959Y394224D01*
X168069Y394254D01*
X168179Y394279D01*
X168290Y394301D01*
X168402Y394318D01*
X168515Y394332D01*
X168628Y394342D01*
X168741Y394348D01*
X168854Y394350D01*
X168967Y394348D01*
X169080Y394342D01*
X169193Y394332D01*
X169306Y394318D01*
X169418Y394301D01*
X169529Y394279D01*
X169639Y394254D01*
X169749Y394224D01*
X169857Y394191D01*
X169964Y394154D01*
X170070Y394114D01*
X170174Y394069D01*
X170277Y394021D01*
X170378Y393970D01*
X170477Y393915D01*
X170574Y393857D01*
X170669Y393795D01*
X170762Y393730D01*
X170852Y393662D01*
X170940Y393591D01*
X171026Y393516D01*
X171109Y393439D01*
X171189Y393359D01*
X171266Y393276D01*
X171341Y393190D01*
X171412Y393102D01*
X171480Y393012D01*
X171545Y392919D01*
X171607Y392824D01*
X171665Y392727D01*
X171720Y392628D01*
X171771Y392527D01*
X171819Y392424D01*
X171864Y392320D01*
X171904Y392214D01*
X171941Y392107D01*
X171974Y391999D01*
X172004Y391889D01*
X172029Y391779D01*
X172051Y391668D01*
X172068Y391556D01*
X172082Y391443D01*
X172092Y391330D01*
X172098Y391217D01*
X172100Y391104D01*
X172099Y391104D02*
X172099Y387858D01*
X172099Y391753D02*
X177292Y394349D01*
X170801Y399214D02*
X170801Y403109D01*
X170803Y403208D01*
X170809Y403308D01*
X170818Y403407D01*
X170831Y403505D01*
X170848Y403603D01*
X170869Y403701D01*
X170894Y403797D01*
X170922Y403892D01*
X170954Y403986D01*
X170989Y404079D01*
X171028Y404171D01*
X171071Y404261D01*
X171116Y404349D01*
X171166Y404436D01*
X171218Y404520D01*
X171274Y404603D01*
X171332Y404683D01*
X171394Y404761D01*
X171459Y404836D01*
X171527Y404909D01*
X171597Y404979D01*
X171670Y405047D01*
X171745Y405112D01*
X171823Y405174D01*
X171903Y405232D01*
X171986Y405288D01*
X172070Y405340D01*
X172157Y405390D01*
X172245Y405435D01*
X172335Y405478D01*
X172427Y405517D01*
X172520Y405552D01*
X172614Y405584D01*
X172709Y405612D01*
X172805Y405637D01*
X172903Y405658D01*
X173001Y405675D01*
X173099Y405688D01*
X173198Y405697D01*
X173298Y405703D01*
X173397Y405705D01*
X174046Y405705D01*
X174046Y405706D02*
X174159Y405704D01*
X174272Y405698D01*
X174385Y405688D01*
X174498Y405674D01*
X174610Y405657D01*
X174721Y405635D01*
X174831Y405610D01*
X174941Y405580D01*
X175049Y405547D01*
X175156Y405510D01*
X175262Y405470D01*
X175366Y405425D01*
X175469Y405377D01*
X175570Y405326D01*
X175669Y405271D01*
X175766Y405213D01*
X175861Y405151D01*
X175954Y405086D01*
X176044Y405018D01*
X176132Y404947D01*
X176218Y404872D01*
X176301Y404795D01*
X176381Y404715D01*
X176458Y404632D01*
X176533Y404546D01*
X176604Y404458D01*
X176672Y404368D01*
X176737Y404275D01*
X176799Y404180D01*
X176857Y404083D01*
X176912Y403984D01*
X176963Y403883D01*
X177011Y403780D01*
X177056Y403676D01*
X177096Y403570D01*
X177133Y403463D01*
X177166Y403355D01*
X177196Y403245D01*
X177221Y403135D01*
X177243Y403024D01*
X177260Y402912D01*
X177274Y402799D01*
X177284Y402686D01*
X177290Y402573D01*
X177292Y402460D01*
X177290Y402347D01*
X177284Y402234D01*
X177274Y402121D01*
X177260Y402008D01*
X177243Y401896D01*
X177221Y401785D01*
X177196Y401675D01*
X177166Y401565D01*
X177133Y401457D01*
X177096Y401350D01*
X177056Y401244D01*
X177011Y401140D01*
X176963Y401037D01*
X176912Y400936D01*
X176857Y400837D01*
X176799Y400740D01*
X176737Y400645D01*
X176672Y400552D01*
X176604Y400462D01*
X176533Y400374D01*
X176458Y400288D01*
X176381Y400205D01*
X176301Y400125D01*
X176218Y400048D01*
X176132Y399973D01*
X176044Y399902D01*
X175954Y399834D01*
X175861Y399769D01*
X175766Y399707D01*
X175669Y399649D01*
X175570Y399594D01*
X175469Y399543D01*
X175366Y399495D01*
X175262Y399450D01*
X175156Y399410D01*
X175049Y399373D01*
X174941Y399340D01*
X174831Y399310D01*
X174721Y399285D01*
X174610Y399263D01*
X174498Y399246D01*
X174385Y399232D01*
X174272Y399222D01*
X174159Y399216D01*
X174046Y399214D01*
X170801Y399214D01*
X170658Y399216D01*
X170515Y399222D01*
X170372Y399232D01*
X170230Y399246D01*
X170088Y399263D01*
X169946Y399285D01*
X169805Y399310D01*
X169665Y399340D01*
X169526Y399373D01*
X169388Y399410D01*
X169251Y399451D01*
X169115Y399495D01*
X168980Y399544D01*
X168847Y399596D01*
X168715Y399651D01*
X168585Y399711D01*
X168456Y399774D01*
X168329Y399840D01*
X168205Y399910D01*
X168082Y399983D01*
X167961Y400060D01*
X167842Y400139D01*
X167726Y400223D01*
X167611Y400309D01*
X167500Y400398D01*
X167391Y400491D01*
X167284Y400586D01*
X167180Y400685D01*
X167079Y400786D01*
X166980Y400890D01*
X166885Y400996D01*
X166792Y401106D01*
X166703Y401217D01*
X166617Y401331D01*
X166534Y401448D01*
X166454Y401567D01*
X166377Y401688D01*
X166304Y401810D01*
X166234Y401935D01*
X166168Y402062D01*
X166105Y402191D01*
X166045Y402321D01*
X165990Y402453D01*
X165938Y402586D01*
X165889Y402721D01*
X165845Y402857D01*
X165804Y402994D01*
X165767Y403132D01*
X165734Y403271D01*
X165704Y403411D01*
X165679Y403552D01*
X165657Y403694D01*
X165640Y403836D01*
X165626Y403978D01*
X165616Y404121D01*
X165610Y404264D01*
X165608Y404407D01*
X305308Y387858D02*
X316992Y387858D01*
X305308Y387858D02*
X305308Y391104D01*
X305310Y391217D01*
X305316Y391330D01*
X305326Y391443D01*
X305340Y391556D01*
X305357Y391668D01*
X305379Y391779D01*
X305404Y391889D01*
X305434Y391999D01*
X305467Y392107D01*
X305504Y392214D01*
X305544Y392320D01*
X305589Y392424D01*
X305637Y392527D01*
X305688Y392628D01*
X305743Y392727D01*
X305801Y392824D01*
X305863Y392919D01*
X305928Y393012D01*
X305996Y393102D01*
X306067Y393190D01*
X306142Y393276D01*
X306219Y393359D01*
X306299Y393439D01*
X306382Y393516D01*
X306468Y393591D01*
X306556Y393662D01*
X306646Y393730D01*
X306739Y393795D01*
X306834Y393857D01*
X306931Y393915D01*
X307030Y393970D01*
X307131Y394021D01*
X307234Y394069D01*
X307338Y394114D01*
X307444Y394154D01*
X307551Y394191D01*
X307659Y394224D01*
X307769Y394254D01*
X307879Y394279D01*
X307990Y394301D01*
X308102Y394318D01*
X308215Y394332D01*
X308328Y394342D01*
X308441Y394348D01*
X308554Y394350D01*
X308667Y394348D01*
X308780Y394342D01*
X308893Y394332D01*
X309006Y394318D01*
X309118Y394301D01*
X309229Y394279D01*
X309339Y394254D01*
X309449Y394224D01*
X309557Y394191D01*
X309664Y394154D01*
X309770Y394114D01*
X309874Y394069D01*
X309977Y394021D01*
X310078Y393970D01*
X310177Y393915D01*
X310274Y393857D01*
X310369Y393795D01*
X310462Y393730D01*
X310552Y393662D01*
X310640Y393591D01*
X310726Y393516D01*
X310809Y393439D01*
X310889Y393359D01*
X310966Y393276D01*
X311041Y393190D01*
X311112Y393102D01*
X311180Y393012D01*
X311245Y392919D01*
X311307Y392824D01*
X311365Y392727D01*
X311420Y392628D01*
X311471Y392527D01*
X311519Y392424D01*
X311564Y392320D01*
X311604Y392214D01*
X311641Y392107D01*
X311674Y391999D01*
X311704Y391889D01*
X311729Y391779D01*
X311751Y391668D01*
X311768Y391556D01*
X311782Y391443D01*
X311792Y391330D01*
X311798Y391217D01*
X311800Y391104D01*
X311799Y391104D02*
X311799Y387858D01*
X311799Y391753D02*
X316992Y394349D01*
X306606Y399214D02*
X305308Y399214D01*
X305308Y405705D01*
X316992Y402460D01*
X139192Y387858D02*
X127508Y387858D01*
X127508Y391104D01*
X127510Y391217D01*
X127516Y391330D01*
X127526Y391443D01*
X127540Y391556D01*
X127557Y391668D01*
X127579Y391779D01*
X127604Y391889D01*
X127634Y391999D01*
X127667Y392107D01*
X127704Y392214D01*
X127744Y392320D01*
X127789Y392424D01*
X127837Y392527D01*
X127888Y392628D01*
X127943Y392727D01*
X128001Y392824D01*
X128063Y392919D01*
X128128Y393012D01*
X128196Y393102D01*
X128267Y393190D01*
X128342Y393276D01*
X128419Y393359D01*
X128499Y393439D01*
X128582Y393516D01*
X128668Y393591D01*
X128756Y393662D01*
X128846Y393730D01*
X128939Y393795D01*
X129034Y393857D01*
X129131Y393915D01*
X129230Y393970D01*
X129331Y394021D01*
X129434Y394069D01*
X129538Y394114D01*
X129644Y394154D01*
X129751Y394191D01*
X129859Y394224D01*
X129969Y394254D01*
X130079Y394279D01*
X130190Y394301D01*
X130302Y394318D01*
X130415Y394332D01*
X130528Y394342D01*
X130641Y394348D01*
X130754Y394350D01*
X130867Y394348D01*
X130980Y394342D01*
X131093Y394332D01*
X131206Y394318D01*
X131318Y394301D01*
X131429Y394279D01*
X131539Y394254D01*
X131649Y394224D01*
X131757Y394191D01*
X131864Y394154D01*
X131970Y394114D01*
X132074Y394069D01*
X132177Y394021D01*
X132278Y393970D01*
X132377Y393915D01*
X132474Y393857D01*
X132569Y393795D01*
X132662Y393730D01*
X132752Y393662D01*
X132840Y393591D01*
X132926Y393516D01*
X133009Y393439D01*
X133089Y393359D01*
X133166Y393276D01*
X133241Y393190D01*
X133312Y393102D01*
X133380Y393012D01*
X133445Y392919D01*
X133507Y392824D01*
X133565Y392727D01*
X133620Y392628D01*
X133671Y392527D01*
X133719Y392424D01*
X133764Y392320D01*
X133804Y392214D01*
X133841Y392107D01*
X133874Y391999D01*
X133904Y391889D01*
X133929Y391779D01*
X133951Y391668D01*
X133968Y391556D01*
X133982Y391443D01*
X133992Y391330D01*
X133998Y391217D01*
X134000Y391104D01*
X133999Y391104D02*
X133999Y387858D01*
X133999Y391753D02*
X139192Y394349D01*
X135946Y399214D02*
X135833Y399216D01*
X135720Y399222D01*
X135607Y399232D01*
X135494Y399246D01*
X135382Y399263D01*
X135271Y399285D01*
X135161Y399310D01*
X135051Y399340D01*
X134943Y399373D01*
X134836Y399410D01*
X134730Y399450D01*
X134626Y399495D01*
X134523Y399543D01*
X134422Y399594D01*
X134323Y399649D01*
X134226Y399707D01*
X134131Y399769D01*
X134038Y399834D01*
X133948Y399902D01*
X133860Y399973D01*
X133774Y400048D01*
X133691Y400125D01*
X133611Y400205D01*
X133534Y400288D01*
X133459Y400374D01*
X133388Y400462D01*
X133320Y400552D01*
X133255Y400645D01*
X133193Y400740D01*
X133135Y400837D01*
X133080Y400936D01*
X133029Y401037D01*
X132981Y401140D01*
X132936Y401244D01*
X132896Y401350D01*
X132859Y401457D01*
X132826Y401565D01*
X132796Y401675D01*
X132771Y401785D01*
X132749Y401896D01*
X132732Y402008D01*
X132718Y402121D01*
X132708Y402234D01*
X132702Y402347D01*
X132700Y402460D01*
X132702Y402573D01*
X132708Y402686D01*
X132718Y402799D01*
X132732Y402912D01*
X132749Y403024D01*
X132771Y403135D01*
X132796Y403245D01*
X132826Y403355D01*
X132859Y403463D01*
X132896Y403570D01*
X132936Y403676D01*
X132981Y403780D01*
X133029Y403883D01*
X133080Y403984D01*
X133135Y404083D01*
X133193Y404180D01*
X133255Y404275D01*
X133320Y404368D01*
X133388Y404458D01*
X133459Y404546D01*
X133534Y404632D01*
X133611Y404715D01*
X133691Y404795D01*
X133774Y404872D01*
X133860Y404947D01*
X133948Y405018D01*
X134038Y405086D01*
X134131Y405151D01*
X134226Y405213D01*
X134323Y405271D01*
X134422Y405326D01*
X134523Y405377D01*
X134626Y405425D01*
X134730Y405470D01*
X134836Y405510D01*
X134943Y405547D01*
X135051Y405580D01*
X135161Y405610D01*
X135271Y405635D01*
X135382Y405657D01*
X135494Y405674D01*
X135607Y405688D01*
X135720Y405698D01*
X135833Y405704D01*
X135946Y405706D01*
X136059Y405704D01*
X136172Y405698D01*
X136285Y405688D01*
X136398Y405674D01*
X136510Y405657D01*
X136621Y405635D01*
X136731Y405610D01*
X136841Y405580D01*
X136949Y405547D01*
X137056Y405510D01*
X137162Y405470D01*
X137266Y405425D01*
X137369Y405377D01*
X137470Y405326D01*
X137569Y405271D01*
X137666Y405213D01*
X137761Y405151D01*
X137854Y405086D01*
X137944Y405018D01*
X138032Y404947D01*
X138118Y404872D01*
X138201Y404795D01*
X138281Y404715D01*
X138358Y404632D01*
X138433Y404546D01*
X138504Y404458D01*
X138572Y404368D01*
X138637Y404275D01*
X138699Y404180D01*
X138757Y404083D01*
X138812Y403984D01*
X138863Y403883D01*
X138911Y403780D01*
X138956Y403676D01*
X138996Y403570D01*
X139033Y403463D01*
X139066Y403355D01*
X139096Y403245D01*
X139121Y403135D01*
X139143Y403024D01*
X139160Y402912D01*
X139174Y402799D01*
X139184Y402686D01*
X139190Y402573D01*
X139192Y402460D01*
X139190Y402347D01*
X139184Y402234D01*
X139174Y402121D01*
X139160Y402008D01*
X139143Y401896D01*
X139121Y401785D01*
X139096Y401675D01*
X139066Y401565D01*
X139033Y401457D01*
X138996Y401350D01*
X138956Y401244D01*
X138911Y401140D01*
X138863Y401037D01*
X138812Y400936D01*
X138757Y400837D01*
X138699Y400740D01*
X138637Y400645D01*
X138572Y400552D01*
X138504Y400462D01*
X138433Y400374D01*
X138358Y400288D01*
X138281Y400205D01*
X138201Y400125D01*
X138118Y400048D01*
X138032Y399973D01*
X137944Y399902D01*
X137854Y399834D01*
X137761Y399769D01*
X137666Y399707D01*
X137569Y399649D01*
X137470Y399594D01*
X137369Y399543D01*
X137266Y399495D01*
X137162Y399450D01*
X137056Y399410D01*
X136949Y399373D01*
X136841Y399340D01*
X136731Y399310D01*
X136621Y399285D01*
X136510Y399263D01*
X136398Y399246D01*
X136285Y399232D01*
X136172Y399222D01*
X136059Y399216D01*
X135946Y399214D01*
X130104Y399864D02*
X130003Y399866D01*
X129903Y399872D01*
X129803Y399882D01*
X129703Y399895D01*
X129604Y399913D01*
X129505Y399934D01*
X129408Y399959D01*
X129311Y399988D01*
X129216Y400021D01*
X129122Y400057D01*
X129030Y400097D01*
X128939Y400140D01*
X128850Y400187D01*
X128763Y400237D01*
X128677Y400291D01*
X128594Y400348D01*
X128514Y400408D01*
X128435Y400471D01*
X128359Y400538D01*
X128286Y400607D01*
X128216Y400679D01*
X128148Y400753D01*
X128083Y400830D01*
X128022Y400910D01*
X127963Y400992D01*
X127908Y401076D01*
X127856Y401162D01*
X127807Y401250D01*
X127762Y401340D01*
X127720Y401432D01*
X127682Y401525D01*
X127648Y401620D01*
X127617Y401715D01*
X127590Y401812D01*
X127567Y401910D01*
X127547Y402009D01*
X127532Y402109D01*
X127520Y402209D01*
X127512Y402309D01*
X127508Y402410D01*
X127508Y402510D01*
X127512Y402611D01*
X127520Y402711D01*
X127532Y402811D01*
X127547Y402911D01*
X127567Y403010D01*
X127590Y403108D01*
X127617Y403205D01*
X127648Y403300D01*
X127682Y403395D01*
X127720Y403488D01*
X127762Y403580D01*
X127807Y403670D01*
X127856Y403758D01*
X127908Y403844D01*
X127963Y403928D01*
X128022Y404010D01*
X128083Y404090D01*
X128148Y404167D01*
X128216Y404241D01*
X128286Y404313D01*
X128359Y404382D01*
X128435Y404449D01*
X128514Y404512D01*
X128594Y404572D01*
X128677Y404629D01*
X128763Y404683D01*
X128850Y404733D01*
X128939Y404780D01*
X129030Y404823D01*
X129122Y404863D01*
X129216Y404899D01*
X129311Y404932D01*
X129408Y404961D01*
X129505Y404986D01*
X129604Y405007D01*
X129703Y405025D01*
X129803Y405038D01*
X129903Y405048D01*
X130003Y405054D01*
X130104Y405056D01*
X130205Y405054D01*
X130305Y405048D01*
X130405Y405038D01*
X130505Y405025D01*
X130604Y405007D01*
X130703Y404986D01*
X130800Y404961D01*
X130897Y404932D01*
X130992Y404899D01*
X131086Y404863D01*
X131178Y404823D01*
X131269Y404780D01*
X131358Y404733D01*
X131445Y404683D01*
X131531Y404629D01*
X131614Y404572D01*
X131694Y404512D01*
X131773Y404449D01*
X131849Y404382D01*
X131922Y404313D01*
X131992Y404241D01*
X132060Y404167D01*
X132125Y404090D01*
X132186Y404010D01*
X132245Y403928D01*
X132300Y403844D01*
X132352Y403758D01*
X132401Y403670D01*
X132446Y403580D01*
X132488Y403488D01*
X132526Y403395D01*
X132560Y403300D01*
X132591Y403205D01*
X132618Y403108D01*
X132641Y403010D01*
X132661Y402911D01*
X132676Y402811D01*
X132688Y402711D01*
X132696Y402611D01*
X132700Y402510D01*
X132700Y402410D01*
X132696Y402309D01*
X132688Y402209D01*
X132676Y402109D01*
X132661Y402009D01*
X132641Y401910D01*
X132618Y401812D01*
X132591Y401715D01*
X132560Y401620D01*
X132526Y401525D01*
X132488Y401432D01*
X132446Y401340D01*
X132401Y401250D01*
X132352Y401162D01*
X132300Y401076D01*
X132245Y400992D01*
X132186Y400910D01*
X132125Y400830D01*
X132060Y400753D01*
X131992Y400679D01*
X131922Y400607D01*
X131849Y400538D01*
X131773Y400471D01*
X131694Y400408D01*
X131614Y400348D01*
X131531Y400291D01*
X131445Y400237D01*
X131358Y400187D01*
X131269Y400140D01*
X131178Y400097D01*
X131086Y400057D01*
X130992Y400021D01*
X130897Y399988D01*
X130800Y399959D01*
X130703Y399934D01*
X130604Y399913D01*
X130505Y399895D01*
X130405Y399882D01*
X130305Y399872D01*
X130205Y399866D01*
X130104Y399864D01*
X343408Y387858D02*
X355092Y387858D01*
X343408Y387858D02*
X343408Y391104D01*
X343410Y391217D01*
X343416Y391330D01*
X343426Y391443D01*
X343440Y391556D01*
X343457Y391668D01*
X343479Y391779D01*
X343504Y391889D01*
X343534Y391999D01*
X343567Y392107D01*
X343604Y392214D01*
X343644Y392320D01*
X343689Y392424D01*
X343737Y392527D01*
X343788Y392628D01*
X343843Y392727D01*
X343901Y392824D01*
X343963Y392919D01*
X344028Y393012D01*
X344096Y393102D01*
X344167Y393190D01*
X344242Y393276D01*
X344319Y393359D01*
X344399Y393439D01*
X344482Y393516D01*
X344568Y393591D01*
X344656Y393662D01*
X344746Y393730D01*
X344839Y393795D01*
X344934Y393857D01*
X345031Y393915D01*
X345130Y393970D01*
X345231Y394021D01*
X345334Y394069D01*
X345438Y394114D01*
X345544Y394154D01*
X345651Y394191D01*
X345759Y394224D01*
X345869Y394254D01*
X345979Y394279D01*
X346090Y394301D01*
X346202Y394318D01*
X346315Y394332D01*
X346428Y394342D01*
X346541Y394348D01*
X346654Y394350D01*
X346767Y394348D01*
X346880Y394342D01*
X346993Y394332D01*
X347106Y394318D01*
X347218Y394301D01*
X347329Y394279D01*
X347439Y394254D01*
X347549Y394224D01*
X347657Y394191D01*
X347764Y394154D01*
X347870Y394114D01*
X347974Y394069D01*
X348077Y394021D01*
X348178Y393970D01*
X348277Y393915D01*
X348374Y393857D01*
X348469Y393795D01*
X348562Y393730D01*
X348652Y393662D01*
X348740Y393591D01*
X348826Y393516D01*
X348909Y393439D01*
X348989Y393359D01*
X349066Y393276D01*
X349141Y393190D01*
X349212Y393102D01*
X349280Y393012D01*
X349345Y392919D01*
X349407Y392824D01*
X349465Y392727D01*
X349520Y392628D01*
X349571Y392527D01*
X349619Y392424D01*
X349664Y392320D01*
X349704Y392214D01*
X349741Y392107D01*
X349774Y391999D01*
X349804Y391889D01*
X349829Y391779D01*
X349851Y391668D01*
X349868Y391556D01*
X349882Y391443D01*
X349892Y391330D01*
X349898Y391217D01*
X349900Y391104D01*
X349899Y391104D02*
X349899Y387858D01*
X349899Y391753D02*
X355092Y394349D01*
X349899Y401811D02*
X349899Y405705D01*
X349899Y401811D02*
X349897Y401712D01*
X349891Y401612D01*
X349882Y401513D01*
X349869Y401415D01*
X349852Y401317D01*
X349831Y401219D01*
X349806Y401123D01*
X349778Y401028D01*
X349746Y400934D01*
X349711Y400841D01*
X349672Y400749D01*
X349629Y400659D01*
X349584Y400571D01*
X349534Y400484D01*
X349482Y400400D01*
X349426Y400317D01*
X349368Y400237D01*
X349306Y400159D01*
X349241Y400084D01*
X349173Y400011D01*
X349103Y399941D01*
X349030Y399873D01*
X348955Y399808D01*
X348877Y399746D01*
X348797Y399688D01*
X348714Y399632D01*
X348630Y399580D01*
X348543Y399530D01*
X348455Y399485D01*
X348365Y399442D01*
X348273Y399403D01*
X348180Y399368D01*
X348086Y399336D01*
X347991Y399308D01*
X347895Y399283D01*
X347797Y399262D01*
X347699Y399245D01*
X347601Y399232D01*
X347502Y399223D01*
X347402Y399217D01*
X347303Y399215D01*
X347303Y399214D02*
X346654Y399214D01*
X346541Y399216D01*
X346428Y399222D01*
X346315Y399232D01*
X346202Y399246D01*
X346090Y399263D01*
X345979Y399285D01*
X345869Y399310D01*
X345759Y399340D01*
X345651Y399373D01*
X345544Y399410D01*
X345438Y399450D01*
X345334Y399495D01*
X345231Y399543D01*
X345130Y399594D01*
X345031Y399649D01*
X344934Y399707D01*
X344839Y399769D01*
X344746Y399834D01*
X344656Y399902D01*
X344568Y399973D01*
X344482Y400048D01*
X344399Y400125D01*
X344319Y400205D01*
X344242Y400288D01*
X344167Y400374D01*
X344096Y400462D01*
X344028Y400552D01*
X343963Y400645D01*
X343901Y400740D01*
X343843Y400837D01*
X343788Y400936D01*
X343737Y401037D01*
X343689Y401140D01*
X343644Y401244D01*
X343604Y401350D01*
X343567Y401457D01*
X343534Y401565D01*
X343504Y401675D01*
X343479Y401785D01*
X343457Y401896D01*
X343440Y402008D01*
X343426Y402121D01*
X343416Y402234D01*
X343410Y402347D01*
X343408Y402460D01*
X343410Y402573D01*
X343416Y402686D01*
X343426Y402799D01*
X343440Y402912D01*
X343457Y403024D01*
X343479Y403135D01*
X343504Y403245D01*
X343534Y403355D01*
X343567Y403463D01*
X343604Y403570D01*
X343644Y403676D01*
X343689Y403780D01*
X343737Y403883D01*
X343788Y403984D01*
X343843Y404083D01*
X343901Y404180D01*
X343963Y404275D01*
X344028Y404368D01*
X344096Y404458D01*
X344167Y404546D01*
X344242Y404632D01*
X344319Y404715D01*
X344399Y404795D01*
X344482Y404872D01*
X344568Y404947D01*
X344656Y405018D01*
X344746Y405086D01*
X344839Y405151D01*
X344934Y405213D01*
X345031Y405271D01*
X345130Y405326D01*
X345231Y405377D01*
X345334Y405425D01*
X345438Y405470D01*
X345544Y405510D01*
X345651Y405547D01*
X345759Y405580D01*
X345869Y405610D01*
X345979Y405635D01*
X346090Y405657D01*
X346202Y405674D01*
X346315Y405688D01*
X346428Y405698D01*
X346541Y405704D01*
X346654Y405706D01*
X346654Y405705D02*
X349899Y405705D01*
X349899Y405706D02*
X350042Y405704D01*
X350185Y405698D01*
X350328Y405688D01*
X350470Y405674D01*
X350612Y405657D01*
X350754Y405635D01*
X350895Y405610D01*
X351035Y405580D01*
X351174Y405547D01*
X351312Y405510D01*
X351449Y405469D01*
X351585Y405425D01*
X351720Y405376D01*
X351853Y405324D01*
X351985Y405269D01*
X352115Y405209D01*
X352244Y405146D01*
X352371Y405080D01*
X352496Y405010D01*
X352618Y404937D01*
X352739Y404860D01*
X352858Y404780D01*
X352974Y404697D01*
X353089Y404611D01*
X353200Y404522D01*
X353310Y404429D01*
X353416Y404334D01*
X353520Y404235D01*
X353621Y404134D01*
X353720Y404030D01*
X353815Y403924D01*
X353908Y403814D01*
X353997Y403703D01*
X354083Y403588D01*
X354166Y403472D01*
X354246Y403353D01*
X354323Y403232D01*
X354396Y403110D01*
X354466Y402985D01*
X354532Y402858D01*
X354595Y402729D01*
X354655Y402599D01*
X354710Y402467D01*
X354762Y402334D01*
X354811Y402199D01*
X354855Y402063D01*
X354896Y401926D01*
X354933Y401788D01*
X354966Y401649D01*
X354996Y401509D01*
X355021Y401368D01*
X355043Y401226D01*
X355060Y401084D01*
X355074Y400942D01*
X355084Y400799D01*
X355090Y400656D01*
X355092Y400513D01*
M02*
