G04 EAGLE Gerber X2 export*
%TF.Part,Single*%
%TF.FileFunction,Legend,Bot,1*%
%TF.FilePolarity,Positive*%
%TF.GenerationSoftware,Autodesk,EAGLE,9.1.3*%
%TF.CreationDate,2020-03-28T12:55:41Z*%
G75*
%MOMM*%
%FSLAX34Y34*%
%LPD*%
%AMOC8*
5,1,8,0,0,1.08239X$1,22.5*%
G01*
%ADD10C,0.127000*%


D10*
X418465Y483235D02*
X418465Y498475D01*
X414232Y498475D01*
X414104Y498473D01*
X413976Y498467D01*
X413849Y498458D01*
X413722Y498444D01*
X413595Y498427D01*
X413469Y498406D01*
X413344Y498381D01*
X413219Y498352D01*
X413095Y498320D01*
X412973Y498283D01*
X412851Y498243D01*
X412731Y498200D01*
X412612Y498153D01*
X412495Y498102D01*
X412379Y498048D01*
X412265Y497990D01*
X412153Y497929D01*
X412042Y497865D01*
X411934Y497797D01*
X411827Y497726D01*
X411723Y497651D01*
X411621Y497574D01*
X411522Y497494D01*
X411425Y497410D01*
X411331Y497324D01*
X411239Y497235D01*
X411150Y497143D01*
X411064Y497049D01*
X410980Y496952D01*
X410900Y496853D01*
X410823Y496751D01*
X410748Y496647D01*
X410677Y496540D01*
X410609Y496432D01*
X410545Y496321D01*
X410484Y496209D01*
X410426Y496095D01*
X410372Y495979D01*
X410321Y495862D01*
X410274Y495743D01*
X410231Y495623D01*
X410191Y495501D01*
X410154Y495379D01*
X410122Y495255D01*
X410093Y495130D01*
X410068Y495005D01*
X410047Y494879D01*
X410030Y494752D01*
X410016Y494625D01*
X410007Y494498D01*
X410001Y494370D01*
X409999Y494242D01*
X409998Y494242D02*
X409998Y487468D01*
X409999Y487468D02*
X410001Y487340D01*
X410007Y487212D01*
X410016Y487085D01*
X410030Y486958D01*
X410047Y486831D01*
X410068Y486705D01*
X410093Y486580D01*
X410122Y486455D01*
X410154Y486331D01*
X410191Y486209D01*
X410231Y486087D01*
X410274Y485967D01*
X410321Y485848D01*
X410372Y485731D01*
X410426Y485615D01*
X410484Y485501D01*
X410545Y485389D01*
X410609Y485278D01*
X410677Y485170D01*
X410748Y485063D01*
X410823Y484959D01*
X410900Y484857D01*
X410980Y484758D01*
X411064Y484661D01*
X411150Y484567D01*
X411239Y484475D01*
X411331Y484386D01*
X411425Y484300D01*
X411522Y484216D01*
X411621Y484136D01*
X411723Y484059D01*
X411827Y483984D01*
X411934Y483913D01*
X412042Y483845D01*
X412153Y483781D01*
X412265Y483720D01*
X412379Y483662D01*
X412495Y483608D01*
X412612Y483557D01*
X412731Y483510D01*
X412851Y483467D01*
X412973Y483427D01*
X413095Y483390D01*
X413219Y483358D01*
X413344Y483329D01*
X413469Y483304D01*
X413595Y483283D01*
X413722Y483266D01*
X413849Y483252D01*
X413976Y483243D01*
X414104Y483237D01*
X414232Y483235D01*
X418465Y483235D01*
X400895Y483235D02*
X396662Y483235D01*
X400895Y483235D02*
X400995Y483237D01*
X401094Y483243D01*
X401194Y483253D01*
X401292Y483266D01*
X401391Y483284D01*
X401488Y483305D01*
X401584Y483330D01*
X401680Y483359D01*
X401774Y483392D01*
X401867Y483428D01*
X401958Y483468D01*
X402048Y483512D01*
X402136Y483559D01*
X402222Y483609D01*
X402306Y483663D01*
X402388Y483720D01*
X402467Y483780D01*
X402545Y483844D01*
X402619Y483910D01*
X402691Y483979D01*
X402760Y484051D01*
X402826Y484125D01*
X402890Y484203D01*
X402950Y484282D01*
X403007Y484364D01*
X403061Y484448D01*
X403111Y484534D01*
X403158Y484622D01*
X403202Y484712D01*
X403242Y484803D01*
X403278Y484896D01*
X403311Y484990D01*
X403340Y485086D01*
X403365Y485182D01*
X403386Y485279D01*
X403404Y485378D01*
X403417Y485476D01*
X403427Y485576D01*
X403433Y485675D01*
X403435Y485775D01*
X403435Y490008D01*
X403436Y490008D02*
X403434Y490124D01*
X403428Y490239D01*
X403418Y490354D01*
X403404Y490469D01*
X403387Y490583D01*
X403365Y490697D01*
X403340Y490810D01*
X403310Y490922D01*
X403277Y491033D01*
X403240Y491142D01*
X403200Y491251D01*
X403156Y491357D01*
X403108Y491463D01*
X403056Y491566D01*
X403001Y491668D01*
X402943Y491768D01*
X402881Y491866D01*
X402816Y491961D01*
X402748Y492055D01*
X402676Y492145D01*
X402602Y492234D01*
X402524Y492320D01*
X402444Y492403D01*
X402361Y492483D01*
X402275Y492561D01*
X402186Y492635D01*
X402096Y492707D01*
X402002Y492775D01*
X401907Y492840D01*
X401809Y492902D01*
X401709Y492960D01*
X401607Y493015D01*
X401504Y493067D01*
X401398Y493115D01*
X401292Y493159D01*
X401183Y493199D01*
X401074Y493236D01*
X400963Y493269D01*
X400851Y493299D01*
X400738Y493324D01*
X400624Y493346D01*
X400510Y493363D01*
X400395Y493377D01*
X400280Y493387D01*
X400165Y493393D01*
X400049Y493395D01*
X399933Y493393D01*
X399818Y493387D01*
X399703Y493377D01*
X399588Y493363D01*
X399474Y493346D01*
X399360Y493324D01*
X399247Y493299D01*
X399135Y493269D01*
X399024Y493236D01*
X398915Y493199D01*
X398806Y493159D01*
X398700Y493115D01*
X398594Y493067D01*
X398491Y493015D01*
X398389Y492960D01*
X398289Y492902D01*
X398191Y492840D01*
X398096Y492775D01*
X398002Y492707D01*
X397912Y492635D01*
X397823Y492561D01*
X397737Y492483D01*
X397654Y492403D01*
X397574Y492320D01*
X397496Y492234D01*
X397422Y492145D01*
X397350Y492055D01*
X397282Y491961D01*
X397217Y491866D01*
X397155Y491768D01*
X397097Y491668D01*
X397042Y491566D01*
X396990Y491463D01*
X396942Y491357D01*
X396898Y491251D01*
X396858Y491142D01*
X396821Y491033D01*
X396788Y490922D01*
X396758Y490810D01*
X396733Y490697D01*
X396711Y490583D01*
X396694Y490469D01*
X396680Y490354D01*
X396670Y490239D01*
X396664Y490124D01*
X396662Y490008D01*
X396662Y488315D01*
X403435Y488315D01*
X389450Y489162D02*
X385216Y487468D01*
X389449Y489162D02*
X389534Y489198D01*
X389618Y489238D01*
X389699Y489281D01*
X389779Y489327D01*
X389857Y489377D01*
X389932Y489430D01*
X390005Y489486D01*
X390076Y489545D01*
X390145Y489607D01*
X390210Y489672D01*
X390273Y489740D01*
X390333Y489810D01*
X390390Y489883D01*
X390444Y489958D01*
X390494Y490035D01*
X390542Y490114D01*
X390586Y490195D01*
X390626Y490278D01*
X390663Y490363D01*
X390696Y490449D01*
X390726Y490536D01*
X390752Y490625D01*
X390775Y490714D01*
X390793Y490805D01*
X390808Y490896D01*
X390819Y490988D01*
X390826Y491080D01*
X390829Y491172D01*
X390828Y491264D01*
X390823Y491356D01*
X390815Y491448D01*
X390803Y491540D01*
X390786Y491630D01*
X390766Y491721D01*
X390743Y491810D01*
X390715Y491898D01*
X390684Y491985D01*
X390649Y492070D01*
X390611Y492154D01*
X390569Y492236D01*
X390524Y492317D01*
X390475Y492395D01*
X390423Y492472D01*
X390368Y492546D01*
X390310Y492617D01*
X390249Y492687D01*
X390185Y492753D01*
X390118Y492817D01*
X390049Y492878D01*
X389977Y492936D01*
X389903Y492991D01*
X389827Y493043D01*
X389748Y493091D01*
X389668Y493136D01*
X389585Y493178D01*
X389501Y493216D01*
X389416Y493251D01*
X389329Y493282D01*
X389241Y493309D01*
X389152Y493333D01*
X389061Y493353D01*
X388971Y493369D01*
X388879Y493381D01*
X388787Y493390D01*
X388695Y493394D01*
X388603Y493395D01*
X388604Y493395D02*
X388372Y493389D01*
X388142Y493377D01*
X387911Y493360D01*
X387681Y493337D01*
X387452Y493309D01*
X387223Y493275D01*
X386995Y493236D01*
X386768Y493191D01*
X386542Y493141D01*
X386318Y493086D01*
X386095Y493025D01*
X385874Y492958D01*
X385654Y492887D01*
X385436Y492810D01*
X385220Y492728D01*
X385006Y492641D01*
X384794Y492548D01*
X385217Y487468D02*
X385132Y487432D01*
X385048Y487392D01*
X384967Y487349D01*
X384887Y487303D01*
X384809Y487253D01*
X384734Y487200D01*
X384661Y487144D01*
X384590Y487085D01*
X384521Y487023D01*
X384456Y486958D01*
X384393Y486890D01*
X384333Y486820D01*
X384276Y486747D01*
X384222Y486672D01*
X384172Y486595D01*
X384124Y486516D01*
X384080Y486435D01*
X384040Y486352D01*
X384003Y486267D01*
X383970Y486181D01*
X383940Y486094D01*
X383914Y486005D01*
X383891Y485916D01*
X383873Y485825D01*
X383858Y485734D01*
X383847Y485642D01*
X383840Y485550D01*
X383837Y485458D01*
X383838Y485366D01*
X383843Y485274D01*
X383851Y485182D01*
X383863Y485090D01*
X383880Y485000D01*
X383900Y484909D01*
X383923Y484820D01*
X383951Y484732D01*
X383982Y484645D01*
X384017Y484560D01*
X384055Y484476D01*
X384097Y484394D01*
X384142Y484313D01*
X384191Y484235D01*
X384243Y484158D01*
X384298Y484084D01*
X384356Y484013D01*
X384417Y483943D01*
X384481Y483877D01*
X384548Y483813D01*
X384617Y483752D01*
X384689Y483694D01*
X384763Y483639D01*
X384839Y483587D01*
X384918Y483539D01*
X384998Y483494D01*
X385081Y483452D01*
X385165Y483414D01*
X385250Y483379D01*
X385337Y483348D01*
X385425Y483321D01*
X385514Y483297D01*
X385605Y483277D01*
X385695Y483261D01*
X385787Y483249D01*
X385879Y483240D01*
X385971Y483236D01*
X386063Y483235D01*
X386402Y483244D01*
X386742Y483261D01*
X387080Y483286D01*
X387418Y483319D01*
X387755Y483360D01*
X388092Y483409D01*
X388426Y483466D01*
X388760Y483530D01*
X389092Y483603D01*
X389421Y483683D01*
X389749Y483771D01*
X390075Y483867D01*
X390399Y483971D01*
X390720Y484082D01*
X378041Y483235D02*
X378041Y493395D01*
X378464Y497628D02*
X378464Y498475D01*
X377618Y498475D01*
X377618Y497628D01*
X378464Y497628D01*
X369664Y483235D02*
X365431Y483235D01*
X369664Y483235D02*
X369764Y483237D01*
X369863Y483243D01*
X369963Y483253D01*
X370061Y483266D01*
X370160Y483284D01*
X370257Y483305D01*
X370353Y483330D01*
X370449Y483359D01*
X370543Y483392D01*
X370636Y483428D01*
X370727Y483468D01*
X370817Y483512D01*
X370905Y483559D01*
X370991Y483609D01*
X371075Y483663D01*
X371157Y483720D01*
X371236Y483780D01*
X371314Y483844D01*
X371388Y483910D01*
X371460Y483979D01*
X371529Y484051D01*
X371595Y484125D01*
X371659Y484203D01*
X371719Y484282D01*
X371776Y484364D01*
X371830Y484448D01*
X371880Y484534D01*
X371927Y484622D01*
X371971Y484712D01*
X372011Y484803D01*
X372047Y484896D01*
X372080Y484990D01*
X372109Y485086D01*
X372134Y485182D01*
X372155Y485279D01*
X372173Y485378D01*
X372186Y485476D01*
X372196Y485576D01*
X372202Y485675D01*
X372204Y485775D01*
X372204Y490855D01*
X372202Y490955D01*
X372196Y491054D01*
X372186Y491154D01*
X372173Y491252D01*
X372155Y491351D01*
X372134Y491448D01*
X372109Y491544D01*
X372080Y491640D01*
X372047Y491734D01*
X372011Y491827D01*
X371971Y491918D01*
X371927Y492008D01*
X371880Y492096D01*
X371830Y492182D01*
X371776Y492266D01*
X371719Y492348D01*
X371659Y492427D01*
X371595Y492505D01*
X371529Y492579D01*
X371460Y492651D01*
X371388Y492720D01*
X371314Y492786D01*
X371236Y492850D01*
X371157Y492910D01*
X371075Y492967D01*
X370991Y493021D01*
X370905Y493071D01*
X370817Y493118D01*
X370727Y493162D01*
X370636Y493202D01*
X370543Y493238D01*
X370449Y493271D01*
X370353Y493300D01*
X370257Y493325D01*
X370160Y493346D01*
X370061Y493364D01*
X369963Y493377D01*
X369863Y493387D01*
X369764Y493393D01*
X369664Y493395D01*
X365431Y493395D01*
X365431Y480695D01*
X365433Y480595D01*
X365439Y480496D01*
X365449Y480396D01*
X365462Y480298D01*
X365480Y480199D01*
X365501Y480102D01*
X365526Y480006D01*
X365555Y479910D01*
X365588Y479816D01*
X365624Y479723D01*
X365664Y479632D01*
X365708Y479542D01*
X365755Y479454D01*
X365805Y479368D01*
X365859Y479284D01*
X365916Y479202D01*
X365976Y479123D01*
X366040Y479045D01*
X366106Y478971D01*
X366175Y478899D01*
X366247Y478830D01*
X366321Y478764D01*
X366399Y478700D01*
X366478Y478640D01*
X366560Y478583D01*
X366644Y478529D01*
X366730Y478479D01*
X366818Y478432D01*
X366908Y478388D01*
X366999Y478348D01*
X367092Y478312D01*
X367186Y478279D01*
X367282Y478250D01*
X367378Y478225D01*
X367475Y478204D01*
X367574Y478186D01*
X367672Y478173D01*
X367772Y478163D01*
X367871Y478157D01*
X367971Y478155D01*
X371358Y478155D01*
X358441Y483235D02*
X358441Y493395D01*
X354208Y493395D01*
X354108Y493393D01*
X354009Y493387D01*
X353909Y493377D01*
X353811Y493364D01*
X353712Y493346D01*
X353615Y493325D01*
X353519Y493300D01*
X353423Y493271D01*
X353329Y493238D01*
X353236Y493202D01*
X353145Y493162D01*
X353055Y493118D01*
X352967Y493071D01*
X352881Y493021D01*
X352797Y492967D01*
X352715Y492910D01*
X352636Y492850D01*
X352558Y492786D01*
X352484Y492720D01*
X352412Y492651D01*
X352343Y492579D01*
X352277Y492505D01*
X352213Y492427D01*
X352153Y492348D01*
X352096Y492266D01*
X352042Y492182D01*
X351992Y492096D01*
X351945Y492008D01*
X351901Y491918D01*
X351861Y491827D01*
X351825Y491734D01*
X351792Y491640D01*
X351763Y491544D01*
X351738Y491448D01*
X351717Y491351D01*
X351699Y491252D01*
X351686Y491154D01*
X351676Y491054D01*
X351670Y490955D01*
X351668Y490855D01*
X351668Y483235D01*
X342697Y483235D02*
X338463Y483235D01*
X342697Y483235D02*
X342797Y483237D01*
X342896Y483243D01*
X342996Y483253D01*
X343094Y483266D01*
X343193Y483284D01*
X343290Y483305D01*
X343386Y483330D01*
X343482Y483359D01*
X343576Y483392D01*
X343669Y483428D01*
X343760Y483468D01*
X343850Y483512D01*
X343938Y483559D01*
X344024Y483609D01*
X344108Y483663D01*
X344190Y483720D01*
X344269Y483780D01*
X344347Y483844D01*
X344421Y483910D01*
X344493Y483979D01*
X344562Y484051D01*
X344628Y484125D01*
X344692Y484203D01*
X344752Y484282D01*
X344809Y484364D01*
X344863Y484448D01*
X344913Y484534D01*
X344960Y484622D01*
X345004Y484712D01*
X345044Y484803D01*
X345080Y484896D01*
X345113Y484990D01*
X345142Y485086D01*
X345167Y485182D01*
X345188Y485279D01*
X345206Y485378D01*
X345219Y485476D01*
X345229Y485576D01*
X345235Y485675D01*
X345237Y485775D01*
X345237Y490008D01*
X345235Y490124D01*
X345229Y490239D01*
X345219Y490354D01*
X345205Y490469D01*
X345188Y490583D01*
X345166Y490697D01*
X345141Y490810D01*
X345111Y490922D01*
X345078Y491033D01*
X345041Y491142D01*
X345001Y491251D01*
X344957Y491357D01*
X344909Y491463D01*
X344857Y491566D01*
X344802Y491668D01*
X344744Y491768D01*
X344682Y491866D01*
X344617Y491961D01*
X344549Y492055D01*
X344477Y492145D01*
X344403Y492234D01*
X344325Y492320D01*
X344245Y492403D01*
X344162Y492483D01*
X344076Y492561D01*
X343987Y492635D01*
X343897Y492707D01*
X343803Y492775D01*
X343708Y492840D01*
X343610Y492902D01*
X343510Y492960D01*
X343408Y493015D01*
X343305Y493067D01*
X343199Y493115D01*
X343093Y493159D01*
X342984Y493199D01*
X342875Y493236D01*
X342764Y493269D01*
X342652Y493299D01*
X342539Y493324D01*
X342425Y493346D01*
X342311Y493363D01*
X342196Y493377D01*
X342081Y493387D01*
X341966Y493393D01*
X341850Y493395D01*
X341734Y493393D01*
X341619Y493387D01*
X341504Y493377D01*
X341389Y493363D01*
X341275Y493346D01*
X341161Y493324D01*
X341048Y493299D01*
X340936Y493269D01*
X340825Y493236D01*
X340716Y493199D01*
X340607Y493159D01*
X340501Y493115D01*
X340395Y493067D01*
X340292Y493015D01*
X340190Y492960D01*
X340090Y492902D01*
X339992Y492840D01*
X339897Y492775D01*
X339803Y492707D01*
X339713Y492635D01*
X339624Y492561D01*
X339538Y492483D01*
X339455Y492403D01*
X339375Y492320D01*
X339297Y492234D01*
X339223Y492145D01*
X339151Y492055D01*
X339083Y491961D01*
X339018Y491866D01*
X338956Y491768D01*
X338898Y491668D01*
X338843Y491566D01*
X338791Y491463D01*
X338743Y491357D01*
X338699Y491251D01*
X338659Y491142D01*
X338622Y491033D01*
X338589Y490922D01*
X338559Y490810D01*
X338534Y490697D01*
X338512Y490583D01*
X338495Y490469D01*
X338481Y490354D01*
X338471Y490239D01*
X338465Y490124D01*
X338463Y490008D01*
X338463Y488315D01*
X345237Y488315D01*
X325817Y483235D02*
X325817Y498475D01*
X325817Y483235D02*
X330050Y483235D01*
X330150Y483237D01*
X330249Y483243D01*
X330349Y483253D01*
X330447Y483266D01*
X330546Y483284D01*
X330643Y483305D01*
X330739Y483330D01*
X330835Y483359D01*
X330929Y483392D01*
X331022Y483428D01*
X331113Y483468D01*
X331203Y483512D01*
X331291Y483559D01*
X331377Y483609D01*
X331461Y483663D01*
X331543Y483720D01*
X331622Y483780D01*
X331700Y483844D01*
X331774Y483910D01*
X331846Y483979D01*
X331915Y484051D01*
X331981Y484125D01*
X332045Y484203D01*
X332105Y484282D01*
X332162Y484364D01*
X332216Y484448D01*
X332266Y484534D01*
X332313Y484622D01*
X332357Y484712D01*
X332397Y484803D01*
X332433Y484896D01*
X332466Y484990D01*
X332495Y485086D01*
X332520Y485182D01*
X332541Y485279D01*
X332559Y485378D01*
X332572Y485476D01*
X332582Y485576D01*
X332588Y485675D01*
X332590Y485775D01*
X332590Y490855D01*
X332588Y490955D01*
X332582Y491054D01*
X332572Y491154D01*
X332559Y491252D01*
X332541Y491351D01*
X332520Y491448D01*
X332495Y491544D01*
X332466Y491640D01*
X332433Y491734D01*
X332397Y491827D01*
X332357Y491918D01*
X332313Y492008D01*
X332266Y492096D01*
X332216Y492182D01*
X332162Y492266D01*
X332105Y492348D01*
X332045Y492427D01*
X331981Y492505D01*
X331915Y492579D01*
X331846Y492651D01*
X331774Y492720D01*
X331700Y492786D01*
X331622Y492850D01*
X331543Y492910D01*
X331461Y492967D01*
X331377Y493021D01*
X331291Y493071D01*
X331203Y493118D01*
X331113Y493162D01*
X331022Y493202D01*
X330929Y493238D01*
X330835Y493271D01*
X330739Y493300D01*
X330643Y493325D01*
X330546Y493346D01*
X330447Y493364D01*
X330349Y493377D01*
X330249Y493387D01*
X330150Y493393D01*
X330050Y493395D01*
X325817Y493395D01*
X310933Y498475D02*
X310933Y483235D01*
X306700Y483235D01*
X306600Y483237D01*
X306501Y483243D01*
X306401Y483253D01*
X306303Y483266D01*
X306204Y483284D01*
X306107Y483305D01*
X306011Y483330D01*
X305915Y483359D01*
X305821Y483392D01*
X305728Y483428D01*
X305637Y483468D01*
X305547Y483512D01*
X305459Y483559D01*
X305373Y483609D01*
X305289Y483663D01*
X305207Y483720D01*
X305128Y483780D01*
X305050Y483844D01*
X304976Y483910D01*
X304904Y483979D01*
X304835Y484051D01*
X304769Y484125D01*
X304705Y484203D01*
X304645Y484282D01*
X304588Y484364D01*
X304534Y484448D01*
X304484Y484534D01*
X304437Y484622D01*
X304393Y484712D01*
X304353Y484803D01*
X304317Y484896D01*
X304284Y484990D01*
X304255Y485086D01*
X304230Y485182D01*
X304209Y485279D01*
X304191Y485378D01*
X304178Y485476D01*
X304168Y485576D01*
X304162Y485675D01*
X304160Y485775D01*
X304160Y490855D01*
X304162Y490955D01*
X304168Y491054D01*
X304178Y491154D01*
X304191Y491252D01*
X304209Y491351D01*
X304230Y491448D01*
X304255Y491544D01*
X304284Y491640D01*
X304317Y491734D01*
X304353Y491827D01*
X304393Y491918D01*
X304437Y492008D01*
X304484Y492096D01*
X304534Y492182D01*
X304588Y492266D01*
X304645Y492348D01*
X304705Y492427D01*
X304769Y492505D01*
X304835Y492579D01*
X304904Y492651D01*
X304976Y492720D01*
X305050Y492786D01*
X305128Y492850D01*
X305207Y492910D01*
X305289Y492967D01*
X305373Y493021D01*
X305459Y493071D01*
X305547Y493118D01*
X305637Y493162D01*
X305728Y493202D01*
X305821Y493238D01*
X305915Y493271D01*
X306011Y493300D01*
X306107Y493325D01*
X306204Y493346D01*
X306303Y493364D01*
X306401Y493377D01*
X306501Y493387D01*
X306600Y493393D01*
X306700Y493395D01*
X310933Y493395D01*
X298775Y478155D02*
X297082Y478155D01*
X292002Y493395D01*
X298775Y493395D02*
X295389Y483235D01*
X278103Y483235D02*
X278103Y498475D01*
X278103Y491702D02*
X269637Y491702D01*
X269637Y498475D02*
X269637Y483235D01*
X262585Y485775D02*
X262585Y493395D01*
X262585Y485775D02*
X262583Y485675D01*
X262577Y485576D01*
X262567Y485476D01*
X262554Y485378D01*
X262536Y485279D01*
X262515Y485182D01*
X262490Y485086D01*
X262461Y484990D01*
X262428Y484896D01*
X262392Y484803D01*
X262352Y484712D01*
X262308Y484622D01*
X262261Y484534D01*
X262211Y484448D01*
X262157Y484364D01*
X262100Y484282D01*
X262040Y484203D01*
X261976Y484125D01*
X261910Y484051D01*
X261841Y483979D01*
X261769Y483910D01*
X261695Y483844D01*
X261617Y483780D01*
X261538Y483720D01*
X261456Y483663D01*
X261372Y483609D01*
X261286Y483559D01*
X261198Y483512D01*
X261108Y483468D01*
X261017Y483428D01*
X260924Y483392D01*
X260830Y483359D01*
X260734Y483330D01*
X260638Y483305D01*
X260541Y483284D01*
X260442Y483266D01*
X260344Y483253D01*
X260244Y483243D01*
X260145Y483237D01*
X260045Y483235D01*
X255811Y483235D01*
X255811Y493395D01*
X248891Y493395D02*
X248891Y483235D01*
X248891Y493395D02*
X244657Y493395D01*
X244557Y493393D01*
X244458Y493387D01*
X244358Y493377D01*
X244260Y493364D01*
X244161Y493346D01*
X244064Y493325D01*
X243968Y493300D01*
X243872Y493271D01*
X243778Y493238D01*
X243685Y493202D01*
X243594Y493162D01*
X243504Y493118D01*
X243416Y493071D01*
X243330Y493021D01*
X243246Y492967D01*
X243164Y492910D01*
X243085Y492850D01*
X243007Y492786D01*
X242933Y492720D01*
X242861Y492651D01*
X242792Y492579D01*
X242726Y492505D01*
X242662Y492427D01*
X242602Y492348D01*
X242545Y492266D01*
X242491Y492182D01*
X242441Y492096D01*
X242394Y492008D01*
X242350Y491918D01*
X242310Y491827D01*
X242274Y491734D01*
X242241Y491640D01*
X242212Y491544D01*
X242187Y491448D01*
X242166Y491351D01*
X242148Y491252D01*
X242135Y491154D01*
X242125Y491054D01*
X242119Y490955D01*
X242117Y490855D01*
X242117Y483235D01*
X236904Y493395D02*
X231824Y493395D01*
X235211Y498475D02*
X235211Y485775D01*
X235209Y485675D01*
X235203Y485576D01*
X235193Y485476D01*
X235180Y485378D01*
X235162Y485279D01*
X235141Y485182D01*
X235116Y485086D01*
X235087Y484990D01*
X235054Y484896D01*
X235018Y484803D01*
X234978Y484712D01*
X234934Y484622D01*
X234887Y484534D01*
X234837Y484448D01*
X234783Y484364D01*
X234726Y484282D01*
X234666Y484203D01*
X234602Y484125D01*
X234536Y484051D01*
X234467Y483979D01*
X234395Y483910D01*
X234321Y483844D01*
X234243Y483780D01*
X234164Y483720D01*
X234082Y483663D01*
X233998Y483609D01*
X233912Y483559D01*
X233824Y483512D01*
X233734Y483468D01*
X233643Y483428D01*
X233550Y483392D01*
X233456Y483359D01*
X233360Y483330D01*
X233264Y483305D01*
X233167Y483284D01*
X233068Y483266D01*
X232970Y483253D01*
X232870Y483243D01*
X232771Y483237D01*
X232671Y483235D01*
X231824Y483235D01*
X223854Y483235D02*
X219621Y483235D01*
X223854Y483235D02*
X223954Y483237D01*
X224053Y483243D01*
X224153Y483253D01*
X224251Y483266D01*
X224350Y483284D01*
X224447Y483305D01*
X224543Y483330D01*
X224639Y483359D01*
X224733Y483392D01*
X224826Y483428D01*
X224917Y483468D01*
X225007Y483512D01*
X225095Y483559D01*
X225181Y483609D01*
X225265Y483663D01*
X225347Y483720D01*
X225426Y483780D01*
X225504Y483844D01*
X225578Y483910D01*
X225650Y483979D01*
X225719Y484051D01*
X225785Y484125D01*
X225849Y484203D01*
X225909Y484282D01*
X225966Y484364D01*
X226020Y484448D01*
X226070Y484534D01*
X226117Y484622D01*
X226161Y484712D01*
X226201Y484803D01*
X226237Y484896D01*
X226270Y484990D01*
X226299Y485086D01*
X226324Y485182D01*
X226345Y485279D01*
X226363Y485378D01*
X226376Y485476D01*
X226386Y485576D01*
X226392Y485675D01*
X226394Y485775D01*
X226394Y490008D01*
X226392Y490124D01*
X226386Y490239D01*
X226376Y490354D01*
X226362Y490469D01*
X226345Y490583D01*
X226323Y490697D01*
X226298Y490810D01*
X226268Y490922D01*
X226235Y491033D01*
X226198Y491142D01*
X226158Y491251D01*
X226114Y491357D01*
X226066Y491463D01*
X226014Y491566D01*
X225959Y491668D01*
X225901Y491768D01*
X225839Y491866D01*
X225774Y491961D01*
X225706Y492055D01*
X225634Y492145D01*
X225560Y492234D01*
X225482Y492320D01*
X225402Y492403D01*
X225319Y492483D01*
X225233Y492561D01*
X225144Y492635D01*
X225054Y492707D01*
X224960Y492775D01*
X224865Y492840D01*
X224767Y492902D01*
X224667Y492960D01*
X224565Y493015D01*
X224462Y493067D01*
X224356Y493115D01*
X224250Y493159D01*
X224141Y493199D01*
X224032Y493236D01*
X223921Y493269D01*
X223809Y493299D01*
X223696Y493324D01*
X223582Y493346D01*
X223468Y493363D01*
X223353Y493377D01*
X223238Y493387D01*
X223123Y493393D01*
X223007Y493395D01*
X222891Y493393D01*
X222776Y493387D01*
X222661Y493377D01*
X222546Y493363D01*
X222432Y493346D01*
X222318Y493324D01*
X222205Y493299D01*
X222093Y493269D01*
X221982Y493236D01*
X221873Y493199D01*
X221764Y493159D01*
X221658Y493115D01*
X221552Y493067D01*
X221449Y493015D01*
X221347Y492960D01*
X221247Y492902D01*
X221149Y492840D01*
X221054Y492775D01*
X220960Y492707D01*
X220870Y492635D01*
X220781Y492561D01*
X220695Y492483D01*
X220612Y492403D01*
X220532Y492320D01*
X220454Y492234D01*
X220380Y492145D01*
X220308Y492055D01*
X220240Y491961D01*
X220175Y491866D01*
X220113Y491768D01*
X220055Y491668D01*
X220000Y491566D01*
X219948Y491463D01*
X219900Y491357D01*
X219856Y491251D01*
X219816Y491142D01*
X219779Y491033D01*
X219746Y490922D01*
X219716Y490810D01*
X219691Y490697D01*
X219669Y490583D01*
X219652Y490469D01*
X219638Y490354D01*
X219628Y490239D01*
X219622Y490124D01*
X219620Y490008D01*
X219621Y490008D02*
X219621Y488315D01*
X226394Y488315D01*
X213110Y483235D02*
X213110Y493395D01*
X208030Y493395D01*
X208030Y491702D01*
X194152Y498475D02*
X194152Y483235D01*
X192459Y483235D02*
X195846Y483235D01*
X195846Y498475D02*
X192459Y498475D01*
X186290Y493395D02*
X186290Y483235D01*
X186290Y493395D02*
X182057Y493395D01*
X181957Y493393D01*
X181858Y493387D01*
X181758Y493377D01*
X181660Y493364D01*
X181561Y493346D01*
X181464Y493325D01*
X181368Y493300D01*
X181272Y493271D01*
X181178Y493238D01*
X181085Y493202D01*
X180994Y493162D01*
X180904Y493118D01*
X180816Y493071D01*
X180730Y493021D01*
X180646Y492967D01*
X180564Y492910D01*
X180485Y492850D01*
X180407Y492786D01*
X180333Y492720D01*
X180261Y492651D01*
X180192Y492579D01*
X180126Y492505D01*
X180062Y492427D01*
X180002Y492348D01*
X179945Y492266D01*
X179891Y492182D01*
X179841Y492096D01*
X179794Y492008D01*
X179750Y491918D01*
X179710Y491827D01*
X179674Y491734D01*
X179641Y491640D01*
X179612Y491544D01*
X179587Y491448D01*
X179566Y491351D01*
X179548Y491252D01*
X179535Y491154D01*
X179525Y491054D01*
X179519Y490955D01*
X179517Y490855D01*
X179517Y483235D01*
X172334Y483235D02*
X172334Y493395D01*
X164714Y493395D01*
X164614Y493393D01*
X164515Y493387D01*
X164415Y493377D01*
X164317Y493364D01*
X164218Y493346D01*
X164121Y493325D01*
X164025Y493300D01*
X163929Y493271D01*
X163835Y493238D01*
X163742Y493202D01*
X163651Y493162D01*
X163561Y493118D01*
X163473Y493071D01*
X163387Y493021D01*
X163303Y492967D01*
X163221Y492910D01*
X163142Y492850D01*
X163064Y492786D01*
X162990Y492720D01*
X162918Y492651D01*
X162849Y492579D01*
X162783Y492505D01*
X162719Y492427D01*
X162659Y492348D01*
X162602Y492266D01*
X162548Y492182D01*
X162498Y492096D01*
X162451Y492008D01*
X162407Y491918D01*
X162367Y491827D01*
X162331Y491734D01*
X162298Y491640D01*
X162269Y491544D01*
X162244Y491448D01*
X162223Y491351D01*
X162205Y491252D01*
X162192Y491154D01*
X162182Y491054D01*
X162176Y490955D01*
X162174Y490855D01*
X162174Y483235D01*
X167254Y483235D02*
X167254Y493395D01*
X152585Y489162D02*
X148775Y489162D01*
X152585Y489161D02*
X152692Y489159D01*
X152799Y489153D01*
X152905Y489144D01*
X153011Y489130D01*
X153117Y489113D01*
X153222Y489092D01*
X153326Y489067D01*
X153429Y489038D01*
X153531Y489006D01*
X153632Y488970D01*
X153731Y488930D01*
X153829Y488887D01*
X153925Y488840D01*
X154020Y488790D01*
X154113Y488737D01*
X154203Y488680D01*
X154292Y488620D01*
X154378Y488557D01*
X154462Y488491D01*
X154544Y488421D01*
X154623Y488349D01*
X154699Y488274D01*
X154773Y488196D01*
X154843Y488116D01*
X154911Y488033D01*
X154976Y487948D01*
X155037Y487861D01*
X155096Y487771D01*
X155151Y487680D01*
X155203Y487586D01*
X155251Y487490D01*
X155296Y487393D01*
X155338Y487295D01*
X155375Y487195D01*
X155410Y487093D01*
X155440Y486991D01*
X155467Y486887D01*
X155490Y486783D01*
X155509Y486677D01*
X155524Y486571D01*
X155536Y486465D01*
X155544Y486358D01*
X155548Y486251D01*
X155548Y486145D01*
X155544Y486038D01*
X155536Y485931D01*
X155524Y485825D01*
X155509Y485719D01*
X155490Y485613D01*
X155467Y485509D01*
X155440Y485405D01*
X155410Y485303D01*
X155375Y485201D01*
X155338Y485101D01*
X155296Y485003D01*
X155251Y484906D01*
X155203Y484810D01*
X155151Y484717D01*
X155096Y484625D01*
X155037Y484535D01*
X154976Y484448D01*
X154911Y484363D01*
X154843Y484280D01*
X154773Y484200D01*
X154699Y484122D01*
X154623Y484047D01*
X154544Y483975D01*
X154462Y483905D01*
X154378Y483839D01*
X154292Y483776D01*
X154203Y483716D01*
X154113Y483659D01*
X154020Y483606D01*
X153925Y483556D01*
X153829Y483509D01*
X153731Y483466D01*
X153632Y483426D01*
X153531Y483390D01*
X153429Y483358D01*
X153326Y483329D01*
X153222Y483304D01*
X153117Y483283D01*
X153011Y483266D01*
X152905Y483252D01*
X152799Y483243D01*
X152692Y483237D01*
X152585Y483235D01*
X148775Y483235D01*
X148775Y490855D01*
X148777Y490955D01*
X148783Y491054D01*
X148793Y491154D01*
X148806Y491252D01*
X148824Y491351D01*
X148845Y491448D01*
X148870Y491544D01*
X148899Y491640D01*
X148932Y491734D01*
X148968Y491827D01*
X149008Y491918D01*
X149052Y492008D01*
X149099Y492096D01*
X149149Y492182D01*
X149203Y492266D01*
X149260Y492348D01*
X149320Y492427D01*
X149384Y492505D01*
X149450Y492579D01*
X149519Y492651D01*
X149591Y492720D01*
X149665Y492786D01*
X149743Y492850D01*
X149822Y492910D01*
X149904Y492967D01*
X149988Y493021D01*
X150074Y493071D01*
X150162Y493118D01*
X150252Y493162D01*
X150343Y493202D01*
X150436Y493238D01*
X150530Y493271D01*
X150626Y493300D01*
X150722Y493325D01*
X150819Y493346D01*
X150918Y493364D01*
X151016Y493377D01*
X151116Y493387D01*
X151215Y493393D01*
X151315Y493395D01*
X154702Y493395D01*
X141786Y493395D02*
X141786Y483235D01*
X141786Y493395D02*
X137552Y493395D01*
X137452Y493393D01*
X137353Y493387D01*
X137253Y493377D01*
X137155Y493364D01*
X137056Y493346D01*
X136959Y493325D01*
X136863Y493300D01*
X136767Y493271D01*
X136673Y493238D01*
X136580Y493202D01*
X136489Y493162D01*
X136399Y493118D01*
X136311Y493071D01*
X136225Y493021D01*
X136141Y492967D01*
X136059Y492910D01*
X135980Y492850D01*
X135902Y492786D01*
X135828Y492720D01*
X135756Y492651D01*
X135687Y492579D01*
X135621Y492505D01*
X135557Y492427D01*
X135497Y492348D01*
X135440Y492266D01*
X135386Y492182D01*
X135336Y492096D01*
X135289Y492008D01*
X135245Y491918D01*
X135205Y491827D01*
X135169Y491734D01*
X135136Y491640D01*
X135107Y491544D01*
X135082Y491448D01*
X135061Y491351D01*
X135043Y491252D01*
X135030Y491154D01*
X135020Y491054D01*
X135014Y490955D01*
X135012Y490855D01*
X135012Y483235D01*
M02*
