G04 EAGLE Gerber X2 export*
%TF.Part,Single*%
%TF.FileFunction,Soldermask,Top,1*%
%TF.FilePolarity,Negative*%
%TF.GenerationSoftware,Autodesk,EAGLE,9.1.3*%
%TF.CreationDate,2020-03-28T12:55:41Z*%
G75*
%MOMM*%
%FSLAX34Y34*%
%LPD*%
%AMOC8*
5,1,8,0,0,1.08239X$1,22.5*%
G01*
%ADD10R,1.403200X1.403200*%
%ADD11C,1.524000*%
%ADD12C,3.053200*%
%ADD13R,2.828200X2.828200*%
%ADD14C,2.828200*%
%ADD15R,1.981200X1.981200*%
%ADD16C,1.981200*%
%ADD17C,1.854200*%
%ADD18R,1.703200X1.503200*%
%ADD19C,0.959600*%


D10*
X190500Y455000D03*
X190500Y434000D03*
D11*
X488696Y266700D02*
X501904Y266700D01*
X501904Y241300D02*
X488696Y241300D01*
X564896Y190500D02*
X578104Y190500D01*
X578104Y215900D02*
X564896Y215900D01*
X501904Y215900D02*
X488696Y215900D01*
X488696Y190500D02*
X501904Y190500D01*
X564896Y241300D02*
X578104Y241300D01*
X578104Y266700D02*
X564896Y266700D01*
X501904Y457200D02*
X488696Y457200D01*
X488696Y431800D02*
X501904Y431800D01*
X564896Y381000D02*
X578104Y381000D01*
X578104Y406400D02*
X564896Y406400D01*
X501904Y406400D02*
X488696Y406400D01*
X488696Y381000D02*
X501904Y381000D01*
X564896Y431800D02*
X578104Y431800D01*
X578104Y457200D02*
X564896Y457200D01*
D12*
X99800Y83900D03*
D13*
X164800Y128900D03*
D14*
X204800Y128900D03*
X244800Y128900D03*
X284800Y128900D03*
X324800Y128900D03*
X364800Y128900D03*
X404800Y128900D03*
X444800Y128900D03*
X184800Y88900D03*
X224800Y88900D03*
X264800Y88900D03*
X304800Y88900D03*
X344800Y88900D03*
X384800Y88900D03*
X424800Y88900D03*
X164800Y48900D03*
X204800Y48900D03*
X244800Y48900D03*
X284800Y48900D03*
X324800Y48900D03*
X364800Y48900D03*
X404800Y48900D03*
X444800Y48900D03*
D12*
X509800Y83900D03*
D15*
X393700Y330200D03*
D16*
X368300Y330200D03*
X342900Y330200D03*
X317500Y330200D03*
X292100Y330200D03*
X266700Y330200D03*
X241300Y330200D03*
X215900Y330200D03*
X190500Y330200D03*
X165100Y330200D03*
X139700Y330200D03*
X114300Y330200D03*
X88900Y330200D03*
X63500Y330200D03*
X38100Y330200D03*
X393700Y177800D03*
X368300Y177800D03*
X342900Y177800D03*
X317500Y177800D03*
X292100Y177800D03*
X266700Y177800D03*
X241300Y177800D03*
X215900Y177800D03*
X190500Y177800D03*
X165100Y177800D03*
X139700Y177800D03*
X114300Y177800D03*
X88900Y177800D03*
X63500Y177800D03*
X38100Y177800D03*
D17*
X12700Y330200D03*
X12700Y177800D03*
X419100Y177800D03*
X419100Y330200D03*
D10*
X330200Y455000D03*
X330200Y434000D03*
X38100Y455000D03*
X38100Y434000D03*
D18*
X266700Y269900D03*
X266700Y288900D03*
X215900Y269900D03*
X215900Y288900D03*
X177800Y269900D03*
X177800Y288900D03*
X114300Y269900D03*
X114300Y288900D03*
X38100Y384200D03*
X38100Y403200D03*
X190500Y384200D03*
X190500Y403200D03*
X330200Y384200D03*
X330200Y403200D03*
X152400Y384200D03*
X152400Y403200D03*
X368300Y384200D03*
X368300Y403200D03*
D19*
X525018Y165100D03*
X511810Y125476D03*
X462280Y204724D03*
X392938Y145288D03*
X478790Y138684D03*
X462280Y118872D03*
X475488Y277368D03*
X475488Y237744D03*
X458978Y191516D03*
X445770Y148590D03*
X425958Y300482D03*
X478790Y148590D03*
X201422Y270764D03*
X356616Y280670D03*
X525018Y409448D03*
X161798Y267462D03*
X356616Y267462D03*
X541528Y392938D03*
X204724Y383032D03*
X515112Y224536D03*
X449072Y69342D03*
X482092Y158496D03*
M02*
