G04 EAGLE Gerber X2 export*
%TF.Part,Single*%
%TF.FileFunction,Copper,L1,Top,Mixed*%
%TF.FilePolarity,Positive*%
%TF.GenerationSoftware,Autodesk,EAGLE,9.1.3*%
%TF.CreationDate,2020-03-16T01:18:41Z*%
G75*
%MOMM*%
%FSLAX34Y34*%
%LPD*%
%AMOC8*
5,1,8,0,0,1.08239X$1,22.5*%
G01*
%ADD10R,1.300000X1.500000*%
%ADD11R,1.500000X1.300000*%
%ADD12R,1.000000X1.400000*%
%ADD13C,1.524000*%
%ADD14R,0.800000X1.532000*%
%ADD15R,3.810000X2.794000*%
%ADD16R,5.400000X6.200000*%
%ADD17R,1.000000X1.600000*%
%ADD18C,1.320800*%
%ADD19R,1.200000X1.200000*%
%ADD20R,1.525000X0.700000*%
%ADD21R,1.100000X1.000000*%
%ADD22C,1.308000*%
%ADD23R,0.700000X1.525000*%
%ADD24R,1.778000X1.778000*%
%ADD25C,1.778000*%
%ADD26R,1.700000X1.800000*%
%ADD27R,2.625000X2.625000*%
%ADD28C,2.625000*%
%ADD29R,1.400000X1.000000*%
%ADD30R,1.400000X1.400000*%
%ADD31C,0.304800*%
%ADD32C,0.756400*%


D10*
X98400Y165100D03*
X79400Y165100D03*
D11*
X584200Y358800D03*
X584200Y377800D03*
X1422400Y206400D03*
X1422400Y225400D03*
X762000Y358800D03*
X762000Y377800D03*
X330200Y142900D03*
X330200Y161900D03*
X533400Y358800D03*
X533400Y377800D03*
X800100Y733400D03*
X800100Y714400D03*
X749300Y733400D03*
X749300Y714400D03*
X698500Y733400D03*
X698500Y714400D03*
X279400Y320700D03*
X279400Y339700D03*
X228600Y320700D03*
X228600Y339700D03*
X25400Y206400D03*
X25400Y225400D03*
X177800Y320700D03*
X177800Y339700D03*
X127000Y320700D03*
X127000Y339700D03*
X990600Y219100D03*
X990600Y238100D03*
X406400Y212700D03*
X406400Y193700D03*
X1054100Y219100D03*
X1054100Y238100D03*
X355600Y212700D03*
X355600Y193700D03*
X1117600Y219100D03*
X1117600Y238100D03*
X304800Y212700D03*
X304800Y193700D03*
X1181100Y219100D03*
X1181100Y238100D03*
D12*
X60300Y265000D03*
X41300Y265000D03*
X50800Y243000D03*
X466700Y265000D03*
X447700Y265000D03*
X457200Y243000D03*
X415900Y265000D03*
X396900Y265000D03*
X406400Y243000D03*
X365100Y265000D03*
X346100Y265000D03*
X355600Y243000D03*
X314300Y265000D03*
X295300Y265000D03*
X304800Y243000D03*
X263500Y265000D03*
X244500Y265000D03*
X254000Y243000D03*
X212700Y265000D03*
X193700Y265000D03*
X203200Y243000D03*
X161900Y265000D03*
X142900Y265000D03*
X152400Y243000D03*
X111100Y265000D03*
X92100Y265000D03*
X101600Y243000D03*
D13*
X1282700Y754380D02*
X1282700Y769620D01*
X1308100Y769620D02*
X1308100Y754380D01*
X1333500Y754380D02*
X1333500Y769620D01*
D14*
X1414140Y315560D03*
X1428120Y315560D03*
X1442080Y315560D03*
X1456060Y315560D03*
X1456060Y370240D03*
X1442080Y370240D03*
X1428120Y370240D03*
X1414140Y370240D03*
D15*
X1435100Y342900D03*
D14*
X1490340Y315560D03*
X1504320Y315560D03*
X1518280Y315560D03*
X1532260Y315560D03*
X1532260Y370240D03*
X1518280Y370240D03*
X1504320Y370240D03*
X1490340Y370240D03*
D15*
X1511300Y342900D03*
D16*
X635000Y178200D03*
D17*
X657800Y251200D03*
X612200Y251200D03*
D18*
X1263396Y685800D02*
X1276604Y685800D01*
X1276604Y660400D02*
X1263396Y660400D01*
X1339596Y660400D02*
X1352804Y660400D01*
X1352804Y685800D02*
X1339596Y685800D01*
X1276604Y635000D02*
X1263396Y635000D01*
X1263396Y609600D02*
X1276604Y609600D01*
X1339596Y635000D02*
X1352804Y635000D01*
X1352804Y609600D02*
X1339596Y609600D01*
D13*
X774700Y261620D02*
X774700Y246380D01*
X800100Y246380D02*
X800100Y261620D01*
X520700Y261620D02*
X520700Y246380D01*
X546100Y246380D02*
X546100Y261620D01*
D19*
X1509100Y749300D03*
X1488100Y749300D03*
X1509100Y685800D03*
X1488100Y685800D03*
X1509100Y622300D03*
X1488100Y622300D03*
X1509100Y558800D03*
X1488100Y558800D03*
X1509100Y495300D03*
X1488100Y495300D03*
X1509100Y812800D03*
X1488100Y812800D03*
D20*
X1128580Y374650D03*
X1128580Y361950D03*
X1128580Y349250D03*
X1128580Y336550D03*
X1182820Y336550D03*
X1182820Y349250D03*
X1182820Y361950D03*
X1182820Y374650D03*
X1128580Y527050D03*
X1128580Y514350D03*
X1128580Y501650D03*
X1128580Y488950D03*
X1182820Y488950D03*
X1182820Y501650D03*
X1182820Y514350D03*
X1182820Y527050D03*
X1128580Y450850D03*
X1128580Y438150D03*
X1128580Y425450D03*
X1128580Y412750D03*
X1182820Y412750D03*
X1182820Y425450D03*
X1182820Y438150D03*
X1182820Y450850D03*
X1128580Y603250D03*
X1128580Y590550D03*
X1128580Y577850D03*
X1128580Y565150D03*
X1182820Y565150D03*
X1182820Y577850D03*
X1182820Y590550D03*
X1182820Y603250D03*
X1128580Y679450D03*
X1128580Y666750D03*
X1128580Y654050D03*
X1128580Y641350D03*
X1182820Y641350D03*
X1182820Y654050D03*
X1182820Y666750D03*
X1182820Y679450D03*
X1128580Y755650D03*
X1128580Y742950D03*
X1128580Y730250D03*
X1128580Y717550D03*
X1182820Y717550D03*
X1182820Y730250D03*
X1182820Y742950D03*
X1182820Y755650D03*
D11*
X939800Y187300D03*
X939800Y168300D03*
X1422400Y155600D03*
X1422400Y174600D03*
X1485900Y155600D03*
X1485900Y174600D03*
D21*
X457200Y194700D03*
X457200Y211700D03*
D10*
X1057300Y482600D03*
X1076300Y482600D03*
X1057300Y520700D03*
X1076300Y520700D03*
X1451000Y749300D03*
X1470000Y749300D03*
X1451000Y685800D03*
X1470000Y685800D03*
X1451000Y622300D03*
X1470000Y622300D03*
X1451000Y558800D03*
X1470000Y558800D03*
X1050900Y266700D03*
X1031900Y266700D03*
D11*
X939800Y219100D03*
X939800Y238100D03*
D10*
X1076300Y368300D03*
X1057300Y368300D03*
D11*
X1536700Y269900D03*
X1536700Y288900D03*
X1409700Y288900D03*
X1409700Y269900D03*
X1447800Y441300D03*
X1447800Y422300D03*
X1524000Y422300D03*
X1524000Y441300D03*
D10*
X1451000Y495300D03*
X1470000Y495300D03*
X1076300Y444500D03*
X1057300Y444500D03*
X1057300Y406400D03*
X1076300Y406400D03*
X1076300Y596900D03*
X1057300Y596900D03*
X1057300Y558800D03*
X1076300Y558800D03*
X79400Y190500D03*
X98400Y190500D03*
X1076300Y673100D03*
X1057300Y673100D03*
X1057300Y635000D03*
X1076300Y635000D03*
X1076300Y749300D03*
X1057300Y749300D03*
X1057300Y711200D03*
X1076300Y711200D03*
X841400Y254000D03*
X860400Y254000D03*
X574700Y254000D03*
X593700Y254000D03*
X1451000Y812800D03*
X1470000Y812800D03*
D11*
X990600Y168300D03*
X990600Y187300D03*
X1054100Y168300D03*
X1054100Y187300D03*
X1117600Y168300D03*
X1117600Y187300D03*
D21*
X254000Y194700D03*
X254000Y211700D03*
X203200Y194700D03*
X203200Y211700D03*
D11*
X1181100Y168300D03*
X1181100Y187300D03*
D22*
X241300Y800100D03*
X266700Y800100D03*
X292100Y800100D03*
X317500Y800100D03*
X342900Y800100D03*
X368300Y800100D03*
X393700Y800100D03*
X419100Y800100D03*
X457200Y800100D03*
X482600Y800100D03*
X508000Y800100D03*
X533400Y800100D03*
X558800Y800100D03*
X584200Y800100D03*
X609600Y800100D03*
X635000Y800100D03*
X685800Y800100D03*
X711200Y800100D03*
X736600Y800100D03*
X762000Y800100D03*
X787400Y800100D03*
X812800Y800100D03*
X838200Y800100D03*
X863600Y800100D03*
X939800Y800100D03*
X939800Y774700D03*
X939800Y749300D03*
X939800Y723900D03*
X939800Y698500D03*
X939800Y673100D03*
X939800Y647700D03*
X939800Y622300D03*
X939800Y596900D03*
X939800Y571500D03*
X939800Y546100D03*
X939800Y520700D03*
X939800Y495300D03*
X939800Y469900D03*
X939800Y444500D03*
X939800Y419100D03*
X939800Y393700D03*
X939800Y368300D03*
X965200Y368300D03*
X965200Y393700D03*
X965200Y419100D03*
X965200Y444500D03*
X965200Y469900D03*
X965200Y495300D03*
X965200Y520700D03*
X965200Y546100D03*
X965200Y571500D03*
X965200Y596900D03*
X965200Y622300D03*
X965200Y647700D03*
X965200Y673100D03*
X965200Y698500D03*
X965200Y723900D03*
X965200Y749300D03*
X965200Y774700D03*
X965200Y800100D03*
X914400Y317500D03*
X889000Y317500D03*
X863600Y317500D03*
X838200Y317500D03*
X812800Y317500D03*
X787400Y317500D03*
X762000Y317500D03*
X736600Y317500D03*
X685800Y317500D03*
X660400Y317500D03*
X635000Y317500D03*
X609600Y317500D03*
X584200Y317500D03*
X558800Y317500D03*
X533400Y317500D03*
X508000Y317500D03*
X457200Y317500D03*
X431800Y317500D03*
X406400Y317500D03*
X381000Y317500D03*
X355600Y317500D03*
X330200Y317500D03*
D13*
X1333500Y513080D02*
X1333500Y528320D01*
X1308100Y528320D02*
X1308100Y513080D01*
X1282700Y513080D02*
X1282700Y528320D01*
D12*
X41300Y166800D03*
X60300Y166800D03*
X50800Y188800D03*
D23*
X565150Y633280D03*
X577850Y633280D03*
X590550Y633280D03*
X603250Y633280D03*
X603250Y687520D03*
X590550Y687520D03*
X577850Y687520D03*
X565150Y687520D03*
X488950Y633280D03*
X501650Y633280D03*
X514350Y633280D03*
X527050Y633280D03*
X527050Y687520D03*
X514350Y687520D03*
X501650Y687520D03*
X488950Y687520D03*
D24*
X393700Y599440D03*
D25*
X368300Y599440D03*
X342900Y599440D03*
X317500Y599440D03*
X292100Y599440D03*
X266700Y599440D03*
X241300Y599440D03*
X215900Y599440D03*
X190500Y599440D03*
X165100Y599440D03*
X139700Y599440D03*
X114300Y599440D03*
X88900Y599440D03*
X63500Y599440D03*
X38100Y599440D03*
X393700Y447040D03*
X368300Y447040D03*
X342900Y447040D03*
X317500Y447040D03*
X292100Y447040D03*
X266700Y447040D03*
X241300Y447040D03*
X215900Y447040D03*
X190500Y447040D03*
X165100Y447040D03*
X139700Y447040D03*
X114300Y447040D03*
X88900Y447040D03*
X63500Y447040D03*
X38100Y447040D03*
D12*
X482600Y531700D03*
X492100Y509700D03*
X473100Y509700D03*
X571500Y531700D03*
X581000Y509700D03*
X562000Y509700D03*
D11*
X482600Y460400D03*
X482600Y479400D03*
D10*
X447700Y584200D03*
X466700Y584200D03*
D11*
X571500Y479400D03*
X571500Y460400D03*
D10*
X555600Y584200D03*
X536600Y584200D03*
D12*
X660400Y531700D03*
X669900Y509700D03*
X650900Y509700D03*
D11*
X673100Y447700D03*
X673100Y466700D03*
D10*
X625500Y596900D03*
X644500Y596900D03*
D26*
X444500Y515800D03*
X444500Y474800D03*
X533400Y515800D03*
X533400Y474800D03*
X622300Y515800D03*
X622300Y474800D03*
D12*
X746100Y569800D03*
X727100Y569800D03*
X736600Y547800D03*
D11*
X736600Y479400D03*
X736600Y460400D03*
D10*
X720700Y508000D03*
X701700Y508000D03*
X752500Y508000D03*
X771500Y508000D03*
D11*
X520700Y428600D03*
X520700Y409600D03*
X444500Y428600D03*
X444500Y409600D03*
X622300Y428600D03*
X622300Y409600D03*
D12*
X876300Y519000D03*
X885800Y497000D03*
X866800Y497000D03*
D11*
X876300Y447700D03*
X876300Y466700D03*
D10*
X841400Y584200D03*
X860400Y584200D03*
D26*
X838200Y515800D03*
X838200Y474800D03*
D11*
X838200Y428600D03*
X838200Y409600D03*
X38100Y555600D03*
X38100Y536600D03*
D10*
X79400Y558800D03*
X98400Y558800D03*
D18*
X1263396Y254000D02*
X1276604Y254000D01*
X1276604Y228600D02*
X1263396Y228600D01*
X1339596Y228600D02*
X1352804Y228600D01*
X1352804Y254000D02*
X1339596Y254000D01*
X1276604Y203200D02*
X1263396Y203200D01*
X1263396Y177800D02*
X1276604Y177800D01*
X1339596Y203200D02*
X1352804Y203200D01*
X1352804Y177800D02*
X1339596Y177800D01*
X1276604Y431800D02*
X1263396Y431800D01*
X1263396Y406400D02*
X1276604Y406400D01*
X1339596Y406400D02*
X1352804Y406400D01*
X1352804Y431800D02*
X1339596Y431800D01*
X1276604Y381000D02*
X1263396Y381000D01*
X1263396Y355600D02*
X1276604Y355600D01*
X1339596Y381000D02*
X1352804Y381000D01*
X1352804Y355600D02*
X1339596Y355600D01*
D27*
X173700Y103500D03*
D28*
X213700Y103500D03*
X253700Y103500D03*
X293700Y103500D03*
X333700Y103500D03*
X373700Y103500D03*
X413700Y103500D03*
X453700Y103500D03*
X493700Y103500D03*
X533700Y103500D03*
X573700Y103500D03*
X613700Y103500D03*
X193700Y63500D03*
X233700Y63500D03*
X273700Y63500D03*
X313700Y63500D03*
X353700Y63500D03*
X393700Y63500D03*
X433700Y63500D03*
X473700Y63500D03*
X513700Y63500D03*
X553700Y63500D03*
X593700Y63500D03*
X173700Y23500D03*
X213700Y23500D03*
X253700Y23500D03*
X293700Y23500D03*
X333700Y23500D03*
X373700Y23500D03*
X413700Y23500D03*
X453700Y23500D03*
X493700Y23500D03*
X533700Y23500D03*
X573700Y23500D03*
X613700Y23500D03*
D27*
X973800Y103500D03*
D28*
X1013800Y103500D03*
X1053800Y103500D03*
X1093800Y103500D03*
X1133800Y103500D03*
X1173800Y103500D03*
X1213800Y103500D03*
X1253800Y103500D03*
X1293800Y103500D03*
X1333800Y103500D03*
X1373800Y103500D03*
X1413800Y103500D03*
X993800Y63500D03*
X1033800Y63500D03*
X1073800Y63500D03*
X1113800Y63500D03*
X1153800Y63500D03*
X1193800Y63500D03*
X1233800Y63500D03*
X1273800Y63500D03*
X1313800Y63500D03*
X1353800Y63500D03*
X1393800Y63500D03*
X973800Y23500D03*
X1013800Y23500D03*
X1053800Y23500D03*
X1093800Y23500D03*
X1133800Y23500D03*
X1173800Y23500D03*
X1213800Y23500D03*
X1253800Y23500D03*
X1293800Y23500D03*
X1333800Y23500D03*
X1373800Y23500D03*
X1413800Y23500D03*
D29*
X179500Y711200D03*
X201500Y720700D03*
X201500Y701700D03*
D10*
X250800Y685800D03*
X231800Y685800D03*
D11*
X152400Y663600D03*
X152400Y682600D03*
D26*
X101600Y690700D03*
X101600Y731700D03*
D11*
X152400Y739800D03*
X152400Y758800D03*
D30*
X698500Y222200D03*
X698500Y184200D03*
X736600Y222200D03*
X736600Y184200D03*
X774700Y222200D03*
X774700Y184200D03*
D12*
X92100Y776400D03*
X111100Y776400D03*
X101600Y798400D03*
D10*
X339700Y711200D03*
X320700Y711200D03*
D11*
X50800Y796900D03*
X50800Y777900D03*
D10*
X396900Y711200D03*
X415900Y711200D03*
D31*
X406908Y317754D02*
X429768Y317754D01*
X406908Y317754D02*
X406400Y317500D01*
X429768Y317754D02*
X431800Y317500D01*
X1076706Y596646D02*
X1122426Y596646D01*
X1126998Y592074D01*
X1076706Y596646D02*
X1076300Y596900D01*
X1126998Y592074D02*
X1128580Y590550D01*
X802386Y745236D02*
X713232Y745236D01*
X1067562Y612648D02*
X1067562Y605790D01*
X1074420Y598932D01*
X1076300Y596900D01*
D32*
X713232Y745236D03*
X802386Y745236D03*
X1067562Y612648D03*
D31*
X1088136Y560070D02*
X1122426Y560070D01*
X1088136Y560070D02*
X1076706Y560070D01*
X1122426Y560070D02*
X1126998Y564642D01*
X1076706Y560070D02*
X1076300Y558800D01*
X1126998Y564642D02*
X1128580Y565150D01*
X329184Y800100D02*
X317500Y800100D01*
X329184Y800100D02*
X340614Y788670D01*
X432054Y788670D01*
X454914Y811530D01*
X512064Y811530D01*
X523494Y800100D01*
X523494Y784098D01*
X603504Y704088D01*
X653796Y704088D01*
X694944Y662940D01*
X859536Y662940D01*
X939546Y582930D01*
X1051560Y582930D01*
D32*
X1051560Y582930D03*
X1088136Y560070D03*
D31*
X1076706Y406908D02*
X1122426Y406908D01*
X1126998Y411480D01*
X1076706Y406908D02*
X1076300Y406400D01*
X1126998Y411480D02*
X1128580Y412750D01*
X402336Y781812D02*
X370332Y781812D01*
X402336Y781812D02*
X484632Y699516D01*
X537210Y699516D01*
X578358Y658368D01*
X596646Y658368D01*
X630936Y624078D01*
X674370Y580644D02*
X731520Y523494D01*
X1065276Y395478D02*
X1065276Y384048D01*
X1065276Y395478D02*
X1074420Y404622D01*
X1076300Y406400D01*
D32*
X370332Y781812D03*
X630936Y624078D03*
X674370Y580644D03*
X731520Y523494D03*
X1065276Y384048D03*
D31*
X1076706Y443484D02*
X1122426Y443484D01*
X1126998Y438912D01*
X1076706Y443484D02*
X1076300Y444500D01*
X1126998Y438912D02*
X1128580Y438150D01*
X569214Y720090D02*
X475488Y720090D01*
X569214Y720090D02*
X587502Y701802D01*
X667512Y701802D02*
X770382Y701802D01*
X802386Y669798D01*
X882396Y589788D02*
X941832Y530352D01*
X994410Y530352D01*
X1044702Y480060D01*
X1065276Y459486D02*
X1065276Y454914D01*
X1074420Y445770D01*
X1076300Y444500D01*
D32*
X475488Y720090D03*
X587502Y701802D03*
X667512Y701802D03*
X802386Y669798D03*
X882396Y589788D03*
X1044702Y480060D03*
X1065276Y459486D03*
D31*
X1076706Y368046D02*
X1122426Y368046D01*
X1126998Y363474D01*
X1076706Y368046D02*
X1076300Y368300D01*
X1126998Y363474D02*
X1128580Y361950D01*
X813816Y564642D02*
X747522Y630936D01*
X882396Y537210D02*
X882396Y530352D01*
X932688Y480060D01*
X969264Y480060D01*
X1044702Y404622D01*
X1074420Y386334D02*
X1074420Y370332D01*
X1076300Y368300D01*
D32*
X747522Y630936D03*
X813816Y564642D03*
X882396Y537210D03*
X1044702Y404622D03*
X1074420Y386334D03*
D31*
X1058418Y267462D02*
X1053846Y267462D01*
X1051560Y267462D01*
X1058418Y267462D02*
X1126998Y336042D01*
X1051560Y267462D02*
X1050900Y266700D01*
X1126998Y336042D02*
X1128580Y336550D01*
X740664Y617220D02*
X740664Y624078D01*
X740664Y617220D02*
X813816Y544068D01*
X813816Y370332D01*
X1040130Y281178D02*
X1053846Y267462D01*
X1050900Y266700D01*
D32*
X740664Y624078D03*
X813816Y370332D03*
X1040130Y281178D03*
D31*
X1076706Y518922D02*
X1122426Y518922D01*
X1126998Y514350D01*
X1076706Y518922D02*
X1076300Y520700D01*
X1126998Y514350D02*
X1128580Y514350D01*
X747522Y642366D02*
X733806Y642366D01*
X747522Y642366D02*
X813816Y576072D01*
X1065276Y534924D02*
X1074420Y525780D01*
X1074420Y521208D01*
X1076300Y520700D01*
D32*
X733806Y642366D03*
X813816Y576072D03*
X1065276Y534924D03*
D31*
X1076706Y484632D02*
X1124712Y484632D01*
X1126998Y486918D01*
X1076706Y484632D02*
X1076300Y482600D01*
X1126998Y486918D02*
X1128580Y488950D01*
X509778Y790956D02*
X509778Y800100D01*
X509778Y790956D02*
X601218Y699516D01*
X651510Y699516D01*
X692658Y658368D01*
X838962Y658368D01*
X939546Y557784D01*
X1001268Y557784D01*
X1074420Y484632D01*
X509778Y800100D02*
X508000Y800100D01*
X1074420Y484632D02*
X1076300Y482600D01*
X265176Y221742D02*
X256032Y212598D01*
X265176Y235458D02*
X256032Y244602D01*
X256032Y212598D02*
X254000Y211700D01*
X254000Y243000D02*
X256032Y244602D01*
X253746Y244602D02*
X253746Y308610D01*
X260604Y315468D01*
X285750Y422910D02*
X304038Y441198D01*
X304038Y452628D01*
X370332Y518922D01*
X402336Y518922D01*
X596646Y722376D02*
X662940Y788670D01*
X825246Y788670D01*
X836676Y800100D01*
X253746Y244602D02*
X254000Y243000D01*
X836676Y800100D02*
X838200Y800100D01*
D32*
X265176Y221742D03*
X265176Y235458D03*
X260604Y315468D03*
X285750Y422910D03*
X402336Y518922D03*
X596646Y722376D03*
D31*
X201168Y212598D02*
X192024Y212598D01*
X192024Y233172D02*
X201168Y242316D01*
X201168Y212598D02*
X203200Y211700D01*
X201168Y242316D02*
X203200Y243000D01*
X338328Y468630D02*
X420624Y468630D01*
X429768Y477774D01*
X765810Y768096D02*
X829818Y768096D01*
X861822Y800100D01*
X863600Y800100D01*
D32*
X192024Y212598D03*
X192024Y233172D03*
X338328Y468630D03*
X429768Y477774D03*
X765810Y768096D03*
D31*
X100584Y242316D02*
X100584Y230886D01*
X86868Y217170D01*
X86868Y210312D01*
X221742Y-9144D02*
X374904Y-9144D01*
X381762Y-16002D01*
X678942Y-16002D01*
X790956Y96012D01*
X790956Y160020D01*
X813816Y182880D01*
X813816Y246888D01*
X101600Y243000D02*
X100584Y242316D01*
X1424178Y155448D02*
X1424178Y116586D01*
X1431036Y109728D01*
X1431036Y64008D01*
X1392174Y25146D01*
X1392174Y18288D01*
X1364742Y-9144D01*
X896112Y-9144D01*
X790956Y96012D01*
X1422400Y155600D02*
X1424178Y155448D01*
X763524Y317754D02*
X763524Y356616D01*
X762000Y358800D01*
X763524Y317754D02*
X762000Y317500D01*
D32*
X86868Y210312D03*
X221742Y-9144D03*
X813816Y246888D03*
D31*
X313182Y235458D02*
X306324Y242316D01*
X313182Y235458D02*
X315468Y235458D01*
X313182Y221742D02*
X317754Y221742D01*
X313182Y221742D02*
X306324Y214884D01*
X306324Y242316D02*
X304800Y243000D01*
X306324Y214884D02*
X304800Y212700D01*
X1085850Y198882D02*
X1115568Y169164D01*
X724662Y434340D02*
X720090Y434340D01*
X637794Y352044D01*
X1115568Y169164D02*
X1117600Y168300D01*
X386334Y338328D02*
X368046Y320040D01*
X386334Y338328D02*
X502920Y338328D01*
X518922Y354330D01*
D32*
X315468Y235458D03*
X317754Y221742D03*
X1085850Y198882D03*
X724662Y434340D03*
X637794Y352044D03*
X368046Y320040D03*
X518922Y354330D03*
D31*
X354330Y242316D02*
X347472Y235458D01*
X345186Y235458D01*
X347472Y221742D02*
X342900Y221742D01*
X347472Y221742D02*
X354330Y214884D01*
X354330Y242316D02*
X355600Y243000D01*
X354330Y214884D02*
X355600Y212700D01*
X345186Y235458D02*
X329184Y235458D01*
X317754Y246888D01*
X1010412Y123444D02*
X1053846Y166878D01*
X720090Y251460D02*
X688086Y251460D01*
X656082Y283464D01*
X1054100Y168300D02*
X1053846Y166878D01*
X416052Y182880D02*
X386334Y182880D01*
X416052Y182880D02*
X448056Y214884D01*
X448056Y219456D01*
X450342Y221742D01*
X466344Y221742D01*
X480060Y235458D01*
X480060Y244602D01*
X516636Y281178D01*
X573786Y281178D01*
X608076Y315468D01*
X609600Y317500D01*
D32*
X345186Y235458D03*
X342900Y221742D03*
X317754Y246888D03*
X1010412Y123444D03*
X720090Y251460D03*
X656082Y283464D03*
X386334Y182880D03*
D31*
X153162Y244602D02*
X153162Y301752D01*
X139446Y365760D02*
X139446Y445770D01*
X153162Y244602D02*
X152400Y243000D01*
X139446Y445770D02*
X139700Y447040D01*
X573786Y347472D02*
X582930Y356616D01*
X584200Y358800D01*
X1168146Y180594D02*
X1179576Y169164D01*
X1168146Y180594D02*
X1168146Y230886D01*
X720090Y422910D02*
X642366Y345186D01*
X596646Y345186D01*
X585216Y356616D01*
X1179576Y169164D02*
X1181100Y168300D01*
X585216Y356616D02*
X584200Y358800D01*
X196596Y345186D02*
X176022Y365760D01*
X196596Y345186D02*
X205740Y345186D01*
X210312Y349758D01*
X313182Y349758D01*
X345186Y317754D01*
X345186Y313182D01*
X361188Y297180D01*
X400050Y297180D01*
X409194Y306324D01*
X434340Y306324D01*
X445770Y317754D01*
X445770Y320040D01*
X454914Y329184D01*
X523494Y329184D01*
X528066Y333756D01*
X566928Y333756D01*
X582930Y317754D01*
X584200Y317500D01*
D32*
X153162Y301752D03*
X139446Y365760D03*
X573786Y347472D03*
X1168146Y230886D03*
X720090Y422910D03*
X176022Y365760D03*
D31*
X77724Y189738D02*
X52578Y189738D01*
X50800Y188800D01*
X77724Y189738D02*
X79400Y190500D01*
X34290Y205740D02*
X27432Y205740D01*
X34290Y205740D02*
X50292Y189738D01*
X27432Y205740D02*
X25400Y206400D01*
X50292Y189738D02*
X50800Y188800D01*
X546354Y315468D02*
X557784Y315468D01*
X546354Y315468D02*
X516636Y285750D01*
X505206Y285750D01*
X473202Y253746D01*
X450342Y253746D01*
X427482Y230886D01*
X402336Y230886D01*
X400050Y228600D01*
X221742Y228600D01*
X214884Y221742D01*
X160020Y221742D01*
X116586Y178308D01*
X91440Y178308D01*
X80010Y189738D01*
X557784Y315468D02*
X558800Y317500D01*
X80010Y189738D02*
X79400Y190500D01*
X50292Y244602D02*
X45720Y244602D01*
X38862Y251460D01*
X68580Y379476D02*
X107442Y379476D01*
X128016Y358902D01*
X146304Y358902D01*
X194310Y358902D02*
X237744Y358902D01*
X246888Y368046D01*
X450342Y368046D01*
X50800Y243000D02*
X50292Y244602D01*
X521208Y345186D02*
X532638Y356616D01*
X533400Y358800D01*
X1485900Y155600D02*
X1485900Y102870D01*
X1431036Y48006D01*
X1431036Y16002D01*
X1399032Y-16002D01*
X882396Y-16002D01*
X836676Y29718D01*
X836676Y82296D02*
X827532Y91440D01*
X827532Y178308D01*
X832104Y182880D01*
X731520Y208026D02*
X692658Y208026D01*
X692658Y235458D02*
X653796Y274320D01*
D32*
X38862Y251460D03*
X68580Y379476D03*
X146304Y358902D03*
X194310Y358902D03*
X450342Y368046D03*
X521208Y345186D03*
X836676Y29718D03*
X836676Y82296D03*
X832104Y182880D03*
X731520Y208026D03*
X692658Y208026D03*
X692658Y235458D03*
X653796Y274320D03*
D31*
X182880Y797814D02*
X102870Y797814D01*
X214884Y765810D02*
X281178Y699516D01*
X214884Y765810D02*
X182880Y797814D01*
X281178Y699516D02*
X329184Y699516D01*
X340614Y710946D01*
X102870Y797814D02*
X101600Y798400D01*
X340614Y710946D02*
X395478Y710946D01*
X396900Y711200D01*
X340614Y710946D02*
X339700Y711200D01*
X427482Y361188D02*
X251460Y361188D01*
X214884Y765810D02*
X212598Y765810D01*
X130302Y571500D02*
X130302Y482346D01*
X164592Y448056D01*
X165100Y447040D01*
D32*
X427482Y361188D03*
X251460Y361188D03*
X212598Y765810D03*
X130302Y571500D03*
D31*
X1504188Y315468D02*
X1504188Y272034D01*
X1517904Y258318D01*
X1545336Y258318D01*
X1554480Y267462D01*
X1554480Y665226D01*
X1513332Y706374D01*
X1458468Y706374D01*
X1115568Y706374D02*
X1090422Y706374D01*
X1081278Y697230D01*
X950976Y633222D02*
X950976Y608076D01*
X939800Y596900D01*
X1504188Y315468D02*
X1504320Y315560D01*
D32*
X1458468Y706374D03*
X1115568Y706374D03*
X1081278Y697230D03*
X950976Y633222D03*
D31*
X1511046Y288036D02*
X1536192Y288036D01*
X1460754Y301752D02*
X1460754Y310896D01*
X1456182Y315468D01*
X1536192Y288036D02*
X1536700Y288900D01*
X1456182Y315468D02*
X1456060Y315560D01*
X1296162Y630936D02*
X1291590Y630936D01*
X1296162Y630936D02*
X1339596Y674370D01*
X1373886Y674370D01*
X1392174Y692658D01*
X1472184Y699516D02*
X1513332Y699516D01*
X1549908Y662940D01*
X1549908Y301752D01*
X1538478Y290322D01*
X1536700Y288900D01*
D32*
X1511046Y288036D03*
X1460754Y301752D03*
X1291590Y630936D03*
X1392174Y692658D03*
X1472184Y699516D03*
D31*
X1122426Y747522D02*
X1076706Y747522D01*
X1122426Y747522D02*
X1126998Y742950D01*
X1076706Y747522D02*
X1076300Y749300D01*
X1126998Y742950D02*
X1128580Y742950D01*
X1046988Y758952D02*
X1040130Y758952D01*
X1046988Y758952D02*
X1049274Y761238D01*
X1065276Y761238D01*
X1076706Y749808D01*
X1076300Y749300D01*
D32*
X1040130Y758952D03*
D31*
X189738Y491490D02*
X189738Y448056D01*
X189738Y491490D02*
X187452Y493776D01*
X189738Y448056D02*
X190500Y447040D01*
X1076706Y635508D02*
X1088136Y635508D01*
X1092708Y640080D01*
X1115568Y640080D02*
X1126998Y640080D01*
X1076706Y635508D02*
X1076300Y635000D01*
X1126998Y640080D02*
X1128580Y641350D01*
X941832Y761238D02*
X941832Y772668D01*
X941832Y761238D02*
X950976Y752094D01*
X950976Y722376D01*
X964692Y708660D01*
X1024128Y708660D01*
X1042416Y690372D01*
X941832Y772668D02*
X939800Y774700D01*
X292608Y608076D02*
X292608Y601218D01*
X292608Y608076D02*
X310896Y626364D01*
X406908Y626364D01*
X614934Y729234D02*
X646938Y761238D01*
X941832Y761238D01*
X292608Y601218D02*
X292100Y599440D01*
D32*
X187452Y493776D03*
X1092708Y640080D03*
X1115568Y640080D03*
X1042416Y690372D03*
X406908Y626364D03*
X614934Y729234D03*
D31*
X468630Y212598D02*
X457200Y212598D01*
X450342Y235458D02*
X445770Y235458D01*
X450342Y235458D02*
X457200Y242316D01*
X457200Y212598D02*
X457200Y211700D01*
X457200Y242316D02*
X457200Y243000D01*
X724662Y541782D02*
X658368Y608076D01*
X617220Y608076D01*
X610362Y601218D01*
X610362Y482346D01*
X585216Y457200D01*
X486918Y358902D02*
X475488Y358902D01*
X461772Y345186D01*
D32*
X468630Y212598D03*
X445770Y235458D03*
X724662Y541782D03*
X585216Y457200D03*
X486918Y358902D03*
X461772Y345186D03*
D31*
X1533906Y317754D02*
X1543050Y326898D01*
X1451610Y454914D02*
X1394460Y512064D01*
X1394460Y514350D01*
X1369314Y539496D02*
X1321308Y539496D01*
X1319022Y537210D01*
X1533906Y317754D02*
X1532260Y315560D01*
D32*
X1543050Y326898D03*
X1451610Y454914D03*
X1394460Y514350D03*
X1369314Y539496D03*
X1319022Y537210D03*
D31*
X1410462Y294894D02*
X1410462Y290322D01*
X1412748Y297180D02*
X1426464Y310896D01*
X1412748Y297180D02*
X1410462Y294894D01*
X1426464Y310896D02*
X1426464Y315468D01*
X1410462Y290322D02*
X1409700Y288900D01*
X1426464Y315468D02*
X1428120Y315560D01*
X1097280Y646938D02*
X966978Y646938D01*
X1097280Y646938D02*
X1110996Y633222D01*
X1136142Y633222D01*
X1170432Y667512D01*
X1170432Y683514D01*
X1175004Y688086D01*
X1191006Y688086D01*
X1202436Y676656D01*
X1202436Y674370D01*
X1257300Y619506D01*
X1312164Y619506D01*
X1387602Y544068D01*
X1387602Y461772D01*
X1399032Y450342D01*
X1399032Y310896D01*
X1412748Y297180D01*
X966978Y646938D02*
X965200Y647700D01*
X1076706Y713232D02*
X1124712Y713232D01*
X1126998Y715518D01*
X1076706Y713232D02*
X1076300Y711200D01*
X1126998Y715518D02*
X1128580Y717550D01*
X1040130Y747522D02*
X966978Y747522D01*
X1040130Y747522D02*
X1074420Y713232D01*
X966978Y747522D02*
X965200Y749300D01*
X1074420Y713232D02*
X1076300Y711200D01*
X1076706Y672084D02*
X1122426Y672084D01*
X1126998Y667512D01*
X1076706Y672084D02*
X1076300Y673100D01*
X1126998Y667512D02*
X1128580Y666750D01*
X964692Y763524D02*
X964692Y772668D01*
X964692Y763524D02*
X955548Y754380D01*
X955548Y745236D01*
X966978Y733806D01*
X1014984Y733806D01*
X1074420Y674370D01*
X964692Y772668D02*
X965200Y774700D01*
X1074420Y674370D02*
X1076300Y673100D01*
X107442Y166878D02*
X100584Y166878D01*
X107442Y166878D02*
X112014Y171450D01*
X112014Y185166D02*
X105156Y185166D01*
X100584Y189738D01*
X100584Y166878D02*
X98400Y165100D01*
X100584Y189738D02*
X98400Y190500D01*
X939546Y187452D02*
X939546Y217170D01*
X939546Y187452D02*
X939800Y187300D01*
X939546Y217170D02*
X939800Y219100D01*
X116586Y185166D02*
X112014Y185166D01*
X116586Y185166D02*
X157734Y226314D01*
X212598Y226314D01*
X237744Y251460D01*
X242316Y251460D01*
X292608Y251460D02*
X294894Y251460D01*
X297180Y253746D01*
X429768Y253746D01*
X434340Y249174D01*
X706374Y269748D02*
X752094Y269748D01*
X786384Y304038D01*
X925830Y233172D02*
X939546Y219456D01*
X939800Y219100D01*
D32*
X112014Y171450D03*
X112014Y185166D03*
X242316Y251460D03*
X292608Y251460D03*
X434340Y249174D03*
X706374Y269748D03*
X786384Y304038D03*
X925830Y233172D03*
D31*
X699516Y182880D02*
X699516Y153162D01*
X722376Y130302D01*
X731520Y130302D01*
X736092Y134874D01*
X736092Y137160D02*
X736092Y182880D01*
X736092Y137160D02*
X736092Y134874D01*
X699516Y182880D02*
X698500Y184200D01*
X736092Y182880D02*
X736600Y184200D01*
X738378Y185166D02*
X772668Y185166D01*
X774700Y184200D01*
X738378Y185166D02*
X736600Y184200D01*
X866394Y169164D02*
X939546Y169164D01*
X788670Y169164D02*
X774954Y182880D01*
X939546Y169164D02*
X939800Y168300D01*
X774954Y182880D02*
X774700Y184200D01*
X1451610Y685800D02*
X1451610Y747522D01*
X1451610Y685800D02*
X1451000Y685800D01*
X1451610Y747522D02*
X1451000Y749300D01*
X1451610Y557784D02*
X1451610Y496062D01*
X1451000Y495300D01*
X1451610Y557784D02*
X1451000Y558800D01*
X1451610Y560070D02*
X1451610Y621792D01*
X1451000Y622300D01*
X1451610Y560070D02*
X1451000Y558800D01*
X1449324Y667512D02*
X1449324Y685800D01*
X1449324Y640080D02*
X1449324Y624078D01*
X1449324Y685800D02*
X1451000Y685800D01*
X1449324Y624078D02*
X1451000Y622300D01*
X173736Y102870D02*
X173736Y59436D01*
X189738Y43434D01*
X217170Y43434D01*
X173736Y102870D02*
X173700Y103500D01*
X1451610Y493776D02*
X1490472Y454914D01*
X1515618Y454914D01*
X1451610Y493776D02*
X1451000Y495300D01*
X749808Y137160D02*
X736092Y137160D01*
X749808Y137160D02*
X752094Y134874D01*
X752094Y123444D01*
X706374Y77724D01*
X706374Y48006D01*
X683514Y25146D01*
X614934Y25146D01*
X613700Y23500D01*
D32*
X866394Y169164D03*
X788670Y169164D03*
X1449324Y667512D03*
X1449324Y640080D03*
X217170Y43434D03*
X1515618Y454914D03*
D31*
X432054Y25146D02*
X413766Y25146D01*
X432054Y25146D02*
X452628Y45720D01*
X496062Y45720D01*
X512064Y61722D01*
X413766Y25146D02*
X413700Y23500D01*
X512064Y61722D02*
X513700Y63500D01*
X532638Y82296D02*
X532638Y102870D01*
X532638Y82296D02*
X514350Y64008D01*
X532638Y102870D02*
X533700Y103500D01*
X514350Y64008D02*
X513700Y63500D01*
X614934Y176022D02*
X633222Y176022D01*
X614934Y176022D02*
X544068Y105156D01*
X534924Y105156D01*
X633222Y176022D02*
X635000Y178200D01*
X534924Y105156D02*
X533700Y103500D01*
X173736Y276606D02*
X162306Y265176D01*
X203454Y276606D02*
X214884Y265176D01*
X162306Y265176D02*
X161900Y265000D01*
X212700Y265000D02*
X214884Y265176D01*
X262890Y265176D02*
X262890Y278892D01*
X262890Y265176D02*
X263500Y265000D01*
X315468Y265176D02*
X333756Y265176D01*
X354330Y276606D02*
X365760Y265176D01*
X315468Y265176D02*
X314300Y265000D01*
X365100Y265000D02*
X365760Y265176D01*
X228600Y340614D02*
X212598Y340614D01*
X178308Y340614D01*
X177800Y339700D01*
X228600Y340614D02*
X278892Y340614D01*
X279400Y339700D01*
X228600Y339700D02*
X228600Y340614D01*
X107442Y560070D02*
X100584Y560070D01*
X107442Y560070D02*
X125730Y578358D01*
X134874Y578358D01*
X137160Y576072D01*
X137160Y555498D01*
X203454Y489204D01*
X203454Y404622D01*
X169164Y370332D01*
X169164Y347472D01*
X176022Y340614D01*
X98400Y558800D02*
X100584Y560070D01*
X176022Y340614D02*
X177800Y339700D01*
X281178Y338328D02*
X333756Y285750D01*
X281178Y338328D02*
X279400Y339700D01*
X306324Y194310D02*
X354330Y194310D01*
X306324Y194310D02*
X304800Y193700D01*
X354330Y194310D02*
X355600Y193700D01*
X329184Y162306D02*
X269748Y162306D01*
X244602Y187452D01*
X244602Y201168D01*
X246888Y203454D01*
X294894Y203454D01*
X304038Y194310D01*
X329184Y162306D02*
X330200Y161900D01*
X304800Y193700D02*
X304038Y194310D01*
X356616Y194310D02*
X404622Y194310D01*
X406400Y193700D01*
X356616Y194310D02*
X355600Y193700D01*
X54864Y178308D02*
X43434Y166878D01*
X54864Y178308D02*
X66294Y178308D01*
X77724Y166878D01*
X43434Y166878D02*
X41300Y166800D01*
X77724Y166878D02*
X79400Y165100D01*
X77724Y262890D02*
X61722Y262890D01*
X77724Y262890D02*
X86868Y253746D01*
X100584Y253746D01*
X109728Y262890D01*
X61722Y262890D02*
X60300Y265000D01*
X109728Y262890D02*
X111100Y265000D01*
X52578Y226314D02*
X32004Y226314D01*
X27432Y226314D01*
X52578Y226314D02*
X59436Y233172D01*
X59436Y262890D01*
X27432Y226314D02*
X25400Y225400D01*
X59436Y262890D02*
X60300Y265000D01*
X98298Y338328D02*
X125730Y338328D01*
X98298Y338328D02*
X32004Y272034D01*
X32004Y226314D01*
X125730Y338328D02*
X127000Y339700D01*
X32004Y226314D02*
X25400Y225400D01*
X38862Y489204D02*
X38862Y534924D01*
X38862Y489204D02*
X50292Y477774D01*
X50292Y386334D01*
X98298Y338328D01*
X38862Y534924D02*
X38100Y536600D01*
X41148Y171450D02*
X41148Y166878D01*
X41148Y171450D02*
X13716Y198882D01*
X13716Y214884D01*
X25146Y226314D01*
X41148Y166878D02*
X41300Y166800D01*
X25400Y225400D02*
X25146Y226314D01*
X212598Y201168D02*
X244602Y201168D01*
X212598Y201168D02*
X210312Y203454D01*
X194310Y203454D02*
X155448Y203454D01*
X194310Y203454D02*
X210312Y203454D01*
X155448Y203454D02*
X105156Y153162D01*
X91440Y153162D01*
X80010Y164592D01*
X79400Y165100D01*
X128016Y340614D02*
X146304Y340614D01*
X128016Y340614D02*
X127000Y339700D01*
X272034Y109728D02*
X272034Y64008D01*
X272034Y109728D02*
X194310Y187452D01*
X194310Y203454D01*
X272034Y64008D02*
X273700Y63500D01*
X249174Y685800D02*
X249174Y690372D01*
X198882Y740664D02*
X182880Y756666D01*
X198882Y740664D02*
X249174Y690372D01*
X182880Y756666D02*
X153162Y756666D01*
X249174Y685800D02*
X250800Y685800D01*
X153162Y756666D02*
X152400Y758800D01*
X91440Y777240D02*
X52578Y777240D01*
X50800Y777900D01*
X342900Y784098D02*
X413766Y713232D01*
X342900Y784098D02*
X283464Y784098D01*
X267462Y800100D01*
X413766Y713232D02*
X415900Y711200D01*
X267462Y800100D02*
X266700Y800100D01*
X91440Y804672D02*
X91440Y777240D01*
X91440Y804672D02*
X96012Y809244D01*
X178308Y809244D01*
X205740Y781812D01*
X240030Y781812D01*
X92100Y776400D02*
X91440Y777240D01*
X198882Y740664D02*
X203454Y745236D01*
X747522Y569214D02*
X747522Y532638D01*
X770382Y509778D01*
X747522Y569214D02*
X746100Y569800D01*
X770382Y509778D02*
X771500Y508000D01*
X532638Y397764D02*
X532638Y379476D01*
X532638Y397764D02*
X521208Y409194D01*
X532638Y379476D02*
X533400Y377800D01*
X534924Y379476D02*
X582930Y379476D01*
X584200Y377800D01*
X534924Y379476D02*
X533400Y377800D01*
X614934Y409194D02*
X621792Y409194D01*
X614934Y409194D02*
X585216Y379476D01*
X621792Y409194D02*
X622300Y409600D01*
X585216Y379476D02*
X584200Y377800D01*
X658368Y445770D02*
X672084Y445770D01*
X658368Y445770D02*
X624078Y411480D01*
X672084Y445770D02*
X673100Y447700D01*
X624078Y411480D02*
X622300Y409600D01*
X571500Y459486D02*
X564642Y459486D01*
X562356Y457200D02*
X532638Y427482D01*
X562356Y457200D02*
X564642Y459486D01*
X532638Y427482D02*
X532638Y420624D01*
X521208Y409194D01*
X571500Y459486D02*
X571500Y460400D01*
X521208Y409194D02*
X520700Y409600D01*
X699516Y473202D02*
X699516Y507492D01*
X699516Y473202D02*
X674370Y448056D01*
X699516Y507492D02*
X701700Y508000D01*
X674370Y448056D02*
X673100Y447700D01*
X770382Y475488D02*
X770382Y507492D01*
X765810Y470916D02*
X745236Y450342D01*
X765810Y470916D02*
X770382Y475488D01*
X745236Y450342D02*
X722376Y450342D01*
X699516Y473202D01*
X770382Y507492D02*
X771500Y508000D01*
X566928Y635508D02*
X566928Y637794D01*
X573786Y644652D01*
X582930Y644652D01*
X592074Y635508D01*
X566928Y635508D02*
X565150Y633280D01*
X590550Y633280D02*
X592074Y635508D01*
X489204Y633222D02*
X489204Y628650D01*
X496062Y621792D01*
X507492Y621792D01*
X514350Y628650D01*
X514350Y633280D01*
X489204Y633222D02*
X488950Y633280D01*
X541782Y635508D02*
X564642Y635508D01*
X541782Y635508D02*
X532638Y644652D01*
X521208Y644652D01*
X514350Y637794D01*
X514350Y633280D01*
X564642Y635508D02*
X565150Y633280D01*
X482346Y448056D02*
X445770Y411480D01*
X482346Y448056D02*
X482346Y459486D01*
X445770Y411480D02*
X444500Y409600D01*
X482346Y459486D02*
X482600Y460400D01*
X413766Y283464D02*
X413766Y276606D01*
X413766Y265176D01*
X413766Y283464D02*
X409194Y288036D01*
X413766Y265176D02*
X415900Y265000D01*
X457200Y274320D02*
X466344Y265176D01*
X457200Y274320D02*
X457200Y276606D01*
X427482Y276606D02*
X413766Y276606D01*
X466344Y265176D02*
X466700Y265000D01*
X443484Y411480D02*
X404622Y411480D01*
X370332Y445770D01*
X443484Y411480D02*
X444500Y409600D01*
X370332Y445770D02*
X368300Y447040D01*
X589788Y628650D02*
X589788Y633222D01*
X589788Y628650D02*
X557784Y596646D01*
X530352Y596646D01*
X516636Y582930D01*
X516636Y486918D02*
X516636Y477774D01*
X516636Y486918D02*
X516636Y582930D01*
X516636Y477774D02*
X500634Y461772D01*
X484632Y461772D01*
X589788Y633222D02*
X590550Y633280D01*
X484632Y461772D02*
X482600Y460400D01*
X546354Y473202D02*
X562356Y457200D01*
X546354Y473202D02*
X546354Y484632D01*
X544068Y486918D01*
X516636Y486918D01*
X205740Y489204D02*
X203454Y489204D01*
X1410462Y272034D02*
X1417320Y278892D01*
X1419606Y278892D01*
X1440180Y299466D01*
X1440180Y315468D01*
X1410462Y272034D02*
X1409700Y269900D01*
X1440180Y315468D02*
X1442080Y315560D01*
X1447038Y441198D02*
X1405890Y441198D01*
X1447038Y441198D02*
X1447800Y441300D01*
X1408176Y269748D02*
X1385316Y269748D01*
X1362456Y292608D01*
X1362456Y363474D01*
X1346454Y379476D01*
X1408176Y269748D02*
X1409700Y269900D01*
X1346454Y379476D02*
X1346200Y381000D01*
X1515618Y272034D02*
X1536192Y272034D01*
X1536700Y269900D01*
X1517904Y294894D02*
X1517904Y315468D01*
X1518280Y315560D01*
X1344168Y374904D02*
X1344168Y379476D01*
X1344168Y374904D02*
X1328166Y358902D01*
X1328166Y306324D01*
X1362456Y272034D01*
X1362456Y219456D01*
X1346200Y203200D01*
X1344168Y379476D02*
X1346200Y381000D01*
X1511046Y765810D02*
X1511046Y811530D01*
X1511046Y765810D02*
X1559052Y717804D01*
X1559052Y265176D01*
X1520190Y226314D01*
X1479042Y226314D02*
X1424178Y226314D01*
X1479042Y226314D02*
X1520190Y226314D01*
X1511046Y811530D02*
X1509100Y812800D01*
X1424178Y226314D02*
X1422400Y225400D01*
X1488186Y406908D02*
X1522476Y441198D01*
X1488186Y406908D02*
X1488186Y397764D01*
X1479042Y388620D01*
X1479042Y272034D02*
X1479042Y226314D01*
X1479042Y272034D02*
X1479042Y388620D01*
X1522476Y441198D02*
X1524000Y441300D01*
X747522Y715518D02*
X699516Y715518D01*
X698500Y714400D01*
X747522Y715518D02*
X749300Y714400D01*
X749808Y715518D02*
X800100Y715518D01*
X800100Y714400D01*
X749808Y715518D02*
X749300Y714400D01*
X1058418Y747522D02*
X1074420Y731520D01*
X1126998Y731520D01*
X1058418Y747522D02*
X1057300Y749300D01*
X1126998Y731520D02*
X1128580Y730250D01*
X1129284Y754380D02*
X1133856Y754380D01*
X1140714Y747522D01*
X1140714Y738378D01*
X1133856Y731520D01*
X1129284Y731520D01*
X1129284Y754380D02*
X1128580Y755650D01*
X1129284Y731520D02*
X1128580Y730250D01*
X1058418Y672084D02*
X1074420Y656082D01*
X1126998Y656082D01*
X1058418Y672084D02*
X1057300Y673100D01*
X1126998Y656082D02*
X1128580Y654050D01*
X1065276Y704088D02*
X1058418Y710946D01*
X1065276Y704088D02*
X1065276Y701802D01*
X1081278Y685800D01*
X1122426Y685800D01*
X1126998Y681228D01*
X1058418Y710946D02*
X1057300Y711200D01*
X1126998Y681228D02*
X1128580Y679450D01*
X1305306Y633222D02*
X1344168Y633222D01*
X1305306Y633222D02*
X1296162Y624078D01*
X1259586Y624078D01*
X1207008Y676656D01*
X1207008Y678942D01*
X1193292Y692658D01*
X1140714Y692658D01*
X1131570Y683514D02*
X1129284Y681228D01*
X1131570Y683514D02*
X1140714Y692658D01*
X1344168Y633222D02*
X1346200Y635000D01*
X1129284Y681228D02*
X1128580Y679450D01*
X1129284Y656082D02*
X1133856Y656082D01*
X1140714Y662940D01*
X1140714Y674370D01*
X1131570Y683514D01*
X1129284Y656082D02*
X1128580Y654050D01*
X1140714Y724662D02*
X1133856Y731520D01*
X1140714Y724662D02*
X1140714Y692658D01*
X1133856Y731520D02*
X1128580Y730250D01*
X909828Y713232D02*
X800100Y713232D01*
X909828Y713232D02*
X939546Y683514D01*
X955548Y683514D02*
X1046988Y683514D01*
X955548Y683514D02*
X939546Y683514D01*
X1046988Y683514D02*
X1056132Y674370D01*
X800100Y713232D02*
X800100Y714400D01*
X1056132Y674370D02*
X1057300Y673100D01*
X1005840Y240030D02*
X992124Y240030D01*
X1005840Y240030D02*
X1030986Y265176D01*
X992124Y240030D02*
X990600Y238100D01*
X1030986Y265176D02*
X1031900Y266700D01*
X1058418Y370332D02*
X1058418Y404622D01*
X1058418Y370332D02*
X1057300Y368300D01*
X1058418Y404622D02*
X1057300Y406400D01*
X1058418Y445770D02*
X1058418Y482346D01*
X1058418Y445770D02*
X1057300Y444500D01*
X1058418Y482346D02*
X1057300Y482600D01*
X1058418Y443484D02*
X1058418Y425196D01*
X1058418Y406908D01*
X1057300Y406400D01*
X1058418Y443484D02*
X1057300Y444500D01*
X1033272Y301752D02*
X1033272Y267462D01*
X1033272Y301752D02*
X1056132Y324612D01*
X1056132Y368046D01*
X1033272Y267462D02*
X1031900Y266700D01*
X1058418Y521208D02*
X1058418Y557784D01*
X1058418Y521208D02*
X1057300Y520700D01*
X1058418Y557784D02*
X1057300Y558800D01*
X1058418Y598932D02*
X1058418Y633222D01*
X1058418Y598932D02*
X1057300Y596900D01*
X1058418Y633222D02*
X1057300Y635000D01*
X1058418Y596646D02*
X1058418Y578358D01*
X1058418Y560070D01*
X1057300Y558800D01*
X1058418Y596646D02*
X1057300Y596900D01*
X1129284Y578358D02*
X1133856Y578358D01*
X1140714Y585216D01*
X1140714Y594360D01*
X1133856Y601218D01*
X1129284Y601218D01*
X1129284Y578358D02*
X1128580Y577850D01*
X1129284Y601218D02*
X1128580Y603250D01*
X1129284Y502920D02*
X1133856Y502920D01*
X1140714Y509778D01*
X1140714Y518922D01*
X1133856Y525780D01*
X1129284Y525780D01*
X1129284Y502920D02*
X1128580Y501650D01*
X1129284Y525780D02*
X1128580Y527050D01*
X1129284Y349758D02*
X1133856Y349758D01*
X1140714Y356616D01*
X1140714Y365760D01*
X1133856Y372618D01*
X1129284Y372618D01*
X1129284Y349758D02*
X1128580Y349250D01*
X1129284Y372618D02*
X1128580Y374650D01*
X1129284Y427482D02*
X1133856Y427482D01*
X1140714Y434340D01*
X1140714Y443484D01*
X1133856Y450342D01*
X1129284Y450342D01*
X1129284Y427482D02*
X1128580Y425450D01*
X1129284Y450342D02*
X1128580Y450850D01*
X1129284Y397764D02*
X1129284Y374904D01*
X1129284Y397764D02*
X1140714Y409194D01*
X1140714Y420624D01*
X1133856Y427482D01*
X1129284Y374904D02*
X1128580Y374650D01*
X1128580Y425450D02*
X1133856Y427482D01*
X1140714Y496062D02*
X1133856Y502920D01*
X1140714Y496062D02*
X1140714Y457200D01*
X1133856Y450342D01*
X1128580Y501650D02*
X1133856Y502920D01*
X1128580Y450850D02*
X1133856Y450342D01*
X1140714Y571500D02*
X1133856Y578358D01*
X1140714Y571500D02*
X1140714Y532638D01*
X1133856Y525780D01*
X1128580Y577850D02*
X1133856Y578358D01*
X1128580Y527050D02*
X1133856Y525780D01*
X1126998Y578358D02*
X1058418Y578358D01*
X1126998Y578358D02*
X1128580Y577850D01*
X1126998Y425196D02*
X1058418Y425196D01*
X1126998Y425196D02*
X1128580Y425450D01*
X1117854Y237744D02*
X1179576Y237744D01*
X1117854Y237744D02*
X1117600Y238100D01*
X1179576Y237744D02*
X1181100Y238100D01*
X1115568Y237744D02*
X1099566Y237744D01*
X1078992Y217170D01*
X1078992Y173736D01*
X1033272Y128016D01*
X1026414Y128016D01*
X1014984Y116586D01*
X1014984Y105156D01*
X1115568Y237744D02*
X1117600Y238100D01*
X1014984Y105156D02*
X1013800Y103500D01*
X1056132Y240030D02*
X1065276Y249174D01*
X1056132Y240030D02*
X1054100Y238100D01*
X784098Y377190D02*
X763524Y377190D01*
X762000Y377800D01*
X939546Y331470D02*
X939546Y240030D01*
X939546Y331470D02*
X932688Y338328D01*
X932688Y356616D02*
X932688Y361188D01*
X932688Y356616D02*
X932688Y338328D01*
X932688Y361188D02*
X939800Y368300D01*
X939546Y240030D02*
X939800Y238100D01*
X836676Y397764D02*
X836676Y409194D01*
X836676Y397764D02*
X829818Y390906D01*
X829818Y372618D01*
X832104Y370332D01*
X836676Y409194D02*
X838200Y409600D01*
X877824Y445770D02*
X914400Y409194D01*
X914400Y374904D01*
X932688Y356616D01*
X877824Y445770D02*
X876300Y447700D01*
X941832Y368046D02*
X964692Y368046D01*
X965200Y368300D01*
X941832Y368046D02*
X939800Y368300D01*
X966978Y368046D02*
X1056132Y368046D01*
X1057300Y368300D01*
X966978Y368046D02*
X965200Y368300D01*
X955548Y642366D02*
X955548Y683514D01*
X955548Y642366D02*
X962406Y635508D01*
X1056132Y635508D01*
X1057300Y635000D01*
X1405890Y482346D02*
X1405890Y441198D01*
X1405890Y482346D02*
X1394460Y493776D01*
X772668Y464058D02*
X765810Y470916D01*
X784098Y452628D02*
X784098Y377190D01*
X786384Y377190D01*
D32*
X173736Y276606D03*
X203454Y276606D03*
X262890Y278892D03*
X333756Y265176D03*
X354330Y276606D03*
X333756Y285750D03*
X212598Y340614D03*
X146304Y340614D03*
X240030Y781812D03*
X203454Y745236D03*
X409194Y288036D03*
X457200Y276606D03*
X427482Y276606D03*
X205740Y489204D03*
X1405890Y441198D03*
X1515618Y272034D03*
X1517904Y294894D03*
X1479042Y272034D03*
X1065276Y249174D03*
X786384Y377190D03*
X832104Y370332D03*
X1394460Y493776D03*
X772668Y464058D03*
X784098Y452628D03*
D31*
X861822Y253746D02*
X861822Y237744D01*
X861822Y253746D02*
X860400Y254000D01*
X729234Y571500D02*
X738378Y580644D01*
X752094Y580644D01*
X781812Y550926D01*
X781812Y461772D01*
X690372Y370332D02*
X644652Y324612D01*
X690372Y370332D02*
X781812Y461772D01*
X644652Y324612D02*
X644652Y304038D01*
X612648Y272034D01*
X612648Y253746D02*
X612648Y251460D01*
X612648Y253746D02*
X612648Y272034D01*
X727100Y569800D02*
X729234Y571500D01*
X612648Y251460D02*
X612200Y251200D01*
X612648Y253746D02*
X594360Y253746D01*
X593700Y254000D01*
X612200Y251200D02*
X612648Y253746D01*
X720090Y340614D02*
X690372Y370332D01*
X1449324Y768096D02*
X1449324Y811530D01*
X1449324Y768096D02*
X1435608Y754380D01*
X1435608Y678942D01*
X1449324Y811530D02*
X1451000Y812800D01*
X1517904Y384048D02*
X1517904Y370332D01*
X1518280Y370240D01*
X1447038Y374904D02*
X1442466Y370332D01*
X1447038Y374904D02*
X1447038Y377190D01*
X1451610Y381762D01*
X1458468Y381762D02*
X1460754Y381762D01*
X1458468Y381762D02*
X1451610Y381762D01*
X1460754Y381762D02*
X1467612Y374904D01*
X1467612Y297180D01*
X1408176Y237744D02*
X1346454Y176022D01*
X1408176Y237744D02*
X1467612Y297180D01*
X1442466Y370332D02*
X1442080Y370240D01*
X1346200Y177800D02*
X1346454Y176022D01*
X1346454Y299466D02*
X1346454Y354330D01*
X1346454Y299466D02*
X1408176Y237744D01*
X1346454Y354330D02*
X1346200Y355600D01*
X1346454Y592074D02*
X1346454Y608076D01*
X1346454Y592074D02*
X1435608Y502920D01*
X1435608Y482346D01*
X1479042Y438912D01*
X1479042Y402336D01*
X1458468Y381762D01*
X1346454Y608076D02*
X1346200Y609600D01*
X109728Y770382D02*
X109728Y774954D01*
X73152Y733806D02*
X50292Y710946D01*
X73152Y733806D02*
X109728Y770382D01*
X50292Y710946D02*
X50292Y569214D01*
X38862Y557784D01*
X109728Y774954D02*
X111100Y776400D01*
X38862Y557784D02*
X38100Y555600D01*
X61722Y164592D02*
X68580Y157734D01*
X68580Y155448D01*
X91440Y132588D01*
X187452Y132588D01*
X214884Y105156D01*
X61722Y164592D02*
X60300Y166800D01*
X213700Y103500D02*
X214884Y105156D01*
X448056Y294894D02*
X448056Y306324D01*
X448056Y294894D02*
X448056Y265176D01*
X448056Y306324D02*
X457200Y315468D01*
X448056Y265176D02*
X447700Y265000D01*
X308610Y276606D02*
X297180Y265176D01*
X308610Y276606D02*
X333756Y276606D01*
X338328Y272034D02*
X345186Y265176D01*
X338328Y272034D02*
X333756Y276606D01*
X297180Y265176D02*
X295300Y265000D01*
X345186Y265176D02*
X346100Y265000D01*
X381762Y265176D02*
X395478Y265176D01*
X381762Y265176D02*
X363474Y283464D01*
X349758Y283464D01*
X338328Y272034D01*
X395478Y265176D02*
X396900Y265000D01*
X404622Y294894D02*
X448056Y294894D01*
X404622Y294894D02*
X397764Y288036D01*
X397764Y265176D01*
X396900Y265000D01*
X326898Y448056D02*
X317754Y448056D01*
X326898Y448056D02*
X338328Y459486D01*
X381762Y459486D01*
X393192Y448056D01*
X317754Y448056D02*
X317500Y447040D01*
X393192Y448056D02*
X393700Y447040D01*
X54864Y276606D02*
X43434Y265176D01*
X54864Y276606D02*
X80010Y276606D01*
X91440Y265176D01*
X43434Y265176D02*
X41300Y265000D01*
X91440Y265176D02*
X92100Y265000D01*
X128016Y265176D02*
X141732Y265176D01*
X128016Y265176D02*
X116586Y276606D01*
X105156Y276606D01*
X93726Y265176D01*
X141732Y265176D02*
X142900Y265000D01*
X93726Y265176D02*
X92100Y265000D01*
X194310Y262890D02*
X203454Y253746D01*
X233172Y253746D01*
X242316Y262890D01*
X194310Y262890D02*
X193700Y265000D01*
X242316Y262890D02*
X244500Y265000D01*
X228600Y322326D02*
X194310Y322326D01*
X178308Y322326D01*
X177800Y320700D01*
X80010Y525780D02*
X80010Y544068D01*
X80010Y557784D01*
X141732Y464058D02*
X153162Y452628D01*
X141732Y464058D02*
X80010Y525780D01*
X153162Y452628D02*
X153162Y345186D01*
X169164Y329184D02*
X176022Y322326D01*
X169164Y329184D02*
X153162Y345186D01*
X80010Y557784D02*
X79400Y558800D01*
X176022Y322326D02*
X177800Y320700D01*
X228600Y322326D02*
X278892Y322326D01*
X279400Y320700D01*
X228600Y320700D02*
X228600Y322326D01*
X194310Y322326D02*
X194310Y265176D01*
X193700Y265000D01*
X144018Y265176D02*
X144018Y304038D01*
X169164Y329184D01*
X144018Y265176D02*
X142900Y265000D01*
X139446Y461772D02*
X141732Y464058D01*
X308610Y292608D02*
X308610Y276606D01*
X308610Y292608D02*
X281178Y320040D01*
X279400Y320700D01*
X93726Y217170D02*
X93726Y203454D01*
X93726Y217170D02*
X128016Y251460D01*
X128016Y265176D01*
X54864Y569214D02*
X50292Y569214D01*
X1332738Y813816D02*
X1449324Y813816D01*
X1332738Y813816D02*
X1316736Y829818D01*
X64008Y829818D01*
X38862Y804672D01*
X38862Y768096D01*
X73152Y733806D01*
X1449324Y813816D02*
X1451000Y812800D01*
X644652Y324612D02*
X640080Y329184D01*
X605790Y329184D01*
X594360Y317754D01*
X594360Y313182D01*
X587502Y306324D01*
X580644Y306324D01*
X569214Y317754D01*
X569214Y322326D01*
X562356Y329184D01*
X530352Y329184D01*
X518922Y317754D01*
X518922Y313182D01*
X512064Y306324D01*
X466344Y306324D01*
X457200Y315468D01*
X457200Y317500D01*
D32*
X861822Y237744D03*
X720090Y340614D03*
X1435608Y678942D03*
X1517904Y384048D03*
X139446Y461772D03*
X93726Y203454D03*
X54864Y569214D03*
X80010Y544068D03*
D31*
X992124Y217170D02*
X992124Y187452D01*
X990600Y187300D01*
X992124Y217170D02*
X990600Y219100D01*
X1040130Y187452D02*
X1053846Y187452D01*
X1053846Y219456D02*
X1040130Y219456D01*
X1053846Y187452D02*
X1054100Y187300D01*
X1054100Y219100D02*
X1053846Y219456D01*
X994410Y141732D02*
X912114Y141732D01*
X653796Y109728D02*
X644652Y109728D01*
X612648Y77724D01*
X603504Y77724D01*
X601218Y80010D01*
X582930Y80010D01*
X580644Y77724D01*
D32*
X1040130Y187452D03*
X1040130Y219456D03*
X994410Y141732D03*
X912114Y141732D03*
X653796Y109728D03*
X580644Y77724D03*
D31*
X404622Y242316D02*
X397764Y235458D01*
X395478Y235458D01*
X397764Y221742D02*
X393192Y221742D01*
X397764Y221742D02*
X404622Y214884D01*
X404622Y242316D02*
X406400Y243000D01*
X404622Y214884D02*
X406400Y212700D01*
X950976Y208026D02*
X989838Y169164D01*
X950976Y208026D02*
X950976Y308610D01*
X742950Y338328D02*
X699516Y294894D01*
X468630Y235458D02*
X459486Y226314D01*
X418338Y226314D01*
X406908Y214884D01*
X989838Y169164D02*
X990600Y168300D01*
X406908Y214884D02*
X406400Y212700D01*
D32*
X395478Y235458D03*
X393192Y221742D03*
X950976Y308610D03*
X742950Y338328D03*
X699516Y294894D03*
X468630Y235458D03*
D31*
X1117854Y217170D02*
X1117854Y187452D01*
X1117600Y187300D01*
X1117854Y217170D02*
X1117600Y219100D01*
X1115568Y219456D02*
X1104138Y230886D01*
X1010412Y342900D02*
X939546Y342900D01*
X797814Y342900D02*
X797814Y363474D01*
X797814Y342900D02*
X772668Y317754D01*
X772668Y313182D01*
X745236Y285750D01*
X694944Y285750D01*
X628650Y224028D02*
X610362Y224028D01*
X507492Y121158D01*
X484632Y121158D02*
X470916Y107442D01*
X470916Y96012D01*
X457200Y82296D01*
X395478Y82296D01*
X374904Y102870D01*
X1115568Y219456D02*
X1117600Y219100D01*
X374904Y102870D02*
X373700Y103500D01*
D32*
X1104138Y230886D03*
X1010412Y342900D03*
X939546Y342900D03*
X797814Y363474D03*
X694944Y285750D03*
X628650Y224028D03*
X507492Y121158D03*
X484632Y121158D03*
D31*
X269748Y180594D02*
X256032Y194310D01*
X269748Y180594D02*
X269748Y178308D01*
X276606Y171450D01*
X345186Y171450D01*
X411480Y105156D01*
X256032Y194310D02*
X254000Y194700D01*
X411480Y105156D02*
X413700Y103500D01*
X219456Y194310D02*
X203454Y194310D01*
X219456Y194310D02*
X269748Y144018D01*
X308610Y144018D01*
X331470Y121158D01*
X379476Y121158D01*
X395478Y105156D01*
X395478Y98298D01*
X406908Y86868D01*
X436626Y86868D01*
X452628Y102870D01*
X203454Y194310D02*
X203200Y194700D01*
X452628Y102870D02*
X453700Y103500D01*
X1181862Y187452D02*
X1181862Y217170D01*
X1181862Y187452D02*
X1181100Y187300D01*
X1181862Y217170D02*
X1181100Y219100D01*
X1181862Y219456D02*
X1193292Y230886D01*
X1193292Y244602D01*
X1188720Y249174D01*
X1104138Y249174D01*
X1074420Y219456D01*
X1074420Y205740D01*
X1067562Y198882D01*
X1042416Y198882D01*
X1040130Y196596D01*
X724662Y331470D02*
X715518Y331470D01*
X681228Y297180D01*
X644652Y297180D01*
X621792Y274320D01*
X621792Y242316D01*
X562356Y182880D01*
X482346Y182880D01*
X466344Y166878D02*
X361188Y166878D01*
X1181100Y219100D02*
X1181862Y219456D01*
D32*
X1040130Y196596D03*
X724662Y331470D03*
X482346Y182880D03*
X466344Y166878D03*
X361188Y166878D03*
D31*
X1421892Y176022D02*
X1421892Y205740D01*
X1421892Y176022D02*
X1422400Y174600D01*
X1421892Y205740D02*
X1422400Y206400D01*
X331470Y141732D02*
X331470Y132588D01*
X336042Y128016D01*
X331470Y141732D02*
X330200Y142900D01*
X1485900Y174600D02*
X1485900Y187452D01*
X1536192Y386334D02*
X1536192Y427482D01*
X1540764Y432054D01*
X1540764Y608076D01*
X1488186Y660654D01*
X1442466Y660654D01*
X1408176Y694944D01*
X1408176Y731520D01*
X1314450Y825246D01*
X443484Y825246D01*
X432054Y813816D01*
X315468Y619506D02*
X304038Y608076D01*
X180594Y475488D02*
X180594Y454914D01*
X178308Y452628D01*
X178308Y411480D01*
X160020Y393192D01*
X237744Y187452D02*
X276606Y148590D01*
X324612Y148590D01*
X329184Y144018D01*
X330200Y142900D01*
D32*
X336042Y128016D03*
X1485900Y187452D03*
X1536192Y386334D03*
X432054Y813816D03*
X315468Y619506D03*
X304038Y608076D03*
X180594Y475488D03*
X160020Y393192D03*
X237744Y187452D03*
D31*
X457200Y194310D02*
X491490Y160020D01*
X491490Y105156D01*
X457200Y194310D02*
X457200Y194700D01*
X491490Y105156D02*
X493700Y103500D01*
X1508760Y496062D02*
X1508760Y546354D01*
X1508760Y736092D02*
X1508760Y747522D01*
X1508760Y496062D02*
X1509100Y495300D01*
X1508760Y747522D02*
X1509100Y749300D01*
X1191006Y372618D02*
X1184148Y372618D01*
X1191006Y372618D02*
X1280160Y283464D01*
X608076Y84582D02*
X576072Y84582D01*
X555498Y64008D01*
X1182820Y374650D02*
X1184148Y372618D01*
X555498Y64008D02*
X553700Y63500D01*
X1239012Y2286D02*
X1337310Y2286D01*
D32*
X1508760Y546354D03*
X1508760Y736092D03*
X1280160Y283464D03*
X608076Y84582D03*
X1337310Y2286D03*
X1239012Y2286D03*
D31*
X1181862Y361188D02*
X1177290Y361188D01*
X1143000Y326898D01*
X1143000Y322326D01*
X1042416Y322326D02*
X978408Y258318D01*
X884682Y242316D02*
X841248Y198882D01*
X836676Y198882D01*
X797814Y160020D01*
X797814Y155448D01*
X692658Y155448D02*
X692658Y137160D01*
X656082Y100584D01*
X642366Y100584D01*
X605790Y64008D01*
X594360Y64008D01*
X1181862Y361188D02*
X1182820Y361950D01*
X594360Y64008D02*
X593700Y63500D01*
D32*
X1143000Y322326D03*
X1042416Y322326D03*
X978408Y258318D03*
X884682Y242316D03*
X797814Y155448D03*
X692658Y155448D03*
D31*
X1490472Y667512D02*
X1508760Y685800D01*
X1490472Y667512D02*
X1460754Y667512D01*
X1355598Y555498D02*
X1348740Y548640D01*
X1300734Y548640D01*
X1298448Y550926D01*
X1289304Y550926D01*
X1271016Y532638D01*
X1271016Y482346D01*
X1195578Y354330D02*
X1188720Y354330D01*
X1184148Y349758D01*
X1508760Y685800D02*
X1509100Y685800D01*
X1184148Y349758D02*
X1182820Y349250D01*
X189738Y22860D02*
X173736Y22860D01*
X189738Y22860D02*
X205740Y6858D01*
X260604Y6858D01*
X276606Y22860D01*
X276606Y43434D01*
X297180Y64008D01*
X297180Y70866D01*
X306324Y80010D01*
X322326Y80010D01*
X336042Y66294D01*
X336042Y57150D01*
X352044Y41148D01*
X379476Y41148D01*
X395478Y25146D01*
X395478Y18288D01*
X406908Y6858D01*
X580644Y6858D01*
X596646Y22860D01*
X596646Y29718D01*
X649224Y82296D01*
X667512Y82296D01*
X710946Y125730D01*
X740664Y125730D01*
X745236Y130302D01*
X896112Y137160D02*
X921258Y162306D01*
X925830Y162306D01*
X1030986Y198882D02*
X1035558Y203454D01*
X1065276Y203454D01*
X1069848Y208026D01*
X1069848Y221742D01*
X1177290Y329184D01*
X1191006Y329184D01*
X1195578Y333756D01*
X1195578Y354330D01*
X173700Y23500D02*
X173736Y22860D01*
X1195578Y354330D02*
X1197864Y354330D01*
D32*
X1460754Y667512D03*
X1355598Y555498D03*
X1271016Y482346D03*
X1197864Y354330D03*
X745236Y130302D03*
X896112Y137160D03*
X925830Y162306D03*
X1030986Y198882D03*
D31*
X1177290Y336042D02*
X1181862Y336042D01*
X1177290Y336042D02*
X1065276Y224028D01*
X1065276Y210312D01*
X1062990Y208026D01*
X1028700Y208026D01*
X1008126Y187452D01*
X1008126Y180594D01*
X962406Y134874D02*
X905256Y134874D01*
X756666Y102870D02*
X756666Y91440D01*
X667512Y2286D01*
X603504Y2286D01*
X1181862Y336042D02*
X1182820Y336550D01*
D32*
X1008126Y180594D03*
X962406Y134874D03*
X905256Y134874D03*
X756666Y102870D03*
X603504Y2286D03*
D31*
X1460754Y573786D02*
X1508760Y621792D01*
X1364742Y553212D02*
X1355598Y544068D01*
X1293876Y544068D01*
X1200150Y544068D02*
X1184148Y528066D01*
X1508760Y621792D02*
X1509100Y622300D01*
X1184148Y528066D02*
X1182820Y527050D01*
X251460Y25146D02*
X230886Y45720D01*
X228600Y45720D01*
X210312Y64008D01*
X210312Y82296D01*
X192024Y100584D01*
X192024Y116586D01*
X182880Y125730D01*
X52578Y825246D02*
X48006Y825246D01*
X52578Y825246D02*
X61722Y834390D01*
X1362456Y834390D01*
X1371600Y825246D01*
X1499616Y633222D02*
X1508760Y624078D01*
X253700Y23500D02*
X251460Y25146D01*
X1509100Y622300D02*
X1508760Y624078D01*
D32*
X1460754Y573786D03*
X1364742Y553212D03*
X1293876Y544068D03*
X1200150Y544068D03*
X182880Y125730D03*
X48006Y825246D03*
X1371600Y825246D03*
X1499616Y633222D03*
D31*
X1181862Y514350D02*
X1177290Y509778D01*
X1175004Y509778D01*
X1159002Y493776D01*
X1159002Y354330D01*
X1072134Y134874D02*
X1072134Y93726D01*
X1051560Y73152D01*
X1051560Y57150D01*
X1040130Y45720D01*
X978408Y45720D01*
X976122Y48006D01*
X694944Y18288D02*
X690372Y18288D01*
X667512Y-4572D01*
X388620Y-4572D01*
X1181862Y514350D02*
X1182820Y514350D01*
D32*
X1159002Y354330D03*
X1072134Y134874D03*
X976122Y48006D03*
X694944Y18288D03*
X388620Y-4572D03*
D31*
X1485900Y534924D02*
X1508760Y557784D01*
X1387602Y450342D02*
X1353312Y450342D01*
X1261872Y450342D02*
X1239012Y450342D01*
X1188720Y500634D01*
X1184148Y500634D01*
X1508760Y557784D02*
X1509100Y558800D01*
X1184148Y500634D02*
X1182820Y501650D01*
X397764Y155448D02*
X397764Y141732D01*
X397764Y155448D02*
X402336Y160020D01*
X384048Y304038D02*
X395478Y315468D01*
X395478Y322326D01*
X406908Y333756D01*
X521208Y333756D01*
X528066Y340614D01*
X649224Y340614D01*
X720090Y411480D01*
X921258Y379476D02*
X1008126Y379476D01*
X1033272Y404622D01*
X1168146Y491490D02*
X1177290Y500634D01*
X1181862Y500634D01*
X1182820Y501650D01*
D32*
X1485900Y534924D03*
X1387602Y450342D03*
X1353312Y450342D03*
X1261872Y450342D03*
X397764Y141732D03*
X402336Y160020D03*
X384048Y304038D03*
X720090Y411480D03*
X921258Y379476D03*
X1033272Y404622D03*
X1168146Y491490D03*
D31*
X1181862Y486918D02*
X1181862Y475488D01*
X1035558Y329184D02*
X957834Y251460D01*
X898398Y192024D02*
X882396Y176022D01*
X651510Y132588D02*
X578358Y132588D01*
X550926Y105156D01*
X550926Y84582D01*
X532638Y66294D01*
X1181862Y486918D02*
X1182820Y488950D01*
D32*
X1181862Y475488D03*
X1035558Y329184D03*
X957834Y251460D03*
X898398Y192024D03*
X882396Y176022D03*
X651510Y132588D03*
X532638Y66294D03*
D31*
X1472184Y749808D02*
X1485900Y749808D01*
X1488100Y749300D01*
X1472184Y749808D02*
X1470000Y749300D01*
X1470000Y685800D02*
X1488100Y685800D01*
X1485900Y624078D02*
X1472184Y624078D01*
X1485900Y624078D02*
X1488100Y622300D01*
X1472184Y624078D02*
X1470000Y622300D01*
X1472184Y560070D02*
X1485900Y560070D01*
X1488100Y558800D01*
X1472184Y560070D02*
X1470000Y558800D01*
X1428750Y374904D02*
X1428750Y370332D01*
X1428750Y374904D02*
X1456182Y402336D01*
X1465326Y402336D01*
X1472184Y409194D01*
X1373886Y68580D02*
X1373886Y59436D01*
X1357884Y43434D01*
X1351026Y43434D02*
X1229868Y43434D01*
X1351026Y43434D02*
X1357884Y43434D01*
X1428120Y370240D02*
X1428750Y370332D01*
X550926Y25146D02*
X534924Y25146D01*
X550926Y25146D02*
X571500Y45720D01*
X598932Y45720D01*
X649224Y96012D01*
X667512Y96012D01*
X834390Y96012D02*
X934974Y-4572D01*
X1341882Y-4572D01*
X1351026Y4572D01*
X1351026Y43434D01*
X534924Y25146D02*
X533700Y23500D01*
D32*
X1472184Y409194D03*
X1373886Y68580D03*
X1229868Y43434D03*
X667512Y96012D03*
X834390Y96012D03*
D31*
X1456182Y361188D02*
X1456182Y368046D01*
X1456182Y361188D02*
X1460754Y356616D01*
X1337310Y274320D02*
X1312164Y249174D01*
X1312164Y98298D01*
X1300734Y86868D01*
X1225296Y86868D01*
X1456182Y368046D02*
X1456060Y370240D01*
X585216Y25146D02*
X573786Y25146D01*
X585216Y25146D02*
X649224Y89154D01*
X660654Y89154D01*
X1129284Y52578D02*
X1136142Y59436D01*
X1136142Y70866D01*
X1168146Y102870D01*
X1172718Y102870D01*
X573786Y25146D02*
X573700Y23500D01*
X1172718Y102870D02*
X1173800Y103500D01*
D32*
X1460754Y356616D03*
X1337310Y274320D03*
X1225296Y86868D03*
X660654Y89154D03*
X1129284Y52578D03*
D31*
X1524762Y381762D02*
X1524762Y420624D01*
X1524762Y381762D02*
X1531620Y374904D01*
X1531620Y370332D01*
X1524762Y420624D02*
X1524000Y422300D01*
X1531620Y370332D02*
X1532260Y370240D01*
X1524762Y422910D02*
X1536192Y434340D01*
X1536192Y450342D01*
X1497330Y489204D01*
X1497330Y502920D01*
X1490472Y509778D01*
X1458468Y509778D01*
X1344168Y555498D02*
X1287018Y555498D01*
X1261872Y530352D01*
X1261872Y486918D01*
X1524000Y422300D02*
X1524762Y422910D01*
X1543050Y409194D02*
X1543050Y379476D01*
X1533906Y370332D01*
X1532260Y370240D01*
D32*
X1458468Y509778D03*
X1344168Y555498D03*
X1261872Y486918D03*
X1543050Y409194D03*
D31*
X1460754Y409194D02*
X1449324Y420624D01*
X1485900Y384048D02*
X1492758Y384048D01*
X1506474Y370332D01*
X1449324Y420624D02*
X1447800Y422300D01*
X1504320Y370240D02*
X1506474Y370332D01*
X1314450Y27432D02*
X1314450Y20574D01*
X1300734Y6858D01*
X1245870Y6858D01*
X1232154Y20574D01*
X1232154Y29718D01*
X1216152Y45720D01*
X1067562Y45720D01*
X1056132Y57150D01*
X1056132Y70866D01*
X1088136Y102870D01*
X1092708Y102870D01*
X1093800Y103500D01*
D32*
X1460754Y409194D03*
X1485900Y384048D03*
X1314450Y27432D03*
D31*
X1472184Y496062D02*
X1485900Y496062D01*
X1488100Y495300D01*
X1472184Y496062D02*
X1470000Y495300D01*
X1243584Y436626D02*
X1184148Y436626D01*
X1243584Y436626D02*
X1264158Y416052D01*
X1282446Y416052D01*
X1291590Y406908D01*
X1291590Y171450D01*
X1225296Y105156D01*
X1213866Y105156D01*
X1184148Y436626D02*
X1182820Y438150D01*
X1213866Y105156D02*
X1213800Y103500D01*
X1280160Y315468D02*
X1184148Y411480D01*
X1298448Y297180D02*
X1298448Y148590D01*
X1255014Y105156D01*
X1184148Y411480D02*
X1182820Y412750D01*
X1255014Y105156D02*
X1253800Y103500D01*
D32*
X1280160Y315468D03*
X1298448Y297180D03*
D31*
X1181862Y589788D02*
X1177290Y589788D01*
X1145286Y557784D01*
X1145286Y336042D01*
X1065276Y256032D01*
X1051560Y256032D01*
X1001268Y205740D01*
X1001268Y114300D01*
X994410Y107442D01*
X994410Y64008D01*
X1181862Y589788D02*
X1182820Y590550D01*
X994410Y64008D02*
X993800Y63500D01*
X1181862Y541782D02*
X1181862Y564642D01*
X1181862Y541782D02*
X1152144Y512064D01*
X1152144Y347472D01*
X1062990Y137160D02*
X1035558Y109728D01*
X1035558Y64008D01*
X1181862Y564642D02*
X1182820Y565150D01*
X1035558Y64008D02*
X1033800Y63500D01*
D32*
X1152144Y347472D03*
X1062990Y137160D03*
D31*
X1184148Y665226D02*
X1188720Y665226D01*
X1236726Y617220D01*
X1236726Y486918D01*
X1305306Y418338D01*
X1305306Y116586D01*
X1293876Y105156D01*
X1184148Y665226D02*
X1182820Y666750D01*
X1293876Y105156D02*
X1293800Y103500D01*
X1184148Y619506D02*
X1184148Y640080D01*
X1184148Y619506D02*
X1223010Y580644D01*
X1223010Y555498D01*
X1296162Y534924D02*
X1296162Y496062D01*
X1371600Y443484D02*
X1371600Y294894D01*
X1389888Y276606D01*
X1184148Y640080D02*
X1182820Y641350D01*
D32*
X1223010Y555498D03*
X1296162Y534924D03*
X1296162Y496062D03*
X1371600Y443484D03*
X1389888Y276606D03*
D31*
X1225296Y742950D02*
X1182820Y742950D01*
X1225296Y742950D02*
X1268730Y786384D01*
X1332738Y786384D01*
X1399032Y720090D01*
X1399032Y562356D01*
X1440180Y521208D01*
X1440180Y484632D01*
X1483614Y441198D01*
X1483614Y400050D01*
X1472184Y388620D01*
X1472184Y294894D01*
X1373886Y196596D01*
X1373886Y105156D01*
X1373800Y103500D01*
X1271016Y635508D02*
X1271016Y640080D01*
X1287018Y656082D01*
X1287018Y758952D01*
X1284732Y761238D01*
X1271016Y635508D02*
X1270000Y635000D01*
X1284732Y761238D02*
X1282700Y762000D01*
X1229868Y569214D02*
X1229868Y534924D01*
X1197864Y502920D01*
X900684Y411480D02*
X900684Y226314D01*
X866394Y192024D01*
X626364Y118872D02*
X621792Y118872D01*
X619506Y121158D01*
X608076Y121158D01*
X592074Y105156D01*
X592074Y93726D01*
X589788Y91440D01*
X459486Y123444D02*
X404622Y123444D01*
X386334Y141732D01*
D32*
X1229868Y569214D03*
X1197864Y502920D03*
X900684Y411480D03*
X866394Y192024D03*
X626364Y118872D03*
X589788Y91440D03*
X459486Y123444D03*
X386334Y141732D03*
D31*
X774954Y242316D02*
X774954Y253746D01*
X774954Y242316D02*
X786384Y230886D01*
X786384Y214884D01*
X772668Y201168D01*
X694944Y201168D01*
X672084Y178308D01*
X672084Y128016D01*
X669798Y125730D01*
X594360Y125730D01*
X573786Y105156D01*
X774700Y254000D02*
X774954Y253746D01*
X573786Y105156D02*
X573700Y103500D01*
X1307592Y496062D02*
X1307592Y518922D01*
X1307592Y496062D02*
X1287018Y475488D01*
X1261872Y475488D01*
X1243584Y493776D01*
X1243584Y507492D01*
X829818Y489204D02*
X825246Y484632D01*
X825246Y306324D01*
X774954Y256032D01*
X1307592Y518922D02*
X1308100Y520700D01*
X774954Y256032D02*
X774700Y254000D01*
D32*
X1243584Y507492D03*
X829818Y489204D03*
D31*
X518922Y253746D02*
X518922Y233172D01*
X475488Y189738D01*
X459486Y173736D02*
X349758Y173736D01*
X340614Y182880D01*
X276606Y182880D01*
X518922Y253746D02*
X520700Y254000D01*
X1289304Y781812D02*
X1307592Y763524D01*
X1289304Y781812D02*
X1271016Y781812D01*
X1200150Y710946D01*
X1172718Y710946D01*
X1145286Y738378D01*
X1145286Y754380D01*
X1133856Y765810D01*
X973836Y765810D01*
X820674Y754380D02*
X651510Y754380D01*
X633222Y736092D01*
X1307592Y763524D02*
X1308100Y762000D01*
D32*
X475488Y189738D03*
X459486Y173736D03*
X276606Y182880D03*
X973836Y765810D03*
X820674Y754380D03*
X633222Y736092D03*
D31*
X800100Y253746D02*
X841248Y253746D01*
X841400Y254000D01*
X800100Y253746D02*
X800100Y254000D01*
X573786Y253746D02*
X546354Y253746D01*
X573786Y253746D02*
X574700Y254000D01*
X546354Y253746D02*
X546100Y254000D01*
X1472184Y813816D02*
X1485900Y813816D01*
X1488100Y812800D01*
X1472184Y813816D02*
X1470000Y812800D01*
X576072Y633222D02*
X576072Y628650D01*
X560070Y612648D01*
X441198Y612648D01*
X420624Y633222D01*
X299466Y633222D01*
X267462Y601218D01*
X576072Y633222D02*
X577850Y633280D01*
X267462Y601218D02*
X266700Y599440D01*
X601218Y635508D02*
X601218Y640080D01*
X587502Y653796D01*
X496062Y653796D01*
X464058Y651510D02*
X292608Y651510D01*
X242316Y601218D01*
X601218Y635508D02*
X603250Y633280D01*
X242316Y601218D02*
X241300Y599440D01*
D32*
X496062Y653796D03*
X464058Y651510D03*
D31*
X496062Y640080D02*
X500634Y635508D01*
X496062Y640080D02*
X496062Y642366D01*
X480060Y658368D01*
X274320Y658368D01*
X217170Y601218D01*
X500634Y635508D02*
X501650Y633280D01*
X217170Y601218D02*
X215900Y599440D01*
X525780Y628650D02*
X525780Y633222D01*
X525780Y628650D02*
X514350Y617220D01*
X443484Y617220D01*
X422910Y637794D01*
X290322Y637794D01*
X267462Y614934D01*
X525780Y633222D02*
X527050Y633280D01*
D32*
X267462Y614934D03*
D31*
X578358Y685800D02*
X582930Y681228D01*
X582930Y678942D01*
X630936Y630936D01*
X704088Y630936D01*
X724662Y610362D02*
X729234Y610362D01*
X793242Y546354D01*
X793242Y379476D01*
X804672Y368046D01*
X804672Y331470D01*
X797814Y324612D01*
X797814Y304038D01*
X772668Y278892D01*
X768096Y278892D01*
X724662Y235458D01*
X724662Y194310D02*
X724662Y139446D01*
X726948Y137160D01*
X752094Y112014D02*
X758952Y112014D01*
X763524Y107442D01*
X763524Y75438D01*
X676656Y-11430D01*
X384048Y-11430D01*
X352044Y20574D01*
X352044Y29718D01*
X320040Y61722D01*
X315468Y61722D01*
X578358Y685800D02*
X577850Y687520D01*
X313700Y63500D02*
X315468Y61722D01*
D32*
X704088Y630936D03*
X724662Y610362D03*
X724662Y235458D03*
X724662Y194310D03*
X726948Y137160D03*
X752094Y112014D03*
D31*
X601218Y672084D02*
X601218Y685800D01*
X555498Y496062D02*
X555498Y475488D01*
X557784Y473202D01*
X489204Y404622D02*
X489204Y395478D01*
X436626Y342900D01*
X340614Y342900D01*
X288036Y290322D02*
X288036Y274320D01*
X281178Y267462D01*
X281178Y235458D01*
X283464Y137160D02*
X278892Y137160D01*
X283464Y137160D02*
X315468Y105156D01*
X315468Y98298D01*
X352044Y61722D01*
X601218Y685800D02*
X603250Y687520D01*
X353700Y63500D02*
X352044Y61722D01*
D32*
X601218Y672084D03*
X555498Y496062D03*
X557784Y473202D03*
X489204Y404622D03*
X340614Y342900D03*
X288036Y290322D03*
X281178Y235458D03*
X278892Y137160D03*
D31*
X502920Y669798D02*
X502920Y685800D01*
X560070Y525780D02*
X564642Y521208D01*
X566928Y521208D01*
X571500Y516636D01*
X571500Y500634D01*
X580644Y491490D01*
X605790Y306324D02*
X628650Y306324D01*
X605790Y306324D02*
X573786Y274320D01*
X516636Y274320D01*
X484632Y242316D01*
X484632Y217170D01*
X470916Y203454D01*
X450342Y203454D01*
X448056Y201168D01*
X448056Y187452D01*
X454914Y180594D01*
X464058Y180594D01*
X473202Y171450D01*
X473202Y162306D01*
X441198Y130302D01*
X409194Y130302D01*
X502920Y685800D02*
X501650Y687520D01*
D32*
X502920Y669798D03*
X560070Y525780D03*
X580644Y491490D03*
X628650Y306324D03*
X409194Y130302D03*
D31*
X525780Y681228D02*
X525780Y685800D01*
X525780Y681228D02*
X507492Y662940D01*
X297180Y662940D01*
X189738Y770382D01*
X123444Y770382D01*
X98298Y745236D01*
X91440Y745236D01*
X75438Y729234D01*
X75438Y573786D01*
X68580Y566928D01*
X68580Y459486D01*
X75438Y452628D01*
X75438Y422910D01*
X130302Y368046D01*
X525780Y685800D02*
X527050Y687520D01*
D32*
X130302Y368046D03*
D31*
X445770Y429768D02*
X445770Y473202D01*
X445770Y429768D02*
X444500Y428600D01*
X445770Y473202D02*
X444500Y474800D01*
X443484Y475488D02*
X443484Y489204D01*
X356616Y576072D01*
X189738Y576072D01*
X166878Y598932D01*
X443484Y475488D02*
X444500Y474800D01*
X166878Y598932D02*
X165100Y599440D01*
X521208Y461772D02*
X521208Y429768D01*
X521208Y461772D02*
X532638Y473202D01*
X521208Y429768D02*
X520700Y428600D01*
X532638Y473202D02*
X533400Y474800D01*
X141732Y564642D02*
X141732Y598932D01*
X141732Y564642D02*
X253746Y452628D01*
X253746Y436626D01*
X299466Y390906D01*
X464058Y390906D01*
X500634Y427482D01*
X518922Y427482D01*
X141732Y598932D02*
X139700Y599440D01*
X518922Y427482D02*
X520700Y428600D01*
X621792Y429768D02*
X621792Y473202D01*
X621792Y429768D02*
X622300Y428600D01*
X621792Y473202D02*
X622300Y474800D01*
X621792Y427482D02*
X544068Y427482D01*
X436626Y397764D02*
X299466Y397764D01*
X278892Y418338D01*
X278892Y468630D01*
X153162Y594360D01*
X153162Y603504D01*
X144018Y612648D01*
X125730Y612648D01*
X114300Y601218D01*
X621792Y427482D02*
X622300Y428600D01*
X114300Y599440D02*
X114300Y601218D01*
D32*
X544068Y427482D03*
X436626Y397764D03*
D31*
X838962Y429768D02*
X838962Y473202D01*
X838962Y429768D02*
X838200Y428600D01*
X838962Y473202D02*
X838200Y474800D01*
X836676Y475488D02*
X836676Y493776D01*
X825246Y505206D01*
X825246Y587502D01*
X761238Y651510D01*
X836676Y475488D02*
X838200Y474800D01*
D32*
X761238Y651510D03*
D31*
X482346Y569214D02*
X482346Y532638D01*
X482346Y569214D02*
X468630Y582930D01*
X482346Y532638D02*
X482600Y531700D01*
X468630Y582930D02*
X466700Y584200D01*
X484632Y530352D02*
X489204Y530352D01*
X509778Y509778D01*
X509778Y482346D01*
X651510Y425196D02*
X704088Y425196D01*
X720090Y441198D01*
X745236Y441198D01*
X747522Y438912D01*
X836676Y386334D02*
X836676Y377190D01*
X873252Y340614D01*
X873252Y237744D01*
X845820Y210312D01*
X841248Y210312D01*
X841248Y192024D02*
X841248Y164592D01*
X971550Y34290D01*
X971550Y25146D01*
X484632Y530352D02*
X482600Y531700D01*
X971550Y25146D02*
X973800Y23500D01*
D32*
X509778Y482346D03*
X651510Y425196D03*
X747522Y438912D03*
X836676Y386334D03*
X841248Y210312D03*
X841248Y192024D03*
D31*
X473202Y489204D02*
X473202Y507492D01*
X473202Y489204D02*
X482346Y480060D01*
X473202Y507492D02*
X473100Y509700D01*
X482346Y480060D02*
X482600Y479400D01*
X562356Y489204D02*
X562356Y507492D01*
X562356Y489204D02*
X571500Y480060D01*
X562356Y507492D02*
X562000Y509700D01*
X571500Y480060D02*
X571500Y479400D01*
X571500Y531700D02*
X571500Y569214D01*
X557784Y582930D01*
X555600Y584200D01*
X571500Y530352D02*
X582930Y530352D01*
X598932Y514350D01*
X701802Y370332D02*
X747522Y370332D01*
X1030986Y121158D02*
X1030986Y84582D01*
X1014984Y68580D01*
X571500Y530352D02*
X571500Y531700D01*
D32*
X598932Y514350D03*
X701802Y370332D03*
X747522Y370332D03*
X1030986Y121158D03*
X1014984Y68580D03*
D31*
X658368Y532638D02*
X658368Y582930D01*
X644652Y596646D01*
X658368Y532638D02*
X660400Y531700D01*
X644652Y596646D02*
X644500Y596900D01*
X660654Y530352D02*
X660654Y491490D01*
X649224Y290322D02*
X649224Y281178D01*
X644652Y276606D01*
X644652Y230886D01*
X665226Y210312D01*
X665226Y132588D01*
X660654Y530352D02*
X660400Y531700D01*
D32*
X660654Y491490D03*
X649224Y290322D03*
X665226Y132588D03*
D31*
X651510Y489204D02*
X651510Y507492D01*
X651510Y489204D02*
X672084Y468630D01*
X651510Y507492D02*
X650900Y509700D01*
X672084Y468630D02*
X673100Y466700D01*
X445770Y516636D02*
X445770Y582930D01*
X447700Y584200D01*
X445770Y516636D02*
X444500Y515800D01*
X534924Y516636D02*
X534924Y582930D01*
X536600Y584200D01*
X534924Y516636D02*
X533400Y515800D01*
X624078Y516636D02*
X624078Y596646D01*
X625500Y596900D01*
X624078Y516636D02*
X622300Y515800D01*
X722376Y477774D02*
X722376Y473202D01*
X722376Y477774D02*
X722376Y507492D01*
X722376Y473202D02*
X736092Y459486D01*
X722376Y507492D02*
X720700Y508000D01*
X736600Y460400D02*
X736092Y459486D01*
X722376Y477774D02*
X706374Y477774D01*
X704088Y278892D02*
X690372Y265176D01*
X690372Y262890D01*
X571500Y144018D02*
X550926Y144018D01*
X512064Y105156D01*
X512064Y98298D01*
X475488Y61722D01*
X473700Y63500D01*
D32*
X706374Y477774D03*
X704088Y278892D03*
X690372Y262890D03*
X571500Y144018D03*
D31*
X738378Y523494D02*
X738378Y546354D01*
X738378Y523494D02*
X752094Y509778D01*
X738378Y546354D02*
X736600Y547800D01*
X752094Y509778D02*
X752500Y508000D01*
X738378Y493776D02*
X738378Y480060D01*
X738378Y493776D02*
X752094Y507492D01*
X738378Y480060D02*
X736600Y479400D01*
X752094Y507492D02*
X752500Y508000D01*
X224028Y445770D02*
X217170Y445770D01*
X224028Y445770D02*
X285750Y384048D01*
X427482Y384048D01*
X585216Y477774D02*
X585216Y484632D01*
X605790Y505206D01*
X605790Y603504D01*
X614934Y612648D01*
X667512Y612648D01*
X731520Y548640D01*
X736092Y548640D01*
X217170Y445770D02*
X215900Y447040D01*
X736092Y548640D02*
X736600Y547800D01*
D32*
X427482Y384048D03*
X585216Y477774D03*
D31*
X868680Y475488D02*
X868680Y496062D01*
X868680Y475488D02*
X875538Y468630D01*
X868680Y496062D02*
X866800Y497000D01*
X875538Y468630D02*
X876300Y466700D01*
X875538Y521208D02*
X875538Y569214D01*
X861822Y582930D01*
X875538Y521208D02*
X876300Y519000D01*
X861822Y582930D02*
X860400Y584200D01*
X870966Y518922D02*
X875538Y518922D01*
X870966Y518922D02*
X857250Y505206D01*
X857250Y363474D01*
X877824Y342900D01*
X877824Y260604D01*
X891540Y246888D01*
X891540Y228600D01*
X859536Y196596D01*
X859536Y153162D01*
X971550Y41148D01*
X1076706Y41148D01*
X1092708Y25146D01*
X876300Y519000D02*
X875538Y518922D01*
X1092708Y25146D02*
X1093800Y23500D01*
X841248Y518922D02*
X841248Y582930D01*
X841248Y518922D02*
X838962Y516636D01*
X841248Y582930D02*
X841400Y584200D01*
X838962Y516636D02*
X838200Y515800D01*
X1234440Y201168D02*
X1268730Y201168D01*
X1234440Y201168D02*
X1154430Y121158D01*
X1126998Y121158D01*
X1110996Y105156D01*
X1110996Y96012D01*
X1078992Y64008D01*
X1074420Y64008D01*
X1268730Y201168D02*
X1270000Y203200D01*
X1074420Y64008D02*
X1073800Y63500D01*
X1223010Y176022D02*
X1268730Y176022D01*
X1223010Y176022D02*
X1152144Y105156D01*
X1152144Y98298D01*
X1115568Y61722D01*
X1268730Y176022D02*
X1270000Y177800D01*
X1115568Y61722D02*
X1113800Y63500D01*
X1344168Y406908D02*
X1307592Y443484D01*
X1255014Y443484D02*
X1227582Y443484D01*
X1191006Y480060D01*
X978408Y498348D02*
X966978Y509778D01*
X914400Y509778D01*
X800100Y546354D02*
X729234Y617220D01*
X589788Y617220D01*
X509778Y605790D02*
X441198Y605790D01*
X427482Y619506D01*
X390906Y619506D01*
X381762Y610362D01*
X381762Y594360D01*
X370332Y582930D01*
X194310Y582930D01*
X43434Y473202D02*
X43434Y452628D01*
X38862Y448056D01*
X1344168Y406908D02*
X1346200Y406400D01*
X38862Y448056D02*
X38100Y447040D01*
D32*
X1307592Y443484D03*
X1255014Y443484D03*
X1191006Y480060D03*
X978408Y498348D03*
X914400Y509778D03*
X800100Y546354D03*
X589788Y617220D03*
X509778Y605790D03*
X194310Y582930D03*
X43434Y473202D03*
D31*
X1346454Y505206D02*
X1346454Y432054D01*
X1346454Y505206D02*
X1380744Y539496D01*
X1408176Y566928D02*
X1408176Y688086D01*
X1403604Y692658D01*
X1403604Y722376D01*
X1314450Y811530D01*
X518922Y811530D01*
X514350Y816102D01*
X445770Y816102D01*
X436626Y806958D01*
X427482Y806958D01*
X422910Y811530D01*
X201168Y811530D01*
X1346200Y431800D02*
X1346454Y432054D01*
D32*
X1380744Y539496D03*
X1408176Y566928D03*
X201168Y811530D03*
D31*
X1271016Y404622D02*
X1287018Y388620D01*
X1287018Y173736D01*
X1234440Y121158D01*
X1207008Y121158D01*
X1195578Y109728D01*
X1195578Y98298D01*
X1232154Y61722D01*
X1271016Y404622D02*
X1270000Y406400D01*
X1233800Y63500D02*
X1232154Y61722D01*
X1319022Y112014D02*
X1319022Y208026D01*
X1319022Y112014D02*
X1316736Y109728D01*
X1316736Y96012D01*
X1348740Y64008D01*
X1353312Y64008D01*
X1353800Y63500D01*
D32*
X1319022Y208026D03*
D31*
X150876Y738378D02*
X107442Y738378D01*
X102870Y733806D01*
X150876Y738378D02*
X152400Y739800D01*
X102870Y733806D02*
X101600Y731700D01*
X361188Y598932D02*
X368046Y598932D01*
X361188Y598932D02*
X349758Y587502D01*
X210312Y587502D01*
X203454Y594360D01*
X203454Y662940D01*
X153162Y713232D01*
X153162Y738378D01*
X368300Y599440D02*
X368046Y598932D01*
X153162Y738378D02*
X152400Y739800D01*
X166878Y710946D02*
X178308Y710946D01*
X153162Y697230D02*
X153162Y683514D01*
X178308Y710946D02*
X179500Y711200D01*
X153162Y683514D02*
X152400Y682600D01*
X633222Y818388D02*
X1309878Y818388D01*
X1328166Y294894D02*
X1344168Y278892D01*
X1344168Y269748D01*
X1339596Y265176D01*
X1335024Y265176D01*
X1328166Y258318D01*
X1328166Y132588D01*
X1355598Y105156D01*
X1355598Y98298D01*
X1392174Y61722D01*
X1393800Y63500D01*
D32*
X166878Y710946D03*
X153162Y697230D03*
X633222Y818388D03*
X1309878Y818388D03*
X1328166Y294894D03*
D31*
X217170Y699516D02*
X203454Y699516D01*
X217170Y699516D02*
X230886Y685800D01*
X203454Y699516D02*
X201500Y701700D01*
X230886Y685800D02*
X231800Y685800D01*
X150876Y665226D02*
X128016Y665226D01*
X102870Y690372D01*
X150876Y665226D02*
X152400Y663600D01*
X102870Y690372D02*
X101600Y690700D01*
X699516Y733806D02*
X747522Y733806D01*
X699516Y733806D02*
X698500Y733400D01*
X747522Y733806D02*
X749300Y733400D01*
X749808Y733806D02*
X786384Y733806D01*
X800100Y733806D01*
X800100Y733400D01*
X749808Y733806D02*
X749300Y733400D01*
X736092Y221742D02*
X699516Y221742D01*
X698500Y222200D01*
X736092Y221742D02*
X736600Y222200D01*
X738378Y221742D02*
X763524Y221742D01*
X772668Y221742D01*
X774700Y222200D01*
X738378Y221742D02*
X736600Y222200D01*
X132588Y322326D02*
X128016Y322326D01*
X132588Y322326D02*
X141732Y331470D01*
X201168Y352044D02*
X205740Y352044D01*
X208026Y354330D01*
X436626Y354330D01*
X651510Y265176D02*
X651510Y256032D01*
X656082Y251460D01*
X128016Y322326D02*
X127000Y320700D01*
X656082Y251460D02*
X657800Y251200D01*
X683514Y224028D02*
X697230Y224028D01*
X683514Y224028D02*
X658368Y249174D01*
X697230Y224028D02*
X698500Y222200D01*
X658368Y249174D02*
X657800Y251200D01*
X786384Y722376D02*
X786384Y733806D01*
X786384Y614934D02*
X820674Y580644D01*
X820674Y340614D01*
X802386Y322326D01*
X802386Y301752D01*
X774954Y274320D01*
X770382Y274320D01*
X763524Y267462D01*
X763524Y221742D01*
D32*
X141732Y331470D03*
X201168Y352044D03*
X436626Y354330D03*
X651510Y265176D03*
X786384Y722376D03*
X786384Y614934D03*
D31*
X320040Y713232D02*
X244602Y788670D01*
X205740Y788670D01*
X180594Y813816D01*
X68580Y813816D01*
X52578Y797814D01*
X320040Y713232D02*
X320700Y711200D01*
X52578Y797814D02*
X50800Y796900D01*
M02*
