G04 EAGLE Gerber X2 export*
%TF.Part,Single*%
%TF.FileFunction,Copper,L2,Bot,Mixed*%
%TF.FilePolarity,Positive*%
%TF.GenerationSoftware,Autodesk,EAGLE,9.1.3*%
%TF.CreationDate,2020-03-16T01:18:41Z*%
G75*
%MOMM*%
%FSLAX34Y34*%
%LPD*%
%AMOC8*
5,1,8,0,0,1.08239X$1,22.5*%
G01*
%ADD10C,1.524000*%
%ADD11C,1.320800*%
%ADD12C,1.308000*%
%ADD13R,1.778000X1.778000*%
%ADD14C,1.778000*%
%ADD15R,2.625000X2.625000*%
%ADD16C,2.625000*%
%ADD17C,0.304800*%
%ADD18C,0.756400*%


D10*
X1282700Y754380D02*
X1282700Y769620D01*
X1308100Y769620D02*
X1308100Y754380D01*
X1333500Y754380D02*
X1333500Y769620D01*
D11*
X1276604Y685800D02*
X1263396Y685800D01*
X1263396Y660400D02*
X1276604Y660400D01*
X1339596Y660400D02*
X1352804Y660400D01*
X1352804Y685800D02*
X1339596Y685800D01*
X1276604Y635000D02*
X1263396Y635000D01*
X1263396Y609600D02*
X1276604Y609600D01*
X1339596Y635000D02*
X1352804Y635000D01*
X1352804Y609600D02*
X1339596Y609600D01*
D10*
X774700Y261620D02*
X774700Y246380D01*
X800100Y246380D02*
X800100Y261620D01*
X520700Y261620D02*
X520700Y246380D01*
X546100Y246380D02*
X546100Y261620D01*
D12*
X241300Y800100D03*
X266700Y800100D03*
X292100Y800100D03*
X317500Y800100D03*
X342900Y800100D03*
X368300Y800100D03*
X393700Y800100D03*
X419100Y800100D03*
X457200Y800100D03*
X482600Y800100D03*
X508000Y800100D03*
X533400Y800100D03*
X558800Y800100D03*
X584200Y800100D03*
X609600Y800100D03*
X635000Y800100D03*
X685800Y800100D03*
X711200Y800100D03*
X736600Y800100D03*
X762000Y800100D03*
X787400Y800100D03*
X812800Y800100D03*
X838200Y800100D03*
X863600Y800100D03*
X939800Y800100D03*
X939800Y774700D03*
X939800Y749300D03*
X939800Y723900D03*
X939800Y698500D03*
X939800Y673100D03*
X939800Y647700D03*
X939800Y622300D03*
X939800Y596900D03*
X939800Y571500D03*
X939800Y546100D03*
X939800Y520700D03*
X939800Y495300D03*
X939800Y469900D03*
X939800Y444500D03*
X939800Y419100D03*
X939800Y393700D03*
X939800Y368300D03*
X965200Y368300D03*
X965200Y393700D03*
X965200Y419100D03*
X965200Y444500D03*
X965200Y469900D03*
X965200Y495300D03*
X965200Y520700D03*
X965200Y546100D03*
X965200Y571500D03*
X965200Y596900D03*
X965200Y622300D03*
X965200Y647700D03*
X965200Y673100D03*
X965200Y698500D03*
X965200Y723900D03*
X965200Y749300D03*
X965200Y774700D03*
X965200Y800100D03*
X914400Y317500D03*
X889000Y317500D03*
X863600Y317500D03*
X838200Y317500D03*
X812800Y317500D03*
X787400Y317500D03*
X762000Y317500D03*
X736600Y317500D03*
X685800Y317500D03*
X660400Y317500D03*
X635000Y317500D03*
X609600Y317500D03*
X584200Y317500D03*
X558800Y317500D03*
X533400Y317500D03*
X508000Y317500D03*
X457200Y317500D03*
X431800Y317500D03*
X406400Y317500D03*
X381000Y317500D03*
X355600Y317500D03*
X330200Y317500D03*
D10*
X1333500Y513080D02*
X1333500Y528320D01*
X1308100Y528320D02*
X1308100Y513080D01*
X1282700Y513080D02*
X1282700Y528320D01*
D13*
X393700Y599440D03*
D14*
X368300Y599440D03*
X342900Y599440D03*
X317500Y599440D03*
X292100Y599440D03*
X266700Y599440D03*
X241300Y599440D03*
X215900Y599440D03*
X190500Y599440D03*
X165100Y599440D03*
X139700Y599440D03*
X114300Y599440D03*
X88900Y599440D03*
X63500Y599440D03*
X38100Y599440D03*
X393700Y447040D03*
X368300Y447040D03*
X342900Y447040D03*
X317500Y447040D03*
X292100Y447040D03*
X266700Y447040D03*
X241300Y447040D03*
X215900Y447040D03*
X190500Y447040D03*
X165100Y447040D03*
X139700Y447040D03*
X114300Y447040D03*
X88900Y447040D03*
X63500Y447040D03*
X38100Y447040D03*
D11*
X1263396Y254000D02*
X1276604Y254000D01*
X1276604Y228600D02*
X1263396Y228600D01*
X1339596Y228600D02*
X1352804Y228600D01*
X1352804Y254000D02*
X1339596Y254000D01*
X1276604Y203200D02*
X1263396Y203200D01*
X1263396Y177800D02*
X1276604Y177800D01*
X1339596Y203200D02*
X1352804Y203200D01*
X1352804Y177800D02*
X1339596Y177800D01*
X1276604Y431800D02*
X1263396Y431800D01*
X1263396Y406400D02*
X1276604Y406400D01*
X1339596Y406400D02*
X1352804Y406400D01*
X1352804Y431800D02*
X1339596Y431800D01*
X1276604Y381000D02*
X1263396Y381000D01*
X1263396Y355600D02*
X1276604Y355600D01*
X1339596Y381000D02*
X1352804Y381000D01*
X1352804Y355600D02*
X1339596Y355600D01*
D15*
X173700Y103500D03*
D16*
X213700Y103500D03*
X253700Y103500D03*
X293700Y103500D03*
X333700Y103500D03*
X373700Y103500D03*
X413700Y103500D03*
X453700Y103500D03*
X493700Y103500D03*
X533700Y103500D03*
X573700Y103500D03*
X613700Y103500D03*
X193700Y63500D03*
X233700Y63500D03*
X273700Y63500D03*
X313700Y63500D03*
X353700Y63500D03*
X393700Y63500D03*
X433700Y63500D03*
X473700Y63500D03*
X513700Y63500D03*
X553700Y63500D03*
X593700Y63500D03*
X173700Y23500D03*
X213700Y23500D03*
X253700Y23500D03*
X293700Y23500D03*
X333700Y23500D03*
X373700Y23500D03*
X413700Y23500D03*
X453700Y23500D03*
X493700Y23500D03*
X533700Y23500D03*
X573700Y23500D03*
X613700Y23500D03*
D15*
X973800Y103500D03*
D16*
X1013800Y103500D03*
X1053800Y103500D03*
X1093800Y103500D03*
X1133800Y103500D03*
X1173800Y103500D03*
X1213800Y103500D03*
X1253800Y103500D03*
X1293800Y103500D03*
X1333800Y103500D03*
X1373800Y103500D03*
X1413800Y103500D03*
X993800Y63500D03*
X1033800Y63500D03*
X1073800Y63500D03*
X1113800Y63500D03*
X1153800Y63500D03*
X1193800Y63500D03*
X1233800Y63500D03*
X1273800Y63500D03*
X1313800Y63500D03*
X1353800Y63500D03*
X1393800Y63500D03*
X973800Y23500D03*
X1013800Y23500D03*
X1053800Y23500D03*
X1093800Y23500D03*
X1133800Y23500D03*
X1173800Y23500D03*
X1213800Y23500D03*
X1253800Y23500D03*
X1293800Y23500D03*
X1333800Y23500D03*
X1373800Y23500D03*
X1413800Y23500D03*
D17*
X301752Y800100D02*
X292100Y800100D01*
X301752Y800100D02*
X326898Y825246D01*
X637794Y825246D01*
X713232Y749808D01*
X713232Y745236D01*
X802386Y745236D02*
X934974Y612648D01*
X1067562Y612648D01*
D18*
X713232Y745236D03*
X802386Y745236D03*
X1067562Y612648D03*
D17*
X1065276Y582930D02*
X1051560Y582930D01*
X1065276Y582930D02*
X1088136Y560070D01*
D18*
X1051560Y582930D03*
X1088136Y560070D03*
D17*
X370332Y781812D02*
X370332Y800100D01*
X630936Y624078D02*
X674370Y580644D01*
X731520Y523494D02*
X777240Y523494D01*
X896112Y404622D01*
X1021842Y404622D01*
X1042416Y384048D01*
X1065276Y384048D01*
X370332Y800100D02*
X368300Y800100D01*
D18*
X370332Y781812D03*
X630936Y624078D03*
X674370Y580644D03*
X731520Y523494D03*
X1065276Y384048D03*
D17*
X475488Y720090D02*
X395478Y800100D01*
X587502Y701802D02*
X667512Y701802D01*
X802386Y669798D02*
X882396Y589788D01*
X1044702Y480060D02*
X1065276Y459486D01*
X395478Y800100D02*
X393700Y800100D01*
D18*
X475488Y720090D03*
X587502Y701802D03*
X667512Y701802D03*
X802386Y669798D03*
X882396Y589788D03*
X1044702Y480060D03*
X1065276Y459486D03*
D17*
X443484Y800100D02*
X419100Y800100D01*
X443484Y800100D02*
X459486Y816102D01*
X582930Y816102D01*
X598932Y800100D01*
X598932Y795528D01*
X747522Y646938D01*
X747522Y630936D01*
X813816Y564642D02*
X854964Y564642D01*
X882396Y537210D01*
X1044702Y404622D02*
X1056132Y404622D01*
X1074420Y386334D01*
D18*
X747522Y630936D03*
X813816Y564642D03*
X882396Y537210D03*
X1044702Y404622D03*
X1074420Y386334D03*
D17*
X468630Y800100D02*
X457200Y800100D01*
X468630Y800100D02*
X480060Y811530D01*
X562356Y811530D01*
X573786Y800100D01*
X573786Y795528D01*
X621792Y747522D01*
X640080Y747522D01*
X740664Y646938D01*
X740664Y624078D01*
X813816Y370332D02*
X820674Y370332D01*
X841248Y349758D01*
X971550Y349758D01*
X1040130Y281178D01*
D18*
X740664Y624078D03*
X813816Y370332D03*
X1040130Y281178D03*
D17*
X493776Y800100D02*
X482600Y800100D01*
X493776Y800100D02*
X550926Y742950D01*
X637794Y742950D01*
X733806Y646938D01*
X733806Y642366D01*
X813816Y576072D02*
X896112Y576072D01*
X937260Y534924D01*
X1065276Y534924D01*
D18*
X733806Y642366D03*
X813816Y576072D03*
X1065276Y534924D03*
D17*
X788670Y774954D02*
X788670Y800100D01*
X788670Y774954D02*
X854964Y708660D01*
X1094994Y708660D01*
X1131570Y672084D01*
X1328166Y672084D02*
X1332738Y672084D01*
X1328166Y672084D02*
X1131570Y672084D01*
X1332738Y672084D02*
X1344168Y660654D01*
X788670Y800100D02*
X787400Y800100D01*
X1344168Y660654D02*
X1346200Y660400D01*
X1332738Y692658D02*
X1332738Y761238D01*
X1332738Y692658D02*
X1328166Y688086D01*
X1328166Y672084D01*
X1332738Y761238D02*
X1333500Y762000D01*
X812800Y800100D02*
X802386Y800100D01*
X790956Y811530D01*
X784098Y811530D01*
X777240Y804672D01*
X777240Y758952D01*
X928116Y608076D01*
X1060704Y608076D01*
X1147572Y521208D01*
X1282446Y521208D01*
X1282700Y520700D01*
X1346200Y685800D02*
X1453896Y685800D01*
X1467612Y672084D01*
X1467612Y507492D01*
X1447038Y486918D01*
X1316736Y486918D01*
X1284732Y518922D01*
X1282700Y520700D01*
X265176Y235458D02*
X265176Y221742D01*
X260604Y315468D02*
X260604Y397764D01*
X285750Y422910D01*
X402336Y518922D02*
X402336Y553212D01*
X457200Y608076D01*
X457200Y656082D01*
X523494Y722376D01*
X596646Y722376D01*
D18*
X265176Y221742D03*
X265176Y235458D03*
X260604Y315468D03*
X285750Y422910D03*
X402336Y518922D03*
X596646Y722376D03*
D17*
X192024Y233172D02*
X192024Y212598D01*
X192024Y233172D02*
X75438Y349758D01*
X75438Y452628D01*
X91440Y468630D01*
X338328Y468630D01*
X429768Y477774D02*
X493776Y477774D01*
X505206Y489204D01*
X562356Y489204D01*
X646938Y573786D01*
X701802Y573786D01*
X768096Y640080D01*
X768096Y765810D01*
X765810Y768096D01*
D18*
X192024Y212598D03*
X192024Y233172D03*
X338328Y468630D03*
X429768Y477774D03*
X765810Y768096D03*
D17*
X86868Y210312D02*
X86868Y134874D01*
X196596Y25146D01*
X196596Y16002D01*
X221742Y-9144D01*
X813816Y246888D02*
X813816Y265176D01*
X763524Y315468D01*
X762000Y317500D01*
D18*
X86868Y210312D03*
X221742Y-9144D03*
X813816Y246888D03*
D17*
X315468Y235458D02*
X315468Y224028D01*
X317754Y221742D01*
X1085850Y198882D02*
X1085850Y256032D01*
X976122Y365760D01*
X976122Y372618D01*
X969264Y379476D01*
X932688Y379476D01*
X912114Y400050D01*
X829818Y400050D01*
X784098Y445770D01*
X736092Y445770D01*
X724662Y434340D01*
X637794Y352044D02*
X637794Y320040D01*
X635508Y317754D01*
X635000Y317500D01*
X324612Y235458D02*
X315468Y235458D01*
X324612Y235458D02*
X368046Y278892D01*
X368046Y320040D01*
X518922Y354330D02*
X635508Y354330D01*
X637794Y352044D01*
D18*
X315468Y235458D03*
X317754Y221742D03*
X1085850Y198882D03*
X724662Y434340D03*
X637794Y352044D03*
X368046Y320040D03*
X518922Y354330D03*
D17*
X345186Y235458D02*
X345186Y224028D01*
X317754Y246888D02*
X118872Y445770D01*
X114300Y445770D01*
X114300Y447040D01*
X992124Y105156D02*
X1010412Y123444D01*
X992124Y105156D02*
X992124Y89154D01*
X989838Y86868D01*
X957834Y86868D01*
X918972Y125730D01*
X918972Y150876D01*
X838962Y230886D01*
X740664Y230886D01*
X720090Y251460D01*
X656082Y283464D02*
X640080Y283464D01*
X608076Y315468D01*
X609600Y317500D01*
X386334Y182880D02*
X345186Y224028D01*
X342900Y221742D01*
D18*
X345186Y235458D03*
X342900Y221742D03*
X317754Y246888D03*
X1010412Y123444D03*
X720090Y251460D03*
X656082Y283464D03*
X386334Y182880D03*
D17*
X153162Y301752D02*
X153162Y308610D01*
X134874Y326898D01*
X134874Y361188D01*
X139446Y365760D01*
X573786Y347472D02*
X573786Y326898D01*
X582930Y317754D01*
X584200Y317500D01*
X1168146Y230886D02*
X1168146Y420624D01*
X1250442Y502920D01*
X1250442Y512064D01*
X1245870Y516636D01*
X982980Y516636D01*
X969264Y530352D01*
X827532Y530352D01*
X804672Y553212D01*
X749808Y553212D01*
X717804Y521208D01*
X717804Y425196D01*
X720090Y422910D01*
X176022Y365760D02*
X139446Y365760D01*
D18*
X153162Y301752D03*
X139446Y365760D03*
X573786Y347472D03*
X1168146Y230886D03*
X720090Y422910D03*
X176022Y365760D03*
D17*
X38862Y349758D02*
X38862Y251460D01*
X38862Y349758D02*
X68580Y379476D01*
X146304Y358902D02*
X194310Y358902D01*
X450342Y368046D02*
X466344Y368046D01*
X505206Y329184D01*
X521208Y329184D01*
X532638Y317754D01*
X533400Y317500D01*
X521208Y329184D02*
X521208Y345186D01*
X836676Y82296D02*
X836676Y29718D01*
X832104Y182880D02*
X756666Y182880D01*
X731520Y208026D01*
X692658Y208026D02*
X692658Y235458D01*
X653796Y274320D02*
X649224Y274320D01*
X644652Y278892D01*
X571500Y278892D01*
X534924Y315468D01*
X533400Y317500D01*
D18*
X38862Y251460D03*
X68580Y379476D03*
X146304Y358902D03*
X194310Y358902D03*
X450342Y368046D03*
X521208Y345186D03*
X836676Y29718D03*
X836676Y82296D03*
X832104Y182880D03*
X731520Y208026D03*
X692658Y208026D03*
X692658Y235458D03*
X653796Y274320D03*
D17*
X507492Y317754D02*
X464058Y361188D01*
X427482Y361188D01*
X251460Y361188D02*
X166878Y445770D01*
X507492Y317754D02*
X508000Y317500D01*
X166878Y445770D02*
X165100Y447040D01*
X173736Y726948D02*
X212598Y765810D01*
X173736Y726948D02*
X173736Y626364D01*
X153162Y605790D01*
X153162Y594360D01*
X130302Y571500D01*
D18*
X427482Y361188D03*
X251460Y361188D03*
X212598Y765810D03*
X130302Y571500D03*
D17*
X1412748Y706374D02*
X1458468Y706374D01*
X1412748Y706374D02*
X1337310Y781812D01*
X1191006Y781812D01*
X1115568Y706374D01*
X1081278Y697230D02*
X1028700Y697230D01*
X969264Y637794D01*
X955548Y637794D01*
X950976Y633222D01*
D18*
X1458468Y706374D03*
X1115568Y706374D03*
X1081278Y697230D03*
X950976Y633222D03*
D17*
X1474470Y288036D02*
X1511046Y288036D01*
X1474470Y288036D02*
X1460754Y301752D01*
X953262Y624078D02*
X941832Y624078D01*
X953262Y624078D02*
X962406Y633222D01*
X1250442Y633222D01*
X1259586Y624078D01*
X1284732Y624078D01*
X1291590Y630936D01*
X1392174Y692658D02*
X1465326Y692658D01*
X1472184Y699516D01*
X941832Y624078D02*
X939800Y622300D01*
D18*
X1511046Y288036D03*
X1460754Y301752D03*
X1291590Y630936D03*
X1392174Y692658D03*
X1472184Y699516D03*
D17*
X950976Y749808D02*
X941832Y749808D01*
X950976Y749808D02*
X960120Y758952D01*
X1040130Y758952D01*
X941832Y749808D02*
X939800Y749300D01*
D18*
X1040130Y758952D03*
D17*
X292608Y598932D02*
X187452Y493776D01*
X292608Y598932D02*
X292100Y599440D01*
X1092708Y640080D02*
X1115568Y640080D01*
X1092708Y640080D02*
X1042416Y690372D01*
X420624Y626364D02*
X406908Y626364D01*
X420624Y626364D02*
X523494Y729234D01*
X614934Y729234D01*
D18*
X187452Y493776D03*
X1092708Y640080D03*
X1115568Y640080D03*
X1042416Y690372D03*
X406908Y626364D03*
X614934Y729234D03*
D17*
X445770Y235458D02*
X468630Y212598D01*
X953262Y596646D02*
X964692Y596646D01*
X953262Y596646D02*
X939546Y582930D01*
X765810Y582930D01*
X724662Y541782D01*
X585216Y457200D02*
X486918Y358902D01*
X461772Y345186D02*
X461772Y326898D01*
X468630Y320040D01*
X468630Y276606D01*
X448056Y256032D01*
X429768Y256032D01*
X427482Y253746D01*
X427482Y244602D01*
X436626Y235458D01*
X445770Y235458D01*
X964692Y596646D02*
X965200Y596900D01*
D18*
X468630Y212598D03*
X445770Y235458D03*
X724662Y541782D03*
X585216Y457200D03*
X486918Y358902D03*
X461772Y345186D03*
D17*
X1543050Y326898D02*
X1543050Y390906D01*
X1479042Y454914D01*
X1451610Y454914D01*
X1394460Y514350D02*
X1369314Y539496D01*
X1319022Y537210D02*
X1293876Y562356D01*
X1129284Y562356D01*
X1069848Y621792D01*
X966978Y621792D01*
X965200Y622300D01*
D18*
X1543050Y326898D03*
X1451610Y454914D03*
X1394460Y514350D03*
X1369314Y539496D03*
X1319022Y537210D03*
D17*
X112014Y185166D02*
X112014Y171450D01*
X242316Y251460D02*
X292608Y251460D01*
X434340Y249174D02*
X443484Y249174D01*
X475488Y217170D01*
X633222Y217170D01*
X685800Y269748D01*
X706374Y269748D01*
X786384Y304038D02*
X804672Y304038D01*
X864108Y244602D01*
X870966Y244602D01*
X882396Y233172D01*
X925830Y233172D01*
D18*
X112014Y171450D03*
X112014Y185166D03*
X242316Y251460D03*
X292608Y251460D03*
X434340Y249174D03*
X706374Y269748D03*
X786384Y304038D03*
X925830Y233172D03*
D17*
X866394Y169164D02*
X788670Y169164D01*
X1449324Y640080D02*
X1449324Y667512D01*
X235458Y25146D02*
X217170Y43434D01*
X235458Y25146D02*
X235458Y18288D01*
X265176Y-11430D01*
X578358Y-11430D01*
X612648Y22860D01*
X613700Y23500D01*
X1515618Y448056D02*
X1515618Y454914D01*
X1515618Y448056D02*
X1559052Y404622D01*
X1559052Y176022D01*
X1431036Y48006D01*
X1431036Y16002D01*
X1396746Y-18288D01*
X656082Y-18288D01*
X614934Y22860D01*
X613700Y23500D01*
D18*
X866394Y169164D03*
X788670Y169164D03*
X1449324Y667512D03*
X1449324Y640080D03*
X217170Y43434D03*
X1515618Y454914D03*
D17*
X278892Y61722D02*
X274320Y61722D01*
X278892Y61722D02*
X315468Y25146D01*
X315468Y18288D01*
X326898Y6858D01*
X395478Y6858D01*
X411480Y22860D01*
X274320Y61722D02*
X273700Y63500D01*
X411480Y22860D02*
X413700Y23500D01*
X203454Y276606D02*
X173736Y276606D01*
X205740Y278892D02*
X212598Y278892D01*
X262890Y278892D01*
X205740Y278892D02*
X203454Y276606D01*
X333756Y265176D02*
X342900Y265176D01*
X354330Y276606D01*
X333756Y285750D02*
X333756Y265176D01*
X212598Y278892D02*
X212598Y340614D01*
X146304Y340614D01*
X240030Y781812D02*
X246888Y781812D01*
X265176Y800100D01*
X266700Y800100D01*
X240030Y781812D02*
X203454Y745236D01*
X409194Y299466D02*
X409194Y288036D01*
X409194Y299466D02*
X395478Y313182D01*
X395478Y416052D01*
X370332Y441198D01*
X370332Y445770D01*
X368300Y447040D01*
X427482Y276606D02*
X457200Y276606D01*
X317754Y500634D02*
X317754Y598932D01*
X317754Y500634D02*
X370332Y448056D01*
X317754Y598932D02*
X317500Y599440D01*
X370332Y448056D02*
X368300Y447040D01*
X203454Y720090D02*
X203454Y745236D01*
X203454Y720090D02*
X315468Y608076D01*
X315468Y601218D01*
X317500Y599440D01*
X306324Y489204D02*
X205740Y489204D01*
X306324Y489204D02*
X317754Y500634D01*
X1346454Y381762D02*
X1405890Y441198D01*
X1346454Y381762D02*
X1346200Y381000D01*
X1405890Y272034D02*
X1479042Y272034D01*
X1515618Y272034D01*
X1405890Y272034D02*
X1394460Y283464D01*
X1385316Y283464D01*
X1362456Y260604D01*
X1362456Y219456D01*
X1346200Y203200D01*
X1517904Y274320D02*
X1517904Y294894D01*
X1517904Y274320D02*
X1515618Y272034D01*
X1065276Y269748D02*
X1065276Y249174D01*
X1065276Y269748D02*
X966978Y368046D01*
X965200Y368300D01*
X827532Y377190D02*
X786384Y377190D01*
X832104Y372618D02*
X834390Y370332D01*
X832104Y372618D02*
X827532Y377190D01*
X834390Y370332D02*
X939546Y370332D01*
X939800Y368300D01*
X832104Y370332D02*
X832104Y372618D01*
X1014984Y105156D02*
X1026414Y105156D01*
X1056132Y134874D01*
X1056132Y240030D01*
X1065276Y249174D01*
X1014984Y105156D02*
X1013800Y103500D01*
X1394460Y493776D02*
X1328166Y560070D01*
X1328166Y617220D01*
X1344168Y633222D01*
X1346200Y635000D01*
X784098Y452628D02*
X772668Y464058D01*
D18*
X173736Y276606D03*
X203454Y276606D03*
X262890Y278892D03*
X333756Y265176D03*
X354330Y276606D03*
X333756Y285750D03*
X212598Y340614D03*
X146304Y340614D03*
X240030Y781812D03*
X203454Y745236D03*
X409194Y288036D03*
X457200Y276606D03*
X427482Y276606D03*
X205740Y489204D03*
X1405890Y441198D03*
X1515618Y272034D03*
X1517904Y294894D03*
X1479042Y272034D03*
X1065276Y249174D03*
X786384Y377190D03*
X832104Y370332D03*
X1394460Y493776D03*
X772668Y464058D03*
X784098Y452628D03*
D17*
X861822Y235458D02*
X861822Y214884D01*
X971550Y105156D01*
X973800Y103500D01*
X861822Y235458D02*
X795528Y235458D01*
X786384Y244602D01*
X786384Y265176D01*
X745236Y306324D01*
X733806Y306324D01*
X717804Y322326D01*
X717804Y338328D01*
X720090Y340614D01*
X861822Y237744D02*
X861822Y235458D01*
X1415034Y678942D02*
X1435608Y678942D01*
X1415034Y678942D02*
X1346454Y610362D01*
X1346200Y609600D01*
X1513332Y384048D02*
X1517904Y384048D01*
X1513332Y384048D02*
X1492758Y363474D01*
X1357884Y363474D01*
X1351026Y356616D01*
X1346454Y356616D01*
X1346200Y355600D01*
X315468Y448056D02*
X308610Y448056D01*
X294894Y461772D01*
X139446Y461772D01*
X315468Y448056D02*
X317500Y447040D01*
X212598Y102870D02*
X212598Y59436D01*
X198882Y45720D01*
X187452Y45720D01*
X93726Y139446D01*
X93726Y203454D01*
X212598Y102870D02*
X213700Y103500D01*
X80010Y544068D02*
X54864Y569214D01*
D18*
X861822Y237744D03*
X720090Y340614D03*
X1435608Y678942D03*
X1517904Y384048D03*
X139446Y461772D03*
X93726Y203454D03*
X54864Y569214D03*
X80010Y544068D03*
D17*
X1040130Y187452D02*
X1042416Y187452D01*
X1046988Y192024D01*
X1046988Y212598D01*
X1040130Y219456D01*
X1040130Y187452D02*
X994410Y141732D01*
X912114Y141732D02*
X902970Y141732D01*
X900684Y144018D01*
X688086Y144018D01*
X653796Y109728D01*
X580644Y77724D02*
X562356Y77724D01*
X560070Y80010D01*
X466344Y80010D01*
X450342Y64008D01*
X450342Y57150D01*
X438912Y45720D01*
X347472Y45720D01*
X331470Y61722D01*
X331470Y70866D01*
X299466Y102870D01*
X294894Y102870D01*
X293700Y103500D01*
D18*
X1040130Y187452D03*
X1040130Y219456D03*
X994410Y141732D03*
X912114Y141732D03*
X653796Y109728D03*
X580644Y77724D03*
D17*
X395478Y224028D02*
X395478Y235458D01*
X395478Y224028D02*
X393192Y221742D01*
X946404Y308610D02*
X950976Y308610D01*
X946404Y308610D02*
X923544Y331470D01*
X795528Y331470D01*
X788670Y338328D01*
X742950Y338328D01*
X699516Y294894D02*
X692658Y294894D01*
X633222Y235458D01*
X468630Y235458D01*
D18*
X395478Y235458D03*
X393192Y221742D03*
X950976Y308610D03*
X742950Y338328D03*
X699516Y294894D03*
X468630Y235458D03*
D17*
X1104138Y230886D02*
X1104138Y249174D01*
X1010412Y342900D01*
X939546Y342900D02*
X818388Y342900D01*
X797814Y363474D01*
X694944Y285750D02*
X690372Y285750D01*
X628650Y224028D01*
X507492Y121158D02*
X484632Y121158D01*
D18*
X1104138Y230886D03*
X1010412Y342900D03*
X939546Y342900D03*
X797814Y363474D03*
X694944Y285750D03*
X628650Y224028D03*
X507492Y121158D03*
X484632Y121158D03*
D17*
X292608Y420624D02*
X292608Y445770D01*
X292608Y420624D02*
X390906Y322326D01*
X390906Y258318D01*
X452628Y196596D01*
X452628Y105156D01*
X292608Y445770D02*
X292100Y447040D01*
X452628Y105156D02*
X453700Y103500D01*
X1040130Y196596D02*
X1040130Y208026D01*
X941832Y306324D01*
X809244Y306324D01*
X797814Y317754D01*
X797814Y322326D01*
X788670Y331470D01*
X724662Y331470D01*
X482346Y182880D02*
X466344Y166878D01*
X361188Y166878D02*
X320040Y166878D01*
X258318Y105156D01*
X253746Y105156D01*
X253700Y103500D01*
D18*
X1040130Y196596D03*
X724662Y331470D03*
X482346Y182880D03*
X466344Y166878D03*
X361188Y166878D03*
D17*
X336042Y128016D02*
X336042Y107442D01*
X333756Y105156D01*
X333700Y103500D01*
X1485900Y187452D02*
X1485900Y192024D01*
X1536192Y242316D01*
X1536192Y386334D01*
X432054Y813816D02*
X393192Y813816D01*
X379476Y800100D01*
X379476Y683514D01*
X315468Y619506D01*
X304038Y608076D02*
X304038Y594360D01*
X205740Y496062D01*
X201168Y496062D01*
X180594Y475488D01*
X160020Y393192D02*
X144018Y393192D01*
X123444Y372618D01*
X123444Y308610D01*
X192024Y240030D01*
X196596Y240030D01*
X237744Y198882D01*
X237744Y187452D01*
D18*
X336042Y128016D03*
X1485900Y187452D03*
X1536192Y386334D03*
X432054Y813816D03*
X315468Y619506D03*
X304038Y608076D03*
X180594Y475488D03*
X160020Y393192D03*
X237744Y187452D03*
D17*
X1508760Y546354D02*
X1508760Y736092D01*
X1280160Y283464D02*
X1280160Y265176D01*
X1291590Y253746D01*
X1291590Y132588D01*
X1271016Y112014D01*
X1271016Y84582D01*
X1250442Y64008D01*
X1250442Y43434D01*
X1232154Y25146D01*
X1232154Y18288D01*
X1227582Y13716D02*
X1216152Y2286D01*
X1227582Y13716D02*
X1232154Y18288D01*
X1216152Y2286D02*
X690372Y2286D01*
X608076Y84582D01*
X1508760Y432054D02*
X1508760Y546354D01*
X1508760Y432054D02*
X1549908Y390906D01*
X1549908Y196596D01*
X1394460Y41148D01*
X1367028Y41148D01*
X1351026Y25146D01*
X1351026Y16002D01*
X1337310Y2286D01*
X1239012Y2286D02*
X1227582Y13716D01*
D18*
X1508760Y546354D03*
X1508760Y736092D03*
X1280160Y283464D03*
X608076Y84582D03*
X1337310Y2286D03*
X1239012Y2286D03*
D17*
X1143000Y322326D02*
X1042416Y322326D01*
X978408Y258318D02*
X900684Y258318D01*
X884682Y242316D01*
X797814Y155448D02*
X692658Y155448D01*
D18*
X1143000Y322326D03*
X1042416Y322326D03*
X978408Y258318D03*
X884682Y242316D03*
X797814Y155448D03*
X692658Y155448D03*
D17*
X1460754Y640080D02*
X1460754Y667512D01*
X1460754Y640080D02*
X1399032Y578358D01*
X1378458Y578358D01*
X1355598Y555498D01*
X1271016Y482346D02*
X1271016Y470916D01*
X1197864Y397764D01*
X1197864Y354330D01*
X889254Y130302D02*
X745236Y130302D01*
X889254Y130302D02*
X896112Y137160D01*
X925830Y162306D02*
X932688Y162306D01*
X969264Y198882D01*
X1030986Y198882D01*
D18*
X1460754Y667512D03*
X1355598Y555498D03*
X1271016Y482346D03*
X1197864Y354330D03*
X745236Y130302D03*
X896112Y137160D03*
X925830Y162306D03*
X1030986Y198882D03*
D17*
X1008126Y180594D02*
X962406Y134874D01*
X905256Y134874D02*
X873252Y102870D01*
X756666Y102870D01*
X603504Y2286D02*
X598932Y2286D01*
X580644Y-16002D01*
X253746Y-16002D01*
X214884Y22860D01*
X213700Y23500D01*
D18*
X1008126Y180594D03*
X962406Y134874D03*
X905256Y134874D03*
X756666Y102870D03*
X603504Y2286D03*
D17*
X1385316Y573786D02*
X1460754Y573786D01*
X1385316Y573786D02*
X1364742Y553212D01*
X1293876Y544068D02*
X1200150Y544068D01*
X182880Y125730D02*
X64008Y244602D01*
X34290Y244602D01*
X32004Y246888D01*
X32004Y422910D01*
X50292Y441198D01*
X50292Y454914D01*
X36576Y468630D01*
X36576Y580644D01*
X50292Y594360D01*
X50292Y649224D01*
X208026Y806958D01*
X208026Y816102D01*
X198882Y825246D01*
X48006Y825246D01*
X1371600Y825246D02*
X1499616Y697230D01*
X1499616Y633222D01*
D18*
X1460754Y573786D03*
X1364742Y553212D03*
X1293876Y544068D03*
X1200150Y544068D03*
X182880Y125730D03*
X48006Y825246D03*
X1371600Y825246D03*
X1499616Y633222D03*
D17*
X1159002Y354330D02*
X1159002Y221742D01*
X1072134Y134874D01*
X976122Y48006D02*
X937260Y48006D01*
X907542Y18288D01*
X694944Y18288D01*
X388620Y-4572D02*
X322326Y-4572D01*
X294894Y22860D01*
X293700Y23500D01*
D18*
X1159002Y354330D03*
X1072134Y134874D03*
X976122Y48006D03*
X694944Y18288D03*
X388620Y-4572D03*
D17*
X1485900Y512064D02*
X1485900Y534924D01*
X1485900Y512064D02*
X1424178Y450342D01*
X1387602Y450342D01*
X1353312Y450342D02*
X1261872Y450342D01*
X331470Y25146D02*
X326898Y25146D01*
X290322Y61722D01*
X290322Y82296D01*
X276606Y96012D01*
X276606Y109728D01*
X301752Y134874D01*
X390906Y134874D01*
X397764Y141732D01*
X402336Y160020D02*
X402336Y240030D01*
X384048Y258318D01*
X384048Y304038D01*
X720090Y411480D02*
X800100Y411480D01*
X832104Y379476D01*
X921258Y379476D01*
X1033272Y404622D02*
X1120140Y491490D01*
X1168146Y491490D01*
X333700Y23500D02*
X331470Y25146D01*
D18*
X1485900Y534924D03*
X1387602Y450342D03*
X1353312Y450342D03*
X1261872Y450342D03*
X397764Y141732D03*
X402336Y160020D03*
X384048Y304038D03*
X720090Y411480D03*
X921258Y379476D03*
X1033272Y404622D03*
X1168146Y491490D03*
D17*
X1181862Y475488D02*
X1035558Y329184D01*
X957834Y251460D02*
X898398Y192024D01*
X882396Y176022D02*
X873252Y166878D01*
X873252Y164592D01*
X857250Y148590D01*
X667512Y148590D01*
X651510Y132588D01*
X532638Y66294D02*
X532638Y59436D01*
X514350Y41148D01*
X390906Y41148D01*
X374904Y25146D01*
X373700Y23500D01*
D18*
X1181862Y475488D03*
X1035558Y329184D03*
X957834Y251460D03*
X898398Y192024D03*
X882396Y176022D03*
X651510Y132588D03*
X532638Y66294D03*
D17*
X1472184Y409194D02*
X1511046Y409194D01*
X1529334Y390906D01*
X1529334Y242316D01*
X1392174Y105156D01*
X1392174Y86868D01*
X1373886Y68580D01*
X1229868Y43434D02*
X1149858Y43434D01*
X1133856Y59436D01*
X1133856Y102870D01*
X1133800Y103500D01*
X834390Y96012D02*
X667512Y96012D01*
D18*
X1472184Y409194D03*
X1373886Y68580D03*
X1229868Y43434D03*
X667512Y96012D03*
X834390Y96012D03*
D17*
X1419606Y356616D02*
X1460754Y356616D01*
X1419606Y356616D02*
X1337310Y274320D01*
X1225296Y86868D02*
X1191006Y86868D01*
X1175004Y102870D01*
X1173800Y103500D01*
X948690Y89154D02*
X660654Y89154D01*
X948690Y89154D02*
X957834Y80010D01*
X1081278Y80010D01*
X1097280Y64008D01*
X1097280Y54864D01*
X1106424Y45720D01*
X1122426Y45720D01*
X1129284Y52578D01*
D18*
X1460754Y356616D03*
X1337310Y274320D03*
X1225296Y86868D03*
X660654Y89154D03*
X1129284Y52578D03*
D17*
X1401318Y509778D02*
X1458468Y509778D01*
X1401318Y509778D02*
X1399032Y507492D01*
X1389888Y507492D01*
X1344168Y553212D01*
X1344168Y555498D01*
X1261872Y486918D02*
X1261872Y468630D01*
X1175004Y381762D01*
X1175004Y226314D01*
X1053846Y105156D01*
X1053800Y103500D01*
X470916Y22860D02*
X454914Y22860D01*
X470916Y22860D02*
X486918Y6858D01*
X580644Y6858D01*
X596646Y22860D01*
X596646Y29718D01*
X608076Y41148D01*
X626364Y41148D01*
X681228Y-13716D01*
X1360170Y-13716D01*
X1396746Y22860D01*
X1396746Y36576D01*
X1554480Y194310D01*
X1554480Y397764D01*
X1543050Y409194D01*
X454914Y22860D02*
X453700Y23500D01*
D18*
X1458468Y509778D03*
X1344168Y555498D03*
X1261872Y486918D03*
X1543050Y409194D03*
D17*
X1485900Y384048D02*
X1460754Y409194D01*
X1485900Y384048D02*
X1506474Y384048D01*
X1513332Y390906D01*
X1522476Y390906D01*
X1524762Y388620D01*
X1524762Y269748D01*
X1376172Y121158D01*
X1367028Y121158D01*
X1351026Y105156D01*
X1351026Y84582D01*
X1335024Y68580D01*
X1335024Y48006D01*
X1314450Y27432D01*
X512064Y25146D02*
X493776Y25146D01*
X512064Y25146D02*
X532638Y45720D01*
X628650Y45720D01*
X683514Y-9144D01*
X1284732Y-9144D01*
X1314450Y20574D01*
X1314450Y27432D01*
X493776Y25146D02*
X493700Y23500D01*
D18*
X1460754Y409194D03*
X1485900Y384048D03*
X1314450Y27432D03*
D17*
X1298448Y297180D02*
X1280160Y315468D01*
D18*
X1280160Y315468D03*
X1298448Y297180D03*
D17*
X1152144Y347472D02*
X1152144Y226314D01*
X1062990Y137160D01*
D18*
X1152144Y347472D03*
X1062990Y137160D03*
D17*
X1223010Y555498D02*
X1293876Y555498D01*
X1300734Y548640D01*
X1300734Y539496D01*
X1296162Y534924D01*
X1296162Y496062D02*
X1300734Y496062D01*
X1339596Y457200D01*
X1357884Y457200D01*
X1371600Y443484D01*
X1389888Y276606D02*
X1389888Y160020D01*
X1335024Y105156D01*
X1333800Y103500D01*
D18*
X1223010Y555498D03*
X1296162Y534924D03*
X1296162Y496062D03*
X1371600Y443484D03*
X1389888Y276606D03*
D17*
X1270000Y685800D02*
X1124712Y685800D01*
X994410Y816102D01*
X781812Y816102D01*
X772668Y806958D01*
X772668Y601218D01*
X713232Y541782D01*
X713232Y217170D01*
X614934Y118872D01*
X614934Y105156D01*
X613700Y103500D01*
X1271016Y658368D02*
X1275588Y658368D01*
X1323594Y610362D01*
X1323594Y544068D01*
X1332738Y534924D01*
X1332738Y521208D01*
X1271016Y658368D02*
X1270000Y660400D01*
X1332738Y521208D02*
X1333500Y520700D01*
X1268730Y608076D02*
X1229868Y569214D01*
X1197864Y502920D02*
X985266Y502920D01*
X982980Y505206D01*
X960120Y505206D01*
X950976Y496062D01*
X950976Y466344D01*
X939546Y454914D01*
X934974Y454914D01*
X900684Y420624D01*
X900684Y411480D01*
X866394Y192024D02*
X852678Y192024D01*
X836676Y176022D01*
X683514Y176022D01*
X626364Y118872D01*
X589788Y91440D02*
X585216Y91440D01*
X580644Y86868D01*
X486918Y86868D01*
X470916Y102870D01*
X470916Y112014D01*
X459486Y123444D01*
X386334Y141732D02*
X301752Y141732D01*
X272034Y112014D01*
X272034Y98298D01*
X235458Y61722D01*
X1268730Y608076D02*
X1270000Y609600D01*
X235458Y61722D02*
X233700Y63500D01*
D18*
X1229868Y569214D03*
X1197864Y502920D03*
X900684Y411480D03*
X866394Y192024D03*
X626364Y118872D03*
X589788Y91440D03*
X459486Y123444D03*
X386334Y141732D03*
D17*
X1204722Y507492D02*
X1243584Y507492D01*
X1204722Y507492D02*
X1202436Y509778D01*
X925830Y509778D01*
X905256Y489204D01*
X829818Y489204D01*
D18*
X1243584Y507492D03*
X829818Y489204D03*
D17*
X470916Y185166D02*
X459486Y173736D01*
X470916Y185166D02*
X475488Y189738D01*
X276606Y182880D02*
X269748Y182880D01*
X194310Y107442D01*
X194310Y64008D01*
X193700Y63500D01*
X971550Y765810D02*
X973836Y765810D01*
X971550Y765810D02*
X969264Y763524D01*
X829818Y763524D01*
X820674Y754380D01*
X633222Y736092D02*
X505206Y736092D01*
X381762Y612648D01*
X381762Y436626D01*
X416052Y402336D01*
X416052Y240030D01*
X470916Y185166D01*
D18*
X475488Y189738D03*
X459486Y173736D03*
X276606Y182880D03*
X973836Y765810D03*
X820674Y754380D03*
X633222Y736092D03*
D17*
X496062Y653796D02*
X466344Y653796D01*
X464058Y651510D01*
D18*
X496062Y653796D03*
X464058Y651510D03*
D17*
X267462Y614934D02*
X205740Y614934D01*
X192024Y601218D01*
X190500Y599440D01*
D18*
X267462Y614934D03*
D17*
X704088Y630936D02*
X724662Y610362D01*
X724662Y235458D02*
X724662Y194310D01*
X726948Y137160D02*
X752094Y112014D01*
D18*
X704088Y630936D03*
X724662Y610362D03*
X724662Y235458D03*
X724662Y194310D03*
X726948Y137160D03*
X752094Y112014D03*
D17*
X601218Y541782D02*
X601218Y672084D01*
X601218Y541782D02*
X555498Y496062D01*
X557784Y473202D02*
X489204Y404622D01*
X340614Y342900D02*
X288036Y290322D01*
X281178Y235458D02*
X281178Y189738D01*
X283464Y187452D01*
X283464Y141732D01*
X278892Y137160D01*
D18*
X601218Y672084D03*
X555498Y496062D03*
X557784Y473202D03*
X489204Y404622D03*
X340614Y342900D03*
X288036Y290322D03*
X281178Y235458D03*
X278892Y137160D03*
D17*
X502920Y582930D02*
X502920Y669798D01*
X502920Y582930D02*
X560070Y525780D01*
X580644Y491490D02*
X596646Y491490D01*
X658368Y429768D01*
X658368Y329184D01*
X644652Y315468D01*
X644652Y313182D01*
X637794Y306324D01*
X628650Y306324D01*
X409194Y130302D02*
X409194Y123444D01*
X395478Y109728D01*
X395478Y64008D01*
X393700Y63500D01*
D18*
X502920Y669798D03*
X560070Y525780D03*
X580644Y491490D03*
X628650Y306324D03*
X409194Y130302D03*
D17*
X130302Y308610D02*
X130302Y368046D01*
X130302Y308610D02*
X194310Y244602D01*
X283464Y244602D01*
X354330Y173736D01*
X377190Y173736D01*
X432054Y118872D01*
X432054Y64008D01*
X433700Y63500D01*
D18*
X130302Y368046D03*
D17*
X523494Y427482D02*
X544068Y427482D01*
X523494Y427482D02*
X493776Y397764D01*
X436626Y397764D01*
D18*
X544068Y427482D03*
X436626Y397764D03*
D17*
X761238Y651510D02*
X761238Y708660D01*
X640080Y829818D01*
X249174Y829818D01*
X89154Y669798D01*
X89154Y601218D01*
X88900Y599440D01*
D18*
X761238Y651510D03*
D17*
X548640Y482346D02*
X509778Y482346D01*
X548640Y482346D02*
X550926Y484632D01*
X592074Y484632D01*
X651510Y425196D01*
X747522Y438912D02*
X784098Y438912D01*
X836676Y386334D01*
X841248Y210312D02*
X841248Y192024D01*
D18*
X509778Y482346D03*
X651510Y425196D03*
X747522Y438912D03*
X836676Y386334D03*
X841248Y210312D03*
X841248Y192024D03*
D17*
X649224Y514350D02*
X598932Y514350D01*
X649224Y514350D02*
X701802Y461772D01*
X701802Y370332D01*
X747522Y370332D02*
X779526Y370332D01*
X813816Y336042D01*
X934974Y336042D01*
X1051560Y219456D01*
X1051560Y141732D01*
X1030986Y121158D01*
X1014984Y68580D02*
X1014984Y25146D01*
X1013800Y23500D01*
D18*
X598932Y514350D03*
X701802Y370332D03*
X747522Y370332D03*
X1030986Y121158D03*
X1014984Y68580D03*
D17*
X660654Y434340D02*
X660654Y491490D01*
X660654Y434340D02*
X672084Y422910D01*
X672084Y313182D01*
X649224Y290322D01*
X665226Y132588D02*
X646938Y114300D01*
X646938Y52578D01*
X692658Y6858D01*
X1035558Y6858D01*
X1051560Y22860D01*
X1053800Y23500D01*
D18*
X660654Y491490D03*
X649224Y290322D03*
X665226Y132588D03*
D17*
X706374Y377190D02*
X706374Y477774D01*
X706374Y377190D02*
X708660Y374904D01*
X708660Y283464D01*
X704088Y278892D01*
X690372Y262890D02*
X571500Y144018D01*
D18*
X706374Y477774D03*
X704088Y278892D03*
X690372Y262890D03*
X571500Y144018D03*
D17*
X427482Y384048D02*
X427482Y400050D01*
X502920Y475488D01*
X548640Y475488D01*
X553212Y480060D01*
X582930Y480060D01*
X585216Y477774D01*
D18*
X427482Y384048D03*
X585216Y477774D03*
D17*
X1344168Y228600D02*
X1344168Y221742D01*
X1316736Y194310D01*
X1316736Y84582D01*
X1330452Y70866D01*
X1330452Y57150D01*
X1314450Y41148D01*
X1287018Y41148D01*
X1271016Y25146D01*
X1271016Y16002D01*
X1250442Y-4572D01*
X685800Y-4572D01*
X596646Y84582D01*
X596646Y105156D01*
X496062Y205740D01*
X459486Y205740D01*
X420624Y244602D01*
X420624Y418338D01*
X441198Y438912D01*
X441198Y454914D01*
X395478Y500634D01*
X395478Y598932D01*
X1344168Y228600D02*
X1346200Y228600D01*
X395478Y598932D02*
X393700Y599440D01*
X1321308Y278892D02*
X1346200Y254000D01*
X1321308Y278892D02*
X1321308Y402336D01*
X1339596Y420624D01*
X1360170Y420624D01*
X1380744Y441198D01*
X1380744Y454914D01*
X1408176Y482346D01*
X1449324Y482346D01*
X1479042Y512064D01*
X1479042Y704088D01*
X1371600Y811530D01*
X1005840Y811530D01*
X982980Y834390D01*
X246888Y834390D01*
X64008Y651510D01*
X64008Y601218D01*
X63500Y599440D01*
X1271016Y253746D02*
X1271016Y249174D01*
X1287018Y233172D01*
X1287018Y160020D01*
X1232154Y105156D01*
X1232154Y82296D01*
X1229868Y80010D01*
X1211580Y80010D01*
X1195578Y64008D01*
X1270000Y254000D02*
X1271016Y253746D01*
X1195578Y64008D02*
X1193800Y63500D01*
X1268730Y224028D02*
X1268730Y228600D01*
X1268730Y224028D02*
X1154430Y109728D01*
X1154430Y64008D01*
X1268730Y228600D02*
X1270000Y228600D01*
X1154430Y64008D02*
X1153800Y63500D01*
X1255014Y443484D02*
X1307592Y443484D01*
X1191006Y480060D02*
X1172718Y498348D01*
X978408Y498348D01*
X914400Y509778D02*
X836676Y509778D01*
X800100Y546354D01*
X589788Y617220D02*
X521208Y617220D01*
X509778Y605790D01*
X194310Y582930D02*
X153162Y582930D01*
X43434Y473202D01*
D18*
X1307592Y443484D03*
X1255014Y443484D03*
X1191006Y480060D03*
X978408Y498348D03*
X914400Y509778D03*
X800100Y546354D03*
X589788Y617220D03*
X509778Y605790D03*
X194310Y582930D03*
X43434Y473202D03*
D17*
X1380744Y539496D02*
X1408176Y566928D01*
X201168Y806958D02*
X201168Y811530D01*
X201168Y806958D02*
X38862Y644652D01*
X38862Y601218D01*
X38100Y599440D01*
D18*
X1380744Y539496D03*
X1408176Y566928D03*
X201168Y811530D03*
D17*
X1248156Y409194D02*
X1268730Y429768D01*
X1248156Y409194D02*
X1248156Y356616D01*
X1282446Y322326D01*
X1284732Y322326D01*
X1305306Y301752D01*
X1305306Y139446D01*
X1275588Y109728D01*
X1275588Y64008D01*
X1268730Y429768D02*
X1270000Y431800D01*
X1275588Y64008D02*
X1273800Y63500D01*
X1271016Y374904D02*
X1271016Y379476D01*
X1271016Y374904D02*
X1312164Y333756D01*
X1312164Y64008D01*
X1271016Y379476D02*
X1270000Y381000D01*
X1312164Y64008D02*
X1313800Y63500D01*
X1268730Y356616D02*
X1268730Y361188D01*
X1252728Y377190D01*
X1252728Y384048D01*
X1259586Y390906D01*
X1282446Y390906D01*
X1316736Y356616D01*
X1316736Y210312D01*
X1319022Y208026D01*
X1270000Y355600D02*
X1268730Y356616D01*
D18*
X1319022Y208026D03*
D17*
X166878Y710946D02*
X153162Y697230D01*
X166878Y710946D02*
X166878Y740664D01*
X237744Y811530D01*
X269748Y811530D01*
X281178Y800100D01*
X281178Y795528D01*
X288036Y788670D01*
X345186Y788670D01*
X356616Y800100D01*
X356616Y802386D01*
X374904Y820674D01*
X630936Y820674D01*
X633222Y818388D01*
X1309878Y818388D02*
X1371600Y818388D01*
X1492758Y697230D01*
X1492758Y507492D01*
X1362456Y377190D01*
X1362456Y374904D01*
X1353312Y365760D01*
X1335024Y365760D01*
X1328166Y358902D01*
X1328166Y294894D01*
D18*
X166878Y710946D03*
X153162Y697230D03*
X633222Y818388D03*
X1309878Y818388D03*
X1328166Y294894D03*
D17*
X141732Y331470D02*
X141732Y333756D01*
X139446Y336042D01*
X139446Y345186D01*
X146304Y352044D01*
X201168Y352044D01*
X436626Y354330D02*
X464058Y354330D01*
X498348Y320040D01*
X498348Y313182D01*
X537210Y274320D01*
X642366Y274320D01*
X651510Y265176D01*
X786384Y614934D02*
X786384Y722376D01*
D18*
X141732Y331470D03*
X201168Y352044D03*
X436626Y354330D03*
X651510Y265176D03*
X786384Y722376D03*
X786384Y614934D03*
M02*
