M48
;GenerationSoftware,Autodesk,EAGLE,9.1.3*%
;CreationDate,2020-03-16T01:18:41Z*%
FMAT,2
ICI,OFF
METRIC,TZ,000.000
T8C0.350
T7C0.800
T6C0.813
T5C0.914
T4C1.016
T3C1.651
T2C1.750
T1C2.850
%
G90
M71
T1
X67870Y5850
X90880Y5850
X147880Y5850
X10870Y5850
T2
X121380Y10350
X29370Y10350
X25370Y10350
X21370Y10350
X17370Y10350
X141380Y2350
X127380Y6350
X131380Y6350
X135380Y6350
X139380Y6350
X43370Y6350
X97380Y2350
X101380Y2350
X105380Y2350
X109380Y2350
X113380Y2350
X117380Y2350
X121380Y2350
X125380Y2350
X129380Y2350
X123380Y6350
X119380Y6350
X115380Y6350
X111380Y6350
X133380Y2350
X107380Y6350
X103380Y6350
X99380Y6350
X141380Y10350
X137380Y10350
X133380Y10350
X129380Y10350
X125380Y10350
X117380Y10350
X113380Y10350
X109380Y10350
X105380Y10350
X101380Y10350
X97380Y10350
X61370Y2350
X57370Y2350
X53370Y2350
X49370Y2350
X45370Y2350
X41370Y2350
X37370Y2350
X33370Y2350
X29370Y2350
X25370Y2350
X21370Y2350
X17370Y2350
X59370Y6350
X55370Y6350
X51370Y6350
X47370Y6350
X137380Y2350
X39370Y6350
X35370Y6350
X31370Y6350
X27370Y6350
X23370Y6350
X19370Y6350
X61370Y10350
X57370Y10350
X53370Y10350
X49370Y10350
X45370Y10350
X41370Y10350
X37370Y10350
X33370Y10350
T3
X1270Y59944
X1270Y44704
X41910Y44704
X41910Y59944
T4
X128270Y76200
X130810Y76200
X133350Y76200
X54610Y25400
X77470Y25400
X130810Y52070
X128270Y52070
X80010Y25400
X52070Y25400
X133350Y52070
T5
X29210Y59944
X39370Y59944
X36830Y59944
X34290Y59944
X24130Y59944
X36830Y44704
X39370Y44704
X3810Y59944
X6350Y59944
X8890Y59944
X11430Y59944
X13970Y59944
X16510Y59944
X19050Y59944
X21590Y59944
X26670Y59944
X3810Y44704
X8890Y44704
X11430Y44704
X13970Y44704
X31750Y59944
X16510Y44704
X19050Y44704
X21590Y44704
X24130Y44704
X6350Y44704
X29210Y44704
X31750Y44704
X34290Y44704
X26670Y44704
T6
X134620Y20320
X134620Y17780
X127000Y43180
X127000Y40640
X134620Y40640
X134620Y43180
X127000Y38100
X134620Y38100
X134620Y35560
X127000Y35560
X127000Y68580
X127000Y66040
X134620Y66040
X134620Y68580
X127000Y63500
X127000Y60960
X134620Y63500
X134620Y60960
X127000Y22860
X127000Y25400
X134620Y22860
X134620Y25400
X127000Y20320
X127000Y17780
T7
X38100Y31750
X40640Y31750
X43180Y31750
X45720Y31750
X50800Y31750
X53340Y31750
X55880Y31750
X58420Y31750
X60960Y31750
X63500Y31750
X66040Y31750
X68580Y31750
X96520Y64770
X96520Y62230
X96520Y59690
X96520Y57150
X96520Y54610
X96520Y52070
X96520Y49530
X96520Y46990
X96520Y44450
X96520Y41910
X96520Y39370
X96520Y36830
X93980Y36830
X93980Y39370
X93980Y41910
X93980Y44450
X93980Y46990
X93980Y49530
X93980Y52070
X93980Y54610
X93980Y57150
X93980Y59690
X93980Y62230
X93980Y64770
X93980Y67310
X93980Y69850
X93980Y72390
X93980Y74930
X93980Y77470
X93980Y80010
X86360Y80010
X83820Y80010
X81280Y80010
X78740Y80010
X76200Y80010
X73660Y80010
X71120Y80010
X68580Y80010
X63500Y80010
X60960Y80010
X58420Y80010
X34290Y80010
X55880Y80010
X53340Y80010
X50800Y80010
X48260Y80010
X45720Y80010
X41910Y80010
X39370Y80010
X36830Y80010
X31750Y80010
X29210Y80010
X26670Y80010
X24130Y80010
X73660Y31750
X76200Y31750
X78740Y31750
X81280Y31750
X83820Y31750
X86360Y31750
X88900Y31750
X96520Y80010
X96520Y77470
X96520Y74930
X96520Y69850
X96520Y67310
X33020Y31750
X91440Y31750
X35560Y31750
X96520Y72390
T8
X148590Y53492
X138760Y45034
X135331Y45034
X126187Y45034
X39776Y14173
X40234Y16002
X38405Y30404
X72009Y41148
X92126Y37948
X103327Y40462
X116815Y49149
X118186Y47549
X103556Y32918
X95783Y25146
X89840Y19202
X88240Y17602
X65151Y13259
X53264Y6629
X147218Y40919
X137389Y6858
X122987Y4343
X66751Y9601
X83439Y9601
X146075Y35662
X133731Y27432
X122530Y8687
X66065Y8915
X112928Y5258
X145847Y50978
X134417Y55550
X126187Y48692
X154305Y40919
X146075Y40919
X148590Y38405
X131445Y2743
X128016Y31547
X129845Y29718
X115214Y34747
X106299Y13716
X122301Y55550
X129616Y53492
X129616Y49606
X137160Y44348
X138989Y27661
X122987Y56921
X119786Y50292
X90068Y41148
X86639Y19202
X62636Y11887
X58979Y9144
X45949Y12344
X38633Y14173
X124358Y50749
X82982Y48920
X47549Y18974
X45949Y17374
X27661Y18288
X97384Y76581
X82067Y75438
X63322Y73609
X49606Y65380
X46406Y65151
X26746Y61493
X70409Y63094
X72466Y61036
X69266Y20803
X72466Y19431
X72695Y13716
X75209Y11201
X60122Y67208
X55550Y49606
X55778Y47320
X48920Y40462
X34061Y34290
X28804Y29032
X28118Y23546
X27889Y13716
X50292Y66980
X56007Y52578
X58064Y49149
X62865Y30632
X40919Y13030
X13030Y36805
X54407Y42748
X43663Y39776
X76124Y65151
X50978Y48235
X65151Y42520
X74752Y43891
X83668Y38633
X84125Y21031
X84125Y19202
X59893Y51435
X70180Y37033
X74752Y37033
X103099Y12116
X101498Y6858
X66065Y49149
X64922Y29032
X66523Y13259
X70637Y47777
X70409Y27889
X69037Y26289
X57150Y14402
X42748Y38405
X58522Y47777
X130759Y44348
X125501Y44348
X119101Y48006
X97841Y49835
X91440Y50978
X80010Y54635
X58979Y61722
X50978Y60579
X19431Y58293
X4343Y47320
X138074Y53950
X140818Y56693
X20117Y81153
X131902Y20803
X16688Y71095
X15316Y69723
X63322Y81839
X130988Y81839
X132817Y29489
X14173Y33147
X20117Y35204
X43663Y35433
X65151Y26518
X78638Y72238
X78638Y61493
X71323Y74524
X80239Y74524
X106756Y61265
X105156Y58293
X108814Y56007
X37033Y78181
X72466Y23546
X63094Y62408
X67437Y58064
X73152Y52349
X106528Y38405
X47549Y72009
X58750Y70180
X66751Y70180
X80239Y66980
X88240Y58979
X104470Y48006
X106528Y45949
X74752Y63094
X81382Y56464
X88240Y53721
X104470Y40462
X107442Y38633
X74066Y62408
X81382Y37033
X104013Y28118
X73381Y64237
X81382Y57607
X106528Y53492
X26518Y22174
X26518Y23546
X26060Y31547
X28575Y42291
X40234Y51892
X59665Y72238
X19202Y21260
X19202Y23317
X33833Y46863
X42977Y47777
X76581Y76810
X8687Y21031
X22174Y-914
X81382Y24689
X31547Y23546
X31775Y22174
X108585Y19888
X72466Y43434
X63779Y35204
X36805Y32004
X51892Y35433
X34519Y23546
X34290Y22174
X31775Y24689
X101041Y12344
X72009Y25146
X65608Y28346
X38633Y18288
X15316Y30175
X13945Y36576
X57379Y34747
X116815Y23089
X72009Y42291
X17602Y36576
X3886Y25146
X6858Y37948
X14630Y35890
X19431Y35890
X45034Y36805
X52121Y34519
X83668Y2972
X83668Y8230
X83210Y18288
X73152Y20803
X69266Y23546
X65380Y27432
X42748Y36119
X25146Y36119
X21260Y76581
X13030Y57150
X145847Y70637
X111557Y70637
X108128Y69723
X95098Y63322
X151105Y28804
X146075Y30175
X129159Y63094
X139217Y69266
X147218Y69952
X104013Y75895
X18745Y49378
X109271Y64008
X111557Y64008
X104242Y69037
X40691Y62636
X61493Y72923
X46863Y21260
X44577Y23546
X72466Y54178
X58522Y45720
X48692Y35890
X46177Y34519
X154305Y32690
X145161Y45491
X139446Y51435
X136931Y53950
X131902Y53721
X11201Y17145
X11201Y18517
X24232Y25146
X29261Y25146
X43434Y24917
X70637Y26975
X78638Y30404
X92583Y23317
X86639Y16916
X78867Y16916
X144932Y66751
X144932Y64008
X21717Y4343
X151562Y45491
X17374Y27661
X20345Y27661
X26289Y27889
X33376Y26518
X35433Y27661
X33376Y28575
X21260Y34061
X14630Y34061
X24003Y78181
X20345Y74524
X40919Y28804
X45720Y27661
X42748Y27661
X20574Y48920
X140589Y44120
X151562Y27203
X151790Y29489
X147904Y27203
X106528Y24917
X78638Y37719
X83210Y37033
X139446Y49378
X77267Y46406
X78410Y45263
X86182Y23774
X72009Y34061
X143561Y67894
X151790Y38405
X13945Y46177
X9373Y20345
X5486Y56921
X137160Y82525
X8001Y54407
X104013Y18745
X104013Y21946
X99441Y14173
X91211Y14173
X65380Y10973
X58064Y7772
X39548Y23546
X39319Y22174
X95098Y30861
X74295Y33833
X69952Y29489
X46863Y23546
X110414Y23089
X101041Y34290
X93955Y34290
X79781Y36347
X69494Y28575
X62865Y22403
X50749Y12116
X48463Y12116
X104013Y19660
X72466Y33147
X48235Y18288
X46634Y16688
X36119Y16688
X33604Y12802
X148590Y18745
X153619Y38633
X43205Y81382
X31547Y61951
X30404Y60808
X18059Y47549
X16002Y39319
X23774Y18745
X150876Y54635
X150876Y73609
X128016Y28346
X60808Y8458
X133731Y229
X123901Y229
X114300Y32233
X104242Y32233
X97841Y25832
X88468Y24232
X79781Y15545
X69266Y15545
X146075Y66751
X135560Y55550
X127102Y48235
X119786Y35433
X74524Y13030
X89611Y13716
X92583Y16231
X103099Y19888
X100813Y18059
X96241Y13487
X90526Y13487
X75667Y10287
X60350Y229
X146075Y57379
X136474Y55321
X129388Y54407
X120015Y54407
X18288Y12573
X4801Y82525
X149962Y63322
X115900Y35433
X107213Y13487
X97612Y4801
X69494Y1829
X38862Y-457
M30