G04 EAGLE Gerber X2 export*
%TF.Part,Single*%
%TF.FileFunction,Profile,NP*%
%TF.FilePolarity,Positive*%
%TF.GenerationSoftware,Autodesk,EAGLE,9.1.3*%
%TF.CreationDate,2020-03-16T01:18:41Z*%
G75*
%MOMM*%
%FSLAX34Y34*%
%LPD*%
%AMOC8*
5,1,8,0,0,1.08239X$1,22.5*%
G01*
%ADD10C,0.254000*%


D10*
X0Y-30480D02*
X1587300Y-30480D01*
X1587300Y847600D01*
X0Y847600D01*
X0Y-30480D01*
X12294Y591185D02*
X11487Y591265D01*
X10692Y591423D01*
X9916Y591658D01*
X9166Y591969D01*
X8451Y592351D01*
X7777Y592802D01*
X7150Y593316D01*
X6576Y593890D01*
X6062Y594517D01*
X5611Y595191D01*
X5229Y595906D01*
X4918Y596656D01*
X4683Y597432D01*
X4525Y598227D01*
X4445Y599034D01*
X4445Y599846D01*
X4525Y600653D01*
X4683Y601448D01*
X4918Y602224D01*
X5229Y602974D01*
X5611Y603689D01*
X6062Y604363D01*
X6576Y604990D01*
X7150Y605564D01*
X7777Y606078D01*
X8451Y606529D01*
X9166Y606911D01*
X9916Y607222D01*
X10692Y607457D01*
X11487Y607616D01*
X12294Y607695D01*
X13106Y607695D01*
X13913Y607616D01*
X14708Y607457D01*
X15484Y607222D01*
X16234Y606911D01*
X16949Y606529D01*
X17623Y606078D01*
X18250Y605564D01*
X18824Y604990D01*
X19338Y604363D01*
X19789Y603689D01*
X20171Y602974D01*
X20482Y602224D01*
X20717Y601448D01*
X20876Y600653D01*
X20955Y599846D01*
X20955Y599034D01*
X20876Y598227D01*
X20717Y597432D01*
X20482Y596656D01*
X20171Y595906D01*
X19789Y595191D01*
X19338Y594517D01*
X18824Y593890D01*
X18250Y593316D01*
X17623Y592802D01*
X16949Y592351D01*
X16234Y591969D01*
X15484Y591658D01*
X14708Y591423D01*
X13913Y591265D01*
X13106Y591185D01*
X12294Y591185D01*
X12294Y438785D02*
X11487Y438865D01*
X10692Y439023D01*
X9916Y439258D01*
X9166Y439569D01*
X8451Y439951D01*
X7777Y440402D01*
X7150Y440916D01*
X6576Y441490D01*
X6062Y442117D01*
X5611Y442791D01*
X5229Y443506D01*
X4918Y444256D01*
X4683Y445032D01*
X4525Y445827D01*
X4445Y446634D01*
X4445Y447446D01*
X4525Y448253D01*
X4683Y449048D01*
X4918Y449824D01*
X5229Y450574D01*
X5611Y451289D01*
X6062Y451963D01*
X6576Y452590D01*
X7150Y453164D01*
X7777Y453678D01*
X8451Y454129D01*
X9166Y454511D01*
X9916Y454822D01*
X10692Y455057D01*
X11487Y455216D01*
X12294Y455295D01*
X13106Y455295D01*
X13913Y455216D01*
X14708Y455057D01*
X15484Y454822D01*
X16234Y454511D01*
X16949Y454129D01*
X17623Y453678D01*
X18250Y453164D01*
X18824Y452590D01*
X19338Y451963D01*
X19789Y451289D01*
X20171Y450574D01*
X20482Y449824D01*
X20717Y449048D01*
X20876Y448253D01*
X20955Y447446D01*
X20955Y446634D01*
X20876Y445827D01*
X20717Y445032D01*
X20482Y444256D01*
X20171Y443506D01*
X19789Y442791D01*
X19338Y442117D01*
X18824Y441490D01*
X18250Y440916D01*
X17623Y440402D01*
X16949Y439951D01*
X16234Y439569D01*
X15484Y439258D01*
X14708Y439023D01*
X13913Y438865D01*
X13106Y438785D01*
X12294Y438785D01*
X418694Y438785D02*
X417887Y438865D01*
X417092Y439023D01*
X416316Y439258D01*
X415566Y439569D01*
X414851Y439951D01*
X414177Y440402D01*
X413550Y440916D01*
X412976Y441490D01*
X412462Y442117D01*
X412011Y442791D01*
X411629Y443506D01*
X411318Y444256D01*
X411083Y445032D01*
X410925Y445827D01*
X410845Y446634D01*
X410845Y447446D01*
X410925Y448253D01*
X411083Y449048D01*
X411318Y449824D01*
X411629Y450574D01*
X412011Y451289D01*
X412462Y451963D01*
X412976Y452590D01*
X413550Y453164D01*
X414177Y453678D01*
X414851Y454129D01*
X415566Y454511D01*
X416316Y454822D01*
X417092Y455057D01*
X417887Y455216D01*
X418694Y455295D01*
X419506Y455295D01*
X420313Y455216D01*
X421108Y455057D01*
X421884Y454822D01*
X422634Y454511D01*
X423349Y454129D01*
X424023Y453678D01*
X424650Y453164D01*
X425224Y452590D01*
X425738Y451963D01*
X426189Y451289D01*
X426571Y450574D01*
X426882Y449824D01*
X427117Y449048D01*
X427276Y448253D01*
X427355Y447446D01*
X427355Y446634D01*
X427276Y445827D01*
X427117Y445032D01*
X426882Y444256D01*
X426571Y443506D01*
X426189Y442791D01*
X425738Y442117D01*
X425224Y441490D01*
X424650Y440916D01*
X424023Y440402D01*
X423349Y439951D01*
X422634Y439569D01*
X421884Y439258D01*
X421108Y439023D01*
X420313Y438865D01*
X419506Y438785D01*
X418694Y438785D01*
X418694Y591185D02*
X417887Y591265D01*
X417092Y591423D01*
X416316Y591658D01*
X415566Y591969D01*
X414851Y592351D01*
X414177Y592802D01*
X413550Y593316D01*
X412976Y593890D01*
X412462Y594517D01*
X412011Y595191D01*
X411629Y595906D01*
X411318Y596656D01*
X411083Y597432D01*
X410925Y598227D01*
X410845Y599034D01*
X410845Y599846D01*
X410925Y600653D01*
X411083Y601448D01*
X411318Y602224D01*
X411629Y602974D01*
X412011Y603689D01*
X412462Y604363D01*
X412976Y604990D01*
X413550Y605564D01*
X414177Y606078D01*
X414851Y606529D01*
X415566Y606911D01*
X416316Y607222D01*
X417092Y607457D01*
X417887Y607616D01*
X418694Y607695D01*
X419506Y607695D01*
X420313Y607616D01*
X421108Y607457D01*
X421884Y607222D01*
X422634Y606911D01*
X423349Y606529D01*
X424023Y606078D01*
X424650Y605564D01*
X425224Y604990D01*
X425738Y604363D01*
X426189Y603689D01*
X426571Y602974D01*
X426882Y602224D01*
X427117Y601448D01*
X427276Y600653D01*
X427355Y599846D01*
X427355Y599034D01*
X427276Y598227D01*
X427117Y597432D01*
X426882Y596656D01*
X426571Y595906D01*
X426189Y595191D01*
X425738Y594517D01*
X425224Y593890D01*
X424650Y593316D01*
X424023Y592802D01*
X423349Y592351D01*
X422634Y591969D01*
X421884Y591658D01*
X421108Y591423D01*
X420313Y591265D01*
X419506Y591185D01*
X418694Y591185D01*
X122950Y57991D02*
X122877Y56976D01*
X122733Y55968D01*
X122516Y54974D01*
X122229Y53997D01*
X121874Y53043D01*
X121451Y52117D01*
X120963Y51224D01*
X120413Y50368D01*
X119803Y49553D01*
X119136Y48784D01*
X118416Y48064D01*
X117647Y47397D01*
X116832Y46787D01*
X115976Y46237D01*
X115083Y45749D01*
X114157Y45326D01*
X113203Y44971D01*
X112226Y44684D01*
X111232Y44467D01*
X110224Y44323D01*
X109209Y44250D01*
X108191Y44250D01*
X107176Y44323D01*
X106168Y44467D01*
X105174Y44684D01*
X104197Y44971D01*
X103243Y45326D01*
X102317Y45749D01*
X101424Y46237D01*
X100568Y46787D01*
X99753Y47397D01*
X98984Y48064D01*
X98264Y48784D01*
X97597Y49553D01*
X96987Y50368D01*
X96437Y51224D01*
X95949Y52117D01*
X95526Y53043D01*
X95171Y53997D01*
X94884Y54974D01*
X94667Y55968D01*
X94523Y56976D01*
X94450Y57991D01*
X94450Y59009D01*
X94523Y60024D01*
X94667Y61032D01*
X94884Y62026D01*
X95171Y63003D01*
X95526Y63957D01*
X95949Y64883D01*
X96437Y65776D01*
X96987Y66632D01*
X97597Y67447D01*
X98264Y68216D01*
X98984Y68936D01*
X99753Y69603D01*
X100568Y70213D01*
X101424Y70763D01*
X102317Y71251D01*
X103243Y71674D01*
X104197Y72029D01*
X105174Y72316D01*
X106168Y72533D01*
X107176Y72677D01*
X108191Y72750D01*
X109209Y72750D01*
X110224Y72677D01*
X111232Y72533D01*
X112226Y72316D01*
X113203Y72029D01*
X114157Y71674D01*
X115083Y71251D01*
X115976Y70763D01*
X116832Y70213D01*
X117647Y69603D01*
X118416Y68936D01*
X119136Y68216D01*
X119803Y67447D01*
X120413Y66632D01*
X120963Y65776D01*
X121451Y64883D01*
X121874Y63957D01*
X122229Y63003D01*
X122516Y62026D01*
X122733Y61032D01*
X122877Y60024D01*
X122950Y59009D01*
X122950Y57991D01*
X692950Y57991D02*
X692877Y56976D01*
X692733Y55968D01*
X692516Y54974D01*
X692229Y53997D01*
X691874Y53043D01*
X691451Y52117D01*
X690963Y51224D01*
X690413Y50368D01*
X689803Y49553D01*
X689136Y48784D01*
X688416Y48064D01*
X687647Y47397D01*
X686832Y46787D01*
X685976Y46237D01*
X685083Y45749D01*
X684157Y45326D01*
X683203Y44971D01*
X682226Y44684D01*
X681232Y44467D01*
X680224Y44323D01*
X679209Y44250D01*
X678191Y44250D01*
X677176Y44323D01*
X676168Y44467D01*
X675174Y44684D01*
X674197Y44971D01*
X673243Y45326D01*
X672317Y45749D01*
X671424Y46237D01*
X670568Y46787D01*
X669753Y47397D01*
X668984Y48064D01*
X668264Y48784D01*
X667597Y49553D01*
X666987Y50368D01*
X666437Y51224D01*
X665949Y52117D01*
X665526Y53043D01*
X665171Y53997D01*
X664884Y54974D01*
X664667Y55968D01*
X664523Y56976D01*
X664450Y57991D01*
X664450Y59009D01*
X664523Y60024D01*
X664667Y61032D01*
X664884Y62026D01*
X665171Y63003D01*
X665526Y63957D01*
X665949Y64883D01*
X666437Y65776D01*
X666987Y66632D01*
X667597Y67447D01*
X668264Y68216D01*
X668984Y68936D01*
X669753Y69603D01*
X670568Y70213D01*
X671424Y70763D01*
X672317Y71251D01*
X673243Y71674D01*
X674197Y72029D01*
X675174Y72316D01*
X676168Y72533D01*
X677176Y72677D01*
X678191Y72750D01*
X679209Y72750D01*
X680224Y72677D01*
X681232Y72533D01*
X682226Y72316D01*
X683203Y72029D01*
X684157Y71674D01*
X685083Y71251D01*
X685976Y70763D01*
X686832Y70213D01*
X687647Y69603D01*
X688416Y68936D01*
X689136Y68216D01*
X689803Y67447D01*
X690413Y66632D01*
X690963Y65776D01*
X691451Y64883D01*
X691874Y63957D01*
X692229Y63003D01*
X692516Y62026D01*
X692733Y61032D01*
X692877Y60024D01*
X692950Y59009D01*
X692950Y57991D01*
X923050Y57991D02*
X922977Y56976D01*
X922833Y55968D01*
X922616Y54974D01*
X922329Y53997D01*
X921974Y53043D01*
X921551Y52117D01*
X921063Y51224D01*
X920513Y50368D01*
X919903Y49553D01*
X919236Y48784D01*
X918516Y48064D01*
X917747Y47397D01*
X916932Y46787D01*
X916076Y46237D01*
X915183Y45749D01*
X914257Y45326D01*
X913303Y44971D01*
X912326Y44684D01*
X911332Y44467D01*
X910324Y44323D01*
X909309Y44250D01*
X908291Y44250D01*
X907276Y44323D01*
X906268Y44467D01*
X905274Y44684D01*
X904297Y44971D01*
X903343Y45326D01*
X902417Y45749D01*
X901524Y46237D01*
X900668Y46787D01*
X899853Y47397D01*
X899084Y48064D01*
X898364Y48784D01*
X897697Y49553D01*
X897087Y50368D01*
X896537Y51224D01*
X896049Y52117D01*
X895626Y53043D01*
X895271Y53997D01*
X894984Y54974D01*
X894767Y55968D01*
X894623Y56976D01*
X894550Y57991D01*
X894550Y59009D01*
X894623Y60024D01*
X894767Y61032D01*
X894984Y62026D01*
X895271Y63003D01*
X895626Y63957D01*
X896049Y64883D01*
X896537Y65776D01*
X897087Y66632D01*
X897697Y67447D01*
X898364Y68216D01*
X899084Y68936D01*
X899853Y69603D01*
X900668Y70213D01*
X901524Y70763D01*
X902417Y71251D01*
X903343Y71674D01*
X904297Y72029D01*
X905274Y72316D01*
X906268Y72533D01*
X907276Y72677D01*
X908291Y72750D01*
X909309Y72750D01*
X910324Y72677D01*
X911332Y72533D01*
X912326Y72316D01*
X913303Y72029D01*
X914257Y71674D01*
X915183Y71251D01*
X916076Y70763D01*
X916932Y70213D01*
X917747Y69603D01*
X918516Y68936D01*
X919236Y68216D01*
X919903Y67447D01*
X920513Y66632D01*
X921063Y65776D01*
X921551Y64883D01*
X921974Y63957D01*
X922329Y63003D01*
X922616Y62026D01*
X922833Y61032D01*
X922977Y60024D01*
X923050Y59009D01*
X923050Y57991D01*
X1493050Y57991D02*
X1492977Y56976D01*
X1492833Y55968D01*
X1492616Y54974D01*
X1492329Y53997D01*
X1491974Y53043D01*
X1491551Y52117D01*
X1491063Y51224D01*
X1490513Y50368D01*
X1489903Y49553D01*
X1489236Y48784D01*
X1488516Y48064D01*
X1487747Y47397D01*
X1486932Y46787D01*
X1486076Y46237D01*
X1485183Y45749D01*
X1484257Y45326D01*
X1483303Y44971D01*
X1482326Y44684D01*
X1481332Y44467D01*
X1480324Y44323D01*
X1479309Y44250D01*
X1478291Y44250D01*
X1477276Y44323D01*
X1476268Y44467D01*
X1475274Y44684D01*
X1474297Y44971D01*
X1473343Y45326D01*
X1472417Y45749D01*
X1471524Y46237D01*
X1470668Y46787D01*
X1469853Y47397D01*
X1469084Y48064D01*
X1468364Y48784D01*
X1467697Y49553D01*
X1467087Y50368D01*
X1466537Y51224D01*
X1466049Y52117D01*
X1465626Y53043D01*
X1465271Y53997D01*
X1464984Y54974D01*
X1464767Y55968D01*
X1464623Y56976D01*
X1464550Y57991D01*
X1464550Y59009D01*
X1464623Y60024D01*
X1464767Y61032D01*
X1464984Y62026D01*
X1465271Y63003D01*
X1465626Y63957D01*
X1466049Y64883D01*
X1466537Y65776D01*
X1467087Y66632D01*
X1467697Y67447D01*
X1468364Y68216D01*
X1469084Y68936D01*
X1469853Y69603D01*
X1470668Y70213D01*
X1471524Y70763D01*
X1472417Y71251D01*
X1473343Y71674D01*
X1474297Y72029D01*
X1475274Y72316D01*
X1476268Y72533D01*
X1477276Y72677D01*
X1478291Y72750D01*
X1479309Y72750D01*
X1480324Y72677D01*
X1481332Y72533D01*
X1482326Y72316D01*
X1483303Y72029D01*
X1484257Y71674D01*
X1485183Y71251D01*
X1486076Y70763D01*
X1486932Y70213D01*
X1487747Y69603D01*
X1488516Y68936D01*
X1489236Y68216D01*
X1489903Y67447D01*
X1490513Y66632D01*
X1491063Y65776D01*
X1491551Y64883D01*
X1491974Y63957D01*
X1492329Y63003D01*
X1492616Y62026D01*
X1492833Y61032D01*
X1492977Y60024D01*
X1493050Y59009D01*
X1493050Y57991D01*
M02*
