G04 EAGLE Gerber X2 export*
%TF.Part,Single*%
%TF.FileFunction,Paste,Top*%
%TF.FilePolarity,Positive*%
%TF.GenerationSoftware,Autodesk,EAGLE,9.1.3*%
%TF.CreationDate,2020-03-16T01:18:41Z*%
G75*
%MOMM*%
%FSLAX34Y34*%
%LPD*%
%AMOC8*
5,1,8,0,0,1.08239X$1,22.5*%
G01*
%ADD10R,1.300000X1.500000*%
%ADD11R,1.500000X1.300000*%
%ADD12R,1.000000X1.400000*%
%ADD13R,0.800000X1.532000*%
%ADD14R,3.810000X2.794000*%
%ADD15R,5.400000X6.200000*%
%ADD16R,1.000000X1.600000*%
%ADD17R,1.200000X1.200000*%
%ADD18R,1.525000X0.700000*%
%ADD19R,1.100000X1.000000*%
%ADD20R,0.700000X1.525000*%
%ADD21R,1.700000X1.800000*%
%ADD22R,1.400000X1.000000*%
%ADD23R,1.400000X1.400000*%


D10*
X98400Y165100D03*
X79400Y165100D03*
D11*
X584200Y358800D03*
X584200Y377800D03*
X1422400Y206400D03*
X1422400Y225400D03*
X762000Y358800D03*
X762000Y377800D03*
X330200Y142900D03*
X330200Y161900D03*
X533400Y358800D03*
X533400Y377800D03*
X800100Y733400D03*
X800100Y714400D03*
X749300Y733400D03*
X749300Y714400D03*
X698500Y733400D03*
X698500Y714400D03*
X279400Y320700D03*
X279400Y339700D03*
X228600Y320700D03*
X228600Y339700D03*
X25400Y206400D03*
X25400Y225400D03*
X177800Y320700D03*
X177800Y339700D03*
X127000Y320700D03*
X127000Y339700D03*
X990600Y219100D03*
X990600Y238100D03*
X406400Y212700D03*
X406400Y193700D03*
X1054100Y219100D03*
X1054100Y238100D03*
X355600Y212700D03*
X355600Y193700D03*
X1117600Y219100D03*
X1117600Y238100D03*
X304800Y212700D03*
X304800Y193700D03*
X1181100Y219100D03*
X1181100Y238100D03*
D12*
X60300Y265000D03*
X41300Y265000D03*
X50800Y243000D03*
X466700Y265000D03*
X447700Y265000D03*
X457200Y243000D03*
X415900Y265000D03*
X396900Y265000D03*
X406400Y243000D03*
X365100Y265000D03*
X346100Y265000D03*
X355600Y243000D03*
X314300Y265000D03*
X295300Y265000D03*
X304800Y243000D03*
X263500Y265000D03*
X244500Y265000D03*
X254000Y243000D03*
X212700Y265000D03*
X193700Y265000D03*
X203200Y243000D03*
X161900Y265000D03*
X142900Y265000D03*
X152400Y243000D03*
X111100Y265000D03*
X92100Y265000D03*
X101600Y243000D03*
D13*
X1414140Y315560D03*
X1428120Y315560D03*
X1442080Y315560D03*
X1456060Y315560D03*
X1456060Y370240D03*
X1442080Y370240D03*
X1428120Y370240D03*
X1414140Y370240D03*
D14*
X1435100Y342900D03*
D13*
X1490340Y315560D03*
X1504320Y315560D03*
X1518280Y315560D03*
X1532260Y315560D03*
X1532260Y370240D03*
X1518280Y370240D03*
X1504320Y370240D03*
X1490340Y370240D03*
D14*
X1511300Y342900D03*
D15*
X635000Y178200D03*
D16*
X657800Y251200D03*
X612200Y251200D03*
D17*
X1509100Y749300D03*
X1488100Y749300D03*
X1509100Y685800D03*
X1488100Y685800D03*
X1509100Y622300D03*
X1488100Y622300D03*
X1509100Y558800D03*
X1488100Y558800D03*
X1509100Y495300D03*
X1488100Y495300D03*
X1509100Y812800D03*
X1488100Y812800D03*
D18*
X1128580Y374650D03*
X1128580Y361950D03*
X1128580Y349250D03*
X1128580Y336550D03*
X1182820Y336550D03*
X1182820Y349250D03*
X1182820Y361950D03*
X1182820Y374650D03*
X1128580Y527050D03*
X1128580Y514350D03*
X1128580Y501650D03*
X1128580Y488950D03*
X1182820Y488950D03*
X1182820Y501650D03*
X1182820Y514350D03*
X1182820Y527050D03*
X1128580Y450850D03*
X1128580Y438150D03*
X1128580Y425450D03*
X1128580Y412750D03*
X1182820Y412750D03*
X1182820Y425450D03*
X1182820Y438150D03*
X1182820Y450850D03*
X1128580Y603250D03*
X1128580Y590550D03*
X1128580Y577850D03*
X1128580Y565150D03*
X1182820Y565150D03*
X1182820Y577850D03*
X1182820Y590550D03*
X1182820Y603250D03*
X1128580Y679450D03*
X1128580Y666750D03*
X1128580Y654050D03*
X1128580Y641350D03*
X1182820Y641350D03*
X1182820Y654050D03*
X1182820Y666750D03*
X1182820Y679450D03*
X1128580Y755650D03*
X1128580Y742950D03*
X1128580Y730250D03*
X1128580Y717550D03*
X1182820Y717550D03*
X1182820Y730250D03*
X1182820Y742950D03*
X1182820Y755650D03*
D11*
X939800Y187300D03*
X939800Y168300D03*
X1422400Y155600D03*
X1422400Y174600D03*
X1485900Y155600D03*
X1485900Y174600D03*
D19*
X457200Y194700D03*
X457200Y211700D03*
D10*
X1057300Y482600D03*
X1076300Y482600D03*
X1057300Y520700D03*
X1076300Y520700D03*
X1451000Y749300D03*
X1470000Y749300D03*
X1451000Y685800D03*
X1470000Y685800D03*
X1451000Y622300D03*
X1470000Y622300D03*
X1451000Y558800D03*
X1470000Y558800D03*
X1050900Y266700D03*
X1031900Y266700D03*
D11*
X939800Y219100D03*
X939800Y238100D03*
D10*
X1076300Y368300D03*
X1057300Y368300D03*
D11*
X1536700Y269900D03*
X1536700Y288900D03*
X1409700Y288900D03*
X1409700Y269900D03*
X1447800Y441300D03*
X1447800Y422300D03*
X1524000Y422300D03*
X1524000Y441300D03*
D10*
X1451000Y495300D03*
X1470000Y495300D03*
X1076300Y444500D03*
X1057300Y444500D03*
X1057300Y406400D03*
X1076300Y406400D03*
X1076300Y596900D03*
X1057300Y596900D03*
X1057300Y558800D03*
X1076300Y558800D03*
X79400Y190500D03*
X98400Y190500D03*
X1076300Y673100D03*
X1057300Y673100D03*
X1057300Y635000D03*
X1076300Y635000D03*
X1076300Y749300D03*
X1057300Y749300D03*
X1057300Y711200D03*
X1076300Y711200D03*
X841400Y254000D03*
X860400Y254000D03*
X574700Y254000D03*
X593700Y254000D03*
X1451000Y812800D03*
X1470000Y812800D03*
D11*
X990600Y168300D03*
X990600Y187300D03*
X1054100Y168300D03*
X1054100Y187300D03*
X1117600Y168300D03*
X1117600Y187300D03*
D19*
X254000Y194700D03*
X254000Y211700D03*
X203200Y194700D03*
X203200Y211700D03*
D11*
X1181100Y168300D03*
X1181100Y187300D03*
D12*
X41300Y166800D03*
X60300Y166800D03*
X50800Y188800D03*
D20*
X565150Y633280D03*
X577850Y633280D03*
X590550Y633280D03*
X603250Y633280D03*
X603250Y687520D03*
X590550Y687520D03*
X577850Y687520D03*
X565150Y687520D03*
X488950Y633280D03*
X501650Y633280D03*
X514350Y633280D03*
X527050Y633280D03*
X527050Y687520D03*
X514350Y687520D03*
X501650Y687520D03*
X488950Y687520D03*
D12*
X482600Y531700D03*
X492100Y509700D03*
X473100Y509700D03*
X571500Y531700D03*
X581000Y509700D03*
X562000Y509700D03*
D11*
X482600Y460400D03*
X482600Y479400D03*
D10*
X447700Y584200D03*
X466700Y584200D03*
D11*
X571500Y479400D03*
X571500Y460400D03*
D10*
X555600Y584200D03*
X536600Y584200D03*
D12*
X660400Y531700D03*
X669900Y509700D03*
X650900Y509700D03*
D11*
X673100Y447700D03*
X673100Y466700D03*
D10*
X625500Y596900D03*
X644500Y596900D03*
D21*
X444500Y515800D03*
X444500Y474800D03*
X533400Y515800D03*
X533400Y474800D03*
X622300Y515800D03*
X622300Y474800D03*
D12*
X746100Y569800D03*
X727100Y569800D03*
X736600Y547800D03*
D11*
X736600Y479400D03*
X736600Y460400D03*
D10*
X720700Y508000D03*
X701700Y508000D03*
X752500Y508000D03*
X771500Y508000D03*
D11*
X520700Y428600D03*
X520700Y409600D03*
X444500Y428600D03*
X444500Y409600D03*
X622300Y428600D03*
X622300Y409600D03*
D12*
X876300Y519000D03*
X885800Y497000D03*
X866800Y497000D03*
D11*
X876300Y447700D03*
X876300Y466700D03*
D10*
X841400Y584200D03*
X860400Y584200D03*
D21*
X838200Y515800D03*
X838200Y474800D03*
D11*
X838200Y428600D03*
X838200Y409600D03*
X38100Y555600D03*
X38100Y536600D03*
D10*
X79400Y558800D03*
X98400Y558800D03*
D22*
X179500Y711200D03*
X201500Y720700D03*
X201500Y701700D03*
D10*
X250800Y685800D03*
X231800Y685800D03*
D11*
X152400Y663600D03*
X152400Y682600D03*
D21*
X101600Y690700D03*
X101600Y731700D03*
D11*
X152400Y739800D03*
X152400Y758800D03*
D23*
X698500Y222200D03*
X698500Y184200D03*
X736600Y222200D03*
X736600Y184200D03*
X774700Y222200D03*
X774700Y184200D03*
D12*
X92100Y776400D03*
X111100Y776400D03*
X101600Y798400D03*
D10*
X339700Y711200D03*
X320700Y711200D03*
D11*
X50800Y796900D03*
X50800Y777900D03*
D10*
X396900Y711200D03*
X415900Y711200D03*
M02*
