G04 EAGLE Gerber X2 export*
%TF.Part,Single*%
%TF.FileFunction,Soldermask,Bot,1*%
%TF.FilePolarity,Negative*%
%TF.GenerationSoftware,Autodesk,EAGLE,9.1.3*%
%TF.CreationDate,2020-03-16T01:18:41Z*%
G75*
%MOMM*%
%FSLAX34Y34*%
%LPD*%
%AMOC8*
5,1,8,0,0,1.08239X$1,22.5*%
G01*
%ADD10C,1.727200*%
%ADD11C,1.524000*%
%ADD12C,1.511200*%
%ADD13R,1.981200X1.981200*%
%ADD14C,1.981200*%
%ADD15C,1.854200*%
%ADD16C,3.053200*%
%ADD17R,2.828200X2.828200*%
%ADD18C,2.828200*%
%ADD19C,0.959600*%


D10*
X1282700Y754380D02*
X1282700Y769620D01*
X1308100Y769620D02*
X1308100Y754380D01*
X1333500Y754380D02*
X1333500Y769620D01*
D11*
X1276604Y685800D02*
X1263396Y685800D01*
X1263396Y660400D02*
X1276604Y660400D01*
X1339596Y660400D02*
X1352804Y660400D01*
X1352804Y685800D02*
X1339596Y685800D01*
X1276604Y635000D02*
X1263396Y635000D01*
X1263396Y609600D02*
X1276604Y609600D01*
X1339596Y635000D02*
X1352804Y635000D01*
X1352804Y609600D02*
X1339596Y609600D01*
D10*
X774700Y261620D02*
X774700Y246380D01*
X800100Y246380D02*
X800100Y261620D01*
X520700Y261620D02*
X520700Y246380D01*
X546100Y246380D02*
X546100Y261620D01*
D12*
X241300Y800100D03*
X266700Y800100D03*
X292100Y800100D03*
X317500Y800100D03*
X342900Y800100D03*
X368300Y800100D03*
X393700Y800100D03*
X419100Y800100D03*
X457200Y800100D03*
X482600Y800100D03*
X508000Y800100D03*
X533400Y800100D03*
X558800Y800100D03*
X584200Y800100D03*
X609600Y800100D03*
X635000Y800100D03*
X685800Y800100D03*
X711200Y800100D03*
X736600Y800100D03*
X762000Y800100D03*
X787400Y800100D03*
X812800Y800100D03*
X838200Y800100D03*
X863600Y800100D03*
X939800Y800100D03*
X939800Y774700D03*
X939800Y749300D03*
X939800Y723900D03*
X939800Y698500D03*
X939800Y673100D03*
X939800Y647700D03*
X939800Y622300D03*
X939800Y596900D03*
X939800Y571500D03*
X939800Y546100D03*
X939800Y520700D03*
X939800Y495300D03*
X939800Y469900D03*
X939800Y444500D03*
X939800Y419100D03*
X939800Y393700D03*
X939800Y368300D03*
X965200Y368300D03*
X965200Y393700D03*
X965200Y419100D03*
X965200Y444500D03*
X965200Y469900D03*
X965200Y495300D03*
X965200Y520700D03*
X965200Y546100D03*
X965200Y571500D03*
X965200Y596900D03*
X965200Y622300D03*
X965200Y647700D03*
X965200Y673100D03*
X965200Y698500D03*
X965200Y723900D03*
X965200Y749300D03*
X965200Y774700D03*
X965200Y800100D03*
X914400Y317500D03*
X889000Y317500D03*
X863600Y317500D03*
X838200Y317500D03*
X812800Y317500D03*
X787400Y317500D03*
X762000Y317500D03*
X736600Y317500D03*
X685800Y317500D03*
X660400Y317500D03*
X635000Y317500D03*
X609600Y317500D03*
X584200Y317500D03*
X558800Y317500D03*
X533400Y317500D03*
X508000Y317500D03*
X457200Y317500D03*
X431800Y317500D03*
X406400Y317500D03*
X381000Y317500D03*
X355600Y317500D03*
X330200Y317500D03*
D10*
X1333500Y513080D02*
X1333500Y528320D01*
X1308100Y528320D02*
X1308100Y513080D01*
X1282700Y513080D02*
X1282700Y528320D01*
D13*
X393700Y599440D03*
D14*
X368300Y599440D03*
X342900Y599440D03*
X317500Y599440D03*
X292100Y599440D03*
X266700Y599440D03*
X241300Y599440D03*
X215900Y599440D03*
X190500Y599440D03*
X165100Y599440D03*
X139700Y599440D03*
X114300Y599440D03*
X88900Y599440D03*
X63500Y599440D03*
X38100Y599440D03*
X393700Y447040D03*
X368300Y447040D03*
X342900Y447040D03*
X317500Y447040D03*
X292100Y447040D03*
X266700Y447040D03*
X241300Y447040D03*
X215900Y447040D03*
X190500Y447040D03*
X165100Y447040D03*
X139700Y447040D03*
X114300Y447040D03*
X88900Y447040D03*
X63500Y447040D03*
X38100Y447040D03*
D15*
X12700Y599440D03*
X12700Y447040D03*
X419100Y447040D03*
X419100Y599440D03*
D11*
X1263396Y254000D02*
X1276604Y254000D01*
X1276604Y228600D02*
X1263396Y228600D01*
X1339596Y228600D02*
X1352804Y228600D01*
X1352804Y254000D02*
X1339596Y254000D01*
X1276604Y203200D02*
X1263396Y203200D01*
X1263396Y177800D02*
X1276604Y177800D01*
X1339596Y203200D02*
X1352804Y203200D01*
X1352804Y177800D02*
X1339596Y177800D01*
X1276604Y431800D02*
X1263396Y431800D01*
X1263396Y406400D02*
X1276604Y406400D01*
X1339596Y406400D02*
X1352804Y406400D01*
X1352804Y431800D02*
X1339596Y431800D01*
X1276604Y381000D02*
X1263396Y381000D01*
X1263396Y355600D02*
X1276604Y355600D01*
X1339596Y381000D02*
X1352804Y381000D01*
X1352804Y355600D02*
X1339596Y355600D01*
D16*
X108700Y58500D03*
D17*
X173700Y103500D03*
D18*
X213700Y103500D03*
X253700Y103500D03*
X293700Y103500D03*
X333700Y103500D03*
X373700Y103500D03*
X413700Y103500D03*
X453700Y103500D03*
X493700Y103500D03*
X533700Y103500D03*
X573700Y103500D03*
X613700Y103500D03*
X193700Y63500D03*
X233700Y63500D03*
X273700Y63500D03*
X313700Y63500D03*
X353700Y63500D03*
X393700Y63500D03*
X433700Y63500D03*
X473700Y63500D03*
X513700Y63500D03*
X553700Y63500D03*
X593700Y63500D03*
D16*
X678700Y58500D03*
D18*
X173700Y23500D03*
X213700Y23500D03*
X253700Y23500D03*
X293700Y23500D03*
X333700Y23500D03*
X373700Y23500D03*
X413700Y23500D03*
X453700Y23500D03*
X493700Y23500D03*
X533700Y23500D03*
X573700Y23500D03*
X613700Y23500D03*
D16*
X908800Y58500D03*
D17*
X973800Y103500D03*
D18*
X1013800Y103500D03*
X1053800Y103500D03*
X1093800Y103500D03*
X1133800Y103500D03*
X1173800Y103500D03*
X1213800Y103500D03*
X1253800Y103500D03*
X1293800Y103500D03*
X1333800Y103500D03*
X1373800Y103500D03*
X1413800Y103500D03*
X993800Y63500D03*
X1033800Y63500D03*
X1073800Y63500D03*
X1113800Y63500D03*
X1153800Y63500D03*
X1193800Y63500D03*
X1233800Y63500D03*
X1273800Y63500D03*
X1313800Y63500D03*
X1353800Y63500D03*
X1393800Y63500D03*
D16*
X1478800Y58500D03*
D18*
X973800Y23500D03*
X1013800Y23500D03*
X1053800Y23500D03*
X1093800Y23500D03*
X1133800Y23500D03*
X1173800Y23500D03*
X1213800Y23500D03*
X1253800Y23500D03*
X1293800Y23500D03*
X1333800Y23500D03*
X1373800Y23500D03*
X1413800Y23500D03*
D19*
X713232Y745236D03*
X802386Y745236D03*
X1067562Y612648D03*
X1051560Y582930D03*
X1088136Y560070D03*
X370332Y781812D03*
X630936Y624078D03*
X674370Y580644D03*
X731520Y523494D03*
X1065276Y384048D03*
X475488Y720090D03*
X587502Y701802D03*
X667512Y701802D03*
X802386Y669798D03*
X882396Y589788D03*
X1044702Y480060D03*
X1065276Y459486D03*
X747522Y630936D03*
X813816Y564642D03*
X882396Y537210D03*
X1044702Y404622D03*
X1074420Y386334D03*
X740664Y624078D03*
X813816Y370332D03*
X1040130Y281178D03*
X733806Y642366D03*
X813816Y576072D03*
X1065276Y534924D03*
X265176Y221742D03*
X265176Y235458D03*
X260604Y315468D03*
X285750Y422910D03*
X402336Y518922D03*
X596646Y722376D03*
X192024Y212598D03*
X192024Y233172D03*
X338328Y468630D03*
X429768Y477774D03*
X765810Y768096D03*
X86868Y210312D03*
X221742Y-9144D03*
X813816Y246888D03*
X315468Y235458D03*
X317754Y221742D03*
X1085850Y198882D03*
X724662Y434340D03*
X637794Y352044D03*
X368046Y320040D03*
X518922Y354330D03*
X345186Y235458D03*
X342900Y221742D03*
X317754Y246888D03*
X1010412Y123444D03*
X720090Y251460D03*
X656082Y283464D03*
X386334Y182880D03*
X153162Y301752D03*
X139446Y365760D03*
X573786Y347472D03*
X1168146Y230886D03*
X720090Y422910D03*
X176022Y365760D03*
X38862Y251460D03*
X68580Y379476D03*
X146304Y358902D03*
X194310Y358902D03*
X450342Y368046D03*
X521208Y345186D03*
X836676Y29718D03*
X836676Y82296D03*
X832104Y182880D03*
X731520Y208026D03*
X692658Y208026D03*
X692658Y235458D03*
X653796Y274320D03*
X427482Y361188D03*
X251460Y361188D03*
X212598Y765810D03*
X130302Y571500D03*
X1458468Y706374D03*
X1115568Y706374D03*
X1081278Y697230D03*
X950976Y633222D03*
X1511046Y288036D03*
X1460754Y301752D03*
X1291590Y630936D03*
X1392174Y692658D03*
X1472184Y699516D03*
X1040130Y758952D03*
X187452Y493776D03*
X1092708Y640080D03*
X1115568Y640080D03*
X1042416Y690372D03*
X406908Y626364D03*
X614934Y729234D03*
X468630Y212598D03*
X445770Y235458D03*
X724662Y541782D03*
X585216Y457200D03*
X486918Y358902D03*
X461772Y345186D03*
X1543050Y326898D03*
X1451610Y454914D03*
X1394460Y514350D03*
X1369314Y539496D03*
X1319022Y537210D03*
X112014Y171450D03*
X112014Y185166D03*
X242316Y251460D03*
X292608Y251460D03*
X434340Y249174D03*
X706374Y269748D03*
X786384Y304038D03*
X925830Y233172D03*
X866394Y169164D03*
X788670Y169164D03*
X1449324Y667512D03*
X1449324Y640080D03*
X217170Y43434D03*
X1515618Y454914D03*
X173736Y276606D03*
X203454Y276606D03*
X262890Y278892D03*
X333756Y265176D03*
X354330Y276606D03*
X333756Y285750D03*
X212598Y340614D03*
X146304Y340614D03*
X240030Y781812D03*
X203454Y745236D03*
X409194Y288036D03*
X457200Y276606D03*
X427482Y276606D03*
X205740Y489204D03*
X1405890Y441198D03*
X1515618Y272034D03*
X1517904Y294894D03*
X1479042Y272034D03*
X1065276Y249174D03*
X786384Y377190D03*
X832104Y370332D03*
X1394460Y493776D03*
X772668Y464058D03*
X784098Y452628D03*
X861822Y237744D03*
X720090Y340614D03*
X1435608Y678942D03*
X1517904Y384048D03*
X139446Y461772D03*
X93726Y203454D03*
X54864Y569214D03*
X80010Y544068D03*
X1040130Y187452D03*
X1040130Y219456D03*
X994410Y141732D03*
X912114Y141732D03*
X653796Y109728D03*
X580644Y77724D03*
X395478Y235458D03*
X393192Y221742D03*
X950976Y308610D03*
X742950Y338328D03*
X699516Y294894D03*
X468630Y235458D03*
X1104138Y230886D03*
X1010412Y342900D03*
X939546Y342900D03*
X797814Y363474D03*
X694944Y285750D03*
X628650Y224028D03*
X507492Y121158D03*
X484632Y121158D03*
X1040130Y196596D03*
X724662Y331470D03*
X482346Y182880D03*
X466344Y166878D03*
X361188Y166878D03*
X336042Y128016D03*
X1485900Y187452D03*
X1536192Y386334D03*
X432054Y813816D03*
X315468Y619506D03*
X304038Y608076D03*
X180594Y475488D03*
X160020Y393192D03*
X237744Y187452D03*
X1508760Y546354D03*
X1508760Y736092D03*
X1280160Y283464D03*
X608076Y84582D03*
X1337310Y2286D03*
X1239012Y2286D03*
X1143000Y322326D03*
X1042416Y322326D03*
X978408Y258318D03*
X884682Y242316D03*
X797814Y155448D03*
X692658Y155448D03*
X1460754Y667512D03*
X1355598Y555498D03*
X1271016Y482346D03*
X1197864Y354330D03*
X745236Y130302D03*
X896112Y137160D03*
X925830Y162306D03*
X1030986Y198882D03*
X1008126Y180594D03*
X962406Y134874D03*
X905256Y134874D03*
X756666Y102870D03*
X603504Y2286D03*
X1460754Y573786D03*
X1364742Y553212D03*
X1293876Y544068D03*
X1200150Y544068D03*
X182880Y125730D03*
X48006Y825246D03*
X1371600Y825246D03*
X1499616Y633222D03*
X1159002Y354330D03*
X1072134Y134874D03*
X976122Y48006D03*
X694944Y18288D03*
X388620Y-4572D03*
X1485900Y534924D03*
X1387602Y450342D03*
X1353312Y450342D03*
X1261872Y450342D03*
X397764Y141732D03*
X402336Y160020D03*
X384048Y304038D03*
X720090Y411480D03*
X921258Y379476D03*
X1033272Y404622D03*
X1168146Y491490D03*
X1181862Y475488D03*
X1035558Y329184D03*
X957834Y251460D03*
X898398Y192024D03*
X882396Y176022D03*
X651510Y132588D03*
X532638Y66294D03*
X1472184Y409194D03*
X1373886Y68580D03*
X1229868Y43434D03*
X667512Y96012D03*
X834390Y96012D03*
X1460754Y356616D03*
X1337310Y274320D03*
X1225296Y86868D03*
X660654Y89154D03*
X1129284Y52578D03*
X1458468Y509778D03*
X1344168Y555498D03*
X1261872Y486918D03*
X1543050Y409194D03*
X1460754Y409194D03*
X1485900Y384048D03*
X1314450Y27432D03*
X1280160Y315468D03*
X1298448Y297180D03*
X1152144Y347472D03*
X1062990Y137160D03*
X1223010Y555498D03*
X1296162Y534924D03*
X1296162Y496062D03*
X1371600Y443484D03*
X1389888Y276606D03*
X1229868Y569214D03*
X1197864Y502920D03*
X900684Y411480D03*
X866394Y192024D03*
X626364Y118872D03*
X589788Y91440D03*
X459486Y123444D03*
X386334Y141732D03*
X1243584Y507492D03*
X829818Y489204D03*
X475488Y189738D03*
X459486Y173736D03*
X276606Y182880D03*
X973836Y765810D03*
X820674Y754380D03*
X633222Y736092D03*
X496062Y653796D03*
X464058Y651510D03*
X267462Y614934D03*
X704088Y630936D03*
X724662Y610362D03*
X724662Y235458D03*
X724662Y194310D03*
X726948Y137160D03*
X752094Y112014D03*
X601218Y672084D03*
X555498Y496062D03*
X557784Y473202D03*
X489204Y404622D03*
X340614Y342900D03*
X288036Y290322D03*
X281178Y235458D03*
X278892Y137160D03*
X502920Y669798D03*
X560070Y525780D03*
X580644Y491490D03*
X628650Y306324D03*
X409194Y130302D03*
X130302Y368046D03*
X544068Y427482D03*
X436626Y397764D03*
X761238Y651510D03*
X509778Y482346D03*
X651510Y425196D03*
X747522Y438912D03*
X836676Y386334D03*
X841248Y210312D03*
X841248Y192024D03*
X598932Y514350D03*
X701802Y370332D03*
X747522Y370332D03*
X1030986Y121158D03*
X1014984Y68580D03*
X660654Y491490D03*
X649224Y290322D03*
X665226Y132588D03*
X706374Y477774D03*
X704088Y278892D03*
X690372Y262890D03*
X571500Y144018D03*
X427482Y384048D03*
X585216Y477774D03*
X1307592Y443484D03*
X1255014Y443484D03*
X1191006Y480060D03*
X978408Y498348D03*
X914400Y509778D03*
X800100Y546354D03*
X589788Y617220D03*
X509778Y605790D03*
X194310Y582930D03*
X43434Y473202D03*
X1380744Y539496D03*
X1408176Y566928D03*
X201168Y811530D03*
X1319022Y208026D03*
X166878Y710946D03*
X153162Y697230D03*
X633222Y818388D03*
X1309878Y818388D03*
X1328166Y294894D03*
X141732Y331470D03*
X201168Y352044D03*
X436626Y354330D03*
X651510Y265176D03*
X786384Y722376D03*
X786384Y614934D03*
M02*
